<?xml version="1.0" encoding="utf-8"?>
<!-- Generator: Adobe Illustrator 22.0.0, SVG Export Plug-In . SVG Version: 6.00 Build 0)  -->
<svg version="1.1" id="图层_1" xmlns="http://www.w3.org/2000/svg" xmlns:xlink="http://www.w3.org/1999/xlink" x="0px" y="0px"
	 viewBox="0 0 24 24" style="enable-background:new 0 0 24 24;" xml:space="preserve">
<style type="text/css">
	.st0{fill:#009BEF;}
	.st1{fill:#FFFFFF;}
</style>
<image style="overflow:visible;" width="139" height="209" xlink:href="E53F656F.jpg"  transform="matrix(1 0 0 1 -222 -74)">
</image>
<path class="st0" d="M21.7,10.4"/>
<g>
	<path class="st1" d="M5.2,18.6h13.7V2.1H5.2V18.6z M6.4,17.4h11.1V3.3H6.4V17.4z M13.1,20.7c0,0.6-0.5,1-1.1,1
		c-0.6,0-1.1-0.5-1.1-1c0-0.6,0.5-1,1.1-1C12.7,19.6,13.1,20.1,13.1,20.7L13.1,20.7z M18.8,24H5.2C4,24,3,23.1,3,21.9V2.1
		C3,0.9,4,0,5.2,0h13.6C20,0,21,0.9,21,2.1v19.8C21,23.1,20,24,18.8,24L18.8,24z M5.2,1.2c-0.5,0-0.9,0.4-0.9,0.9v19.8
		c0,0.5,0.4,0.9,0.9,0.9h13.6c0.5,0,0.9-0.4,0.9-0.9V2.1c0-0.5-0.4-0.9-0.9-0.9H5.2z M5.2,1.2"/>
</g>
</svg>
