<svg version="1.1" xmlns="http://www.w3.org/2000/svg" xmlns:xlink="http://www.w3.org/1999/xlink" width="229.14835" height="230.58891" viewBox="0,0,229.14835,230.58891"><g transform="translate(-127.83333,-58.57654)"><g data-paper-data="{&quot;isPaintingLayer&quot;:true}" fill="none" fill-rule="none" stroke="none" stroke-width="none" stroke-linecap="none" stroke-linejoin="none" stroke-miterlimit="10" stroke-dasharray="" stroke-dashoffset="0" font-family="none" font-weight="none" font-size="none" text-anchor="none" style="mix-blend-mode: normal"><g data-paper-data="{&quot;origPos&quot;:null}" id="Group" fill-rule="evenodd"><g id="Path"><path d="M316.13154,253.63201c0.94119,2.09155 3.2419,17.25528 3.55564,21.7521c0.62746,8.67993 -27.29472,11.18979 -30.1183,6.90211c-0.73204,-1.15036 -0.73204,-19.66056 -0.73204,-19.66056c0.10458,-12.23556 24.05281,-15.68661 27.29472,-8.99366z" fill="#fbd1a6" stroke="none" stroke-width="1" stroke-linecap="butt" stroke-linejoin="miter"/><path d="M316.65441,253.63201c0.83662,1.56866 2.09155,20.81091 3.86936,22.58872c5.85634,5.85634 -27.19014,11.81725 -30.95492,6.06549c-0.73204,-1.15036 -0.73204,-19.66056 -0.73204,-19.66056c0.10458,-12.23556 24.57569,-15.58204 27.8176,-8.99366z" fill="none" stroke="#030305" stroke-width="1.01" stroke-linecap="butt" stroke-linejoin="miter"/><path d="M328.05337,285.10981c-1.25494,3.13732 -8.15704,3.34648 -14.11795,3.13732c-7.52958,-0.31373 -15.16373,-0.94119 -22.58872,-2.09155c-1.56866,-0.20916 -1.8824,-3.86936 -1.8824,-3.86936c-0.20916,-1.15036 -0.31373,-11.71267 -0.31373,-11.71267c0,0 17.56901,7.11127 29.59541,-2.61443c0.31373,2.50986 0.73204,4.91513 1.35951,7.32042c0.10458,0.31373 0.20916,0.83662 0.31373,1.25494c3.55564,2.09155 9.7257,3.66022 7.63415,8.57535z" fill="#6ea3d7" stroke="#000000" stroke-width="1" stroke-linecap="round" stroke-linejoin="round"/><path d="M321.67413,259.27919c0,0 -8.7845,9.7257 -37.12499,3.13732c0,-1.25494 -0.20916,-2.50986 -0.41831,-3.76479c-0.31373,-0.73204 -7.425,-5.22888 -4.07852,-15.26831c4.81055,-14.01337 30.85035,-6.69295 35.97463,-0.41831z" fill="#df6282" stroke="none" stroke-width="1" stroke-linecap="butt" stroke-linejoin="miter"/><path d="M321.67413,259.27919c0,0 -8.7845,9.7257 -37.12499,3.13732c0,-1.25494 -0.20916,-2.50986 -0.41831,-3.76479c-0.31373,-0.73204 -7.425,-5.22888 -4.07852,-15.26831c4.81055,-14.01337 30.85035,-6.69295 35.97463,-0.41831z" fill="none" stroke="#030305" stroke-width="1.01" stroke-linecap="butt" stroke-linejoin="miter"/></g><path d="M323.87027,280.61298c-0.31373,1.35951 -1.56866,2.3007 -3.03275,2.19612c-1.67324,-0.10458 -3.03275,-0.94119 -3.03275,-1.8824c0.31373,-1.35951 1.56866,-2.3007 3.03275,-2.19612c1.67324,0 3.03275,0.83662 3.03275,1.8824z" id="Path" fill="#9fdbf8" stroke="none" stroke-width="1" stroke-linecap="butt" stroke-linejoin="miter"/></g><g id="Group" fill-rule="evenodd"><g id="Path"><path d="M280.67978,262.73025c0,0 -0.62746,18.0919 -1.35951,19.13767c-4.1831,6.58837 -30.85035,2.71901 -30.22287,-5.75176c0.31373,-4.49683 2.71901,-20.3926 3.76479,-22.37957c3.03275,-6.58837 27.60844,-3.13732 27.8176,8.99366z" fill="#fbd1a6" stroke="none" stroke-width="1" stroke-linecap="butt" stroke-linejoin="miter"/><path d="M280.67978,262.73025c0,0 -0.62746,18.0919 -1.35951,19.13767c-4.1831,6.58837 -37.5433,1.67324 -31.16408,-4.81055c1.77782,-1.77782 3.2419,-21.64753 3.97394,-23.32077c3.2419,-6.58837 28.34048,-3.13732 28.54963,8.99366z" fill="none" stroke="#030305" stroke-width="1.01" stroke-linecap="butt" stroke-linejoin="miter"/><path d="M286.53613,265.03094c0,0 -23.2162,3.45106 -36.91583,-5.22888c0,0 5.96091,-20.07886 6.69295,-23.52992c0.41831,-2.09155 18.92852,-5.43803 30.32745,-0.83662z" fill="#df6282" stroke="none" stroke-width="1" stroke-linecap="butt" stroke-linejoin="miter"/><path d="M286.53613,258.96546v6.06549c0,0 -23.2162,3.45106 -36.91583,-5.22888c0,0 5.96091,-20.07886 6.69295,-23.52992c0.41831,-2.09155 18.82395,-5.5426 30.32745,-0.83662" fill="none" stroke="#030305" stroke-width="1.01" stroke-linecap="butt" stroke-linejoin="miter"/><path d="M279.42485,281.34503c0,0.10458 -0.73204,3.66022 -2.71901,4.07852c-7.52958,1.77782 -14.74542,2.82359 -22.58872,3.2419c-5.96091,0.20916 -12.23556,-0.73204 -13.59507,-3.86936c-2.09155,-5.01972 4.07852,-5.96091 7.63415,-7.94789c0,-0.41831 0.10458,-0.83662 0.20916,-1.15036c0.62746,-2.50986 1.04578,-5.1243 1.46408,-7.73873c0,-0.10458 0,-0.20916 0,-0.31373c12.02641,9.7257 30.85035,0.94119 30.85035,0.94119c-0.20916,4.70598 -0.83662,11.18979 -1.25494,12.75844z" fill="#6ea3d7" stroke="#000000" stroke-width="1" stroke-linecap="round" stroke-linejoin="round"/></g><path d="M242.98356,282.11699c-0.30236,-0.87319 0.7355,-2.02532 2.31816,-2.57336c1.58265,-0.54803 3.11076,-0.28446 3.41313,0.58873c0.30236,0.87319 -0.7355,2.02532 -2.31816,2.57336c-1.58265,0.54803 -3.11076,0.28446 -3.41313,-0.58873z" id="Oval" fill="#9fdbf8" stroke="none" stroke-width="1" stroke-linecap="butt" stroke-linejoin="miter"/></g><g id="Group" fill-rule="evenodd" stroke="none" stroke-width="1" stroke-linecap="butt" stroke-linejoin="miter"><path d="M327.00759,261.89363c-1.46408,0.10458 -2.61443,-1.35951 -3.03275,-2.71901c-0.83662,-2.50986 -0.20916,-8.57535 -1.46408,-8.36619c-1.98697,0.41831 0.10458,7.32042 -4.1831,10.03943c-0.62746,0.31373 -1.46408,-0.20916 -1.98697,-0.73204c-0.41831,-0.52288 -0.73204,-1.25494 -0.94119,-1.98697c-0.52288,-1.8824 0.31373,-4.70598 0.94119,-6.79753c-0.10458,0.10458 -0.10458,0 -0.20916,0l0.10458,0.20916l-0.10458,-0.20916c-0.41831,-0.10458 -0.73204,-0.20916 -1.15036,-0.31373c-1.15036,1.15036 -5.22888,5.22888 -6.90211,3.97394c-2.61443,-2.09155 1.98697,-7.11127 4.28767,-8.88907l-0.62746,0.10458c-2.92817,-6.58837 -0.31373,-9.09824 0.52288,-10.66689c0,0 -7.21584,-19.03309 -11.60809,-32.10527c-1.67324,-5.22888 11.71267,-14.74542 18.40562,-5.85634c8.05246,10.87605 14.74542,37.22957 16.2095,37.43873c0.41831,0 0.94119,0.10458 1.35951,0c2.82359,-0.10458 9.30739,-0.31373 8.57535,4.28767c-0.41831,2.71901 -3.55564,3.55564 -5.75176,3.55564c-0.94119,0 -2.50986,-0.20916 -3.76479,-0.31373l-0.10458,0.10458c0.31373,1.67324 1.15036,3.76479 1.67324,5.33346c1.15036,3.66022 2.3007,10.45774 -1.04578,11.08521c-2.50986,0.41831 -3.86936,-0.73204 -5.85634,-7.63415c0,-0.52288 -0.41831,-1.8824 -0.83662,-2.92817l-1.04578,0.31373c-0.10458,0.10458 0,0.31373 -0.10458,0.41831c-0.10458,2.3007 2.82359,9.09824 0.83662,11.81725c-0.52288,0.62746 -1.35951,1.04578 -2.19612,0.83662z" id="Path" fill="#fbd1a6"/><g id="Path" fill="#030305"><path d="M329.09914,247.6711c0.52288,0.41831 0.83662,1.04578 1.15036,1.77782l0.62746,1.98697c0.41831,1.25494 0.83662,2.50986 1.35951,3.76479c0.41831,1.25494 1.04578,2.3007 1.98697,3.13732c0.41831,0.31373 1.04578,0.41831 1.67324,0.31373c0.52288,0 1.04578,-0.31373 1.46408,-0.62746c0.62746,-1.15036 0.94119,-2.3007 0.83662,-3.55564c-0.10458,-1.35951 -0.20916,-2.61443 -0.52288,-3.97394c-0.52288,-2.61443 -1.67324,-5.1243 -2.19612,-7.84331c-0.10458,-0.20916 0.10458,-0.31373 0.20916,-0.31373c0.20916,-0.10458 0.31373,0.10458 0.31373,0.20916c0.62746,2.61443 1.8824,5.01972 2.50986,7.73873c0.31373,1.35951 0.52288,2.71901 0.52288,4.1831c0.10458,0.73204 0,1.46408 -0.10458,2.09155c-0.10458,0.73204 -0.41831,1.46408 -0.83662,2.09155c-0.20916,0.31373 -0.52288,0.52288 -0.94119,0.73204c-0.41831,0.10458 -0.73204,0.20916 -1.15036,0.31373c-0.73204,0.20916 -1.56866,0 -2.19612,-0.41831c-0.62746,-0.41831 -1.15036,-0.94119 -1.46408,-1.67324c-0.41831,-0.62746 -0.62746,-1.25494 -0.83662,-1.8824c-0.52288,-1.25494 -0.94119,-2.61443 -1.25494,-3.86936c-0.10458,-0.62746 -0.31373,-1.35951 -0.52288,-1.98697c-0.41831,-0.83662 -0.52288,-1.56866 -0.62746,-2.19612z"/><path d="M322.61534,250.07638c0.31373,0.52288 0.62746,1.15036 0.62746,1.77782c0.10458,0.62746 0.10458,1.25494 0.20916,1.77782c0.10458,1.25494 0.20916,2.40528 0.41831,3.66022c0.10458,1.15036 0.52288,2.19612 1.25494,3.2419c0.31373,0.41831 0.73204,0.73204 1.25494,0.94119c0.20916,0.10458 0.52288,0.10458 0.73204,0.10458c0.31373,0 0.62746,-0.10458 0.83662,-0.20916c1.04578,-0.20916 1.35951,-1.46408 1.46408,-2.61443c0.10458,-1.15036 -0.10458,-2.40528 -0.31373,-3.55564c-0.20916,-1.15036 -0.52288,-2.40528 -0.73204,-3.66022c-0.10458,-0.62746 -0.20916,-1.25494 -0.31373,-1.8824c0,-0.31373 0,-0.73204 0.20916,-1.04578c0.10458,-0.20916 0.31373,-0.41831 0.52288,-0.31373c0.20916,-0.10458 0.31373,-0.10458 0.52288,-0.20916c0.20916,-0.10458 0.31373,0.10458 0.31373,0.20916c0.10458,0.20916 -0.10458,0.31373 -0.20916,0.31373c-0.31373,0.10458 -0.62746,0.10458 -0.62746,0.20916c-0.10458,0.20916 -0.10458,0.52288 0,0.73204c0.10458,0.62746 0.20916,1.15036 0.31373,1.77782c0.31373,1.15036 0.62746,2.40528 0.83662,3.55564c0.20916,1.25494 0.41831,2.50986 0.31373,3.76479c-0.10458,0.62746 -0.20916,1.35951 -0.41831,1.98697c-0.31373,0.62746 -0.83662,1.15036 -1.56866,1.46408c-0.31373,0.10458 -0.62746,0.10458 -1.04578,0.20916c-0.31373,0 -0.73204,0 -1.04578,-0.10458c-0.73204,-0.20916 -1.25494,-0.62746 -1.67324,-1.25494c-0.41831,-0.52288 -0.73204,-1.15036 -0.94119,-1.77782c-0.20916,-0.52288 -0.41831,-1.25494 -0.52288,-1.77782c-0.20916,-1.25494 -0.41831,-2.50986 -0.52288,-3.66022c0,-0.62746 -0.10458,-1.25494 -0.20916,-1.8824c0.10458,-0.62746 0.10458,-1.25494 0.31373,-1.77782z"/><path d="M316.759,250.49469c0.10458,0.52288 0.10458,1.04578 -0.10458,1.56866c-0.10458,0.52288 -0.20916,0.94119 -0.31373,1.46408c-0.20916,0.94119 -0.41831,1.98697 -0.52288,2.92817c-0.10458,0.94119 0,1.8824 0.41831,2.71901c0.20916,0.41831 0.41831,0.73204 0.83662,0.94119c0.31373,0.20916 0.73204,0.41831 1.15036,0.31373c0.94119,-0.20916 1.67324,-0.83662 1.98697,-1.67324c0.41831,-0.83662 0.73204,-1.77782 0.94119,-2.82359c0.20916,-0.94119 0.31373,-1.98697 0.31373,-3.03275c0,-0.41831 0,-0.94119 -0.10458,-1.35951l-0.10458,-0.20916v-0.10458l-0.10458,-0.20916c0,-0.10458 0,-0.20916 0.10458,-0.20916c0.10458,-0.10458 0.31373,-0.31373 0.41831,-0.31373c0.20916,-0.10458 0.62746,-0.10458 0.83662,-0.10458c0.20916,0 0.20916,0.20916 0.31373,0.31373c0,0.20916 -0.20916,0.20916 -0.31373,0.20916c-0.20916,0 -0.41831,0 -0.62746,0.10458l-0.20916,0.10458c0,0 0,0 0,-0.10458v-0.10458v0.10458l0.10458,0.20916c0.10458,0.52288 0.20916,1.04578 0.20916,1.56866c0,1.04578 -0.10458,2.09155 -0.20916,3.03275c-0.20916,1.04578 -0.52288,2.09155 -0.94119,3.03275c-0.31373,0.52288 -0.62746,0.94119 -1.04578,1.35951c-0.20916,0.20916 -0.52288,0.41831 -0.73204,0.52288l-0.94119,0.31373c-0.62746,0 -1.25494,-0.10458 -1.67324,-0.41831c-0.41831,-0.31373 -0.94119,-0.83662 -1.15036,-1.35951c-0.41831,-1.04578 -0.62746,-2.09155 -0.52288,-3.2419c0.10458,-1.04578 0.20916,-2.09155 0.52288,-3.03275c0.10458,-0.52288 0.31373,-1.04578 0.52288,-1.46408c0.20916,-0.31373 0.52288,-0.73204 0.94119,-1.04578z"/><path d="M313.09879,245.68412c-0.62746,0.62746 -1.25494,1.35951 -1.8824,2.09155c-0.52288,0.73204 -1.15036,1.25494 -1.77782,1.98697c-0.52288,0.73204 -0.94119,1.35951 -1.35951,2.19612c-0.41831,0.62746 -0.41831,1.46408 -0.10458,2.19612c0.10458,0.20916 0.20916,0.31373 0.31373,0.41831c0.10458,0.10458 0.20916,0.20916 0.41831,0.20916c0.41831,0.10458 0.73204,-0.10458 1.15036,-0.20916c0.73204,-0.31373 1.46408,-0.83662 2.19612,-1.35951c0.73204,-0.62746 1.35951,-1.15036 1.98697,-1.77782l1.04578,-0.94119c0.10458,0 0.20916,-0.10458 0.31373,-0.10458c0.20916,-0.10458 0.31373,0 0.41831,0.10458c0.20916,0 0.31373,0.20916 0.41831,0.31373c0.20916,0.20916 0.31373,0.41831 0.41831,0.62746c0.20916,0.20916 0.10458,0.52288 -0.20916,0.62746c-0.20916,0.10458 -0.52288,0.10458 -0.62746,-0.20916c-0.10458,-0.20916 -0.20916,-0.31373 -0.31373,-0.41831c0,0 0,-0.10458 -0.10458,-0.10458c0,0 0,0 0.10458,0c0.10458,0 0,0 0.10458,0l-0.94119,0.94119c-0.62746,0.62746 -1.35951,1.25494 -2.09155,1.8824c-0.73204,0.62746 -1.46408,1.15036 -2.40528,1.46408c-0.41831,0.20916 -1.04578,0.31373 -1.56866,0.31373c-0.31373,-0.10458 -0.62746,-0.20916 -0.83662,-0.41831c-0.20916,-0.20916 -0.41831,-0.41831 -0.52288,-0.62746c-0.20916,-0.41831 -0.41831,-1.04578 -0.31373,-1.56866c0,-0.41831 0.20916,-0.94119 0.31373,-1.46408c0.31373,-0.83662 0.83662,-1.77782 1.46408,-2.40528c1.15036,-1.77782 2.61443,-3.03275 4.39225,-3.76479z"/><path d="M311.42555,246.31158c-0.41831,-0.83662 -0.73204,-1.77782 -1.04578,-2.71901c-0.31373,-0.94119 -0.41831,-1.8824 -0.52288,-2.92817c0,-1.04578 0.10458,-1.98697 0.52288,-2.92817c0.41831,-0.83662 0.83662,-1.77782 1.35951,-2.50986l-0.10458,0.41831c-3.66022,-9.7257 -7.21584,-19.4514 -10.66689,-29.28168l-0.62746,-1.8824l-0.31373,-0.94119c-0.10458,-0.31373 -0.20916,-0.73204 -0.20916,-1.15036c0.10458,-1.46408 0.52288,-2.82359 1.46408,-3.86936c1.77782,-2.09155 3.86936,-3.76479 6.48379,-4.60141c2.50986,-1.04578 5.43803,-0.94119 7.84331,0.20916c1.25494,0.52288 2.3007,1.46408 3.13732,2.50986c0.83662,1.04578 1.56866,2.09155 2.19612,3.2419c2.61443,4.49683 4.81055,9.30739 6.69295,14.11795c1.8824,4.91513 3.55564,9.83028 5.33346,14.64084c0.41831,1.25494 0.83662,2.40528 1.25494,3.66022c0.20916,0.52288 0.52288,1.15036 0.73204,1.77782c0,0.10458 0.10458,0.10458 0.20916,0.31373l-0.10458,-0.10458h0.10458c0.10458,0 0.10458,0.10458 0.20916,0c0.31373,0 0.62746,0 0.94119,0c1.35951,-0.10458 2.71901,-0.10458 3.97394,0c1.35951,0.10458 2.71901,0.52288 3.86936,1.35951c0.62746,0.41831 1.04578,1.15036 1.15036,1.8824c0.20916,0.73204 0.10458,1.46408 -0.10458,2.19612c-0.20916,0.73204 -0.62746,1.25494 -1.15036,1.8824c-0.52288,0.41831 -1.15036,0.83662 -1.77782,1.04578c-1.25494,0.41831 -2.71901,0.62746 -4.07852,0.52288c-1.25494,-0.10458 -2.61443,-0.41831 -3.86936,-0.83662c1.25494,-0.20916 2.61443,-0.20916 3.86936,-0.10458c1.25494,0.10458 2.50986,0 3.66022,-0.41831c1.15036,-0.41831 1.98697,-1.25494 2.50986,-2.3007c0.52288,-1.04578 0.10458,-2.3007 -0.73204,-3.03275c-1.04578,-0.62746 -2.19612,-1.04578 -3.45106,-1.15036c-1.25494,-0.10458 -2.61443,-0.10458 -3.76479,0c-0.31373,0 -0.73204,0.10458 -1.04578,0c-0.10458,0 -0.20916,0 -0.31373,0l-0.10458,-0.10458c-0.10458,-0.10458 -0.20916,-0.10458 -0.31373,-0.20916c-0.10458,-0.10458 -0.31373,-0.31373 -0.31373,-0.52288c-0.31373,-0.62746 -0.62746,-1.25494 -0.73204,-1.77782c-0.52288,-1.15036 -0.94119,-2.50986 -1.35951,-3.66022c-1.67324,-4.91513 -3.34648,-9.83028 -5.33346,-14.64084c-1.77782,-4.81055 -3.97394,-9.51655 -6.48379,-14.01337c-0.62746,-1.15036 -1.35951,-2.19612 -2.09155,-3.13732c-0.73204,-0.94119 -1.77782,-1.77782 -2.82359,-2.3007c-2.3007,-1.04578 -4.91513,-1.04578 -7.21584,-0.10458c-2.40528,0.83662 -4.49683,2.3007 -6.06549,4.28767c-0.83662,0.94119 -1.25494,1.98697 -1.25494,3.2419c0,0.31373 0.10458,0.62746 0.20916,0.83662l0.31373,0.94119l0.62746,1.8824c3.45106,9.7257 7.0067,19.55598 10.66689,29.1771l0.10458,0.20916l-0.10458,0.20916c-0.41831,0.73204 -0.94119,1.56866 -1.35951,2.40528c-0.31373,0.83662 -0.52288,1.67324 -0.52288,2.61443c0,0.94119 0.20916,1.8824 0.31373,2.71901c0.20916,0.94119 0.52288,1.77782 0.83662,2.61443c0.10458,0.20916 0,0.31373 -0.20916,0.41831c-0.20916,0.10458 -0.31373,0 -0.41831,-0.10458z"/><path d="M322.09245,236.69047c0.20916,0 0.31373,0.10458 0.31373,0.20916l0.10458,0.20916v0.52288c0,0.31373 -0.10458,0.62746 -0.10458,0.94119c-0.20916,0.62746 -0.31373,1.25494 -0.52288,1.77782c-0.20916,0.62746 -0.62746,1.15036 -0.94119,1.67324c-0.20916,0.20916 -0.41831,0.52288 -0.62746,0.62746c-0.31373,0.31373 -0.62746,0.41831 -0.94119,0.41831c0.31373,-0.52288 0.62746,-1.04578 1.04578,-1.46408c0.41831,-0.52288 0.62746,-1.04578 0.83662,-1.56866c0.31373,-0.52288 0.41831,-1.15036 0.52288,-1.67324c0.10458,-0.31373 0.10458,-0.52288 0.20916,-0.83662c0.10458,-0.10458 0,-0.31373 0,-0.41831c0,-0.10458 0,-0.20916 0,-0.20916c-0.10458,-0.10458 -0.20916,-0.20916 0.10458,-0.20916z"/></g></g><path d="M291.86957,207.8271c-0.94119,10.56232 -71.94927,56.36723 -74.45914,57.51759c-11.29437,4.91513 -26.66724,3.76479 -26.66724,3.76479c1.46408,-2.92817 2.71901,-17.25528 2.71901,-17.25528c-10.03943,3.13732 -20.91549,3.97394 -30.74577,0.31373c-9.83028,-3.66022 -17.67359,-12.96761 -20.91549,-24.57569c12.23556,5.43803 27.50386,1.67324 36.49752,-9.41197c-9.09824,-0.52288 -17.04613,-6.58837 -24.78486,-11.92183c-7.73873,-5.33346 -15.89577,-10.45774 -24.68027,-8.15704c5.64718,-10.24859 16.73238,-14.64084 27.08556,-14.53626c10.35317,0.10458 20.28802,4.07852 30.32745,7.21584c10.35317,3.2419 17.77816,8.36619 39.63485,4.07852c30.01372,-5.85634 36.91583,-7.425 65.98836,-5.22888z" data-paper-data="{&quot;origPos&quot;:null}" id="Path" fill="#352b63" fill-rule="evenodd" stroke="#030305" stroke-width="1" stroke-linecap="butt" stroke-linejoin="miter"/><path d="M297.41218,246.31158c0,0 -8.99366,2.09155 -13.38591,1.98697" id="Path" fill="none" fill-rule="evenodd" stroke="#030305" stroke-width="1.01" stroke-linecap="round" stroke-linejoin="miter"/><g id="Group-2" fill-rule="evenodd" stroke-linejoin="miter"><path d="M322.71991,206.04928c0.62746,7.32042 0.10458,14.74542 -1.46408,21.96126c0,0 -3.13732,13.07219 -1.67324,20.07886c-14.53626,5.1243 -56.99471,0.52288 -66.72041,-8.47077c6.37922,-25.9352 -5.43803,-47.58274 4.91513,-51.4521c16.52323,-6.27465 57.62217,-9.7257 64.94259,17.88274z" id="Path" fill="#9ab8a4" stroke="none" stroke-width="1" stroke-linecap="butt"/><path d="M322.19703,204.37604c0,0 3.34648,5.5426 -0.94119,23.6345c0,0 -3.13732,13.07219 -1.67324,20.07886c-14.53626,5.1243 -56.99471,0.52288 -66.72041,-8.47077c6.37922,-25.9352 -5.5426,-47.68731 4.91513,-51.4521c8.36619,-3.03275 41.62182,-10.66689 60.02744,7.94789" id="Path" fill="none" stroke="#030305" stroke-width="1.01" stroke-linecap="round"/></g><path d="M275.24176,201.02957c1.15036,-1.56866 2.82359,-2.61443 4.60141,-3.13732c3.2419,-1.04578 7.11127,-0.31373 10.35317,0.94119c3.13732,1.35951 5.85634,3.45106 7.94789,6.06549l0.20916,0.20916l0.20916,-0.20916c1.67324,-2.19612 3.76479,-4.07852 6.17007,-5.43803c2.50986,-1.46408 6.06549,-1.67324 8.36619,0c1.98697,1.77782 3.03275,4.28767 3.03275,6.90211c0.31373,7.425 -12.75844,26.8764 -21.64753,32.73274c0,0 -20.81091,-16.31408 -21.02007,-30.22287c-0.10458,-2.3007 0.52288,-6.06549 1.77782,-7.84331z" id="Path" fill="#e0f1ec" fill-rule="evenodd" stroke="none" stroke-width="1" stroke-linecap="butt" stroke-linejoin="miter"/><g data-paper-data="{&quot;origPos&quot;:null}" id="Group" fill-rule="evenodd" stroke-linejoin="miter"><path d="M267.50302,239.09575c-0.73204,1.15036 -1.77782,1.98697 -3.03275,2.50986c-0.52288,1.8824 -2.82359,6.17007 -5.96091,6.48379c0.52288,0.31373 -1.8824,3.03275 -4.70598,3.66022c-0.20916,1.67324 -5.96091,3.45106 -7.73873,2.09155c-2.09155,-1.67324 -6.69295,-3.76479 -10.24859,-8.67993c-3.55564,-4.91513 -3.97394,-23.2162 16.6278,-18.61478c0,0 3.76479,-3.2419 6.90211,-1.77782c1.25494,0.52288 4.1831,3.34648 3.2419,5.64718c0.41831,0.10458 0.83662,0.20916 1.25494,0.41831c2.82359,1.25494 5.85634,3.55564 3.66022,8.26161z" id="Path" fill="#fbd1a6" stroke="none" stroke-width="1" stroke-linecap="butt"/><g id="Path" fill="none" stroke="#030305" stroke-width="1.01"><path d="M254.74458,251.43588c-2.09155,3.76479 -6.79753,3.03275 -8.57535,2.3007c-4.07852,-1.98697 -7.63415,-4.91513 -10.24859,-8.67993c-3.55564,-5.01972 -3.97394,-23.32077 16.6278,-18.61478c0,0 3.66022,-3.2419 6.90211,-1.77782c1.35951,0.62746 4.49683,3.55564 3.13732,5.96091" stroke-linecap="butt"/><path d="M261.01923,233.97145c-1.56866,-0.41831 -2.92817,-1.56866 -3.45106,-3.13732" stroke-linecap="round"/><path d="M259.13683,232.61196c0,0 1.04578,-3.55564 4.81055,-1.77782c2.71901,1.25494 5.85634,3.55564 3.76479,8.26161c-0.83662,1.98697 -3.13732,2.92817 -5.22888,2.09155c-0.10458,0 -0.20916,-0.10458 -0.31373,-0.20916" stroke-linecap="round"/><path d="M264.57487,241.50103c0.52288,1.35951 -2.92817,8.36619 -8.7845,6.06549" stroke-linecap="round"/><path d="M258.61395,248.0894c0,0 -1.67324,5.33346 -8.57535,2.40528" stroke-linecap="round"/></g><path d="M248.46994,237.10878c-4.49683,7.52958 -9.93485,10.14401 -12.44471,7.52958c-7.32042,-7.425 -16.6278,-23.00704 -15.89577,-28.34048c1.35951,-9.93485 26.45809,-6.79753 27.19014,1.46408c0.20916,2.09155 2.09155,5.96091 5.22888,8.67993c0,0 0.41831,3.13732 -4.07852,10.66689z" id="Path" fill="#fbd1a6" stroke="none" stroke-width="1" stroke-linecap="butt"/><path d="M235.71149,244.95209c-7.94789,-9.30739 -16.31408,-23.2162 -15.47747,-28.54963c1.35951,-9.83028 26.35351,-6.69295 27.19014,1.46408c0.20916,2.09155 2.09155,5.96091 5.22888,8.67993" id="Path" fill="none" stroke="#030305" stroke-width="1.01" stroke-linecap="round"/><path d="M254.74458,209.81406c-0.73204,0.52288 -7.425,5.75176 -8.47077,8.26161c-1.98697,4.91513 -23.73908,5.75176 -25.30774,-0.83662c-1.56866,-6.90211 14.43168,-28.86338 26.98098,-29.90915" id="Path" fill="#fbd1a6" stroke="none" stroke-width="1" stroke-linecap="butt"/><path d="M246.27381,187.53908c4.28767,-1.25494 12.02641,0.52288 14.74542,3.66022c2.71901,3.13732 3.34648,16.10492 0.20916,17.25528c-3.13732,1.15036 -12.86302,7.21584 -12.86302,7.21584c-1.15036,-4.70598 -13.9088,-15.58204 -19.97429,-14.74542c0,0 9.83028,-10.98064 17.88274,-13.38591z" id="Path" fill="#9ab8a4" stroke="none" stroke-width="1" stroke-linecap="butt"/><path d="M220.12945,216.29787c1.25494,-10.98064 17.77816,-27.50386 28.65421,-29.38626" id="Path" fill="none" stroke="#030305" stroke-width="1.01" stroke-linecap="round"/><path d="M247.11043,217.86653c0,-2.71901 13.17676,-10.03943 18.0919,-10.03943" id="Path" fill="none" stroke="#030305" stroke-width="1.01" stroke-linecap="round"/><path d="M228.39108,201.02957c6.06549,-1.04578 18.61478,9.7257 19.76514,14.53626" id="Path" fill="none" stroke="#030305" stroke-width="1.01" stroke-linecap="butt"/></g><path d="M252.3393,182.83308c22.6933,-3.97394 57.41301,9.41197 52.07956,10.45774c-18.92852,-3.2419 -52.28871,1.04578 -69.544,5.5426c-10.45774,2.61443 -21.43838,1.77782 -31.37323,-2.40528c5.5426,-0.94119 37.22957,-11.50352 48.83766,-13.59507z" id="Path" fill="#4c3f8f" fill-rule="evenodd" stroke="#030305" stroke-width="1" stroke-linecap="butt" stroke-linejoin="miter"/><path d="M345.72696,189.31689c7.52958,9.41197 11.39895,21.3338 10.66689,33.36021c-0.83662,12.13098 -6.69295,24.88944 -13.07219,35.24259c-9.51655,15.47747 -41.30809,17.88274 -49.1514,18.30105c-1.04578,0 9.83028,-16.83696 8.88907,-16.2095c-13.38591,9.09824 -40.05316,16.73238 -47.37358,16.2095c21.7521,-24.05281 42.56301,-53.33449 48.41935,-85.02145c0,0 29.69999,-16.83696 41.62182,-1.8824z" id="Path" fill="#4c3f8f" fill-rule="evenodd" stroke="#030305" stroke-width="1" stroke-linecap="butt" stroke-linejoin="miter"/><g data-paper-data="{&quot;origPos&quot;:null}" id="Group" stroke-linejoin="miter"><path d="M341.31511,169.18357c2.09155,8.88907 -9.41197,23.52992 -22.58872,10.03943c-12.34013,-12.65387 9.30739,-38.58907 10.45774,-21.12465c0.31373,4.60141 6.58837,7.32042 13.07219,3.55564c0,0 1.98697,8.26161 -4.81055,9.51655" id="Path" fill="#de9143" fill-rule="evenodd" stroke="none" stroke-width="1" stroke-linecap="butt"/><path d="M343.19749,164.47758c0,1.04578 -0.31373,2.09155 -0.62746,3.13732c-0.20916,0.52288 -0.52288,1.04578 -0.83662,1.46408h0.10458c0.41831,1.98697 0.31373,3.97394 -0.20916,5.85634c-0.52288,1.8824 -1.35951,3.66022 -2.61443,5.22888c-1.15036,1.56866 -2.71901,2.92817 -4.39225,3.86936c-1.77782,0.94119 -3.76479,1.35951 -5.75176,1.25494c-1.98697,-0.10458 -3.86936,-0.73204 -5.64718,-1.67324c-1.67324,-0.94119 -3.2419,-2.19612 -4.60141,-3.55564c-1.46408,-1.35951 -2.61443,-3.03275 -3.34648,-4.91513c-0.73204,-1.8824 -1.04578,-3.86936 -1.04578,-5.85634c0.10458,-3.86936 1.25494,-7.73873 3.2419,-11.08521c0.94119,-1.67324 2.19612,-3.2419 3.66022,-4.60141c0.73204,-0.73204 1.56866,-1.25494 2.50986,-1.67324c1.77782,-1.04578 4.1831,-0.41831 5.22888,1.35951c0.10458,0.20916 0.31373,0.52288 0.31373,0.83662c0.41831,0.94119 0.62746,1.8824 0.73204,2.92817c0,0.52288 0.10458,1.04578 0.10458,1.35951c0.10458,0.41831 0.20916,0.73204 0.41831,1.15036c0.41831,0.73204 0.94119,1.35951 1.56866,1.77782c1.46408,0.94119 3.13732,1.35951 4.91513,1.15036c1.77782,-0.10458 3.45106,-0.73204 5.01972,-1.56866l0.83662,-0.52288l0.20916,0.94119c0.20916,1.04578 0.31373,2.09155 0.20916,3.13732zM341.83799,164.47758c0,-0.62746 -0.10458,-1.25494 -0.20916,-1.8824c-1.46408,0.73204 -3.03275,1.15036 -4.70598,1.25494c-2.09155,0.20916 -4.07852,-0.31373 -5.85634,-1.46408c-0.83662,-0.62746 -1.56866,-1.46408 -2.09155,-2.40528c-0.20916,-0.52288 -0.41831,-1.04578 -0.52288,-1.56866c-0.10458,-0.52288 -0.10458,-1.04578 -0.10458,-1.46408c-0.10458,-0.83662 -0.31373,-1.77782 -0.62746,-2.50986c-0.20916,-0.73204 -0.73204,-1.35951 -1.46408,-1.67324c-0.73204,-0.20916 -1.46408,-0.10458 -2.19612,0.20916c-0.73204,0.41831 -1.46408,0.83662 -2.09155,1.46408c-1.35951,1.25494 -2.40528,2.71901 -3.34648,4.28767c-1.8824,3.13732 -2.92817,6.69295 -3.03275,10.35317c-0.10458,3.66022 1.25494,7.11127 3.86936,9.62113c2.50986,2.61443 5.75176,4.70598 9.30739,4.91513c1.77782,0.10458 3.55564,-0.20916 5.1243,-1.04578c1.56866,-0.83662 3.03275,-1.98697 4.07852,-3.45106c1.15036,-1.46408 1.8824,-3.03275 2.40528,-4.81055c0.41831,-1.35951 0.62746,-2.82359 0.41831,-4.28767c-0.10458,0.10458 -0.10458,0.10458 -0.20916,0.20916c-0.94119,0.62746 -1.98697,0.94119 -3.03275,0.73204c0.83662,-0.41831 1.67324,-1.04578 2.40528,-1.56866c0.73204,-0.62746 1.15036,-1.35951 1.46408,-2.19612c0.31373,-0.83662 0.41831,-1.77782 0.41831,-2.71901z" id="Shape" fill="#000000" fill-rule="nonzero" stroke="none" stroke-width="1" stroke-linecap="butt"/><path d="M330.02074,166.77828c0,0 6.06549,5.43803 4.28767,12.65387c-3.45106,14.11795 -23.52992,14.64084 -46.64154,13.59507c-69.544,-3.2419 -85.12603,-44.54998 -67.6616,-76.75984c14.32711,-26.45809 81.88413,-35.87006 107.08729,-9.09824c12.34013,13.17676 4.81055,50.72006 2.92817,59.60913z" id="Path" fill="#fbd1a6" fill-rule="evenodd" stroke="none" stroke-width="1" stroke-linecap="butt"/><path d="M244.16266,101.8357c-8.7845,17.15071 -29.90915,27.29472 -41.93555,21.02007c-12.02641,-6.27465 -14.53626,-25.30774 -5.64718,-42.45844c8.88907,-17.15071 27.39929,-25.5169 39.32111,-19.24225c11.92183,6.27465 17.04613,23.52992 8.26161,40.68063z" id="Path" fill="#de9143" fill-rule="evenodd" stroke="#000000" stroke-width="1" stroke-linecap="butt"/><path d="M327.09256,107.16915c6.90211,7.32042 7.63415,22.06584 6.58837,35.34717c-17.25528,-0.52288 -30.74577,-18.71936 -30.74577,-18.71936c-2.19612,3.45106 -8.67993,-3.97394 -8.67993,-3.97394c0.52288,3.2419 0.52288,8.88907 -2.40528,9.51655c-3.34648,0.73204 -5.64718,-11.39895 -5.64718,-11.39895c-1.25494,2.40528 -14.01337,21.7521 -30.22287,24.78486c-18.30105,3.55564 -15.58204,35.76549 -19.13767,37.12499c0,0 -7.425,-3.55564 -13.9088,-12.75844c-12.96761,-18.40562 -11.29437,-35.76549 -2.92817,-50.82464c14.64084,-26.24893 81.88413,-35.87006 107.08729,-9.09824z" id="Path" fill="#de9143" fill-rule="evenodd" stroke="none" stroke-width="1" stroke-linecap="butt"/><path d="M237.67887,180.26877c-25.30774,-15.47747 -29.59541,-42.1447 -17.67359,-64.00138c14.32711,-26.45809 81.88413,-35.87006 107.08729,-9.09824c12.34013,13.17676 4.81055,50.72006 2.92817,59.60913c0,0 6.06549,5.43803 4.28767,12.65387c-3.45106,14.11795 -23.52992,14.64084 -46.64154,13.59507c-15.58204,-0.73204 -29.80457,-3.86936 -40.15774,-7.94789" id="Path" fill="none" fill-rule="evenodd" stroke="#000000" stroke-width="1.21" stroke-linecap="round"/><path d="M212.89401,168.03322c0,-9.06777 7.35088,-16.41866 16.41866,-16.41866c9.06777,0 16.41866,7.35088 16.41866,16.41866c0,9.06777 -7.35088,16.41866 -16.41866,16.41866c-9.06777,0 -16.41866,-7.35088 -16.41866,-16.41866z" id="Oval" fill="#fbd1a6" fill-rule="evenodd" stroke="none" stroke-width="1" stroke-linecap="butt"/><path d="M212.89401,168.03322c0,-9.06777 7.35088,-16.41866 16.41866,-16.41866c9.06777,0 16.41866,7.35088 16.41866,16.41866c0,9.06777 -7.35088,16.41866 -16.41866,16.41866c-9.06777,0 -16.41866,-7.35088 -16.41866,-16.41866z" id="Oval" fill="none" fill-rule="evenodd" stroke="#000000" stroke-width="1.21" stroke-linecap="butt"/><path d="M333.89009,142.51632c-17.25528,-0.41831 -30.74577,-18.92852 -30.74577,-18.92852" id="Path" fill="none" fill-rule="evenodd" stroke="#000000" stroke-width="1.21" stroke-linecap="butt"/><path d="M303.66722,122.85576c-0.10458,0.62746 -0.20916,1.25494 -0.52288,1.77782c-0.20916,0.31373 -0.52288,0.62746 -0.83662,0.73204c-0.31373,0.20916 -0.73204,0.20916 -1.04578,0.20916c-0.62746,0 -1.15036,-0.20916 -1.77782,-0.52288c-0.94119,-0.52288 -1.8824,-1.15036 -2.71901,-1.8824c-0.73204,-0.62746 -1.46408,-1.25494 -2.09155,-1.98697c0,0.20916 0.10458,0.52288 0.10458,0.73204c0.20916,1.15036 0.20916,2.3007 0.20916,3.45106c0,1.25494 -0.41831,2.50986 -1.15036,3.55564c-0.41831,0.52288 -1.15036,0.94119 -1.77782,1.04578c-0.73204,0.10458 -1.46408,-0.10458 -2.09155,-0.52288c-0.94119,-0.83662 -1.56866,-1.98697 -1.98697,-3.13732c-0.41831,-1.04578 -0.73204,-2.19612 -0.94119,-3.34648c-0.20916,-1.15036 -0.31373,-2.3007 -0.41831,-3.45106c0,-0.31373 0,-0.73204 0,-1.04578c0,0 -0.10458,0.10458 -0.10458,0.20916c-0.31373,0.83662 -0.73204,1.56866 -1.25494,2.3007c-0.94119,1.56866 -1.98697,3.03275 -3.03275,4.39225c-2.19612,2.82359 -4.70598,5.43803 -7.425,7.73873c-0.62746,0.62746 -1.35951,1.04578 -2.09155,1.67324l-1.04578,0.83662l-1.15036,0.73204l-2.19612,1.46408l-2.3007,1.35951c-1.56866,0.94119 -3.13732,1.56866 -4.81055,2.40528c-1.67324,0.83662 -3.34648,1.25494 -5.01972,1.98697c-0.31373,0.10458 -0.73204,0 -0.83662,-0.31373c-0.10458,-0.62746 0,-0.94119 0.41831,-1.04578c1.56866,-0.62746 3.2419,-1.25494 4.91513,-1.8824c1.67324,-0.62746 3.13732,-1.46408 4.70598,-2.3007l2.3007,-1.25494l2.19612,-1.46408l1.04578,-0.73204l1.04578,-0.83662c0.62746,-0.52288 1.35951,-1.04578 2.09155,-1.56866c2.61443,-2.19612 5.01972,-4.70598 7.21584,-7.52958c1.04578,-1.35951 2.09155,-2.82359 2.92817,-4.28767l1.25494,-2.3007c0.31373,-0.52288 1.56866,-1.98697 1.67324,-2.09155c0,0.31373 0.10458,2.92817 0.20916,3.55564c0.41831,5.33346 2.19612,8.47077 3.03275,9.09824c0.31373,0.20916 0.94119,0.52288 1.35951,0.41831c4.28767,-0.73204 1.25494,-10.14401 1.15036,-10.66689c0.31373,0.10458 3.97394,3.2419 4.81055,3.86936c0.73204,0.62746 1.56866,1.15036 2.50986,1.67324c0.41831,0.20916 0.83662,0.31373 1.25494,0.41831c1.35951,0.20916 1.04578,-2.50986 0.94119,-2.92817c-0.20916,-0.94119 -0.73204,-1.67324 -1.35951,-2.40528c-0.62746,-0.73204 -3.13732,-2.40528 -5.1243,-2.82359c1.04578,-0.41831 2.19612,-0.31373 3.2419,0.20916c1.04578,0.41831 1.98697,1.04578 2.71901,1.77782c0.83662,0.83662 1.46408,1.77782 1.67324,2.92817c0.10458,0.52288 0.20916,1.15036 0.10458,1.77782z" id="Path" fill="#000000" fill-rule="evenodd" stroke="none" stroke-width="1" stroke-linecap="butt"/><path d="M258.28062,169.84763c1.04578,9.09824 -13.28133,24.95741 -21.7521,8.64334c-9.09824,-22.17042 5.33346,-45.70034 17.77816,-46.01407c6.06549,-0.20916 0.20916,13.49049 -1.8824,17.46443c-1.77782,3.34648 -2.61443,3.86936 -3.03275,7.73873c-0.52288,4.60141 3.2419,8.57535 9.20282,5.5426c0,0 1.46408,8.7845 -6.48379,11.50352z" id="Path" fill="#de9143" fill-rule="evenodd" stroke="none" stroke-width="1" stroke-linecap="butt"/><path d="M259.22181,166.77828c-0.20916,0.73204 -0.41831,1.35951 -0.62746,2.09155c0.20916,1.15036 0.20916,2.19612 0.10458,3.2419c-0.31373,1.46408 -0.73204,2.82359 -1.35951,4.07852c-1.25494,2.61443 -2.92817,5.01972 -5.1243,7.0067c-1.15036,1.04578 -2.40528,1.77782 -3.76479,2.3007c-1.46408,0.52288 -3.03275,0.62746 -4.60141,0.31373c-1.46408,-0.41831 -2.82359,-1.15036 -3.97394,-2.19612c-1.04578,-1.04578 -1.98697,-2.19612 -2.82359,-3.34648c-3.03275,-4.91513 -4.60141,-10.66689 -4.39225,-16.41866c0.10458,-2.82359 0.52288,-5.64718 1.25494,-8.47077c0.52288,-2.61443 1.67324,-5.22888 3.34648,-7.52958c-0.94119,2.61443 -1.77782,5.33346 -2.40528,7.94789c-0.62746,2.71901 -0.94119,5.43803 -0.94119,8.15704c0,2.71901 0.31373,5.43803 1.04578,8.15704c0.73204,2.61443 1.8824,5.1243 3.34648,7.425c0.73204,1.15036 1.56866,2.19612 2.50986,3.03275c0.94119,0.83662 2.09155,1.46408 3.34648,1.77782c2.40528,0.62746 5.01972,-0.62746 7.0067,-2.3007c1.98697,-1.77782 3.66022,-3.97394 4.81055,-6.48379c0.52288,-1.25494 1.04578,-2.50986 1.46408,-3.76479c0.20916,-0.41831 0.31373,-0.83662 0.41831,-1.25494c-0.62746,1.04578 -1.46408,1.98697 -2.3007,2.71901c-1.04578,0.73204 -2.19612,1.25494 -3.45106,1.35951c0.94119,-0.62746 1.8824,-1.35951 2.82359,-2.09155c0.83662,-0.73204 1.56866,-1.67324 1.98697,-2.71901c0.52288,-1.04578 0.83662,-2.09155 0.94119,-3.2419c0,-0.83662 0,-1.67324 0,-2.40528c-1.35951,0.62746 -2.82359,0.83662 -4.39225,0.62746c-1.98697,-0.41831 -3.66022,-1.67324 -4.39225,-3.55564c-0.31373,-0.94119 -0.52288,-1.8824 -0.52288,-2.82359c0,-0.94119 0.10458,-1.77782 0.31373,-2.71901c0.20916,-0.94119 0.52288,-1.77782 0.83662,-2.61443c0.41831,-0.83662 0.83662,-1.56866 1.25494,-2.3007c1.67324,-2.92817 3.13732,-6.06549 4.28767,-9.20282c0.52288,-1.56866 0.94119,-3.2419 0.94119,-4.91513c0,-2.09155 -0.10458,-3.13732 -0.94119,-4.60141c1.35951,1.15036 2.19612,2.92817 2.09155,4.81055c0,1.77782 -0.31373,3.55564 -0.83662,5.22888c-1.04578,3.34648 -2.50986,6.48379 -4.1831,9.51655c-0.41831,0.73204 -0.83662,1.46408 -1.15036,2.19612c-0.31373,0.73204 -0.62746,1.46408 -0.73204,2.3007c-0.20916,0.83662 -0.20916,1.56866 -0.31373,2.40528c0,0.73204 0.10458,1.56866 0.41831,2.19612c0.52288,1.35951 1.77782,2.40528 3.2419,2.71901c1.56866,0.20916 3.13732,-0.10458 4.49683,-0.94119l0.94119,-0.41831l0.10458,0.94119c0.10458,1.25494 0.10458,2.50986 -0.10458,3.76479z" id="Path" fill="#000000" fill-rule="evenodd" stroke="none" stroke-width="1" stroke-linecap="butt"/></g><g data-paper-data="{&quot;origPos&quot;:null}" id="Group" fill-rule="evenodd" stroke-width="1" stroke-linecap="butt" stroke-linejoin="miter"><path d="M309.8373,138.01949c1.35951,1.8824 0.41831,4.49683 -3.34648,6.27465c-3.76479,1.77782 -8.99366,2.19612 -10.24859,0.41831c-1.25494,-1.77782 0.83662,-5.01972 4.49683,-6.79753c3.66022,-1.77782 7.73873,-1.77782 9.09824,0.10458z" id="Path" fill="#8e5334" stroke="#000000"/><path d="M284.63413,138.12407c3.86936,2.40528 6.06549,6.06549 4.81055,7.84331c-1.25494,1.77782 -6.69295,0.73204 -10.66689,-1.67324c-3.97394,-2.40528 -5.01972,-5.43803 -3.66022,-7.21584c1.35951,-1.8824 5.64718,-1.35951 9.51655,1.04578z" id="Path" fill="#8e5334" stroke="#000000"/><g stroke="none"><path d="M270.72533,158.20293c0,-4.62052 3.32429,-8.36619 7.425,-8.36619c4.10071,0 7.425,3.74567 7.425,8.36619c0,4.62052 -3.32429,8.36619 -7.425,8.36619c-4.10071,0 -7.425,-3.74567 -7.425,-8.36619z" id="Oval" fill="#ffffff"/><path d="M270.51617,156.42512c-0.31373,-2.19612 1.67324,-4.91513 2.61443,-5.5426c0.94119,-0.73204 2.09155,-1.25494 3.2419,-1.67324c1.15036,-0.31373 2.50986,-0.31373 3.66022,0.10458c1.15036,0.41831 2.19612,1.04578 3.03275,1.8824c1.67324,1.67324 2.71901,3.86936 2.92817,6.17007c0,0.10458 0,0.10458 -0.10458,0.10458c-0.10458,0 -0.10458,0 -0.10458,-0.10458c-0.41831,-2.19612 -1.56866,-4.07852 -3.2419,-5.43803c-0.83662,-0.62746 -1.77782,-1.04578 -2.82359,-1.35951c-1.04578,-0.20916 -1.98697,-0.20916 -3.03275,-0.10458c-1.04578,0.10458 -1.98697,0.52288 -2.82359,1.15036c-0.83662,0.62746 -3.03275,2.50986 -3.03275,4.81055c-0.10458,0 -0.10458,0 -0.31373,0z" id="Path" fill="#030305"/><path d="M271.45738,162.17688c0.83662,1.15036 1.8824,2.09155 3.13732,2.71901c0.62746,0.31373 1.25494,0.52288 1.8824,0.73204c0.62746,0.10458 1.25494,0.20916 1.98697,0.10458c1.35951,0 2.61443,-0.41831 3.66022,-1.15036c1.15036,-0.73204 2.09155,-1.77782 2.82359,-2.92817h0.20916v0.10458c-0.41831,1.46408 -1.25494,2.71901 -2.50986,3.66022c-1.15036,0.94119 -2.61443,1.46408 -4.1831,1.56866c-1.56866,0 -3.03275,-0.31373 -4.28767,-1.15036c-1.25494,-0.83662 -2.3007,-2.09155 -2.82359,-3.45106c0,-0.10458 0,-0.10458 0.10458,-0.20916c-0.10458,-0.10458 -0.10458,-0.10458 0,0z" id="Path" fill="#030305"/><path d="M282.438,158.51666c0.31373,1.67324 -0.83662,3.34648 -2.50986,3.66022c0,0 -3.03275,0.31373 -3.45106,-3.55564c-0.52288,-3.76479 2.40528,-4.1831 2.40528,-4.1831c1.04578,-0.20916 3.34648,0.83662 3.55564,4.07852z" id="Path" fill="#030305"/></g><g stroke="none"><path d="M300.84364,157.88921c0,-4.62052 3.32429,-8.36619 7.425,-8.36619c4.10071,0 7.425,3.74567 7.425,8.36619c0,4.62052 -3.32429,8.36619 -7.425,8.36619c-4.10071,0 -7.425,-3.74567 -7.425,-8.36619z" id="Oval" fill="#ffffff"/><path d="M315.69363,156.00681c-0.20916,0.10458 -0.20916,0 0,0c-0.20916,-2.19612 -2.61443,-3.97394 -3.45106,-4.49683c-0.83662,-0.52288 -1.8824,-0.83662 -2.92817,-0.94119c-1.04578,0 -2.09155,0 -3.03275,0.31373c-1.04578,0.31373 -1.98697,0.73204 -2.71901,1.46408c-1.67324,1.46408 -2.71901,3.45106 -2.92817,5.64718l-0.10458,0.10458c-0.10458,0 -0.20916,0 -0.20916,-0.10458c0,-2.40528 0.94119,-4.60141 2.50986,-6.37922c0.83662,-0.83662 1.77782,-1.56866 2.92817,-1.98697c1.15036,-0.52288 2.40528,-0.62746 3.66022,-0.41831c1.15036,0.20916 2.19612,0.73204 3.2419,1.35951c1.04578,0.62746 3.2419,3.13732 3.03275,5.43803c0,0 -0.10458,0.10458 0,0z" id="Path" fill="#030305"/><path d="M315.06617,161.75857c-0.94119,3.03275 -3.66022,5.1243 -6.79753,5.22888c-1.56866,0.10458 -3.03275,-0.41831 -4.28767,-1.25494c-1.25494,-0.94119 -2.19612,-2.09155 -2.71901,-3.55564c0,-0.10458 0,-0.20916 0.10458,-0.20916c0.10458,0 0.20916,0 0.20916,0c0.83662,1.15036 1.8824,2.09155 3.03275,2.82359c1.15036,0.62746 2.40528,0.94119 3.76479,0.94119c0.73204,0 1.35951,-0.10458 1.98697,-0.20916c0.62746,-0.20916 1.25494,-0.52288 1.77782,-0.83662c1.15036,-0.73204 2.19612,-1.77782 2.92817,-2.92817c0.10458,-0.10458 0.10458,-0.10458 0,0z" id="Path" fill="#030305"/><path d="M307.32743,154.6473c0,0 2.92817,0.20916 2.71901,3.97394c-0.20916,3.97394 -3.2419,3.76479 -3.2419,3.76479c-1.67324,-0.20916 -2.92817,-1.77782 -2.71901,-3.45106c-0.10458,-3.34648 2.09155,-4.49683 3.2419,-4.28767z" id="Path" fill="#030305"/></g><path d="M292.26829,159.03956c0.41831,-0.31373 1.04578,-0.52288 1.56866,-0.41831c0.52288,0 1.15036,0 1.67324,0.10458c1.25494,0.20916 2.3007,0.94119 2.92817,1.98697c0.20916,0.52288 0.31373,1.15036 0.31373,1.77782c0,0.62746 0,1.15036 -0.10458,1.77782c-0.10458,0.52288 -0.31373,1.04578 -0.52288,1.56866c-0.20916,0.52288 -0.62746,1.04578 -1.15036,1.25494c0,-0.52288 0.20916,-1.04578 0.41831,-1.56866c0.20916,-0.52288 0.31373,-0.94119 0.41831,-1.46408c0.10458,-0.52288 0.10458,-0.94119 0.10458,-1.46408c0,-0.52288 -0.10458,-0.94119 -0.31373,-1.35951c-0.41831,-0.83662 -1.15036,-1.35951 -2.09155,-1.56866c-0.52288,-0.10458 -1.04578,-0.20916 -1.46408,-0.20916c-0.62746,-0.10458 -1.25494,-0.20916 -1.77782,-0.41831z" id="Path" fill="#030305" stroke="none"/><path d="M263.71864,170.33392c0.62746,1.25494 1.67324,2.3007 2.92817,2.92817c1.25494,0.52288 2.61443,0.83662 4.07852,0.83662c2.92817,0 5.85634,0.10458 8.7845,0.20916l17.56901,0.62746c5.85634,0.20916 11.71267,0.41831 17.56901,0.52288c2.92817,0 5.85634,0.10458 8.7845,0c0.73204,0 1.35951,0 2.09155,-0.20916c0,0 0.10458,0 0.10458,-0.10458c0,-0.10458 0.10458,-0.20916 0.10458,-0.20916c0,-0.31373 -0.10458,-0.52288 -0.20916,-0.83662c-0.31373,-0.62746 -0.62746,-1.15036 -1.15036,-1.67324c-0.41831,-0.52288 -0.94119,-1.04578 -1.46408,-1.67324c0.73204,0.10458 1.46408,0.52288 1.98697,1.04578c0.62746,0.52288 1.04578,1.15036 1.46408,1.8824c0.20916,0.41831 0.31373,0.83662 0.31373,1.25494c0,0.31373 -0.10458,0.52288 -0.20916,0.73204c-0.20916,0.20916 -0.41831,0.41831 -0.73204,0.52288c-0.73204,0.10458 -1.56866,0.20916 -2.3007,0.20916c-2.92817,0.10458 -5.85634,0 -8.7845,0c-5.85634,-0.10458 -11.71267,-0.31373 -17.56901,-0.52288l-17.56901,-0.62746c-2.92817,-0.10458 -5.85634,-0.20916 -8.7845,-0.20916c-1.56866,0 -3.03275,-0.41831 -4.39225,-1.15036c-1.46408,-0.73204 -2.40528,-1.98697 -2.61443,-3.55564z" id="Path" fill="#030305" stroke="none"/></g></g></g></svg>