<svg version="1.1" xmlns="http://www.w3.org/2000/svg" xmlns:xlink="http://www.w3.org/1999/xlink" width="113.55617" height="217.91752" viewBox="0,0,113.55617,217.91752"><g transform="translate(-183.19383,-72.52664)"><g data-paper-data="{&quot;isPaintingLayer&quot;:true}" fill="none" fill-rule="none" stroke="none" stroke-width="none" stroke-linecap="none" stroke-linejoin="none" stroke-miterlimit="10" stroke-dasharray="" stroke-dashoffset="0" font-family="none" font-weight="none" font-size="none" text-anchor="none" style="mix-blend-mode: normal"><g data-paper-data="{&quot;index&quot;:null}" id="Group" fill-rule="evenodd" stroke-linecap="butt" stroke-linejoin="miter"><path d="M257.73383,140.2c3.2,0.3 12.9,6 14.2,15.3c1.3,9.3 -10.4,17 -10.4,17c14.9,10.3 0.5,19.2 0.5,19.2c20.5,11 12,29.2 -2.5,27.5c-14.5,-1.7 -18,-26.3 -18,-26.3c-15.2,-3.5 -8.5,-18.5 -8.5,-18.5c-2.6,1.3 -12.5,1.8 -13.9,-4.7c-8.9,-39.2 46,-28.9 38.6,-29.5z" id="Path" fill="#2f1917" stroke="none" stroke-width="1"/><path d="M257.73383,140.2c3.2,0.2 12.9,6 14.2,15.3c1.3,9.3 -10.4,17 -10.4,17c14.9,10.3 0.5,19.2 0.5,19.2c20.5,11 12,29.2 -2.5,27.5c-14.5,-1.7 -18,-26.3 -18,-26.3c-15.2,-3.5 -8.5,-18.5 -8.5,-18.5c-2.6,1.3 -12.9,1.9 -13.9,-4.7c-1.9,-18.6 -1.7,-21.9 20.1,-29.6" id="Path_1_" fill="none" stroke="#000000" stroke-width="1.08"/></g><g data-paper-data="{&quot;index&quot;:null}" id="Group_2_" fill-rule="evenodd" stroke-linecap="butt" stroke-linejoin="miter"><g id="Path_4_"><path d="M238.53383,146.7c-0.5,8 -10.4,7.9 -13.2,6.4c0,0 8.8,17.9 -5.9,22.9c0,0 0,30.1 -14.3,32.9c-14.3,2.8 -25.3,-19 -6.4,-33.4c0,0 -15.6,-10.2 -2.2,-23.4c0,0 -12.8,-8.7 -12.8,-20.1c0,-11.4 8.8,-18.9 12,-19.4c6.6,-1 43.6,20.6 42.8,34.1z" id="Path_2_" fill="#2f1917" stroke="none" stroke-width="1"/><path d="M218.53383,123.8c23.1,13.1 20,22.9 20,22.9c-0.1,8.1 -10.4,7.9 -13.2,6.4c0,0 8.8,17.9 -5.9,22.9c0,0 0,30.1 -14.3,32.9c-14.3,2.8 -25.3,-19 -6.4,-33.4c0,0 -15.6,-10.2 -2.2,-23.4c0,0 -12.8,-8.7 -12.8,-20.1c0,-11.4 8.8,-19 12,-19.4" id="Path_3_" fill="none" stroke="#000000" stroke-width="1.08"/></g><g id="Path_7_"><path d="M195.83383,215.2c5.2,0.2 10.8,5.5 10.8,10.8c0.1,5.2 -4.2,9.5 -9.4,9.5c-5.2,0 -8.8,-3.1 -9.2,-8.4c-0.3,-4.7 2.1,-12.3 7.8,-11.9z" id="Path_5_" fill="#2f1917" stroke="none" stroke-width="1"/><path d="M195.83383,215.2c5.2,0.2 10.8,5.5 10.8,10.8c0.1,5.2 -4.2,9.5 -9.4,9.5c-5.2,0 -8.8,-3.1 -9.2,-8.4c-0.3,-4.7 2.1,-12.3 7.8,-11.9z" id="Path_6_" fill="none" stroke="#000000" stroke-width="1.08"/></g><g id="Group_1_"><path d="M193.73383,206.4c1.8,0 3.5,0.8 4.6,2.2c0.9,-0.5 1.9,-0.8 3,-0.8c3.3,0 5.9,2.7 5.9,5.9c0,3.3 -2.7,5.9 -5.9,5.9c-1.8,0 -3.5,-0.8 -4.6,-2.2c-0.9,0.5 -1.9,0.8 -3,0.8c-3.3,-0.1 -5.8,-2.9 -5.7,-6.2c0.1,-3 2.6,-5.5 5.7,-5.6z" id="Path_8_" fill="#c479c7" stroke="none" stroke-width="1"/><path d="M201.33383,219.7c-3.25848,0 -5.9,-2.64152 -5.9,-5.9c0,-3.25848 2.64152,-5.9 5.9,-5.9c3.25848,0 5.9,2.64152 5.9,5.9c0,3.25848 -2.64152,5.9 -5.9,5.9z" id="Oval" fill="none" stroke="#000000" stroke-width="1.08"/><path d="M196.63383,217.5c-2.8,1.6 -6.4,0.6 -8,-2.3c-1.6,-2.8 -0.6,-6.4 2.3,-8c2.5,-1.4 5.7,-0.8 7.5,1.5" id="Path_9_" fill="none" stroke="#000000" stroke-width="1.08"/></g></g><g data-paper-data="{&quot;index&quot;:null}" id="Group_5_" fill-rule="evenodd"><path d="M266.43383,169.5c2.5,0.8 15,10.7 17.7,13.8c2.7,3.1 1.6,4.6 0,6.2c-1.6,1.6 -3.5,0.4 -6,-2c-2.5,-2.4 -14.5,-9.2 -14.5,-9.2c-4.5,-3.6 0.3,-9.6 2.8,-8.8z" id="Path_14_" fill="#9e5e4c" stroke="#030305" stroke-width="1" stroke-linecap="butt" stroke-linejoin="miter"/><g id="Hand_L-2" stroke="#030305"><path d="M261.53383,210.3c1.4,-4.7 3.9,-10.2 8.6,-11.7c2.3,-0.7 6.4,2.1 7,4.6c0.4,1.7 0.4,3.4 0.1,5.1l0.2,0.1c0.8,1 1,2.2 0.7,3.4c1,-0.1 2,0.6 2.2,1.6c0.4,2.5 -0.4,5.1 -2.1,7c-2.2,2.1 -4.4,0.8 -5.9,-0.8c-0.8,1 -2,0.8 -3.6,-0.8c-0.8,-0.8 -1.3,0.2 -3,-0.7c-0.9,-0.5 -1.4,-1.9 -1.6,-1.9c-1,0 -2,-0.4 -2.6,-1.3c-0.6,-1.4 -0.6,-3.1 0,-4.6z" id="Path_10_" fill="#9e5e4c" stroke-width="0.75" stroke-linecap="butt" stroke-linejoin="miter"/><g id="Group_3_" fill="none" stroke-width="0.9" stroke-linecap="round" stroke-linejoin="round"><path d="M274.43383,215.6c1.1,-0.1 2.2,0.5 2.7,1.5" id="Path_11_"/><path d="M275.63383,213.7c1.2,-2.1 4,-2.8 4.7,-0.2c0.4,2.5 -0.4,5.1 -2.1,7c-2.2,2.1 -4.4,0.8 -5.9,-0.8c-0.8,1 -2,0.8 -3.6,-0.8c-0.8,-0.8 -1.3,0.2 -3,-0.7c-0.9,-0.5 -1.4,-1.9 -1.6,-1.9c-1,0 -2,-0.4 -2.6,-1.3c-0.6,-1.5 -0.6,-3.2 -0.1,-4.8c1.4,-4.7 3.9,-10.2 8.6,-11.7c2.3,-0.7 6.4,2.1 7,4.6c0.9,3.8 -0.3,8.8 -2.6,12.4" id="Path_12_"/><path d="M277.43383,208.5c0.8,0.9 1,2.2 0.7,3.4" id="Path_13_"/></g></g><path d="M250.93383,167.4c1.4,-3.7 6.3,-6.1 10.2,-6c2.1,0 11.5,4.7 14.4,7.2c0.4,0.3 1.6,1.1 -0.6,4.3c0,0 -9.3,13.3 -11.3,11.8c-6,-4.4 -10.2,-3.6 -11.6,-4.7c-3.5,-2.8 -2.6,-8.5 -1.1,-12.6z" id="Path_15_" fill="#aff4f5" stroke="#030305" stroke-width="1" stroke-linecap="butt" stroke-linejoin="miter"/><g id="Forearm_L" stroke="none" stroke-width="1" stroke-linecap="butt" stroke-linejoin="miter"><g id="Group_4_"><path d="M270.93383,199.2c2.8,-4.8 6.5,-9.2 9,-14.1c1.4,-2.8 4.7,0.4 4.7,0.4c1.3,2.3 0.5,3.8 -0.5,5.3c-2.4,3.7 -6.2,9.3 -9.1,12.5c-0.8,1.3 -5.8,-1 -4.1,-4.1z" id="Path_16_" fill="#9e5e4c"/><path d="M285.53383,185.7c0.1,0 0.2,0 0.2,0.1c0.2,0.9 0.2,1.9 -0.2,2.7c-0.3,0.8 -0.7,1.6 -1.2,2.3c-0.9,1.5 -1.8,2.9 -2.7,4.4c-0.9,1.5 -1.9,2.9 -2.9,4.3c-0.5,0.6 -1.1,1.3 -1.6,2c-0.5,0.7 -1.1,1.4 -1.8,1.9c-0.1,0 -0.1,0 -0.2,0c-0.1,0 -0.1,-0.1 -0.1,-0.2c0.5,-0.8 1,-1.4 1.5,-2.1c0.5,-0.7 1,-1.4 1.5,-2.1c0.9,-1.4 1.9,-2.9 2.8,-4.3l2.8,-4.3c0.9,-1.4 1.9,-2.8 1.7,-4.5c0,0 0.1,-0.1 0.2,-0.2z" id="Path_17_" fill="#030305"/><path d="M270.73383,199.6c-0.1,0 -0.1,-0.1 -0.1,-0.2c0.6,-1.3 1.3,-2.5 2.1,-3.7c0.7,-1.2 1.5,-2.3 2.3,-3.5l2.4,-3.5c0.4,-0.6 0.8,-1.2 1.2,-1.8c0.3,-0.6 0.8,-1.2 1.2,-1.7c0.1,-0.1 0.1,-0.1 0.2,-0.1c0.1,0 0.1,0.1 0.1,0.2c-0.2,0.6 -0.5,1.3 -0.9,1.9c-0.4,0.6 -0.7,1.2 -1.1,1.8c-0.7,1.2 -1.5,2.4 -2.3,3.5c-0.8,1.1 -1.6,2.3 -2.4,3.4c-0.8,1.1 -1.6,2.3 -2.5,3.4c0,0 -0.1,0 -0.2,0.3z" id="Path_18_" fill="#030305"/></g></g></g><g data-paper-data="{&quot;index&quot;:null}" id="Group_6_" fill-rule="evenodd"><path d="M268.03383,233.6c0.1,4.5 3.9,39.2 3.7,40.4c0,0 1,8.3 -5.4,8.4c-7,0.1 -6.5,-4.5 -6.5,-6.7c0.1,-1.5 -2.9,-36.4 -3,-38.6c-0.3,-14 11,-8.5 11.2,-3.5z" id="Path_19_" fill="#9e5e4c" stroke="#000000" stroke-width="1.08" stroke-linecap="round" stroke-linejoin="miter"/><path d="M269.43383,249.7c0,4.5 2.5,23.2 2.3,24.4c0,0 1,8.3 -5.4,8.4c-7,0.1 -6.5,-4.5 -6.5,-6.7c0.1,-1.5 -1.3,-20.5 -1.6,-24.3c5.3,1.2 11.2,-1.8 11.2,-1.8z" id="Path_20_" fill="#f0f2fb" stroke="none" stroke-width="1" stroke-linecap="butt" stroke-linejoin="miter"/><path d="M268.03383,233.6c0.1,4.5 3.9,39.2 3.7,40.4c0,0 1,8.3 -5.4,8.4c-7,0.1 -6.5,-4.5 -6.5,-6.7c0.1,-1.5 -2.9,-36.4 -3,-38.6c-0.3,-14 11,-8.5 11.2,-3.5z" id="Path_21_" fill="none" stroke="#000000" stroke-width="1.08" stroke-linecap="round" stroke-linejoin="miter"/><path d="M269.33383,249.5c-0.8,0.7 -7.4,3.5 -11.3,1.1" id="Path_22_" fill="none" stroke="#000000" stroke-width="0.72" stroke-linecap="round" stroke-linejoin="round"/></g><path d="M271.13383,274c1.5,-0.8 3.1,-1.4 4.7,-1.9c0,0 7.8,-6.3 13.6,-5.6c4.4,0.6 8.9,6.2 -0.1,12.9c-10.6,7.8 -24.9,10.3 -28,6c-0.9,-1.3 -1.8,-5.6 -1.3,-8.3c0,0 4.6,1.9 11.1,-3.1z" data-paper-data="{&quot;index&quot;:null}" id="Path_23_" fill="#c9cfe3" fill-rule="evenodd" stroke="#000000" stroke-width="1" stroke-linecap="butt" stroke-linejoin="miter"/><g data-paper-data="{&quot;index&quot;:null}" id="Group_7_" fill-rule="evenodd" stroke="#000000"><path d="M255.33383,204.4c0,0 29.6,4.3 29.9,29.8c0,0 0,1.4 -3.1,2.6c-3.1,1.2 -21.4,9.4 -37.1,0.6c0,0 -1.9,-7.1 -1.9,-10.3c0,-3.2 -10.2,-17.1 -4.3,-20.4c5.9,-3.3 16.5,-2.3 16.5,-2.3z" id="Path_24_" fill="#93aa59" stroke-width="1" stroke-linecap="butt" stroke-linejoin="miter"/><path d="M275.13383,213.3c-1.9,1.1 -15.5,4.9 -19.2,-7.3" id="Path_25_" fill="none" stroke-width="0.72" stroke-linecap="round" stroke-linejoin="round"/></g><g data-paper-data="{&quot;index&quot;:null}" id="Group_8_" fill-rule="evenodd"><path d="M216.73383,262.4c-3.5,2.2 -13.8,6.4 -17.3,4.2c-0.8,-0.4 -1.4,-1.1 -1.8,-1.9c-0.9,-2 0.1,-4.3 2.1,-5.2c4.9,-2.4 11.8,-6.7 15.8,-8.9c5.9,-3.2 9.8,-14.8 10.4,-15.8c3.7,-5.9 6.7,-2.3 7.5,-1.4c2.9,3 1.7,6.6 0.6,9.9c-2.9,8.6 -9.9,14.7 -17.3,19.1z" id="Path_26_" fill="#9e5e4c" stroke="#000000" stroke-width="1.08" stroke-linecap="round" stroke-linejoin="miter"/><path d="M221.33383,243.7c2.4,2.8 5,7 9.1,6.8c-6.3,7.2 -19.4,18.2 -29.7,16.7c-1,-0.1 -6.1,-3.2 -2,-7c5.2,-4.5 19.8,-8.5 22.6,-16.5z" id="Path_27_" fill="#f0f2fb" stroke="none" stroke-width="1" stroke-linecap="butt" stroke-linejoin="miter"/><path d="M216.73383,262.4c-3.5,2.2 -13.8,6.4 -17.3,4.2c-0.8,-0.4 -1.4,-1.1 -1.8,-1.9c-0.9,-2 0.1,-4.3 2.1,-5.2c4.9,-2.4 11.8,-6.7 15.8,-8.9c5.9,-3.2 9.8,-14.8 10.4,-15.8c3.7,-5.9 6.7,-2.3 7.5,-1.4c2.9,3 1.7,6.6 0.6,9.9c-2.9,8.6 -9.9,14.7 -17.3,19.1z" id="Path_28_" fill="none" stroke="#000000" stroke-width="1.08" stroke-linecap="round" stroke-linejoin="miter"/><path d="M230.43383,250.6c-3.7,-0.7 -6.8,-3.1 -8.5,-6.5" id="Path_29_" fill="none" stroke="#000000" stroke-width="0.72" stroke-linecap="round" stroke-linejoin="round"/></g><path d="M208.13383,266.1c-1.2,4.7 1.9,10.7 6.9,12.7c3.4,1.4 5,4.2 4,7.8c-0.8,2.7 -7.6,3.9 -10.5,3.1c-5.8,-1.5 -7.8,-5.2 -13.2,-16.7c-5.4,-11.5 5.1,-13.9 5.1,-13.9c-0.3,4.4 7.7,7.1 7.7,7z" data-paper-data="{&quot;index&quot;:null}" id="Path_30_" fill="#c9cfe3" fill-rule="evenodd" stroke="#000000" stroke-width="1" stroke-linecap="round" stroke-linejoin="round"/><g data-paper-data="{&quot;index&quot;:null}" id="Group_9_" fill-rule="evenodd"><path d="M257.63383,223.7c0,0 -3.4,0.9 -6.8,3.2c-0.4,0.2 -0.2,14.6 -1.3,15.5c-1.1,0.9 -28.3,10.8 -42.4,-2.7c-1.4,-1.3 8.5,-25.2 18.8,-31.6c5.8,-3.6 17.4,-9.2 26.6,2.6c3.1,4.7 4.3,8.2 5.1,13z" id="Path_31_" fill="#93aa59" stroke="none" stroke-width="1" stroke-linecap="butt" stroke-linejoin="miter"/><path d="M257.63383,223.6l-6.8,3.2c0,0 -0.1,14.6 -1.3,15.5c-1.2,0.9 -27.4,9.9 -42.4,-2.7c-2.3,-1.9 7.8,-22.2 17.1,-29.9c5.9,-5 17.1,-8 21.2,-5" id="Path_32_" fill="none" stroke="#000000" stroke-width="1.08" stroke-linecap="round" stroke-linejoin="round"/><g id="Path_37_" fill="none" stroke="#000000" stroke-width="0.72" stroke-linecap="butt" stroke-linejoin="miter"><path d="M216.23383,218.4c4.2,-0.2 21.7,1.1 21.4,14.2c-0.1,6.7 -16.4,13.5 -29.9,3.1" id="Path_33_"/><path d="M236.43383,227c0,0 -12.4,12 -25.6,2" id="Path_34_"/><path d="M221.13383,240.8c-0.4,-2.6 -0.2,-5.3 0.5,-7.9" id="Path_35_"/><path d="M212.43383,238.6c-0.2,-1.9 2.4,-7.2 2.4,-7.2" id="Path_36_"/></g></g><g data-paper-data="{&quot;index&quot;:null}" id="Torso" fill-rule="evenodd"><path d="M254.53383,166.9c3.4,3 6.9,11 6.9,16.6c0,15 1.4,18.8 0.7,20.8c-0.7,2 -25.9,3.9 -27.3,-0.5c-1.4,-4.4 -5.8,-40.1 -4.1,-41c5.1,-2.8 11.3,-2.4 17.1,-1.2c2.1,0.5 4.9,3.9 6.7,5.3z" id="Path_38_" fill="#aff4f5" stroke="none" stroke-width="1" stroke-linecap="butt" stroke-linejoin="miter"/><path d="M253.13383,164.1c2.3,3.5 -18,4.3 -21,-1.5c1.3,-2.8 18.7,-2 21,1.5z" id="Path_39_" fill="#9e5e4c" stroke="none" stroke-width="1" stroke-linecap="butt" stroke-linejoin="miter"/><path d="M259.43383,172.6c0.6,1.2 1.2,2.5 1.5,3.8c0.7,2.6 1.1,5.4 1,8.1c0,5.4 0.2,10.7 0.7,16.1c0,0.6 0.1,1.3 0.1,2c0,0.4 0,0.7 0,1.1c0,0.2 -0.1,0.4 -0.1,0.6l-0.1,0.3c0,0.1 -0.1,0.1 -0.1,0.2c-0.1,0.1 -0.1,0.1 -0.2,0.2c-0.3,0.3 -0.6,0.5 -1,0.6c-0.3,0.1 -0.7,0.2 -1,0.3c-0.7,0.2 -1.3,0.3 -2,0.4c-2.7,0.4 -5.4,0.7 -8.1,0.8c-2.7,0.1 -5.4,0.1 -8.1,-0.1c-1.4,-0.1 -2.8,-0.3 -4.1,-0.6c-0.7,-0.2 -1.4,-0.4 -2,-0.7c-0.3,-0.1 -0.6,-0.3 -0.9,-0.6c-0.3,-0.3 -0.5,-0.7 -0.6,-1.1c-0.6,-2.7 -1,-5.4 -1.4,-8c-0.4,-2.6 -0.8,-5.3 -1.1,-8c-0.7,-5.4 -1.3,-10.7 -1.7,-16.1c-0.1,-1.3 -0.1,-2.7 -0.2,-4c0,-1.4 0,-2.7 0.1,-4.1c0,-0.2 0,-0.4 0.1,-0.6c0.1,-0.2 0.2,-0.4 0.3,-0.5c0,-0.1 0.1,-0.1 0.1,-0.1l0.1,-0.1l0.9,-0.5l1,-0.4l1,-0.3c1.4,-0.4 2.7,-0.7 4.1,-0.8c2.8,-0.2 5.5,-0.1 8.2,0.4c1.4,0.2 2.7,0.5 4,0.9c1.3,0.5 2.5,1.1 3.6,2c0.2,0.1 0.2,0.4 0.1,0.6c-0.1,0.2 -0.4,0.3 -0.6,0.1c-1,-0.8 -2.2,-1.4 -3.4,-1.9c-1.3,-0.4 -2.6,-0.7 -3.9,-0.9c-2.6,-0.5 -5.3,-0.6 -7.9,-0.4c-1.3,0.2 -2.6,0.4 -3.9,0.8l-0.9,0.3l-0.9,0.4l-0.9,0.4l-0.1,0.1v0.1c0,0.1 -0.1,0.3 -0.1,0.4c-0.1,1.3 -0.1,2.7 0,4c0,1.3 0.1,2.7 0.2,4c0.4,5.3 1,10.7 1.6,16c0.4,2.7 0.7,5.3 1.1,8c0.4,2.7 0.8,5.3 1.4,7.9c0.1,0.5 0.5,0.8 1.1,1.1c0.6,0.3 1.2,0.5 1.8,0.6c1.3,0.3 2.6,0.5 3.9,0.6c2.7,0.2 5.3,0.2 8,0.1c2.7,-0.1 5.4,-0.4 8,-0.8c0.7,-0.1 1.4,-0.2 2,-0.4c0.3,-0.1 0.6,-0.2 0.9,-0.3c0.2,-0.1 0.5,-0.2 0.7,-0.4c0,0 0,0.1 0,0v-0.2c0.1,-0.1 0.1,-0.2 0.1,-0.4c0,-0.3 0,-0.6 0,-0.9c0,-0.7 0,-1.3 -0.1,-2c-0.5,-5.4 -0.7,-10.8 -0.7,-16.2c0.1,-2.7 -0.3,-5.3 -1,-7.9c-0.4,-1.2 -0.9,-2.5 -1.5,-3.6c-0.6,-1.2 -1.4,-2.2 -2.1,-3.4c1.2,0.6 2.2,1.6 3,3z" id="Path_40_" fill="#030305" stroke="none" stroke-width="1" stroke-linecap="butt" stroke-linejoin="miter"/><path d="M253.23383,164.4c-1.1,4.2 -18.1,4.1 -21.1,-1.8" id="Path_41_" fill="none" stroke="#030305" stroke-width="0.9" stroke-linecap="round" stroke-linejoin="miter"/><g id="Group_10_"><path d="M262.13383,200.9c0,0 1,5.2 -0.3,6.4c-4.5,4.6 -23.8,3.1 -27.5,1.7c-0.4,-0.1 -0.6,-5.1 0.3,-7.6c5.1,1.8 24.1,1.7 27.5,-0.5z" id="Path_42_" fill="#d03b46" stroke="none" stroke-width="1" stroke-linecap="butt" stroke-linejoin="miter"/><path d="M262.13383,200.9c0,0 1,5.2 -0.3,6.4c-4.5,4.6 -23.8,3.1 -27.5,1.7c-0.4,-0.1 -0.6,-5.1 0.3,-7.6c5.1,1.8 24.1,1.7 27.5,-0.5z" id="Path_43_" fill="none" stroke="#000000" stroke-width="1.08" stroke-linecap="round" stroke-linejoin="round"/><path d="M258.83383,202c0.1,2.4 0,4.8 -0.2,7.2" id="Path_44_" fill="none" stroke="#000000" stroke-width="0.72" stroke-linecap="round" stroke-linejoin="round"/></g></g><g data-paper-data="{&quot;index&quot;:null}" id="Group_11_" fill-rule="evenodd" stroke-linejoin="miter"><path d="M235.53383,162.6c0.5,-1.3 -0.4,-9.9 -0.3,-11.8c0.1,-1.9 2.8,-4 7.1,-3.5c4.3,0.5 6.2,5.6 6.2,8.5c0,2.9 0.2,7.8 0.2,7.8c0,1 -2.3,1.9 -6.4,1.4c-3.7,-0.5 -7,-1.8 -6.8,-2.4z" id="Path_45_" fill="#9e5e4c" stroke="none" stroke-width="1" stroke-linecap="butt"/><path d="M235.33383,162.6c0.3,-1.3 -0.2,-9.9 -0.1,-11.8c0.1,-1.9 2.9,-4 7.1,-3.5c4.2,0.5 6.2,5.7 6.2,8.5c0,2.8 0.4,7.8 0.4,7.8" id="Path_46_" fill="none" stroke="#000000" stroke-width="0.9" stroke-linecap="round"/></g><g data-paper-data="{&quot;index&quot;:null}" id="Group_13_" fill-rule="evenodd"><path d="M250.93383,73.3c22.3,1.6 41,9.2 33.8,41.8c-1.4,6.4 -9.6,28.1 -9.6,28.1c0.9,1.3 1.5,2.8 1.7,4.3c0.2,2.3 -0.8,4.6 -2.6,6.1c-1.6,1.4 -3.9,2.4 -6.6,3c-2.9,2.2 -9.6,4 -15.2,1c-4.5,-0.3 -8.8,-0.9 -12.2,-1.7c-22.3,-6.5 -45.8,-30.9 -45.4,-50.7c0.7,-28 35.1,-33.5 56.1,-31.9z" id="Path_47_" fill="#9e5e4c" stroke="none" stroke-width="1" stroke-linecap="butt" stroke-linejoin="miter"/><g id="Path_56_"><path d="M194.73383,104.7c0,-27.9 35.2,-33 56.2,-31.5c18.4,1.4 34.3,6.8 35.3,26.9c-0.1,0.1 -6,-20.2 -24.3,-5.5c-5.7,-4.6 -25.7,-13.5 -37.3,12c-1.9,4.2 -3.2,16.8 -3.6,24.5c-1.9,-9 -14.9,-13.2 -20.3,-6.7c-1.9,-0.6 -1.8,-1.1 -2.6,-2.9c-2.2,-5.4 -3.3,-11 -3.4,-16.8z" id="Path_48_" fill="#2f1917" stroke="none" stroke-width="1" stroke-linecap="butt" stroke-linejoin="miter"/><path d="M235.33383,153.9c-13.9,-5.7 -18.6,-9.3 -25.8,-23" id="Path_49_" fill="none" stroke="#000000" stroke-width="1.08" stroke-linecap="round" stroke-linejoin="miter"/><path d="M195.33383,112.7c-6.8,-36 35.4,-40.9 55.6,-39.4c22.3,1.6 41,9.2 33.8,41.7c-1.4,6.4 -9.6,28.1 -9.6,28.1c1,1.2 1.5,2.7 1.7,4.3c0.1,2.3 -0.8,4.6 -2.6,6.1c-1.7,1.4 -3.7,2.4 -6.4,3.1" id="Path_50_" fill="none" stroke="#000000" stroke-width="1.08" stroke-linecap="round" stroke-linejoin="miter"/><path d="M220.93383,131.1c0.4,-7.7 1.7,-20.3 3.6,-24.5c11.6,-25.5 31.6,-16.6 37.3,-12c18.4,-14.7 24.3,5.9 24.3,5.9" id="Path_51_" fill="none" stroke="#000000" stroke-width="1.08" stroke-linecap="round" stroke-linejoin="round"/><g id="Group_12_"><path d="M223.43383,145c-13.2,8.3 -25.1,-4.5 -25.2,-12.3c-0.2,-13.2 16.3,-17 22.7,-1.7" id="Path_52_" fill="#9e5e4c" stroke="none" stroke-width="1" stroke-linecap="butt" stroke-linejoin="miter"/><path d="M223.43383,145c-13.2,8.3 -25,-4.5 -25.2,-12.3c-0.4,-17 20.2,-13.2 22.7,-1.7" id="Path_53_" fill="none" stroke="#000000" stroke-width="1.08" stroke-linecap="round" stroke-linejoin="round"/></g><path d="M268.53383,155.7c-0.1,0.2 -0.2,0.4 -0.4,0.6c-0.3,0.4 -0.6,0.6 -1,0.9c-0.4,0.3 -0.8,0.5 -1.2,0.7c-0.4,0.2 -0.8,0.4 -1.2,0.5c-1.7,0.6 -3.4,0.9 -5.2,1c-1.8,0.1 -3.6,-0.1 -5.3,-0.7c-0.4,-0.1 -0.8,-0.3 -1.2,-0.5c-0.4,-0.2 -0.8,-0.4 -1.2,-0.6c-0.4,-0.2 -0.8,-0.4 -1.1,-0.7c-0.3,-0.3 -0.6,-0.7 -0.8,-1.1c0.4,0.1 0.8,0.2 1.2,0.5c0.4,0.3 0.7,0.5 1.1,0.7c0.3,0.2 0.7,0.4 1.1,0.6c0.4,0.2 0.8,0.4 1.2,0.5c1.6,0.6 3.3,0.8 5,0.7c1.7,-0.1 3.4,-0.4 5,-1c0.4,-0.1 0.8,-0.3 1.2,-0.5c0.4,-0.2 0.8,-0.4 1.1,-0.6c0.2,-0.1 0.3,-0.3 0.5,-0.4c0.2,-0.1 0.3,-0.3 0.5,-0.4c0.2,-0.1 0.3,-0.3 0.5,-0.4c0.2,-0.2 0.4,-0.3 0.6,-0.4c0,0.3 0,0.5 -0.4,0.6z" id="Path_54_" fill="#000000" stroke="none" stroke-width="1" stroke-linecap="butt" stroke-linejoin="miter"/><path d="M208.83383,115l0.4,0.1l0.7,0.3c0.5,0.2 0.9,0.5 1.4,0.7c0.9,0.5 1.8,1.2 2.5,1.9c0.7,0.8 1.3,1.6 1.7,2.6c0.2,0.5 0.4,1 0.5,1.5c0.1,0.3 0.1,0.6 0.2,0.8c0.1,0.2 0.2,0.4 0.1,0.6c-0.1,0.2 -0.4,0.3 -0.6,0.2c-0.2,-0.1 -0.3,-0.4 -0.2,-0.6c-0.1,-0.2 -0.1,-0.5 -0.2,-0.7c-0.1,-0.5 -0.3,-1 -0.5,-1.4c-0.4,-0.9 -0.9,-1.7 -1.6,-2.4c-0.7,-0.7 -1.4,-1.3 -2.3,-1.8c-0.4,-0.2 -0.9,-0.4 -1.3,-0.6l-0.7,-0.3l-0.4,-0.1c-0.1,-0.2 -0.2,-0.3 -0.2,-0.5c0.2,-0.1 0.4,-0.2 0.5,-0.3z" id="Path_55_" fill="#000000" stroke="none" stroke-width="1" stroke-linecap="butt" stroke-linejoin="miter"/></g></g><g data-paper-data="{&quot;index&quot;:null}" id="Group_14_" stroke="#000000" stroke-width="0.5" stroke-linecap="butt"><path d="M256.83383,181.8c-0.4,-3.6 -1.1,-6.8 -1.9,-9.8c-0.5,-1.6 -1.1,-3.2 -1.8,-4.6c-0.7,-1.4 -2.2,-3.2 -3.4,-4.1c-0.2,-0.2 -0.3,-0.5 -0.1,-0.8c0.2,-0.2 0.5,-0.3 0.8,-0.1c1.3,1 3,2.9 3.7,4.5c0.6,1.5 1.3,3.1 1.8,4.8c0.8,3.1 1.5,6.3 1.9,10c0,0.3 -0.2,0.6 -0.6,0.6c-0.3,0 -0.5,-0.2 -0.4,-0.5z" id="Path_57_" fill="#f9febb" fill-rule="evenodd" stroke-linejoin="miter"/><path d="M255.53383,185.9c-2,0 -3.6,-1.6 -3.7,-3.6c0.1,-2 1.7,-3.6 3.7,-3.7c2.7,-0.2 4.4,2.4 2.9,5.9l2.3,6.4c-0.3,0.7 -0.7,1.5 -1.2,2.1l-1.7,-0.3z" id="Path_58_" fill="#f8c278" fill-rule="evenodd" stroke-linejoin="miter"/><path d="M253.93383,185.7c-2,0 -3.7,-1.6 -3.7,-3.7c0,-2.1 1.6,-3.6 3.7,-3.6c2,0 4.7,2.4 3.1,6.8l2.1,5.5c-0.3,0.7 -0.7,1.5 -1.2,2.1l-1.7,-0.3z" id="Path_59_" fill="#c6c4bf" fill-rule="evenodd" stroke-linejoin="round"/><path d="M252.53383,186c-2,0 -3.6,-1.6 -3.6,-3.7c0.1,-2 1.7,-3.6 3.6,-3.6c2.7,-0.2 4.4,2.4 2.9,5.9l2.3,6.4c-0.3,0.8 -0.7,1.5 -1.1,2.1l-1.7,-0.3z" id="Path_60_" fill="#c6c4bf" fill-rule="evenodd" stroke-linejoin="round"/><path d="M249.63383,179.4c3.1,-1 6.6,1.1 4,5.5l2.1,5.6c0.1,0.4 0.2,0.8 0.1,1.2c-0.1,0.5 -1.1,0.9 -1.4,1.2l-0.8,-1.1l0.9,-0.7l-0.7,-1.1h-1.5l0.2,-1.2l-1.1,-3.2c-3.9,0.9 -4.7,-5.3 -1.8,-6.2zM251.43383,184.4c1.2,-0.1 2,-1.1 1.9,-2.2c-0.1,-1.2 -1.1,-2 -2.2,-1.9c-1.1,0.1 -2,1 -1.9,2.2c0,1.1 1,2 2.2,1.9c-0.1,0 -0.1,0 0,0z" id="Shape" fill="#c6c4bf" fill-rule="nonzero" stroke-linejoin="round"/><path d="M250.33383,179.5c1.8,0 3.3,1.5 3.3,3.3c0,1.1 -0.5,2.1 -1.4,2.7c0,0 0.3,2.1 0.7,1.9c0.6,-0.2 1.2,0.1 1.3,0.7c0.1,0.6 -0.8,0.8 -0.8,0.8c0,0 0.4,1.4 0.3,1.5c-0.5,0.5 -1.3,-0.1 -1.4,-0.2c-0.4,-1.1 -1.5,-4.4 -1.5,-4.4c-1.8,0.2 -3.5,-1.1 -3.8,-2.9c0,-0.1 0,-0.1 0,-0.2c0,-1.7 1.4,-3.2 3.3,-3.2zM250.23383,184.8c1.2,0 2.1,-0.9 2.1,-2.1c0,-1.2 -0.9,-2.1 -2.1,-2.1c-1.2,0 -2.1,0.9 -2.1,2.1c0,1.2 0.9,2.1 2.1,2.1z" id="Shape_1_" fill="#c6c4bf" fill-rule="nonzero" stroke-linejoin="miter"/><path d="M233.43383,164.1c-0.6,-1.6 -0.3,-2.9 0.6,-3.7c0.2,-0.2 0.6,-0.1 0.8,0.1c0.2,0.2 0.1,0.6 -0.1,0.8c-0.2,0.2 -0.8,0.7 -0.3,2.4c1.9,6.2 15.3,17.5 16.8,17.7c0.3,0 0.5,0.3 0.5,0.6c-0.1,0.3 -0.3,0.5 -0.6,0.5c-2.2,-0.2 -15.7,-12 -17.7,-18.4z" id="Path_61_" fill="#f9febb" fill-rule="evenodd" stroke-linejoin="miter"/></g><g data-paper-data="{&quot;index&quot;:null}" id="Group_15_" fill-rule="evenodd"><g id="Path_64_" fill="#000000" stroke="none" stroke-width="1" stroke-linecap="butt" stroke-linejoin="miter"><path d="M265.83383,135.4c1.1,0.6 2,1.5 2.7,2.6c0.4,0.5 0.6,1.2 0.7,1.8c0.2,0.7 0,1.4 -0.4,2c-0.4,0.6 -1.1,0.9 -1.8,0.9c-0.3,0 -0.7,-0.1 -1,-0.2c-0.3,-0.2 -0.5,-0.3 -0.8,-0.5c0.3,0 0.6,0 0.9,0.1c0.2,0 0.5,0 0.8,0c0.5,0 1,-0.3 1.3,-0.7c0.5,-1 0.3,-2.1 -0.3,-3c-0.6,-0.9 -1.4,-1.8 -2.4,-2.4c-0.5,-0.3 -1,-0.6 -1.5,-0.9c-0.6,-0.2 -1.1,-0.5 -1.6,-0.9c1.2,0.1 2.4,0.5 3.4,1.2z" id="Path_62_"/><path d="M256.73383,142.7c-0.4,0.2 -0.7,0.3 -1.1,0.4c-0.8,0.2 -1.5,0.3 -2.3,0.2c-0.4,-0.1 -0.9,-0.2 -1.2,-0.5c-0.3,-0.3 -0.5,-0.8 -0.4,-1.3c0.1,-0.8 0.5,-1.5 1.2,-2c-0.1,0.8 -0.5,1.4 -0.5,2c-0.1,0.3 0,0.5 0.2,0.7c0.2,0.2 0.5,0.3 0.8,0.3c0.7,0.1 1.3,0 2,-0.1c0.3,0 0.7,-0.1 1,-0.2c0.4,-0.1 0.7,-0.2 1.1,-0.2c-0.2,0.3 -0.5,0.5 -0.8,0.7z" id="Path_63_"/></g><g id="Path_69_"><path d="M232.83383,114.5c14,-10.2 24,1.4 22.4,16.7c0,0 -1.4,2.4 -3.2,2.5c-5.1,1.4 -18.5,4.1 -20.7,-17c0.3,-0.9 0.8,-1.7 1.5,-2.2z" id="Path_65_" fill="#ffffff" stroke="none" stroke-width="1" stroke-linecap="butt" stroke-linejoin="miter"/><path d="M252.43383,128.3c-0.1,0.3 -0.3,0.5 -0.6,0.7c-0.7,0.4 -1.7,0.2 -2.2,-0.6c-1.2,-1.7 -0.9,-5.3 0.1,-6.8c0.8,-1.2 2.1,-1.3 2.9,0c0.5,1 0.7,2.2 0.6,3.4c0.1,1.1 -0.2,2.2 -0.8,3.3z" id="Path_66_" fill="#000000" stroke="none" stroke-width="1" stroke-linecap="butt" stroke-linejoin="miter"/><path d="M232.03383,115c14,-12 26.1,2.5 23.1,16.6" id="Path_67_" fill="none" stroke="#000000" stroke-width="0.72" stroke-linecap="round" stroke-linejoin="round"/><path d="M252.73383,133.7c-5.1,1.4 -19.1,4.1 -21.3,-17.1" id="Path_68_" fill="none" stroke="#000000" stroke-width="0.72" stroke-linecap="round" stroke-linejoin="round"/></g><g id="Path_74_"><path d="M263.93383,128.7c-1,-19.1 10.5,-18.5 15.6,-17.1c1.2,0.4 1.6,2.2 1.6,2.2c1.2,6.4 -3.1,21.6 -14.8,18.4c0,0 -2.3,-1.3 -2.4,-3.5z" id="Path_70_" fill="#ffffff" stroke="none" stroke-width="1" stroke-linecap="butt" stroke-linejoin="miter"/><path d="M269.83383,127.8c-0.3,0.5 -0.5,1 -1.3,1c-0.7,0.1 -1.3,-0.3 -1.5,-0.9c-1.1,-2.2 -1,-4.8 0.3,-6.8c0.3,-0.4 0.4,-1 1.1,-0.9c0.6,0.2 1,0.6 1.2,1.2c0.4,1 0.6,2 0.5,3.1c-0.1,1.3 0.1,2.3 -0.3,3.3z" id="Path_71_" fill="#000000" stroke="none" stroke-width="1" stroke-linecap="butt" stroke-linejoin="miter"/><path d="M263.93383,129.7c-2.4,-20.4 12.3,-20.1 16.1,-17.9" id="Path_72_" fill="none" stroke="#000000" stroke-width="0.72" stroke-linecap="round" stroke-linejoin="round"/><path d="M281.13383,113.8c1.2,6.4 -3.4,21.8 -15.1,18.6" id="Path_73_" fill="none" stroke="#000000" stroke-width="0.72" stroke-linecap="round" stroke-linejoin="round"/></g><path d="M255.73383,97.6c1.3,0.9 1.4,2.7 0.8,3.3c-0.6,0.6 -2.3,-1.6 -3.3,-2.3c-2.3,-1.6 -6.5,-1.8 -6.5,-2.4c0,-0.6 5.3,-1.3 9,1.4z" id="Path_75_" fill="#000000" stroke="none" stroke-width="1" stroke-linecap="butt" stroke-linejoin="miter"/><path d="M265.33383,100.8c0,0 -1.5,1.6 -1.4,-0.3c0.1,-1.9 5.1,-6.1 9.3,-5.3c0,0 1.4,0.6 0.6,0.8c-0.8,0.2 -5.7,0.8 -8.5,4.8z" id="Path_76_" fill="#000000" stroke="none" stroke-width="1" stroke-linecap="butt" stroke-linejoin="miter"/><path d="M264.03383,144.3c-1.4,-0.3 -2.8,-0.4 -4.2,-0.4c-1.4,0 -2.8,0.2 -4.1,0.5c-1.4,0.3 -2.7,0.9 -3.8,1.7c1,-1.1 2.3,-1.9 3.7,-2.3c1.4,-0.4 2.8,-0.7 4.3,-0.7c1.5,0 2.9,0.2 4.3,0.6l1,0.4c0.4,0.2 0.7,0.3 1,0.5c0.6,0.3 1.1,0.9 1.4,1.6c-0.9,-1.1 -2.1,-1.8 -3.6,-1.9z" id="Path_77_" fill="#000000" stroke="none" stroke-width="1" stroke-linecap="butt" stroke-linejoin="miter"/><g id="Path_84_"><path d="M257.73383,154.4c-13.5,0.2 -15.7,-5.3 -12.2,-6.7c2.7,-1 10.8,0.7 16,0.7c5.2,0 7.4,-1.9 9.2,-0.8c2.4,1.6 -0.7,6.7 -13,6.8z" id="Path_78_" fill="#571226" stroke="none" stroke-width="1" stroke-linecap="butt" stroke-linejoin="miter"/><path d="M246.93383,152.4c0.6,-1.4 14.5,-2.1 15.8,1.7c0.3,1 -15.7,0.4 -15.8,-1.7z" id="Path_79_" fill="#e68387" stroke="none" stroke-width="1" stroke-linecap="butt" stroke-linejoin="miter"/><path d="M246.93383,152.4c0.6,-1.4 13.6,-2.6 15.8,1.7" id="Path_80_" fill="none" stroke="#000000" stroke-width="0.72" stroke-linecap="round" stroke-linejoin="miter"/><path d="M244.83383,148c1.3,-1.4 12.1,0 14.9,0.4c2.8,0.4 9.8,-1 9.8,-1c0,1.5 -1,2.9 -2.4,3.4c-4.9,2 -16.2,2.2 -22.7,-1.2c-0.1,-0.6 0.1,-1.2 0.4,-1.6z" id="Path_81_" fill="#feffff" stroke="none" stroke-width="1" stroke-linecap="butt" stroke-linejoin="miter"/><path d="M269.53383,147.4c0,1.5 -0.9,2.9 -2.4,3.4c-4.9,2 -16.1,2.2 -22.7,-1.2" id="Path_82_" fill="none" stroke="#000000" stroke-width="0.72" stroke-linecap="round" stroke-linejoin="miter"/><path d="M257.73383,154.4c-13.5,0.2 -15.7,-5.3 -12.2,-6.7c2.7,-1 10.8,0.7 16,0.7c5.2,0 7.4,-1.9 9.2,-0.8c2.4,1.6 -0.7,6.7 -13,6.8z" id="Path_83_" fill="none" stroke="#000000" stroke-width="0.72" stroke-linecap="round" stroke-linejoin="round"/></g></g><g data-paper-data="{&quot;index&quot;:null}" id="Group_21_" fill-rule="evenodd"><g id="Group_16_" stroke-linecap="butt" stroke-linejoin="miter"><path d="M230.33383,186.2c0.9,5 1.9,8.3 -8.6,3.9c-10.5,-4.4 -13.2,-17.3 -12.6,-19c0.6,-1.7 2.7,-1.5 2.7,-1.5c2.8,0.3 17.6,11.6 18.5,16.6z" id="Path_85_" fill="#609eab" stroke="none" stroke-width="1"/><path d="M230.33383,186.2c0.9,5 1.9,8.3 -8.6,3.9c-10.5,-4.4 -13.2,-17.3 -12.6,-19c0.6,-1.7 2.7,-1.5 2.7,-1.5c2.8,0.3 17.6,11.6 18.5,16.6z" id="Path_86_" fill="none" stroke="#000000" stroke-width="0.9"/></g><path d="M228.53383,180.7c0,0 -10.1,9.3 -12.1,12.3c-2,3 -3.5,4.5 -5.4,3.3c-1.9,-1.2 -3.4,-2.4 -1.5,-6.1c1.9,-3.7 11.8,-16.1 14.1,-17.4c2.3,-1.3 8.4,3.4 4.9,7.9z" id="Path_87_" fill="#9e5e4c" stroke="#030305" stroke-width="1" stroke-linecap="butt" stroke-linejoin="miter"/><g id="Hand_R-2"><g id="Group_18_"><path d="M238.93383,216.2c-0.3,1 -1.2,1.7 -2.2,1.9c-0.2,0 -0.4,1.5 -1.1,2.2c-1.4,1.3 -2.1,0.5 -2.7,1.4c-1.2,1.9 -2.3,2.4 -3.3,1.6c-1,1.9 -2.8,3.7 -5.5,2.2c-2,-1.1 -3.8,-4.2 -3.7,-6.3c0,-1.1 0.7,-2 1.8,-2.1c-0.6,-1.1 -0.6,-2.4 -0.1,-3.5l0.2,-0.2c-0.7,-1.6 -1,-3.3 -1.1,-5c0,-2.6 3.3,-6.3 5.7,-6.1c4.9,0.4 8.6,5.1 11.1,9.4c0.9,1.4 1.3,3 0.9,4.5z" id="Path_93_" fill="#9e5e4c" stroke="none" stroke-width="1" stroke-linecap="butt" stroke-linejoin="miter"/><g id="Path_97_" fill="none" stroke="#030305" stroke-width="0.9" stroke-linecap="round" stroke-linejoin="round"><path d="M224.43383,221.9c0.2,-1.1 1.1,-2 2.2,-2.1" id="Path_94_"/><path d="M226.53383,219.8c-3.1,-3.1 -5.4,-7.6 -5.4,-11.5c0,-2.6 3.3,-6.3 5.7,-6.1c4.9,0.4 8.6,5.1 11.1,9.4c0.9,1.3 1.3,3 1,4.6c-0.3,1 -1.2,1.7 -2.2,1.9c-0.2,0 -0.4,1.5 -1.1,2.2c-1.4,1.3 -2.1,0.5 -2.7,1.4c-1.2,1.9 -2.3,2.4 -3.3,1.6c-1,1.9 -2.8,3.7 -5.5,2.2c-2,-1.1 -3.8,-4.2 -3.7,-6.3c0.1,-2.7 3,-2.6 4.6,-0.9" id="Path_95_"/><path d="M222.33383,217.1c-0.6,-1.1 -0.6,-2.4 -0.1,-3.5" id="Path_96_"/></g></g></g><g id="Group_17_"><path d="M234.03383,177c0,0 -2.2,10.9 -3.5,13.7c0,0 -0.4,-3.8 -7.5,-9.2c-7.1,-5.4 -9.1,-11.5 -13.1,-11.7c3.7,-0.3 16.4,-16.6 23.9,-4.5" id="Path_88_" fill="#aff4f5" stroke="none" stroke-width="1" stroke-linecap="butt" stroke-linejoin="miter"/><path d="M234.03383,177c0,0 -2.2,10.9 -3.5,13.7c0,0 -0.4,-3.8 -7.5,-9.2c-7.1,-5.4 -9.1,-11.5 -13.1,-11.7c3.7,-0.3 16.3,-16.8 23.8,-4.6" id="Path_89_" fill="none" stroke="#030305" stroke-width="0.9" stroke-linecap="round" stroke-linejoin="round"/></g><g id="Forearm_R" stroke="none" stroke-width="1" stroke-linecap="butt" stroke-linejoin="miter"><g id="Group_19_"><path d="M223.33383,207.9c-3.6,-2.4 -8.6,-7 -11.8,-10c-1.4,-1.2 -2.5,-2.5 -1.8,-5c0,0 2.3,-3.8 4.4,-1.4c3.7,4.2 8.3,7.6 12.1,11.6c2.4,2.6 -1.9,6 -2.9,4.8z" id="Path_90_" fill="#9e5e4c"/><path d="M208.93383,193.6c0.1,-0.1 0.2,0 0.2,0.1c0.2,1.7 1.5,2.8 2.7,4l3.7,3.5c1.3,1.2 2.5,2.4 3.8,3.5c0.6,0.6 1.3,1.1 1.9,1.7c0.6,0.6 1.3,1.1 1.9,1.7c0,0.1 0,0.1 0,0.2c0,0.1 -0.1,0.1 -0.2,0.1c-0.8,-0.4 -1.5,-0.8 -2.2,-1.4c-0.7,-0.5 -1.3,-1 -2,-1.6c-1.3,-1.1 -2.6,-2.3 -3.8,-3.5c-1.2,-1.2 -2.4,-2.4 -3.6,-3.7c-0.6,-0.6 -1.2,-1.3 -1.7,-2c-0.6,-0.8 -0.9,-1.7 -0.8,-2.6c0,0 0.1,-0.1 0.1,0z" id="Path_91_" fill="#030305"/><path d="M226.63383,203.1c0,0.1 -0.1,0.1 -0.2,0c-1.1,-0.8 -2.1,-1.8 -3.2,-2.7c-1.1,-0.9 -2.1,-1.8 -3.2,-2.8c-1.1,-1 -2.1,-1.9 -3.1,-2.9c-0.5,-0.5 -1,-1 -1.5,-1.5c-0.5,-0.5 -0.9,-1.1 -1.3,-1.7c0,-0.1 0,-0.1 0,-0.2c0,-0.1 0.1,-0.1 0.2,0c0.6,0.4 1.1,0.9 1.6,1.4c0.5,0.5 1,0.9 1.5,1.4l3.1,2.8c1,1 2.1,1.9 3.1,2.9c1,1 2,2 2.9,3.1c0,0.1 0,0.2 0.1,0.2z" id="Path_92_" fill="#030305"/></g></g></g><g data-paper-data="{&quot;index&quot;:null}" id="Group_22_" fill-rule="evenodd"><path d="M223.03383,193.1c12.2,0 23,5.5 23.1,19.9c0.1,11.7 -11.6,15.9 -23.7,15.9c-12.1,0 -21.6,-6.8 -22,-15c-0.7,-14.2 10.4,-20.8 22.6,-20.8z" id="Path_98_" fill="#d03b46" stroke="none" stroke-width="1" stroke-linecap="butt" stroke-linejoin="miter"/><path d="M223.03383,193.1c12.2,0 23,5.5 23.1,19.9c0.1,11.7 -11.6,15.9 -23.7,15.9c-12.1,0 -21.6,-6.8 -22,-15c-0.7,-14.2 10.4,-20.8 22.6,-20.8z" id="Path_99_" fill="none" stroke="#000000" stroke-width="1.08" stroke-linecap="round" stroke-linejoin="round"/><path d="M240.03383,224.4c-5.6,2.3 -5,-6.4 -4.1,-13.3c0.9,-6.9 4.7,-9.3 7,-8.3" id="Path_100_" fill="none" stroke="#000000" stroke-width="0.72" stroke-linecap="round" stroke-linejoin="round"/><path d="M201.73383,205.3c10.1,-2.5 23.8,-0.4 34.8,2.9" id="Path_101_" fill="none" stroke="#000000" stroke-width="0.72" stroke-linecap="round" stroke-linejoin="round"/><path d="M201.13383,208.9c5.4,-2.6 28.9,0.7 34.6,2.4" id="Path_102_" fill="none" stroke="#000000" stroke-width="0.72" stroke-linecap="round" stroke-linejoin="round"/></g><g data-paper-data="{&quot;index&quot;:null}" id="Group"><path d="M283.83383,118.7l11.9,-0.2l-0.8,4.6l-12.5,-0.3z" id="Path_108_" fill="#842544" fill-rule="evenodd" stroke="#000000" stroke-width="0.5" stroke-linecap="butt" stroke-linejoin="miter"/><path d="M214.53383,119.2c-0.8,-1 -1.5,-1.6 -2.1,-2l9.8,-0.4v5.7l-6.5,-0.8c-0.2,-0.6 -0.6,-1.5 -1.2,-2.5z" id="Path_112_" fill="#842544" fill-rule="evenodd" stroke="#000000" stroke-width="0.5" stroke-linecap="butt" stroke-linejoin="miter"/><path d="M243.33383,96.4c10.7,0.4 17.1,10.7 16.8,22.4c-0.3,11.7 -7.8,20 -18.4,19.7c-10.6,-0.3 -19.5,-9.9 -19.3,-21.4c0.2,-11.7 10.2,-21.1 20.9,-20.7z" id="Path_110_" fill="#b0f5f6" fill-rule="evenodd" stroke="none" stroke-width="1" stroke-linecap="butt" stroke-linejoin="miter" opacity="0.4"/><path d="M279.23383,95.8c10.1,0.3 16.1,8.1 16,19.9c-0.1,11.1 -8.4,21.1 -18.4,20.8c-9.9,-0.4 -16.6,-5 -16.6,-19.6c0,-11.1 9,-21.4 19,-21.1z" id="Path_109_" fill="#b0f5f6" fill-rule="evenodd" stroke="none" stroke-width="1" stroke-linecap="butt" stroke-linejoin="miter" opacity="0.4"/><path d="M221.43383,116.3c0.3,-12.3 10.3,-22 21.6,-21.7c8.8,0.3 15,7.2 17.1,16.1c0.6,-5.6 7.9,-17.2 19.3,-16.5c11.3,0.7 17.8,11.7 17,23.5c-0.7,11.2 -9.1,20.2 -19.8,19.8c-8.4,-0.3 -14.7,-3.5 -16.7,-12.7c-0.3,4.8 -8.9,15.3 -18.7,14.5c-12.9,-0.9 -20.1,-10.6 -19.8,-23zM276.93383,136.1c9.7,0.3 17.6,-9.3 17.7,-20c0.1,-11.3 -5.7,-18.8 -15.4,-19.1c-9.7,-0.3 -18.3,9.6 -18.3,20.3c-0.1,13.9 6.3,18.5 16,18.8zM241.73383,137.3c10.2,0.3 17.4,-7.7 17.7,-18.9c0.3,-11.2 -5.9,-21.1 -16.1,-21.5c-10.2,-0.4 -20,8.6 -20.2,19.8c-0.2,11.2 8.4,20.2 18.6,20.6z" id="Shape_3_" fill="#842544" fill-rule="nonzero" stroke="#000000" stroke-width="0.5" stroke-linecap="round" stroke-linejoin="round"/></g></g></g></svg>