<svg version="1.1" xmlns="http://www.w3.org/2000/svg" xmlns:xlink="http://www.w3.org/1999/xlink" width="164.98864" height="214.83007" viewBox="0,0,164.98864,214.83007"><g transform="translate(-167.31093,-76.74339)"><g data-paper-data="{&quot;isPaintingLayer&quot;:true}" fill="none" fill-rule="evenodd" stroke="none" stroke-width="none" stroke-linecap="none" stroke-linejoin="miter" stroke-miterlimit="10" stroke-dasharray="" stroke-dashoffset="0" font-family="none" font-weight="none" font-size="none" text-anchor="none" style="mix-blend-mode: normal"><path d="M235.13161,245.29298c11.3,-1.6 36.9,2.9 41.8,10.8c1.4,2.2 -24.4,2.3 -36.2,3.8c-14.4,1.6 -22.9,0.1 -25.7,0.2c-15.2,-3.6 9,-13.2 20.1,-14.8z" data-paper-data="{&quot;index&quot;:null,&quot;origPos&quot;:null}" id="Path" fill="#9f4727" stroke="#20221d" stroke-width="1" stroke-linecap="butt"/><g data-paper-data="{&quot;index&quot;:null,&quot;origPos&quot;:null}" id="JP_Pose_01"><g id="Group-2"><g id="Group" stroke-width="1" stroke-linecap="butt"><path d="M249.41093,249.43407c5,-1.6 4.4,4.6 6.1,10.7c1.7,6.1 3,10.1 -1.1,10.9c-5.4,1.1 -5.5,-4.3 -6.7,-9.8c-1.3,-6.1 -3.3,-10 1.7,-11.8z" id="Path" fill="#c9a663" stroke="#20221d"/><path d="M249.21093,247.23407c4.3,-1.1 4.9,5.1 7.1,15.3c-2.1,-0.4 -5.3,-0.4 -7.6,2.7c-2.1,-8.8 -5.3,-16.5 0.5,-18z" id="Path" fill="#000000" stroke="none"/></g><g id="Group"><g id="Path"><path d="M257.61093,267.43407c0.4,3.2 2.1,12.1 2.1,13c0,0 1.4,5.9 -2.8,6.6c-4.5,0.8 -4.6,-2.6 -4.8,-4.2c-0.1,-1.1 -2.1,-12.2 -2.6,-14.9c3.1,-2.6 7.8,-2.6 8.1,-0.5z" fill="#c9a663" stroke="none" stroke-width="1" stroke-linecap="butt"/><g fill="none" stroke="#000000" stroke-width="0.79" stroke-linecap="round"><path d="M257.01093,265.93407c0.8,3.2 2.6,13.6 2.6,14.6c0,0 1.4,5.9 -2.8,6.6c-4.5,0.8 -4.6,-2.6 -4.8,-4.2c-0.1,-1.1 -2.2,-13.4 -2.9,-15.4"/><path d="M252.01093,281.03407c3.6,-4.3 7,-3.3 7,-3.3"/></g></g><g id="Path" stroke="none" stroke-width="1" stroke-linecap="butt"><path d="M268.91093,284.83407c-6.2,6.7 -13.1,8.1 -15.1,4.7c-0.9,-1.5 -1.8,-7.5 -1.9,-8.3l0.2,-0.1c3.3,-4 6.7,-3.4 7.2,-3.3c0.1,0.9 0.2,1.7 0.3,2.2c0.9,-1.1 5.7,-6 8.9,-5.7c2.7,0.3 5.6,4.7 0.4,10.5z" fill="#231222"/><path d="M257.91093,281.53407c1.2,-1.8 2.7,-3.3 4.4,-4.6c0.8,-0.7 1.7,-1.3 2.6,-1.9c0.9,-0.6 2,-1 3.1,-1.2c1.2,0 2.4,0.5 3.1,1.5c0.7,0.9 1.1,2 1.1,3.2c-0.2,2.2 -1.1,4.3 -2.6,5.9c-1.4,1.6 -3,3.1 -4.7,4.3c-1.7,1.3 -3.7,2.2 -5.9,2.7c-1.1,0.2 -2.2,0.2 -3.3,-0.1c-0.6,-0.2 -1.1,-0.4 -1.5,-0.8c-0.4,-0.4 -0.8,-0.9 -1,-1.4c-0.4,-1 -0.8,-2 -1,-3.1c-0.3,-1.1 -0.4,-2.2 -0.2,-3.3c0,-0.2 0.2,-0.4 0.4,-0.3c0.2,0 0.4,0.2 0.3,0.4c-0.1,1 0,2 0.2,3c0.2,1 0.5,2 0.9,2.9c0.4,0.9 1.1,1.5 2,1.8c1,0.2 2,0.2 3,0c2,-0.5 3.9,-1.3 5.6,-2.6c1.7,-1.2 3.2,-2.6 4.6,-4.2c1.4,-1.5 2.2,-3.4 2.4,-5.4c0,-1 -0.3,-1.9 -0.9,-2.7c-0.6,-0.8 -1.5,-1.2 -2.4,-1.2c-1,0.1 -1.9,0.5 -2.8,1.1c-0.9,0.5 -1.7,1.1 -2.5,1.8c-1.7,1.5 -3.1,3 -4.9,4.2z" fill="#000000"/></g></g></g><g id="Group"><g id="Path"><path d="M220.71093,247.93407c3,0.3 3.7,2.2 3.2,3.2c-2.5,5.2 -5.4,10.9 -6.2,16.3c-0.6,4 -8.4,2.9 -7.9,-0.3c0.5,-3.6 2.5,-7.5 5.4,-14c0,0 2.5,-5.5 5.5,-5.2z" fill="#c9a663" stroke="#20221d" stroke-width="1" stroke-linecap="butt"/><path d="M216.21093,266.73407c2.1,2.8 3.7,8.9 4.8,12c-2,-1 -4.3,-1.6 -6.5,-0.9c-0.7,0.2 -1.3,0.6 -1.8,1.1c-0.8,-2.6 -2.9,-8.4 -3.3,-11.2c0.3,-0.6 0.7,-1.2 1.2,-1.7c2.2,-1.7 4,-1.5 5.6,0.7z" fill="#c9a663" stroke="none" stroke-width="1" stroke-linecap="butt"/><g fill="none"><path d="M217.51093,266.13407c-0.5,3.8 2.5,9.8 3.6,12.8c0.3,0.9 1.3,3.1 1.7,4.4c0.9,4.5 -7,4.2 -9.1,-2.4c-0.7,-2.1 -4.7,-9.4 -3.8,-14.5" stroke="#000000" stroke-width="0.92" stroke-linecap="round"/><path d="M212.91093,278.93407c3.6,-2.9 7.9,-0.4 8.2,-0.3" stroke="#000104" stroke-width="0.53" stroke-linecap="butt"/></g></g><path d="M217.81093,290.13407c-4.1,0.7 -8.3,0 -11.9,-1.9c-1.5,-0.8 -2.7,-2 -3.4,-3.5c-0.7,-1.5 -0.4,-3.3 0.9,-4.4c1.4,-0.9 3.1,-1.1 4.6,-0.6c1.2,0.3 4.2,1 5.4,1.3c-0.1,-0.2 -0.2,-0.5 -0.3,-0.7c-0.1,-0.5 -0.2,-0.9 -0.4,-1.4c0.5,-0.5 1.1,-0.9 1.8,-1.1c2.2,-0.7 4.8,-0.1 6.8,0.9c0.5,1.2 1,2.5 1.4,3.7c0.1,0.3 0.3,1.2 0.1,2c0.2,0.2 0.3,0.3 0.5,0.5c0.8,4.4 -3.4,4.8 -5.5,5.2z" id="Path" fill="#231222" stroke="none" stroke-width="1" stroke-linecap="butt"/><path d="M222.21093,281.73407c0.4,0.3 0.7,0.8 0.8,1.3c0.2,0.5 0.3,0.9 0.4,1.4c0.1,0.5 0.1,1 0.1,1.5c0,0.5 -0.1,1.1 -0.3,1.6c-0.2,0.5 -0.6,1 -1,1.3c-0.4,0.3 -0.9,0.5 -1.4,0.7c-0.9,0.3 -1.9,0.5 -2.9,0.7c-3.9,0.8 -8,0.3 -11.6,-1.5c-1.9,-0.9 -3.3,-2.5 -4,-4.4c-0.3,-1 -0.2,-2.2 0.2,-3.1c0.5,-1 1.4,-1.7 2.5,-2c1,-0.3 2.1,-0.3 3.1,-0.1c1,0.2 1.9,0.5 2.8,0.9c1.8,0.7 3.6,1.4 5.4,1.9c-1.9,-0.1 -3.9,-0.5 -5.7,-1.2c-0.9,-0.3 -1.8,-0.5 -2.7,-0.7c-0.9,-0.2 -1.8,-0.1 -2.7,0.1c-0.8,0.2 -1.5,0.7 -1.9,1.5c-0.4,0.8 -0.4,1.7 -0.2,2.5c0.6,1.7 1.9,3.1 3.6,3.9c3.4,1.6 7.3,2.1 11,1.4c0.9,-0.2 1.9,-0.4 2.8,-0.6c0.8,-0.2 1.5,-0.7 1.9,-1.5c0.3,-0.8 0.4,-1.7 0.2,-2.6c-0.1,-0.4 -0.2,-0.9 -0.3,-1.4c-0.1,-0.6 -0.2,-1.1 -0.1,-1.6z" id="Path" fill="#000000" stroke="none" stroke-width="1" stroke-linecap="butt"/></g><g id="JP_R_Arm"><g id="Group"><g id="Path" stroke="none" stroke-width="1" stroke-linecap="butt"><path d="M308.11093,171.33407c6.8,0.5 20.2,17.4 23.1,22.3c2.6,4.3 -2.5,15.8 -8.8,21.8c-7.4,7.1 -16,6.4 -17.3,4.7c-3.8,-4.7 -11.7,-24.6 -12.6,-29.9c-1.3,-8.1 5.4,-19.6 15.6,-18.9z" fill="#f0f5eb"/><path d="M331.01093,193.03407c0.9,1.7 2.2,9.4 -6.8,20.1c-7.4,8.8 -16.1,8.9 -18.6,7.5c-2.5,-1.4 -8,-15.7 -8,-15.7c13.4,6.2 21.3,-21.9 17.3,-29.8c2.2,0.8 12.6,11 16.1,17.9z" fill="#f2632e"/></g><g id="Path" fill="none" stroke="#000000" stroke-width="0.79" stroke-linecap="round"><path d="M308.11093,171.33407c6.8,0.5 20.2,17.4 23.1,22.3c2.6,4.3 -2.5,15.8 -8.8,21.8c-7.4,7.1 -16,6.4 -17.3,4.7c-3.8,-4.7 -11.7,-24.6 -12.6,-29.9c-1.3,-8.1 5.4,-19.6 15.6,-18.9z"/><path d="M314.81093,175.03407c5,12.6 -7,36.7 -17.2,29.9"/></g></g><g id="Group" stroke-linecap="butt"><g id="Path" stroke="none" stroke-width="1"><path d="M300.61093,204.43407c-18.3,10.8 -37.1,9.7 -40.2,9.6c-19,-0.4 -17.5,-24.1 -11.7,-27.1c11.2,-5.7 21.8,-5.3 32.5,-9.1c14.4,-5.1 21.9,-8.4 25,-3.7c4.8,7.2 -2.3,28.3 -5.6,30.3z" fill="#f2632e"/><path d="M287.31093,210.43407c3.3,-13.2 -6.6,-30.7 -8.2,-31.9c0,0 22.1,-8.7 28.2,-7.2c7.1,1.7 1.4,25.9 -1.9,30.7c-3.3,4.6 -18.1,8.4 -18.1,8.4z" fill="#f0f5eb"/></g><g id="Path"><path d="M308.91093,171.53407c-1.6,0.1 -2.9,-0.2 -4.4,0c-1.5,0.1 -2.9,0.3 -4.3,0.7c-2.9,0.6 -5.7,1.5 -8.5,2.5c-2.8,1 -5.6,1.9 -8.4,2.9c-2.8,1 -5.7,1.9 -8.6,2.6c-5.8,1.4 -11.7,2.2 -17.4,3.9c-2.8,0.8 -5.6,1.9 -8.2,3.2c-1.2,0.7 -2.1,1.9 -2.6,3.2c-0.5,1.3 -0.9,2.8 -1.1,4.2c-0.4,2.9 -0.1,5.9 0.7,8.7c0.8,2.8 2.4,5.3 4.7,7.2c1.1,0.9 2.4,1.6 3.8,2.1c1.4,0.5 2.8,0.8 4.2,1c2.9,0.2 5.9,0.1 8.9,-0.1c5.9,-0.4 11.8,-1.3 17.5,-2.7c1.4,-0.4 2.9,-0.7 4.3,-1.2c1.4,-0.5 2.8,-0.9 4.2,-1.4c1.4,-0.5 2.8,-1.1 4.1,-1.6c0.7,-0.3 1.4,-0.6 2,-0.9c0.7,-0.4 1.4,-0.6 2.2,-0.6c-0.5,0.6 -1.2,1 -1.9,1.3c-0.7,0.3 -1.3,0.7 -2,0.9c-1.4,0.5 -2.8,1.2 -4.2,1.6c-1.4,0.5 -2.8,1 -4.2,1.4c-1.4,0.4 -2.9,0.8 -4.3,1.2c-5.8,1.4 -11.7,2.3 -17.7,2.7c-3,0.2 -6,0.2 -9,0c-1.5,-0.2 -3,-0.5 -4.4,-1c-1.4,-0.5 -2.8,-1.3 -4,-2.3c-2.4,-2 -4.1,-4.6 -4.9,-7.5c-0.9,-2.9 -1.1,-6 -0.8,-9c0.2,-1.5 0.6,-3 1.1,-4.4c0.3,-0.7 0.7,-1.4 1.1,-2c0.5,-0.6 1.1,-1.2 1.8,-1.6c2.7,-1.3 5.5,-2.4 8.4,-3.3c5.7,-1.7 11.7,-2.5 17.4,-3.9c2.9,-0.7 5.7,-1.5 8.5,-2.6c2.8,-1 5.6,-2 8.4,-2.9c2.8,-1 5.7,-1.8 8.6,-2.5c1.5,-0.3 3,-0.5 4.5,-0.7c1.5,0.1 3.2,0 4.5,0.9z" fill="#000104" stroke="none" stroke-width="1"/><path d="M279.11093,178.53407c1.6,1.1 11.5,18.6 8.2,31.9" fill="none" stroke="#000104" stroke-width="0.79"/></g></g></g><g id="JP_Torso" stroke-linecap="butt"><g id="Group"><path d="M238.11093,177.33407c22.6,-1.9 25.3,6 25.3,20c0,3.5 1.2,18.1 5.3,29.7c3.9,10.8 8.7,24.2 8.6,29.1c0,0.5 -6.5,-4.7 -30.2,2.4c-20.6,6.2 -46.9,-0.5 -50,-1.8c-3.4,-1.4 0.4,-16 3.3,-30.9c1,-5.2 2.2,-29.4 5.5,-38.1c1,-3.6 18.9,-9.2 32.2,-10.4z" id="Path" fill="#f2632e" stroke="none" stroke-width="1"/><path d="M265.61093,215.63407c1.3,7.1 5.1,17.7 6.2,21.3c-2.5,-3.8 -19.6,-2.2 -32.4,1.2c-21.4,5.7 -40.7,-3.4 -40.7,-3.4l3.2,-23.4c0,0 12.1,10.1 37.2,7.1c10.8,-1.4 25.5,-6.3 26.5,-2.8z" id="Path" fill="#f0f5eb" stroke="none" stroke-width="1"/><g id="Path"><path d="M276.11093,255.93407c-0.4,-0.1 -0.7,-0.2 -1.1,-0.3c-0.8,-0.2 -1.5,-0.3 -2.3,-0.4c-1.6,-0.1 -3.2,-0.1 -4.8,-0.1c-3.2,0.2 -6.3,0.6 -9.5,1.2c-3.1,0.6 -6.2,1.3 -9.3,2.1c-1.5,0.4 -3.1,0.9 -4.7,1.2c-1.6,0.3 -3.2,0.7 -4.8,0.9c-6.4,0.9 -12.8,1.1 -19.3,0.7c-6.4,-0.4 -12.8,-1.2 -19.1,-2.6c-1.6,-0.3 -3.2,-0.8 -4.7,-1.3l-0.3,-0.1l-0.2,-0.1l-0.2,-0.1c-0.2,-0.2 -0.4,-0.4 -0.5,-0.7c-0.2,-0.4 -0.3,-0.9 -0.3,-1.3c-0.1,-0.8 -0.1,-1.7 0,-2.5c0.2,-3.2 0.6,-6.4 1.2,-9.6c0.6,-3.2 1.2,-6.3 1.9,-9.4c0.3,-1.6 0.7,-3.1 0.9,-4.7c0.2,-1.6 0.4,-3.2 0.6,-4.8c0.8,-6.4 1.3,-12.7 2.1,-19.1c0.4,-3.2 0.8,-6.4 1.3,-9.5c0.1,-0.8 0.3,-1.6 0.5,-2.4c0.2,-0.8 0.4,-1.6 0.7,-2.4c0.3,-0.8 0.5,-1.5 0.8,-2.3c0.3,-0.8 0.5,-0.8 1,-1.4c0.2,-0.2 0.8,-1 1,-0.8c0.2,0.2 0.2,0.5 0.1,0.7c-0.4,0.6 -0.8,1.3 -1.1,2c-0.3,0.7 -0.6,1.5 -0.8,2.2c-0.2,0.7 -0.5,1.5 -0.7,2.3c-0.2,0.8 -0.3,1.6 -0.5,2.3c-0.6,3.1 -1,6.3 -1.4,9.5c-0.8,6.4 -1.3,12.7 -2.1,19.1c-0.2,1.6 -0.4,3.2 -0.6,4.8c-0.2,1.6 -0.6,3.2 -0.9,4.8c-0.7,3.1 -1.3,6.3 -1.9,9.4c-0.6,3.1 -1.1,6.3 -1.3,9.4c-0.1,0.8 -0.1,1.5 0,2.3c0,0.3 0.1,0.7 0.2,1c0.1,0.3 0.2,0.3 0.6,0.5c1.5,0.5 3,0.9 4.6,1.3c6.2,1.4 12.6,2.3 18.9,2.6c6.4,0.4 12.8,0.2 19.1,-0.7c3.1,-0.5 6.3,-1.2 9.3,-2.1c3.1,-0.8 6.2,-1.6 9.4,-2.1c3.2,-0.6 6.4,-1 9.6,-1.2c1.6,-0.1 3.2,-0.1 4.9,0.1c0.8,0.1 1.6,0.2 2.4,0.4c0.4,0.1 0.8,0.2 1.2,0.4c0.2,0.1 0.4,0.2 0.6,0.3c0.2,0.1 0.4,0.4 0.5,0.6c0,0.1 0,0.3 -0.2,0.3c0.2,0.4 0.1,0.3 0,0.1c-0.2,-0.2 -0.5,-0.4 -0.8,-0.5z" fill="#000000" stroke="none" stroke-width="1"/><path d="M263.31093,197.33407c0.2,0.3 0.3,0.6 0.3,1c0.1,0.3 0.1,0.6 0.1,0.9l0.1,1.9c0.1,1.3 0.2,2.5 0.4,3.8c0.3,2.5 0.7,5 1.2,7.6c0.9,5 2.1,10 3.7,14.8l4.7,14.6c0.8,2.4 1.5,4.9 2.3,7.3c0.4,1.2 0.7,2.5 1,3.7c0.1,0.6 0.3,1.2 0.4,1.9c0.1,0.3 0.1,0.7 0.2,1c0,0.2 0,0.4 -0.1,0.5c-0.1,0.1 -0.1,0.4 -0.4,0.4c-0.2,-0.6 -0.4,-1.2 -0.4,-1.8c-0.1,-0.6 -0.3,-1.2 -0.4,-1.8c-0.3,-1.2 -0.7,-2.5 -1,-3.7c-0.7,-2.4 -1.5,-4.9 -2.2,-7.3l-4.7,-14.6c-1.6,-4.9 -2.8,-9.9 -3.7,-14.9c-0.5,-2.5 -0.9,-5 -1.2,-7.6c-0.2,-1.3 -0.3,-2.5 -0.4,-3.8c0,-0.6 -0.1,-1.3 -0.1,-1.9c-0.2,-0.7 -0.1,-1.3 0.2,-2z" fill="#000000" stroke="none" stroke-width="1"/><path d="M265.51093,215.63407c-0.8,-3.2 -16.2,1.7 -27.1,2.7c-26.7,2.5 -36.5,-7.1 -36.5,-7.1" fill="none" stroke="#000000" stroke-width="0.79"/><path d="M271.71093,236.43407c-1.9,-3 -19.2,-1.7 -32.3,1.7c-23.4,6.1 -40.8,-3.9 -40.8,-3.9" fill="none" stroke="#000000" stroke-width="0.79"/></g></g><g id="Group"><path d="M206.91093,186.53407c4.1,-3.9 7.5,-9.7 13,-13.6c4.4,-3.1 14,-5.6 20.8,-3.7c9.3,2.5 20.3,13.5 20.3,13.5c-1.8,11.5 -14.3,25.6 -21.5,30.6c-9.5,-10.4 -20.5,-19.5 -32.6,-26.8z" id="Path" fill="#ffedce" stroke="none" stroke-width="1"/><path d="M207.11093,186.53407c4.1,-3.9 7.3,-9.7 12.8,-13.6c4.4,-3.1 14,-5.6 20.8,-3.7c9.3,2.5 20.3,13.5 20.3,13.5c-1.8,11.5 -14.3,25.6 -21.5,30.6c-9.4,-10.4 -20.4,-19.4 -32.4,-26.8z" id="Path" fill="none" stroke="#000104" stroke-width="1.05"/></g><path d="M261.11093,182.63407c-2.3,15.4 -21.6,30.7 -21.6,30.7c-3.2,-5.5 -24.3,-21.5 -32.1,-26.8l6.1,-7.8c6.4,3.3 27.1,23.8 27.1,23.8c7.4,-6.1 15.1,-21.9 13.8,-25.5z" id="Path" fill="#f0f5eb" stroke="#000000" stroke-width="1"/></g><g id="JP_L_Arm"><g id="Group"><path d="M215.11093,201.13407c0,0 -20.3,35.7 -27.2,38.1c-10.9,3.9 -20.4,-8.1 -20.1,-14c0.3,-4.3 1.9,-8.5 4.6,-11.9c3.8,-5 8.9,-8.6 13.8,-12.4c4.9,-3.8 18.5,-12.9 21,-13.5c2.7,3.4 4.8,4.3 6.3,7.9c0.6,2 1,4 1.6,5.8z" id="Path" fill="#f2632e" stroke="none" stroke-width="1" stroke-linecap="butt"/><path d="M204.31093,218.33407c-1.5,3.1 -10.8,17.1 -16.4,20.9c-11.6,3.3 -20.4,-8.1 -20.1,-14c0.3,-4.3 1.9,-8.5 4.6,-11.9c3.8,-5 11.2,-10.2 16.2,-14c5.8,0.7 14.7,8.4 15.6,16.9z" id="Path" fill="#f0f5eb" stroke="none" stroke-width="1" stroke-linecap="butt"/><path d="M215.11093,201.13407c0,0 -20.3,35.7 -27.2,38.1c-10.9,3.9 -20.4,-8.1 -20.1,-14c0.3,-4.3 1.9,-8.5 4.6,-11.9c3.8,-5 8.9,-8.6 13.8,-12.4c4.9,-3.8 18.6,-13.2 21.1,-14" id="Path" fill="none" stroke="#000000" stroke-width="0.79" stroke-linecap="round"/><path d="M188.51093,199.33407c5.9,0.7 15.6,10.3 16.1,19" id="Path" fill="none" stroke="#000104" stroke-width="0.79" stroke-linecap="butt"/></g><g id="Group" stroke="none" stroke-width="1" stroke-linecap="butt"><path d="M168.51093,224.83407c1.8,-6.6 10.2,-17.6 25.3,-19.9c15.4,-2.8 19.5,5.9 19.4,6.5c1,1.8 1.5,17.3 -8.2,26c-10.1,9.1 -27.6,2.6 -27.2,3.8c-4.6,-2 -11.4,-8.4 -9.3,-16.4z" id="Path" fill="#f0f5eb"/><path d="M181.11093,211.33407c3.2,-3.6 7.9,-5.7 12.5,-6.9c4.7,-1.1 9.8,-1.1 14.3,0.9c2.3,1 4.2,2.7 5.4,4.9c1,2.3 1.3,4.8 1,7.2c-0.5,4.8 -1.9,9.5 -4.1,13.8c-1.1,2.2 -2.3,4.2 -3.8,6.2c-0.8,1 -1.8,1.8 -2.9,2.3c-1.1,0.5 -2.2,1 -3.4,1.3c-4.6,1.3 -9.4,1.9 -14.2,1.7c-2.4,-0.1 -4.8,-0.4 -7.2,-1c-2.4,-0.5 -4.6,-1.8 -6.3,-3.6c-1.8,-1.7 -3.1,-3.7 -4.1,-6c-0.4,-1.1 -0.8,-2.3 -0.9,-3.6c0,-0.5 -0.1,-1.1 -0.1,-1.7c0,-0.3 0,-0.6 0,-0.9c0,-0.2 0,-0.3 0.1,-0.4c0,-0.2 0.2,-0.4 0.3,-0.4c0.2,0.1 0.3,0.3 0.3,0.5c0,0.1 0,0.3 0,0.4v0.9c0,0.6 0.1,1.2 0.1,1.7c0.2,1.2 0.5,2.3 0.9,3.4c0.9,2.2 2.2,4.1 3.9,5.8c0.8,0.8 1.7,1.6 2.7,2.2c1,0.5 2.1,0.9 3.3,1.2c2.3,0.6 4.6,0.9 7,0.9c4.7,0.2 9.4,-0.4 14,-1.7c1.1,-0.3 2.2,-0.8 3.3,-1.3c1.1,-0.5 2,-1.2 2.7,-2.1c1.4,-1.9 2.7,-3.9 3.7,-6c2.1,-4.2 3.5,-8.8 4,-13.5c0.3,-2.3 0,-4.7 -0.9,-6.8c-1.1,-2 -2.9,-3.6 -5,-4.6c-4.3,-1.9 -9.3,-1.9 -13.8,-0.9c-4.7,1.2 -9,3.3 -12.8,6.1z" id="Path" fill="#000000"/></g><g id="Group"><path d="M218.51093,241.73407c0.1,6.4 -31.8,16.1 -40.3,6.6c0.4,-2.3 0.9,-4.4 1.5,-6.6c-0.3,-0.4 -3.3,-9.4 3.2,-19.9c5.2,-8.4 19.1,-14.6 27.5,-12.6c6.1,0.2 7.9,22.1 8.1,32.5z" id="Path" fill="#f2632e" stroke="none" stroke-width="1" stroke-linecap="butt"/><path d="M212.71093,209.93407c0.4,0.2 0.7,0.4 1,0.8c0.2,0.4 0.4,0.7 0.6,1.1c0.3,0.8 0.7,1.5 0.9,2.3c0.5,1.5 1,3.1 1.4,4.7c0.7,3.2 1.3,6.4 1.7,9.6c0.4,3.2 0.6,6.5 0.6,9.7c0,1.6 -0.1,3.3 -0.4,4.9c-0.3,0.9 -0.8,1.6 -1.5,2.1c-0.6,0.5 -1.3,1 -2,1.5c-2.8,1.6 -5.9,2.9 -9,3.8c-3.1,0.9 -6.3,1.6 -9.5,2c-3.2,0.4 -6.5,0.5 -9.8,0.1c-1.6,-0.2 -3.3,-0.6 -4.8,-1.2c-1.6,-0.6 -3,-1.6 -4.1,-2.8l-0.1,-0.1v-0.2c0.8,-3.2 1.6,-6.4 2.6,-9.5c0.5,-1.6 1,-3.2 1.5,-4.7c0.3,-0.8 0.6,-1.6 0.9,-2.3c0.1,-0.4 0.3,-0.8 0.5,-1.1c0.2,-0.4 0.3,-0.8 0.8,-1c0.1,0.4 0,0.9 -0.2,1.2c-0.1,0.4 -0.3,0.8 -0.4,1.1c-0.3,0.8 -0.6,1.5 -0.8,2.3c-0.5,1.6 -1,3.1 -1.5,4.7c-0.9,3.1 -1.8,6.3 -2.6,9.5l-0.1,-0.4c1.1,1.1 2.4,2 3.8,2.6c1.5,0.6 3,1 4.6,1.2c3.2,0.4 6.4,0.3 9.6,-0.1c3.2,-0.4 6.3,-1.1 9.4,-2c3.1,-0.9 6,-2.1 8.8,-3.7c0.7,-0.4 1.3,-0.9 1.9,-1.4c0.6,-0.4 1,-1.1 1.3,-1.8c0.3,-1.6 0.4,-3.1 0.4,-4.7c0,-3.2 -0.2,-6.4 -0.6,-9.6c-0.9,-6.4 -2.1,-12.8 -4.9,-18.6z" id="Path" fill="#000000" stroke="none" stroke-width="1" stroke-linecap="butt"/><path d="M179.71093,242.43407c0,0 -4.2,-12.2 4.6,-22.3c10.8,-12.5 26.5,-13 29.2,-8.9" id="Path" fill="none" stroke="#000000" stroke-width="0.79" stroke-linecap="round"/></g></g><g id="JP_Neck"><g id="Group"><path d="M213.11093,141.93407c0.8,-5.6 38.2,-7 40.4,3.7c0.7,3.5 -2.9,27.4 -2.9,28c0,0 -0.1,2.7 -1.6,3.8c-3.1,2.2 -9.6,3.6 -15.1,3.1c-5.5,-0.5 -13.6,-1.1 -15.7,-4.3c-1.5,-2.2 -5.9,-28.8 -5.1,-34.3z" id="Path" fill="#ffedce" stroke="none" stroke-width="1" stroke-linecap="butt"/><path d="M217.41093,175.13407c-2.2,-8.3 -5.1,-27.2 -4.3,-32.8c0.8,-5.6 38.3,-7 40.4,3.7c0.7,3.5 -2.7,28 -2.9,28.5" id="Path" fill="none" stroke="#000000" stroke-width="0.79" stroke-linecap="round"/></g></g><g id="Group" stroke-linecap="butt"><g id="JP_Head"><g id="Group"><g id="Path" stroke="none" stroke-width="1"><path d="M219.81093,159.63407c-1.7,-1.9 -9.3,-7.7 -10.2,-9.4l-6.6,-41l1.8,-17c9.7,-7 24.7,-11.8 36.9,-10.8c14.9,1.2 15.8,21.7 16,30.5c0.2,8.8 0.1,18.8 0.3,27.6c0,0.4 7.7,4.4 7.3,13.1c-0.5,8.3 -10,12.4 -17.4,13.6c-13.4,2 -24.2,-2 -28.1,-6.6z" fill="#ffedce"/><path d="M201.21093,97.53407c-1.6,-3.1 -3,-6.4 -4.1,-9.8c0,0 3.5,2.9 5.5,4.9c3.9,-4.8 6.1,-8.6 9.7,-13.6c-1.7,5.5 -3,8.6 -3.7,10.4c0,0 20.5,-11 33.9,-8.2c0,0 6.1,1 9.2,6c1.2,3.6 -1.9,8.6 -1.9,8.6c-1.3,-1 -3.1,-4.5 -4.8,-7.5h-0.1c1,3.1 0.5,8.1 0.5,8.1c-2.1,0 -6.1,-3.4 -7.1,-6.9h-0.3c0,4.8 -2.4,8 -4.6,8.5c-0.7,-2.4 -1.3,-4.9 -1.7,-7.4l-0.3,0.2c-0.1,4.8 -1.7,8.2 -3.6,8.4c0,-2.4 -1.1,-7 -1.6,-7.5c0,0 -6.3,2.1 -4.2,12.9c0,0 -15.8,4.8 -18.6,4.6c-1,-3.4 -0.9,-4.4 -2.1,-7.6c-0.9,-2.4 -4.1,-3.7 -6.3,-4.5c2,-0.5 4.2,-0.3 6.2,0.4z" fill="#e88b24"/></g><path d="M265.51093,153.93407c-0.3,1.5 -0.9,2.9 -1.8,4.2c-3.6,5.1 -9.6,8 -15.8,7.8c2.9,-0.4 5.8,-1.3 8.5,-2.6c2.7,-1.2 5,-3.2 6.7,-5.6c0.8,-1.2 1.3,-2.6 1.6,-4c0.3,-1.5 0.3,-3 0,-4.4c-0.5,-2.9 -2,-5.5 -4.2,-7.5c-0.5,-0.5 -1.1,-1 -1.7,-1.4l-0.9,-0.7l-0.1,-0.1l-0.1,-0.1c-0.1,0 -0.1,-0.1 -0.1,-0.1l-0.1,-0.2v-0.8l-0.1,-4.5l-0.1,-9c0,-6 0,-12 -0.3,-18c-0.2,-3 -0.6,-6 -1.2,-8.9c-0.6,-2.9 -1.6,-5.7 -2.9,-8.4c-1.3,-2.6 -3.4,-4.9 -5.9,-6.4c-1.3,-0.8 -2.7,-1.3 -4.1,-1.5c-1.4,-0.2 -11.2,-1.1 -22,2.7c-2.8,1 -5.6,2.1 -8.3,3.4c-1.4,0.6 -2.7,1.3 -4,2.1c-0.7,0.4 -1.3,0.7 -2,1.1c-0.7,0.4 -1.2,0.8 -1.9,1.1c0.5,-0.5 1.2,-1 1.7,-1.5c0.5,-0.5 1.2,-0.9 1.8,-1.3c1.3,-0.8 2.6,-1.5 4,-2.2c2.7,-1.3 5.5,-2.5 8.4,-3.4c5.7,-1.9 11.7,-3 17.8,-3c1.6,0 3.1,0.1 4.6,0.3c1.6,0.3 3,0.8 4.4,1.6c2.7,1.5 4.8,3.8 6.2,6.6c1.4,2.7 2.4,5.6 3,8.6c0.6,3 1,6 1.2,9c0.3,6 0.3,12.1 0.3,18.1l0.1,9l0.1,4.5v0.7l0.9,0.7c0.7,0.5 1.2,1 1.8,1.5c2.4,2.1 3.9,4.9 4.5,8c0.3,1.5 0.3,3.1 0,4.6z" id="Path" fill="#000000" stroke="none" stroke-width="1"/><path d="M208.21093,141.13407c-0.4,-3.5 -5.2,-36.6 -7,-39.7c-1.3,-2.2 -4.1,-3.6 -6.3,-4.5c2.1,-0.3 4.3,-0.2 6.3,0.5c-1.7,-3.1 -3,-6.4 -4.1,-9.8c0,0 3.5,2.9 5.5,4.9c3.9,-4.8 6.1,-8.6 9.7,-13.6c-1.7,5.5 -3,8.7 -3.7,10.5" id="Path" fill="none" stroke="#000000" stroke-width="0.79"/><g id="Path"><path d="M226.11093,91.63407c-5.8,3.3 -4.9,9.1 -4.3,12.9c0,0 -15.8,4.8 -18.6,4.6" fill="none" stroke="#000000" stroke-width="0.79"/><path d="M252.51093,88.43407c0,0.4 0,0.8 0,1.2c-0.1,0.8 -0.2,1.5 -0.4,2.3c-0.2,0.7 -0.5,1.5 -0.8,2.2c-0.3,0.7 -0.6,1.4 -1,2.1l-0.2,0.4l-0.3,-0.3c-0.7,-0.6 -1.2,-1.3 -1.6,-2c-0.5,-0.7 -0.9,-1.4 -1.3,-2.1c-0.4,-0.7 -0.7,-1.4 -1.1,-2.1v0c0,0.1 0,0.1 0,0.1c0.2,0.7 0.2,1.4 0.3,2.1c0.1,0.7 0,1.5 0,2.2c0,0.8 0,1.5 -0.1,2.2v0.4h-0.4c-1,-0.1 -2.1,-0.5 -2.9,-1.2c-0.9,-0.6 -1.6,-1.2 -2.3,-2c-0.7,-0.7 -1.2,-1.6 -1.7,-2.5c-0.1,-0.1 -0.1,-0.3 -0.2,-0.4v0.1c0,1.1 -0.3,2.1 -0.6,3.1c-0.3,1 -0.8,2 -1.5,2.8c-0.7,0.9 -1.6,1.5 -2.7,1.8l-0.3,0.1l-0.1,-0.3c-0.3,-0.8 -0.5,-1.6 -0.7,-2.4c-0.2,-0.8 -0.3,-1.6 -0.5,-2.4c-0.1,-0.5 -0.2,-1.1 -0.3,-1.6c0,0.9 -0.1,1.8 -0.3,2.7c-0.2,1 -0.5,2 -1,2.9c-0.2,0.5 -0.5,0.9 -0.9,1.3c-0.4,0.4 -0.9,0.7 -1.5,0.8l-0.5,0.1v-0.5c0,-1.5 -0.2,-2.9 -0.5,-4.4c-0.1,-0.7 -0.3,-1.4 -0.6,-2.1c-0.3,-0.7 -0.7,-1.4 -1.1,-2c0.7,0.4 1.3,1 1.6,1.7c0.4,0.7 0.6,1.4 0.8,2.2c0.3,1.3 0.5,2.6 0.5,4c0.6,-0.3 1.1,-0.8 1.4,-1.5c0.5,-0.9 0.8,-1.8 1,-2.7c0.3,-1 0.4,-1.9 0.5,-2.9c0.1,-1 0.2,-1.9 0.3,-2.8c0,-0.1 0,-0.1 0,-0.2v0v0v0.1c0.2,0.7 0.5,1.4 0.6,2.2l0.5,2.4l0.6,2.4c0.2,0.6 0.4,1.3 0.6,1.9c0.7,-0.3 1.4,-0.8 1.9,-1.4c0.6,-0.7 1.1,-1.6 1.4,-2.5c0.4,-1 0.6,-1.9 0.7,-2.9c0.1,-1 0,-2 0.2,-3c0,0.2 0.1,0.3 0.1,0.4v-0.1c0.4,1 0.7,1.8 1.2,2.7c0.4,0.8 1,1.6 1.6,2.3c0.6,0.7 1.3,1.3 2.1,1.9c0.6,0.5 1.3,0.8 2.1,1c0.1,-1.3 0.1,-2.5 0.1,-3.8c0,-0.7 0,-1.4 -0.1,-2.1c-0.1,-0.7 -0.1,-1.4 -0.2,-2.1c0,-0.1 -0.1,-0.2 -0.1,-0.3c0.6,0.5 1.1,1.2 1.5,1.9l1.2,2c0.4,0.7 0.9,1.4 1.3,2c0.3,0.5 0.7,1 1.1,1.4c0.6,-1.2 1.1,-2.4 1.5,-3.7c0.2,-0.7 0.3,-1.5 0.4,-2.2c0,-0.4 0,-0.7 0,-1.1c-0.1,-0.3 -0.3,-0.6 0,-1.1c0.5,0.2 0.5,0.7 0.7,1.3z" fill="#000000" stroke="none" stroke-width="1"/></g></g><g id="Group" stroke="none" stroke-width="1"><path d="M241.71093,114.43407c0.2,0 0.3,0.1 0.6,0.5c0.2,0.3 0.4,0.5 0.7,0.7c0.3,0.3 0.7,0.4 1.1,0.5c0.4,0 0.8,-0.1 1.1,-0.3c0.3,-0.2 0.6,-0.5 0.8,-0.8c0.3,-0.4 0.4,-0.6 0.6,-0.6c0.2,0 0.2,0.2 0,0.7c-0.2,0.5 -0.5,0.8 -0.9,1.2c-0.2,0.2 -0.5,0.3 -0.7,0.4c-0.3,0.1 -0.7,0.1 -1,0.1c-0.6,0 -1.1,-0.3 -1.6,-0.7c-0.3,-0.3 -0.5,-0.6 -0.7,-1c-0.2,-0.4 -0.1,-0.6 0,-0.7z" id="Path" fill="#000104"/><path d="M241.41093,109.03407c0.2,-0.5 0.4,-0.9 0.8,-1.2c0.5,-0.5 1.1,-0.7 1.7,-0.8c0.3,0 0.7,0.1 1,0.2c0.3,0.1 0.5,0.3 0.7,0.5c0.4,0.4 0.6,0.9 0.7,1.4c0.1,0.6 0,0.9 -0.1,0.9c-0.1,0 -0.3,-0.2 -0.5,-0.7c-0.2,-0.4 -0.4,-0.7 -0.7,-1c-0.3,-0.3 -0.6,-0.4 -1,-0.4c-0.5,0 -0.9,0.2 -1.2,0.5c-0.3,0.3 -0.6,0.6 -0.8,0.9c-0.3,0.4 -0.5,0.6 -0.7,0.5c-0.1,-0.1 -0.2,-0.4 0.1,-0.8z" id="Path" fill="#000104"/><path d="M240.81093,103.73407c-0.3,-1.2 1.9,-2.4 2.9,-2.4c1.4,0 2.7,0.8 3.4,2c0.2,0.3 0.2,0.7 0,1c-0.6,0.5 -1.6,-0.5 -2.1,-0.7c-1,-0.5 -1.6,-0.2 -2.6,0.3c-0.3,0.2 -1.1,0.6 -1.4,0.2c-0.1,-0.2 -0.1,-0.3 -0.2,-0.4z" id="Path" fill="#000000"/></g><g id="Group" stroke="none" stroke-width="1"><path d="M232.71093,114.53407c0.2,-0.1 0.3,0.1 0.6,0.4c0.2,0.3 0.4,0.5 0.7,0.7c0.3,0.3 0.7,0.4 1.1,0.5c0.4,0 0.8,-0.1 1.1,-0.3c0.3,-0.2 0.6,-0.5 0.8,-0.8c0.3,-0.4 0.4,-0.6 0.6,-0.6c0.2,0 0.2,0.2 0,0.8c-0.3,0.7 -0.9,1.3 -1.6,1.6c-0.3,0.1 -0.7,0.2 -1,0.2c-0.6,0 -1.2,-0.3 -1.6,-0.7c-0.3,-0.3 -0.5,-0.6 -0.7,-1c-0.3,-0.6 -0.2,-0.8 0,-0.8z" id="Path" fill="#000104"/><path d="M232.51093,109.03407c0.2,-0.5 0.4,-0.9 0.8,-1.2c0.5,-0.5 1.1,-0.7 1.7,-0.8c0.3,0 0.7,0 1,0.2c0.2,0.1 0.4,0.3 0.6,0.5c0.3,0.4 0.6,0.9 0.7,1.4c0.1,0.6 0,0.9 -0.1,0.9c-0.1,0 -0.3,-0.2 -0.5,-0.7c-0.2,-0.4 -0.4,-0.7 -0.7,-1c-0.3,-0.3 -0.6,-0.4 -1,-0.4c-0.5,0 -0.9,0.2 -1.2,0.5c-0.3,0.3 -0.6,0.6 -0.8,0.9c-0.4,0.4 -0.5,0.6 -0.7,0.5c-0.2,0 -0.2,-0.3 0.2,-0.8z" id="Path" fill="#000104"/><path d="M231.81093,103.73407c-0.3,-1.2 1.9,-2.4 2.8,-2.4c1.4,0 2.7,0.8 3.4,2c0.2,0.3 0.2,0.7 0,1c-0.6,0.5 -1.6,-0.5 -2.1,-0.7c-1,-0.5 -1.7,-0.2 -2.6,0.3c-0.3,0.2 -1,0.6 -1.4,0.2c0,-0.1 -0.1,-0.2 -0.1,-0.4z" id="Path" fill="#000000"/></g><g id="Group" fill="#000000" stroke="none" stroke-width="1"><path d="M240.91093,120.53407c-0.3,0.1 -0.6,0.1 -0.9,-0.1c-0.2,-0.1 -0.4,-0.4 -0.5,-0.6c-0.2,-0.4 -0.3,-0.8 -0.4,-1.2c-0.1,-0.8 -0.2,-1.5 -0.2,-2.3c0,-0.8 0,-1.5 0.1,-2.3l0.1,-1.1c0,-0.4 0.2,-0.8 0.4,-1.1c0.3,0.3 0.4,0.7 0.4,1.1v3.3c0,0.7 0,1.5 0.1,2.2c0,0.3 0.1,0.7 0.2,1c0,0.1 0.1,0.2 0.2,0.3c0,0.1 0.1,0.1 0.2,0.1c0.2,0 0.4,0.1 0.4,0.4v0c0.1,0 0,0.2 -0.1,0.3z" id="Path"/><path d="M244.31093,123.63407c0.1,0.5 0.1,1.1 -0.1,1.6c-0.1,0.5 -0.4,1 -0.8,1.4c0.1,-0.5 0,-1 0.1,-1.5c0,-0.5 0.1,-1 0.3,-1.5c0,-0.1 0.2,-0.2 0.3,-0.1v0c0.2,0 0.2,0 0.2,0.1z" id="Path"/><path d="M241.71093,123.63407c0,0.6 -0.1,1.2 -0.3,1.8c-0.1,0.3 -0.3,0.6 -0.5,0.9c-0.3,0.3 -0.7,0.4 -1.1,0.4c-0.4,-0.1 -0.7,-0.2 -0.9,-0.5c-0.2,-0.2 -0.4,-0.5 -0.5,-0.8c-0.2,-0.6 -0.3,-1.1 -0.3,-1.7c0.2,0.5 0.5,1 0.8,1.5c0.2,0.4 0.6,0.7 1,0.8c0.2,0 0.3,-0.1 0.4,-0.2c0.1,-0.2 0.2,-0.4 0.3,-0.6c0.2,-0.5 0.3,-1 0.3,-1.5c0,-0.2 0.2,-0.4 0.5,-0.3c0.1,-0.2 0.2,0 0.3,0.2z" id="Path"/><path d="M245.51093,126.63407c0,-1.1 0.3,-2 0.3,-2.9c0.1,-0.9 -0.2,-1.8 -0.7,-2.6c-0.5,-0.7 -1.4,-1.1 -2.3,-1.1c-0.4,0 -0.9,0.1 -1.3,0.3c-0.2,0.1 -0.4,0.2 -0.6,0.3c-0.1,0 -0.2,0.1 -0.3,0.2c-0.2,0.1 -0.3,0.1 -0.5,0c-0.1,-0.2 -0.1,-0.4 0,-0.5c0.1,-0.1 0.2,-0.2 0.3,-0.3c0.2,-0.2 0.5,-0.3 0.7,-0.4c0.5,-0.2 1.1,-0.3 1.6,-0.3c1.1,0 2.2,0.5 2.9,1.5c0.6,0.9 0.9,2 0.8,3.1c0.1,0.9 -0.2,1.9 -0.9,2.7z" id="Path"/></g><g id="Group" fill="#000104" stroke="none" stroke-width="1"><path d="M215.21093,111.33407c1.1,-0.6 0.8,1.3 0.2,1.3c-1,0.2 -0.9,-0.9 -0.2,-1.3z" id="Path"/><path d="M210.61093,111.13407c1.1,-0.6 0.8,1.3 0.2,1.3c-1.1,0.1 -0.9,-1 -0.2,-1.3z" id="Path"/><path d="M213.21093,115.63407c1.1,-0.7 0.9,1.3 0.3,1.2c-1,-0.2 -0.8,-0.9 -0.3,-1.2z" id="Path"/></g><g id="Group" stroke="none" stroke-width="1"><path d="M203.21093,146.23407c-0.3,-2.4 1.1,-4.9 3.8,-5.2c2,-0.2 3.8,1.3 4.7,2.8c0,0 4.9,5.1 3,9.4c-1.9,4.3 -6.2,4.3 -7.3,2.1c-1.9,-3.6 0.7,-4.7 0.7,-4.7c-2.8,0.3 -4.6,-2 -4.9,-4.4z" id="Path" fill="#ffedce"/><g id="Path" fill="#000000"><path d="M208.51093,150.43407c-0.2,0.3 -0.4,0.5 -0.6,0.7c-0.2,0.2 -0.4,0.3 -0.6,0.6c-0.3,0.5 -0.4,1 -0.4,1.6c0,1.2 0.6,2.2 1.5,2.9c1,0.6 2.2,0.7 3.3,0.2c0.5,-0.2 1,-0.6 1.4,-1c0.4,-0.4 0.7,-0.9 1,-1.5c0.2,0.7 0,1.4 -0.5,2c-0.4,0.5 -1,1 -1.7,1.2c-1.3,0.6 -2.8,0.5 -4,-0.3c-1.2,-0.8 -1.8,-2.2 -1.8,-3.6c-0.1,-0.7 0.1,-1.4 0.5,-2c0.2,-0.3 0.5,-0.6 0.8,-0.8c0.4,-0.2 0.8,-0.2 1.1,0z"/><path d="M211.31093,143.63407c-0.4,-0.2 -0.8,-0.5 -1.1,-0.9c-0.3,-0.3 -0.7,-0.5 -1.1,-0.7c-0.8,-0.4 -1.7,-0.5 -2.5,-0.3c-1.7,0.6 -2.9,2.1 -2.9,3.9c0,0.9 0.2,1.8 0.6,2.6c0.4,0.8 1.1,1.3 1.9,1.7c1.2,0.5 2.6,0.4 3.7,-0.3c0.4,-0.3 0.7,-0.5 1.1,-0.8c0,0.6 -0.2,1.1 -0.6,1.4c-0.4,0.3 -0.9,0.6 -1.4,0.7c-1,0.2 -2,0.1 -3,-0.3c-1,-0.4 -1.8,-1.1 -2.3,-2c-0.5,-0.9 -0.8,-2 -0.7,-3c0,-2.1 1.5,-4 3.5,-4.7c1,-0.3 2.1,-0.1 3.1,0.3c0.5,0.2 0.9,0.6 1.2,0.9c0.3,0.5 0.5,1 0.5,1.5z"/></g></g><g id="JP_Mouth" fill="#000000" stroke="none" stroke-width="1"><g id="Group"><path d="M247.71093,141.93407c0.3,0.6 0.6,1.1 1,1.6c0.4,0.4 0.9,0.7 1.5,0.8h0.5l0.6,0.1c0.2,0 0.4,0.1 0.6,0.2c0.2,0.1 0.4,0.2 0.5,0.3c0.6,0.4 1.1,1.1 1.2,1.9c0.2,0.7 0.1,1.5 -0.1,2.2c-0.2,0.7 -0.7,1.3 -1.3,1.8c-0.6,0.4 -1.3,0.7 -2.1,0.7c-0.4,0 -0.7,0 -1.1,-0.1c-0.3,-0.1 -0.6,-0.3 -0.9,-0.6c0.3,-0.1 0.7,-0.1 1,-0.1c0.3,0 0.6,0 0.9,0c0.6,0 1.2,-0.2 1.7,-0.6c0.5,-0.3 0.8,-0.8 1,-1.4c0.2,-0.6 0.3,-1.2 0.1,-1.8c-0.1,-0.6 -0.4,-1.1 -0.9,-1.4c-0.1,-0.1 -0.2,-0.1 -0.4,-0.2c-0.1,-0.1 -0.3,-0.1 -0.4,-0.1l-0.4,-0.1h-0.5c-0.8,-0.1 -1.5,-0.4 -2,-1c-0.7,-0.7 -0.9,-1.5 -0.5,-2.2z" id="Path"/><path d="M252.01093,150.03407c1.2,0.3 2,1.3 2.2,2.5c0.1,1.2 -0.4,2.3 -1.3,3c-0.9,0.7 -2,1.1 -3.1,1c-1.1,0 -2.1,-0.5 -2.8,-1.4c0.9,0.4 1.9,0.6 2.8,0.6c0.9,0 1.8,-0.3 2.6,-0.9c0.7,-0.5 1.1,-1.4 1,-2.3c-0.1,-0.9 -0.8,-1.6 -1.6,-1.8z" id="Path"/><path d="M245.01093,142.33407c0.1,0.1 0.2,0.3 0.2,0.4l0.2,0.4c0.1,0.3 0.3,0.6 0.4,0.8c0.2,0.3 0.4,0.5 0.6,0.7c0.3,0.2 0.5,0.5 0.7,0.7c-0.4,0 -0.7,-0.1 -1,-0.4c-0.3,-0.2 -0.5,-0.5 -0.7,-0.8c-0.2,-0.3 -0.3,-0.7 -0.4,-1c0,-0.2 -0.1,-0.3 -0.1,-0.5c0,0 0,-0.2 0.1,-0.3z" id="Path"/></g></g></g></g></g></g></g></svg>