<svg version="1.1" xmlns="http://www.w3.org/2000/svg" xmlns:xlink="http://www.w3.org/1999/xlink" width="130.98906" height="223.89213" viewBox="0,0,130.98906,223.89213"><g transform="translate(-174.02344,-68.04726)"><g data-paper-data="{&quot;isPaintingLayer&quot;:true}" fill="none" fill-rule="evenodd" stroke="none" stroke-width="none" stroke-linecap="none" stroke-linejoin="miter" stroke-miterlimit="10" stroke-dasharray="" stroke-dashoffset="0" font-family="none" font-weight="none" font-size="none" text-anchor="none" style="mix-blend-mode: normal"><g data-paper-data="{&quot;index&quot;:null}" id="JP_Torso_Back"><path d="M252.93594,261.9c-2.8,0.2 -14,-0.4 -26.4,0.8c-12.2,1.1 -40,4.5 -38.6,2c5.1,-9.1 32.5,-18.7 44.4,-17.9c11.4,0.8 35.1,10.2 20.6,15.1z" id="Path" fill="#9f4727" stroke="none" stroke-width="1" stroke-linecap="butt"/><path d="M252.93594,262c-2.1,0.2 -10.8,0 -26.4,0.8c-12.2,0.6 -38.7,4.9 -38.6,2" id="Path" fill="none" stroke="#000000" stroke-width="0.82" stroke-linecap="round"/></g><g data-paper-data="{&quot;index&quot;:null}" id="JP_R_Leg"><path d="M218.83594,246.2c3.1,0.3 3.9,2.2 3.4,3.3c-2.7,5.5 -5.6,11.4 -6.5,17c-0.6,4.1 -8.7,3.1 -8.2,-0.3c0.5,-3.7 2.5,-7.9 5.6,-14.6c0,0 2.6,-5.7 5.7,-5.4z" id="Path" fill="#c9a663" stroke="#20221d" stroke-width="1" stroke-linecap="butt"/><g id="Group"><path d="M214.23594,265.8c2.2,2.9 3.9,9.3 5,12.5c-2.1,-1 -4.5,-1.7 -6.8,-0.9c-0.7,0.2 -1.4,0.6 -1.8,1.2c-0.9,-2.6 -3,-8.8 -3.5,-11.7c0.3,-0.6 0.8,-1.2 1.3,-1.7c2.2,-1.9 4.1,-1.7 5.8,0.6z" id="Path" fill="#c9a663" stroke="none" stroke-width="1" stroke-linecap="butt"/><g id="Path" fill="none"><path d="M215.53594,265.2c-0.5,4 2.6,10.2 3.7,13.3c0.4,0.9 1.3,3.2 1.8,4.6c0.9,4.7 -7.3,4.4 -9.5,-2.5c-0.7,-2.2 -4.9,-9.8 -3.9,-15.1" stroke="#000000" stroke-width="0.96" stroke-linecap="round"/><path d="M210.73594,278.5c3.7,-3 8.2,-0.4 8.5,-0.3" stroke="#000104" stroke-width="0.55" stroke-linecap="butt"/></g></g><path d="M200.93594,280c1.4,-0.9 3.2,-1.1 4.8,-0.6c1.2,0.3 4.3,1.1 5.6,1.4c-0.1,-0.3 -0.2,-0.5 -0.3,-0.8c-0.1,-0.5 -0.3,-0.9 -0.5,-1.4c0.5,-0.6 1.1,-1 1.8,-1.2c2.3,-0.8 5,-0.1 7.1,0.9l1.4,3.9c0.1,0.4 0.3,1.2 0.1,2.1c0.2,0.2 0.4,0.3 0.5,0.5c0.8,4.6 -3.5,5 -5.8,5.4c-4.2,0.7 -8.6,0 -12.4,-2c-1.5,-0.8 -2.8,-2.1 -3.5,-3.7c-0.5,-1.6 -0.1,-3.4 1.2,-4.5z" id="Path" fill="#231222" stroke="none" stroke-width="1" stroke-linecap="butt"/><path d="M221.43594,282.8c0.2,0.5 0.3,1 0.4,1.5c0.1,0.5 0.1,1.1 0.1,1.6c0,0.5 -0.1,1.1 -0.3,1.6c-0.2,0.6 -0.6,1.1 -1.1,1.4c-0.5,0.3 -1,0.5 -1.5,0.7c-1,0.3 -2,0.5 -3,0.7c-4.1,0.9 -8.4,0.3 -12.1,-1.5c-2,-0.9 -3.5,-2.6 -4.2,-4.6c-0.4,-1.1 -0.3,-2.3 0.2,-3.3c0.5,-1 1.5,-1.7 2.6,-2c1,-0.3 2.1,-0.3 3.2,-0.1c1,0.2 1.9,0.5 2.9,0.9c1.9,0.7 3.8,1.4 5.7,1.9c-2,-0.1 -4,-0.5 -5.9,-1.2c-1,-0.3 -1.9,-0.5 -2.9,-0.7c-1,-0.2 -1.9,-0.1 -2.8,0.1c-0.9,0.3 -1.6,0.8 -2,1.6c-0.4,0.8 -0.5,1.7 -0.2,2.6c0.6,1.8 2,3.2 3.7,4c3.6,1.7 7.6,2.2 11.5,1.4c1,-0.2 2,-0.4 2.9,-0.7c0.9,-0.2 1.6,-0.8 2,-1.6c0.3,-0.9 0.4,-1.8 0.2,-2.7c-0.1,-0.5 -0.2,-0.9 -0.3,-1.4c-0.1,-0.5 -0.2,-1 -0.1,-1.5c0.4,0.3 0.7,0.8 1,1.3z" id="Path" fill="#000000" stroke="none" stroke-width="1" stroke-linecap="butt"/></g><g data-paper-data="{&quot;index&quot;:null}" id="JP_L_Leg"><g id="Group" stroke-width="1" stroke-linecap="butt"><path d="M248.93594,248c5.1,-1.7 4.6,4.8 6.3,11.1c1.7,6.3 3,10.4 -1.2,11.3c-5.6,1.2 -5.8,-4.5 -7,-10.2c-1.4,-6.4 -3.5,-10.6 1.9,-12.2z" id="Path" fill="#c9a663" stroke="#20221d"/><path d="M249.23594,247.9c4.5,-1.1 5.1,5.4 7.4,15.9c-2.2,-0.4 -5.5,-0.4 -7.9,2.9c-2.2,-9.2 -5.6,-17.2 0.5,-18.8z" id="Path" fill="#000000" stroke="none"/></g><g id="Group"><path d="M257.23594,266.5c0.4,3.4 2.2,12.6 2.2,13.6c0,0 1.5,6.2 -2.9,6.9c-4.7,0.8 -4.8,-2.8 -5,-4.4c-0.1,-1.1 -2.1,-12.7 -2.7,-15.5c3.3,-2.7 8.2,-2.7 8.4,-0.6z" id="Path" fill="#c9a663" stroke="none" stroke-width="1" stroke-linecap="butt"/><g id="Path" fill="none" stroke="#000000" stroke-width="0.82" stroke-linecap="round"><path d="M256.63594,265.1c0.8,3.3 2.8,14.2 2.8,15.2c0,0 1.5,6.1 -2.9,6.9c-4.7,0.8 -4.8,-2.8 -5,-4.4c-0.1,-1.1 -2.3,-14 -3,-16.1"/><path d="M251.53594,280.9c3.7,-4.5 7.3,-3.5 7.3,-3.5"/></g></g><g id="Group" stroke="none" stroke-width="1" stroke-linecap="butt"><path d="M251.33594,281l0.2,-0.2c3.4,-4.1 6.9,-3.6 7.5,-3.5c0.2,1 0.3,1.8 0.4,2.3c1,-1.1 6,-6.2 9.3,-5.9c2.8,0.3 5.8,4.9 0.3,10.9c-6.5,7.1 -13.7,8.5 -15.7,4.9c-0.9,-1.6 -1.4,-3.3 -1.6,-5.1c0,-0.2 0,-0.4 0.1,-0.5c-0.1,-0.5 -0.1,-1 -0.2,-1.3c-0.1,-0.2 -0.2,-0.8 -0.3,-1.6z" id="Path" fill="#231222"/><path d="M262.33594,276.5c0.8,-0.7 1.7,-1.4 2.7,-2c1,-0.6 2.1,-1 3.2,-1.1c1.3,0 2.5,0.6 3.2,1.6c0.7,0.9 1.1,2.1 1.1,3.3c-0.2,2.3 -1.1,4.5 -2.7,6.2c-1.4,1.7 -3.1,3.2 -4.9,4.5c-1.8,1.3 -3.9,2.3 -6.1,2.8c-1.2,0.2 -2.4,0.2 -3.5,-0.1c-0.6,-0.2 -1.1,-0.5 -1.6,-0.9c-0.5,-0.4 -0.9,-0.9 -1.1,-1.5c-0.4,-1 -0.8,-2.1 -1,-3.2c-0.3,-1.1 -0.4,-2.3 -0.3,-3.4c0.1,-0.3 0.3,-0.4 0.5,-0.4c0.3,0.1 0.4,0.3 0.4,0.5c-0.1,1 -0.1,2.1 0.2,3.1c0.2,1.1 0.6,2.1 1,3.1c0.3,0.9 1.1,1.6 2.1,1.9c1,0.2 2.1,0.2 3.1,0c2.1,-0.5 4.1,-1.4 5.8,-2.7c1.8,-1.3 3.4,-2.8 4.8,-4.4c1.4,-1.5 2.3,-3.5 2.5,-5.6c0,-1 -0.3,-2 -0.9,-2.8c-0.6,-0.8 -1.5,-1.2 -2.5,-1.2c-1,0.2 -2,0.5 -2.9,1.1c-1,0.6 -1.9,1.2 -2.7,1.9c-1.7,1.3 -3.2,2.9 -5.1,4.1c1.2,-1.9 2.8,-3.5 4.7,-4.8z" id="Path" fill="#000000"/></g></g><g data-paper-data="{&quot;index&quot;:null}" id="JP_Torso" stroke-linecap="butt"><g id="Group"><path d="M260.53594,180c3.4,7.7 5.7,41.9 8,54c2.8,15 6.2,22.1 7.2,25.6c0.9,3.2 -31.1,4.8 -52.1,0.6c-30.7,-3.5 -35.6,4.9 -35.7,4.4c-0.8,-3.8 6.3,-12.1 9.2,-35.7c1.5,-12.4 4.1,-42.1 7.9,-46.4c4.9,-5.5 18.3,-11.1 31,-9.8c14.9,1.6 17.1,0.3 24.5,7.3z" id="Path" fill="#f2632e" stroke="none" stroke-width="1"/><path d="M231.63594,212c19.8,2.3 30.4,-0.5 33.9,-1.3c0.7,8.9 1.9,17.7 3.6,26.5c-6.8,0.4 -16.5,2.2 -40.4,-0.4c-19.1,-2.1 -29.5,0.8 -34.1,5.9c1.7,-5.9 3.3,-18.6 3.9,-26.1c5.8,-6 21.3,-5.8 33.1,-4.6z" id="Path" fill="#f0f5eb" stroke="none" stroke-width="1"/><g id="Path"><path d="M188.23594,264.8c-0.1,0.1 -0.3,0.2 -0.4,0.1v0c-0.2,-0.1 -0.3,-0.3 -0.2,-0.4c0.2,-0.5 0.5,-0.9 0.9,-1.2c0.3,-0.3 0.7,-0.6 1.1,-0.8c0.7,-0.5 1.6,-0.9 2.4,-1.2c1.7,-0.7 3.4,-1.2 5.2,-1.6c3.5,-0.8 7.1,-1.2 10.7,-1.2c3.5,-0.1 7.1,0.2 10.7,0.6c3.6,0.4 7.1,1.1 10.6,1.5c7.1,0.8 14.2,1.3 21.3,1.4c3.6,0.1 7.1,0 10.7,-0.1c3.6,-0.1 7.1,-0.4 10.6,-1c0.9,-0.1 1.7,-0.3 2.5,-0.6c0.3,-0.1 0.6,-0.3 0.8,-0.5l-0.1,-0.3l-0.2,-0.6c-0.5,-1.7 -1.1,-3.4 -1.7,-5.1c-1.2,-3.4 -2.2,-6.8 -3.1,-10.3c-0.9,-3.5 -1.8,-7 -2.4,-10.5c-0.6,-3.5 -1.1,-7 -1.5,-10.6l-2.4,-21.3c-0.4,-3.6 -0.9,-7.1 -1.4,-10.6c-0.2,-1.7 -0.6,-3.5 -0.9,-5.2c-0.2,-1.7 -0.7,-3.3 -1.4,-4.9c-0.1,-0.2 0,-0.5 0.2,-0.7c0.3,-0.1 0.6,-0.1 0.8,0.2c0.4,0.8 0.8,1.7 1,2.6c0.2,0.9 0.4,1.8 0.6,2.7c0.3,1.8 0.6,3.5 0.9,5.3c0.6,3.5 1,7 1.4,10.6l2.4,21.3c0.5,3.6 0.8,7.1 1.5,10.6c0.7,3.5 1.5,7 2.4,10.4c0.9,3.4 1.9,6.8 3,10.2c0.6,1.7 1.2,3.4 1.7,5.1l0.2,0.7l0.1,0.4c0,0.3 0,0.5 -0.1,0.7c-0.2,0.3 -0.4,0.5 -0.7,0.7c-0.2,0.1 -0.5,0.2 -0.7,0.3c-0.9,0.3 -1.8,0.5 -2.7,0.7c-3.5,0.6 -7.1,0.9 -10.7,1c-3.5,0.1 -7.1,0.2 -10.7,0.1c-7.1,-0.1 -14.3,-0.6 -21.4,-1.5c-3.6,-0.4 -7.1,-1.2 -10.6,-1.6c-3.5,-0.4 -7,-0.6 -10.6,-0.6c-3.5,0 -7,0.4 -10.5,1.1c-1.7,0.4 -3.4,0.9 -5,1.6c-0.9,0.4 -1.6,0.8 -2.4,1.2c-0.4,0.2 -0.8,0.4 -1.1,0.7c-0.3,0.2 -0.6,0.5 -0.8,0.8z" fill="#000000" stroke="none" stroke-width="1"/><path d="M205.23594,182.7c0.2,0.2 0.3,0.5 0.2,0.7c-1.5,3.1 -2.6,6.4 -3.1,9.8c-0.6,3.4 -1.1,6.9 -1.6,10.4c-0.9,6.9 -1.6,13.9 -2.4,20.9c-0.7,7 -2,14 -3.7,20.8c-0.8,3.4 -1.9,6.8 -3.1,10.1c-0.6,1.6 -1.2,3.3 -1.9,4.9c-0.3,0.8 -0.6,1.6 -0.9,2.4c-0.2,0.4 -0.2,0.8 -0.3,1.2c-0.1,0.4 -0.2,0.8 -0.4,1.2c-0.4,-0.4 -0.6,-0.9 -0.5,-1.4c0,-0.5 0.2,-1 0.3,-1.4c0.3,-0.9 0.6,-1.7 0.9,-2.5c0.7,-1.6 1.3,-3.3 1.9,-4.9c1.2,-3.3 2.2,-6.6 3.1,-10c1.7,-6.8 3,-13.7 3.7,-20.7c0.8,-7 1.4,-14 2.3,-21c0.4,-3.5 0.9,-7 1.6,-10.5c0.3,-1.8 0.7,-3.5 1.2,-5.2c0.3,-0.9 0.6,-1.8 0.9,-2.6c0.3,-0.9 0.7,-1.7 1.3,-2.4c0.1,-0.1 0.3,-0.1 0.5,0.2z" fill="#000000" stroke="none" stroke-width="1"/><path d="M198.63594,216.9c3.4,-5.9 21.9,-6.3 34.1,-4.8c19.8,2.4 32.8,-0.8 32.8,-0.8" fill="none" stroke="#000000" stroke-width="0.82"/><path d="M194.73594,242.5c6.1,-6.3 20.7,-7.2 35.1,-5.5c23.6,2.7 39.3,0.4 39.3,0.4" fill="none" stroke="#000000" stroke-width="0.82"/></g></g><g id="Group"><path d="M205.13594,182.8c3.6,-4.7 7.3,-10.6 12.9,-14.7c4.5,-3.3 14.6,-5.8 21.7,-3.9c9.7,2.6 21,16.1 21,16.1c-3.7,11.5 -14.7,24.6 -22.1,29.8c-15.5,-17 -31.6,-26.4 -33.5,-27.3z" id="Path" fill="#ffedce" stroke="none" stroke-width="1"/><path d="M260.83594,180.3c-5,15.4 -22.4,30.4 -22.4,30.4c-3.4,-5.7 -25.6,-24 -32.8,-27.9l6,-8.2c7.1,2.3 28,24.4 28,24.4c7.7,-6.4 15.8,-20.8 15.1,-24.7z" id="Path" fill="#f0f5eb" stroke="#20221d" stroke-width="1"/><path d="M205.13594,182.8c3.6,-4.7 7.3,-10.6 12.9,-14.7c4.5,-3.3 14.6,-5.8 21.7,-3.9c9.7,2.6 21,16.1 21,16.1c-3.7,11.5 -14.7,24.6 -22.1,29.8c-15.5,-17 -31.6,-26.4 -33.5,-27.3z" id="Path" fill="none" stroke="#000104" stroke-width="1.1"/></g></g><g data-paper-data="{&quot;index&quot;:null}" id="JP_Neck"><path d="M211.03594,135.8c0.8,-5.8 39.8,-7.3 42,3.9c0.7,3.6 -3,28.6 -3,29.2c0,0 -0.1,2.8 -1.7,3.9c-3.2,2.3 -10,3.8 -15.7,3.2c-5.6,-0.5 -14.1,-1.1 -16.4,-4.5c-1.5,-2.3 -6.1,-29.9 -5.2,-35.7z" id="Path" fill="#ffedce" stroke="none" stroke-width="1" stroke-linecap="butt"/><path d="M215.43594,170.4c-2.3,-8.7 -5.4,-28.4 -4.5,-34.2c0.9,-5.8 39.9,-7.3 42.1,3.9c0.8,3.6 -2.8,29.6 -3,30.1" id="Path" fill="none" stroke="#000000" stroke-width="0.82" stroke-linecap="round"/></g><g data-paper-data="{&quot;index&quot;:null}" id="JP_R_arm"><g id="Group" stroke-linecap="butt"><path d="M215.83594,196.8c0,0 -10.3,41.5 -16.6,45.9c-9.8,6.9 -22.7,-2.4 -24.1,-8.4c-0.9,-4.4 -0.5,-9 1.3,-13.2c2.4,-6.1 6.5,-11.2 10.4,-16.3c3.9,-5.1 15.7,-20.2 18.1,-21.5" id="Path" fill="#f2632e" stroke="none" stroke-width="1"/><path d="M209.83594,217.2c-0.6,3.5 -6.1,20.2 -10.6,25.6c-10.7,6.6 -22.7,-2.4 -24.1,-8.4c-0.9,-4.4 -0.5,-9 1.3,-13.2c2.4,-6.1 8.4,-13.4 12.3,-18.6c6,-1 17.1,4.3 20.4,12.5z" id="Path" fill="#f0f5eb" stroke="none" stroke-width="1"/><path d="M215.23594,198.6c0.2,0 0.2,0 0,0.2c-0.5,2.8 -1.1,5.6 -1.9,8.4c-0.7,2.8 -1.5,5.5 -2.3,8.3c-1.6,5.5 -3.4,10.9 -5.4,16.3c-1,2.7 -2.1,5.4 -3.5,7.9c-0.7,1.3 -1.6,2.5 -2.7,3.5c-0.6,0.4 -1.2,0.8 -1.9,1.1c-0.7,0.3 -1.4,0.5 -2.1,0.8c-2.8,0.8 -5.9,0.8 -8.7,-0.1c-2.8,-0.8 -5.4,-2.2 -7.7,-4.1c-1.1,-0.9 -2.1,-2 -3,-3.2c-0.4,-0.6 -0.8,-1.2 -1.1,-1.9l-0.4,-1.1c-0.1,-0.4 -0.1,-0.7 -0.2,-1.1c-0.5,-2.9 -0.4,-5.8 0.3,-8.7c1.3,-5.8 4.5,-10.8 7.9,-15.4c3.4,-4.6 6.9,-9.1 10.5,-13.6c1.8,-2.2 3.6,-4.4 5.5,-6.6c0.9,-1 1.8,-2.1 2.8,-3.2c0.5,-0.6 1,-1.1 1.5,-1.6c0.6,-0.6 1.2,-1.1 1.8,-1.5c0.2,-0.1 0.5,0 0.7,0.2v0c0.2,0.2 0.1,0.5 -0.1,0.7l-0.1,0.1c-0.5,0.4 -1,0.8 -1.5,1.3c-0.4,0.5 -0.9,1 -1.4,1.5c-0.9,1 -1.9,2.1 -2.8,3.2c-1.8,2.2 -3.6,4.4 -5.4,6.6c-3.5,4.5 -7,9.1 -10.4,13.6c-3.4,4.5 -6.5,9.4 -7.8,14.9c-0.7,2.7 -0.8,5.5 -0.3,8.3c0.1,0.3 0.1,0.7 0.2,1l0.3,0.9c0.3,0.7 0.6,1.2 1,1.8c0.8,1.1 1.7,2.1 2.8,3c2.1,1.8 4.6,3.2 7.3,4c2.7,0.8 5.5,0.9 8.2,0.1c0.6,-0.3 1.3,-0.4 1.9,-0.8c0.6,-0.4 1.2,-0.7 1.8,-1.1c1,-0.9 1.9,-2 2.5,-3.2c1.3,-2.5 2.5,-5.1 3.5,-7.8c2,-5.3 3.8,-10.7 5.4,-16.2c1.6,-5.5 3,-11.1 4.8,-16.5c0.1,0 0.1,0 0,0z" id="Path" fill="#000000" stroke="none" stroke-width="1"/><path d="M188.63594,202.5c6.1,-1 18.6,6 21.5,14.5" id="Path" fill="none" stroke="#000104" stroke-width="0.82"/></g><g id="Group" stroke="none" stroke-width="1" stroke-linecap="butt"><path d="M175.33594,230.2c1.5,-7 9.5,-18.9 25.2,-22.4c15.8,-3.8 20.7,5 20.6,5.6c1.2,1.7 2.6,17.8 -6.9,27.5c-10,10.1 -28.6,4.4 -28.1,5.7c-5,-1.7 -12.5,-7.9 -10.8,-16.4z" id="Path" fill="#f0f5eb"/><path d="M200.33594,207.5c4.8,-1.5 10.1,-1.8 14.9,0c2.4,0.9 4.5,2.6 5.9,4.8c1.2,2.2 1.7,4.8 1.5,7.4c-0.2,5 -1.4,10 -3.4,14.6c-0.9,2.4 -2.1,4.6 -3.5,6.7c-0.8,1.1 -1.7,2 -2.9,2.6c-1.1,0.6 -2.3,1.2 -3.5,1.6c-4.8,1.7 -9.8,2.6 -14.8,2.7c-2.5,0 -5,-0.1 -7.5,-0.6c-1.2,-0.3 -2.4,-0.7 -3.6,-1.2c-0.5,-0.3 -1.1,-0.6 -1.6,-1c-0.5,-0.4 -1,-0.8 -1.5,-1.2c-1.9,-1.6 -3.5,-3.7 -4.6,-6c-0.6,-1.1 -1,-2.3 -1.2,-3.6c-0.1,-0.6 -0.2,-1.3 -0.2,-1.9c0,-0.3 0,-0.7 0,-1c0,-0.2 0.1,-0.3 0.1,-0.5c0,-0.2 0.1,-0.4 0.3,-0.5c0.2,0.1 0.3,0.3 0.3,0.5c0.1,0.1 0.1,0.2 0.1,0.4l0.1,0.9c0,0.6 0.1,1.2 0.2,1.8c0.2,1.1 0.6,2.3 1.1,3.4c1,2.3 2.5,4.2 4.4,5.8c0.9,0.8 1.8,1.5 2.9,2.1c1.1,0.5 2.2,0.9 3.4,1.1c2.4,0.4 4.8,0.6 7.3,0.5c4.9,-0.1 9.8,-1 14.5,-2.6c1.1,-0.4 2.2,-0.9 3.3,-1.5c1,-0.5 1.9,-1.3 2.6,-2.3c1.4,-2 2.6,-4.2 3.5,-6.5c1.9,-4.5 3.1,-9.4 3.3,-14.3c0.2,-2.4 -0.3,-4.8 -1.4,-7c-1.3,-2 -3.2,-3.6 -5.5,-4.4c-4.6,-1.7 -9.7,-1.4 -14.4,0c-4.7,1.5 -9,3.9 -12.8,7.1c3.2,-4 7.9,-6.4 12.7,-7.9z" id="Path" fill="#000000"/></g><g id="Group"><path d="M228.33594,244.6c0,7.5 -32,18.8 -41.5,9.4c0.3,-2.3 0.7,-4.6 1.2,-6.9c-0.3,-0.4 -4,-9.6 2.1,-20.9c4.8,-9 18.9,-16.3 27.8,-14.8c6.4,-0.3 10.2,22 10.4,33.2z" id="Path" fill="#f2632e" stroke="none" stroke-width="1" stroke-linecap="butt"/><path d="M221.23594,212.8c0.3,0.3 0.5,0.7 0.7,1.1c0.4,0.7 0.8,1.5 1.1,2.3c0.6,1.6 1.2,3.2 1.7,4.8c1,3.3 1.8,6.6 2.4,9.9c0.7,3.4 1.1,6.7 1.3,10.1l0.1,1.3v1.3c0,0.9 -0.1,1.7 -0.2,2.6c-0.2,0.9 -0.7,1.7 -1.4,2.3c-0.6,0.7 -1.3,1.2 -2,1.7c-2.8,1.9 -5.9,3.4 -9.1,4.5c-3.2,1.2 -6.5,2.1 -9.8,2.7c-3.3,0.7 -6.7,0.9 -10.1,0.7c-1.8,-0.1 -3.5,-0.5 -5.1,-1c-1.7,-0.5 -3.2,-1.4 -4.5,-2.6l-0.1,-0.1v-0.2c0.6,-3.4 1.3,-6.8 2.1,-10.1c0.4,-1.7 0.8,-3.3 1.3,-5c0.3,-0.9 0.5,-1.7 0.8,-2.5c0.2,-0.4 0.3,-0.8 0.5,-1.2c0.2,-0.4 0.3,-0.8 0.8,-1.1c0.1,0.4 0.1,0.9 -0.1,1.3c-0.1,0.4 -0.3,0.8 -0.4,1.2c-0.2,0.8 -0.5,1.6 -0.7,2.4c-0.5,1.7 -0.9,3.3 -1.3,5c-0.8,3.3 -1.5,6.7 -2.1,10l-0.1,-0.4c1.2,1.1 2.6,1.9 4.2,2.4c1.6,0.5 3.3,0.8 4.9,0.9c3.3,0.2 6.6,0 9.9,-0.7c3.3,-0.7 6.6,-1.5 9.7,-2.7c3.1,-1.1 6.1,-2.6 8.9,-4.4c0.7,-0.5 1.3,-1 1.9,-1.6c0.6,-0.5 1,-1.2 1.2,-1.9c0.2,-1.6 0.2,-3.2 0.1,-4.9c-0.1,-3.4 -0.6,-6.7 -1.2,-10c-1.2,-6.6 -2.9,-13.2 -6.2,-19c0.4,0.2 0.8,0.5 0.8,0.9z" id="Path" fill="#000000" stroke="none" stroke-width="1" stroke-linecap="butt"/><path d="M188.03594,247.8c0,0 -5.1,-12.4 3.4,-23.5c10.4,-13.6 26.7,-15.2 29.8,-11.1" id="Path" fill="none" stroke="#000000" stroke-width="0.82" stroke-linecap="round"/></g></g><g data-paper-data="{&quot;index&quot;:null}" id="JP_L_arm"><g id="Group" stroke-linecap="butt"><path d="M260.93594,180.5c4.7,1.6 19.8,13.4 24.9,17.5c5.1,4.1 10.3,7.9 14.2,13.2c2.7,3.6 4.3,7.9 4.6,12.4c-0.5,10 -14.2,17.6 -21.2,14.3c-8.2,-3.9 -25.1,-40.2 -25.1,-40.2c0.4,-4.2 1.8,-13.4 2.6,-17.2z" id="Path" fill="#f2632e" stroke="none" stroke-width="1"/><path d="M267.13594,214.3c-0.1,-0.3 -0.2,-0.4 -0.2,-0.4l0.3,-0.3c1.1,-8.8 9.9,-16.9 15.9,-17.5c5.1,4 12.8,9.5 16.6,14.8c2.8,3.6 4.4,7.9 4.6,12.4c0.2,6.2 -9.2,17.9 -21.2,14.4c-5.6,-4 -14.4,-20.1 -16,-23.4z" id="Path" fill="#f0f5eb" stroke="none" stroke-width="1"/><path d="M260.23594,180.9c-0.2,-0.2 -0.3,-0.6 -0.2,-0.8c0.1,-0.3 0.4,-0.4 0.7,-0.2c5.1,2.9 9.9,6.1 14.6,9.6c4.7,3.4 9.3,7 13.8,10.6c4.5,3.6 9.1,7.5 12.1,12.6c1.5,2.5 2.5,5.4 3,8.3c0.1,0.7 0.2,1.5 0.2,2.2c0,0.8 -0.1,1.6 -0.3,2.3c-0.4,1.5 -1,2.8 -1.8,4.1c-1.6,2.6 -3.6,4.7 -6.1,6.4c-2.5,1.7 -5.4,2.7 -8.4,2.8c-1.5,0.1 -3,-0.1 -4.4,-0.6c-0.4,-0.1 -0.7,-0.2 -1.1,-0.4c-0.3,-0.2 -0.7,-0.4 -1,-0.6c-0.6,-0.4 -1.2,-0.9 -1.7,-1.5c-1.9,-2.2 -3.7,-4.5 -5.2,-7c-3.2,-4.9 -6,-10 -8.7,-15.1c-1.4,-2.6 -2.7,-5.2 -4,-7.8c-0.6,-1.3 -1.3,-2.6 -1.9,-3.9c-0.7,-1.3 -1.2,-2.7 -1.5,-4.1c0.9,1.1 1.6,2.4 2.2,3.7l1.9,3.9c1.3,2.6 2.6,5.1 4,7.7c2.7,5.1 5.6,10.1 8.7,15c1.6,2.4 3.3,4.8 5.2,6.9c0.8,1.1 2,1.9 3.3,2.3c1.3,0.4 2.7,0.6 4.1,0.6c2.8,-0.1 5.6,-1.1 7.9,-2.7c2.4,-1.6 4.4,-3.7 5.9,-6.1c0.7,-1.2 1.3,-2.4 1.7,-3.8c0.2,-0.7 0.3,-1.3 0.3,-2c0,-0.7 -0.1,-1.4 -0.2,-2.1c-0.4,-2.8 -1.4,-5.5 -2.9,-8c-2.9,-4.9 -7.4,-8.7 -11.9,-12.3c-9.1,-7.1 -18.2,-14.3 -28.3,-20c0.1,-0.1 0.1,-0.1 0,0z" id="Path" fill="#000000" stroke="none" stroke-width="1"/><path d="M267.13594,214.3c0.6,-9 9.8,-17.6 16,-18.2" id="Path" fill="none" stroke="#000104" stroke-width="0.82"/></g><g id="Group" stroke="none" stroke-width="1" stroke-linecap="butt"><path d="M297.03594,238.1c0.1,-1.3 -16.4,8.9 -28.6,1.7c-11.7,-6.9 -14.5,-22.8 -13.8,-24.8c-0.3,-0.6 2.2,-10.3 18.4,-10.7c16.1,-0.7 26.9,8.8 30.1,15.2c3.9,7.7 -1.9,15.6 -6.1,18.6z" id="Path" fill="#f0f5eb"/><path d="M304.63594,227c-0.5,2.5 -1.4,4.9 -2.9,7c-0.3,0.5 -0.7,1 -1.1,1.5c-0.4,0.5 -0.8,1 -1.3,1.4c-1,0.9 -2,1.5 -3.2,2.1c-2.2,1.1 -4.6,2 -7.1,2.5c-4.8,1.2 -9.9,1.6 -14.9,1.2c-1.3,-0.1 -2.6,-0.3 -3.8,-0.6c-1.3,-0.3 -2.5,-0.9 -3.5,-1.8c-1.9,-1.7 -3.6,-3.5 -5.1,-5.5c-3.1,-3.9 -5.5,-8.4 -7,-13.2c-0.8,-2.5 -1,-5.1 -0.4,-7.6c0.8,-2.5 2.4,-4.6 4.5,-6.1c4.2,-3 9.4,-4 14.4,-3.9c2.5,0.1 5.1,0.5 7.5,1.2c1.2,0.3 2.4,0.7 3.6,1.2c0.6,0.2 1.1,0.5 1.7,0.8c0.3,0.1 0.5,0.3 0.8,0.5c0.3,0.1 0.6,0.4 0.7,0.7c-0.3,0 -0.7,0 -1,-0.2c-0.2,-0.2 -0.5,-0.3 -0.8,-0.4c-0.6,-0.3 -1.1,-0.6 -1.7,-0.8c-1.2,-0.5 -2.3,-0.9 -3.5,-1.2c-2.4,-0.6 -4.8,-1 -7.3,-1.1c-4.9,-0.1 -10,0.9 -13.9,3.7c-2,1.4 -3.5,3.4 -4.2,5.7c-0.6,2.4 -0.4,4.8 0.4,7.1c1.5,4.7 3.8,9.1 6.9,13c1.5,2 3.2,3.8 5,5.4c0.9,0.8 2,1.3 3.1,1.6c1.2,0.3 2.4,0.5 3.6,0.6c4.9,0.4 9.9,0 14.7,-1.2c2.4,-0.5 4.8,-1.3 7,-2.4c1,-0.5 2.1,-1.2 3,-2c0.9,-0.8 1.6,-1.8 2.3,-2.8c1.4,-2 2.4,-4.3 2.8,-6.7c0.2,-1.2 0.3,-2.4 0.2,-3.6c0,-0.6 0,-1.2 -0.1,-1.8c-0.1,-0.6 -0.1,-1.3 -0.1,-1.9c1.1,2.3 1.4,5 0.7,7.6z" id="Path" fill="#000000"/></g><g id="Group"><path d="M257.13594,212.1c8.2,-3.7 23.7,-0.3 30.7,7.2c8.8,9.4 7.6,19.2 7.4,19.7c1.1,2.1 2.1,4.2 2.9,6.4c-6.8,11.5 -41.3,8.1 -42.6,1.5c-1.9,-10.6 -4.6,-33.3 1.6,-34.8z" id="Path" fill="#f2632e" stroke="none" stroke-width="1" stroke-linecap="butt"/><path d="M254.03594,233.1c0.2,3.4 0.6,6.7 1.3,10c0.3,1.7 0.8,3.3 1.4,4.8c0.3,0.6 0.9,1.2 1.6,1.5c0.7,0.4 1.4,0.7 2.2,1c3.2,1.1 6.5,1.7 9.8,2c3.3,0.3 6.7,0.4 10,0.1c3.3,-0.2 6.6,-0.9 9.8,-1.9c1.5,-0.5 3,-1.2 4.4,-2.1c1.4,-0.8 2.5,-2 3.4,-3.4v0.4c-1.5,-3.1 -3,-6.2 -4.6,-9.2c-0.8,-1.5 -1.6,-3 -2.5,-4.5c-0.4,-0.8 -0.8,-1.5 -1.3,-2.2c-0.3,-0.4 -0.5,-0.7 -0.7,-1.1c-0.2,-0.3 -0.4,-0.7 -0.4,-1.2c0.5,0.1 0.7,0.4 1,0.8c0.3,0.4 0.6,0.7 0.8,1.1c0.4,0.7 0.9,1.5 1.3,2.2c0.9,1.5 1.7,3 2.5,4.5c1.6,3 3.1,6.1 4.6,9.2l0.1,0.2l-0.1,0.2c-1,1.5 -2.2,2.8 -3.7,3.7c-1.4,0.9 -3,1.7 -4.6,2.2c-3.3,1 -6.6,1.6 -10,1.8c-3.4,0.3 -6.8,0.2 -10.2,-0.1c-3.4,-0.3 -6.8,-0.9 -10,-2c-0.9,-0.3 -1.6,-0.7 -2.4,-1.1c-0.8,-0.4 -1.5,-1.1 -2,-1.9c-0.3,-0.7 -0.6,-1.6 -0.8,-2.4l-0.3,-1.2l-0.3,-1.2c-0.7,-3.4 -1.2,-6.7 -1.4,-10.1c-0.3,-3.3 -0.3,-6.7 -0.2,-10.1c0,-1.7 0.2,-3.4 0.4,-5.1c0.1,-0.8 0.3,-1.7 0.5,-2.5c0.1,-0.4 0.2,-0.8 0.4,-1.2c0.2,-0.4 0.5,-0.7 0.9,-1c-1.7,6.5 -1.6,13.3 -0.9,19.8z" id="Path" fill="#000000" stroke="none" stroke-width="1" stroke-linecap="butt"/><path d="M254.43594,214.8c1.9,-4.7 18.1,-7.4 31.7,3c11.1,8.5 9.3,21.9 9.3,21.9" id="Path" fill="none" stroke="#000000" stroke-width="0.82" stroke-linecap="round"/></g></g><g data-paper-data="{&quot;index&quot;:null}" id="Group" stroke-linecap="butt"><g id="JP_Head"><g id="Group"><g id="Path" stroke="none" stroke-width="1"><path d="M217.83594,154.2c-1.7,-2 -9.7,-8 -10.6,-9.8l-6.8,-42.6l1.8,-17.8c10.1,-7.3 25.7,-12.3 38.4,-11.3c15.5,1.3 16.5,22.6 16.7,31.8c0.2,9.2 0.1,19.6 0.3,28.8c0,0.4 8.1,4.5 7.6,13.6c-0.4,8.7 -10.4,13 -18.1,14.2c-13.9,2.1 -25.1,-2 -29.3,-6.9z" fill="#ffedce"/><path d="M198.53594,89.5c-1.7,-3.3 -3.2,-6.7 -4.3,-10.2c0,0 3.6,3 5.8,5.1c4,-5 6.4,-8.9 10.1,-14.1c-1.7,5.7 -3.1,9 -3.8,10.9c0,0 21.4,-11.4 35.4,-8.5c0,0 6.4,1 9.6,6.2c1.3,3.7 -2,9 -2,9c-1.3,-1 -3.2,-4.6 -5,-7.8h-0.1c1.1,3.3 0.5,8.4 0.5,8.4c-2.2,0 -6.3,-3.6 -7.4,-7.2h-0.3c0,5 -2.5,8.3 -4.8,8.9c-0.8,-2.5 -1.4,-5.1 -1.8,-7.7h-0.3c-0.1,5 -1.8,8.5 -3.8,8.8c0,-2.5 -1.1,-7.3 -1.7,-7.8c0,0 -6.6,2.2 -4.4,13.4c0,0 -16.4,5 -19.4,4.8c-1.1,-3.6 -0.9,-4.6 -2.2,-7.9c-0.9,-2.5 -4.3,-3.8 -6.6,-4.7c2.1,-0.5 4.4,-0.3 6.5,0.4z" fill="#e88b24"/></g><path d="M204.03594,82.2c0.6,-0.5 1.2,-0.9 1.9,-1.4c1.4,-0.7 2.8,-1.5 4.2,-2.2c2.9,-1.3 5.8,-2.5 8.8,-3.5c6,-2 12.3,-3.1 18.6,-3.1c0.8,0 1.6,0.1 2.4,0.1c0.8,0 1.6,0.1 2.4,0.2c1.6,0.3 3.1,0.8 4.5,1.6c2.7,1.7 5,4.1 6.4,7c1.5,2.8 2.5,5.9 3.1,9c0.6,3.1 1,6.3 1.2,9.4c0.3,6.3 0.3,12.5 0.3,18.8l0.1,9.4l0.1,4.7v0.9l-0.1,-0.2l0.1,0.1l0.9,0.5c0.6,0.5 1.2,1 1.8,1.6c2.5,2.2 4.1,5.1 4.7,8.3c0.3,1.6 0.3,3.2 0,4.8c-0.3,1.6 -0.9,3.1 -1.8,4.5c-3.8,5.3 -10,8.3 -16.5,8.1c3.1,-0.5 6.1,-1.4 8.9,-2.7c2.8,-1.3 5.2,-3.3 7,-5.8c0.8,-1.3 1.4,-2.7 1.7,-4.2c0.3,-1.5 0.3,-3 0,-4.5c-0.6,-3 -2.1,-5.7 -4.4,-7.8c-0.6,-0.5 -1.2,-1 -1.8,-1.5l-0.9,-0.7l-0.1,-0.1l-0.1,-0.1l-0.1,-0.1c-0.1,0 -0.1,-0.3 -0.1,-0.2v-0.9l-0.1,-4.7l-0.1,-9.4c0,-6.3 0,-12.5 -0.4,-18.9c-0.2,-3.1 -0.6,-6.1 -1.2,-9.2c-0.6,-3.1 -1.6,-6 -3,-8.8c-1.3,-2.7 -3.5,-5 -6.1,-6.6c-1.3,-0.7 -2.8,-1.2 -4.3,-1.5c-1.5,-0.2 -3.1,-0.3 -4.6,-0.3c-6.2,0.1 -12.4,1.1 -18.3,3.1c-2.9,1 -5.8,2.1 -8.6,3.5c-1.4,0.7 -2.8,1.4 -4.1,2.2c-0.7,0.4 -1.4,0.8 -2.1,1.1c-0.7,0.3 -1.4,0.7 -2.1,1.1c0.6,-0.5 1.2,-1.1 1.8,-1.6z" id="Path" fill="#000000" stroke="none" stroke-width="1"/><path d="M205.73594,135.1c-0.4,-3.7 -5.4,-38.2 -7.3,-41.4c-1.4,-2.3 -4.3,-3.8 -6.6,-4.7c2.2,-0.4 4.5,-0.2 6.6,0.5c-1.7,-3.3 -3.2,-6.7 -4.3,-10.2c0,0 3.7,3 5.8,5.1c4.1,-4.9 6.4,-8.9 10.1,-14.1c-1.7,5.7 -3.1,9 -3.8,10.9" id="Path" fill="none" stroke="#000000" stroke-width="0.82"/><g id="Path"><path d="M224.53594,83.5c-6,3.4 -5.1,9.4 -4.5,13.4c0,0 -16.4,5 -19.4,4.8" fill="none" stroke="#000000" stroke-width="0.82"/><path d="M225.23594,84.2c0.4,0.7 0.7,1.5 0.8,2.3c0.3,1.4 0.5,2.8 0.5,4.2c0.7,-0.3 1.2,-0.9 1.5,-1.5c0.5,-0.9 0.8,-1.8 1,-2.8c0.2,-1 0.4,-2 0.5,-3c0.1,-1 0.2,-2.1 0.3,-3.1c0,0 0,0.1 0,0.2c0,-0.1 0,-0.1 0,-0.2c0.3,0.8 0.6,1.6 0.8,2.4l0.6,2.5l0.6,2.5c0.2,0.7 0.4,1.3 0.6,2c0.8,-0.3 1.5,-0.8 2,-1.5c0.6,-0.8 1.1,-1.7 1.5,-2.6c0.3,-1 0.6,-2 0.7,-3c0.1,-1 0,-2 0.3,-3.1c0,0.1 0.1,0.3 0.1,0.5c0.3,0.9 0.7,1.7 1.1,2.5c0.5,0.9 1,1.7 1.7,2.4c0.7,0.7 1.4,1.4 2.2,2c0.6,0.5 1.4,0.9 2.2,1c0.1,-1.3 0.2,-2.6 0.1,-3.9c0,-0.7 -0.1,-1.5 -0.2,-2.2c-0.1,-0.7 -0.2,-1.4 -0.2,-2.1c0,-0.1 -0.1,-0.2 -0.1,-0.3c0.6,0.6 1.1,1.3 1.5,2l1.3,2.1c0.4,0.7 0.9,1.4 1.3,2.1c0.3,0.5 0.7,1 1.2,1.5c0.7,-1.2 1.2,-2.5 1.6,-3.8c0.2,-0.7 0.4,-1.5 0.4,-2.3c0,-0.4 0,-0.8 0,-1.1c0,-0.4 -0.2,-0.7 0.1,-1.2c0.6,0.2 0.5,0.7 0.7,1.1c0,0.4 0,0.8 0,1.2c0,0.8 -0.2,1.6 -0.4,2.4c-0.2,0.8 -0.5,1.6 -0.8,2.3c-0.3,0.8 -0.7,1.5 -1.1,2.2l-0.2,0.4l-0.4,-0.3c-0.6,-0.6 -1.2,-1.3 -1.7,-2c-0.5,-0.7 -0.9,-1.4 -1.3,-2.2c-0.4,-0.7 -0.8,-1.5 -1.2,-2.2c0,-0.1 -0.1,-0.1 -0.1,-0.2c0,0.1 0,0.1 0,0.2c0.2,0.9 0.3,1.7 0.3,2.4c0,0.8 0,1.5 0,2.2c0,0.8 -0.1,1.5 -0.1,2.3v0.4h-0.4c-1.1,-0.1 -2.1,-0.6 -3,-1.2c-0.9,-0.6 -1.7,-1.3 -2.4,-2.1c-0.7,-0.8 -1.3,-1.7 -1.8,-2.6c-0.1,-0.1 -0.1,-0.2 -0.1,-0.3c-0.1,1.1 -0.3,2.2 -0.6,3.2c-0.4,1 -0.9,2 -1.6,2.9c-0.7,0.9 -1.7,1.6 -2.8,1.9l-0.4,0.1l-0.1,-0.3c-0.3,-0.8 -0.5,-1.6 -0.7,-2.5c-0.2,-0.8 -0.4,-1.7 -0.5,-2.5c-0.1,-0.6 -0.2,-1.2 -0.3,-1.9c0,1 -0.1,2 -0.4,3.1c-0.2,1 -0.6,2.1 -1.1,3c-0.3,0.5 -0.6,0.9 -1,1.3c-0.4,0.4 -1,0.7 -1.6,0.8l-0.5,0.1v-0.5c0,-1.6 -0.2,-3.1 -0.5,-4.6c-0.2,-0.7 -0.4,-1.5 -0.7,-2.2c-0.3,-0.7 -0.6,-1.4 -1,-2.1c0.9,0.3 1.5,0.9 1.8,1.7z" fill="#000000" stroke="none" stroke-width="1"/></g></g><g id="Group" stroke="none" stroke-width="1"><path d="M233.43594,110.3c-1,-0.1 -1.4,-1.2 -1.4,-2.3c0,-0.9 0.3,-2.1 1.2,-2c0.9,0.1 1.2,1.3 1.1,2.4c0.2,0.8 -0.2,2 -0.9,1.9z" id="Path" fill="#000000"/><path d="M236.63594,103c-0.2,0.1 -0.4,-0.1 -0.8,-0.5c-0.3,-0.3 -0.6,-0.6 -1,-0.8c-0.4,-0.3 -0.9,-0.4 -1.4,-0.5c-0.4,0 -0.8,0.2 -1.1,0.6c-0.3,0.3 -0.5,0.7 -0.7,1.2c-0.2,0.5 -0.3,0.8 -0.5,0.8c-0.2,0 -0.3,-0.3 -0.2,-1c0.1,-0.6 0.3,-1.1 0.6,-1.6c0.2,-0.2 0.4,-0.4 0.7,-0.6c0.3,-0.2 0.7,-0.3 1.1,-0.3c0.7,0 1.4,0.2 2,0.7c0.4,0.3 0.8,0.7 1.1,1.2c0.4,0.4 0.3,0.7 0.2,0.8z" id="Path" fill="#000104"/><path d="M236.73594,96.4c-0.4,0.5 -1.2,-0.1 -1.6,-0.3c-1.1,-0.6 -1.9,-1.1 -3.1,-0.6c-0.6,0.3 -1.9,1.3 -2.6,0.6c-0.2,-0.3 -0.2,-0.8 0,-1.1c1,-1.3 2.6,-2 4.2,-1.9c1.1,0.1 3.7,1.7 3.3,3c0,0.2 -0.1,0.3 -0.2,0.3z" id="Path" fill="#000000"/></g><g id="Group" stroke="none" stroke-width="1"><path d="M241.33594,109.8c-0.8,-0.1 -1.2,-0.9 -1.2,-1.8c0,-0.9 0,-2.2 1.1,-2.3c1.1,-0.1 1.3,1.1 1.2,2.1c-0.1,0.7 0.4,2 -1.1,2z" id="Path" fill="#000000"/><path d="M239.53594,103c-0.2,-0.1 -0.2,-0.4 0,-1c0.2,-0.5 0.5,-0.9 0.9,-1.3c0.2,-0.2 0.5,-0.4 0.8,-0.5c0.4,-0.1 0.8,-0.2 1.2,-0.1c0.6,0.1 1.2,0.4 1.7,0.8c0.4,0.3 0.8,0.8 1,1.2c0.3,0.6 0.2,0.9 0.1,1c-0.1,0.1 -0.3,-0.1 -0.7,-0.5c-0.3,-0.3 -0.6,-0.6 -1,-0.9c-0.4,-0.3 -0.8,-0.5 -1.3,-0.6c-0.5,-0.1 -0.9,0.1 -1.3,0.4c-0.3,0.3 -0.6,0.6 -0.8,0.9c-0.2,0.5 -0.4,0.7 -0.6,0.6z" id="Path" fill="#000104"/><path d="M245.83594,96.2c-0.4,0.4 -1.2,-0.2 -1.5,-0.4c-0.8,-0.7 -2,-0.8 -2.9,-0.3c-0.6,0.3 -1.7,1.3 -2.4,0.8c-0.3,-0.3 -0.4,-0.7 -0.2,-1.1c0.5,-1.5 2.7,-2.2 4,-2.2c1.1,0.1 3.7,1.6 3.2,2.9c0,0.2 -0.1,0.3 -0.2,0.3z" id="Path" fill="#000000"/></g><g id="Group" fill="#000000" stroke="none" stroke-width="1"><path d="M240.13594,112.8c0.1,0.2 0,0.4 -0.2,0.5c-0.3,0.1 -0.6,0.1 -0.9,-0.1c-0.2,-0.1 -0.4,-0.3 -0.5,-0.6c-0.2,-0.3 -0.3,-0.8 -0.4,-1.2c-0.1,-0.8 -0.2,-1.6 -0.2,-2.4c0,-0.8 0,-1.6 0.1,-2.4l0.1,-1.2c0,-0.4 0.2,-0.8 0.5,-1.1c0.3,0.3 0.4,0.8 0.4,1.2v3.5c0,0.8 0,1.6 0.1,2.3c0,0.3 0.1,0.7 0.2,1c0,0.1 0.1,0.2 0.2,0.3c0.1,0.1 0.1,0.1 0.2,0.1c0.2,0 0.4,0.1 0.4,0.1z" id="Path"/><path d="M243.23594,116.5c0.1,0 0.3,0.1 0.3,0.2c0.1,0.5 0.1,1.1 -0.1,1.6c-0.1,0.6 -0.4,1.1 -0.8,1.5c0.1,-0.6 0.1,-1.1 0.1,-1.6c0,-0.5 0.1,-1 0.3,-1.5c0,-0.1 0.1,-0.1 0.2,-0.2z" id="Path"/><path d="M240.63594,116.3c0.3,0 0.4,0.2 0.4,0.4c0,0.7 -0.1,1.3 -0.3,1.9c-0.2,0.3 -0.4,0.6 -0.6,0.9c-0.3,0.3 -0.8,0.4 -1.2,0.4c-0.4,0 -0.7,-0.2 -1,-0.5c-0.3,-0.2 -0.5,-0.5 -0.6,-0.8c-0.2,-0.6 -0.3,-1.2 -0.3,-1.8c0.2,0.5 0.5,1 0.8,1.5c0.2,0.4 0.6,0.7 1.1,0.8c0.1,0 0.3,-0.1 0.4,-0.2c0.1,-0.2 0.2,-0.4 0.3,-0.6c0.1,-0.5 0.2,-1.1 0.3,-1.6c0,-0.3 0.4,-0.4 0.7,-0.4z" id="Path"/><path d="M244.93594,116.8c0.1,-0.9 -0.2,-1.9 -0.7,-2.7c-0.5,-0.7 -1.4,-1.1 -2.3,-1.1c-0.5,0 -0.9,0.1 -1.5,0.3c-0.2,0 -0.4,0.2 -0.6,0.3c-0.1,0.1 -0.2,0.1 -0.3,0.2c-0.2,0.1 -0.3,0.1 -0.5,0c-0.1,-0.1 -0.1,-0.3 0,-0.5c0.1,-0.1 0.2,-0.2 0.3,-0.3c0.3,-0.2 0.5,-0.4 0.8,-0.5c0.5,-0.2 1.1,-0.3 1.7,-0.3c1.2,0 2.3,0.5 3,1.5c0.7,0.9 1,2.1 0.9,3.2c0,1.1 -0.4,2.2 -1.1,3c0.1,-1.1 0.3,-2 0.3,-3.1z" id="Path"/></g><g id="Group" fill="#000104" stroke="none" stroke-width="1"><path d="M213.13594,103.9c1.2,-0.6 0.9,1.3 0.2,1.4c-1.1,0.2 -0.9,-1 -0.2,-1.4z" id="Path"/><path d="M208.23594,103.7c1.2,-0.6 0.9,1.3 0.2,1.4c-1,0.1 -0.8,-1 -0.2,-1.4z" id="Path"/><path d="M211.03594,108.4c1.1,-0.7 1,1.3 0.3,1.3c-1.1,-0.2 -0.7,-1 -0.3,-1.3z" id="Path"/></g><g id="Group" stroke="none" stroke-width="1"><path d="M200.73594,140.2c-0.3,-2.5 1.1,-5.1 3.9,-5.4c2.1,-0.2 4,1.4 4.9,2.9c0,0 5.1,5.3 3.1,9.8c-2,4.5 -6.5,4.5 -7.6,2.2c-1.9,-3.8 0.7,-4.9 0.7,-4.9c-2.9,0.4 -4.8,-2 -5,-4.6z" id="Path" fill="#ffedce"/><g id="Path" fill="#000000"><path d="M205.53594,145.4c-0.3,0.2 -0.4,0.4 -0.6,0.6c-0.3,0.5 -0.4,1 -0.4,1.6c0,1.2 0.6,2.3 1.6,3c1,0.6 2.3,0.7 3.4,0.2c0.5,-0.2 1,-0.6 1.4,-1c0.4,-0.4 0.8,-0.9 1.1,-1.5c0.1,0.7 -0.1,1.4 -0.5,2c-0.4,0.6 -1,1 -1.7,1.3c-1.4,0.5 -2.9,0.4 -4.2,-0.3c-1.2,-0.9 -1.9,-2.2 -1.9,-3.7c-0.1,-0.7 0.1,-1.5 0.5,-2.1c0.2,-0.3 0.5,-0.6 0.8,-0.8c0.1,-0.1 0.3,-0.2 0.5,-0.2c0.2,0 0.5,0 0.6,0.2c-0.1,0.3 -0.3,0.5 -0.6,0.7z"/><path d="M208.03594,136.7c-0.3,-0.3 -0.7,-0.6 -1.1,-0.8c-0.8,-0.4 -1.7,-0.5 -2.6,-0.3c-1.8,0.6 -3,2.2 -3,4.1c-0.1,0.9 0.2,1.8 0.6,2.6c0.5,0.8 1.2,1.5 2,1.8c0.9,0.3 1.8,0.4 2.7,0.2c0.4,-0.1 0.8,-0.3 1.2,-0.5c0.4,-0.3 0.8,-0.6 1.1,-0.9c0,0.6 -0.3,1.1 -0.7,1.5c-0.4,0.3 -1,0.6 -1.5,0.7c-1.1,0.2 -2.2,0.1 -3.2,-0.3c-1,-0.4 -1.9,-1.2 -2.4,-2.1c-0.5,-1 -0.8,-2 -0.7,-3.1c0,-2.2 1.5,-4.1 3.6,-4.8c1.1,-0.3 2.2,-0.2 3.2,0.3c0.5,0.2 0.9,0.6 1.3,1c0.4,0.4 0.6,0.9 0.6,1.5c-0.5,-0.3 -0.9,-0.6 -1.1,-0.9z"/></g></g></g><g id="JP_Mouth"><path d="M245.33594,154.6c-2.8,0.5 -5.8,0.7 -8.7,0.6c-4,-0.2 -8,-1.1 -11.6,-2.8c-2.9,-1.4 -5.8,-3.5 -6.1,-7c-0.4,-4.3 3.5,-8.3 7.8,-8.4c2.8,-0.1 5.4,1.3 8,2.3c2.7,1.1 5.5,2.1 8.4,2.8c2.9,0.7 9.2,0.1 10.8,0.4c0.3,0 0.6,0.1 0.8,0.2c2,0.8 3,3 2.2,5c-0.4,1.1 -1.1,2.1 -2.1,2.9c-2.6,2.2 -6.2,3.4 -9.5,4z" id="Path" fill="#f0f5eb" stroke="#ffffff" stroke-width="0.14"/><path d="M245.33594,154.6c-2.8,0.5 -5.8,0.7 -8.7,0.6c-4,-0.2 -8,-1.1 -11.6,-2.8c-2.9,-1.4 -5.8,-3.5 -6.1,-7c-0.4,-4.3 3.5,-8.3 7.8,-8.4c2.8,-0.1 5.4,1.3 8,2.3c2.7,1.1 5.5,2.1 8.4,2.8c2.9,0.7 9.2,0.1 10.8,0.4c0.3,0 0.6,0.1 0.8,0.2c2,0.8 3,3 2.2,5c-0.4,1.1 -1.1,2.1 -2.1,2.9c-2.6,2.2 -6.2,3.4 -9.5,4z" id="Path" fill="none" stroke="#000104" stroke-width="1.1"/><path d="M231.43594,138c-0.8,3.9 -4.1,12.7 -5.6,14.5" id="Path" fill="none" stroke="#000104" stroke-width="0.41"/><path d="M243.13594,142.2c-0.4,4 -4.1,11.4 -5.6,13.2" id="Path" fill="none" stroke="#000104" stroke-width="0.41"/><path d="M252.63594,142.1c-0.2,4.1 -2.5,10.7 -3.6,12" id="Path" fill="none" stroke="#000104" stroke-width="0.41"/></g></g></g></g></svg>