<svg version="1.1" xmlns="http://www.w3.org/2000/svg" xmlns:xlink="http://www.w3.org/1999/xlink" width="149.12309" height="223.8243" viewBox="0,0,149.12309,223.8243"><g transform="translate(-163.29999,-66.19247)"><g data-paper-data="{&quot;isPaintingLayer&quot;:true}" fill="none" fill-rule="none" stroke="none" stroke-width="none" stroke-linecap="none" stroke-linejoin="none" stroke-miterlimit="10" stroke-dasharray="" stroke-dashoffset="0" font-family="none" font-weight="none" font-size="none" text-anchor="none" style="mix-blend-mode: normal"><g data-paper-data="{&quot;index&quot;:null}" id="Group" fill-rule="evenodd" stroke-linecap="butt" stroke-linejoin="miter"><path d="M250.46622,135.41364c3.29661,0.19392 13.28339,6.10842 14.54386,15.70737c1.26047,9.59895 -10.6655,17.45263 -10.6655,17.45263c15.31954,10.56854 0.58175,19.77965 0.58175,19.77965c21.04012,11.34421 12.41076,30.05732 -2.6179,28.31205c-15.02866,-1.74526 -18.51918,-27.05158 -18.51918,-27.05158c-15.61041,-3.58749 -8.72632,-19.00398 -8.72632,-19.00398c-2.6179,1.35743 -12.7986,1.84222 -14.34994,-4.84795c-9.11415,-40.43194 47.31603,-29.76644 39.75322,-30.34819z" id="Path" fill="#2f1917" stroke="none" stroke-width="1"/><path d="M250.46622,135.41364c3.29661,0.19392 13.28339,6.20538 14.54386,15.80433c1.26047,9.59895 -10.6655,17.45263 -10.6655,17.45263c15.31954,10.56854 0.58175,19.77965 0.58175,19.77965c21.04012,11.34421 12.41076,30.05732 -2.6179,28.31205c-15.02866,-1.74526 -18.51918,-27.05158 -18.51918,-27.05158c-15.61041,-3.58749 -8.72632,-19.00398 -8.72632,-19.00398c-2.6179,1.35743 -13.28339,1.93918 -14.34994,-4.84795c-1.93918,-19.10094 -1.74526,-22.49451 20.74924,-30.44515" id="Path_1_" fill="none" stroke="#000000" stroke-width="1.15"/></g><g data-paper-data="{&quot;index&quot;:null}" id="Group_1_" fill-rule="evenodd"><g id="Path_2_"><path d="M258.61078,164.50137c2.6179,0.77567 15.51345,10.85942 18.22831,14.15603c2.71485,3.29661 2.1331,4.94491 0.58175,6.59322c-1.55135,1.6483 -4.16924,0.29088 -6.78714,-2.23006c-2.6179,-2.52094 -14.9317,-9.50199 -14.9317,-9.50199c-4.55708,-3.68445 0.29088,-9.79287 2.90877,-9.01719z" id="Path" fill="#9e5e4c" stroke="none" stroke-width="1" stroke-linecap="butt" stroke-linejoin="miter"/><path d="M258.61078,164.50137c2.6179,0.77567 15.51345,10.85942 18.22831,14.15603c2.71485,3.29661 2.42398,5.23579 0.58175,6.59322c-1.93918,1.45439 -4.16924,0.29088 -6.78714,-2.23006c-2.6179,-2.52094 -14.9317,-9.50199 -14.9317,-9.50199c-4.55708,-3.68445 0.29088,-9.79287 2.90877,-9.01719z" id="Path" fill="none" stroke="#030305" stroke-width="0.96" stroke-linecap="round" stroke-linejoin="round"/></g><path d="M241.54598,164.30745c1.45439,-3.7814 6.3993,-6.20538 10.47158,-6.20538c2.1331,0 11.82901,4.84795 14.83474,7.36889c0.38784,0.38784 1.6483,1.16351 -0.58175,4.46012c0,0 -9.50199,13.76819 -11.63509,12.11989c-6.10842,-4.55708 -10.56854,-3.7814 -11.92597,-4.751c-3.68445,-2.90877 -2.71485,-8.82328 -1.16351,-12.99252z" id="Path_3_" fill="#aff4f5" stroke="#000000" stroke-width="0.96" stroke-linecap="butt" stroke-linejoin="miter"/><g id="Path_4_" stroke="none" stroke-width="1" stroke-linecap="butt" stroke-linejoin="miter"><path d="M289.05593,170.51283c-2.1331,3.97532 -6.30234,9.50199 -9.11415,13.08948c-1.16351,1.55135 -2.03614,2.23006 -4.94491,2.32702c0,0 -4.16924,-1.16351 -1.93918,-4.46012c3.87836,-4.07228 6.88409,-9.21111 10.6655,-13.47731c2.52094,-2.71485 5.9145,0.77567 5.33275,2.52094z" id="Path" fill="#9e5e4c"/><g id="Group" fill="#030305"><path d="M274.99686,185.92933c-0.09696,0 2.6179,0 4.751,-2.71485c0,0 7.36889,-9.79287 7.85369,-10.47158c0.4848,-0.77567 0.87263,-1.55135 1.45439,-2.32702c0,0 0.19392,0.19392 -0.96959,2.6179c-0.38784,0.87263 -6.88409,9.21111 -7.95064,10.6655c-2.1331,2.90877 -4.65404,2.32702 -5.13883,2.23006z" id="Path"/><path d="M284.01406,167.89494c-1.06655,1.35743 -9.98679,13.28339 -10.56854,13.76819c-0.19392,0.09696 -0.77567,0.58175 -0.77567,0.4848c0.09696,-0.09696 0.38784,-0.58175 0.4848,-0.67871c0.38784,-0.58175 5.13883,-6.98105 5.13883,-6.98105c0.87263,-1.16351 4.07228,-5.42971 5.13883,-6.3993c0,0 1.06655,-0.87263 0.58175,-0.19392z" id="Path"/></g></g><g id="Path_5_" stroke="none" stroke-width="1" stroke-linecap="butt" stroke-linejoin="miter"><path d="M311.74436,158.19903c-1.06655,2.52094 -4.55708,4.46012 -6.69018,5.42971c-1.74526,0.77567 -3.29661,1.74526 -4.84795,2.81181c-1.45439,1.06655 -3.19965,3.68445 -4.751,4.65404c-1.45439,0.96959 -5.72059,1.35743 -8.33848,-0.4848l-3.68445,-2.81181c-1.6483,-1.26047 -2.52094,-3.29661 -2.42398,-5.33275c0.09696,-1.84222 0.58175,-3.68445 1.35743,-5.33275c0.38784,-1.35743 0.29088,-2.81181 -0.09696,-4.07228c-0.58175,-2.6179 -2.6179,-4.55708 -2.52094,-7.46585c-0.09696,-0.87263 0.19392,-1.74526 0.77567,-2.42398c2.52094,-2.81181 6.30234,1.35743 7.27193,3.68445c0.67871,2.03614 1.16351,4.07228 1.45439,6.20538c0.58175,0 1.16351,-0.29088 1.45439,-0.77567c1.55135,-3.87836 2.32702,-9.21111 3.10269,-13.18644c0.38784,-2.1331 2.32702,-3.97532 4.2662,-2.03614c1.16351,1.16351 1.84222,2.71485 2.03614,4.36316v-0.29088c0.77567,-1.16351 2.52094,-3.49053 3.87836,-3.10269c2.52094,0.67871 2.52094,4.94491 2.52094,4.94491c1.55135,-2.03614 3.19965,-0.09696 3.29661,2.03614c0.19392,2.42398 -1.16351,5.42971 -2.52094,7.36889c-1.35743,1.84222 -3.29661,3.68445 -5.13883,5.13883c0,0.29088 1.35743,0.58175 1.6483,0.58175c1.55135,-1.16351 4.65404,-4.36316 6.69018,-3.68445c1.45439,0.58175 1.93918,1.74526 1.26047,3.7814z" id="Path" fill="#9e5e4c"/><g id="Group" fill="#030305"><path d="M283.62622,167.79798c0.09696,0.09696 0,0.09696 -0.09696,0.09696c-1.55135,-1.06655 -2.6179,-3.10269 -2.71485,-4.94491c-0.09696,-1.84222 0.19392,-3.68445 0.87263,-5.33275c0.19392,-0.38784 0.38784,-0.77567 0.4848,-1.16351c0.09696,-0.38784 0.09696,-0.77567 0.09696,-1.16351c0,-0.87263 -0.19392,-1.74526 -0.38784,-2.52094c-0.4848,-1.6483 -1.55135,-3.10269 -2.1331,-4.84795c-0.29088,-0.96959 -0.4848,-1.84222 -0.38784,-2.81181c0,-1.06655 0.38784,-2.03614 1.16351,-2.71485c0.77567,-0.77567 1.84222,-1.06655 2.90877,-0.77567c0.87263,0.29088 1.74526,0.77567 2.42398,1.45439c0.67871,0.67871 1.26047,1.35743 1.74526,2.1331c0.4848,0.77567 0.87263,1.6483 1.06655,2.52094c0.4848,1.74526 0.67871,3.49053 0.67871,5.33275c0,0.09696 0,0.19392 -0.09696,0.19392c-0.09696,0.09696 -0.19392,0 -0.19392,-0.09696c-0.29088,-1.74526 -0.58175,-3.49053 -1.06655,-5.13883c-0.4848,-1.55135 -1.45439,-3.00573 -2.71485,-4.16924c-0.67871,-0.4848 -1.35743,-0.96959 -2.1331,-1.16351c-0.67871,-0.29088 -1.45439,0 -2.03614,0.4848c-0.58175,0.4848 -0.87263,1.26047 -0.87263,2.03614c0,0.87263 0.09696,1.6483 0.38784,2.42398c0.4848,1.6483 1.55135,3.10269 2.03614,4.94491c0.19392,0.87263 0.38784,1.84222 0.38784,2.71485c0,0.4848 -0.09696,0.96959 -0.19392,1.45439c-0.19392,0.4848 -0.29088,0.87263 -0.4848,1.26047c-0.67871,1.6483 -0.96959,3.29661 -0.96959,5.04187c0.09696,1.74526 0.67871,3.29661 1.93918,4.46012z" id="Path"/><path d="M296.32786,153.54499c1.6483,-2.71485 2.81181,-5.72059 3.29661,-8.92024c0.19392,-1.55135 0.09696,-3.10269 -0.38784,-4.65404c-0.19392,-0.77567 -0.58175,-1.45439 -1.06655,-2.03614c-0.38784,-0.58175 -0.87263,-0.96959 -1.55135,-1.16351c-0.67871,-0.09696 -1.35743,0.29088 -1.6483,0.87263c-0.38784,0.67871 -0.67871,1.35743 -0.77567,2.1331l-0.96959,4.84795c-0.38784,1.55135 -0.67871,3.19965 -1.16351,4.751c-0.19392,0.77567 -0.4848,1.55135 -0.77567,2.32702l-0.19392,0.58175c-0.09696,0.19392 -0.29088,0.38784 -0.4848,0.58175c-0.29088,0.29088 -0.77567,0.38784 -1.26047,0.38784c-0.09696,0 -0.19392,-0.09696 -0.19392,-0.19392c0,-0.09696 0.09696,-0.19392 0.19392,-0.19392c0.38784,0 0.67871,-0.19392 0.96959,-0.38784c0.09696,-0.09696 0.19392,-0.19392 0.19392,-0.38784l0.19392,-0.58175c0.19392,-0.77567 0.4848,-1.55135 0.67871,-2.32702c0.38784,-1.55135 0.67871,-3.10269 0.96959,-4.751l0.87263,-4.84795c0.09696,-0.87263 0.4848,-1.74526 0.96959,-2.42398c0.29088,-0.38784 0.58175,-0.67871 0.96959,-0.96959c0.38784,-0.19392 0.96959,-0.38784 1.45439,-0.29088c0.4848,0.09696 0.96959,0.29088 1.35743,0.58175c0.29088,0.29088 0.58175,0.58175 0.87263,0.96959c0.58175,0.67871 0.96959,1.45439 1.26047,2.23006c0.4848,1.55135 0.67871,3.29661 0.38784,4.94491c-0.19392,1.6483 -0.67871,3.29661 -1.35743,4.84795c-0.58175,1.55135 -1.45439,3.00573 -2.52094,4.2662c-0.09696,0.09696 -0.38784,-0.09696 -0.29088,-0.19392z" id="Path"/><path d="M300.30318,141.32815c0.38784,-1.06655 1.06655,-1.93918 1.84222,-2.71485c0.38784,-0.38784 0.96959,-0.67871 1.55135,-0.77567h0.4848c0.19392,0.09696 0.29088,0.19392 0.4848,0.19392c0.29088,0.09696 0.58175,0.29088 0.77567,0.4848c0.87263,0.77567 1.45439,1.93918 1.45439,3.10269c0.09696,1.06655 -0.09696,2.23006 -0.38784,3.29661c-0.67871,2.03614 -1.6483,3.97532 -3.00573,5.72059c-0.67871,0.77567 -1.35743,1.6483 -2.1331,2.42398c-0.67871,0.77567 -1.45439,1.45439 -2.32702,2.1331c-0.09696,0 -0.09696,0 -0.19392,0c-0.09696,0 -0.09696,-0.09696 0,-0.19392c0.58175,-0.87263 1.35743,-1.6483 2.03614,-2.42398c0.67871,-0.77567 1.35743,-1.55135 1.93918,-2.42398c1.16351,-1.74526 2.1331,-3.58749 2.81181,-5.52667c0.29088,-0.96959 0.38784,-2.03614 0.38784,-3.00573c-0.09696,-0.96959 -0.4848,-1.84222 -1.16351,-2.52094c-0.19392,-0.19392 -0.38784,-0.29088 -0.58175,-0.38784c-0.19392,-0.19392 -0.38784,-0.19392 -0.58175,-0.19392c-0.4848,0.09696 -0.87263,0.29088 -1.26047,0.58175c-0.77567,0.67871 -1.45439,1.45439 -2.1331,2.23006c-0.09696,0.09696 -0.09696,0 0,0z" id="Path"/><path d="M306.70248,143.17037c-0.19392,-0.09696 -0.29088,-0.19392 -0.19392,-0.29088c0.19392,-0.38784 0.58175,-0.77567 1.06655,-0.96959c0.4848,-0.19392 1.06655,-0.09696 1.45439,0.29088c0.67871,0.67871 1.16351,1.55135 1.26047,2.52094c0.09696,1.84222 -0.29088,3.58749 -1.06655,5.23579c-0.77567,1.55135 -1.74526,3.10269 -2.90877,4.36316c-0.67871,0.67871 -1.26047,1.26047 -1.93918,1.84222c-0.67871,0.58175 -1.35743,1.16351 -2.1331,1.55135c-0.09696,0 -0.09696,0 -0.19392,0c-0.09696,0 -0.09696,-0.09696 0,-0.19392c0.58175,-0.67871 1.26047,-1.26047 1.84222,-1.84222c0.58175,-0.58175 1.16351,-1.16351 1.74526,-1.84222c1.06655,-1.26047 2.03614,-2.6179 2.71485,-4.16924c0.77567,-1.45439 1.06655,-3.10269 1.06655,-4.751c0,-0.77567 -0.29088,-1.45439 -0.87263,-2.03614c-0.19392,-0.29088 -0.58175,-0.38784 -0.87263,-0.29088c-0.38784,0.09696 -0.67871,0.29088 -0.96959,0.58175c-0.09696,0 -0.19392,0 0,0z" id="Path"/><path d="M292.74038,171.19154c0.77567,-0.09696 1.55135,-0.29088 2.32702,-0.67871c0.67871,-0.4848 1.35743,-1.06655 1.84222,-1.6483c1.06655,-1.35743 2.32702,-2.6179 3.68445,-3.68445c1.45439,-1.06655 3.00573,-1.93918 4.55708,-2.6179c1.55135,-0.67871 3.00573,-1.55135 4.2662,-2.6179c0.58175,-0.4848 1.16351,-1.16351 1.55135,-1.84222c0.38784,-0.58175 0.58175,-1.35743 0.58175,-2.1331c-0.09696,-0.67871 -0.58175,-1.16351 -1.26047,-1.35743c-0.77567,-0.09696 -1.45439,0.09696 -2.1331,0.4848c-1.45439,0.96959 -2.81181,2.03614 -4.07228,3.10269c-0.09696,0 -0.19392,0 -0.19392,0c-0.29088,0 -1.74526,-0.29088 -1.84222,-0.4848c0,0 -0.09696,-0.29088 0.19392,-0.19392l1.35743,0.29088c1.26047,-1.26047 2.6179,-2.32702 4.07228,-3.29661c0.77567,-0.58175 1.74526,-0.77567 2.71485,-0.67871c0.58175,0.19392 0.96959,0.38784 1.35743,0.77567c0.38784,0.29088 0.58175,0.87263 0.67871,1.35743c-0.09696,1.93918 -0.96959,3.68445 -2.52094,4.84795c-1.35743,1.16351 -2.81181,2.1331 -4.46012,2.81181c-1.55135,0.67871 -3.00573,1.45439 -4.46012,2.42398c-1.35743,0.96959 -2.6179,2.1331 -3.68445,3.49053c-0.58175,0.67871 -1.26047,1.26047 -2.03614,1.74526c-0.87263,0.4848 -1.74526,0.67871 -2.6179,0.77567c-2.03614,0.09696 -3.58749,-0.09696 -5.04187,-1.16351c0,0 3.49053,0.58175 5.13883,0.29088z" id="Path"/><path d="M288.95897,158.29599c0.09696,-0.09696 0.09696,-0.09696 0.19392,0c0.58175,0.38784 1.06655,0.96959 1.35743,1.6483c0.38784,0.67871 0.67871,1.35743 0.87263,2.03614c0.19392,0.67871 0.19392,1.45439 0.19392,2.1331c0,0.38784 0,0.67871 -0.09696,1.06655c-0.09696,0.38784 -0.19392,0.67871 -0.38784,0.96959c0,0.09696 0,0.09696 -0.09696,0.09696c-0.09696,0 -0.19392,0 -0.19392,-0.09696v-1.06655v-0.96959c0,-0.67871 -0.09696,-1.26047 -0.19392,-1.93918c-0.19392,-0.67871 -0.38784,-1.35743 -0.67871,-1.93918c-0.29088,-0.58175 -0.67871,-1.06655 -0.96959,-1.74526c-0.09696,0 -0.09696,-0.09696 0,-0.19392z" id="Path"/></g></g></g><g data-paper-data="{&quot;index&quot;:null}" id="Group_2_" fill-rule="evenodd" stroke="#000000" stroke-linecap="butt" stroke-linejoin="miter"><path d="M230.5896,142.20078c-0.58175,8.24152 -10.85942,8.0476 -13.67123,6.59322c0,0 9.01719,18.42223 -6.01146,23.56106c0,0 0.09696,30.92995 -14.64082,33.83872c-14.73778,2.90877 -25.98503,-19.48878 -6.59322,-34.32352c0,0 -15.99825,-10.56854 -2.23006,-24.14281c0,0 -13.08948,-9.11415 -13.08948,-20.74924c0,-11.63509 9.01719,-19.39182 12.3138,-19.87661c6.88409,-1.06655 44.89206,21.04012 43.92246,35.09919z" id="Path_6_" fill="#2f1917" stroke-width="1.5"/><path d="M188.80024,209.49038c5.33275,0.29088 11.05334,5.72059 11.05334,11.15029c0,5.33275 -4.2662,9.79287 -9.69591,9.79287c-5.33275,0 -9.01719,-3.19965 -9.40503,-8.62936c-0.38784,-4.84795 2.1331,-12.60468 8.0476,-12.3138z" id="Path_7_" fill="#2f1917" stroke-width="1.5"/><g id="Oval" fill="#c479c7" stroke-width="1"><path d="M185.89147,212.98091c-3.53424,0 -6.3993,-2.86506 -6.3993,-6.3993c0,-3.53424 2.86506,-6.3993 6.3993,-6.3993c3.53424,0 6.3993,2.86506 6.3993,6.3993c0,3.53424 -2.86506,6.3993 -6.3993,6.3993z"/><path d="M194.32691,214.53226c-3.53424,0 -6.3993,-2.86506 -6.3993,-6.3993c0,-3.53424 2.86506,-6.3993 6.3993,-6.3993c3.53424,0 6.3993,2.86506 6.3993,6.3993c0,3.53424 -2.86506,6.3993 -6.3993,6.3993z"/></g></g><g data-paper-data="{&quot;index&quot;:null}" id="Group_3_" fill-rule="evenodd"><path d="M248.1392,234.50583c-1.06655,4.46012 -7.07801,39.85018 -7.56281,41.01369c0,0 -1.26047,8.5324 -7.65977,6.78714c-6.88409,-1.84222 -5.23579,-6.30234 -4.55708,-8.43544c0.38784,-1.45439 7.07801,-36.94141 7.65977,-39.07451c3.68445,-13.96211 13.38035,-5.33275 12.11989,-0.29088z" id="Path_8_" fill="#9e5e4c" stroke="#000000" stroke-width="1.15" stroke-linecap="round" stroke-linejoin="miter"/><path d="M245.13347,250.79495c-1.26047,4.36316 -4.07228,23.56106 -4.55708,24.72457c0,0 -1.26047,8.5324 -7.65977,6.78714c-6.88409,-1.84222 -5.23579,-6.30234 -4.55708,-8.43544c0.38784,-1.45439 4.36316,-20.65228 5.13883,-24.53065c4.84795,2.81181 11.53813,1.45439 11.63509,1.45439z" id="Path_9_" fill="#f0f2fb" stroke="none" stroke-width="1" stroke-linecap="butt" stroke-linejoin="miter"/><path d="M248.1392,234.50583c-1.06655,4.46012 -7.07801,39.85018 -7.56281,41.01369c0,0 -1.26047,8.5324 -7.65977,6.78714c-6.88409,-1.84222 -5.23579,-6.30234 -4.55708,-8.43544c0.38784,-1.45439 7.07801,-36.94141 7.65977,-39.07451c3.68445,-13.96211 13.38035,-5.33275 12.11989,-0.29088z" id="Path_10_" fill="none" stroke="#000000" stroke-width="1.15" stroke-linecap="round" stroke-linejoin="miter"/><path d="M245.03651,250.60103c-0.96959,0.4848 -8.33848,1.45439 -11.44117,-2.03614" id="Path_11_" fill="none" stroke="#000000" stroke-width="0.77" stroke-linecap="round" stroke-linejoin="round"/><path d="M240.86727,275.8104c1.74526,0.09696 3.49053,0.09696 5.23579,-0.09696c3.68445,-0.67871 9.79287,-3.10269 15.02866,-0.29088c4.07228,2.1331 6.30234,9.30807 -4.84795,12.3138c-13.08948,3.58749 -24.62761,1.26047 -28.40901,-2.6179c-1.93918,-2.03614 -0.77567,-8.0476 0.38784,-10.85942c3.00573,1.74526 6.10842,3.39357 12.60468,1.55135z" id="Path_12_" fill="#c9cfe3" stroke="#20221d" stroke-width="1" stroke-linecap="butt" stroke-linejoin="miter"/></g><g data-paper-data="{&quot;index&quot;:null}" id="Group_4_" fill-rule="evenodd" stroke-linecap="butt" stroke-linejoin="miter"><path d="M269.85803,238.57811c0,0 -0.29088,1.55135 -3.29661,2.32702c-3.00573,0.77567 -21.52492,7.17497 -34.22656,-5.23579c0,0 -0.38784,-8.33848 0.29088,-11.82901c0.67871,-3.49053 -5.42971,-19.68269 0.58175,-22.49451c6.01146,-2.71485 15.51345,0.09696 15.51345,0.09696c0,0 25.79112,8.5324 21.13708,37.13533z" id="Path_13_" fill="#93aa59" stroke="none" stroke-width="1"/><g id="Path_14_" fill="none" stroke="#000000"><path d="M248.72095,201.44278c0,0 25.79112,8.5324 21.13708,37.13533c0,0 -0.29088,1.55135 -3.29661,2.32702c-3.00573,0.77567 -21.52492,7.17497 -34.22656,-5.23579c0,0 -0.38784,-8.33848 0.29088,-11.82901c0.67871,-3.49053 -5.42971,-19.68269 0.58175,-22.49451c6.01146,-2.71485 15.51345,0.09696 15.51345,0.09696z" id="Path" stroke-width="1.15"/><path d="M264.52528,213.56266c-2.03614,0.96959 -14.73778,2.1331 -15.80433,-12.11989" id="Path" stroke-width="0.77"/></g></g><path d="M244.35779,240.22641c0.38784,2.03614 -6.01146,4.55708 -16.67696,8.0476c-10.6655,3.49053 -21.04012,4.65404 -21.42796,2.6179c-0.38784,-2.03614 6.10842,-7.36889 16.87088,-10.85942c10.76246,-3.49053 20.8462,-1.84222 21.23404,0.19392z" data-paper-data="{&quot;index&quot;:null}" id="Path_15_" fill="#5f6841" fill-rule="evenodd" stroke="#20221d" stroke-width="1" stroke-linecap="butt" stroke-linejoin="miter"/><g data-paper-data="{&quot;index&quot;:null}" id="Group_5_" fill-rule="evenodd"><path d="M227.58387,229.46395c4.2662,0 6.78714,1.55135 7.95064,4.94491c2.03614,6.3993 3.10269,13.08948 3.10269,19.87661c-0.29088,5.52667 -9.69591,7.65977 -10.95638,0.77567c-1.26047,-6.88409 -4.16924,-17.74351 -4.46012,-18.90702c-1.6483,-7.07801 3.10269,-6.69018 4.36316,-6.69018z" id="Path_16_" fill="#9e5e4c" stroke="#000000" stroke-width="1.15" stroke-linecap="round" stroke-linejoin="miter"/><path d="M225.93557,246.81963c3.49053,1.16351 9.21111,-0.38784 12.11989,-2.52094c0,0 1.35743,10.08374 -0.09696,12.3138c-1.45439,2.23006 -7.36889,6.10842 -9.79287,-0.09696c-2.42398,-6.20538 -2.23006,-9.69591 -2.23006,-9.69591z" id="Path_17_" fill="#f0f2fb" stroke="none" stroke-width="1" stroke-linecap="butt" stroke-linejoin="miter"/><g id="Path_18_" fill="none" stroke="#000000" stroke-linecap="round"><path d="M227.58387,229.46395c4.2662,0 6.78714,1.55135 7.95064,4.94491c2.03614,6.3993 3.10269,13.08948 3.10269,19.87661c-0.29088,5.52667 -9.69591,7.65977 -10.95638,0.77567c-1.26047,-6.88409 -4.16924,-17.74351 -4.46012,-18.90702c-1.6483,-7.07801 3.10269,-6.69018 4.36316,-6.69018z" id="Path" stroke-width="1.15" stroke-linejoin="miter"/><path d="M238.05545,244.29869c-3.00573,2.1331 -8.62936,3.68445 -12.11989,2.52094" id="Path" stroke-width="0.77" stroke-linejoin="round"/></g></g><g data-paper-data="{&quot;index&quot;:null}" id="Group_6_" fill-rule="evenodd"><path d="M243.48516,226.2643c-0.19392,1.06655 -3.00573,0.96959 -4.2662,2.52094c-0.29088,0.38784 6.20538,12.3138 4.94491,11.53813c-2.81181,-1.74526 -22.00971,-5.72059 -37.52317,10.08374c-1.45439,1.45439 -4.55708,-25.1124 2.03614,-35.68094c3.68445,-5.9145 10.76246,-14.9317 25.98503,-12.02293c2.90877,0.58175 11.44117,10.6655 8.82328,23.56106z" id="Path_19_" fill="#93aa59" stroke="none" stroke-width="1" stroke-linecap="butt" stroke-linejoin="miter"/><g id="Path_20_" fill="none" stroke="#000000"><path d="M239.21896,228.8822c0,0 6.01146,12.60468 4.94491,11.53813c-3.10269,-3.19965 -24.23977,-5.04187 -37.42621,10.08374c-2.03614,2.32702 -3.7814,-21.91275 1.26047,-33.35392c3.19965,-7.27193 9.40503,-14.83474 20.07053,-15.12562" id="Path" stroke-width="1.15" stroke-linecap="round" stroke-linejoin="round"/><g id="Group" stroke-width="0.77" stroke-linecap="butt" stroke-linejoin="miter"><path d="M208.0951,216.5684c4.16924,-1.35743 22.88234,-4.94491 26.08199,8.14456c1.6483,6.59322 -13.18644,17.35568 -29.3786,10.56854" id="Path"/><path d="M231.46224,219.38021c0,0 -9.88983,14.83474 -25.79112,8.33848" id="Path"/><path d="M219.82715,237.12372c-1.06655,-2.52094 -1.6483,-5.42971 -1.55135,-8.14456" id="Path"/><path d="M210.71299,237.31764c-0.67871,-1.84222 0.4848,-7.85369 0.4848,-7.85369" id="Path"/></g><path d="M243.48516,226.2643l-3.7814,2.23006" id="Path" stroke-width="1.15" stroke-linecap="round" stroke-linejoin="round"/></g></g><g data-paper-data="{&quot;index&quot;:null}" id="Group_7_" fill-rule="evenodd" stroke="none" stroke-width="1" stroke-linecap="butt" stroke-linejoin="miter"><path d="M247.16961,162.95002c3.49053,3.10269 7.07801,11.24725 7.07801,17.16176c0,15.41649 1.35743,19.29486 0.67871,21.42796c-0.67871,2.1331 -26.66375,3.97532 -28.02118,-0.4848c-1.35743,-4.46012 -5.9145,-41.20761 -4.16924,-42.1772c5.23579,-2.90877 11.63509,-2.52094 17.54959,-1.26047c2.1331,0.29088 5.04187,3.7814 6.88409,5.33275z" id="Path_21_" fill="#aff4f5"/><path d="M251.9206,168.47669c0.67871,1.26047 1.26047,2.6179 1.6483,3.97532c0.77567,2.71485 1.06655,5.52667 0.96959,8.33848c0,5.52667 0.29088,11.05334 0.77567,16.58c0,0.67871 0.09696,1.45439 0.09696,2.1331c0,0.38784 0,0.67871 0,1.06655c0,0.19392 -0.09696,0.38784 -0.09696,0.58175l-0.09696,0.29088c0,0.09696 -0.09696,0.09696 -0.09696,0.19392c0.09696,0 0.09696,0.09696 0.09696,0.09696c-0.29088,0.29088 -0.67871,0.4848 -1.06655,0.58175c-0.38784,0.09696 -0.77567,0.19392 -1.06655,0.29088c-0.67871,0.09696 -1.35743,0.29088 -2.03614,0.38784c-5.52667,0.77567 -11.15029,1.06655 -16.67696,0.67871c-1.35743,-0.09696 -2.81181,-0.29088 -4.16924,-0.58175c-0.67871,-0.09696 -1.35743,-0.38784 -2.03614,-0.67871c-0.38784,-0.19392 -0.67871,-0.38784 -0.96959,-0.67871c-0.29088,-0.29088 -0.58175,-0.67871 -0.67871,-1.06655c-0.67871,-2.81181 -1.06655,-5.52667 -1.45439,-8.24152c-0.38784,-2.71485 -0.67871,-5.52667 -1.06655,-8.24152c-0.67871,-5.52667 -1.35743,-11.05334 -1.74526,-16.58c-0.09696,-1.35743 -0.19392,-2.81181 -0.19392,-4.16924c-0.09696,-1.45439 -0.09696,-2.81181 0,-4.2662c0,-0.19392 0,-0.38784 0.09696,-0.58175c0.09696,-0.19392 0.09696,-0.29088 0.19392,-0.38784l0.09696,-0.09696c0,-0.09696 0.09696,-0.09696 0.09696,-0.09696l0.09696,-0.09696l0.96959,-0.4848l0.96959,-0.38784l0.96959,-0.38784c1.35743,-0.4848 2.71485,-0.77567 4.16924,-0.87263c2.81181,-0.29088 5.62363,-0.09696 8.43544,0.38784c1.35743,0.19392 2.71485,0.58175 4.07228,0.96959c1.26047,0.4848 2.52094,1.26047 3.68445,2.1331c0.09696,0.09696 0.09696,0.09696 0.09696,0.09696c0.19392,0.19392 0.19392,0.4848 0,0.67871c-0.19392,0.19392 -0.4848,0.19392 -0.67871,0c-1.06655,-0.87263 -2.23006,-1.45439 -3.49053,-1.93918c-1.26047,-0.38784 -2.6179,-0.67871 -3.97532,-0.87263c-2.71485,-0.4848 -5.42971,-0.58175 -8.14456,-0.38784c-1.35743,0.09696 -2.71485,0.38784 -3.97532,0.77567l-0.96959,0.29088l-0.96959,0.38784l-0.87263,0.4848l-0.09696,0.09696c-0.09696,0 -0.09696,0 0,0c0.09696,0 0,0 0,0.09696c-0.09696,0.09696 -0.09696,0.29088 -0.09696,0.38784c-0.19392,1.35743 -0.19392,2.71485 -0.09696,4.07228c0.09696,1.45439 0.19392,2.81181 0.29088,4.16924c0.4848,5.52667 1.06655,10.95638 1.74526,16.48304c0.29088,2.81181 0.58175,5.52667 1.06655,8.24152c0.4848,2.71485 0.77567,5.52667 1.45439,8.14456c0.19392,0.58175 0.58175,0.96959 1.16351,1.16351c0.58175,0.29088 1.16351,0.4848 1.84222,0.67871c1.35743,0.29088 2.71485,0.4848 4.07228,0.58175c2.71485,0.19392 5.52667,0.19392 8.24152,0.09696c2.81181,-0.09696 5.52667,-0.38784 8.24152,-0.77567c0.67871,-0.09696 1.35743,-0.19392 2.03614,-0.38784c0.29088,-0.09696 0.67871,-0.19392 0.96959,-0.29088c0.29088,-0.09696 0.58175,-0.19392 0.77567,-0.38784v-0.19392c0.09696,-0.19392 0.09696,-0.29088 0.09696,-0.4848v-0.96959c0,-0.67871 -0.09696,-1.35743 -0.09696,-2.03614c-0.4848,-5.52667 -0.77567,-11.15029 -0.77567,-16.67696c0.09696,-2.71485 -0.19392,-5.42971 -0.96959,-8.0476c-0.38784,-1.26047 -0.87263,-2.52094 -1.55135,-3.68445c-0.58175,-1.26047 -1.45439,-2.23006 -2.1331,-3.49053c1.26047,0.67871 2.32702,1.74526 2.81181,2.90877z" id="Path_22_" fill="#030305"/></g><g data-paper-data="{&quot;index&quot;:null}" id="Group_8_" fill-rule="evenodd" stroke-linejoin="miter"><path d="M245.71522,160.04125c2.42398,3.58749 -18.51918,4.46012 -21.62188,-1.55135c1.35743,-2.90877 19.1979,-2.1331 21.62188,1.55135z" id="Path_23_" fill="#9e5e4c" stroke="none" stroke-width="1" stroke-linecap="butt"/><path d="M245.71522,160.33213c-0.96959,4.2662 -18.51918,4.07228 -21.62188,-1.93918" id="Path_24_" fill="none" stroke="#030305" stroke-width="0.96" stroke-linecap="round"/><path d="M227.58387,158.39295c0.4848,-1.35743 -0.38784,-10.1807 -0.29088,-12.11989c0.09696,-1.93918 2.90877,-4.16924 7.27193,-3.58749c4.36316,0.4848 6.3993,5.81754 6.3993,8.72632c0,2.90877 0.19392,8.0476 0.19392,8.0476c0,1.06655 -2.32702,1.93918 -6.59322,1.45439c-3.68445,-0.4848 -7.27193,-1.84222 -6.98105,-2.52094z" id="Path_25_" fill="#9e5e4c" stroke="none" stroke-width="1" stroke-linecap="butt"/><path d="M227.38995,158.39295c0.29088,-1.35743 -0.09696,-10.1807 -0.09696,-12.11989c0,-1.93918 2.90877,-4.16924 7.27193,-3.58749c4.36316,0.58175 6.3993,5.81754 6.3993,8.72632c0,2.90877 0.38784,8.0476 0.38784,8.0476" id="Path_26_" fill="none" stroke="#000000" stroke-width="0.96" stroke-linecap="round"/></g><g data-paper-data="{&quot;index&quot;:null}" id="Group_9_" stroke="#000000" stroke-width="0.5" stroke-linecap="butt"><path d="M248.23616,175.65166c-0.38784,-3.49053 -1.06655,-6.59322 -1.84222,-9.50199c-0.4848,-1.55135 -1.06655,-3.10269 -1.74526,-4.46012c-0.58175,-1.45439 -1.6483,-2.71485 -2.81181,-3.58749c-0.19392,-0.19392 -0.29088,-0.4848 -0.09696,-0.77567c0.19392,-0.19392 0.4848,-0.29088 0.77567,-0.09696c1.35743,0.96959 2.52094,2.42398 3.19965,3.97532c0.58175,1.45439 1.26047,3.00573 1.74526,4.65404c0.77567,3.00573 1.45439,6.10842 1.84222,9.69591c0,0.29088 -0.19392,0.58175 -0.58175,0.58175c-0.29088,0 -0.4848,-0.19392 -0.4848,-0.4848z" id="Path_27_" fill="#f9febb" fill-rule="evenodd" stroke-linejoin="miter"/><path d="M247.07265,179.62699c-1.93918,0 -3.49053,-1.55135 -3.58749,-3.49053c0.09696,-1.93918 1.6483,-3.49053 3.58749,-3.58749c2.6179,-0.19392 4.2662,2.32702 2.81181,5.72059l2.23006,6.20538c-0.29088,0.67871 -0.67871,1.45439 -1.16351,2.03614l-1.6483,-0.29088z" id="Path_28_" fill="#f8c278" fill-rule="evenodd" stroke-linejoin="miter"/><g id="Group" fill="#c6c4bf"><path d="M245.5213,179.43307c-1.93918,0 -3.58749,-1.55135 -3.58749,-3.58749c0,-2.03614 1.55135,-3.49053 3.58749,-3.49053c1.93918,0 4.55708,2.32702 3.00573,6.59322l2.03614,5.33275c-0.29088,0.67871 -0.67871,1.45439 -1.16351,2.03614l-1.6483,-0.29088z" id="Path_29_" fill-rule="evenodd" stroke-linejoin="round"/><path d="M244.16388,179.72394c-1.93918,0 -3.49053,-1.55135 -3.49053,-3.58749c0.09696,-1.93918 1.6483,-3.49053 3.49053,-3.49053c2.6179,-0.19392 4.2662,2.32702 2.81181,5.72059l2.23006,6.20538c-0.29088,0.77567 -0.67871,1.45439 -1.06655,2.03614l-1.6483,-0.29088z" id="Path_30_" fill-rule="evenodd" stroke-linejoin="round"/><path d="M241.35206,173.32464c3.00573,-0.96959 6.3993,1.06655 3.87836,5.33275l2.03614,5.42971c0.09696,0.38784 0.19392,0.77567 0.09696,1.16351c-0.09696,0.4848 -1.06655,0.87263 -1.35743,1.16351l-0.77567,-1.06655l0.87263,-0.67871l-0.67871,-1.06655h-1.45439l0.19392,-1.16351l-1.06655,-3.10269c-3.7814,0.87263 -4.55708,-5.13883 -1.74526,-6.01146zM243.09733,178.1726c1.16351,-0.09696 1.93918,-1.06655 1.84222,-2.1331c-0.09696,-1.16351 -1.06655,-1.93918 -2.1331,-1.84222c-1.06655,0.09696 -1.93918,0.96959 -1.84222,2.1331c0,1.06655 0.96959,1.93918 2.1331,1.84222c-0.09696,0 -0.09696,0 0,0z" id="Shape" fill-rule="nonzero" stroke-linejoin="round"/><path d="M242.03078,173.4216c1.74526,0 3.19965,1.45439 3.19965,3.19965c0,1.06655 -0.4848,2.03614 -1.35743,2.6179c0,0 0.29088,2.03614 0.67871,1.84222c0.58175,-0.19392 1.16351,0.09696 1.26047,0.67871c0.09696,0.58175 -0.77567,0.77567 -0.77567,0.77567c0,0 0.38784,1.35743 0.29088,1.45439c-0.4848,0.4848 -1.26047,-0.09696 -1.35743,-0.19392c-0.38784,-1.06655 -1.45439,-4.2662 -1.45439,-4.2662c-1.74526,0.19392 -3.39357,-1.06655 -3.68445,-2.81181c0,-0.09696 0,-0.09696 0,-0.19392c0,-1.6483 1.35743,-3.10269 3.19965,-3.10269zM241.93382,178.56044c1.16351,0 2.03614,-0.87263 2.03614,-2.03614c0,-1.16351 -0.87263,-2.03614 -2.03614,-2.03614c-1.16351,0 -2.03614,0.87263 -2.03614,2.03614c0,1.16351 0.87263,2.03614 2.03614,2.03614z" id="Shape_1_" fill-rule="nonzero" stroke-linejoin="miter"/></g><path d="M225.64469,158.4899c-0.58175,-1.55135 -0.29088,-2.81181 0.58175,-3.58749c0.19392,-0.19392 0.58175,-0.09696 0.77567,0.09696c0.19392,0.19392 0.09696,0.58175 -0.09696,0.77567c-0.19392,0.19392 -0.77567,0.67871 -0.29088,2.32702c1.84222,6.01146 14.83474,16.96784 16.28913,17.16176c0.29088,0 0.4848,0.29088 0.4848,0.58175c-0.09696,0.29088 -0.29088,0.4848 -0.58175,0.4848c-2.1331,-0.19392 -15.22258,-11.63509 -17.16176,-17.84047z" id="Path_31_" fill="#f9febb" fill-rule="evenodd" stroke-linejoin="miter"/></g><g data-paper-data="{&quot;index&quot;:null}" id="Group_10_" fill-rule="evenodd"><g id="Path_32_" stroke-linecap="butt" stroke-linejoin="miter"><path d="M222.15416,182.53576c0.87263,5.13883 1.84222,8.5324 -8.82328,4.07228c-10.6655,-4.46012 -13.47731,-17.74351 -12.89556,-19.48878c0.67871,-1.74526 2.81181,-1.55135 2.81181,-1.55135c2.81181,0.38784 18.03439,11.82901 18.90702,16.96784z" id="Path" fill="#609eab" stroke="none" stroke-width="1"/><path d="M222.15416,182.53576c0.87263,5.13883 1.84222,8.5324 -8.82328,4.07228c-10.6655,-4.46012 -13.47731,-17.74351 -12.89556,-19.48878c0.67871,-1.74526 2.81181,-1.55135 2.81181,-1.55135c2.81181,0.38784 18.03439,11.82901 18.90702,16.96784z" id="Path" fill="none" stroke="#000000" stroke-width="0.96"/></g><g id="Path_33_"><path d="M219.73019,176.42734c0,0 -10.37462,9.59895 -12.41076,12.60468c-2.03614,3.00573 -3.58749,4.65404 -5.52667,3.39357c-1.93918,-1.26047 -3.49053,-2.42398 -1.55135,-6.20538c1.93918,-3.7814 12.21684,-16.58 14.54386,-17.93743c2.42398,-1.35743 8.62936,3.49053 4.94491,8.14456z" id="Path" fill="none" stroke="#030305" stroke-width="0.96" stroke-linecap="round" stroke-linejoin="round"/><path d="M219.73019,176.42734c0,0 -10.37462,9.59895 -12.41076,12.60468c-2.03614,3.00573 -3.58749,4.65404 -5.52667,3.39357c-1.93918,-1.26047 -3.49053,-2.42398 -1.55135,-6.20538c1.93918,-3.7814 12.21684,-16.58 14.54386,-17.93743c2.42398,-1.35743 8.62936,3.49053 4.94491,8.14456z" id="Path" fill="#9e5e4c" stroke="none" stroke-width="1" stroke-linecap="butt" stroke-linejoin="miter"/></g><g id="Path_34_" stroke="none" stroke-width="1" stroke-linecap="butt" stroke-linejoin="miter"><path d="M203.44106,193.00734c-0.67871,0.19392 -1.74526,0.09696 -2.6179,-0.38784c-0.67871,-0.38784 -1.35743,-0.87263 -2.03614,-1.45439c-1.35743,-1.06655 -2.71485,-2.23006 -4.07228,-3.39357c-1.26047,-1.16351 -2.6179,-2.32702 -3.87836,-3.58749c-0.58175,-0.67871 -1.26047,-1.26047 -1.84222,-1.93918c-0.67871,-0.87263 -0.96959,-1.45439 -1.45439,-2.23006v-0.19392c0.09696,0 0.19392,-0.09696 0.29088,0c0.67871,0.67871 0.87263,1.06655 1.6483,1.93918c0.58175,0.77567 1.26047,1.26047 1.93918,1.84222c1.26047,1.16351 2.52094,2.32702 3.87836,3.49053l3.97532,3.49053c1.35743,1.16351 2.42398,1.93918 4.16924,2.03614c0.09696,0 0.38784,0.19392 0,0.38784z" id="Path" fill="#030305"/><path d="M192.38772,176.13646c0,-0.09696 0.09696,-0.19392 0.19392,-0.09696c1.16351,0.77567 2.32702,1.74526 3.39357,2.71485c1.06655,0.87263 2.1331,1.93918 3.19965,2.90877l3.19965,2.90877c0.4848,0.4848 0.96959,0.96959 1.55135,1.45439c0.58175,0.4848 1.06655,0.96959 1.55135,1.55135c0,0.09696 0,0.09696 0,0.19392c0,0.09696 -0.09696,0.09696 -0.19392,0.09696c-0.67871,-0.29088 -1.26047,-0.67871 -1.84222,-1.16351c-0.4848,-0.38784 -1.06655,-0.87263 -1.6483,-1.35743c-1.06655,-0.96959 -2.1331,-1.93918 -3.19965,-2.90877c-1.06655,-0.96959 -2.03614,-1.93918 -3.10269,-3.00573c-1.06655,-1.06655 -2.1331,-2.03614 -3.10269,-3.10269z" id="Path" fill="#030305"/><path d="M192.48468,176.42734c4.46012,3.58749 8.33848,7.95064 12.99252,11.34421c2.6179,1.93918 -1.06655,4.65404 -1.06655,4.65404c-1.74526,1.16351 -3.68445,-0.19392 -5.23579,-1.35743c-3.39357,-3.10269 -8.5324,-7.65977 -11.34421,-11.24725c-1.35743,-0.96959 1.74526,-5.72059 4.65404,-3.39357z" id="Path" fill="#9e5e4c"/></g><g id="Path_35_" stroke="none" stroke-width="1" stroke-linecap="butt" stroke-linejoin="miter"><path d="M165.4331,163.7257c2.03614,-0.67871 5.13883,2.52094 6.69018,3.68445c0.29088,0 1.35743,-0.4848 1.35743,-0.77567c-1.84222,-1.45439 -3.49053,-3.10269 -4.84795,-4.94491c-1.35743,-1.93918 -2.71485,-4.94491 -2.52094,-7.36889c0.09696,-2.1331 1.74526,-3.97532 3.29661,-2.03614c0,0 0,-4.2662 2.52094,-4.94491c1.35743,-0.38784 3.10269,1.93918 3.87836,3.10269v0.19392c0.19392,-1.6483 0.87263,-3.19965 2.03614,-4.36316c1.84222,-1.93918 3.87836,-0.09696 4.2662,2.03614c0.87263,3.97532 1.55135,9.30807 3.10269,13.08948c0.29088,0.4848 0.87263,0.77567 1.45439,0.77567c0.29088,-2.1331 0.77567,-4.16924 1.45439,-6.20538c0.96959,-2.32702 4.751,-6.49626 7.27193,-3.68445c0.58175,0.67871 0.87263,1.55135 0.77567,2.42398c0.09696,3.00573 -1.93918,4.84795 -2.52094,7.46585c-0.38784,1.26047 -0.4848,2.71485 -0.09696,3.97532c0.77567,1.6483 1.26047,3.49053 1.35743,5.33275c0.09696,2.03614 -0.77567,4.07228 -2.42398,5.33275l-4.2662,3.19965c-2.6179,1.84222 -6.3993,1.06655 -7.75673,0.09696c-1.55135,-0.96959 -3.29661,-3.58749 -4.751,-4.65404c-1.55135,-1.06655 -3.10269,-2.03614 -4.84795,-2.81181c-2.03614,-0.96959 -5.62363,-2.90877 -6.69018,-5.52667c-0.58175,-1.6483 -0.09696,-2.90877 1.26047,-3.39357z" id="Path" fill="#9e5e4c"/><g id="Group" fill="#030305"><path d="M192.6786,176.62125c0.77567,-1.16351 2.03614,-2.42398 2.1331,-4.16924c0,-1.74526 -0.29088,-3.49053 -0.96959,-5.04187c-0.09696,-0.38784 -0.29088,-0.77567 -0.4848,-1.26047c-0.19392,-0.4848 -0.19392,-0.96959 -0.19392,-1.45439c0,-0.87263 0.19392,-1.84222 0.38784,-2.71485c0.38784,-1.84222 1.55135,-3.39357 2.03614,-4.94491c0.29088,-0.77567 0.38784,-1.55135 0.38784,-2.42398c0,-0.77567 -0.29088,-1.45439 -0.87263,-2.03614c-0.4848,-0.58175 -1.26047,-0.77567 -2.03614,-0.58175c-0.77567,0.19392 -1.55135,0.58175 -2.1331,1.16351c-1.26047,1.16351 -2.23006,2.6179 -2.71485,4.2662c-0.4848,1.6483 -0.77567,3.39357 -1.06655,5.13883c0,0 -0.09696,0.09696 -0.19392,0.09696c-0.09696,0 -0.19392,-0.09696 -0.19392,-0.19392c0,-1.84222 0.19392,-3.58749 0.67871,-5.33275c0.19392,-0.87263 0.58175,-1.74526 1.06655,-2.52094c0.4848,-0.77567 1.06655,-1.55135 1.74526,-2.1331c0.67871,-0.67871 1.45439,-1.16351 2.42398,-1.45439c1.06655,-0.29088 2.1331,0 2.90877,0.77567c0.77567,0.77567 1.16351,1.74526 1.16351,2.71485c0.09696,0.96959 -0.09696,1.93918 -0.38784,2.81181c-0.67871,1.74526 -1.74526,3.19965 -2.1331,4.84795c-0.19392,0.87263 -0.38784,1.6483 -0.38784,2.52094c0,0.38784 0,0.77567 0.09696,1.16351c0,0.29088 0.29088,0.77567 0.38784,1.16351c0.67871,1.6483 0.87263,3.49053 0.87263,5.33275c0.09696,2.23006 -2.6179,4.36316 -2.52094,4.2662z" id="Path"/><path d="M179.68609,163.04698c0,0.09696 -0.09696,0.09696 -0.19392,0c-1.06655,-1.26047 -1.93918,-2.71485 -2.52094,-4.2662c-0.67871,-1.55135 -1.16351,-3.19965 -1.35743,-4.84795c-0.29088,-1.6483 -0.09696,-3.39357 0.38784,-5.04187c0.19392,-0.87263 0.67871,-1.6483 1.16351,-2.32702c0.19392,-0.38784 0.58175,-0.67871 0.87263,-0.96959c0.38784,-0.29088 0.87263,-0.4848 1.35743,-0.58175c0.4848,0 1.06655,0.09696 1.45439,0.38784c0.38784,0.29088 0.67871,0.58175 0.96959,0.96959c0.4848,0.67871 0.87263,1.55135 0.96959,2.42398l0.87263,4.84795c0.29088,1.55135 0.67871,3.19965 1.06655,4.751c0.19392,0.77567 0.4848,1.55135 0.67871,2.32702l0.19392,0.58175c0,0.09696 0.09696,0.29088 0.19392,0.38784c0.29088,0.19392 0.58175,0.29088 0.96959,0.38784c0,0 0.09696,0.09696 0.09696,0.19392c0,0.09696 -0.09696,0.19392 -0.19392,0.19392c-0.38784,0 -0.87263,-0.09696 -1.26047,-0.38784c-0.19392,-0.09696 -0.38784,-0.38784 -0.4848,-0.58175l-0.19392,-0.58175c-0.29088,-0.77567 -0.58175,-1.55135 -0.77567,-2.32702c-0.4848,-1.55135 -0.87263,-3.10269 -1.16351,-4.751l-0.96959,-4.84795c-0.09696,-0.67871 -0.38784,-1.45439 -0.77567,-2.03614c-0.38784,-0.58175 -0.96959,-0.96959 -1.6483,-0.96959c-0.67871,0.09696 -1.26047,0.58175 -1.6483,1.16351c-0.4848,0.58175 -0.77567,1.26047 -1.06655,2.03614c-0.4848,1.55135 -0.58175,3.10269 -0.38784,4.65404c0.38784,3.10269 1.55135,6.20538 3.29661,8.92024c0.09696,0.09696 0.09696,0.19392 0.09696,0.29088z" id="Path"/><path d="M176.00164,150.24838c0,0.09696 -0.09696,0.09696 -0.09696,0.09696c-0.77567,-0.87263 -1.45439,-1.6483 -2.23006,-2.32702c-0.38784,-0.29088 -0.77567,-0.4848 -1.26047,-0.58175c-0.19392,0 -0.38784,0.09696 -0.58175,0.19392c-0.19392,0.09696 -0.38784,0.19392 -0.58175,0.38784c-0.67871,0.67871 -1.06655,1.55135 -1.06655,2.52094c0,1.06655 0.09696,2.03614 0.38784,3.00573c0.58175,2.03614 1.55135,3.87836 2.81181,5.52667c0.58175,0.77567 1.26047,1.6483 1.93918,2.42398c0.67871,0.77567 1.45439,1.55135 2.03614,2.42398c0,0.09696 0,0.09696 0,0.19392c0,0.09696 -0.09696,0.09696 -0.19392,0c-0.77567,-0.58175 -1.6483,-1.35743 -2.32702,-2.1331c-0.77567,-0.77567 -1.45439,-1.55135 -2.1331,-2.42398c-1.26047,-1.74526 -2.32702,-3.68445 -3.00573,-5.72059c-0.29088,-1.06655 -0.38784,-2.1331 -0.38784,-3.29661c0,-1.16351 0.58175,-2.32702 1.45439,-3.10269c0.19392,-0.09696 0.4848,-0.29088 0.77567,-0.38784c0.09696,0 0.19392,-0.09696 0.38784,-0.09696h0.4848c0.58175,0.09696 1.16351,0.38784 1.55135,0.77567c0.77567,0.77567 1.45439,1.6483 1.93918,2.6179c0.09696,0.09696 0.09696,0.19392 0.09696,-0.09696z" id="Path"/><path d="M169.50538,152.47844c0,0.09696 -0.09696,0.09696 -0.19392,0c-0.29088,-0.29088 -0.58175,-0.4848 -0.96959,-0.58175c-0.29088,-0.09696 -0.67871,0.09696 -0.87263,0.29088c-0.4848,0.4848 -0.87263,1.26047 -0.87263,2.03614c-0.09696,1.6483 0.29088,3.29661 1.06655,4.751c0.67871,1.45439 1.55135,2.90877 2.71485,4.16924c0.58175,0.67871 1.16351,1.26047 1.74526,1.84222c0.67871,0.58175 1.26047,1.16351 1.84222,1.84222c0,0.09696 0,0.09696 0,0.19392c0,0.09696 -0.09696,0.09696 -0.19392,0.09696c-0.77567,-0.4848 -1.45439,-0.96959 -2.1331,-1.55135c-0.67871,-0.58175 -1.35743,-1.16351 -1.93918,-1.84222c-1.26047,-1.26047 -2.23006,-2.71485 -3.00573,-4.36316c-0.77567,-1.6483 -1.16351,-3.39357 -1.06655,-5.23579c0.09696,-0.96959 0.58175,-1.84222 1.26047,-2.52094c0.4848,-0.29088 1.06655,-0.4848 1.55135,-0.29088c0.4848,0.19392 0.87263,0.4848 1.06655,0.96959c0.09696,0 0.09696,0.09696 0,0.19392z" id="Path"/><path d="M187.92761,180.49962c-1.45439,0.96959 -3.10269,1.35743 -4.84795,1.06655c-0.96959,-0.09696 -1.84222,-0.38784 -2.6179,-0.77567c-0.77567,-0.4848 -1.45439,-1.06655 -2.03614,-1.74526c-1.16351,-1.26047 -2.32702,-2.42398 -3.68445,-3.49053c-1.45439,-0.87263 -2.90877,-1.74526 -4.46012,-2.42398c-1.55135,-0.77567 -3.10269,-1.6483 -4.46012,-2.81181c-1.55135,-1.16351 -2.52094,-2.90877 -2.52094,-4.84795c0.09696,-0.4848 0.29088,-0.96959 0.67871,-1.35743c0.38784,-0.38784 0.87263,-0.67871 1.35743,-0.77567c0.96959,-0.09696 1.93918,0.09696 2.71485,0.67871c1.45439,0.96959 2.81181,2.1331 4.07228,3.29661l-0.19392,-0.09696c0.09696,0 0.19392,-0.09696 0.29088,-0.09696c0.19392,0 0.29088,0 0.38784,-0.09696c0.19392,-0.09696 0.29088,-0.09696 0.38784,-0.19392l0.19392,-0.19392l0.09696,-0.09696c0.09696,-0.09696 0.09696,-0.09696 0.19392,-0.09696c0.09696,0 0.09696,0.09696 0.09696,0.19392c0,0.09696 -0.19392,0.29088 -0.29088,0.38784c-0.09696,0.09696 -0.29088,0.19392 -0.38784,0.29088c-0.09696,0.09696 -0.29088,0.09696 -0.38784,0.19392c-0.09696,0.09696 -0.29088,0.19392 -0.4848,0.19392h-0.09696c-1.26047,-1.16351 -2.6179,-2.1331 -4.07228,-3.10269c-0.58175,-0.38784 -1.35743,-0.58175 -2.1331,-0.4848c-0.67871,0.19392 -1.16351,0.77567 -1.26047,1.45439c0,0.77567 0.19392,1.45439 0.58175,2.1331c0.38784,0.67871 0.96959,1.35743 1.55135,1.84222c1.35743,1.06655 2.71485,2.03614 4.2662,2.71485c1.55135,0.67871 3.10269,1.55135 4.55708,2.52094c1.35743,1.06655 2.6179,2.32702 3.68445,3.68445c0.4848,0.67871 1.16351,1.16351 1.84222,1.6483c0.67871,0.29088 1.55135,0.58175 2.32702,0.67871c1.6483,0.29088 3.39357,0 4.84795,-0.87263c0,-0.09696 0.09696,0.29088 -0.19392,0.58175z" id="Path"/><path d="M186.86106,167.5071c0.09696,0 0.09696,0.09696 0.09696,0.19392c-0.29088,0.58175 -0.67871,1.16351 -0.96959,1.74526c-0.19392,0.58175 -0.4848,1.26047 -0.58175,1.93918c-0.09696,0.67871 -0.19392,1.26047 -0.19392,1.93918c0,0.29088 0,0.67871 0,0.96959c0,0.38784 0,0.67871 0,1.06655c-0.09696,0 -0.09696,0.09696 -0.09696,0.09696c-0.09696,0.09696 -0.09696,0.09696 -0.19392,0c-0.19392,-0.29088 -0.38784,-0.58175 -0.38784,-0.96959c0,-0.38784 -0.09696,-0.67871 -0.09696,-1.06655c0,-0.67871 0,-1.45439 0.19392,-2.1331c0.19392,-0.67871 0.38784,-1.35743 0.77567,-2.03614c0.29088,-0.58175 0.77567,-1.16351 1.35743,-1.6483c0.09696,-0.09696 0.19392,-0.09696 0.09696,-0.09696z" id="Path"/></g></g><g id="Path_36_"><path d="M226.03253,172.35505c0,0 -2.23006,11.15029 -3.58749,14.15603c0,0 -0.4848,-3.97532 -7.65977,-9.40503c-7.27193,-5.52667 -9.40503,-11.82901 -13.47731,-12.02293c3.87836,-0.29088 16.87088,-17.0648 24.62761,-4.55708" id="Path" fill="#aff4f5" stroke="none" stroke-width="1" stroke-linecap="butt" stroke-linejoin="miter"/><path d="M226.03253,172.35505c0,0 -2.23006,11.15029 -3.58749,14.15603c0,0 -0.4848,-3.97532 -7.65977,-9.40503c-7.27193,-5.52667 -9.40503,-11.82901 -13.47731,-12.02293c3.87836,-0.29088 16.67696,-17.25872 24.43369,-4.751" id="Path" fill="none" stroke="#030305" stroke-width="0.96" stroke-linecap="round" stroke-linejoin="round"/></g></g><g data-paper-data="{&quot;index&quot;:null}" id="Group_11_" fill-rule="evenodd"><path d="M254.92633,197.85529c0,0 0.96959,5.33275 -0.29088,6.59322c-4.55708,4.751 -24.53065,3.19965 -28.31205,1.74526c-0.38784,-0.09696 -0.67871,-5.33275 0.29088,-7.75673c5.33275,1.74526 24.82153,1.6483 28.31205,-0.58175z" id="Path_37_" fill="#d03b46" stroke="#000000" stroke-width="1" stroke-linecap="butt" stroke-linejoin="miter"/><path d="M251.53277,198.92184c0,0 0.09696,5.81754 -0.29088,7.36889" id="Path_38_" fill="none" stroke="#000000" stroke-width="0.77" stroke-linecap="round" stroke-linejoin="round"/><path d="M225.06294,189.90465c12.50772,0 23.56106,5.62363 23.75498,20.45837c0.09696,11.92597 -11.82901,16.28913 -24.33673,16.28913c-12.50772,0 -22.30059,-7.07801 -22.68843,-15.41649c-0.67871,-14.64082 10.76246,-21.331 23.27018,-21.331z" id="Path_39_" fill="#d03b46" stroke="none" stroke-width="1" stroke-linecap="butt" stroke-linejoin="miter"/><path d="M225.06294,189.90465c12.50772,0 23.56106,5.62363 23.75498,20.45837c0.09696,11.92597 -11.82901,16.28913 -24.33673,16.28913c-12.50772,0 -22.30059,-7.07801 -22.68843,-15.41649c-0.67871,-14.64082 10.76246,-21.331 23.27018,-21.331z" id="Path_40_" fill="none" stroke="#000000" stroke-width="1.15" stroke-linecap="round" stroke-linejoin="round"/><path d="M242.51557,221.9981c-5.72059,2.42398 -5.13883,-6.59322 -4.16924,-13.67123c0.87263,-7.07801 4.84795,-9.59895 7.17497,-8.5324" id="Path_41_" fill="none" stroke="#000000" stroke-width="0.77" stroke-linecap="round" stroke-linejoin="round"/><path d="M203.3441,202.70325c10.47158,-2.6179 23.94889,-0.77567 35.29311,2.52094l-0.67871,3.29661c0,0 -29.8634,-5.13883 -35.39007,-2.42398" id="Path_42_" fill="#f24646" stroke="none" stroke-width="1" stroke-linecap="butt" stroke-linejoin="miter"/><g id="Path_43_" fill="none" stroke="#000000" stroke-width="0.77" stroke-linecap="round" stroke-linejoin="round"><path d="M203.24714,202.80021c10.56854,-2.6179 24.43369,-0.87263 35.68094,2.52094" id="Path"/><path d="M202.47147,206.09681c5.52667,-2.71485 29.66948,0.67871 35.58398,2.42398" id="Path"/></g></g><g data-paper-data="{&quot;index&quot;:null}" id="Group_13_" fill-rule="evenodd" stroke-linejoin="miter"><path d="M234.27405,258.84256c-7.95064,4.2662 -18.42223,5.52667 -25.79112,5.52667c-1.06655,0 -4.65404,-6.59322 0.38784,-9.50199c3.97532,-2.32702 12.21684,-1.6483 18.51918,-4.2662c1.26047,3.49053 7.36889,4.65404 6.88409,8.24152z" id="Path_54_" fill="#f0f2fb" stroke="none" stroke-width="1" stroke-linecap="butt"/><path d="M235.24364,258.7456c-2.52094,1.35743 -21.81579,6.59322 -25.88808,5.81754c-4.07228,-0.77567 -3.97532,-9.21111 -1.06655,-9.98679c6.30234,-1.6483 12.70164,-3.00573 19.1979,-3.87836" id="Path_55_" fill="none" stroke="#000000" stroke-width="1.15" stroke-linecap="round"/></g><path d="M209.64644,264.6601c-0.19392,1.6483 -0.4848,3.29661 -0.96959,4.94491c0,0 0.87263,9.79287 -2.81181,14.25299c-2.81181,3.39357 -9.88983,4.2662 -10.47158,-6.88409c-0.67871,-13.08948 5.04187,-26.37287 10.27766,-26.66375c1.6483,-0.09696 5.62363,1.55135 7.56281,3.39357c0,0 -3.97532,2.81181 -3.58749,10.95638z" data-paper-data="{&quot;index&quot;:null}" id="Path_56_" fill="#c9cfe3" fill-rule="evenodd" stroke="#20221d" stroke-width="1" stroke-linecap="butt" stroke-linejoin="miter"/><g><g data-paper-data="{&quot;index&quot;:null,&quot;origPos&quot;:null}" id="Group_12_" fill-rule="evenodd"><path d="M262.10131,149.76359c-1.35743,3.10269 -12.11989,7.17497 -19.48878,0.77567" id="Path_44_" fill="#9e5e4c" stroke="none" stroke-width="1" stroke-linecap="butt" stroke-linejoin="miter"/><path d="M227.38995,149.56967c-14.34994,-5.9145 -19.10094,-9.59895 -26.56679,-23.75498" id="Path_45_" fill="none" stroke="#000000" stroke-width="1.15" stroke-linecap="round" stroke-linejoin="miter"/><path d="M185.69755,99.34486c0.67871,-28.69989 36.06878,-34.32352 57.69065,-32.77217c22.9793,1.6483 42.27416,9.50199 34.71135,43.04983c-1.45439,6.59322 -9.79287,28.79685 -9.79287,28.79685c0.96959,1.35743 1.55135,2.81181 1.74526,4.46012c0.19392,2.42398 -0.77567,4.751 -2.6179,6.30234c-1.90364,1.61281 -3.13338,2.35222 -5.44781,3.2841c-8.73515,1.91449 -12.65283,0.85439 -15.80897,1.36132c-5.59247,-0.33445 -8.30055,-1.03725 -13.74545,-2.3184c-2.23065,-0.64943 -3.46368,-1.09353 -5.60996,-1.98293c-6.43883,-2.66822 -41.63047,-23.60761 -41.12432,-50.18105z" data-paper-data="{&quot;origPos&quot;:null}" id="Path_46_" fill="#9e5e4c" stroke="none" stroke-width="1" stroke-linecap="butt" stroke-linejoin="miter"/><path d="M185.60059,98.95703c0,-28.69989 36.16574,-33.93568 57.78761,-32.38433c18.90702,1.35743 35.39007,6.88409 36.35966,27.53638c-0.09696,0.09696 -6.20538,-20.74924 -25.01544,-5.72059c-5.9145,-4.65404 -26.46983,-13.86515 -38.3958,12.3138c-1.93918,4.36316 -3.29661,17.25872 -3.68445,25.20936c-2.03614,-9.21111 -15.31954,-13.57427 -20.8462,-6.88409c-1.93918,-0.58175 -1.93918,-1.16351 -2.71485,-3.00573c-2.1331,-5.42971 -3.29661,-11.24725 -3.49053,-17.0648z" id="Path_47_" fill="#2f1917" stroke="none" stroke-width="1" stroke-linecap="butt" stroke-linejoin="miter"/><path d="M262.00435,148.65037c-0.09696,0.19392 -0.19392,0.38784 -0.38784,0.58175c-0.29088,0.29088 -0.67871,0.58175 -1.06655,0.87263c-0.38784,0.29088 -0.87263,0.4848 -1.26047,0.67871c-0.38784,0.29088 -0.87263,0.38784 -1.26047,0.58175c-1.74526,0.58175 -3.58749,0.96959 -5.42971,1.06655c-1.84222,0.09696 -3.68445,-0.19392 -5.42971,-0.77567c-0.38784,-0.09696 -0.87263,-0.29088 -1.26047,-0.4848c-0.4848,-0.19392 -0.87263,-0.38784 -1.26047,-0.67871c-0.38784,-0.19392 -0.77567,-0.4848 -1.16351,-0.77567c-0.38784,-0.29088 -0.67871,-0.67871 -0.87263,-1.06655c0.4848,0.09696 0.87263,0.29088 1.26047,0.58175c0.38784,0.29088 0.77567,0.4848 1.16351,0.67871l1.16351,0.58175c0.4848,0.19392 0.87263,0.38784 1.26047,0.4848c1.6483,0.4848 3.39357,0.77567 5.13883,0.67871c1.74526,-0.09696 3.49053,-0.4848 5.13883,-1.06655c0.38784,-0.09696 0.77567,-0.29088 1.16351,-0.4848c0.4848,-0.19392 0.77567,-0.38784 1.16351,-0.67871c0.19392,-0.09696 0.29088,-0.29088 0.4848,-0.38784c0.19392,-0.09696 0.29088,-0.29088 0.4848,-0.38784c0.19392,-0.09696 0.29088,-0.29088 0.4848,-0.38784c0.19392,-0.19392 0.38784,-0.29088 0.58175,-0.38784c0,0.29088 0,0.4848 -0.09696,0.77567z" data-paper-data="{&quot;origPos&quot;:null}" id="Path_48_" fill="#000000" stroke="none" stroke-width="1" stroke-linecap="butt" stroke-linejoin="miter"/><path d="M200.14445,109.62253l0.38784,0.09696l0.77567,0.29088c0.4848,0.19392 0.96959,0.38784 1.45439,0.67871c0.87263,0.4848 1.74526,1.16351 2.52094,1.93918c0.77567,0.77567 1.45439,1.74526 1.84222,2.71485c0.29088,0.4848 0.38784,1.06655 0.58175,1.55135c0.09696,0.29088 0.09696,0.4848 0.19392,0.77567c0.09696,0.19392 0.19392,0.38784 0.09696,0.58175c-0.19392,0.19392 -0.4848,0.29088 -0.67871,0.19392c-0.19392,-0.19392 -0.29088,-0.4848 -0.19392,-0.67871c-0.09696,-0.29088 -0.09696,-0.58175 -0.19392,-0.77567c-0.09696,-0.4848 -0.29088,-0.96959 -0.4848,-1.45439c-0.38784,-0.87263 -0.96959,-1.74526 -1.6483,-2.42398c-0.77567,-0.67871 -1.55135,-1.26047 -2.42398,-1.74526c-0.38784,-0.29088 -0.87263,-0.4848 -1.35743,-0.67871l-0.67871,-0.29088l-0.38784,-0.09696c-0.19392,-0.09696 -0.19392,-0.29088 -0.29088,-0.4848c0.19392,-0.09696 0.38784,-0.19392 0.4848,-0.19392z" id="Path_49_" fill="#000000" stroke="none" stroke-width="1" stroke-linecap="butt" stroke-linejoin="miter"/><path d="M187.92761,113.75141c-13.86515,-42.85591 33.83872,-48.38258 55.4606,-46.73428c22.9793,1.6483 42.27416,9.50199 34.71135,43.04983c-1.45439,6.59322 -9.79287,28.79685 -9.79287,28.79685c0.96959,1.35743 1.55135,2.81181 1.74526,4.46012c0.19392,2.42398 -0.77567,4.751 -2.6179,6.30234c-6.98105,5.9145 -25.1124,4.65404 -35.00223,2.32702" data-paper-data="{&quot;origPos&quot;:null}" id="Path_50_" fill="none" stroke="#000000" stroke-width="1.15" stroke-linecap="round" stroke-linejoin="miter"/><path d="M212.65217,126.00861c0.38784,-7.95064 1.74526,-20.8462 3.68445,-25.20936c11.92597,-26.27591 32.48129,-17.0648 38.29884,-12.41076c18.90702,-15.02866 25.01544,6.10842 25.01544,6.10842" id="Path_51_" fill="none" stroke="#000000" stroke-width="1.15" stroke-linecap="round" stroke-linejoin="round"/><path d="M215.17311,140.2616c-13.47731,8.5324 -25.69416,-4.55708 -25.88808,-12.60468c-0.19392,-13.57427 16.77392,-17.45263 23.36714,-1.74526z" id="Path_52_" fill="#9e5e4c" stroke="none" stroke-width="1" stroke-linecap="butt" stroke-linejoin="miter"/><path d="M215.17311,140.2616c-13.47731,8.5324 -25.69416,-4.55708 -25.88808,-12.60468c-0.38784,-17.45263 20.8462,-13.57427 23.36714,-1.74526" id="Path_53_" fill="none" stroke="#000000" stroke-width="1.15" stroke-linecap="round" stroke-linejoin="round"/></g><g data-paper-data="{&quot;index&quot;:null,&quot;origPos&quot;:null}" id="Group_14_" fill-rule="evenodd"><g id="Path_57_" fill="#000000" stroke="none" stroke-width="1" stroke-linecap="butt" stroke-linejoin="miter"><path d="M261.51955,133.3775c0.38784,0.58175 0.58175,1.16351 0.67871,1.84222c0.09696,0.67871 -0.09696,1.45439 -0.4848,2.03614c-0.38784,0.58175 -1.06655,0.87263 -1.84222,0.87263c-0.29088,0 -0.67871,-0.09696 -0.96959,-0.19392c-0.29088,-0.09696 -0.58175,-0.29088 -0.87263,-0.4848c0.29088,0 0.67871,0 0.96959,0.09696h0.87263c0.58175,-0.09696 1.06655,-0.29088 1.35743,-0.77567c0.4848,-0.96959 0.38784,-2.23006 -0.29088,-3.10269c-0.67871,-0.96959 -1.55135,-1.84222 -2.52094,-2.52094c-0.4848,-0.38784 -1.06655,-0.67871 -1.55135,-0.96959c-0.58175,-0.29088 -1.16351,-0.58175 -1.6483,-0.96959c2.52094,0.58175 4.84795,2.03614 6.30234,4.16924z" id="Path"/><path d="M249.30271,137.83762c-0.29088,0.19392 -0.67871,0.29088 -1.06655,0.38784c-0.77567,0.19392 -1.55135,0.29088 -2.32702,0.19392c-0.4848,0 -0.87263,-0.19392 -1.26047,-0.4848c-0.38784,-0.29088 -0.58175,-0.77567 -0.4848,-1.26047c0.09696,-0.87263 0.4848,-1.55135 1.16351,-2.03614c-0.09696,0.77567 -0.4848,1.35743 -0.4848,2.03614c0,0.19392 0.09696,0.4848 0.29088,0.67871c0.29088,0.19392 0.58175,0.29088 0.87263,0.29088c0.77567,0.09696 1.45439,0.09696 2.1331,-0.09696c0.38784,0 0.67871,-0.09696 1.06655,-0.19392c0.29088,-0.09696 0.67871,-0.19392 1.06655,-0.19392c-0.29088,0.38784 -0.58175,0.58175 -0.96959,0.67871z" id="Path"/><path d="M248.43008,91.58814c1.26047,0.96959 1.35743,2.71485 0.77567,3.39357c-0.58175,0.67871 -2.32702,-1.6483 -3.39357,-2.32702c-2.42398,-1.6483 -6.59322,-1.84222 -6.69018,-2.42398c-0.19392,-0.67871 5.42971,-1.45439 9.30807,1.35743z" id="Path"/><path d="M258.22294,94.88475c0,0 -1.55135,1.6483 -1.35743,-0.38784c0.19392,-2.03614 5.23579,-6.30234 9.50199,-5.42971c0,0 1.45439,0.58175 0.58175,0.87263c-0.87263,0.29088 -5.81754,0.87263 -8.72632,4.94491z" id="Path"/><path d="M258.12598,140.64943c-1.35743,-0.29088 -2.81181,-0.38784 -4.2662,-0.38784c-1.45439,0 -2.90877,0.19392 -4.2662,0.58175c-1.35743,0.38784 -2.71485,0.96959 -3.87836,1.84222c1.06655,-1.06655 2.32702,-1.93918 3.7814,-2.32702c1.35743,-0.4848 2.90877,-0.77567 4.36316,-0.77567c1.45439,0 2.90877,0.19392 4.36316,0.58175l1.16351,0.38784c0.29088,0.19392 0.67871,0.38784 0.96959,0.58175c0.67871,0.38784 1.16351,0.96959 1.45439,1.6483c-0.96959,-1.06655 -2.32702,-1.84222 -3.68445,-2.1331z" id="Path"/></g><path d="M247.07265,146.85481c2.90877,-1.6483 6.30234,-2.23006 9.59895,-1.6483c1.35743,0.19392 2.71485,0.77567 3.7814,1.74526" id="Path_58_" fill="none" stroke="#000000" stroke-width="0.77" stroke-linecap="round" stroke-linejoin="round"/></g><g data-paper-data="{&quot;index&quot;:null,&quot;origPos&quot;:null}" id="Group"><g id="Path" fill="none" fill-rule="nonzero" stroke="none" stroke-width="1" stroke-linecap="butt" stroke-linejoin="miter" font-family="sans-serif" font-weight="normal" font-size="12" text-anchor="start"/><g id="Path" fill-rule="evenodd"><path d="M225.42761,108.39043c14.2,-10.3 24.2,1.4 22.6,16.8c0,0 -1.4,2.4 -3.2,2.6c-5.1,1.4 -18.7,4.2 -20.9,-17.2c0.3,-0.9 0.8,-1.7 1.5,-2.2z" fill="#ffffff" stroke="none" stroke-width="1" stroke-linecap="butt" stroke-linejoin="miter"/><path d="M245.32761,122.29043c-0.2,0.3 -0.4,0.5 -0.7,0.7c-0.7,0.4 -1.7,0.2 -2.2,-0.6c-1.2,-1.7 -0.9,-5.3 0.1,-6.8c0.8,-1.2 2.1,-1.3 2.9,0c0.5,1 0.8,2.2 0.6,3.4c0.1,1.1 -0.2,2.3 -0.7,3.3z" fill="#000000" stroke="none" stroke-width="1" stroke-linecap="butt" stroke-linejoin="miter"/><path d="M224.72761,108.89043c14.1,-12.1 26.3,2.6 23.3,16.8" fill="none" stroke="#000000" stroke-width="0.73" stroke-linecap="round" stroke-linejoin="round"/><path d="M245.52761,127.79043c-5.1,1.4 -19.3,4.1 -21.5,-17.2" fill="none" stroke="#000000" stroke-width="0.73" stroke-linecap="round" stroke-linejoin="round"/></g><g id="Path" fill-rule="evenodd"><path d="M256.82761,122.79043c-1,-19.3 10.6,-18.7 15.7,-17.2c1.2,0.3 1.7,2.2 1.7,2.2c1.2,6.4 -3.1,21.8 -15,18.6c0,-0.1 -2.3,-1.4 -2.4,-3.6z" fill="#ffffff" stroke="none" stroke-width="1" stroke-linecap="butt" stroke-linejoin="miter"/><path d="M262.72761,121.59043c-0.3,0.6 -0.5,1.1 -1.3,1.1c-0.7,0.1 -1.3,-0.3 -1.5,-0.9c-1.1,-2.2 -1,-4.7 0.3,-6.8c0.3,-0.4 0.4,-1.1 1.1,-0.9c0.6,0.2 1,0.6 1.2,1.2c0.4,1 0.6,2.1 0.5,3.2c0.2,1.1 0,2.3 -0.3,3.1z" fill="#000000" stroke="none" stroke-width="1" stroke-linecap="butt" stroke-linejoin="miter"/><path d="M256.72761,123.89043c-2.4,-20.6 12.5,-20.4 16.3,-18.1" fill="none" stroke="#000000" stroke-width="0.73" stroke-linecap="round" stroke-linejoin="round"/><path d="M274.12761,107.79043c1.2,6.4 -3.4,22 -15.2,18.8" fill="none" stroke="#000000" stroke-width="0.73" stroke-linecap="round" stroke-linejoin="round"/></g></g></g><g data-paper-data="{&quot;index&quot;:null,&quot;origPos&quot;:null}" id="Group"><path d="M277.41083,114.59785l7.65977,-0.29088l-0.77567,4.46012l-8.24152,-0.19392z" id="Path_108_" fill="#842544" fill-rule="evenodd" stroke="#000000" stroke-width="0.5" stroke-linecap="butt" stroke-linejoin="miter"/><path d="M206.33982,114.98569c-0.77567,-0.96959 -1.45439,-1.55135 -2.03614,-1.93918l9.50199,-0.38784v5.52667l-6.30234,-0.77567c-0.19392,-0.58175 -0.58175,-1.45439 -1.16351,-2.42398z" id="Path_112_" fill="#842544" fill-rule="evenodd" stroke="#000000" stroke-width="0.5" stroke-linecap="butt" stroke-linejoin="miter"/><path d="M234.26404,93.55773c9.98679,0.38784 16.09521,10.08374 15.80433,21.04012c-0.29088,10.95638 -7.36889,18.81006 -17.35568,18.51918c-9.98679,-0.29088 -18.42223,-9.30807 -18.22831,-20.16749c0.19392,-10.95638 9.79287,-19.77965 19.77965,-19.39182z" id="Path_110_" fill="#b0f5f6" fill-rule="evenodd" stroke="none" stroke-width="1" stroke-linecap="butt" stroke-linejoin="miter" opacity="0.4"/><path d="M269.07235,92.6851c9.59895,0.29088 15.31954,7.65977 15.31954,18.90702c-0.09696,10.56854 -8.0476,20.07053 -17.54959,19.77965c-9.50199,-0.29088 -15.80433,-4.751 -15.80433,-18.61614c0,-10.56854 8.43544,-20.36141 18.03439,-20.07053z" id="Path_109_" fill="#b0f5f6" fill-rule="evenodd" stroke="none" stroke-width="1" stroke-linecap="butt" stroke-linejoin="miter" opacity="0.4"/><path d="M213.03,112.17387c0.29088,-11.92597 9.98679,-21.331 20.94316,-21.04012c8.5324,0.29088 14.54386,6.98105 16.58,15.61041c0.58175,-5.42971 7.65977,-16.67696 18.7131,-15.99825c10.95638,0.67871 17.25872,11.34421 16.48304,22.78538c-0.67871,10.85942 -8.82328,19.58573 -19.1979,19.1979c-8.14456,-0.29088 -14.25299,-3.39357 -16.19217,-12.3138c-0.29088,4.65404 -8.62936,14.83474 -18.13135,14.05907c-12.50772,-0.87263 -19.48878,-10.27766 -19.1979,-22.30059zM266.84229,131.37177c9.40503,0.29088 17.0648,-9.01719 17.16176,-19.39182c0.09696,-10.95638 -5.52667,-18.22831 -14.9317,-18.51918c-9.40503,-0.29088 -17.74351,9.30807 -17.74351,19.68269c-0.09696,13.47731 6.10842,17.93743 15.51345,18.22831zM232.71269,132.53528c9.88983,0.29088 16.87088,-7.46585 17.16176,-18.32527c0.29088,-10.85942 -5.72059,-20.45837 -15.61041,-20.8462c-9.88983,-0.38784 -19.39182,8.33848 -19.58573,19.1979c-0.19392,10.85942 8.14456,19.58573 18.03439,19.97357z" id="Shape_3_" fill="#842544" fill-rule="nonzero" stroke="#000000" stroke-width="0.5" stroke-linecap="round" stroke-linejoin="round"/></g></g></g></svg>