<svg version="1.1" xmlns="http://www.w3.org/2000/svg" xmlns:xlink="http://www.w3.org/1999/xlink" width="341.62042" height="244.26433" viewBox="0,0,341.62042,244.26433"><g transform="translate(-49.28882,9.60565)"><g data-paper-data="{&quot;isPaintingLayer&quot;:true}" fill="none" fill-rule="evenodd" stroke="none" stroke-width="none" stroke-linecap="butt" stroke-linejoin="none" stroke-miterlimit="10" stroke-dasharray="" stroke-dashoffset="0" font-family="none" font-weight="none" font-size="none" text-anchor="none" style="mix-blend-mode: normal"><g data-paper-data="{&quot;origPos&quot;:null}" id="Group" stroke="none" stroke-width="1" stroke-linejoin="miter"><g id="Path"><path d="M373.56842,-8.04213c14.49806,-0.28427 14.49806,47.90044 2.2742,55.00733c9.66536,-2.41634 13.78737,1.13711 13.36096,17.34082c-0.42642,15.0666 -9.52324,37.9508 -21.60494,48.89541c-0.14214,0.28427 -0.14214,0.7107 0,0.99496c2.2742,8.38612 0.42642,16.48798 -5.54338,22.17349c-7.67544,7.39116 -16.06158,9.52324 -25.44268,13.07668c-2.13208,5.82765 -3.41132,10.5182 -9.23897,14.21377c-8.10186,5.11697 -17.90936,7.10689 -27.43259,8.52827c5.11697,2.2742 5.54338,6.82261 0.7107,9.94965c-9.3811,5.96978 -22.17349,5.96978 -30.70177,-1.98993c-8.52827,-7.95973 -27.14833,-11.93958 -12.65026,-28.00115c30.41748,-33.8288 101.77067,-159.90504 116.26872,-160.18931z" fill="#99ca43"/><g fill="#000000"><path d="M390.90924,60.75257c-0.28427,4.122 -0.85282,8.24399 -1.70565,12.22386c-0.7107,3.97985 -1.70565,7.95973 -2.98489,11.79744c-2.2742,7.81759 -5.96978,15.35089 -10.80248,22.03136c-2.13208,2.98489 -4.69054,5.40123 -7.53331,7.53331l0.56855,-0.28427c1.42138,4.26413 1.56351,9.09682 0.28427,13.50309c-1.42138,4.40627 -4.122,8.38612 -7.81759,11.22888c-3.41132,2.98489 -7.39116,5.25909 -11.51316,7.10689c-3.83772,1.70565 -7.81759,3.12703 -11.65531,4.54841c-0.99496,4.122 -2.98489,7.95973 -5.68551,11.22888c-0.7107,0.85282 -1.56351,1.56351 -2.55847,2.2742c-0.99496,0.56855 -1.8478,1.13711 -2.84276,1.70565c-1.98993,0.99496 -3.97985,1.98993 -5.96978,2.84276c-4.122,1.56351 -8.38612,2.70062 -12.65026,3.26916c-4.26413,0.56855 -8.6704,0.7107 -12.93455,0.28427c4.26413,-1.13711 8.38612,-1.8478 12.50813,-2.70062c2.13208,-0.42642 4.122,-0.99496 6.11192,-1.56351c1.98993,-0.56855 3.97985,-1.27924 5.82765,-1.98993c1.8478,-0.85282 3.69558,-1.70565 5.54338,-2.70062c0.85282,-0.42642 1.8478,-0.99496 2.55847,-1.56351c0.7107,-0.56855 1.42138,-1.13711 2.13208,-1.8478c2.55847,-2.98489 4.40627,-6.68047 5.25909,-10.66033l0.14214,-0.7107l0.7107,-0.28427c4.122,-1.56351 8.24399,-2.84276 12.22386,-4.54841c3.97985,-1.56351 7.81759,-3.69558 11.08674,-6.39621c3.26916,-2.55847 5.82765,-5.96978 7.24903,-9.94965c1.27924,-3.97985 1.27924,-8.10186 0.14214,-12.08171c-0.14214,0.14214 -0.28427,0.14214 -0.42642,0.28427c-1.70565,1.13711 -3.55346,2.13208 -5.54338,2.84276c-1.98993,0.56855 -3.97985,0.99496 -6.11192,0.99496c3.55346,-1.42138 7.10689,-3.41132 10.23393,-5.82765c3.12703,-2.41634 5.82765,-5.25909 8.10186,-8.38612c4.54841,-6.39621 7.95973,-13.64524 10.23393,-21.17854c1.27924,-3.69558 2.2742,-7.67544 2.98489,-11.51316c0.85282,-3.83772 1.42138,-7.67544 1.70565,-11.65531c0.14214,-1.8478 0,-3.83772 -0.28427,-5.68551c-0.14214,-1.8478 -0.85282,-3.55346 -1.8478,-4.97483c-0.99496,-1.27924 -2.55847,-2.13208 -4.122,-2.2742c-1.8478,-0.14214 -3.69558,0.14214 -5.40123,0.7107c-0.7107,0.14214 -1.56351,-0.28427 -1.8478,-0.99496c-0.14214,-0.56855 0.14214,-1.42138 0.7107,-1.70565c1.98993,-1.42138 3.55346,-3.41132 4.40627,-5.68551c1.13711,-2.2742 1.98993,-4.8327 2.55847,-7.39116c1.13711,-5.25909 1.70565,-10.5182 1.56351,-15.91944c0,-5.25909 -0.85282,-10.66033 -2.55847,-15.63515c-0.7107,-2.2742 -2.13208,-4.40627 -3.97985,-6.11192c-0.85282,-0.7107 -1.8478,-1.27924 -2.98489,-1.56351h-0.28427c-0.14214,0 0,0 -0.14214,0c-0.28427,0 -0.42642,0 -0.56855,0.14214c-0.56855,0.28427 -0.99496,0.56855 -1.42138,0.85282c-2.13208,1.56351 -3.97985,3.41132 -5.68551,5.40123c-1.70565,1.98993 -3.41132,4.122 -5.11697,6.25407c-3.41132,4.26413 -6.53835,8.81254 -9.66536,13.21882c-6.25407,8.95469 -12.36599,18.05151 -18.33578,27.14833c-11.93958,18.19364 -23.87914,36.52942 -36.24514,54.58092c-6.25407,8.95469 -12.50813,17.90936 -19.04647,26.72191c-3.41132,4.40627 -6.68047,8.6704 -10.23393,12.93455c-3.55346,4.26413 -7.10689,8.38612 -12.08171,11.22888c2.84276,-4.8327 6.53835,-8.6704 9.94965,-13.07668c3.41132,-4.40627 6.82261,-8.52827 9.94965,-12.93455c6.53835,-8.81254 12.79239,-17.76723 18.90433,-26.72191c12.22386,-18.05151 24.16344,-36.38727 36.24514,-54.58092c5.96978,-9.09682 12.08171,-18.19364 18.33578,-27.14833c3.12703,-4.40627 6.25407,-8.81254 9.66536,-13.21882c1.70565,-2.13208 3.41132,-4.26413 5.25909,-6.39621c1.8478,-2.2742 3.83772,-4.26413 6.11192,-5.96978c0.7107,-0.42642 1.42138,-0.85282 2.13208,-1.13711c0.42642,-0.14214 0.99496,-0.28427 1.42138,-0.28427c0.28427,0 0.56855,0 0.85282,0l0.7107,0.14214c1.56351,0.42642 2.98489,1.13711 4.26413,2.13208c2.2742,1.98993 3.97985,4.54841 4.97483,7.39116c1.8478,5.40123 2.70062,10.94462 2.70062,16.63013c0,5.54338 -0.56855,11.22888 -1.8478,16.63013c-0.56855,2.84276 -1.56351,5.54338 -2.70062,8.10186c-0.56855,1.27924 -1.13711,2.41634 -1.98993,3.41132c0.56855,0 1.13711,0 1.70565,0c1.13711,0 2.41634,0.42642 3.41132,0.99496c0.99496,0.56855 1.98993,1.42138 2.70062,2.41634c1.27924,1.8478 2.13208,3.97985 2.41634,6.25407c0.28427,2.13208 0.42642,4.26413 0.56855,6.25407z"/><path d="M300.36744,171.33578c0.85282,0.56855 1.70565,1.13711 2.55847,1.8478c0.85282,0.7107 1.56351,1.70565 1.98993,2.70062c0.42642,1.13711 0.42642,2.55847 -0.14214,3.69558c-0.56855,0.99496 -1.27924,1.8478 -2.13208,2.55847c-0.85282,0.56855 -1.70565,1.27924 -2.55847,1.70565c-0.85282,0.56855 -1.70565,0.99496 -2.70062,1.42138c-1.8478,0.99496 -3.69558,1.56351 -5.68551,2.13208c-1.98993,0.42642 -4.122,0.7107 -6.11192,0.56855c-2.13208,-0.14214 -4.122,-0.56855 -5.96978,-1.27924c-1.8478,-0.7107 -3.69558,-1.70565 -5.40123,-2.70062c-1.70565,-0.99496 -3.26916,-2.2742 -4.8327,-3.55346c3.55346,1.42138 7.24903,2.55847 10.94462,3.69558c3.41132,1.13711 7.10689,1.27924 10.80248,0.56855c1.8478,-0.42642 3.55346,-0.99496 5.25909,-1.8478c0.85282,-0.42642 1.70565,-0.85282 2.55847,-1.27924c0.85282,-0.42642 1.56351,-0.85282 2.2742,-1.42138c0.7107,-0.42642 1.13711,-0.99496 1.56351,-1.70565c0.28427,-0.56855 0.42642,-1.27924 0.28427,-1.98993c-0.7107,-1.56351 -1.98993,-2.84276 -3.41132,-3.69558z"/></g></g><g id="Path"><path d="M355.09052,14.13136c7.68072,-8.66543 10.55214,12.47958 10.08525,24.04959c-0.39704,9.83917 -1.99057,15.49067 -6.95822,23.99298c8.38612,-2.84276 13.13612,6.97985 2.20973,19.59082c11.00724,2.62092 5.08561,13.03927 3.57806,16.24116c-4.48465,9.52501 -8.59598,13.82778 -17.1588,18.74894c-0.14214,0.28427 -0.14214,0.56855 0,0.85282c1.8478,6.68047 -0.85282,13.92951 -6.53835,18.05151c-7.24903,5.54338 -14.21377,6.39621 -22.59992,8.52827c-1.70565,5.11697 -2.98489,8.6704 -8.10186,11.79744c-6.96474,4.40627 -15.49301,5.54338 -23.73701,6.82261c4.40627,1.56351 5.40123,6.68047 0.85282,8.95469c-8.52827,4.40627 -20.32571,6.96474 -27.85901,-2.13208c-7.53331,-9.09682 -20.60998,-14.6402 -5.25909,-33.40237c20.84091,-25.54394 32.31984,-40.10584 53.23327,-65.59044c18.39774,-22.41904 28.7574,-35.03486 48.25312,-56.50593z" data-paper-data="{&quot;origPos&quot;:null}" fill="#99ca43"/><g fill="#000000"><path d="M367.31437,85.62667c0.28427,1.13711 0.42642,2.13208 0.28427,3.26916c-0.42642,4.122 -1.70565,8.10186 -3.83772,11.65531c-3.97985,6.82261 -9.3811,12.65026 -15.77729,17.19867c0.85282,3.69558 0.56855,7.53331 -0.99496,10.94462c-1.70565,3.55346 -4.40627,6.53835 -7.81759,8.6704c-3.12703,2.13208 -6.68047,3.69558 -10.37606,4.8327c-3.41132,1.13711 -6.82261,1.8478 -10.23393,2.70062c-0.56855,1.70565 -1.27924,3.55346 -2.13208,5.25909c-0.99496,2.13208 -2.55847,3.83772 -4.40627,5.25909c-0.85282,0.7107 -1.8478,1.27924 -2.84276,1.70565c-0.85282,0.56855 -1.8478,0.99496 -2.84276,1.42138c-1.98993,0.85282 -4.122,1.56351 -6.11192,2.13208c-4.122,1.27924 -8.24399,1.98993 -12.50813,2.41634c-4.26413,0.42642 -8.52827,0.28427 -12.79239,-0.7107c4.122,-1.42138 8.24399,-1.56351 12.36599,-2.2742c4.122,-0.42642 8.10186,-1.13711 12.08171,-2.2742c1.98993,-0.56855 3.83772,-1.13711 5.68551,-1.98993c1.8478,-0.7107 3.55346,-1.56351 5.25909,-2.70062c1.42138,-1.13711 2.70062,-2.55847 3.55346,-4.26413c0.85282,-1.8478 1.56351,-3.69558 2.2742,-5.68551l0.28427,-0.7107l0.7107,-0.14214c3.69558,-0.85282 7.24903,-1.70565 10.80248,-2.70062c3.41132,-0.99496 6.82261,-2.41634 9.8075,-4.40627c2.98489,-1.8478 5.40123,-4.54841 6.96474,-7.67544c1.42138,-3.12703 1.70565,-6.82261 0.7107,-10.09178l-0.28427,-0.85282l0.7107,-0.42642c3.26916,-2.13208 6.25407,-4.69054 8.95469,-7.53331c2.70062,-2.84276 5.11697,-5.82765 7.10689,-9.23897c2.13208,-3.26916 3.41132,-6.82261 3.83772,-10.66033c0.28427,-1.70565 -0.14214,-3.41132 -1.27924,-4.69054c-1.27924,-0.85282 -2.84276,-1.13711 -4.26413,-0.7107c-0.42642,0.56855 -0.99496,0.99496 -1.42138,1.56351c-0.56855,0.7107 -1.13711,1.42138 -1.8478,1.98993c-0.56855,0.7107 -1.27924,1.27924 -1.98993,1.8478c-1.42138,1.27924 -2.98489,2.2742 -4.69054,2.84276c0.85282,-1.56351 1.98993,-2.98489 3.26916,-4.26413l3.55346,-3.83772c2.41634,-2.55847 4.54841,-5.40123 6.25407,-8.38612c0.85282,-1.42138 1.56351,-2.98489 1.98993,-4.69054c0.42642,-1.56351 0.42642,-3.12703 0.14214,-4.69054c-0.28427,-1.42138 -1.42138,-2.55847 -2.70062,-3.12703c-1.42138,-0.42642 -2.98489,-0.28427 -4.40627,0.28427c-0.56855,0.28427 -1.27924,0 -1.56351,-0.56855v0c-0.14214,-0.42642 -0.14214,-0.99496 0.14214,-1.27924c2.41634,-3.12703 4.122,-6.82261 4.97483,-10.66033c1.98993,-7.95973 2.41634,-16.06158 1.27924,-24.16344c-0.28427,-1.98993 -0.7107,-3.97985 -1.42138,-5.82765c-0.56855,-1.70565 -1.56351,-3.41132 -2.84276,-4.69054c-0.56855,-0.56855 -1.27924,-0.85282 -2.13208,-0.99496c-0.14214,0 -0.28427,0 -0.42642,0c-0.14214,0 -0.28427,0.14214 -0.42642,0.14214c-0.42642,0.14214 -0.7107,0.28427 -1.13711,0.56855c-1.56351,1.13711 -3.12703,2.41634 -4.54841,3.83772c-2.84276,2.84276 -5.68551,5.82765 -8.38612,8.95469c-5.54338,6.25407 -10.80248,12.65026 -15.91944,19.04647c-10.37606,12.79239 -20.46785,25.86908 -30.70177,38.94577c-10.23393,12.93455 -20.46785,26.01121 -31.12818,38.66149v0.14214c-2.13208,2.2742 -4.26413,4.54841 -6.25407,6.96474c-1.98993,2.41634 -3.83772,4.8327 -5.68551,7.39116c-1.8478,2.55847 -3.41132,5.11697 -4.69054,7.95973c-1.13711,2.70062 -2.13208,5.68551 -1.42138,8.81254c-0.7107,-1.42138 -1.13711,-3.12703 -0.99496,-4.69054c0.14214,-1.70565 0.42642,-3.26916 0.99496,-4.8327c1.13711,-2.98489 2.55847,-5.82765 4.26413,-8.52827c1.70565,-2.70062 3.69558,-5.25909 5.68551,-7.67544c2.13208,-2.41634 4.122,-4.8327 6.39621,-7.10689v0.14214c10.5182,-12.79239 20.75212,-25.58481 30.98604,-38.66149c10.23393,-12.93455 20.32571,-26.01121 30.55963,-38.94577c5.25909,-6.39621 10.37606,-12.79239 15.91944,-19.04647c2.70062,-3.12703 5.54338,-6.25407 8.52827,-9.09682c1.56351,-1.56351 3.12703,-2.98489 4.97483,-4.122c0.42642,-0.42642 0.99496,-0.56855 1.56351,-0.85282c0.28427,-0.14214 0.7107,-0.28427 0.99496,-0.28427c0.42642,0 0.85282,0 1.13711,0c1.27924,0.14214 2.41634,0.7107 3.41132,1.56351c1.70565,1.56351 2.84276,3.55346 3.55346,5.68551c0.7107,2.13208 1.27924,4.26413 1.56351,6.39621c0.56855,4.26413 0.85282,8.38612 0.56855,12.65026c-0.14214,4.26413 -0.85282,8.38612 -1.8478,12.50813c-0.7107,3.26916 -1.98993,6.25407 -3.69558,9.09682c0.99496,0 1.98993,0.14214 2.98489,0.42642c1.98993,0.7107 3.55346,2.41634 4.122,4.54841c0.42642,1.98993 0.42642,3.97985 -0.14214,5.96978c-0.42642,1.8478 -1.13711,3.55346 -2.13208,5.25909c-0.99496,1.8478 -2.2742,3.55346 -3.55346,5.25909c0.28427,0 0.42642,0 0.7107,0c1.27924,0 2.41634,0.56855 3.26916,1.27924c0.85282,0.85282 1.42138,1.8478 1.42138,2.55847z"/><path d="M286.15366,162.09681c1.8478,0.7107 3.26916,2.13208 4.122,3.83772c0.42642,0.99496 0.42642,2.13208 0.14214,3.12703c-0.42642,0.99496 -0.99496,1.8478 -1.8478,2.41634c-0.7107,0.56855 -1.42138,1.13711 -2.2742,1.56351c-0.7107,0.42642 -1.56351,0.85282 -2.41634,1.27924c-1.70565,0.7107 -3.41132,1.27924 -5.25909,1.56351c-1.8478,0.28427 -3.69558,0.42642 -5.40123,0.28427c-1.8478,-0.14214 -3.55346,-0.42642 -5.40123,-0.99496c-1.70565,-0.56855 -3.41132,-1.27924 -4.8327,-2.13208c-1.56351,-0.85282 -2.98489,-1.8478 -4.40627,-2.84276c3.26916,1.13711 6.53835,2.13208 9.94965,2.84276c3.26916,0.85282 6.53835,0.99496 9.8075,0.56855c1.70565,-0.28427 3.26916,-0.7107 4.8327,-1.42138c0.7107,-0.28427 1.56351,-0.7107 2.2742,-1.13711c0.7107,-0.28427 1.42138,-0.7107 1.98993,-1.27924c1.27924,-0.7107 1.8478,-2.13208 1.42138,-3.55346c-0.7107,-1.42138 -1.8478,-2.55847 -3.12703,-3.26916z"/></g></g></g><g data-paper-data="{&quot;origPos&quot;:null}" id="Body"><g id="Group"><g id="Path" stroke="none" stroke-width="1" stroke-linejoin="miter"><path d="M275.7776,165.7924c-49.60608,-5.82765 -100.63358,16.77226 -100.63358,16.77226c-0.85282,-5.11697 -14.6402,-115.27377 -13.78737,-117.54797c0,0 23.73701,-14.6402 36.38727,-23.59487c19.33074,-13.64524 38.80362,-21.74709 61.68781,-14.92447c20.32571,6.11192 34.39735,23.02632 34.25522,43.77844c0,17.48295 -7.10689,32.12315 -22.59992,44.91555l2.98489,2.13208c9.94965,8.52827 15.91944,30.55963 1.70565,48.469z" data-paper-data="{&quot;origPos&quot;:null}" fill="#f7ed4e"/><path d="M179.69246,232.59718l-11.08674,-97.08012c24.4477,30.55963 87.13048,9.09682 94.09523,2.2742c8.6704,4.122 18.05151,9.52324 21.32068,4.26413c1.70565,8.81254 8.24399,37.24011 -31.12818,69.78967c-34.25522,21.32068 -57.42367,21.32068 -73.20097,20.75212z" fill="#99ca43"/><g><path d="M232.56773,111.6379c-7.10689,-0.42642 -6.82261,-12.22386 -0.28427,-13.78737c9.52324,-2.13208 13.78737,15.0666 0.28427,13.78737z" fill="#000104"/><path d="M230.71992,99.84047c3.12703,-0.42642 3.83772,3.12703 2.2742,4.97483c-0.28427,0.28427 -0.7107,0.56855 -1.13711,0.7107c-1.27924,0.42642 -2.70062,-0.42642 -3.12703,-1.70565c-0.7107,-2.55847 1.70565,-5.11697 3.97985,-3.55346" fill="#ffffff"/></g></g><path d="M180.761,233.30787c-4.8327,-36.24514 -18.90433,-165.59055 -19.04647,-168.29117c0,0 23.73701,-14.6402 36.38727,-23.59487c19.33074,-13.64524 38.80362,-21.74709 61.68781,-14.92447c20.32571,6.11192 34.39735,23.02632 34.25522,43.77844c0,17.48295 -7.10689,32.12315 -22.59992,44.91555c10.66033,6.25407 28.28542,52.16458 -6.53835,85.99338c-38.51934,37.38225 -84.14558,32.26529 -84.14558,32.12315z" data-paper-data="{&quot;origPos&quot;:null}" id="Path" fill="none" stroke="#000000" stroke-width="2.08" stroke-linejoin="round"/></g><path d="M237.39903,138.47127c-0.55192,-2.37 1.66564,-4.91187 4.95306,-5.67746c3.28743,-0.76556 6.39982,0.53507 6.95174,2.90509c0.55192,2.37 -1.66564,4.91187 -4.95306,5.67746c-3.28743,0.76556 -6.39982,-0.53507 -6.95174,-2.90509z" id="Oval" fill="#80886d" stroke="none" stroke-width="1" stroke-linejoin="miter"/><path d="M268.95499,107.65804c0.28427,4.69054 -2.13208,8.95469 -5.68551,9.23897c-3.55346,0.14214 -10.09178,-2.2742 -10.37606,-6.96474c-0.28427,-4.69054 6.39621,-8.95469 9.94965,-9.23897c3.55346,-0.28427 5.82765,2.2742 6.11192,6.96474z" id="Path" fill="#a8dddb" stroke="none" stroke-width="1" stroke-linejoin="miter"/><path d="M268.95499,107.65804c0.28427,4.69054 -2.13208,8.95469 -5.68551,9.23897c-3.55346,0.14214 -10.09178,-2.2742 -10.37606,-6.96474c-0.28427,-4.69054 6.39621,-8.95469 9.94965,-9.23897c3.55346,-0.28427 5.82765,2.2742 6.11192,6.96474z" id="Path" fill="none" stroke="#000000" stroke-width="1.3" stroke-linejoin="round"/><path d="M272.61472,137.73097c-2.71455,-0.42366 -4.65018,-2.4647 -4.32336,-4.55878c0.32683,-2.09408 2.79236,-3.44822 5.5069,-3.02455c2.71455,0.42366 4.65018,2.4647 4.32336,4.55878c-0.32683,2.09408 -2.79236,3.44822 -5.5069,3.02455z" id="Oval" fill="#80886d" stroke="none" stroke-width="1" stroke-linejoin="miter"/><g id="Group" fill="#000104" stroke="none" stroke-width="1" stroke-linejoin="miter"><path d="M210.96277,63.73746c-0.28427,1.13711 -0.56855,2.2742 -1.13711,3.26916c-0.42642,0.99496 -0.7107,2.13208 -0.99496,3.12703c-0.56855,2.13208 -0.7107,4.26413 -0.7107,6.39621c0,2.13208 0.56855,4.122 1.56351,5.96978c0.42642,0.99496 1.13711,1.8478 1.8478,2.55847c0.42642,0.42642 0.85282,0.7107 1.27924,1.13711c0.42642,0.28427 0.99496,0.7107 1.27924,1.27924c-0.56855,0 -1.27924,-0.14214 -1.8478,-0.28427c-0.56855,-0.28427 -1.13711,-0.56855 -1.56351,-0.85282c-0.99496,-0.7107 -1.98993,-1.56351 -2.70062,-2.55847c-1.42138,-1.98993 -2.2742,-4.54841 -2.2742,-6.96474c0,-2.41634 0.42642,-4.8327 1.42138,-7.10689c0.42642,-1.13711 0.99496,-2.13208 1.56351,-3.12703c0.56855,-1.13711 1.27924,-2.13208 2.2742,-2.84276z" id="Path"/><path d="M197.03327,67.85945c-0.28427,1.13711 -0.7107,2.13208 -1.13711,3.26916c-0.42642,0.99496 -0.7107,2.13208 -0.99496,3.12703c-0.42642,2.13208 -0.7107,4.26413 -0.7107,6.39621c0,2.13208 0.56855,4.122 1.42138,5.96978c0.42642,0.99496 1.13711,1.8478 1.8478,2.55847c0.42642,0.42642 0.85282,0.7107 1.27924,1.13711c0.42642,0.28427 0.85282,0.7107 1.27924,1.27924c-0.56855,0 -1.27924,-0.14214 -1.8478,-0.28427c-0.56855,-0.28427 -1.13711,-0.56855 -1.56351,-0.85282c-0.99496,-0.7107 -1.98993,-1.56351 -2.70062,-2.55847c-1.42138,-1.98993 -2.2742,-4.54841 -2.2742,-6.96474c0,-2.41634 0.42642,-4.8327 1.42138,-7.10689c0.42642,-1.13711 0.99496,-2.13208 1.56351,-3.12703c0.7107,-1.27924 1.42138,-2.2742 2.41634,-2.84276z" id="Path"/><path d="M210.10994,122.44036c-1.70565,0.28427 -3.41132,-0.14214 -4.8327,-1.27924c-1.42138,-0.99496 -2.55847,-2.55847 -2.98489,-4.40627c-0.28427,-1.8478 -0.14214,-3.69558 0.42642,-5.40123c0.42642,-1.27924 0.99496,-2.41634 1.70565,-3.55346c-0.85282,-0.56855 -1.56351,-1.42138 -1.98993,-2.41634c-0.56855,-1.42138 -0.7107,-2.84276 -0.42642,-4.26413c0.28427,-1.42138 0.7107,-2.70062 1.42138,-3.83772c0.56855,-1.27924 1.70565,-2.2742 2.98489,-2.70062c-0.7107,1.13711 -1.27924,2.13208 -1.8478,3.26916c-0.42642,0.99496 -0.7107,2.2742 -0.85282,3.41132c-0.14214,0.99496 0.14214,2.13208 0.56855,3.12703c0.42642,0.85282 1.13711,1.56351 2.13208,1.8478l1.42138,0.56855l-0.85282,1.27924c-0.85282,1.27924 -1.56351,2.55847 -2.13208,3.97985c-0.56855,1.27924 -0.7107,2.70062 -0.56855,4.122c0.14214,1.42138 0.85282,2.70062 1.8478,3.69558c1.13711,0.99496 2.41634,1.8478 3.97985,2.55847z" id="Path"/><path d="M198.73893,127.27306c-1.8478,0.28427 -3.55346,-0.28427 -4.8327,-1.42138c-1.42138,-1.13711 -2.41634,-2.70062 -2.84276,-4.40627c-0.42642,-1.70565 -0.28427,-3.55346 0.28427,-5.25909c0.42642,-1.27924 0.99496,-2.41634 1.70565,-3.55346c-0.85282,-0.7107 -1.56351,-1.70565 -2.13208,-2.70062c-0.56855,-1.42138 -0.85282,-3.12703 -0.56855,-4.69054c0.14214,-1.42138 0.7107,-2.84276 1.56351,-4.122c0.7107,-1.27924 1.8478,-2.2742 3.26916,-2.84276c-0.7107,1.13711 -1.42138,2.2742 -2.13208,3.41132c-0.56855,1.13711 -0.99496,2.41634 -0.99496,3.69558c0,1.13711 0.28427,2.41634 0.85282,3.41132c0.7107,0.99496 1.56351,1.8478 2.55847,2.41634l1.13711,0.56855l-0.7107,1.13711c-0.85282,1.27924 -1.56351,2.55847 -1.98993,3.97985c-0.42642,1.27924 -0.56855,2.70062 -0.42642,4.122c0.14214,1.27924 0.7107,2.70062 1.70565,3.69558c1.13711,1.13711 2.41634,1.8478 3.55346,2.55847z" id="Path"/><path d="M190.49492,130.25795c-0.85282,0.56855 -1.8478,0.7107 -2.70062,0.42642c-0.85282,-0.28427 -1.70565,-0.56855 -2.55847,-1.13711c-1.70565,-1.13711 -2.84276,-2.70062 -3.55346,-4.54841c-0.56855,-1.8478 -0.7107,-3.83772 -0.14214,-5.68551c0.42642,-1.42138 0.99496,-2.70062 1.70565,-3.97985c-0.85282,-0.7107 -1.42138,-1.70565 -1.70565,-2.70062c-0.28427,-1.42138 -0.42642,-2.70062 -0.28427,-4.122c0.14214,-1.27924 0.56855,-2.70062 1.13711,-3.83772c0.28427,-0.7107 0.7107,-1.27924 1.13711,-1.70565c0.56855,-0.42642 1.13711,-0.85282 1.8478,-0.85282c-0.85282,0.85282 -1.42138,1.8478 -1.8478,2.98489c-0.42642,1.13711 -0.56855,2.2742 -0.56855,3.41132c0,1.13711 0.14214,2.2742 0.56855,3.26916c0.28427,0.85282 0.99496,1.56351 1.8478,1.98993l1.42138,0.56855l-0.85282,1.27924c-0.85282,1.27924 -1.56351,2.70062 -1.98993,4.26413c-0.42642,1.42138 -0.42642,2.98489 -0.14214,4.40627c0.28427,1.42138 1.13711,2.84276 2.2742,3.83772c1.27924,0.99496 2.70062,1.70565 4.40627,2.13208z" id="Path"/></g></g><g data-paper-data="{&quot;origPos&quot;:null}" id="Group"><g id="Path" stroke="none" stroke-width="1" stroke-linejoin="miter"><path d="M259.14749,197.347c6.68047,3.12703 8.52827,11.37101 0.85282,15.35089c-4.26413,2.13208 -9.3811,1.42138 -12.93455,-1.8478" fill="#99ca43"/><path d="M247.06577,210.85008c1.42138,0.56855 2.55847,1.13711 3.83772,1.56351c1.27924,0.42642 2.55847,0.56855 3.83772,0.56855c1.27924,0 2.55847,-0.28427 3.69558,-0.7107c1.13711,-0.42642 2.2742,-1.13711 3.12703,-1.98993c0.85282,-0.85282 1.56351,-1.8478 1.98993,-2.98489c0.28427,-1.13711 0.28427,-2.41634 0,-3.55346c-0.28427,-1.27924 -0.85282,-2.2742 -1.70565,-3.26916c-0.85282,-0.99496 -1.70565,-1.98993 -2.70062,-2.98489c3.12703,0.42642 5.68551,2.70062 6.53835,5.82765c0.42642,1.56351 0.42642,3.26916 0,4.8327c-0.42642,1.56351 -1.42138,2.98489 -2.55847,3.97985c-0.56855,0.42642 -1.27924,0.99496 -1.98993,1.27924c-0.7107,0.42642 -1.42138,0.7107 -2.13208,0.99496c-1.42138,0.56855 -2.98489,0.7107 -4.54841,0.7107c-1.56351,0 -2.98489,-0.42642 -4.40627,-0.99496c-1.27924,-0.85282 -2.2742,-1.8478 -2.98489,-3.26916z" fill="#000000"/></g><g id="Path"><path d="M265.9701,211.70293c-4.122,2.2742 -5.82765,5.11697 -7.95973,5.82765c-0.99496,0.28427 -2.84276,0.14214 -1.98993,-1.98993c1.13711,-2.98489 4.26413,-3.41132 6.25407,-6.96474c1.56351,-2.98489 2.70062,-14.35592 4.54841,-13.36096c1.8478,0.99496 0.56855,6.96474 0.28427,8.6704c1.98993,-1.70565 4.122,-4.54841 5.82765,-5.82765c0.56855,-0.42642 2.2742,-1.27924 2.70062,-0.7107c1.70565,1.98993 -4.69054,8.6704 -5.82765,9.09682c2.2742,-0.7107 8.81254,-2.13208 9.09682,0.56855c0.14214,1.70565 -8.6704,2.2742 -12.93455,4.69054z" fill="#ef632a" stroke="none" stroke-width="1" stroke-linejoin="miter"/><path d="M265.9701,211.70293c-4.122,2.2742 -5.82765,5.11697 -7.95973,5.82765c-0.99496,0.28427 -2.84276,0.14214 -1.98993,-1.98993c1.13711,-2.98489 4.26413,-3.41132 6.25407,-6.96474c1.56351,-2.98489 2.70062,-14.35592 4.54841,-13.36096c1.8478,0.99496 0.56855,6.96474 0.28427,8.6704c1.98993,-1.70565 4.122,-4.54841 5.82765,-5.82765c0.56855,-0.42642 2.2742,-1.27924 2.70062,-0.7107c1.70565,1.98993 -4.69054,8.6704 -5.82765,9.09682c2.2742,-0.7107 8.81254,-2.13208 9.09682,0.56855c0.14214,1.70565 -8.6704,2.2742 -12.93455,4.69054z" fill="none" stroke="#000000" stroke-width="0.83" stroke-linejoin="round"/></g></g><g data-paper-data="{&quot;origPos&quot;:null}" id="Group"><g id="Path" stroke="none" stroke-width="1" stroke-linejoin="miter"><path d="M221.62311,203.45892c6.96474,1.98993 10.09178,10.5182 3.12703,16.34585c-3.41132,2.84276 -9.23897,3.83772 -13.07668,0.7107" fill="#99ca43"/><path d="M211.67345,220.51547c1.56351,0.42642 2.70062,0.7107 4.122,0.99496c2.70062,0.28427 5.40123,-0.42642 7.53331,-1.98993c0.99496,-0.85282 1.98993,-1.70565 2.70062,-2.84276c1.56351,-2.13208 1.8478,-4.8327 0.99496,-7.24903c-0.42642,-1.27924 -1.13711,-2.2742 -2.13208,-3.26916c-0.99496,-0.99496 -2.13208,-1.8478 -3.26916,-2.70062c3.26916,0 6.11192,2.13208 7.39116,5.11697c1.27924,3.12703 0.85282,6.68047 -0.99496,9.3811c-0.99496,1.27924 -2.13208,2.41634 -3.41132,3.26916c-1.27924,0.85282 -2.84276,1.56351 -4.40627,1.8478c-1.56351,0.28427 -3.12703,0.28427 -4.69054,0c-1.56351,-0.28427 -2.98489,-1.13711 -3.83772,-2.55847z" fill="#000000"/></g><g id="Path"><path d="M230.43565,217.53057c-3.69558,3.41132 -4.97483,6.82261 -6.96474,7.95973c-0.85282,0.56855 -2.70062,0.7107 -2.2742,-1.70565c0.56855,-3.41132 3.69558,-4.54841 5.11697,-8.81254c1.13711,-3.41132 0.56855,-15.91944 2.41634,-15.35089c1.8478,0.56855 1.56351,7.24903 1.70565,9.23897c1.70565,-2.2742 3.41132,-5.68551 4.8327,-7.39116c0.56855,-0.56855 1.98993,-1.8478 2.55847,-1.27924c1.98993,1.70565 -3.26916,10.37606 -4.40627,10.94462c1.98993,-1.13711 8.38612,-4.122 9.09682,-1.27924c0.28427,1.70565 -8.24399,4.122 -12.08171,7.67544z" fill="#ef632a" stroke="none" stroke-width="1" stroke-linejoin="miter"/><path d="M230.43565,217.53057c-3.69558,3.41132 -4.97483,6.82261 -6.96474,7.95973c-0.85282,0.56855 -2.70062,0.7107 -2.2742,-1.70565c0.56855,-3.41132 3.69558,-4.54841 5.11697,-8.81254c1.13711,-3.41132 0.56855,-15.91944 2.41634,-15.35089c1.8478,0.56855 1.56351,7.24903 1.70565,9.23897c1.70565,-2.2742 3.41132,-5.68551 4.8327,-7.39116c0.56855,-0.56855 1.98993,-1.8478 2.55847,-1.27924c1.98993,1.70565 -3.26916,10.37606 -4.40627,10.94462c1.98993,-1.13711 8.38612,-4.122 9.09682,-1.27924c0.28427,1.70565 -8.24399,4.122 -12.08171,7.67544z" fill="none" stroke="#000000" stroke-width="0.83" stroke-linejoin="round"/></g></g><g data-paper-data="{&quot;origPos&quot;:null}" id="Group" stroke="none" stroke-width="1" stroke-linejoin="miter"><g id="Path"><path d="M192.48485,153.85283c16.06158,14.49806 -1.98993,20.46785 -9.52324,29.13825c-7.53331,8.6704 -20.32571,10.23393 -30.27535,5.25909c-5.25909,-2.55847 -5.25909,-7.24903 -0.42642,-9.94965c-9.66536,-0.42642 -19.61502,-1.27924 -28.14329,-5.54338c-6.25407,-3.12703 -7.81759,-7.53331 -10.66033,-13.21882c-9.66536,-2.55847 -18.19364,-3.83772 -26.57976,-10.23393c-6.53835,-5.11697 -9.23897,-12.93455 -7.81759,-21.46281c0.14214,-0.28427 0.14214,-0.7107 -0.14214,-0.99496c-13.21882,-9.66536 -24.58983,-31.27032 -26.57976,-46.33693c-2.13208,-16.06158 1.70565,-20.04143 11.37101,-18.76219c-12.79239,-5.82765 -18.05151,-53.72809 -3.69558,-55.00733c14.35592,-1.27924 98.64364,116.69514 132.47244,147.11263z" fill="#99ca43"/><path d="M172.58556,187.9659c3.55346,-1.42138 7.10689,-2.98489 10.5182,-4.8327c-1.42138,1.42138 -2.84276,2.70062 -4.40627,3.97985c-1.56351,1.27924 -3.26916,2.2742 -4.97483,3.26916c-1.8478,0.99496 -3.83772,1.70565 -5.82765,1.98993c-2.13208,0.42642 -4.26413,0.42642 -6.25407,0.14214c-1.98993,-0.28427 -3.97985,-0.85282 -5.82765,-1.56351c-0.99496,-0.28427 -1.8478,-0.7107 -2.84276,-1.13711c-0.85282,-0.42642 -1.8478,-0.85282 -2.70062,-1.42138c-0.99496,-0.7107 -1.70565,-1.42138 -2.41634,-2.41634c-0.7107,-1.13711 -0.85282,-2.41634 -0.56855,-3.69558c0.28427,-0.99496 0.99496,-1.98993 1.70565,-2.84276c0.28427,-0.28427 0.7107,-0.56855 0.99496,-0.85282c-1.98993,0.14214 -3.97985,0.28427 -5.96978,0.14214c-4.40627,-0.14214 -8.6704,-0.85282 -12.93455,-1.98993c-1.98993,-0.56855 -4.122,-1.27924 -6.11192,-2.13208c-0.99496,-0.42642 -1.98993,-0.85282 -2.98489,-1.42138c-0.99496,-0.56855 -1.98993,-1.27924 -2.84276,-1.98993c-2.98489,-2.98489 -5.40123,-6.68047 -6.82261,-10.66033c-3.97985,-1.13711 -8.10186,-1.98993 -12.08171,-3.26916c-4.40627,-1.42138 -8.52827,-3.26916 -12.22386,-5.82765c-3.97985,-2.41634 -7.10689,-5.96978 -8.95469,-10.23393c-1.8478,-4.26413 -2.13208,-8.95469 -1.13711,-13.50309l0.42642,0.14214c-2.98489,-1.70565 -5.68551,-3.97985 -8.10186,-6.53835c-5.54338,-6.11192 -9.94965,-13.07668 -13.07668,-20.75212c-1.56351,-3.83772 -3.12703,-7.67544 -4.26413,-11.51316c-1.13711,-3.83772 -2.13208,-7.95973 -2.84276,-11.93958c-0.28427,-2.13208 -0.42642,-4.26413 -0.28427,-6.39621c0,-2.2742 0.56855,-4.40627 1.70565,-6.39621c0.7107,-1.13711 1.56351,-1.98993 2.55847,-2.70062c0.99496,-0.7107 2.13208,-1.13711 3.26916,-1.42138c0.56855,-0.14214 1.13711,-0.14214 1.70565,-0.28427c-0.85282,-0.99496 -1.70565,-1.98993 -2.2742,-3.12703c-1.42138,-2.41634 -2.70062,-4.97483 -3.55346,-7.67544c-1.8478,-5.25909 -2.98489,-10.80248 -3.55346,-16.34585c-0.7107,-5.54338 -0.28427,-11.22888 0.85282,-16.9144c0.7107,-2.84276 2.13208,-5.54338 4.122,-7.81759c1.13711,-1.13711 2.41634,-1.98993 3.97985,-2.55847l0.56855,-0.14214c0.28427,-0.14214 0.56855,-0.14214 0.85282,-0.14214c0.56855,0 1.13711,0 1.56351,0.14214c0.85282,0.28427 1.56351,0.56855 2.2742,0.99496c2.41634,1.56351 4.69054,3.26916 6.68047,5.25909c1.98993,1.8478 3.97985,3.83772 5.82765,5.82765c3.83772,3.97985 7.53331,8.10186 11.08674,12.22386c7.24903,8.24399 14.21377,16.63013 21.17854,25.01625c13.92951,16.9144 27.71687,33.8288 41.78853,50.45893c7.10689,8.24399 14.21377,16.48798 21.60494,24.4477c3.69558,3.97985 7.53331,7.95973 11.37101,11.79744c3.83772,3.83772 7.95973,7.39116 11.22888,11.93958c-5.25909,-2.2742 -9.09682,-6.25407 -13.21882,-9.94965c-4.122,-3.69558 -7.81759,-7.81759 -11.51316,-11.79744c-7.39116,-7.95973 -14.6402,-16.20371 -21.74709,-24.58983c-14.07163,-16.63013 -27.85901,-33.54453 -41.64639,-50.31678c-6.96474,-8.38612 -14.07163,-16.77226 -21.17854,-25.01625c-3.55346,-4.122 -7.24903,-8.10186 -10.94462,-12.08171c-1.98993,-1.98993 -3.83772,-3.83772 -5.82765,-5.68551c-1.98993,-1.8478 -3.97985,-3.41132 -6.25407,-4.8327c-0.42642,-0.28427 -0.99496,-0.56855 -1.42138,-0.7107c-0.14214,0 -0.42642,0 -0.56855,0c0,0 0,0 -0.14214,0l-0.42642,0.14214c-1.13711,0.42642 -1.98993,0.99496 -2.84276,1.8478c-1.70565,1.8478 -2.84276,4.122 -3.41132,6.53835c-1.13711,5.11697 -1.42138,10.5182 -0.85282,15.77729c0.56855,5.25909 1.70565,10.5182 3.41132,15.63515c0.85282,2.41634 1.98993,4.8327 3.26916,7.10689c1.13711,2.13208 2.84276,3.97985 4.8327,5.11697c0.85282,0.28427 1.13711,1.13711 0.85282,1.8478v0.14214c-0.28427,0.7107 -0.99496,0.99496 -1.70565,0.85282c-1.70565,-0.42642 -3.55346,-0.42642 -5.54338,-0.28427c-1.56351,0.28427 -2.98489,1.27924 -3.83772,2.70062c-0.7107,1.56351 -1.27924,3.26916 -1.27924,5.11697c-0.14214,1.8478 0,3.83772 0.28427,5.68551c0.7107,3.97985 1.56351,7.81759 2.84276,11.51316c1.13711,3.83772 2.55847,7.53331 4.122,11.22888c2.98489,7.39116 7.24903,14.07163 12.50813,20.04143c2.70062,2.98489 5.68551,5.40123 8.95469,7.53331c3.41132,1.98993 6.96474,3.55346 10.80248,4.69054c-1.98993,0.14214 -4.122,0 -6.11192,-0.42642c-1.98993,-0.42642 -3.97985,-1.13711 -5.82765,-2.13208c-0.14214,-0.14214 -0.28427,-0.14214 -0.42642,-0.28427c-0.7107,3.97985 -0.28427,8.10186 1.42138,11.79744c1.70565,3.69558 4.69054,6.96474 8.24399,9.09682c3.55346,2.2742 7.53331,4.122 11.65531,5.25909c4.122,1.27924 8.38612,2.13208 12.65026,3.26916l0.7107,0.14214l0.28427,0.7107c1.27924,3.83772 3.41132,7.24903 6.39621,10.09178c0.85282,0.56855 1.56351,1.13711 2.41634,1.56351c0.7107,0.42642 1.70565,0.85282 2.70062,1.27924c1.8478,0.85282 3.83772,1.56351 5.82765,2.13208c1.98993,0.56855 3.97985,0.99496 5.96978,1.42138c2.13208,0.42642 4.122,0.56855 6.25407,0.85282c4.122,0.42642 8.38612,0.56855 12.65026,1.42138c-1.56351,0.28427 -3.12703,0.56855 -4.69054,0.7107l0.28427,0.42642c-1.27924,1.13711 -2.41634,2.55847 -2.98489,4.122c-0.14214,0.56855 0,1.27924 0.42642,1.8478c0.56855,0.56855 1.13711,1.13711 1.8478,1.56351c0.7107,0.42642 1.56351,0.85282 2.41634,1.13711c0.85282,0.42642 1.70565,0.7107 2.55847,0.99496c1.70565,0.7107 3.55346,1.13711 5.40123,1.27924c3.69558,0.28427 7.39116,-0.28427 10.37606,-1.8478z" fill="#000000"/></g><g id="Path"><path d="M194.33266,137.50698c17.19867,17.05653 4.8327,23.87914 -1.70565,33.68667c-6.53835,9.8075 -18.47791,8.52827 -27.57473,5.11697c-4.69054,-1.8478 -4.26413,-6.96474 0,-8.95469c-8.24399,-0.28427 -16.9144,-0.7107 -24.30557,-4.26413c-5.40123,-2.55847 -6.96474,-5.96978 -9.3811,-10.80248c-8.52827,-1.13711 -15.63515,-1.42138 -23.45274,-6.11192c-6.11192,-3.41132 -9.52324,-10.37606 -8.38612,-17.34082c0.14214,-0.28427 0.14214,-0.56855 0,-0.99496c-13.21882,-5.68551 -30.27535,-26.29549 -19.33074,-32.97598c-10.37606,-13.36096 -6.53835,-21.88922 2.13208,-20.04143c-17.34082,-23.59487 -8.10186,-53.87022 -1.8478,-48.18471c22.88418,17.34082 38.51934,35.96087 58.41863,55.71802c18.90433,18.76219 37.9508,37.80865 55.43374,55.14947z" fill="#99ca43"/><path d="M204.14016,156.12704c0.42642,-3.12703 -0.99496,-5.96978 -2.41634,-8.6704c-1.56351,-2.55847 -3.41132,-5.11697 -5.40123,-7.39116c-1.98993,-2.41634 -4.122,-4.69054 -6.39621,-6.82261c-2.2742,-2.13208 -4.54841,-4.26413 -6.96474,-6.25407c-11.93958,-11.37101 -23.45274,-23.45274 -34.9659,-35.25018c-11.51316,-11.79744 -23.02632,-23.73701 -34.68163,-35.53445c-5.82765,-5.82765 -11.65531,-11.65531 -17.76723,-17.19867c-3.12703,-2.84276 -6.11192,-5.54338 -9.3811,-7.95973c-1.56351,-1.27924 -3.26916,-2.2742 -4.97483,-3.26916c-0.42642,-0.14214 -0.85282,-0.28427 -1.27924,-0.42642c-0.28427,-0.14214 -0.42642,-0.14214 -0.56855,-0.14214c-0.14214,0 -0.28427,0 -0.42642,0c-0.7107,0.28427 -1.42138,0.7107 -1.98993,1.27924c-1.13711,1.42138 -1.8478,3.12703 -2.2742,4.97483c-0.56855,1.8478 -0.85282,3.83772 -0.99496,5.82765c-0.14214,3.97985 0,8.10186 0.7107,12.08171c0.7107,4.122 1.70565,7.95973 3.12703,11.79744c1.27924,3.83772 3.41132,7.24903 6.11192,10.09178c0.42642,0.56855 0.42642,1.27924 0,1.70565v0c-0.28427,0.28427 -0.7107,0.42642 -1.13711,0.28427c-1.42138,-0.56855 -2.98489,-0.42642 -4.40627,0.14214c-1.42138,0.7107 -2.2742,1.98993 -2.41634,3.41132c-0.14214,1.56351 0.14214,3.26916 0.7107,4.69054c0.56855,1.70565 1.42138,3.12703 2.41634,4.54841c2.13208,2.84276 4.40627,5.40123 7.10689,7.67544l3.97985,3.55346c1.42138,1.13711 2.70062,2.41634 3.69558,3.97985c-1.8478,-0.42642 -3.55346,-1.13711 -4.97483,-2.2742c-0.85282,-0.42642 -1.42138,-0.99496 -2.2742,-1.56351c-0.85282,-0.56855 -1.42138,-1.13711 -2.13208,-1.70565c-0.7107,-0.42642 -1.27924,-0.99496 -1.8478,-1.56351c-1.27924,0 -2.70062,0.42642 -3.69558,1.27924c-0.99496,1.42138 -1.27924,3.12703 -0.85282,4.8327c0.85282,3.69558 2.41634,7.24903 4.8327,10.23393c2.41634,3.12703 4.97483,5.96978 7.95973,8.52827c2.98489,2.55847 6.25407,4.8327 9.66536,6.68047l0.7107,0.42642l-0.14214,0.85282c-0.7107,3.41132 -0.14214,6.96474 1.70565,9.94965c1.98993,2.98489 4.69054,5.40123 7.81759,6.82261c3.26916,1.70565 6.68047,2.84276 10.23393,3.41132c3.55346,0.7107 7.24903,1.13711 10.94462,1.56351l0.7107,0.14214l0.28427,0.7107c0.85282,1.8478 1.8478,3.69558 2.84276,5.40123c0.99496,1.56351 2.2742,2.84276 3.97985,3.83772c1.8478,0.85282 3.69558,1.56351 5.54338,2.13208c1.98993,0.56855 3.97985,1.13711 5.96978,1.42138c3.97985,0.7107 8.10186,0.99496 12.22386,0.99496c4.26413,0.28427 8.38612,0 12.65026,0.99496c-3.55346,1.13711 -7.10689,1.70565 -10.80248,1.8478c-1.13711,0.85282 -1.98993,1.98993 -2.41634,3.26916c-0.28427,1.42138 0.42642,2.84276 1.70565,3.41132c0.7107,0.42642 1.42138,0.7107 2.13208,0.99496c0.85282,0.42642 1.56351,0.56855 2.41634,0.85282c1.56351,0.42642 3.12703,0.7107 4.8327,0.85282c3.26916,0.14214 6.53835,-0.42642 9.66536,-1.56351c3.26916,-0.99496 6.39621,-2.2742 9.52324,-3.83772c-1.27924,1.13711 -2.70062,2.2742 -4.122,3.26916c-1.56351,1.13711 -3.12703,1.98993 -4.69054,2.70062c-1.70565,0.7107 -3.41132,1.13711 -5.25909,1.42138c-1.70565,0.42642 -3.55346,0.42642 -5.40123,0.28427c-1.8478,-0.28427 -3.69558,-0.56855 -5.40123,-1.13711c-0.85282,-0.28427 -1.70565,-0.56855 -2.55847,-0.99496c-0.85282,-0.28427 -1.70565,-0.7107 -2.41634,-1.27924c-0.85282,-0.56855 -1.56351,-1.42138 -1.98993,-2.2742c-0.56855,-0.99496 -0.56855,-2.13208 -0.28427,-3.12703c0.42642,-0.99496 0.99496,-1.98993 1.70565,-2.70062c-4.122,0 -8.24399,-0.28427 -12.22386,-0.99496c-2.13208,-0.42642 -4.26413,-0.99496 -6.25407,-1.56351c-0.99496,-0.42642 -1.98993,-0.7107 -2.98489,-1.13711c-0.99496,-0.42642 -1.98993,-0.85282 -2.98489,-1.42138c-1.98993,-1.13711 -3.55346,-2.70062 -4.8327,-4.69054c-0.99496,-1.70565 -1.8478,-3.41132 -2.70062,-5.11697c-3.41132,-0.42642 -6.82261,-0.85282 -10.37606,-1.56351c-3.83772,-0.7107 -7.53331,-1.98993 -10.94462,-3.69558c-3.55346,-1.70565 -6.53835,-4.40627 -8.6704,-7.81759c-1.98993,-3.26916 -2.70062,-7.10689 -2.13208,-10.80248c-6.82261,-3.83772 -12.79239,-9.09682 -17.48295,-15.49301c-2.55847,-3.41132 -4.26413,-7.10689 -5.11697,-11.22888c-0.14214,-1.13711 -0.14214,-2.13208 0,-3.26916c0.14214,-1.13711 0.56855,-2.2742 1.42138,-3.12703c0.85282,-0.85282 1.98993,-1.42138 3.12703,-1.56351c0,0 0.14214,0 0.28427,0c-1.42138,-1.56351 -2.70062,-3.12703 -3.97985,-4.8327c-1.13711,-1.56351 -1.98993,-3.26916 -2.70062,-4.97483c-0.85282,-1.8478 -1.13711,-3.83772 -0.85282,-5.82765c0.28427,-2.2742 1.56351,-4.122 3.55346,-5.11697c0.85282,-0.42642 1.8478,-0.7107 2.84276,-0.7107c-1.98993,-2.55847 -3.55346,-5.40123 -4.54841,-8.52827c-1.42138,-3.97985 -2.41634,-8.10186 -3.12703,-12.22386c-0.56855,-4.26413 -0.85282,-8.38612 -0.7107,-12.65026c0.14214,-2.13208 0.42642,-4.26413 0.85282,-6.39621c0.42642,-2.2742 1.56351,-4.40627 2.98489,-6.11192c0.85282,-0.85282 1.98993,-1.56351 3.26916,-1.8478c0.7107,-0.14214 1.42138,-0.14214 2.13208,0c0.56855,0.28427 1.13711,0.42642 1.70565,0.7107c1.98993,0.99496 3.69558,2.2742 5.40123,3.55346c3.26916,2.55847 6.39621,5.25909 9.52324,8.10186c6.11192,5.68551 12.08171,11.37101 17.90936,17.34082c11.65531,11.65531 23.16846,23.59487 34.68163,35.53445c11.51316,11.79744 23.16846,23.59487 34.9659,34.9659c2.41634,1.98993 4.8327,4.122 7.10689,6.39621c2.2742,2.2742 4.40627,4.54841 6.39621,7.10689c2.13208,2.55847 3.83772,5.25909 5.25909,8.10186c0.7107,1.56351 1.13711,3.12703 1.42138,4.69054c0.42642,1.56351 0.14214,3.26916 -0.42642,3.97985z" fill="#000000"/></g></g><g data-paper-data="{&quot;origPos&quot;:null}" id="Beak" stroke="none" stroke-width="1" stroke-linejoin="miter"><path d="M257.72611,130.82652c0.28427,-3.41132 -6.39621,-16.20371 -5.25909,-18.33578c1.8478,-3.26916 9.23897,-4.26413 11.51316,-1.13711c4.26413,5.82765 -2.2742,17.19867 -6.25407,19.47287" id="Path" fill="#ef632a"/><path d="M266.6808,118.46051c-0.56855,2.98489 -1.56351,5.68551 -3.26916,8.10186c-0.7107,1.13711 -1.56351,2.13208 -2.55847,2.98489c-0.85282,0.42642 -1.56351,0.85282 -2.41634,1.27924c1.70565,-4.40627 5.11697,-7.95973 5.82765,-12.93455c0.42642,-2.2742 0.14214,-4.8327 -1.8478,-6.25407c-1.42138,-0.99496 -3.12703,-1.13711 -4.69054,-0.7107c-1.56351,0.42642 -2.98489,1.13711 -4.26413,2.13208c1.8478,5.40123 5.25909,11.51316 4.8327,17.19867c0,0.28427 -0.14214,0.56855 -0.42642,0.56855c-1.27924,-1.27924 -1.70565,-3.69558 -2.41634,-5.25909c-1.70565,-3.55346 -2.98489,-7.24903 -3.97985,-10.94462c-0.28427,-0.7107 -0.28427,-1.42138 -0.14214,-2.13208c0.85282,-3.83772 7.67544,-5.11697 10.94462,-3.69558c3.69558,1.70565 4.69054,5.96978 4.40627,9.66536z" id="Path" fill="#000104"/></g></g></g></svg>