<svg version="1.1" xmlns="http://www.w3.org/2000/svg" xmlns:xlink="http://www.w3.org/1999/xlink" width="114.06117" height="220.89931" viewBox="0,0,114.06117,220.89931"><g transform="translate(-182.68883,-69.53452)"><g data-paper-data="{&quot;isPaintingLayer&quot;:true}" fill="none" fill-rule="none" stroke="none" stroke-width="none" stroke-linecap="none" stroke-linejoin="none" stroke-miterlimit="10" stroke-dasharray="" stroke-dashoffset="0" font-family="none" font-weight="none" font-size="none" text-anchor="none" style="mix-blend-mode: normal"><g data-paper-data="{&quot;index&quot;:null}" id="Group" fill-rule="evenodd" stroke-linecap="butt" stroke-linejoin="miter"><g id="Path"><path d="M238.43383,144.5c-0.6,8 -10.6,7.9 -13.4,6.4c0,0 8.9,18.2 -5.9,23.2c0,0 0,30.4 -14.4,33.2c-14.4,2.8 -25.4,-19.2 -6.4,-33.7c0,0 -15.7,-10.3 -2.2,-23.7c0,0 -12.9,-8.9 -12.9,-20.4c0,-11.5 8.9,-19 12.1,-19.5c6.7,-1 44,20.7 43.1,34.5z" fill="#2f1917" stroke="none" stroke-width="1"/><path d="M218.23383,121.3c23.3,13.3 20.2,23.2 20.2,23.2c-0.2,8.1 -10.6,7.9 -13.4,6.4c0,0 8.9,18.2 -5.9,23.2c0,0 0,30.4 -14.4,33.2c-14.4,2.8 -25.4,-19.2 -6.4,-33.7c0,0 -15.7,-10.3 -2.2,-23.7c0,0 -12.9,-8.9 -12.9,-20.4c0,-11.5 8.9,-19.1 12.1,-19.5" fill="none" stroke="#000000" stroke-width="1.09"/></g><g id="Path"><path d="M195.43383,213.5c5.3,0.2 10.9,5.6 10.9,10.9v0c0.1,5.3 -4.2,9.6 -9.5,9.6c-5.3,0 -8.9,-3.2 -9.3,-8.5c-0.3,-4.8 2.1,-12.4 7.9,-12z" fill="#2f1917" stroke="none" stroke-width="1"/><path d="M195.43383,213.5c5.3,0.2 10.9,5.6 10.9,10.9v0c0.1,5.3 -4.2,9.6 -9.5,9.6c-5.3,0 -8.9,-3.2 -9.3,-8.5c-0.3,-4.8 2.1,-12.4 7.9,-12z" fill="none" stroke="#000000" stroke-width="1.09"/></g><g><path d="M193.23383,204.6c1.8,0 3.5,0.8 4.7,2.2c2.9,-1.7 6.5,-0.7 8.2,2.2c1.7,2.9 0.7,6.5 -2.2,8.2c-2.6,1.5 -5.9,0.9 -7.7,-1.4c-0.9,0.5 -1.9,0.8 -3,0.8c-3.3,0 -6,-2.7 -6,-6c0,-3.3 2.7,-6 6,-6z" id="Path" fill="#c479c7" stroke="none" stroke-width="1"/><path d="M200.93383,218.1c-3.31371,0 -6,-2.68629 -6,-6c0,-3.31371 2.68629,-6 6,-6c3.31371,0 6,2.68629 6,6c0,3.31371 -2.68629,6 -6,6z" id="Oval" fill="none" stroke="#000000" stroke-width="1.09"/><path d="M196.23383,215.8c-2.9,1.6 -6.5,0.6 -8.2,-2.2c-1.7,-2.8 -0.6,-6.5 2.2,-8.2c2.6,-1.5 5.9,-0.8 7.7,1.5" id="Path" fill="none" stroke="#000000" stroke-width="1.09"/></g></g><g data-paper-data="{&quot;index&quot;:null}" id="Group" fill-rule="evenodd" stroke-linecap="butt" stroke-linejoin="miter"><path d="M257.93383,137.8c3.2,0.3 13,6.1 14.3,15.5c1.3,9.4 -10.5,17.1 -10.5,17.1c15,10.4 0.5,19.4 0.5,19.4c20.7,11.1 12.2,29.5 -2.5,27.7c-14.7,-1.8 -18.2,-26.5 -18.2,-26.5c-15.3,-3.5 -8.6,-18.7 -8.6,-18.7c-2.6,1.3 -12.6,1.8 -14.1,-4.7c-8.9,-39.6 46.5,-29.2 39.1,-29.8z" id="Path" fill="#2f1917" stroke="none" stroke-width="1"/><path d="M257.93383,137.8c3.2,0.2 13,6.1 14.3,15.5c1.3,9.4 -10.5,17.1 -10.5,17.1c15,10.4 0.5,19.4 0.5,19.4c20.7,11.1 12.2,29.5 -2.5,27.7c-14.7,-1.8 -18.2,-26.5 -18.2,-26.5c-15.3,-3.5 -8.6,-18.7 -8.6,-18.7c-2.6,1.3 -13,1.9 -14.1,-4.7c-1.9,-18.7 -1.7,-22.1 20.4,-29.9" id="Path" fill="none" stroke="#000000" stroke-width="1.09"/></g><g data-paper-data="{&quot;index&quot;:null}" id="Group" fill-rule="evenodd"><g id="Shin_L"><g id="Group"><path d="M234.53383,262.6c-3.7,1.9 -14.3,5.5 -17.7,3c-0.7,-0.5 -1.3,-1.2 -1.6,-2c-0.7,-2.1 0.4,-4.4 2.5,-5.2c5.2,-2.1 12.4,-5.9 16.6,-7.9c6.1,-2.8 10.9,-14.2 11.6,-15.2c4.2,-5.6 6.9,-1.7 7.7,-0.8c2.7,3.2 1.2,6.8 -0.1,10c-3.5,8.4 -11,14.1 -19,18.1z" id="Path" fill="#9e5e4c" stroke="#000000" stroke-width="1.09" stroke-linecap="round" stroke-linejoin="miter"/><path d="M240.73383,244c2.2,3 4.6,7.4 8.7,7.5c-6.9,6.8 -20.9,16.9 -31,14.7c-1,-0.2 -6,-3.7 -1.5,-7.1c5.4,-4.3 20.4,-7.3 23.8,-15.1z" id="Path" fill="#f0f2fb" stroke="none" stroke-width="1" stroke-linecap="butt" stroke-linejoin="miter"/><path d="M234.53383,262.6c-3.7,1.9 -14.3,5.5 -17.7,3c-0.7,-0.5 -1.3,-1.2 -1.6,-2c-0.7,-2.1 0.4,-4.4 2.5,-5.2c5.2,-2.1 12.4,-5.9 16.6,-7.9c6.1,-2.8 10.9,-14.2 11.6,-15.2c4.2,-5.6 6.9,-1.7 7.7,-0.8c2.7,3.2 1.2,6.8 -0.1,10c-3.5,8.4 -11,14.1 -19,18.1z" id="Path" fill="none" stroke="#000000" stroke-width="1.09" stroke-linecap="round" stroke-linejoin="miter"/><path d="M249.43383,251.5c-3.6,-1 -6.6,-3.6 -8.1,-7.1" id="Path" fill="none" stroke="#000000" stroke-width="0.73" stroke-linecap="round" stroke-linejoin="round"/></g></g><g id="Foot_L" fill="#c9cfe3" stroke="#000000" stroke-width="1" stroke-linecap="round" stroke-linejoin="round"><path d="M225.93383,265.8c-1.6,4.6 1.1,10.8 6,13.2c3.3,1.6 4.7,4.6 3.4,8.1c-1,2.7 -7.9,3.4 -10.8,2.4c-5.8,-2 -7.4,-5.8 -12.1,-17.8c-4.7,-12 6.1,-13.7 6.1,-13.7c-0.6,4.4 7.3,7.7 7.4,7.8z" id="Path"/></g></g><g data-paper-data="{&quot;index&quot;:null}" id="Group" fill-rule="evenodd" stroke-linecap="butt" stroke-linejoin="miter"><path d="M259.33383,203.6c0,0 23.1,14.9 12.4,41.3c0,0 -0.6,1.4 -3.7,1.5c-3.1,0.1 -22.2,2.1 -31.6,-12.5c0,0 1.5,-8 2.8,-11.3c1.3,-3.3 -1.2,-21.2 5.1,-22.5c6.3,-1.3 15,3.5 15,3.5z" id="Path" fill="#93aa59" stroke="none" stroke-width="1"/><path d="M259.33383,203.6c0,0 23.1,14.9 12.4,41.3c0,0 -0.6,1.4 -3.7,1.5c-3.1,0.1 -22.2,2.1 -31.6,-12.5c0,0 1.5,-8 2.8,-11.3c1.3,-3.3 -1.2,-21.2 5.1,-22.5c6.3,-1.3 15,3.5 15,3.5z" id="Path" fill="none" stroke="#000000" stroke-width="1.09"/><path d="M272.13383,219.8c-2.1,0.5 -15.2,-0.5 -13.1,-14.3" id="Path" fill="none" stroke="#000000" stroke-width="0.73"/></g><g data-paper-data="{&quot;index&quot;:null}" id="Group" fill-rule="evenodd"><g id="Leg_R-2"><g id="Group"><path d="M248.13383,237.4c1.8,4.2 18.4,35.3 18.7,36.5c0,0 4.1,7.4 -1.9,9.9c-6.5,2.7 -7.8,-1.8 -8.6,-3.9c-0.5,-1.4 -16.5,-33 -17.4,-35c-5.5,-13.1 7.2,-12.2 9.2,-7.5z" id="Path" fill="#9e5e4c" stroke="#000000" stroke-width="1.09" stroke-linecap="round" stroke-linejoin="miter"/><path d="M255.53383,251.8c1.7,4.2 11,20.8 11.3,22c0,0 4.1,7.4 -1.9,9.9c-6.5,2.7 -7.8,-1.8 -8.6,-3.9c-0.6,-1.4 -9,-18.7 -10.7,-22.1c5.4,-0.8 9.9,-5.8 9.9,-5.9z" id="Path" fill="#f0f2fb" stroke="none" stroke-width="1" stroke-linecap="butt" stroke-linejoin="miter"/><path d="M248.13383,237.4c1.8,4.2 18.4,35.3 18.7,36.5c0,0 4.1,7.4 -1.9,9.9c-6.5,2.7 -7.8,-1.8 -8.6,-3.9c-0.5,-1.4 -16.5,-33 -17.4,-35c-5.5,-13.1 7.2,-12.2 9.2,-7.5z" id="Path" fill="none" stroke="#000000" stroke-width="1.09" stroke-linecap="round" stroke-linejoin="miter"/><path d="M255.33383,251.8c-0.4,0.9 -5.6,6.1 -10.1,5.3" id="Path" fill="none" stroke="#000000" stroke-width="0.73" stroke-linecap="round" stroke-linejoin="round"/></g></g><g id="Foot_R" fill="#c9cfe3" stroke="#000000" stroke-width="1" stroke-linecap="round" stroke-linejoin="round"><path d="M266.4655,273.97649c1.2,-1.2 2.6,-2.3 4,-3.2c0,0 5.8,-8.2 11.6,-9.2c4.4,-0.7 10.4,3.4 3.6,12.5c-8,10.6 -21.2,17.1 -25.4,13.8c-1.3,-1 -3.4,-5 -3.6,-7.7c0,0 4.9,0.5 9.8,-6.2z" id="Path"/></g></g><g data-paper-data="{&quot;index&quot;:null}" id="Group" fill-rule="evenodd"><g id="Leg_Near" stroke-linecap="butt" stroke-linejoin="miter"><g id="Group"><path d="M253.03383,226.1c0.2,2.1 -2.6,1.8 -4,3.5c-0.4,0.4 5.5,10 4.8,11.3c-2,3.7 -8.5,10.3 -36.8,9.9c-2,0 -4.5,-24.6 2,-35c3.6,-5.8 12.1,-16 19.8,-9.1c1.9,1.6 13.1,11.7 14.2,19.4z" id="Path" fill="#93aa59" stroke="none" stroke-width="1"/><g id="Path" fill="none" stroke="#000000" stroke-width="0.73"><path d="M216.13383,224.4c3.8,-1.9 21.4,-8.1 26.5,4.1c2.5,6.2 -11,19 -27.7,14.8"/><path d="M239.13383,223.7c0,0 -7.9,15.7 -24.2,11.7"/><path d="M230.63383,242.7c-1.5,-2.4 -2.5,-5.4 -2.8,-8.2"/><path d="M221.63383,244.1c-0.9,-1.6 -0.6,-7.9 -0.6,-7.9"/></g></g></g><g id="Pelvis" fill="none" stroke="#000000" stroke-width="1.09" stroke-linecap="round" stroke-linejoin="round"><path d="M253.03383,227l-4.2,2.6c0,0 4.9,9.8 4.8,11.3c0,2.2 -11.2,10.6 -36.8,9.9c-3,-0.1 -3.7,-21.5 1.2,-32.7c3.1,-7.1 11.9,-14.9 16.9,-14" id="Path"/></g></g><g data-paper-data="{&quot;index&quot;:null}" id="Group" fill-rule="evenodd"><g id="Path"><path d="M267.43383,169.8c2.2,1.5 11.3,14.6 13,18.5c1.7,3.9 0.1,4.9 -1.9,6c-2,1.1 -3.5,-0.6 -5.2,-3.7c-1.7,-3.1 -11.3,-13.2 -11.3,-13.2c-3.2,-4.8 3.2,-9.1 5.4,-7.6z" fill="#9e5e4c" stroke="none" stroke-width="1" stroke-linecap="butt" stroke-linejoin="miter"/><path d="M267.43383,169.8c2.2,1.5 11.3,14.6 13,18.5c1.7,3.9 0.1,4.9 -1.9,6c-2,1.1 -3.5,-0.6 -5.2,-3.7c-1.7,-3.1 -11.3,-13.2 -11.3,-13.2c-3.2,-4.8 3.2,-9.1 5.4,-7.6z" fill="none" stroke="#030305" stroke-width="0.91" stroke-linecap="round" stroke-linejoin="round"/></g><g id="Path"><path d="M253.03383,163.1c2.4,-3.2 7.8,-4 11.7,-2.8c2,0.6 9.7,7.9 11.8,11.2c0.3,0.5 1.2,1.6 -1.8,4c0,0 -12.9,10.1 -14.4,8.1c-4.4,-6 -8.8,-6.5 -9.8,-7.9c-2.8,-3.9 -0.2,-9.1 2.5,-12.6z" fill="#aff4f5" stroke="none" stroke-width="1" stroke-linecap="butt" stroke-linejoin="miter"/><path d="M253.03383,163.1c2.4,-3.2 7.8,-4 11.7,-2.8c2,0.6 9.7,7.9 11.8,11.2c0.3,0.5 1.2,1.6 -1.8,4c0,0 -12.9,10.1 -14.4,8.1c-4.4,-6 -8.8,-6.5 -9.8,-7.9c-2.8,-3.9 -0.2,-9.1 2.5,-12.6z" fill="none" stroke="#030305" stroke-width="0.91" stroke-linecap="round" stroke-linejoin="round"/></g></g><g data-paper-data="{&quot;index&quot;:null}" id="Torso" fill-rule="evenodd"><path d="M254.63383,164.8c3.4,3 6.9,11.1 6.9,16.8c0,15.1 1.4,18.9 0.7,21c-0.7,2.1 -26.1,3.9 -27.5,-0.5c-1.4,-4.4 -5.8,-40.5 -4.1,-41.4c5.1,-2.8 11.4,-2.4 17.2,-1.2c2.2,0.4 5,3.9 6.8,5.3z" id="Path" fill="#aff4f5" stroke="none" stroke-width="1" stroke-linecap="butt" stroke-linejoin="miter"/><path d="M253.23383,162c2.4,3.5 -18.2,4.4 -21.2,-1.6c1.4,-2.8 18.8,-2 21.2,1.6z" id="Path" fill="#9e5e4c" stroke="none" stroke-width="1" stroke-linecap="butt" stroke-linejoin="miter"/><path d="M259.63383,170.2c0.7,1.2 1.2,2.5 1.6,3.8c0.7,2.7 1.1,5.4 1,8.2c0,5.4 0.2,10.8 0.7,16.2c0,0.7 0.1,1.4 0.1,2.1c0,0.4 0,0.7 0,1.1c0,0.2 0,0.4 -0.1,0.6l-0.1,0.3c0,0.1 -0.1,0.1 -0.1,0.2c0,0.1 0,0.1 -0.1,0.2c-0.3,0.3 -0.7,0.5 -1.1,0.6c-0.3,0.1 -0.7,0.2 -1,0.3c-0.7,0.2 -1.3,0.3 -2,0.4c-2.7,0.4 -5.5,0.7 -8.2,0.8c-2.7,0.1 -5.5,0.1 -8.2,-0.1c-1.4,-0.1 -2.8,-0.3 -4.1,-0.6c-0.7,-0.2 -1.4,-0.4 -2,-0.7c-0.4,-0.1 -0.7,-0.3 -1,-0.6c-0.3,-0.3 -0.5,-0.7 -0.6,-1.1c-0.6,-2.7 -1,-5.4 -1.4,-8.1c-0.4,-2.7 -0.8,-5.4 -1.1,-8.1c-0.7,-5.4 -1.3,-10.8 -1.7,-16.2c-0.1,-1.4 -0.2,-2.7 -0.2,-4.1c-0.1,-1.4 -0.1,-2.8 0,-4.2c0,-0.2 0,-0.4 0.1,-0.6c0.1,-0.2 0.1,-0.3 0.2,-0.4l0.1,-0.1l0.1,-0.1h0.1l0.9,-0.5l1,-0.4l1,-0.3c1.3,-0.4 2.7,-0.7 4.1,-0.8c2.7,-0.2 5.5,-0.1 8.2,0.4c1.4,0.2 2.7,0.5 4,0.9c1.4,0.5 2.6,1.2 3.7,2.1l0.1,0.1c0.2,0.2 0.2,0.5 0,0.7c-0.2,0.2 -0.5,0.2 -0.7,0c-1,-0.8 -2.2,-1.4 -3.4,-1.9c-1.3,-0.4 -2.6,-0.7 -3.9,-0.9c-2.6,-0.5 -5.3,-0.6 -8,-0.4c-1.3,0.2 -2.6,0.4 -3.9,0.8l-0.9,0.3l-0.9,0.4l-1,0.5l-0.1,0.1v0.1c0,0.1 -0.1,0.3 -0.1,0.4c-0.1,1.3 -0.1,2.7 0,4c0,1.3 0.1,2.7 0.2,4c0.4,5.4 1,10.8 1.7,16.2c0.4,2.7 0.7,5.4 1.1,8.1c0.4,2.7 0.8,5.4 1.4,8c0.2,0.5 0.6,0.9 1.1,1.1c0.6,0.2 1.2,0.5 1.8,0.6c1.3,0.3 2.7,0.5 4,0.6c2.7,0.2 5.4,0.2 8.1,0.1c2.7,-0.1 5.4,-0.4 8.1,-0.8c0.7,-0.1 1.4,-0.2 2,-0.4l0.9,-0.3c0.2,-0.1 0.5,-0.2 0.7,-0.4c0,0 0,0.1 0,0v-0.2c0.1,-0.1 0.1,-0.2 0.1,-0.4c0,-0.3 0,-0.7 0,-1c0,-0.6 0,-1.3 -0.1,-2c-0.5,-5.4 -0.7,-10.9 -0.7,-16.3c0.1,-2.6 -0.3,-5.3 -1,-7.9c-0.3,-1.3 -0.9,-2.5 -1.5,-3.7c-0.6,-1.2 -1.4,-2.2 -2.1,-3.4c1.3,0.6 2.3,1.6 3.1,2.7z" id="Path" fill="#030305" stroke="none" stroke-width="1" stroke-linecap="butt" stroke-linejoin="miter"/><path d="M253.23383,162.3c-1,4.2 -18.2,4 -21.2,-1.9" id="Path" fill="none" stroke="#030305" stroke-width="0.91" stroke-linecap="round" stroke-linejoin="miter"/><g id="Group"><path d="M262.33383,199.1c0,0 1,5.2 -0.3,6.5c-4.5,4.6 -24,3.1 -27.8,1.7c-0.4,-0.1 -0.6,-5.2 0.3,-7.6c5.1,1.7 24.3,1.6 27.8,-0.6z" id="Path" fill="#d03b46" stroke="none" stroke-width="1" stroke-linecap="butt" stroke-linejoin="miter"/><path d="M262.33383,199.1c0,0 1,5.2 -0.3,6.5c-4.5,4.6 -24,3.1 -27.8,1.7c-0.4,-0.1 -0.6,-5.2 0.3,-7.6c5.1,1.7 24.3,1.6 27.8,-0.6z" id="Path" fill="none" stroke="#000000" stroke-width="1.09" stroke-linecap="round" stroke-linejoin="round"/><path d="M258.93383,200.1c0.1,2.4 0,4.8 -0.2,7.2" id="Path" fill="none" stroke="#000000" stroke-width="0.73" stroke-linecap="round" stroke-linejoin="round"/></g></g><g data-paper-data="{&quot;index&quot;:null}" id="Group" fill-rule="evenodd" stroke-linejoin="miter"><path d="M235.43383,160.4c0.5,-1.3 -0.4,-10 -0.3,-11.9c0.1,-1.9 2.9,-4 7.2,-3.5c4.3,0.5 6.3,5.7 6.3,8.6c0,2.9 0.2,7.9 0.2,7.9c0,1 -2.3,1.9 -6.5,1.4c-3.7,-0.5 -7.2,-1.9 -6.9,-2.5z" id="Path" fill="#9e5e4c" stroke="none" stroke-width="1" stroke-linecap="butt"/><path d="M235.23383,160.3c0.3,-1.3 -0.2,-10 -0.1,-11.9c0.1,-1.9 2.9,-4.1 7.2,-3.5c4.3,0.6 6.3,5.7 6.3,8.6c0,2.9 0.4,7.9 0.4,7.9" id="Path" fill="none" stroke="#000000" stroke-width="0.91" stroke-linecap="round"/></g><g data-paper-data="{&quot;index&quot;:null}" id="Group" fill-rule="evenodd"><path d="M232.93383,191.2c12.3,0 23.2,5.6 23.3,20.1c0.1,11.7 -11.7,16 -23.9,16c-12.2,0 -21.8,-6.9 -22.2,-15.1c-0.7,-14.4 10.5,-21 22.8,-21z" id="Path" fill="#d03b46" stroke="none" stroke-width="1" stroke-linecap="butt" stroke-linejoin="miter"/><path d="M232.93383,191.2c12.3,0 23.2,5.6 23.3,20.1c0.1,11.7 -11.7,16 -23.9,16c-12.2,0 -21.8,-6.9 -22.2,-15.1c-0.7,-14.4 10.5,-21 22.8,-21z" id="Path" fill="none" stroke="#000000" stroke-width="1.09" stroke-linecap="round" stroke-linejoin="round"/><path d="M250.03383,222.8c-5.6,2.4 -5,-6.4 -4.1,-13.4c0.9,-7 4.8,-9.4 7.1,-8.4" id="Path" fill="none" stroke="#000000" stroke-width="0.73" stroke-linecap="round" stroke-linejoin="round"/><path d="M211.63383,203.9c10.3,-2.5 23.9,-0.8 35,2.5l-0.9,3.2c0,0 -29.5,-5.1 -34.9,-2.4" id="Path" fill="#f24646" stroke="none" stroke-width="1" stroke-linecap="butt" stroke-linejoin="miter"/><path d="M211.63383,203.9c10.3,-2.6 24,-0.8 35,2.5" id="Path" fill="none" stroke="#000000" stroke-width="0.73" stroke-linecap="round" stroke-linejoin="round"/><path d="M210.83383,207.2c5.4,-2.7 29.1,0.7 34.9,2.4" id="Path" fill="none" stroke="#000000" stroke-width="0.73" stroke-linecap="round" stroke-linejoin="round"/></g><g data-paper-data="{&quot;index&quot;:null}" id="Group" fill-rule="evenodd"><path d="M194.43383,102.5c0.7,-28.2 35.4,-33.8 56.6,-32.2c22.5,1.6 41.4,9.2 34,42.1c-1.4,6.5 -9.6,28.3 -9.6,28.3c1,1.3 1.5,2.8 1.7,4.4c0.1,2.4 -0.8,4.7 -2.6,6.2c-6.8,5.8 -24.5,4.6 -34.3,2.3c-22.6,-6.6 -46.3,-31.2 -45.8,-51.1z" id="Path" fill="#9e5e4c" stroke="none" stroke-width="1" stroke-linecap="butt" stroke-linejoin="miter"/><path d="M194.23383,102c0,-28.2 35.5,-33.3 56.7,-31.7c18.6,1.3 34.7,6.7 35.7,27c-0.1,0.1 -6,-20.4 -24.6,-5.6c-5.8,-4.6 -26,-13.7 -37.7,12.1c-1.9,4.2 -3.2,17 -3.6,24.7c-2,-9 -15,-13.4 -20.5,-6.7c-1.9,-0.6 -1.9,-1.1 -2.6,-2.9c-2.1,-5.4 -3.3,-11.1 -3.4,-16.9z" id="Path" fill="#2f1917" stroke="none" stroke-width="1" stroke-linecap="butt" stroke-linejoin="miter"/><path d="M235.33383,151.7c-14.1,-5.8 -18.8,-9.4 -26.1,-23.3" id="Path" fill="none" stroke="#000000" stroke-width="1.09" stroke-linecap="round" stroke-linejoin="miter"/><path d="M195.33383,110c-7.7,-34.8 34.5,-41.3 55.7,-39.7c22.5,1.6 41.4,9.2 34,42.1c-1.4,6.5 -9.6,28.3 -9.6,28.3c1,1.3 1.5,2.8 1.7,4.4c0.1,2.4 -0.8,4.7 -2.6,6.2c-6.8,5.8 -24.5,4.6 -34.3,2.3" id="Path" fill="none" stroke="#000000" stroke-width="1.09" stroke-linecap="round" stroke-linejoin="miter"/><path d="M220.73383,128.5c0.4,-7.7 1.7,-20.5 3.6,-24.7c11.7,-25.8 31.9,-16.7 37.7,-12.1c18.5,-14.8 24.5,6 24.5,6" id="Path" fill="none" stroke="#000000" stroke-width="1.09" stroke-linecap="round" stroke-linejoin="round"/><g id="Path"><path d="M223.23383,142.6c-13.3,8.4 -25.3,-4.5 -25.4,-12.4c-0.2,-13.3 16.4,-17.1 22.9,-1.7" fill="#9e5e4c" stroke="none" stroke-width="1" stroke-linecap="butt" stroke-linejoin="miter"/><path d="M223.23383,142.6c-13.3,8.4 -25.2,-4.5 -25.4,-12.4c-0.4,-17.1 20.4,-13.3 22.9,-1.7" fill="none" stroke="#000000" stroke-width="1.09" stroke-linecap="round" stroke-linejoin="round"/></g><path d="M208.53383,112.5l0.4,0.1l0.7,0.3c0.5,0.2 0.9,0.4 1.4,0.7c0.9,0.5 1.8,1.1 2.5,1.9c0.8,0.7 1.4,1.6 1.8,2.6c0.2,0.5 0.4,1 0.5,1.5c0.1,0.3 0.1,0.6 0.2,0.8c0.1,0.3 0,0.6 -0.2,0.8c-0.3,-0.1 -0.5,-0.4 -0.5,-0.7c-0.1,-0.2 -0.1,-0.5 -0.2,-0.7c-0.1,-0.5 -0.3,-0.9 -0.5,-1.4c-0.4,-0.9 -0.9,-1.7 -1.6,-2.4c-0.7,-0.7 -1.5,-1.3 -2.4,-1.8c-0.4,-0.2 -0.8,-0.4 -1.3,-0.6l-0.7,-0.3l-0.4,-0.1c-0.1,-0.2 -0.2,-0.3 -0.2,-0.5c0.1,-0.1 0.3,-0.2 0.5,-0.2z" id="Path" fill="#000000" stroke="none" stroke-width="1" stroke-linecap="butt" stroke-linejoin="miter"/></g><g data-paper-data="{&quot;index&quot;:null}" id="Group_14_" stroke="#000000" stroke-width="0.5" stroke-linecap="butt"><path d="M256.83383,178.8c-0.4,-3.6 -1.1,-6.8 -1.9,-9.8c-0.5,-1.6 -1.1,-3.2 -1.8,-4.6c-0.7,-1.4 -2.2,-3.2 -3.4,-4.1c-0.2,-0.2 -0.3,-0.5 -0.1,-0.8c0.2,-0.2 0.5,-0.3 0.8,-0.1c1.3,1 3,2.9 3.7,4.5c0.6,1.5 1.3,3.1 1.8,4.8c0.8,3.1 1.5,6.3 1.9,10c0,0.3 -0.2,0.6 -0.6,0.6c-0.3,0 -0.5,-0.2 -0.4,-0.5z" id="Path_57_" fill="#f9febb" fill-rule="evenodd" stroke-linejoin="miter"/><path d="M255.53383,182.9c-2,0 -3.6,-1.6 -3.7,-3.6c0.1,-2 1.7,-3.6 3.7,-3.7c2.7,-0.2 4.4,2.4 2.9,5.9l2.3,6.4c-0.3,0.7 -0.7,1.5 -1.2,2.1l-1.7,-0.3z" id="Path_58_" fill="#f8c278" fill-rule="evenodd" stroke-linejoin="miter"/><path d="M253.93383,182.7c-2,0 -3.7,-1.6 -3.7,-3.7c0,-2.1 1.6,-3.6 3.7,-3.6c2,0 4.7,2.4 3.1,6.8l2.1,5.5c-0.3,0.7 -0.7,1.5 -1.2,2.1l-1.7,-0.3z" id="Path_59_" fill="#c6c4bf" fill-rule="evenodd" stroke-linejoin="round"/><path d="M252.53383,183c-2,0 -3.6,-1.6 -3.6,-3.7c0.1,-2 1.7,-3.6 3.6,-3.6c2.7,-0.2 4.4,2.4 2.9,5.9l2.3,6.4c-0.3,0.8 -0.7,1.5 -1.1,2.1l-1.7,-0.3z" id="Path_60_" fill="#c6c4bf" fill-rule="evenodd" stroke-linejoin="round"/><path d="M249.63383,176.4c3.1,-1 6.6,1.1 4,5.5l2.1,5.6c0.1,0.4 0.2,0.8 0.1,1.2c-0.1,0.5 -1.1,0.9 -1.4,1.2l-0.8,-1.1l0.9,-0.7l-0.7,-1.1h-1.5l0.2,-1.2l-1.1,-3.2c-3.9,0.9 -4.7,-5.3 -1.8,-6.2zM251.43383,181.4c1.2,-0.1 2,-1.1 1.9,-2.2c-0.1,-1.2 -1.1,-2 -2.2,-1.9c-1.1,0.1 -2,1 -1.9,2.2c0,1.1 1,2 2.2,1.9c-0.1,0 -0.1,0 0,0z" id="Shape" fill="#c6c4bf" fill-rule="nonzero" stroke-linejoin="round"/><path d="M250.33383,176.5c1.8,0 3.3,1.5 3.3,3.3c0,1.1 -0.5,2.1 -1.4,2.7c0,0 0.3,2.1 0.7,1.9c0.6,-0.2 1.2,0.1 1.3,0.7c0.1,0.6 -0.8,0.8 -0.8,0.8c0,0 0.4,1.4 0.3,1.5c-0.5,0.5 -1.3,-0.1 -1.4,-0.2c-0.4,-1.1 -1.5,-4.4 -1.5,-4.4c-1.8,0.2 -3.5,-1.1 -3.8,-2.9c0,-0.1 0,-0.1 0,-0.2c0,-1.7 1.4,-3.2 3.3,-3.2zM250.23383,181.8c1.2,0 2.1,-0.9 2.1,-2.1c0,-1.2 -0.9,-2.1 -2.1,-2.1c-1.2,0 -2.1,0.9 -2.1,2.1c0,1.2 0.9,2.1 2.1,2.1z" id="Shape_1_" fill="#c6c4bf" fill-rule="nonzero" stroke-linejoin="miter"/><path d="M233.43383,161.1c-0.6,-1.6 -0.3,-2.9 0.6,-3.7c0.2,-0.2 0.6,-0.1 0.8,0.1c0.2,0.2 0.1,0.6 -0.1,0.8c-0.2,0.2 -0.8,0.7 -0.3,2.4c1.9,6.2 15.3,17.5 16.8,17.7c0.3,0 0.5,0.3 0.5,0.6c-0.1,0.3 -0.3,0.5 -0.6,0.5c-2.2,-0.2 -15.7,-12 -17.7,-18.4z" id="Path_61_" fill="#f9febb" fill-rule="evenodd" stroke-linejoin="miter"/></g><g data-paper-data="{&quot;index&quot;:null}" id="Group" fill-rule="evenodd"><g id="Path" fill="#000000" stroke="none" stroke-width="1" stroke-linecap="butt" stroke-linejoin="miter"><path d="M265.93383,133.1c1.1,0.6 2,1.5 2.7,2.6c0.4,0.5 0.6,1.1 0.7,1.8c0.2,0.7 0,1.4 -0.4,2c-0.4,0.6 -1.1,0.9 -1.8,0.9c-0.3,0 -0.7,-0.1 -1,-0.2c-0.3,-0.2 -0.5,-0.3 -0.8,-0.5c0.3,0 0.6,0 0.9,0.1c0.2,0 0.5,0 0.8,0c0.5,0 1,-0.3 1.3,-0.7c0.5,-1 0.4,-2.2 -0.3,-3.1c-0.6,-1 -1.4,-1.9 -2.4,-2.5c-0.5,-0.3 -1,-0.6 -1.5,-0.9c-0.6,-0.2 -1.1,-0.5 -1.6,-0.9c1.3,0.2 2.5,0.6 3.4,1.4z"/><path d="M256.83383,140.3c-0.4,0.2 -0.7,0.3 -1.1,0.4c-0.8,0.2 -1.5,0.2 -2.3,0.2c-0.4,-0.1 -0.9,-0.2 -1.2,-0.5c-0.4,-0.3 -0.6,-0.8 -0.5,-1.3c0.1,-0.8 0.5,-1.5 1.2,-2c-0.1,0.8 -0.5,1.4 -0.5,2c-0.1,0.3 0,0.5 0.2,0.7c0.2,0.2 0.5,0.3 0.8,0.3c0.7,0.1 1.4,0.1 2.1,-0.1c0.3,0 0.7,-0.1 1,-0.2c0.4,-0.1 0.7,-0.2 1.1,-0.2c-0.2,0.3 -0.5,0.6 -0.8,0.7z"/></g><g id="Path"><path d="M232.73383,111.8c14.2,-10.3 24.2,1.4 22.6,16.8c0,0 -1.4,2.4 -3.2,2.6c-5.1,1.4 -18.7,4.2 -20.9,-17.2c0.3,-0.9 0.8,-1.7 1.5,-2.2z" fill="#ffffff" stroke="none" stroke-width="1" stroke-linecap="butt" stroke-linejoin="miter"/><path d="M252.63383,125.7c-0.2,0.3 -0.4,0.5 -0.7,0.7c-0.7,0.4 -1.7,0.2 -2.2,-0.6c-1.2,-1.7 -0.9,-5.3 0.1,-6.8c0.8,-1.2 2.1,-1.3 2.9,0c0.5,1 0.8,2.2 0.6,3.4c0.1,1.1 -0.2,2.3 -0.7,3.3z" fill="#000000" stroke="none" stroke-width="1" stroke-linecap="butt" stroke-linejoin="miter"/><path d="M232.03383,112.3c14.1,-12.1 26.3,2.6 23.3,16.8" fill="none" stroke="#000000" stroke-width="0.73" stroke-linecap="round" stroke-linejoin="round"/><path d="M252.83383,131.2c-5.1,1.4 -19.3,4.1 -21.5,-17.2" fill="none" stroke="#000000" stroke-width="0.73" stroke-linecap="round" stroke-linejoin="round"/></g><g id="Path"><path d="M264.13383,126.2c-1,-19.3 10.6,-18.7 15.7,-17.2c1.2,0.3 1.7,2.2 1.7,2.2c1.2,6.4 -3.1,21.8 -15,18.6c0,-0.1 -2.3,-1.4 -2.4,-3.6z" fill="#ffffff" stroke="none" stroke-width="1" stroke-linecap="butt" stroke-linejoin="miter"/><path d="M270.03383,125c-0.3,0.6 -0.5,1.1 -1.3,1.1c-0.7,0.1 -1.3,-0.3 -1.5,-0.9c-1.1,-2.2 -1,-4.7 0.3,-6.8c0.3,-0.4 0.4,-1.1 1.1,-0.9c0.6,0.2 1,0.6 1.2,1.2c0.4,1 0.6,2.1 0.5,3.2c0.2,1.1 0,2.3 -0.3,3.1z" fill="#000000" stroke="none" stroke-width="1" stroke-linecap="butt" stroke-linejoin="miter"/><path d="M264.03383,127.3c-2.4,-20.6 12.5,-20.4 16.3,-18.1" fill="none" stroke="#000000" stroke-width="0.73" stroke-linecap="round" stroke-linejoin="round"/><path d="M281.43383,111.2c1.2,6.4 -3.4,22 -15.2,18.8" fill="none" stroke="#000000" stroke-width="0.73" stroke-linecap="round" stroke-linejoin="round"/></g><path d="M255.93383,94.8c1.3,0.9 1.4,2.7 0.8,3.3c-0.6,0.6 -2.3,-1.6 -3.3,-2.3c-2.4,-1.6 -6.5,-1.8 -6.6,-2.4c-0.1,-0.6 5.3,-1.3 9.1,1.4z" id="Path" fill="#000000" stroke="none" stroke-width="1" stroke-linecap="butt" stroke-linejoin="miter"/><path d="M265.53383,98.1c0,0 -1.5,1.6 -1.4,-0.3c0.1,-1.9 5.1,-6.2 9.3,-5.3c0,0 1.5,0.6 0.6,0.9c-0.9,0.3 -5.6,0.6 -8.5,4.7z" id="Path" fill="#000000" stroke="none" stroke-width="1" stroke-linecap="butt" stroke-linejoin="miter"/></g><g data-paper-data="{&quot;index&quot;:null}" id="Group" fill-rule="evenodd"><path d="M268.33383,143.1c-0.5,-0.5 -1.2,-0.8 -1.9,-1c-1.4,-0.3 -2.9,-0.3 -4.4,-0.1c-1.5,0.2 -2.9,0.6 -4.3,1.2c-1.4,0.6 -2.6,1.4 -3.7,2.5c0.9,-1.3 2.1,-2.3 3.5,-3c1.3,-0.7 2.9,-1.2 4.4,-1.4c1.6,-0.3 3.2,-0.2 4.7,0.2c0.8,0.2 1.5,0.7 2,1.3c0.5,0.7 0.7,1.5 0.4,2.3c0.1,-0.8 -0.2,-1.5 -0.7,-2z" id="Path" fill="#000000" stroke="none" stroke-width="1" stroke-linecap="butt" stroke-linejoin="miter"/><g id="Path" stroke="none" stroke-width="1" stroke-linecap="butt" stroke-linejoin="miter"><path d="M267.33383,152.6c-0.9,3.1 -7.9,7.1 -12.7,0.8" fill="#9e5e4c"/><path d="M267.13383,153.7c-0.2,0.3 -0.4,0.5 -0.6,0.8c-0.3,0.3 -0.6,0.5 -0.8,0.7c-0.2,0.2 -0.5,0.4 -0.8,0.6c-1.1,0.8 -2.4,1.2 -3.8,1.3c-1.3,0.1 -2.7,-0.2 -3.9,-0.8c-0.5,-0.4 -1.1,-0.8 -1.6,-1.2c-0.3,-0.2 -0.5,-0.4 -0.7,-0.7c-0.2,-0.2 -0.4,-0.6 -0.4,-0.9c0.8,0.2 1.1,0.7 1.6,1.1c0.5,0.4 1,0.8 1.5,1.1c1.1,0.5 2.3,0.8 3.5,0.7c1.3,-0.1 2.5,-0.5 3.5,-1.2c0.3,-0.1 0.6,-0.2 0.8,-0.5c0.2,-0.3 0.4,-0.5 0.6,-0.7c0.2,-0.2 0.4,-0.5 0.6,-0.7c0.2,-0.3 0.4,-0.5 0.7,-0.7c0.1,0.3 0.1,0.7 -0.2,1.1z" fill="#000000"/></g><g id="Path"><path d="M265.13383,147.2c-0.2,0.9 -3.4,3.3 -4.7,0.3" fill="none" stroke="#000000" stroke-width="0.73" stroke-linecap="round" stroke-linejoin="round"/><path d="M262.93383,146.1c0.9,0 1.7,0.4 2.2,1.1c-0.2,0.9 -3.4,3.3 -4.7,0.3c0.1,0.1 1.6,-1.3 2.5,-1.4z" fill="#000000" stroke="none" stroke-width="1" stroke-linecap="butt" stroke-linejoin="miter"/><path d="M259.53383,148.4c0.9,-1.3 5.5,-4.1 6.3,-0.1" fill="none" stroke="#000000" stroke-width="0.73" stroke-linecap="round" stroke-linejoin="round"/></g></g><g data-paper-data="{&quot;index&quot;:null}" id="Group"><path d="M283.83383,115.7l11.9,-0.2l-0.8,4.6l-12.5,-0.3z" id="Path_108_" fill="#842544" fill-rule="evenodd" stroke="#000000" stroke-width="0.5" stroke-linecap="butt" stroke-linejoin="miter"/><path d="M214.53383,116.2c-0.8,-1 -1.5,-1.6 -2.1,-2l9.8,-0.4v5.7l-6.5,-0.8c-0.2,-0.6 -0.6,-1.5 -1.2,-2.5z" id="Path_112_" fill="#842544" fill-rule="evenodd" stroke="#000000" stroke-width="0.5" stroke-linecap="butt" stroke-linejoin="miter"/><path d="M243.33383,94.1c10.3,0.4 16.6,10.4 16.3,21.7c-0.3,11.3 -7.6,19.4 -17.9,19.1c-10.3,-0.3 -19,-9.6 -18.8,-20.8c0.2,-11.3 10.1,-20.4 20.4,-20z" id="Path_110_" fill="#b0f5f6" fill-rule="evenodd" stroke="none" stroke-width="1" stroke-linecap="butt" stroke-linejoin="miter" opacity="0.4"/><path d="M279.23383,93.2c9.9,0.3 15.8,7.9 15.7,19.5c-0.1,10.9 -8.2,20.7 -18,20.4c-9.8,-0.3 -16.3,-4.9 -16.3,-19.2c0,-10.9 8.7,-21 18.6,-20.7z" id="Path_109_" fill="#b0f5f6" fill-rule="evenodd" stroke="none" stroke-width="1" stroke-linecap="butt" stroke-linejoin="miter" opacity="0.4"/><path d="M221.43383,113.3c0.3,-12.3 10.3,-22 21.6,-21.7c8.8,0.3 15,7.2 17.1,16.1c0.6,-5.6 7.9,-17.2 19.3,-16.5c11.3,0.7 17.8,11.7 17,23.5c-0.7,11.2 -9.1,20.2 -19.8,19.8c-8.4,-0.3 -14.7,-3.5 -16.7,-12.7c-0.3,4.8 -8.9,15.3 -18.7,14.5c-12.9,-0.9 -20.1,-10.6 -19.8,-23zM276.93383,133.1c9.7,0.3 17.6,-9.3 17.7,-20c0.1,-11.3 -5.7,-18.8 -15.4,-19.1c-9.7,-0.3 -18.3,9.6 -18.3,20.3c-0.1,13.9 6.3,18.5 16,18.8zM241.73383,134.3c10.2,0.3 17.4,-7.7 17.7,-18.9c0.3,-11.2 -5.9,-21.1 -16.1,-21.5c-10.2,-0.4 -20,8.6 -20.2,19.8c-0.2,11.2 8.4,20.2 18.6,20.6z" id="Shape_3_" fill="#842544" fill-rule="nonzero" stroke="#000000" stroke-width="0.5" stroke-linecap="round" stroke-linejoin="round"/></g><g data-paper-data="{&quot;index&quot;:null}" id="Hand_L" fill-rule="evenodd" stroke="none" stroke-width="1" stroke-linecap="butt" stroke-linejoin="miter"><g id="Forearm_L"><g id="Group"><path d="M263.83383,179.8c4.9,2.7 9.4,6.4 14.4,8.9c2.8,1.4 -0.3,4.7 -0.3,4.7c-2.3,1.3 -3.8,0.6 -5.3,-0.4c-3.8,-2.4 -9.5,-6 -12.8,-9c-1.4,-0.8 0.8,-5.9 4,-4.2z" id="Path" fill="#9e5e4c"/><path d="M277.73383,194.3v0c0,0.1 0,0.2 -0.1,0.2c-0.9,0.3 -1.8,0.2 -2.7,-0.1c-0.9,-0.4 -1.6,-0.7 -2.4,-1.2c-1.5,-0.8 -3,-1.7 -4.5,-2.6c-1.5,-0.9 -3,-1.8 -4.4,-2.8c-0.7,-0.6 -1.4,-1.1 -2.1,-1.6c-0.7,-0.5 -1.3,-1.1 -1.9,-1.8c0,-0.1 0,-0.1 0,-0.2v0c0,0 0.1,0 0.2,0c0.7,0.4 1.4,0.9 2.1,1.4c0.7,0.5 1.4,0.9 2.1,1.4c1.5,1 2.9,1.9 4.4,2.8l4.4,2.7c1.5,0.9 2.9,1.8 4.6,1.6c0.1,0 0.1,0 0.3,0.2z" id="Path" fill="#030305"/><path d="M263.63383,179.6c0,-0.1 0.1,-0.1 0.2,-0.1c1.4,0.6 2.6,1.3 3.8,2.1c1.2,0.7 2.4,1.5 3.6,2.3l3.5,2.3l1.8,1.1c0.7,0.4 1.2,0.8 1.8,1.2c0.1,0.1 0.1,0.1 0.1,0.2c0,0.1 -0.1,0.1 -0.2,0.1c-0.7,-0.3 -1.4,-0.5 -2,-0.9l-1.9,-1c-1.2,-0.7 -2.4,-1.5 -3.6,-2.3c-1.2,-0.8 -2.3,-1.6 -3.5,-2.4c-1.2,-0.8 -2.4,-1.5 -3.5,-2.4c-0.1,-0.1 -0.1,-0.1 -0.1,-0.2z" id="Path" fill="#030305"/></g></g><g id="Hand_L-2"><g id="Group"><path d="M268.13383,177.2c0.1,1.6 -1.1,2.8 -2.1,4l-5.6,2.8c-2.9,1.7 -7,1.7 -8.2,-2l0.1,-0.1c-0.2,0 -0.3,-0.1 -0.4,-0.1c-0.1,0.3 -0.2,0.4 -0.4,0.6c-0.8,0.7 -2,0.6 -2.7,-0.2c-1,-1.1 -1.9,-2.4 -2.5,-3.8c-0.9,-1.9 -1.2,-3.5 -0.6,-4.7l-0.2,0.1c-1.8,-0.9 -2.2,-1.8 -2.2,-2.7c0.1,-1.1 0.9,-2.1 2,-2.3c1,-0.1 2.6,0.9 4.1,1.7c0,0 1.7,-1.6 2.8,-2.9c0.4,-0.5 2.7,-2.1 4.1,-1l-0.1,0.3c1,-0.4 2.6,-0.8 3.5,0.2l-0.1,0.2c1,-0.3 2.1,0 2.7,0.8c1.4,1.8 5.7,7.3 5.8,9.1z" id="Path" fill="#9e5e4c"/><g id="Path" fill="#030305"><path d="M258.43383,175.9c0.5,0.9 0.7,2 0.6,3c-0.2,1.2 -1.3,2.1 -2.5,2c-0.6,-0.1 -1.2,-0.4 -1.5,-0.9l-0.8,-1.2c-0.6,-0.8 -1.1,-1.6 -1.6,-2.4c-0.3,-0.4 -0.5,-0.8 -0.7,-1.3c-0.3,-0.6 -0.3,-1.1 -0.2,-1.7c0.2,-0.5 0.4,-1 0.7,-1.4c0.3,-0.4 0.6,-0.8 0.9,-1.2c0.7,-0.7 1.4,-1.3 2.2,-1.9c0.8,-0.5 1.6,-1 2.5,-1.5c0.5,-0.2 0.9,-0.4 1.4,-0.6c0.5,-0.2 1.1,-0.2 1.6,-0.1c0.5,0.1 1,0.5 1.4,0.9l0.8,1.2l1.7,2.3c1.2,1.5 2.2,3.2 3,4.9c0.2,0.5 0.4,1 0.4,1.5c0,0.5 -0.1,1 -0.3,1.5c-0.4,0.9 -1,1.7 -1.7,2.4c-0.1,0.1 -0.3,0.1 -0.4,0c-0.1,-0.1 -0.1,-0.3 0,-0.4c0.6,-0.6 1.2,-1.4 1.6,-2.2c0.1,-0.4 0.2,-0.9 0.2,-1.3c-0.1,-0.5 -0.2,-0.9 -0.4,-1.3c-0.9,-1.7 -1.9,-3.3 -3,-4.8l-1.7,-2.3l-0.8,-1.1c-0.2,-0.3 -0.6,-0.5 -1,-0.6c-0.4,-0.1 -0.8,0 -1.2,0.1c-0.4,0.2 -0.8,0.4 -1.2,0.6c-0.9,0.4 -1.6,0.9 -2.4,1.5c-1.5,1 -2.7,2.4 -3.4,4.1c-0.2,0.8 0.3,1.6 0.8,2.4c0.5,0.8 1.1,1.6 1.6,2.4l0.8,1.2c0.2,0.3 0.5,0.5 0.9,0.5c0.8,0 1.5,-0.5 1.6,-1.3c0,-0.4 0,-0.8 -0.1,-1.2c-0.1,-0.4 -0.3,-0.9 -0.4,-1.3c-0.3,-0.9 -0.7,-1.8 -1,-2.7c0.7,0.7 1.3,1.5 1.6,2.2z"/><path d="M258.63383,179.1v0c0.2,-0.1 0.3,0 0.4,0.1c0.2,0.3 0.5,0.6 0.9,0.8c0.4,0.2 0.9,0.3 1.3,0.4c0.4,0.1 0.9,0.1 1.3,0c0.2,0 0.4,0 0.6,-0.1c0.1,0 0.2,0 0.3,0c0.1,0 0.3,0 0.5,0.2c0,0.2 -0.1,0.4 -0.2,0.5c-0.1,0.1 -0.3,0.2 -0.4,0.2c-0.3,0 -0.5,0.1 -0.8,0.1c-0.6,0 -1.1,-0.1 -1.6,-0.2c-0.5,-0.1 -1,-0.3 -1.4,-0.6c-0.5,-0.3 -0.9,-0.7 -1.1,-1.2c0,-0.2 0,-0.3 0.2,-0.2z"/><path d="M257.33383,174.1c0,0 0,-0.1 0.1,-0.1l0.3,-0.1c0.2,-0.1 0.4,-0.2 0.6,-0.3c0.4,-0.2 0.7,-0.5 1,-0.8c0.1,-0.1 0.2,-0.1 0.3,0c0.1,0.1 0.2,0.3 0.1,0.4c-0.2,0.4 -0.6,0.8 -1,1.1c-0.2,0.1 -0.4,0.3 -0.6,0.4l-0.3,0.2c-0.1,0 -0.1,0 -0.2,0c0,0 -0.1,-0.1 -0.3,-0.3c-0.1,-0.3 -0.1,-0.4 0,-0.5z"/><path d="M259.93383,167.4v0c-0.1,0.1 -0.3,0.1 -0.4,0c-0.8,-0.6 -1.8,-0.7 -2.7,-0.2c-0.5,0.1 -0.9,0.4 -1.3,0.7l-1.3,1l-2.6,1.9c-0.9,0.4 -1.6,1.2 -1.9,2.1c-0.1,0.4 0,0.9 0.1,1.4c0.1,0.5 0.3,1 0.4,1.5c0.3,1 0.7,2 1.1,3c0.3,0.4 0.5,0.9 0.8,1.3c0.2,0.4 0.6,0.7 1,0.9c0.7,0.3 1.6,-0.4 2,-1.3c0.2,0.3 0.2,0.6 0.1,0.9c-0.1,0.3 -0.3,0.6 -0.5,0.8c-0.5,0.5 -1.2,0.7 -1.9,0.5c-0.6,-0.2 -1.1,-0.7 -1.4,-1.2c-0.3,-0.5 -0.6,-1 -0.8,-1.5c-0.4,-1 -0.8,-2 -1.1,-3.1c-0.2,-0.5 -0.3,-1 -0.4,-1.6c-0.1,-0.5 -0.2,-1.1 -0.1,-1.7c0.1,-0.6 0.4,-1.2 0.9,-1.6c0.4,-0.4 0.8,-0.7 1.3,-1l2.6,-1.9l1.3,-0.9c0.4,-0.4 0.9,-0.6 1.5,-0.8c0.6,-0.2 1.1,-0.3 1.7,-0.3c0.6,0 1.2,0.3 1.6,0.7c0.1,0.1 0.1,0.2 0,0.4z"/><path d="M256.53383,166.5c0.1,0.1 0.1,0.3 0.2,0.5c-0.1,0.1 -0.3,0.1 -0.4,0c-0.8,-0.4 -1.8,-0.3 -2.5,0.2c-0.4,0.2 -0.8,0.5 -1.1,0.8l-1,1.1l-2,2.2c-0.7,0.6 -1.3,1.4 -1.8,2.2c-0.2,0.4 -0.2,0.8 -0.1,1.2c0.1,0.4 0.3,0.9 0.5,1.3c0.4,0.9 0.9,1.8 1.4,2.6c0.5,0.8 1.1,1.6 1.8,2.3c0.3,0.3 0.6,0.5 1,0.7c0.4,0.2 0.9,0.2 1.3,0c-0.1,0.3 -0.3,0.6 -0.6,0.7c-0.3,0.1 -0.6,0.2 -0.9,0.1c-0.6,-0.1 -1.1,-0.4 -1.5,-0.8c-0.8,-0.8 -1.4,-1.6 -1.9,-2.5c-0.6,-0.8 -1,-1.8 -1.4,-2.7c-0.2,-0.5 -0.4,-1 -0.5,-1.5c-0.2,-0.6 -0.1,-1.2 0.1,-1.7c0.5,-0.9 1.2,-1.7 2,-2.4l2,-2.2l1,-1.1c0.4,-0.4 0.8,-0.7 1.3,-0.9c0.4,-0.3 1,-0.4 1.5,-0.5c0.6,-0.1 1.1,0.1 1.6,0.4z"/><path d="M252.33383,181.9c0.1,0 0.2,0.1 0.3,0.2c0.3,0.8 0.8,1.4 1.4,1.9c0.7,0.5 1.4,0.7 2.2,0.8c0.8,0.1 1.6,0 2.4,-0.2c0.4,-0.1 0.8,-0.3 1.2,-0.4c0.2,-0.1 0.4,-0.2 0.6,-0.2c0.2,0 0.5,0 0.7,0.1c0,0.3 -0.2,0.5 -0.4,0.7c-0.2,0.1 -0.4,0.2 -0.6,0.3c-0.4,0.2 -0.9,0.3 -1.3,0.4c-0.9,0.2 -1.8,0.2 -2.7,0.1c-0.9,-0.1 -1.8,-0.4 -2.5,-1c-0.7,-0.6 -1.2,-1.4 -1.5,-2.3c-0.1,-0.2 0,-0.3 0.2,-0.4z"/><path d="M247.83383,171.8c0.2,-0.1 0.3,0 0.3,0.2c0.1,0.2 0,0.3 -0.1,0.4c-0.5,0.2 -1.1,0.6 -1.5,1c-0.4,0.4 -0.7,1 -0.7,1.6c0,1.2 0.4,2.5 1,3.6c0.6,1.2 1.3,2.3 2.2,3.2c0.3,0.4 0.8,0.7 1.4,0.7c0.3,-0.1 0.6,-0.1 0.8,-0.2c0.2,-0.1 0.5,-0.2 0.8,-0.4c0.1,0.4 0,0.9 -0.4,1.1c-0.4,0.3 -0.8,0.4 -1.2,0.4c-0.8,0 -1.6,-0.4 -2.1,-1c-0.9,-1 -1.7,-2.2 -2.2,-3.5c-0.7,-1.2 -1,-2.6 -1,-4c0.1,-0.7 0.4,-1.5 0.9,-2c0.5,-0.5 1.1,-0.9 1.8,-1.1z"/><path d="M244.83383,173.9c-0.3,-0.1 -0.5,-0.2 -0.7,-0.4c-0.4,-0.3 -0.8,-0.8 -1,-1.3c-0.4,-1.1 0,-2.4 0.9,-3.1c0.5,-0.4 1,-0.6 1.6,-0.6c0.5,0 1,0.2 1.5,0.4c0.9,0.4 1.8,0.9 2.6,1.4c0.1,0.1 0.2,0.3 0.1,0.4v0c-0.1,0.1 -0.3,0.2 -0.4,0.1c-0.9,-0.4 -1.7,-0.9 -2.6,-1.2c-0.3,-0.2 -0.8,-0.3 -1.2,-0.3c-0.4,0.1 -0.8,0.2 -1.1,0.5c-0.6,0.6 -0.9,1.4 -0.6,2.2c0.2,0.3 0.5,0.7 0.8,0.9c0.2,0.1 0.3,0.2 0.5,0.4c0.2,0.2 0.3,0.4 0.4,0.7c-0.3,0.1 -0.6,0.1 -0.8,-0.1z"/></g></g></g></g><g data-paper-data="{&quot;index&quot;:null}" id="Hand_R" fill-rule="evenodd"><g id="Arm_Near"><g id="Group"><g id="Path" stroke-linecap="butt" stroke-linejoin="miter"><path d="M233.53383,184.1c1.8,4.8 3.3,7.9 -7.8,5.4c-11.1,-2.5 -16.1,-14.8 -15.8,-16.6c0.3,-1.8 2.4,-2 2.4,-2c2.8,-0.1 19.4,8.4 21.2,13.2z" fill="#609eab" stroke="none" stroke-width="1"/><path d="M233.53383,184.1c1.8,4.8 3.3,7.9 -7.8,5.4c-11.1,-2.5 -16.1,-14.8 -15.8,-16.6c0.3,-1.8 2.4,-2 2.4,-2c2.8,-0.1 19.4,8.4 21.2,13.2z" fill="none" stroke="#000000" stroke-width="0.91"/></g><g id="Path"><path d="M230.83383,179c0,0 -8.4,11.1 -9.8,14.3c-1.4,3.2 -2.7,5.1 -4.7,4.2c-2.1,-0.9 -3.8,-1.7 -2.5,-5.8c1.3,-4.1 8.9,-18 10.9,-19.7c2,-1.7 8.9,1.9 6.1,7z" fill="#9e5e4c" stroke="none" stroke-width="1" stroke-linecap="butt" stroke-linejoin="miter"/><path d="M230.83383,179c0,0 -8.4,11.1 -9.8,14.3c-1.4,3.2 -2.7,5.1 -4.7,4.2c-2.1,-0.9 -3.8,-1.7 -2.5,-5.8c1.3,-4.1 8.9,-18 10.9,-19.7c2,-1.7 8.9,1.9 6.1,7z" fill="none" stroke="#030305" stroke-width="0.91" stroke-linecap="round" stroke-linejoin="round"/></g><g id="Path"><path d="M235.63383,174.4c0,0 -0.2,11.2 -1,14.3c0,0 -1.1,-3.7 -9.1,-7.8c-8,-4.1 -11.1,-9.8 -15.1,-9.3c3.7,-0.9 13.4,-19.4 23,-8.7" fill="#aff4f5" stroke="none" stroke-width="1" stroke-linecap="butt" stroke-linejoin="miter"/><path d="M235.63383,174.4c0,0 -0.2,11.2 -1,14.3c0,0 -1.1,-3.7 -9.1,-7.8c-8,-4.1 -11.1,-9.8 -15.1,-9.3c3.7,-0.9 13.2,-19.5 22.8,-8.8" fill="none" stroke="#030305" stroke-width="0.91" stroke-linecap="round" stroke-linejoin="round"/></g></g></g><g id="Forearm_R" stroke="none" stroke-width="1" stroke-linecap="butt" stroke-linejoin="miter"><g id="Group"><path d="M234.93383,190.5c-3.7,2.3 -10.1,4.8 -14.2,6.5c-1.7,0.7 -3.3,1.2 -5.3,-0.5c0,0 -2.4,-3.8 0.6,-4.7c5.4,-1.5 10.5,-4.3 15.8,-6.1c3.4,-1.2 4.7,4.2 3.1,4.8z" id="Path" fill="#9e5e4c"/><path d="M215.63383,197.2c0,-0.1 0.1,-0.1 0.2,-0.1c1.6,0.5 3.2,-0.2 4.8,-0.8l4.8,-1.9c1.6,-0.6 3.2,-1.2 4.8,-1.9c0.8,-0.3 1.6,-0.6 2.4,-1c0.8,-0.4 1.6,-0.8 2.4,-1.1c0.1,0 0.2,0.1 0.2,0.1c0.1,0 0.1,0.1 0,0.2c-0.7,0.6 -1.4,1.1 -2.2,1.5c-0.8,0.4 -1.6,0.8 -2.4,1.2c-1.6,0.7 -3.2,1.3 -4.8,2c-1.6,0.7 -3.3,1.3 -4.9,1.8c-0.8,0.3 -1.6,0.5 -2.5,0.7c-0.9,0.2 -1.9,0 -2.7,-0.4c0,-0.1 -0.1,-0.1 -0.1,-0.3z" id="Path" fill="#030305"/><path d="M231.93383,185.4c0,0.1 0,0.2 -0.1,0.2c-1.2,0.6 -2.4,1.1 -3.6,1.6l-3.6,1.5c-1.2,0.5 -2.4,1 -3.6,1.5c-0.6,0.2 -1.2,0.5 -1.8,0.8c-0.6,0.3 -1.1,0.6 -1.7,0.9c-0.1,0 -0.1,0 -0.2,0c-0.1,0 -0.1,-0.1 0,-0.2c0.5,-0.6 1,-1 1.6,-1.3c0.6,-0.3 1.2,-0.6 1.8,-0.9c1.2,-0.6 2.4,-1.1 3.6,-1.6c1.2,-0.5 2.5,-1 3.7,-1.4c1.2,-0.5 2.5,-0.9 3.8,-1.2z" id="Path" fill="#030305"/></g></g><g id="Hand_R-2" stroke="none" stroke-width="1" stroke-linecap="butt" stroke-linejoin="miter"><g id="Group"><path d="M229.93383,175c0.4,-0.9 1.4,-1.4 2.4,-1.3l-0.1,-0.1c0.7,-1.1 2.3,-1.1 3.4,-0.8c-0.1,-0.2 0,-0.4 0.1,-0.5c1.2,-1 3.5,0 4,0.4c1,0.8 2.4,1.8 3,2.2c0.2,0.1 0.3,0.1 0.5,0c1.2,-1 2.5,-2.2 3.4,-2.2c1.2,0 2.2,0.7 2.5,1.8c0.2,0.9 -0.1,1.9 -1.7,3.1l-0.2,-0.1c0.8,1.1 0.9,2.7 0.3,4.7c-0.3,1.5 -0.9,2.9 -1.7,4.2c-0.6,0.9 -1.8,1.3 -2.7,0.7c-0.1,-0.1 -0.2,-0.1 -0.3,-0.2c-0.1,-0.1 -0.3,-0.1 -0.4,-0.1l0.1,0.1c-0.5,3.9 -4.4,4.7 -7.7,3.6l-5.9,-1.6c-0.1,0 -0.1,0 -0.1,-0.1c-1.2,-0.9 -2.6,-1.9 -2.8,-3.4c-0.3,-2.2 2.9,-8.4 3.9,-10.4z" id="Path" fill="#9e5e4c"/><g id="Path" fill="#030305"><path d="M236.13383,182c0,0.5 -0.1,0.9 -0.1,1.4c-0.1,0.4 0,0.8 0.1,1.2c0.3,0.7 1.1,1.1 1.8,0.9c0.3,-0.1 0.6,-0.4 0.7,-0.7l0.6,-1.3c0.4,-0.8 0.8,-1.7 1.1,-2.6c0.4,-0.8 0.5,-1.7 0.3,-2.5c-1,-1.5 -2.5,-2.6 -4.2,-3.3c-0.8,-0.4 -1.7,-0.7 -2.6,-1c-0.4,-0.1 -0.9,-0.2 -1.3,-0.3c-0.4,0 -0.8,0.1 -1.2,0.2c-0.4,0.2 -0.7,0.4 -0.9,0.8l-0.6,1.3l-1.2,2.6c-0.8,1.7 -1.5,3.5 -2,5.3c-0.1,0.4 -0.1,0.9 -0.1,1.3c0.1,0.4 0.2,0.8 0.5,1.2c0.6,0.7 1.2,1.4 2,1.9c0.1,0.1 0.1,0.3 0,0.4c-0.1,0.1 -0.3,0.1 -0.4,0c-0.8,-0.6 -1.6,-1.2 -2.2,-2c-0.3,-0.4 -0.5,-0.9 -0.6,-1.4c-0.1,-0.5 0,-1 0.1,-1.5c0.5,-1.8 1.2,-3.7 2,-5.4l1.2,-2.6l0.6,-1.3c0.2,-0.5 0.7,-0.9 1.2,-1.1c0.5,-0.2 1.1,-0.2 1.6,-0.2c0.5,0 1,0.2 1.5,0.3c1,0.3 1.9,0.6 2.8,1c0.8,0.4 1.7,0.9 2.5,1.5c0.4,0.3 0.8,0.6 1.1,1c0.3,0.4 0.7,0.8 0.9,1.3c0.3,0.6 0.3,1.1 0.2,1.7c-0.1,0.4 -0.2,0.9 -0.4,1.4c-0.4,0.9 -0.7,1.8 -1.1,2.7l-0.6,1.3c-0.2,0.6 -0.7,1 -1.3,1.2c-1.2,0.3 -2.4,-0.4 -2.9,-1.5c-0.3,-1 -0.3,-2.1 0,-3.1c0.2,-1 0.6,-1.9 1.2,-2.7c-0.1,1 -0.3,1.9 -0.3,2.6z"/><path d="M235.83383,185c0.1,0 0.2,0.2 0.2,0.3c-0.1,0.5 -0.4,1 -0.8,1.4c-0.8,0.7 -1.8,1.1 -2.8,1.3c-0.3,0 -0.5,0 -0.8,0c-0.1,0 -0.3,0 -0.4,-0.1c-0.2,-0.1 -0.3,-0.3 -0.3,-0.5c0.2,-0.2 0.3,-0.3 0.4,-0.3c0.1,0 0.2,0 0.3,0c0.2,0 0.4,0 0.6,0c0.5,0 0.9,-0.1 1.3,-0.3c0.4,-0.2 0.8,-0.4 1.1,-0.7c0.4,-0.3 0.6,-0.6 0.8,-1c0,-0.2 0.2,-0.2 0.4,-0.1z"/><path d="M235.53383,180.6c-0.1,0 -0.1,0 -0.2,0l-0.3,-0.1c-0.2,-0.1 -0.5,-0.2 -0.7,-0.3c-0.4,-0.2 -0.9,-0.5 -1.2,-0.9c-0.1,-0.1 -0.1,-0.2 0,-0.3c0.1,-0.1 0.3,-0.2 0.4,-0.1c0.4,0.3 0.8,0.5 1.2,0.6c0.3,0.1 0.5,0.2 0.7,0.2l0.4,0.1c0.1,0 0.2,0 0.2,0.1c0.1,0 0.1,0.1 0.1,0.4c-0.1,0.3 -0.2,0.3 -0.6,0.3z"/><path d="M232.53383,173.7c-0.2,0.2 -0.4,0.1 -0.6,-0.2c-0.1,-0.1 -0.2,-0.3 -0.1,-0.4c0.4,-0.5 0.9,-0.9 1.5,-1c0.5,-0.2 1.1,-0.2 1.7,-0.1c0.5,0.1 1.1,0.2 1.6,0.5l1.4,0.7l2.9,1.4c0.5,0.2 1,0.5 1.5,0.8c0.5,0.4 1,0.8 1.2,1.4c0.1,0.5 0.2,1.1 0.2,1.7c0.1,0.5 0,1.1 0,1.6c-0.1,1.1 -0.3,2.2 -0.5,3.3c-0.1,0.5 -0.3,1.1 -0.5,1.6c-0.2,0.6 -0.6,1.1 -1.1,1.5c-0.6,0.4 -1.4,0.3 -2,-0.1c-0.2,-0.2 -0.4,-0.4 -0.6,-0.7c-0.1,-0.3 -0.1,-0.6 0,-0.9c0.6,0.8 1.6,1.2 2.2,0.9c0.4,-0.3 0.6,-0.7 0.8,-1.1c0.2,-0.4 0.4,-0.9 0.5,-1.4c0.2,-1 0.4,-2.1 0.5,-3.1c0.1,-0.6 0.1,-1.1 0.1,-1.6c0,-0.4 -0.1,-0.9 -0.2,-1.4c-0.4,-0.8 -1.3,-1.4 -2.2,-1.7l-2.9,-1.4l-1.4,-0.7c-0.4,-0.2 -0.9,-0.3 -1.4,-0.4c-0.9,-0.2 -2,0.1 -2.6,0.8c0,0 -0.1,0 0,0z"/><path d="M235.73383,172.6c-0.1,0.1 -0.3,0.1 -0.3,-0.1c-0.1,-0.1 -0.1,-0.3 0,-0.4c0.4,-0.4 0.9,-0.7 1.5,-0.7c0.5,0 1.1,0 1.6,0.2c0.5,0.1 1,0.3 1.5,0.6l1.2,0.9l2.4,1.7c0.9,0.5 1.7,1.2 2.4,2c0.3,0.5 0.4,1.1 0.4,1.7c0,0.6 -0.1,1.1 -0.2,1.6c-0.2,1 -0.5,2 -0.8,3c-0.3,1 -0.7,1.9 -1.3,2.8c-0.3,0.5 -0.8,0.9 -1.3,1.1c-0.3,0.1 -0.6,0.1 -0.9,0.1c-0.3,-0.1 -0.6,-0.3 -0.7,-0.6c0.4,0.1 0.8,0 1.2,-0.2c0.4,-0.2 0.7,-0.5 0.9,-0.9c0.6,-0.8 1,-1.7 1.3,-2.6c0.3,-0.9 0.6,-1.8 0.8,-2.8c0.1,-0.4 0.2,-0.9 0.2,-1.4c0,-0.4 -0.1,-0.9 -0.3,-1.2c-0.7,-0.7 -1.4,-1.3 -2.2,-1.8l-2.4,-1.8l-1.2,-0.9c-0.4,-0.3 -0.9,-0.5 -1.3,-0.6c-0.8,-0.4 -1.8,-0.3 -2.5,0.3z"/><path d="M242.53383,186.6v0c0.1,0 0.2,0.2 0.2,0.3c-0.1,0.9 -0.4,1.8 -1,2.5c-0.6,0.7 -1.4,1.2 -2.3,1.5c-0.9,0.3 -1.8,0.4 -2.7,0.4c-0.4,0 -0.9,0 -1.3,-0.1c-0.2,0 -0.4,-0.1 -0.6,-0.2c-0.2,-0.2 -0.4,-0.4 -0.5,-0.6c0.2,-0.2 0.4,-0.2 0.7,-0.2c0.2,0 0.4,0 0.6,0.1c0.4,0 0.8,0.1 1.2,0.1c0.8,0 1.6,-0.1 2.4,-0.3c0.8,-0.2 1.5,-0.6 2,-1.2c0.5,-0.6 0.9,-1.3 1,-2.1c0,-0.2 0.1,-0.3 0.3,-0.2z"/><path d="M244.53383,175.9c0,-0.1 0.1,-0.2 0.3,-0.2c0.7,0.1 1.4,0.4 2,0.8c0.6,0.4 1.1,1.1 1.3,1.8c0.3,1.4 0.2,2.9 -0.2,4.2c-0.3,1.4 -0.8,2.7 -1.5,3.9c-0.4,0.7 -1,1.2 -1.8,1.4c-0.4,0.1 -0.8,0.1 -1.2,-0.1c-0.5,-0.2 -0.7,-0.6 -0.7,-1c0.3,0.1 0.6,0.2 0.9,0.2c0.3,0 0.5,0 0.8,0c0.6,-0.1 1,-0.5 1.3,-1c0.7,-1.1 1.2,-2.3 1.5,-3.6c0.4,-1.2 0.5,-2.5 0.3,-3.8c-0.2,-0.6 -0.5,-1.1 -1,-1.5c-0.5,-0.3 -1.1,-0.6 -1.7,-0.7c-0.1,0 -0.2,-0.1 -0.3,-0.4z"/><path d="M247.93383,176.7c0.1,-0.2 0.3,-0.3 0.4,-0.5c0.3,-0.3 0.5,-0.6 0.6,-1c0.1,-0.8 -0.3,-1.6 -1,-2c-0.3,-0.2 -0.7,-0.2 -1.1,-0.2c-0.5,0.1 -0.9,0.2 -1.2,0.5c-0.8,0.5 -1.5,1.1 -2.3,1.7c-0.1,0.1 -0.3,0.1 -0.4,0c-0.1,-0.1 -0.1,-0.3 0,-0.4c0.7,-0.7 1.4,-1.3 2.2,-1.9c0.4,-0.3 0.9,-0.6 1.4,-0.7c0.5,-0.1 1.1,0 1.6,0.3c1.1,0.5 1.7,1.6 1.5,2.8c-0.1,0.6 -0.3,1.1 -0.7,1.5c-0.2,0.2 -0.4,0.4 -0.6,0.5c-0.2,0.2 -0.5,0.3 -0.8,0.2c0,-0.3 0.1,-0.6 0.4,-0.8z"/></g></g></g></g></g></g></svg>