<svg version="1.1" xmlns="http://www.w3.org/2000/svg" xmlns:xlink="http://www.w3.org/1999/xlink" width="256.5343" height="287.1386" viewBox="0,0,256.5343,287.1386"><g transform="translate(-97.04324,-22.74938)"><g data-paper-data="{&quot;isPaintingLayer&quot;:true}" fill="none" fill-rule="evenodd" stroke="none" stroke-width="none" stroke-linecap="none" stroke-linejoin="none" stroke-miterlimit="10" stroke-dasharray="" stroke-dashoffset="0" font-family="none" font-weight="none" font-size="none" text-anchor="none" style="mix-blend-mode: normal"><g data-paper-data="{&quot;origPos&quot;:null}" id="Group" stroke="none" stroke-width="1" stroke-linecap="butt" stroke-linejoin="miter"><g id="Path"><path d="M347.63474,300.5668c-2.86056,11.05214 -27.04522,-11.70227 -28.9956,-29.77575c-1.69033,3.6407 -5.59108,6.89133 -13.91268,0.13003c-7.80151,-6.24121 -14.95289,-22.23429 -16.64321,-36.277l-0.39007,0.13003c-5.72111,2.6005 -11.70227,-3.6407 -13.78267,-9.23178c-2.6005,-7.28141 -2.99058,-14.17274 -2.86056,-21.97425c-4.29083,0.5201 -8.19158,-2.34046 -10.79208,-5.98115c-3.77073,-5.07098 -5.59108,-14.04271 -6.50125,-22.10426c-0.65013,5.33103 -4.81093,6.76131 -8.71168,2.99058c-7.41143,-7.15138 -4.03078,-22.23429 0,-29.38567c0,0 10.14195,-22.62436 22.75439,-15.34296c26.3951,15.21294 96.60866,103.63002 79.83542,166.82222z" fill="#99ca43"/><g fill="#000000"><path d="M351.66552,288.99458c-0.39007,2.6005 -0.65013,5.201 -1.17023,7.67148c-0.26006,1.30026 -0.65013,2.47047 -0.91017,3.77073c-0.13003,1.69033 -1.0402,3.1206 -2.34046,4.1608c-0.78016,0.5201 -1.69033,0.78016 -2.6005,0.78016c-0.78016,0.13003 -1.5603,0 -2.34046,-0.26006c-1.30026,-0.5201 -2.6005,-1.0402 -3.77073,-1.82036c-2.21043,-1.43027 -4.29083,-3.1206 -6.11118,-4.94096c-3.77073,-3.6407 -7.02135,-7.80151 -9.62185,-12.22237c-2.0804,-3.38066 -3.6407,-7.28141 -4.6809,-11.18215c-0.39007,0.26006 -0.78016,0.65013 -1.17023,0.91017c-1.5603,0.91017 -3.51068,1.17023 -5.33103,0.65013c-1.69033,-0.39007 -3.1206,-1.0402 -4.55088,-1.95037c-1.30026,-0.78016 -2.6005,-1.69033 -3.77073,-2.73053c-4.42086,-4.1608 -7.93153,-9.23178 -10.40201,-14.82287c-2.47047,-5.46105 -4.29083,-11.18215 -5.33103,-17.16332c-0.13003,-1.17023 -0.26006,-2.34046 -0.39007,-3.51068c-1.5603,0.39007 -3.1206,0.39007 -4.55088,0c-1.82036,-0.5201 -3.51068,-1.43027 -4.81093,-2.73053c-1.30026,-1.17023 -2.47047,-2.6005 -3.38066,-4.1608c-0.91017,-1.5603 -1.69033,-3.25063 -2.21043,-4.94096c-1.0402,-3.38066 -1.69033,-6.76131 -2.0804,-10.27198c-0.26006,-2.99058 -0.39007,-5.85113 -0.39007,-8.84171c-1.43027,-0.13003 -2.86056,-0.39007 -4.1608,-1.0402c-1.69033,-0.78016 -3.25063,-1.95037 -4.55088,-3.25063c-2.47047,-2.73053 -4.29083,-5.72111 -5.59108,-9.10175c-1.17023,-3.25063 -1.95037,-6.63128 -2.21043,-10.14195c-0.39007,-3.51068 -0.26006,-6.89133 0.39007,-10.27198c0.78016,3.25063 1.43027,6.50125 1.95037,9.88191c0.5201,3.1206 1.43027,6.37123 2.6005,9.36181c1.17023,2.99058 2.86056,5.72111 4.94096,8.06155c1.95037,2.34046 4.81093,3.6407 7.80151,3.51068l1.5603,-0.13003v1.5603c-0.13003,6.76131 0.13003,13.39258 2.0804,19.76382c0.39007,1.5603 1.0402,2.99058 1.82036,4.42086c0.78016,1.30026 1.69033,2.6005 2.86056,3.77073c1.0402,1.17023 2.47047,1.95037 3.90076,2.47047c1.17023,0.39007 2.6005,0.39007 3.77073,0c0,-1.30026 -0.13003,-2.47047 0,-3.77073c0.13003,-1.43027 0.26006,-2.99058 0.65013,-4.42086c0.39007,-1.43027 1.0402,-2.86056 1.82036,-4.1608c-0.13003,2.86056 -0.13003,5.85113 0,8.71168c0.13003,2.86056 0.5201,5.59108 1.0402,8.45163c1.0402,5.72111 2.73053,11.18215 5.201,16.38316c2.34046,5.33103 5.59108,10.01194 9.62185,13.91268c1.95037,1.82036 4.29083,3.25063 6.89133,4.03078c1.0402,0.26006 2.21043,0.13003 3.1206,-0.39007c1.0402,-0.65013 1.82036,-1.5603 2.21043,-2.6005l2.21043,-5.07098l0.65013,5.46105c0.65013,4.81093 2.34046,9.36181 4.94096,13.52261c2.47047,4.1608 5.59108,8.06155 9.10175,11.57224c1.82036,1.69033 3.6407,3.25063 5.72111,4.55088c1.0402,0.65013 2.0804,1.0402 3.1206,1.43027c0.78016,0.39007 1.69033,0.39007 2.47047,0c0.26006,-0.13003 0.5201,-0.39007 0.65013,-0.78016c0.13003,-0.26006 0.26006,-0.39007 0.26006,-0.65013l0.26006,-0.91017c0.26006,-1.17023 0.5201,-2.47047 0.78016,-3.6407c0.39007,-2.47047 0.78016,-4.94096 1.0402,-7.41143c0.91017,-9.88191 0.26006,-20.02386 -1.69033,-29.77575c-1.95037,-9.88191 -4.81093,-19.50376 -8.45163,-28.86557c-7.41143,-18.72362 -17.03329,-36.53706 -28.73555,-52.92022c-5.72111,-8.19158 -12.09234,-15.99309 -18.98366,-23.40452c-1.82036,-1.82036 -3.51068,-3.6407 -5.33103,-5.33103c-1.82036,-1.82036 -3.6407,-3.51068 -5.59108,-5.07098c-1.95037,-1.5603 -3.77073,-3.25063 -5.85113,-4.6809c-2.0804,-1.43027 -4.03078,-3.1206 -6.11118,-4.6809c2.6005,0.39007 5.07098,1.17023 7.28141,2.6005c2.21043,1.30026 4.42086,2.86056 6.37123,4.42086c3.90076,3.25063 7.67148,6.76131 11.18215,10.53204c6.89133,7.41143 13.39258,15.34296 19.24372,23.66458c11.83228,16.64321 21.58416,34.58669 29.12563,53.57035c3.77073,9.49184 6.63128,19.37374 8.58165,29.38567c1.95037,10.14195 2.6005,20.41395 1.95037,31.076z"/><path d="M254.66679,175.35262c-0.13003,1.0402 -0.26006,1.95037 -0.65013,2.99058c-0.39007,1.0402 -1.17023,1.95037 -2.0804,2.47047c-1.0402,0.65013 -2.21043,0.91017 -3.38066,0.78016c-1.0402,-0.13003 -2.0804,-0.5201 -2.99058,-1.17023c-3.25063,-2.47047 -5.33103,-6.11118 -5.85113,-10.01194c-0.65013,-3.77073 -0.5201,-7.67148 0.39007,-11.31218c0.5201,-1.82036 1.17023,-3.51068 2.0804,-5.201c0.78016,-1.69033 1.82036,-3.25063 2.99058,-4.6809c-1.0402,3.38066 -1.82036,6.89133 -2.34046,10.53204c-0.26006,1.69033 -0.5201,3.51068 -0.5201,5.201c-0.13003,1.69033 0,3.38066 0.26006,5.07098c0.39007,3.25063 1.95037,6.37123 4.55088,8.58165c1.0402,0.91017 2.6005,1.17023 3.90076,0.65013c1.30026,-0.91017 2.0804,-2.34046 2.0804,-3.90076z"/></g></g><g id="Path"><path d="M350.36527,274.82184c-2.47047,9.88191 -25.22487,-10.66205 -27.4353,-26.9152c-1.43027,3.38066 -4.94096,6.24121 -12.74247,0.13003c-7.28141,-5.72111 -14.30277,-20.02386 -16.12311,-32.76633l-0.39007,0.13003c-5.33103,2.34046 -11.05214,-3.25063 -13.00251,-8.32161c-2.6005,-6.50125 -2.99058,-12.74247 -3.1206,-19.76382c-3.90076,0.39007 -7.54145,-2.0804 -10.01194,-5.46105c-3.51068,-4.6809 -5.33103,-12.74247 -6.37123,-20.02386c-0.39007,4.81093 -4.29083,6.11118 -7.93153,2.73053c-7.02135,-6.50125 -4.1608,-20.02386 -0.65013,-26.3951c0,0 8.97174,-20.41395 20.67399,-13.78267c28.73555,13.13254 91.01758,93.61808 77.1049,150.43905z" fill="#99ca43"/><g fill="#000000"><path d="M353.35585,263.63967c-0.26006,2.34046 -0.5201,4.6809 -0.91017,7.02135c-0.13003,1.17023 -0.39007,2.34046 -0.65013,3.51068c-0.13003,1.43027 -0.91017,2.86056 -2.21043,3.6407c-1.30026,0.65013 -2.86056,0.65013 -4.29083,0.13003c-1.17023,-0.39007 -2.34046,-0.91017 -3.38066,-1.5603c-2.0804,-1.30026 -4.03078,-2.73053 -5.72111,-4.42086c-3.38066,-3.25063 -6.50125,-6.89133 -8.97174,-10.92211c-2.0804,-3.1206 -3.6407,-6.63128 -4.6809,-10.40201c-0.5201,0.5201 -1.0402,0.91017 -1.69033,1.30026c-1.5603,0.78016 -3.38066,0.78016 -5.07098,0.26006c-1.43027,-0.39007 -2.86056,-1.0402 -4.1608,-1.95037c-1.17023,-0.78016 -2.47047,-1.69033 -3.51068,-2.73053c-4.1608,-4.29083 -7.41143,-9.23178 -9.75188,-14.69284c-2.34046,-5.201 -4.03078,-10.79208 -5.07098,-16.51319c-1.30026,0.39007 -2.73053,0.39007 -4.1608,0c-1.5603,-0.39007 -2.99058,-1.30026 -4.29083,-2.34046c-2.47047,-2.21043 -4.29083,-4.94096 -5.33103,-8.06155c-1.0402,-2.99058 -1.82036,-6.11118 -2.21043,-9.23178c-0.26006,-2.73053 -0.5201,-5.46105 -0.5201,-8.19158c-1.5603,0 -3.1206,-0.39007 -4.55088,-1.17023c-1.69033,-1.0402 -3.1206,-2.21043 -4.42086,-3.6407c-2.34046,-2.99058 -4.1608,-6.24121 -5.07098,-9.88191c-1.0402,-3.38066 -1.69033,-6.89133 -2.0804,-10.53204c-0.39007,-3.51068 -0.5201,-7.15138 -0.13003,-10.66205c0.91017,3.51068 1.43027,7.02135 2.0804,10.40201c0.65013,3.38066 1.43027,6.76131 2.47047,10.14195c0.91017,3.25063 2.47047,6.37123 4.55088,8.97174c2.0804,2.47047 5.07098,4.29083 8.19158,4.03078h1.17023v1.30026c0,6.11118 0.39007,12.22237 2.34046,17.94346c0.39007,1.43027 1.0402,2.73053 1.82036,4.03078c0.78016,1.30026 1.69033,2.34046 2.73053,3.38066c1.0402,1.0402 2.34046,1.82036 3.6407,2.21043c1.17023,0.39007 2.34046,0.39007 3.51068,0c-0.26006,-2.47047 -0.39007,-5.07098 -0.13003,-7.54145c0.13003,-1.5603 0.39007,-2.99058 0.78016,-4.42086c0.39007,-1.43027 1.0402,-2.73053 1.95037,-3.90076c-0.65013,2.86056 -0.91017,5.59108 -0.91017,8.45163c0,2.73053 0.26006,5.59108 0.78016,8.32161c0.91017,5.59108 2.6005,11.05214 4.94096,16.12311c2.21043,5.201 5.33103,9.88191 9.23178,13.91268c1.95037,1.95037 4.29083,3.38066 6.76131,4.29083c1.17023,0.5201 2.34046,0.39007 3.38066,0c1.0402,-0.5201 1.82036,-1.5603 2.21043,-2.6005l1.69033,-3.90076l0.65013,4.29083c0.78016,4.42086 2.47047,8.58165 4.94096,12.35238c2.34046,3.77073 5.33103,7.28141 8.58165,10.40201c1.69033,1.43027 3.38066,2.86056 5.33103,4.03078c0.91017,0.5201 1.82036,1.0402 2.86056,1.30026c0.78016,0.26006 1.69033,0.26006 2.47047,0c0.26006,-0.26006 0.5201,-0.5201 0.65013,-0.78016c0.13003,-0.26006 0.26006,-0.39007 0.26006,-0.65013c0,-0.13003 0.13003,-0.5201 0.13003,-0.78016c0.26006,-1.17023 0.5201,-2.21043 0.65013,-3.38066c0.5201,-2.21043 0.65013,-4.55088 0.91017,-6.76131c0.5201,-9.10175 -0.26006,-18.20352 -2.34046,-27.17525c-1.95037,-8.97174 -4.81093,-17.68342 -8.45163,-26.13505c-7.41143,-16.90326 -16.64321,-32.89636 -27.82537,-47.58919c-5.46105,-7.41143 -11.44221,-14.30277 -17.94346,-20.93405c-3.25063,-3.25063 -6.63128,-6.37123 -10.14195,-9.23178c-1.82036,-1.43027 -3.6407,-2.86056 -5.46105,-4.1608l-5.59108,-4.03078c2.34046,0.26006 4.55088,1.0402 6.63128,2.34046c2.0804,1.17023 4.03078,2.47047 5.85113,3.90076c3.6407,2.86056 7.15138,5.98115 10.40201,9.36181c6.50125,6.63128 12.61244,13.65264 18.20352,21.19409c11.18215,14.82287 20.54396,30.94597 27.9554,48.10929c3.6407,8.58165 6.50125,17.42336 8.58165,26.52512c2.21043,9.10175 2.99058,18.59359 2.34046,27.69535z"/><path d="M261.9482,161.83001c0,0.91017 -0.26006,1.82036 -0.65013,2.6005c-0.39007,0.91017 -1.0402,1.69033 -1.82036,2.21043c-0.91017,0.5201 -1.95037,0.78016 -2.99058,0.65013c-0.91017,-0.13003 -1.82036,-0.5201 -2.6005,-1.0402c-2.99058,-2.0804 -4.94096,-5.201 -5.59108,-8.71168c-1.43027,-6.76131 0.13003,-13.78267 4.29083,-19.37374c-1.0402,3.1206 -1.69033,6.24121 -2.0804,9.49184c-0.5201,3.1206 -0.5201,6.24121 -0.13003,9.36181c0.5201,2.99058 2.0804,5.72111 4.42086,7.67148c1.0402,0.91017 2.47047,1.0402 3.6407,0.5201c1.17023,-0.78016 1.82036,-2.0804 1.95037,-3.51068z"/></g></g></g><g data-paper-data="{&quot;origPos&quot;:null}" id="Body" stroke-linecap="butt"><g id="Group"><g id="Path" stroke="none" stroke-width="1" stroke-linejoin="miter"><path d="M275.86088,166.3809c-49.79962,-5.85113 -101.15953,16.90326 -101.15953,16.90326c-0.78016,-5.201 -14.69284,-115.9824 -13.78267,-118.19282c0,0 23.92462,-14.82287 36.66708,-23.79459c19.50376,-13.78267 39.13756,-21.84422 62.02198,-14.95289c20.41395,6.11118 34.58669,23.14448 34.45666,43.94848c0,17.55339 -7.28141,32.24623 -22.75439,45.11871l3.1206,2.21043c10.14195,8.58165 15.99309,30.81595 1.43027,48.75942z" fill="#f7ed4e"/><path d="M179.51228,233.60387l-11.05214,-97.64886c24.57475,30.81595 87.63692,9.10175 94.65828,2.21043c8.71168,4.1608 18.20352,9.62185 21.45415,4.29083c1.69033,8.84171 8.32161,37.44723 -31.33606,70.08353c-34.58669,21.58416 -57.73115,21.58416 -73.72424,21.06406z" fill="#99ca43"/><g><path d="M232.69254,111.90038c-7.15138,-0.39007 -6.89133,-12.35238 -0.26006,-13.91268c9.49184,-2.21043 13.91268,15.21294 0.26006,13.91268z" fill="#000104"/><path d="M230.74217,100.32814c3.25063,-0.5201 3.90076,3.1206 2.34046,4.94096c-0.39007,0.26006 -0.65013,0.5201 -1.0402,0.65013c-1.30026,0.39007 -2.73053,-0.39007 -3.25063,-1.69033c-0.78016,-2.6005 1.69033,-5.33103 4.03078,-3.6407" fill="#ffffff"/></g></g><path d="M180.03238,234.38403c-4.81093,-36.53706 -18.98366,-166.56216 -19.11369,-169.29269c0,0 23.92462,-14.82287 36.66708,-23.79459c19.50376,-13.78267 39.13756,-21.84422 62.02198,-14.82287c20.41395,6.11118 34.58669,23.14448 34.45666,43.94848c0,17.55339 -7.28141,32.24623 -22.75439,45.11871c10.92211,6.24121 28.60553,52.40012 -6.50125,86.4667c-38.74748,37.57726 -84.64635,32.37626 -84.77637,32.37626z" id="Path" fill="none" stroke="#000000" stroke-width="2.28" stroke-linejoin="round"/></g><g id="Layer_7"><path d="M237.65013,138.89868c-0.55375,-2.37785 1.66201,-4.926 4.94902,-5.69149c3.28702,-0.76548 6.40057,0.54161 6.95433,2.91946c0.55375,2.37785 -1.66201,4.926 -4.94902,5.69149c-3.28702,0.76548 -6.40057,-0.54161 -6.95433,-2.91946z" id="Oval" fill="#80886d" stroke="none" stroke-width="1" stroke-linejoin="miter"/><path d="M269.2296,107.86959c0.26006,4.6809 -2.0804,9.10175 -5.72111,9.23178c-3.6407,0.13003 -10.14195,-2.34046 -10.40201,-7.02135c-0.26006,-4.6809 6.37123,-9.10175 10.01194,-9.23178c3.6407,-0.13003 5.85113,2.34046 6.11118,7.02135z" id="Path" fill="#a8dddb" stroke="none" stroke-width="1" stroke-linejoin="miter"/><path d="M269.2296,107.86959c0.26006,4.6809 -2.0804,9.10175 -5.72111,9.23178c-3.6407,0.13003 -10.14195,-2.34046 -10.40201,-7.02135c-0.26006,-4.6809 6.37123,-9.10175 10.01194,-9.23178c3.6407,-0.13003 5.85113,2.34046 6.11118,7.02135z" id="Path" fill="none" stroke="#000000" stroke-width="1.43" stroke-linejoin="round"/><path d="M273.05214,138.15715c-2.69607,-0.42078 -4.61236,-2.48737 -4.28017,-4.61584c0.3322,-2.12847 2.78709,-3.51283 5.48316,-3.09205c2.69607,0.42078 4.61236,2.48737 4.28017,4.61584c-0.3322,2.12847 -2.78709,3.51283 -5.48316,3.09205z" id="Oval" fill="#80886d" stroke="none" stroke-width="1" stroke-linejoin="miter"/></g><g id="Group" fill="#000104" stroke="none" stroke-width="1" stroke-linejoin="miter"><path d="M210.97835,63.79108c-0.26006,1.17023 -0.65013,2.21043 -1.17023,3.25063c-0.39007,1.0402 -0.78016,2.0804 -1.0402,3.25063c-0.5201,2.0804 -0.78016,4.29083 -0.65013,6.50125c0,2.0804 0.5201,4.1608 1.5603,5.98115c0.5201,0.91017 1.17023,1.82036 1.95037,2.6005c0.39007,0.39007 0.91017,0.78016 1.30026,1.0402c0.5201,0.26006 0.91017,0.78016 1.30026,1.17023c-0.65013,0 -1.17023,-0.13003 -1.82036,-0.26006c-0.5201,-0.26006 -1.0402,-0.5201 -1.5603,-0.91017c-1.0402,-0.65013 -1.95037,-1.5603 -2.73053,-2.47047c-1.43027,-2.0804 -2.34046,-4.55088 -2.21043,-7.02135c0,-2.47047 0.39007,-4.81093 1.30026,-7.15138c0.39007,-1.17023 0.91017,-2.21043 1.5603,-3.25063c0.39007,-1.17023 1.30026,-2.0804 2.21043,-2.73053z" id="Path"/><path d="M197.06567,67.82185c-0.26006,1.17023 -0.65013,2.21043 -1.17023,3.25063c-0.39007,1.0402 -0.78016,2.21043 -1.0402,3.25063c-0.5201,2.0804 -0.78016,4.29083 -0.65013,6.50125c0,2.0804 0.5201,4.1608 1.5603,5.98115c0.5201,0.91017 1.17023,1.82036 1.95037,2.6005c0.39007,0.39007 0.78016,0.78016 1.30026,1.0402c0.5201,0.39007 0.91017,0.78016 1.30026,1.17023c-0.65013,0 -1.30026,-0.26006 -1.82036,-0.5201c-0.5201,-0.26006 -1.0402,-0.5201 -1.5603,-0.91017c-1.0402,-0.65013 -1.95037,-1.5603 -2.73053,-2.47047c-1.43027,-2.0804 -2.34046,-4.55088 -2.34046,-7.02135c0,-2.47047 0.39007,-4.81093 1.30026,-7.15138c0.39007,-1.17023 0.91017,-2.21043 1.5603,-3.25063c0.5201,-0.91017 1.30026,-1.82036 2.34046,-2.47047z" id="Path"/><g id="Path"><path d="M210.19821,122.56243c-1.82036,0.26006 -3.6407,-0.13003 -4.94096,-1.30026c-1.5603,-1.0402 -2.6005,-2.6005 -2.99058,-4.42086c-0.39007,-1.82036 -0.26006,-3.77073 0.39007,-5.46105c0.39007,-1.30026 1.0402,-2.47047 1.69033,-3.51068c-0.91017,-0.65013 -1.69033,-1.43027 -2.0804,-2.47047c-0.5201,-1.30026 -0.65013,-2.86056 -0.39007,-4.29083c0.26006,-1.43027 0.65013,-2.73053 1.43027,-3.90076c0.65013,-1.17023 1.69033,-2.0804 2.99058,-2.6005c-0.78016,1.0402 -1.43027,2.0804 -1.95037,3.25063c-0.39007,1.17023 -0.78016,2.34046 -0.78016,3.51068c0,1.17023 0.13003,2.21043 0.65013,3.25063c0.5201,0.78016 1.30026,1.5603 2.21043,1.82036l1.30026,0.5201l-0.91017,1.30026c-0.78016,1.30026 -1.5603,2.6005 -2.0804,4.03078c-0.5201,1.30026 -0.65013,2.73053 -0.5201,4.1608c0.13003,1.43027 0.78016,2.73053 1.82036,3.77073c1.30026,1.0402 2.6005,1.82036 4.1608,2.34046z"/><path d="M196.93564,126.33316l2.21043,1.0402c-1.69033,0.26006 -3.51068,-0.26006 -4.81093,-1.43027c-1.43027,-1.0402 -2.47047,-2.6005 -2.86056,-4.42086c-0.39007,-1.82036 -0.26006,-3.6407 0.26006,-5.33103c0.39007,-1.30026 1.0402,-2.47047 1.69033,-3.6407c-0.91017,-0.78016 -1.69033,-1.69033 -2.21043,-2.73053c-0.78016,-1.43027 -0.91017,-3.1206 -0.65013,-4.6809c0.13003,-1.43027 0.78016,-2.86056 1.5603,-4.1608c0.78016,-1.30026 1.82036,-2.21043 3.25063,-2.73053c-0.78016,1.17023 -1.5603,2.34046 -2.21043,3.51068c-0.65013,1.17023 -0.91017,2.47047 -1.0402,3.77073c-0.13003,1.30026 0.13003,2.47047 0.78016,3.51068c0.65013,1.0402 1.5603,1.95037 2.6005,2.47047l1.0402,0.65013l-0.65013,1.0402c-0.78016,1.17023 -1.43027,2.47047 -1.95037,3.90076c-0.5201,1.30026 -0.65013,2.73053 -0.5201,4.1608c0.13003,1.43027 0.78016,2.73053 1.69033,3.77073c0.5201,0.5201 1.17023,0.91017 1.82036,1.30026z"/><path d="M187.83389,129.84384c0.78016,0.26006 1.5603,0.5201 2.34046,0.65013c-0.91017,0.5201 -1.82036,0.65013 -2.73053,0.39007c-0.91017,-0.13003 -1.82036,-0.5201 -2.6005,-1.0402c-1.69033,-1.0402 -2.86056,-2.6005 -3.51068,-4.42086c-0.65013,-1.82036 -0.65013,-3.90076 -0.13003,-5.72111c0.39007,-1.30026 0.91017,-2.73053 1.69033,-3.90076c-0.78016,-0.78016 -1.43027,-1.69033 -1.69033,-2.73053c-0.39007,-1.43027 -0.39007,-2.73053 -0.26006,-4.1608c0.26006,-1.30026 0.5201,-2.6005 1.17023,-3.77073c0.26006,-0.65013 0.65013,-1.17023 1.17023,-1.69033c0.5201,-0.5201 1.17023,-0.91017 1.95037,-0.91017c-0.78016,0.78016 -1.43027,1.82036 -1.82036,2.99058c-0.39007,1.17023 -0.5201,2.34046 -0.5201,3.51068c0,1.0402 0.26006,2.21043 0.65013,3.25063c0.26006,0.78016 0.91017,1.5603 1.69033,1.95037l1.43027,0.5201l-0.91017,1.30026c-0.91017,1.17023 -1.5603,2.6005 -2.0804,4.1608c-0.39007,1.43027 -0.39007,2.99058 -0.13003,4.42086c0.39007,1.5603 1.17023,2.86056 2.34046,3.90076c0.65013,0.5201 1.30026,0.91017 1.95037,1.30026z"/></g></g></g><g data-paper-data="{&quot;origPos&quot;:null}" id="Beak" stroke="none" stroke-width="1" stroke-linecap="butt" stroke-linejoin="miter"><path d="M258.04745,131.27411c0.26006,-3.51068 -6.37123,-16.38316 -5.201,-18.59359c1.82036,-3.1206 9.23178,-4.1608 11.57224,-1.0402c4.29083,5.85113 -2.34046,17.29334 -6.37123,19.63379" id="Path" fill="#ef632a"/><g id="Group" fill="#000104"><path d="M266.88916,118.53165c-0.5201,2.86056 -1.5603,5.59108 -3.25063,8.06155c-0.78016,1.0402 -1.5603,2.0804 -2.6005,2.99058c-0.78016,0.5201 -1.5603,0.91017 -2.34046,1.30026c1.69033,-4.42086 5.07098,-7.93153 5.85113,-13.00251c0.26006,-2.21043 0,-4.81093 -1.95037,-6.24121c-1.30026,-0.91017 -3.1206,-1.17023 -4.6809,-0.65013c-1.5603,0.5201 -2.99058,1.30026 -4.29083,2.21043c1.82036,5.33103 5.33103,11.57224 4.94096,17.29334c0,0.39007 -0.13003,0.5201 -0.39007,0.65013c-1.17023,-1.30026 -1.69033,-3.6407 -2.34046,-5.201c-1.69033,-3.51068 -2.99058,-7.15138 -4.03078,-10.92211c-0.26006,-0.78016 -0.26006,-1.43027 -0.13003,-2.21043c0.91017,-3.90076 7.80151,-5.201 11.05214,-3.77073c3.77073,1.69033 4.81093,6.11118 4.1608,9.49184z" id="Path"/><path d="M258.17747,131.14408v0c-0.13003,0 -0.13003,0 0,0z" id="Path"/></g></g><g data-paper-data="{&quot;origPos&quot;:null}" id="Group" stroke-width="1"><g id="Path" stroke="none" stroke-linecap="butt" stroke-linejoin="miter"><path d="M259.60775,197.977c6.63128,3.25063 8.45163,11.57224 0.78016,15.47299c-3.77073,1.95037 -9.62185,1.69033 -13.00251,-1.82036" fill="#99ca43"/><path d="M247.38538,211.62964c1.43027,0.5201 2.6005,1.17023 3.77073,1.5603c1.30026,0.39007 2.6005,0.5201 3.90076,0.5201c1.30026,0 2.6005,-0.26006 3.77073,-0.78016c1.17023,-0.5201 2.21043,-1.17023 3.1206,-1.95037c0.91017,-0.78016 1.5603,-1.82036 1.95037,-2.99058c0.39007,-1.17023 0.39007,-2.34046 0,-3.51068c-0.26006,-1.17023 -0.91017,-2.34046 -1.69033,-3.38066c-0.91017,-1.0402 -1.82036,-2.0804 -2.73053,-3.1206c4.55088,0.78016 7.54145,5.201 6.76131,9.62185c0,0.26006 -0.13003,0.65013 -0.26006,0.91017c-0.5201,1.5603 -1.43027,2.99058 -2.6005,4.03078c-0.65013,0.5201 -1.30026,0.91017 -1.95037,1.30026c-0.65013,0.39007 -1.43027,0.78016 -2.0804,1.0402c-1.43027,0.5201 -2.99058,0.78016 -4.55088,0.65013c-1.5603,0 -2.99058,-0.39007 -4.42086,-1.0402c-1.30026,-0.39007 -2.34046,-1.43027 -2.99058,-2.86056z" fill="#000000"/></g><path d="M266.36905,212.53981c-4.1608,2.34046 -5.98115,5.201 -8.06155,5.85113c-0.91017,0.39007 -2.86056,0.13003 -2.0804,-1.95037c1.0402,-2.99058 4.29083,-3.51068 6.24121,-7.02135c1.5603,-2.99058 2.73053,-14.30277 4.55088,-13.52261c1.82036,0.78016 0.5201,6.89133 0.39007,8.71168c2.0804,-1.69033 4.1608,-4.55088 5.85113,-5.85113c0.65013,-0.5201 2.21043,-1.30026 2.73053,-0.65013c1.82036,1.95037 -4.6809,8.71168 -5.85113,9.10175c2.21043,-0.65013 8.84171,-2.21043 9.10175,0.65013c0.26006,1.69033 -8.58165,2.21043 -12.87248,4.6809z" id="Path" fill="#ef632a" stroke="#000000" stroke-linecap="round" stroke-linejoin="round"/></g><g data-paper-data="{&quot;origPos&quot;:null}" id="Group" stroke-width="1"><g id="Path" stroke="none" stroke-linecap="butt" stroke-linejoin="miter"><path d="M221.77043,204.2182c7.02135,1.95037 10.01194,10.53204 3.1206,16.38316c-3.51068,2.99058 -9.23178,3.90076 -13.13254,0.78016" fill="#99ca43"/><path d="M211.75851,221.38152c1.30026,0.39007 2.73053,0.65013 4.1608,0.91017c2.73053,0.26006 5.33103,-0.39007 7.54145,-1.95037c1.0402,-0.78016 1.95037,-1.82036 2.73053,-2.86056c0.78016,-1.0402 1.17023,-2.21043 1.43027,-3.51068c0.13003,-1.30026 0,-2.6005 -0.39007,-3.77073c-0.5201,-1.17023 -1.17023,-2.34046 -2.0804,-3.25063c-1.0402,-1.0402 -2.0804,-1.95037 -3.25063,-2.73053c3.1206,-0.13003 6.11118,2.21043 7.41143,5.201c1.30026,3.1206 0.91017,6.63128 -1.0402,9.36181c-0.91017,1.30026 -2.0804,2.47047 -3.38066,3.38066c-1.30026,0.91017 -2.86056,1.5603 -4.42086,1.82036c-1.5603,0.39007 -3.1206,0.39007 -4.6809,0c-1.82036,-0.26006 -3.25063,-1.17023 -4.03078,-2.6005z" fill="#000000"/></g><path d="M230.61214,218.39093c-3.77073,3.38066 -5.07098,6.76131 -7.02135,8.06155c-0.91017,0.5201 -2.73053,0.78016 -2.34046,-1.69033c0.65013,-3.38066 3.6407,-4.6809 5.07098,-8.97174c1.17023,-3.51068 0.5201,-15.99309 2.47047,-15.47299c1.69033,0.5201 1.5603,7.28141 1.69033,9.36181c1.82036,-2.21043 3.51068,-5.72111 4.81093,-7.54145c0.5201,-0.65013 1.95037,-1.82036 2.6005,-1.30026c2.0804,1.82036 -3.38066,10.40201 -4.42086,11.05214c2.0804,-1.17023 8.45163,-4.1608 9.10175,-1.30026c0.39007,1.82036 -8.06155,4.29083 -11.96231,7.80151z" id="Path" fill="#ef632a" stroke="#000000" stroke-linecap="round" stroke-linejoin="round"/></g><g data-paper-data="{&quot;origPos&quot;:null}" id="Group" stroke="none" stroke-width="1" stroke-linecap="butt" stroke-linejoin="miter"><g id="Path"><path d="M104.61781,307.84821c-11.31218,3.6407 -5.33103,-29.38567 9.10175,-41.47801c-4.1608,0.65013 -9.10175,-0.78016 -8.06155,-11.57224c1.0402,-10.01194 10.66205,-24.96482 21.84422,-34.32663l-0.39007,-0.26006c-5.46105,-3.38066 -3.51068,-11.96231 0.13003,-16.77324c4.6809,-6.24121 10.53204,-10.40201 17.29334,-14.69284c-2.86056,-3.38066 -2.6005,-8.19158 -0.91017,-12.48241c2.34046,-5.98115 8.97174,-12.48241 15.47299,-17.81344c-4.94096,2.47047 -8.58165,-0.26006 -7.54145,-5.59108c1.95037,-10.27198 16.90326,-15.73304 25.35489,-16.38316c0,0 25.35489,-4.03078 26.26507,10.66205c1.82036,30.68593 -34.58669,139.2569 -98.55903,160.71104z" fill="#99ca43"/><path d="M204.73715,163.13027c-0.5201,5.07098 -1.43027,10.27198 -2.73053,15.34296c-2.47047,10.14195 -5.72111,20.02386 -9.62185,29.64573c-7.67148,19.24372 -17.68342,37.57726 -29.90577,54.48052c-6.11118,8.45163 -13.00251,16.25314 -20.54396,23.53455c-7.54145,7.28141 -16.12311,13.52261 -25.35489,18.46356c-2.34046,1.17023 -4.6809,2.21043 -7.15138,3.25063c-1.17023,0.5201 -2.34046,1.0402 -3.6407,1.43027c-1.5603,0.65013 -3.25063,0.78016 -4.81093,0.39007c-0.91017,-0.39007 -1.69033,-0.91017 -2.21043,-1.69033c-0.39007,-0.65013 -0.78016,-1.43027 -1.0402,-2.21043c-0.39007,-1.30026 -0.65013,-2.73053 -0.65013,-4.1608c-0.13003,-2.73053 0.13003,-5.46105 0.65013,-8.06155c1.0402,-5.201 2.86056,-10.27198 5.201,-14.95289c1.82036,-3.77073 4.1608,-7.28141 7.02135,-10.27198c-0.39007,-0.13003 -0.91017,-0.26006 -1.43027,-0.5201c-1.69033,-0.78016 -2.99058,-2.21043 -3.6407,-4.03078c-0.5201,-1.5603 -0.91017,-3.25063 -0.91017,-4.94096c0,-1.69033 0,-3.25063 0.26006,-4.81093c0.5201,-3.1206 1.30026,-6.11118 2.6005,-8.97174c1.17023,-2.86056 2.6005,-5.59108 4.29083,-8.19158c3.38066,-5.201 7.28141,-9.88191 11.83228,-14.04271c0.78016,-0.78016 1.82036,-1.43027 2.73053,-2.21043c-1.17023,-1.0402 -2.0804,-2.34046 -2.47047,-3.77073c-0.5201,-1.82036 -0.65013,-3.77073 -0.26006,-5.59108c0.26006,-1.82036 0.91017,-3.51068 1.69033,-5.201c0.39007,-0.91017 0.91017,-1.69033 1.43027,-2.47047c0.65013,-0.65013 1.17023,-1.43027 1.69033,-2.0804c2.21043,-2.73053 4.81093,-5.201 7.54145,-7.41143c2.34046,-1.82036 4.94096,-3.51068 7.41143,-5.201c-0.78016,-1.30026 -1.30026,-2.6005 -1.5603,-4.1608c-0.26006,-1.82036 -0.13003,-3.77073 0.26006,-5.59108c0.5201,-1.82036 1.17023,-3.51068 1.95037,-5.201c0.91017,-1.5603 1.82036,-3.1206 2.86056,-4.55088c2.0804,-2.86056 4.55088,-5.33103 7.41143,-7.54145c0.39007,-0.39007 0.91017,-0.65013 1.30026,-1.0402c-0.5201,-0.13003 -0.91017,-0.26006 -1.43027,-0.39007c-1.17023,-0.39007 -2.0804,-1.30026 -2.6005,-2.34046c-0.39007,-1.0402 -0.65013,-2.0804 -0.65013,-3.25063c0.39007,-4.1608 2.34046,-7.93153 5.46105,-10.66205c2.86056,-2.73053 6.24121,-4.6809 10.01194,-5.98115c1.82036,-0.65013 3.6407,-1.0402 5.59108,-1.30026c1.95037,-0.26006 3.77073,-0.26006 5.72111,-0.13003c-3.6407,1.0402 -7.02135,2.34046 -10.40201,3.90076c-3.25063,1.43027 -6.37123,3.25063 -9.10175,5.46105c-2.6005,2.0804 -4.42086,5.201 -4.81093,8.58165c-0.26006,1.43027 0.39007,2.86056 1.69033,3.6407c1.43027,0.5201 3.1206,0.39007 4.55088,-0.39007l0.13003,0.13003c1.17023,-0.65013 2.34046,-1.17023 3.6407,-1.69033c-1.0402,1.0402 -1.95037,1.95037 -2.99058,2.99058v0.13003c0,0 -0.13003,0.13003 -0.26006,0.13003c-1.30026,1.30026 -2.73053,2.6005 -4.1608,3.90076c-2.47047,2.21043 -4.6809,4.81093 -6.63128,7.41143c-1.95037,2.6005 -3.38066,5.59108 -4.1608,8.71168c-0.78016,3.1206 -0.5201,6.37123 1.43027,8.58165l1.0402,1.30026l-1.30026,0.91017c-5.85113,3.6407 -11.44221,7.54145 -15.86306,12.74247c-1.17023,1.17023 -2.0804,2.6005 -2.86056,4.03078c-0.65013,1.43027 -1.30026,2.99058 -1.5603,4.55088c-0.39007,1.5603 -0.39007,3.1206 0,4.6809c0.26006,1.30026 1.0402,2.47047 2.0804,3.25063c1.0402,-0.78016 2.0804,-1.43027 3.25063,-2.0804c1.30026,-0.78016 2.73053,-1.43027 4.1608,-1.95037c1.43027,-0.5201 2.99058,-0.91017 4.55088,-0.91017c-2.6005,1.43027 -5.07098,3.1206 -7.54145,4.81093c-2.34046,1.69033 -4.6809,3.6407 -6.76131,5.59108c-4.29083,4.03078 -8.06155,8.58165 -11.18215,13.52261c-1.5603,2.47047 -2.99058,4.94096 -4.1608,7.67148c-1.17023,2.6005 -1.95037,5.33103 -2.47047,8.19158c-0.5201,2.6005 -0.39007,5.46105 0.39007,8.06155c0.39007,1.0402 1.0402,1.82036 2.0804,2.34046c1.0402,0.39007 2.34046,0.5201 3.51068,0.26006l5.59108,-0.91017l-4.29083,3.51068c-3.6407,3.38066 -6.76131,7.28141 -8.84171,11.83228c-2.34046,4.42086 -3.90076,9.23178 -4.94096,14.17274c-0.5201,2.47047 -0.65013,4.94096 -0.65013,7.41143c0,1.17023 0.13003,2.34046 0.5201,3.38066c0.13003,0.78016 0.65013,1.5603 1.43027,1.95037c0.39007,0.13003 0.78016,0.13003 1.17023,0c0.13003,-0.13003 0.39007,-0.13003 0.65013,-0.26006l0.91017,-0.26006c1.17023,-0.39007 2.34046,-0.91017 3.51068,-1.30026c2.34046,-0.91017 4.55088,-1.95037 6.89133,-3.1206c9.10175,-4.81093 17.42336,-10.79208 24.70478,-17.94346c7.41143,-7.15138 14.17274,-14.82287 20.15389,-23.14448c12.09234,-16.64321 21.97425,-34.7167 29.5157,-53.83039c3.90076,-9.49184 7.02135,-19.24372 9.49184,-29.25565c0.5201,-2.47047 1.0402,-5.07098 1.5603,-7.54145c0.39007,-2.47047 0.91017,-5.07098 1.17023,-7.54145c0.39007,-2.47047 0.65013,-5.07098 0.78016,-7.54145l0.39007,-7.67148c1.30026,2.34046 1.95037,4.94096 1.95037,7.67148c0.13003,2.6005 0,5.33103 -0.26006,8.32161z" fill="#000000"/></g><g id="Path"><path d="M128.15236,295.62586c-9.88191,3.51068 -5.07098,-27.17525 7.67148,-38.09736c-3.6407,0.65013 -8.06155,-0.65013 -7.28141,-10.66205c0.78016,-9.23178 9.23178,-23.14448 19.11369,-31.85616c-0.13003,-0.13003 -0.26006,-0.26006 -0.26006,-0.26006c-4.94096,-3.25063 -3.38066,-11.05214 -0.13003,-15.60301c4.1608,-5.72111 9.36181,-9.62185 15.34296,-13.65264c-2.6005,-3.1206 -2.47047,-7.54145 -1.0402,-11.57224c1.95037,-5.46105 7.80151,-11.57224 13.52261,-16.51319c-4.42086,2.21043 -7.80151,-0.26006 -6.89133,-5.201c1.69033,-9.49184 14.95289,-14.69284 22.49435,-15.34296c0,0 22.62436,-3.90076 23.66458,9.62185c4.03078,27.69535 -18.33354,117.0226 -86.20665,149.1388z" fill="#99ca43"/><path d="M216.04933,160.52976c-0.39007,4.6809 -1.17023,9.36181 -2.21043,14.04271c-2.0804,9.23178 -4.6809,18.46356 -8.06155,27.30527c-6.50125,17.81344 -15.08291,34.84673 -25.74497,50.57977c-5.33103,7.80151 -11.44221,15.21294 -18.07349,21.97425c-6.76131,6.89133 -14.30277,12.74247 -22.62436,17.42336c-2.0804,1.17023 -4.29083,2.21043 -6.50125,3.1206c-1.17023,0.5201 -2.21043,0.91017 -3.38066,1.30026c-1.30026,0.65013 -2.86056,0.78016 -4.29083,0.26006c-0.78016,-0.39007 -1.43027,-0.91017 -1.82036,-1.5603c-0.39007,-0.65013 -0.65013,-1.30026 -0.91017,-1.95037c-0.39007,-1.17023 -0.65013,-2.47047 -0.65013,-3.77073c-0.13003,-2.47047 0.13003,-4.94096 0.5201,-7.28141c0.91017,-4.6809 2.34046,-9.23178 4.42086,-13.65264c1.5603,-3.6407 3.77073,-6.89133 6.37123,-9.75188c-0.78016,-0.13003 -1.43027,-0.26006 -2.0804,-0.65013c-1.5603,-0.91017 -2.6005,-2.47047 -3.1206,-4.1608c-0.5201,-1.5603 -0.65013,-3.1206 -0.65013,-4.6809c0,-1.43027 0.13003,-2.99058 0.39007,-4.55088c1.30026,-5.98115 3.77073,-11.57224 7.15138,-16.51319c3.1206,-4.94096 7.02135,-9.36181 11.31218,-13.39258c-1.0402,-0.91017 -1.95037,-2.0804 -2.34046,-3.51068c-0.5201,-1.69033 -0.65013,-3.38066 -0.39007,-5.07098c0.5201,-3.25063 1.95037,-6.37123 4.03078,-8.97174c2.0804,-2.6005 4.29083,-4.94096 6.76131,-7.02135c2.21043,-1.82036 4.42086,-3.51068 6.76131,-5.07098c-0.91017,-1.30026 -1.43027,-2.86056 -1.5603,-4.55088c-0.13003,-1.95037 0.13003,-4.03078 0.65013,-5.85113c0.5201,-1.82036 1.30026,-3.6407 2.34046,-5.201c0.91017,-1.5603 2.0804,-3.1206 3.25063,-4.55088c1.95037,-2.0804 3.90076,-4.1608 6.11118,-5.98115c-0.65013,0 -1.30026,-0.13003 -1.82036,-0.39007c-0.91017,-0.39007 -1.82036,-1.17023 -2.21043,-2.0804c-0.39007,-0.91017 -0.65013,-1.82036 -0.65013,-2.86056c0.13003,-3.6407 1.82036,-7.15138 4.55088,-9.62185c2.47047,-2.47047 5.59108,-4.42086 8.84171,-5.59108c3.38066,-1.17023 6.76131,-1.69033 10.27198,-1.5603c-3.25063,0.78016 -6.37123,2.0804 -9.36181,3.51068c-2.99058,1.30026 -5.72111,2.99058 -8.19158,5.201c-2.34046,2.0804 -3.90076,4.94096 -4.1608,8.06155c-0.26006,1.43027 0.39007,2.73053 1.5603,3.51068c1.17023,0.5201 2.34046,0.39007 3.51068,0c2.6005,-2.21043 5.59108,-4.1608 8.58165,-5.72111c-2.47047,2.6005 -5.201,5.07098 -7.80151,7.54145c-2.6005,2.47047 -5.07098,5.07098 -7.41143,7.80151c-2.34046,2.6005 -4.03078,5.59108 -5.201,8.84171c-0.91017,3.1206 -0.91017,6.76131 1.17023,9.23178l0.78016,1.0402l-1.0402,0.65013c-5.201,3.38066 -10.27198,7.15138 -14.04271,11.96231c-1.0402,1.17023 -1.82036,2.47047 -2.47047,3.77073c-0.5201,1.43027 -1.0402,2.86056 -1.30026,4.29083c-0.26006,1.43027 -0.26006,2.86056 0.13003,4.29083c0.39007,1.17023 1.0402,2.21043 1.95037,2.99058c1.95037,-1.69033 4.1608,-3.1206 6.50125,-4.42086c1.30026,-0.65013 2.73053,-1.30026 4.1608,-1.69033c1.43027,-0.39007 2.86056,-0.65013 4.42086,-0.5201c-2.73053,1.0402 -5.201,2.34046 -7.67148,3.90076c-2.34046,1.5603 -4.6809,3.38066 -6.76131,5.33103c-4.1608,3.90076 -7.93153,8.32161 -11.05214,13.13254c-3.1206,4.6809 -5.46105,10.01194 -6.76131,15.60301c-0.26006,1.43027 -0.39007,2.73053 -0.39007,4.1608c0,1.43027 0.13003,2.73053 0.5201,4.03078c0.26006,1.17023 0.91017,2.0804 1.95037,2.73053c1.17023,0.5201 2.34046,0.65013 3.51068,0.39007l4.29083,-0.78016l-3.25063,2.86056c-3.38066,3.1206 -5.98115,6.89133 -7.80151,11.05214c-1.95037,4.1608 -3.38066,8.58165 -4.1608,13.13254c-0.39007,2.21043 -0.65013,4.55088 -0.5201,6.76131c0,1.0402 0.26006,2.0804 0.5201,3.1206c0.13003,0.78016 0.65013,1.5603 1.43027,1.95037c0.26006,0.13003 0.65013,0.26006 1.0402,0.13003c0.26006,0 0.39007,0 0.65013,-0.13003l0.78016,-0.26006c1.17023,-0.39007 2.21043,-0.78016 3.25063,-1.30026c2.0804,-0.91017 4.1608,-1.82036 6.24121,-2.99058c8.19158,-4.55088 15.60301,-10.27198 22.10426,-17.03329c6.50125,-6.76131 12.48241,-13.91268 17.68342,-21.71419c10.53204,-15.60301 19.11369,-32.37626 25.48492,-50.05967c3.25063,-8.71168 5.85113,-17.81344 7.93153,-26.9152c0.5201,-2.21043 0.91017,-4.55088 1.30026,-6.89133c0.39007,-2.34046 0.65013,-4.55088 0.91017,-6.89133c0.26006,-2.21043 0.39007,-4.55088 0.5201,-6.89133l0.13003,-7.02135c1.0402,2.21043 1.5603,4.55088 1.69033,7.02135c0,2.34046 0,4.81093 0,7.02135z" fill="#000000"/></g></g></g></g></svg>