<svg version="1.1" xmlns="http://www.w3.org/2000/svg" xmlns:xlink="http://www.w3.org/1999/xlink" width="202.61374" height="229.39584" viewBox="0,0,202.61374,229.39584"><g transform="translate(-191.45357,-59.97866)"><g data-paper-data="{&quot;isPaintingLayer&quot;:true}" fill="none" fill-rule="none" stroke="none" stroke-width="none" stroke-linecap="none" stroke-linejoin="none" stroke-miterlimit="10" stroke-dasharray="" stroke-dashoffset="0" font-family="none" font-weight="none" font-size="none" text-anchor="none" style="mix-blend-mode: normal"><path d="M230.13684,198.99106c32.2397,-5.20324 39.07532,-4.28502 72.02918,-1.2243c23.8737,2.24454 7.75386,-10.9166 17.54818,-3.26478c9.38624,7.24372 23.4656,61.82676 32.74982,68.86644c-9.48826,2.14252 -26.0162,-9.28422 -36.11662,-9.08016c8.26398,11.52876 7.75386,14.58948 13.46722,19.99678c-12.65102,2.75466 -38.66722,-11.93684 -49.58384,-14.18138c0,0 1.2243,15.40568 2.65264,18.26236c0,0 -11.52876,0.8162 -29.89314,-6.01944c-34.68828,-12.85506 -22.85346,-73.3555 -22.85346,-73.3555z" data-paper-data="{&quot;origPos&quot;:null}" id="Path" fill="#352b63" fill-rule="evenodd" stroke="#000000" stroke-width="1" stroke-linecap="butt" stroke-linejoin="miter"/><g data-paper-data="{&quot;origPos&quot;:null}" id="Group" fill-rule="evenodd"><path d="M316.51073,253.37004c0.91822,2.04048 3.26478,17.24212 3.57086,21.73118c0.61214,8.67206 -27.44454,11.22268 -30.1992,6.93766c-0.71418,-1.12226 -0.71418,-19.6907 -0.71418,-19.6907c0.20404,-12.1409 24.07774,-15.60972 27.34252,-8.97814z" id="Path" fill="#fbd1a6" stroke="none" stroke-width="1" stroke-linecap="butt" stroke-linejoin="miter"/><path d="M317.02085,253.37004c0.8162,1.63238 2.5506,19.58868 3.06074,22.75142c-2.85668,7.5498 -26.52634,11.7328 -30.1992,5.91742c-0.71418,-1.12226 -0.71418,-19.6907 -0.71418,-19.6907c0.20404,-12.1409 24.6899,-15.60972 27.85264,-8.97814z" id="Path" fill="none" stroke="#030305" stroke-width="1.04" stroke-linecap="butt" stroke-linejoin="miter"/><g id="Path" stroke-width="1"><path d="M328.44759,284.79354c-1.32632,3.16276 -8.16194,3.3668 -14.18138,3.16276c-7.5498,-0.30608 -15.0996,-1.02024 -22.6494,-2.14252c-1.12226,-0.61214 -1.73442,-2.44858 -1.73442,-3.97894c-0.4081,-0.91822 -0.30608,-11.52876 -0.30608,-11.52876c0,0 17.54818,7.03968 29.58706,-2.65264c0.20404,2.5506 0.71418,4.9992 1.32632,7.34576c0.10202,0.4081 0.20404,0.91822 0.30608,1.32632c3.57086,2.04048 9.69232,3.57086 7.65182,8.46802z" fill="#6ea3d7" stroke="#20221d" stroke-linecap="round" stroke-linejoin="round"/><path d="M324.16257,280.30446c-0.30608,1.42834 -1.63238,2.34656 -3.06074,2.24454c-1.73442,-0.10202 -3.06074,-0.91822 -2.9587,-1.93846c0.30608,-1.42834 1.63238,-2.34656 3.06074,-2.24454c1.73442,0.10202 3.06074,1.02024 2.9587,1.93846z" fill="#9fdbf8" stroke="none" stroke-linecap="butt" stroke-linejoin="miter"/></g><g id="Kelsey_R_Leg-2" stroke-linecap="butt" stroke-linejoin="miter"><g id="Group"><path d="M322.02005,258.98138c0,0 -8.7741,9.69232 -37.13686,3.16276c0,-1.2243 -0.20404,-2.5506 -0.4081,-3.7749c-0.30608,-0.71418 -7.44778,-5.20324 -3.97894,-15.20162c4.79514,-14.07936 30.91338,-6.7336 36.0146,-0.4081z" id="Path" fill="#df6282" stroke="none" stroke-width="1"/><path d="M322.02005,258.98138c0,0 -8.7741,9.69232 -37.13686,3.16276c0,-1.2243 -0.20404,-2.5506 -0.4081,-3.7749c-0.30608,-0.71418 -7.44778,-5.20324 -3.97894,-15.20162c4.79514,-14.07936 30.91338,-6.7336 36.0146,-0.4081z" id="Path" fill="none" stroke="#030305" stroke-width="1.04"/></g></g></g><g data-paper-data="{&quot;origPos&quot;:null}" id="Group" fill-rule="evenodd"><path d="M280.43485,262.4502c0,0 -0.71418,18.0583 -1.42834,19.18058c-4.28502,6.52956 -30.91338,2.75466 -30.30124,-5.71336c0.30608,-4.48908 2.75466,-20.40486 3.7749,-22.44536c3.26478,-6.63158 27.75062,-3.16276 27.95468,8.97814z" id="Path" fill="#fbd1a6" stroke="none" stroke-width="1" stroke-linecap="butt" stroke-linejoin="miter"/><path d="M280.43485,262.4502c0,0 -0.71418,18.0583 -1.42834,19.18058c-4.28502,6.52956 -28.8729,2.44858 -30.40326,-4.89716c0.8162,-3.7749 2.5506,-21.73118 3.26478,-23.26156c3.26478,-6.52956 28.36276,-3.16276 28.56682,8.97814z" id="Path" fill="none" stroke="#030305" stroke-width="1.04" stroke-linecap="round" stroke-linejoin="round"/><g stroke-width="1"><path d="M279.10853,281.63078c0,0 -0.20404,3.46882 -1.83644,3.87692c-7.65182,1.83644 -15.40568,2.9587 -23.15952,3.3668c-6.01944,0.20404 -12.34494,-0.8162 -13.67126,-3.87692c-2.04048,-5.10122 4.183,-6.12146 7.75386,-8.05992c0,-0.30608 0.10202,-0.71418 0.20404,-1.02024c0.61214,-2.65264 1.02024,-5.4073 1.42834,-8.05992c12.03888,9.69232 30.40326,1.02024 30.40326,1.02024c-0.20404,4.69312 -0.91822,11.52876 -1.12226,12.75304z" id="Path" fill="#6ea3d7" stroke="#20221d" stroke-linecap="round" stroke-linejoin="round"/><path d="M242.75079,282.92707c-0.31342,-0.90511 0.72734,-2.08723 2.32458,-2.64031c1.59726,-0.5531 3.14616,-0.26774 3.45958,0.63737c0.31342,0.90511 -0.72734,2.08723 -2.32458,2.64031c-1.59726,0.5531 -3.14616,0.26774 -3.45958,-0.63737z" id="Oval" fill="#9fdbf8" stroke="none" stroke-linecap="butt" stroke-linejoin="miter"/></g><g id="Kelsey_L_Leg-2" stroke-linecap="butt" stroke-linejoin="miter"><g id="Group"><path d="M286.35225,264.79676c0,0 -23.15952,3.46882 -36.93282,-5.20324c0,0 5.91742,-20.0988 6.63158,-23.4656c0.4081,-2.04048 18.8745,-5.50932 30.40326,-0.8162z" id="Path" fill="#df6282" stroke="none" stroke-width="1"/><path d="M286.35225,258.6753v6.12146c0,0 -23.15952,3.46882 -36.93282,-5.20324c0,0 5.91742,-20.0988 6.63158,-23.4656c0.4081,-2.04048 13.77328,-6.52956 25.20002,-1.93846" id="Path" fill="none" stroke="#030305" stroke-width="1.04"/></g></g></g><path d="M297.73825,256.53279c0,0 -8.97814,2.04048 -13.36518,1.93846" data-paper-data="{&quot;origPos&quot;:null}" id="Path" fill="none" fill-rule="evenodd" stroke="#030305" stroke-width="0.83" stroke-linecap="round" stroke-linejoin="miter"/><g data-paper-data="{&quot;origPos&quot;:null}" id="Kelsey_R_Hand" fill-rule="evenodd" stroke-linejoin="miter"><g id="Kelsey_R_Arm"><g id="Group"><g id="Path" stroke="none" stroke-width="1" stroke-linecap="butt"><path d="M308.14473,186.85016c14.2834,-10.10042 29.68908,-21.32308 45.09476,-29.58706c11.3247,-6.01944 23.8737,3.26478 21.32308,13.87532c-2.34656,9.79434 -43.9725,32.44374 -53.97088,39.27938c-4.38704,2.85668 -17.1401,-20.30284 -12.44698,-23.56762z" fill="#fbd1a6"/><path d="M320.28563,178.79024c5.71336,7.03968 10.9166,14.58948 15.40568,22.44536c0,0 -15.20162,10.81458 -16.93604,10.5085c-1.73442,-0.30608 -13.67126,-20.81296 -11.93684,-23.15952c1.73442,-2.44858 13.46722,-9.79434 13.46722,-9.79434z" fill="#9ab8a4"/></g><g id="Path" fill="none" stroke="#030305" stroke-width="1.04" stroke-linecap="round"><path d="M308.45081,187.36028c14.18138,-11.12066 29.17896,-21.01702 45.09476,-29.58706c11.3247,-6.12146 23.8737,3.26478 21.32308,13.77328c-2.34656,9.89636 -43.9725,32.54576 -53.97088,39.27938"/><path d="M320.28563,178.79024c5.71336,7.03968 10.9166,14.58948 15.40568,22.44536"/></g></g></g><g id="Layer_16"><g id="Group"><path d="M351.50509,159.71168c0.4081,-1.53036 1.42834,-2.85668 2.75466,-3.67288c-0.51012,-3.26478 -1.2243,-12.03888 7.44778,-13.77328c1.32632,-0.10202 2.65264,0 3.87692,0.30608c3.16276,-1.02024 5.61134,-3.7749 7.44778,-6.63158c1.83644,-2.85668 3.16276,-6.01944 5.10122,-8.7741c0.51012,-0.8162 1.12226,-1.42834 1.93846,-1.83644c2.14252,-0.8162 13.77328,1.83644 -1.02024,21.01702c3.46882,0.61214 6.63158,2.44858 7.44778,6.12146c0.20404,0.51012 0.51012,1.02024 1.02024,1.32632c1.63238,0.20404 2.85668,1.42834 3.16276,3.06074c0.20404,1.12226 0.20404,2.34656 0.20404,3.46882c1.53036,0.61214 2.65264,2.04048 2.65264,3.7749c0.30608,6.93766 -7.24372,12.65102 -11.42672,7.03968c0,0.20404 -6.63158,5.91742 -10.30446,4.69312c0.10202,0 -21.73118,-9.69232 -20.30284,-16.11984z" id="Path" fill="#fbd1a6" stroke="none" stroke-width="1" stroke-linecap="butt"/><g id="Path" fill="none" stroke="#030305" stroke-width="1.04" stroke-linecap="round"><path d="M374.25651,153.69225c1.02024,-1.42834 2.24454,-2.75466 3.7749,-3.7749"/><path d="M365.68647,142.5716c3.16276,-1.02024 5.61134,-3.7749 7.44778,-6.63158c1.83644,-2.85668 3.16276,-6.01944 5.10122,-8.7741c0.4081,-0.8162 1.12226,-1.42834 1.93846,-1.83644c2.14252,-0.8162 13.77328,1.83644 -1.02024,21.01702c3.46882,0.61214 6.63158,2.44858 7.44778,6.12146c1.63238,7.65182 -8.16194,14.99758 -13.36518,10.20244"/><path d="M351.40307,158.79346c0.8162,-1.02024 1.83644,-1.93846 2.85668,-2.75466c-0.4081,-3.26478 -1.2243,-12.03888 7.44778,-13.77328c7.9579,-1.63238 17.24212,16.01782 11.42672,20.5069c-3.87692,2.65264 -6.93766,0.10202 -7.9579,-1.12226c-1.93846,-2.44858 -3.16276,-5.4073 -3.57086,-8.57004"/><path d="M365.68647,162.2623c-1.32632,3.26478 -6.3255,2.85668 -7.9579,0.4081"/><path d="M387.51968,153.8963c1.63238,0.20404 2.85668,1.42834 3.16276,3.06074c1.2243,6.93766 -4.48908,12.03888 -7.5498,12.9571c-4.38704,1.32632 -6.12146,-4.08098 -5.30526,-5.50932"/><path d="M390.88649,160.42586c1.53036,0.61214 2.65264,2.04048 2.65264,3.7749c0.30608,7.34576 -8.05992,13.26316 -11.93684,6.12146"/><path d="M382.11239,171.54651c-1.83644,2.24454 -6.52956,5.61134 -10.30446,4.28502"/></g></g></g></g><g data-paper-data="{&quot;origPos&quot;:null}" id="Group" fill-rule="evenodd" stroke-linejoin="miter"><path d="M323.04029,205.72466c0.61214,7.34576 0.10202,14.79354 -1.53036,21.93524c0,0 -3.16276,13.05912 -1.63238,20.0988c-14.48746,5.20324 -57.0316,0.51012 -66.72392,-8.46802c6.42754,-26.0162 -5.30526,-47.13524 4.89716,-51.5223c21.22106,-9.08016 57.74578,-9.69232 64.9895,17.95628z" id="Path" fill="#9ab8a4" stroke="none" stroke-width="1" stroke-linecap="butt"/><path d="M322.53017,203.99025c0,0 3.3668,5.61134 -0.91822,23.66964c0,0 -3.16276,13.05912 -1.63238,20.0988c-14.48746,5.20324 -57.0316,0.51012 -66.72392,-8.46802c6.42754,-26.0162 -5.50932,-47.64538 4.89716,-51.5223c8.366,-3.06074 38.9733,-13.56924 57.33768,5.10122" id="Path" fill="none" stroke="#030305" stroke-width="1.04" stroke-linecap="round"/><path d="M275.70099,200.72547c1.12226,-1.53036 2.75466,-2.65264 4.5911,-3.16276c3.26478,-1.02024 7.1417,-0.30608 10.30446,0.91822c3.06074,1.32632 5.81538,3.3668 7.9579,6.01944l0.20404,0.20404l0.20404,-0.20404c1.63238,-2.24454 3.7749,-4.08098 6.22348,-5.4073c2.44858,-1.42834 6.01944,-1.73442 8.366,0.10202c2.04048,1.53036 2.9587,4.28502 3.06074,6.83564c0.30608,7.44778 -12.75304,26.93442 -21.62916,32.74982c0,0 -20.81296,-16.22188 -21.01702,-30.30124c-0.20404,-2.24454 0.4081,-5.91742 1.73442,-7.75386z" id="Path" fill="#e0f1ec" stroke="none" stroke-width="1" stroke-linecap="butt"/></g><g data-paper-data="{&quot;origPos&quot;:null}" id="Kelsey_L_Hand" fill-rule="evenodd" stroke-linecap="butt" stroke-linejoin="miter"><g id="Kelsey_L_Arm"><g id="Group"><g id="Path" stroke="none" stroke-width="1"><path d="M257.54067,210.62184c-8.46802,6.52956 -25.81216,16.11984 -32.03564,19.79272c-3.26478,1.93846 -10.40648,-1.2243 -11.83482,-9.28422c-1.32632,-7.34576 0,-10.10042 6.3255,-14.79354c18.16034,-13.87532 25.20002,-19.58868 36.11662,-18.67046c-0.10202,0 12.24292,14.58948 1.42834,22.95548z" fill="#fbd1a6"/><path d="M255.6022,187.8704c5.81538,1.02024 10.71256,18.16034 9.28422,19.07856c-1.42834,0.91822 -15.40568,9.89636 -15.40568,9.89636c-5.91742,-5.50932 -13.16114,-17.65022 -12.85506,-22.85346c0.10202,-1.2243 12.03888,-7.5498 18.97652,-6.12146z" fill="#9ab8a4"/></g><g id="Path" fill="none" stroke="#030305" stroke-width="0.83"><path d="M263.04997,208.27528c-9.38624,5.10122 -34.58626,21.73118 -37.54496,22.13928c-3.67288,0.51012 -10.40648,-1.2243 -11.83482,-9.28422c-1.32632,-7.34576 0,-10.10042 6.3255,-14.79354c18.0583,-13.87532 27.44454,-21.01702 39.27938,-17.95628"/><path d="M249.48073,216.84532c-5.91742,-5.50932 -12.03888,-14.79354 -12.85506,-22.85346"/></g></g></g><g id="Kelsey_L_Hand-2" stroke="none" stroke-width="1"><g id="Group"><path d="M226.21919,229.39432c-1.83644,2.44858 -4.183,3.87692 -6.12146,7.75386c-1.93846,3.87692 -7.1417,5.91742 -8.57004,1.12226c-0.8162,-2.65264 1.53036,-6.42754 2.9587,-8.366c-11.93684,0.61214 -20.30284,-2.04048 -18.8745,-7.44778c0.4081,-1.32632 2.14252,-2.04048 4.28502,-2.34656c-4.183,-1.93846 -6.3255,-4.38704 -4.5911,-6.83564c1.02024,-1.53036 3.3668,-1.93846 5.91742,-1.73442c-1.12226,-1.73442 -1.42834,-3.57086 0.30608,-5.20324c1.32632,-1.02024 2.9587,-1.42834 4.5911,-1.02024c0.20404,-3.16276 1.83644,-4.183 4.183,-4.28502c3.87692,-0.20404 10.20244,4.183 11.93684,6.42754c3.67288,4.79514 8.366,15.81378 3.97894,21.93524z" id="Path" fill="#fbd1a6"/><path d="M226.62729,229.90444c-1.02024,0.8162 -1.93846,1.73442 -2.75466,2.85668c-0.8162,1.02024 -1.63238,2.14252 -2.34656,3.26478l-1.12226,1.73442c-0.4081,0.61214 -0.91822,1.12226 -1.42834,1.63238c-1.02024,1.02024 -2.34656,1.83644 -3.87692,2.14252c-0.8162,0.10202 -1.63238,0 -2.34656,-0.30608c-0.71418,-0.4081 -1.2243,-1.02024 -1.63238,-1.73442c-0.71418,-1.32632 -0.8162,-2.85668 -0.4081,-4.38704c0.4081,-1.42834 1.02024,-2.65264 1.83644,-3.87692c0.20404,-0.4081 0.4081,-0.71418 0.71418,-1.02024c-2.65264,0.30608 -5.4073,0.20404 -8.05992,-0.20404c-1.53036,-0.20404 -3.16276,-0.61214 -4.5911,-1.12226c-1.53036,-0.51012 -2.9587,-1.32632 -4.183,-2.44858c-0.61214,-0.61214 -1.02024,-1.42834 -1.2243,-2.24454c0,-0.20404 -0.51012,-2.85668 2.44858,-3.97894c0.51012,-0.20404 1.02024,-0.30608 1.53036,-0.4081c-0.51012,-0.20404 -1.12226,-0.4081 -1.63238,-0.71418c-4.48908,-1.93846 -2.85668,-5.61134 -2.75466,-5.81538c0.30608,-0.61214 0.71418,-1.02024 1.2243,-1.42834c0.51012,-0.30608 1.02024,-0.61214 1.63238,-0.71418c1.02024,-0.20404 2.14252,-0.30608 3.16276,-0.30608c-0.20404,-0.30608 -0.51012,-0.51012 -0.71418,-0.91822c-0.4081,-0.91822 -0.30608,-1.93846 0.10202,-2.75466c1.12226,-2.24454 4.28502,-2.24454 4.69312,-2.24454c0.20404,0 0.51012,0.10202 0.71418,0.10202c0,-0.20404 0.10202,-1.53036 0.30608,-1.93846c0.4081,-0.8162 1.02024,-1.53036 1.83644,-1.93846c0.8162,-0.4081 1.73442,-0.51012 2.5506,-0.51012c0.8162,0 1.73442,0.20404 2.5506,0.51012c1.53036,0.61214 3.06074,1.32632 4.38704,2.14252c1.42834,0.8162 2.75466,1.73442 3.97894,2.75466c0.10202,0.10202 0.20404,0.30608 0.10202,0.4081c0,0 -0.20404,0.10202 -0.30608,0c-1.32632,-0.91822 -2.65264,-1.73442 -4.08098,-2.5506c-1.32632,-0.8162 -2.75466,-1.42834 -4.28502,-1.93846c-0.71418,-0.20404 -1.42834,-0.51012 -2.24454,-0.4081c-4.38704,0.4081 -3.97894,3.3668 -4.08098,3.57086c1.2243,0.10202 2.44858,0.51012 3.57086,0.91822c0.8162,0.30608 4.183,2.24454 4.38704,2.65264c-0.4081,0 -2.04048,-0.51012 -2.44858,-0.71418c-0.71418,-0.4081 -4.38704,-2.14252 -6.93766,-2.24454c-0.4081,0 -1.02024,0 -1.63238,0.20404c0,0 -3.06074,1.2243 -2.44858,3.67288c0.20404,0.61214 0.51012,0.91822 0.91822,1.32632c0.91822,0 1.73442,0.10202 2.65264,0.30608c1.12226,0.20404 2.14252,0.4081 3.26478,0.71418c0.51012,0.10202 1.02024,0.30608 1.53036,0.51012c0.51012,0.30608 1.02024,0.61214 1.42834,1.02024c-0.61214,0.10202 -1.12226,0.10202 -1.73442,0c-0.51012,-0.10202 -1.02024,-0.20404 -1.63238,-0.4081c-1.02024,-0.30608 -2.14252,-0.51012 -3.16276,-0.8162c-2.04048,-0.51012 -4.28502,-0.61214 -6.3255,-0.20404c-1.02024,0.20404 -1.83644,0.8162 -2.24454,1.73442c-0.51012,0.8162 -0.51012,1.93846 0,2.75466c0.61214,0.8162 1.42834,1.53036 2.34656,1.93846c0.91822,0.51012 1.93846,0.8162 2.9587,1.02024c1.32632,-0.10202 2.65264,-0.10202 3.97894,0c0.8162,0 3.87692,0.30608 4.5911,0.71418c-0.8162,0.20404 -1.53036,0.20404 -2.34656,0.20404c-0.8162,0 -1.53036,-0.10202 -2.34656,-0.10202c-1.53036,-0.10202 -3.06074,0 -4.5911,0.10202c-0.71418,0.10202 -1.42834,0.20404 -2.14252,0.51012c-2.34656,1.53036 -1.42834,4.38704 -0.91822,4.89716c1.12226,1.02024 2.34656,1.83644 3.7749,2.24454c1.42834,0.51012 2.9587,0.91822 4.48908,1.12226c2.85668,0.4081 5.81538,0.51012 8.67206,0.30608c0.61214,-0.51012 1.2243,-0.91822 1.93846,-1.12226c-0.20404,0.61214 -0.61214,1.2243 -1.12226,1.73442c-0.4081,0.51012 -0.8162,1.02024 -1.2243,1.63238c-0.71418,1.12226 -1.32632,2.24454 -1.63238,3.57086c-0.30608,1.2243 -0.10202,2.5506 0.4081,3.67288c0.51012,1.12226 1.63238,1.73442 2.75466,1.42834c1.2243,-0.30608 2.34656,-0.91822 3.26478,-1.83644c0.51012,-0.4081 0.91822,-0.91822 1.2243,-1.42834l1.12226,-1.73442c0.8162,-1.12226 1.53036,-2.24454 2.44858,-3.3668c0.8162,-1.12226 1.93846,-2.04048 3.16276,-2.75466c0.20404,-0.10202 0.30608,0 0.4081,0.20404c0.10202,0.10202 0,0.30608 -0.10202,0.4081z" id="Path" fill="#030305"/></g></g></g><g data-paper-data="{&quot;origPos&quot;:null}" id="Cape_Front" fill-rule="evenodd" stroke-linejoin="miter"><path d="M343.13909,165.42505c-6.93766,8.16194 -16.42592,13.87532 -26.93442,16.22188c-17.44616,3.7749 -44.89072,0.10202 -22.75142,-6.42754c11.22268,-3.3668 44.27856,-8.16194 49.68586,-9.79434z" id="Path" fill="#4b3f8f" stroke="none" stroke-width="1" stroke-linecap="butt"/><path d="M292.43299,172.3627c18.77248,3.97894 7.5498,21.22106 7.5498,21.22106c-31.21946,15.9158 -69.9887,5.61134 -69.9887,5.61134c2.44858,-7.44778 44.27856,-30.70932 62.4389,-26.8324z" id="Path" fill="#4c3e8e" stroke="#030305" stroke-width="1.04" stroke-linecap="round"/></g><g data-paper-data="{&quot;origPos&quot;:null}" id="Head" stroke-linejoin="miter"><g id="Group"><g stroke="none" stroke-width="1" stroke-linecap="butt"><path d="M342.01683,170.62829c2.14252,8.87612 -9.38624,23.4656 -22.54738,9.99838c-12.34494,-12.65102 9.28422,-38.5652 10.40648,-21.22106c0.30608,4.5911 6.63158,7.34576 13.05912,3.57086c0,0 1.93846,8.26398 -4.79514,9.48826" id="Path" fill="#de9143" fill-rule="evenodd"/><path d="M342.62897,170.52626c0.4081,1.93846 0.30608,3.97894 -0.20404,5.91742c-0.51012,1.93846 -1.42834,3.67288 -2.5506,5.20324c-1.2243,1.63238 -2.75466,2.85668 -4.48908,3.87692c-1.73442,0.91822 -3.7749,1.42834 -5.81538,1.2243c-1.93846,-0.10202 -3.87692,-0.71418 -5.61134,-1.73442c-1.73442,-0.91822 -3.26478,-2.14252 -4.5911,-3.57086c-1.42834,-1.32632 -2.5506,-3.06074 -3.3668,-4.89716c-0.71418,-1.83644 -1.02024,-3.7749 -1.02024,-5.81538c0.10202,-3.87692 1.2243,-7.75386 3.26478,-11.12066c1.02024,-1.73442 2.24454,-3.26478 3.67288,-4.5911c0.71418,-0.71418 1.63238,-1.2243 2.5506,-1.73442c1.02024,-0.51012 2.24454,-0.61214 3.26478,-0.20404c1.02024,0.51012 1.83644,1.32632 2.24454,2.44858c0.4081,0.91822 0.61214,1.93846 0.71418,2.9587c0,0.51012 0.10202,1.02024 0.10202,1.32632c0.10202,0.4081 0.20404,0.8162 0.4081,1.12226c0.4081,0.71418 0.91822,1.32632 1.63238,1.83644c1.42834,0.91822 3.16276,1.32632 4.89716,1.2243c1.73442,-0.20404 3.46882,-0.71418 4.9992,-1.63238l0.91822,-0.51012l0.20404,0.91822c1.02024,4.08098 -1.2243,7.75386 -1.2243,7.75386zM342.52695,163.89468c-1.53036,0.71418 -3.06074,1.12226 -4.69312,1.32632c-2.04048,0.20404 -4.183,-0.30608 -5.91742,-1.42834c-0.91822,-0.61214 -1.63238,-1.42834 -2.14252,-2.34656c-0.20404,-0.51012 -0.4081,-1.02024 -0.51012,-1.53036c-0.10202,-0.61214 -0.10202,-1.02024 -0.10202,-1.42834c-0.10202,-0.91822 -0.30608,-1.73442 -0.61214,-2.5506c-0.20404,-0.71418 -0.71418,-1.32632 -1.42834,-1.63238c-0.71418,-0.20404 -1.53036,-0.10202 -2.14252,0.20404c-0.8162,0.4081 -1.53036,0.91822 -2.14252,1.42834c-1.32632,1.2243 -2.44858,2.65264 -3.3668,4.28502c-1.93846,3.16276 -2.9587,6.7336 -3.06074,10.40648c-0.10202,3.67288 1.32632,7.1417 3.87692,9.69232c2.5506,2.5506 5.81538,4.69312 9.38624,4.9992c1.73442,0.10202 3.57086,-0.20404 5.10122,-1.12226c1.63238,-0.8162 2.9587,-2.04048 4.08098,-3.46882c1.12226,-1.42834 1.93846,-3.06074 2.44858,-4.79514c0.4081,-1.53036 0.51012,-3.06074 0.30608,-4.5911c-0.10202,0.10202 -0.20404,0.20404 -0.30608,0.30608c-0.91822,0.61214 -1.93846,0.91822 -3.06074,0.71418c4.9992,-1.93846 4.28502,-7.85588 4.28502,-8.46802z" id="Shape" fill="#000000" fill-rule="nonzero"/></g><path d="M330.89617,167.77161c0,0 6.01944,5.4073 4.28502,12.65102c-3.46882,14.07936 -23.4656,14.6915 -46.62512,13.56924c-69.68262,-3.16276 -85.19032,-44.48262 -67.74416,-76.7223c14.38544,-26.4243 81.82352,-35.91258 107.12556,-9.08016c12.34494,13.16114 4.89716,50.7061 2.9587,59.58222z" id="Path" fill="#fbd1a6" fill-rule="evenodd" stroke="none" stroke-width="1" stroke-linecap="butt"/><path d="M244.88965,103.1902c-8.87612,17.1401 -29.89314,27.34252 -41.932,21.01702c-12.03888,-6.3255 -14.58948,-25.30204 -5.71336,-42.44212c8.87612,-17.1401 27.34252,-25.50608 39.3814,-19.18058c12.03888,6.3255 17.03806,23.4656 8.26398,40.6057z" id="Path" fill="#de9143" fill-rule="evenodd" stroke="#000000" stroke-width="1" stroke-linecap="butt"/><path d="M327.73341,108.59748c6.83564,7.34576 7.5498,22.13928 6.52956,35.40244c-17.1401,-0.51012 -30.70932,-18.67046 -30.70932,-18.67046c-2.14252,3.3668 -8.67206,-4.08098 -8.67206,-4.08098c0.51012,3.3668 0.51012,8.87612 -2.44858,9.59028c-3.3668,0.71418 -5.30526,-11.52876 -5.30526,-11.52876c-1.2243,2.44858 -14.2834,21.83322 -30.50528,24.89394c-18.26236,3.57086 -15.5077,35.70852 -19.07856,37.13686c0,0 -7.34576,-3.46882 -13.87532,-12.75304c-12.9571,-18.4664 -11.42672,-35.81054 -2.9587,-50.91014c14.6915,-26.32228 81.82352,-35.91258 107.02354,-9.08016z" id="Path" fill="#de9143" fill-rule="evenodd" stroke="none" stroke-width="1" stroke-linecap="butt"/><path d="M238.36009,181.64692c-25.30204,-15.5077 -29.48504,-42.13606 -17.65022,-64.07128c14.2834,-26.4243 81.82352,-35.91258 107.12556,-9.08016c12.34494,13.16114 4.89716,50.7061 2.9587,59.58222c0,0 6.12146,5.4073 4.28502,12.65102c-3.46882,14.07936 -23.4656,14.6915 -46.62512,13.56924c-15.60972,-0.71418 -29.89314,-3.87692 -40.1976,-7.85588" id="Path" fill="none" fill-rule="evenodd" stroke="#000000" stroke-width="1.24" stroke-linecap="round"/><g id="Oval" fill-rule="evenodd" stroke-linecap="butt"><path d="M213.46615,169.50602c0,-9.07178 7.35414,-16.42592 16.42592,-16.42592c9.07178,0 16.42592,7.35414 16.42592,16.42592c0,9.07178 -7.35414,16.42592 -16.42592,16.42592c-9.07178,0 -16.42592,-7.35414 -16.42592,-16.42592z" fill="#fbd1a6" stroke="none" stroke-width="1"/><path d="M213.46615,169.50602c0,-9.07178 7.35414,-16.42592 16.42592,-16.42592c9.07178,0 16.42592,7.35414 16.42592,16.42592c0,9.07178 -7.35414,16.42592 -16.42592,16.42592c-9.07178,0 -16.42592,-7.35414 -16.42592,-16.42592z" fill="none" stroke="#000000" stroke-width="1.24"/></g><g id="Path" fill-rule="evenodd" stroke-linecap="butt"><path d="M256.52041,143.59184c1.63238,-0.61214 3.26478,-1.2243 4.89716,-1.93846l2.34656,-1.12226c0.4081,-0.20404 0.8162,-0.30608 1.2243,-0.61214l1.12226,-0.61214l2.24454,-1.32632l2.14252,-1.42834l1.12226,-0.71418l1.02024,-0.8162c0.71418,-0.51012 1.42834,-1.02024 2.04048,-1.63238c2.65264,-2.24454 5.10122,-4.79514 7.24372,-7.44778c1.02024,-1.32632 2.04048,-2.75466 2.9587,-4.28502l1.32632,-2.24454c0.4081,-0.8162 1.02024,-1.53036 1.63238,-2.14252c0,0.91822 -0.20404,1.83644 -0.61214,2.65264c-0.4081,0.8162 -0.8162,1.63238 -1.2243,2.34656c-0.91822,1.53036 -1.93846,2.9587 -3.06074,4.38704c-2.24454,2.85668 -4.69312,5.4073 -7.44778,7.65182c-0.71418,0.61214 -1.42834,1.12226 -2.14252,1.63238l-1.02024,0.8162l-1.12226,0.71418l-2.24454,1.42834l-2.34656,1.53036l-1.12226,0.61214c-0.4081,0.20404 -0.8162,0.4081 -1.2243,0.61214l-2.44858,1.12226c-1.63238,0.71418 -3.26478,1.32632 -4.9992,1.93846c-0.30608,0.10202 -0.71418,0 -0.8162,-0.30608c-0.10202,-0.30608 0.10202,-0.61214 0.51012,-0.8162z" fill="#000000" stroke="none" stroke-width="1"/><path d="M334.67107,143.89791c-17.34414,-0.4081 -30.70932,-18.56844 -30.70932,-18.56844" fill="none" stroke="#000000" stroke-width="1.24"/><path d="M304.57389,124.30924c-0.10202,0.61214 -0.20404,1.2243 -0.51012,1.73442c-0.20404,0.30608 -0.51012,0.61214 -0.8162,0.8162c-0.30608,0.20404 -0.71418,0.20404 -1.12226,0.20404c-0.61214,0 -1.2243,-0.20404 -1.73442,-0.51012c-0.91822,-0.51012 -1.83644,-1.12226 -2.65264,-1.83644c-0.8162,-0.71418 -2.44858,-2.24454 -2.44858,-2.24454c0,0.20404 0.30608,3.16276 0.30608,4.28502c0,1.2243 -0.4081,2.5506 -1.2243,3.57086c-0.51012,0.51012 -1.12226,0.91822 -1.83644,1.02024c-5.10122,0.61214 -5.30526,-9.28422 -5.4073,-10.5085c0,-0.61214 -0.10202,-2.04048 0.71418,-3.57086c0.20404,0.51012 0.71418,13.36518 4.48908,12.75304c3.67288,-0.61214 1.32632,-9.79434 1.2243,-10.30446c0.30608,0.10202 2.24454,1.53036 2.5506,1.83644c3.3668,3.87692 5.61134,3.97894 6.01944,4.08098c0.30608,0 2.85668,-0.8162 -0.30608,-5.20324c-0.61214,-0.8162 -2.65264,-2.5506 -5.10122,-2.85668c1.02024,-0.4081 2.24454,-0.30608 3.26478,0.20404c1.02024,0.4081 1.93846,1.02024 2.75466,1.83644c0.8162,0.8162 1.42834,1.83644 1.73442,2.9587c0.10202,0.61214 0.20404,1.12226 0.10202,1.73442z" fill="#000000" stroke="none" stroke-width="1"/></g><g id="Path" fill-rule="evenodd" stroke="none" stroke-width="1" stroke-linecap="butt"><path d="M258.96901,169.30198c1.12226,8.97814 -14.38544,28.56682 -21.73118,10.5085c-9.08016,-22.13928 5.30526,-45.60488 17.75224,-46.01298c6.01944,-0.10202 0.10202,13.56924 -1.93846,17.54818c-1.83644,3.3668 -2.65264,3.87692 -3.06074,7.75386c-0.51012,4.48908 3.16276,8.57004 9.1822,5.50932c0,0 1.16212,7.3213 -4.183,10.50692z" fill="#de9143"/><path d="M259.78519,168.38376c-0.10202,0.71418 -0.30608,1.53036 -0.61214,2.24454c0.10202,0.91822 0.10202,1.93846 0,2.85668c-0.30608,1.42834 -0.71418,2.75466 -1.32632,4.08098c-1.2243,2.65264 -2.9587,4.9992 -5.10122,7.03968c-1.12226,1.02024 -2.44858,1.83644 -3.7749,2.34656c-1.42834,0.61214 -3.06074,0.71418 -4.5911,0.30608c-1.53036,-0.4081 -2.85668,-1.12226 -3.97894,-2.14252c-1.02024,-1.02024 -2.04048,-2.14252 -2.75466,-3.3668c-1.53036,-2.44858 -2.65264,-5.10122 -3.3668,-7.9579c-0.71418,-2.75466 -1.12226,-5.61134 -1.02024,-8.46802c0.10202,-2.85668 0.51012,-5.61134 1.32632,-8.26398c0.51012,-2.85668 1.73442,-5.50932 3.26478,-7.85588c-0.91822,2.65264 -1.73442,5.30526 -2.44858,7.9579c-0.61214,2.65264 -1.02024,5.4073 -1.02024,8.16194c0,2.75466 0.30608,5.50932 1.02024,8.16194c0.71418,2.65264 1.83644,5.10122 3.26478,7.44778c0.71418,1.12226 1.53036,2.14252 2.5506,3.06074c0.91822,0.8162 2.14252,1.42834 3.3668,1.83644c2.44858,0.61214 5.10122,-0.61214 7.03968,-2.34656c2.04048,-1.83644 3.67288,-3.97894 4.79514,-6.42754c0.61214,-1.2243 1.02024,-2.5506 1.42834,-3.7749c0,-0.10202 0.10202,-0.30608 0.10202,-0.4081c-0.51012,0.71418 -1.12226,1.42834 -1.83644,1.93846c-1.02024,0.71418 -2.24454,1.2243 -3.46882,1.32632c1.02024,-0.61214 1.93846,-1.32632 2.75466,-2.14252c0.8162,-0.71418 1.53036,-1.63238 2.04048,-2.65264c0.51012,-1.02024 0.8162,-2.14252 0.91822,-3.26478c0,-0.8162 0,-1.63238 0,-2.44858c-1.32632,0.61214 -2.85668,0.8162 -4.38704,0.61214c-1.93846,-0.4081 -3.57086,-1.73442 -4.28502,-3.57086c-0.30608,-0.91822 -0.51012,-1.83644 -0.51012,-2.75466c0,-0.91822 0.20404,-1.83644 0.30608,-2.75466c0.20404,-0.91822 0.51012,-1.73442 0.91822,-2.5506c0.4081,-0.8162 0.8162,-1.53036 1.2243,-2.24454c1.73442,-2.9587 3.16276,-6.01944 4.28502,-9.1822c0.61214,-1.53036 0.91822,-3.26478 1.02024,-4.89716c0.30608,-1.73442 -0.10202,-3.3668 -1.02024,-4.79514c1.32632,1.2243 2.14252,2.9587 2.04048,4.79514c0,1.73442 -0.30608,3.57086 -0.8162,5.20324c-1.02024,3.3668 -2.44858,6.52956 -4.183,9.59028c-0.4081,0.8162 -0.8162,1.53036 -1.2243,2.24454c-0.30608,0.71418 -0.61214,1.53036 -0.71418,2.24454c-0.20404,0.8162 -0.20404,1.63238 -0.30608,2.44858c0,0.71418 0.10202,1.53036 0.4081,2.24454c0.51012,1.42834 1.83644,2.44858 3.26478,2.65264c1.53036,0.20404 3.16276,-0.10202 4.48908,-0.91822l0.91822,-0.4081l0.10202,1.02024c0.20404,1.2243 0.10202,2.5506 -0.10202,3.7749z" fill="#000000"/></g></g><g id="Group" fill-rule="evenodd"><path d="M310.59333,138.3886c1.32632,1.83644 0.4081,4.48908 -3.26478,6.3255c-3.67288,1.83644 -8.97814,2.24454 -10.30446,0.4081c-1.32632,-1.83644 0.8162,-4.9992 4.48908,-6.83564c3.67288,-1.83644 7.65182,-1.73442 9.08016,0.10202z" id="Path" fill="#8e5334" stroke="none" stroke-width="1" stroke-linecap="butt"/><path d="M310.59333,138.3886c1.32632,1.83644 0.4081,4.48908 -3.26478,6.3255c-3.67288,1.83644 -8.97814,2.24454 -10.30446,0.4081c-1.32632,-1.83644 0.8162,-4.9992 4.48908,-6.83564c3.67288,-1.83644 7.65182,-1.73442 9.08016,0.10202z" id="Path" fill="none" stroke="#000000" stroke-width="1.04" stroke-linecap="round"/></g><g id="Group" fill-rule="evenodd"><path d="M285.39331,138.3886c3.87692,2.34656 6.22348,6.01944 4.89716,7.85588c-1.32632,1.83644 -6.7336,0.8162 -10.71256,-1.63238c-3.97894,-2.44858 -4.9992,-5.4073 -3.67288,-7.24372c1.32632,-1.83644 5.61134,-1.32632 9.48826,1.02024z" id="Path" fill="#8e5334" stroke="none" stroke-width="1" stroke-linecap="butt"/><path d="M285.39331,138.3886c3.87692,2.34656 6.22348,6.01944 4.89716,7.85588c-1.32632,1.83644 -6.7336,0.8162 -10.71256,-1.63238c-3.97894,-2.44858 -4.9992,-5.4073 -3.67288,-7.24372c1.32632,-1.83644 5.61134,-1.32632 9.48826,1.02024z" id="Path" fill="none" stroke="#000000" stroke-width="1.04" stroke-linecap="round"/></g><g id="Group" fill-rule="evenodd" stroke="none" stroke-width="1" stroke-linecap="butt"><path d="M271.41597,158.58942c0,-4.62041 3.33448,-8.366 7.44778,-8.366c4.1133,0 7.44778,3.74559 7.44778,8.366c0,4.62041 -3.33448,8.366 -7.44778,8.366c-4.1133,0 -7.44778,-3.74559 -7.44778,-8.366z" id="Oval" fill="#ffffff"/><path d="M271.21193,156.75298c-0.30608,-2.24454 1.63238,-4.89716 2.65264,-5.61134c0.91822,-0.71418 2.04048,-1.32632 3.16276,-1.63238c1.2243,-0.30608 2.44858,-0.30608 3.67288,0.10202c1.12226,0.4081 2.14252,1.02024 3.06074,1.83644c1.73442,1.63238 2.75466,3.7749 2.85668,6.12146c0,0.10202 0,0.10202 -0.10202,0.20404c-0.10202,0 -0.10202,0 -0.20404,-0.10202c-0.4081,-2.14252 -1.53036,-4.08098 -3.26478,-5.50932c-0.8162,-0.61214 -1.83644,-1.12226 -2.85668,-1.32632c-1.02024,-0.20404 -2.04048,-0.20404 -3.06074,-0.10202c-1.02024,0.10202 -2.04048,0.51012 -2.85668,1.12226c-0.8162,0.61214 -3.06074,2.5506 -3.06074,4.79514c0.10202,0.10202 0.10202,0.10202 0,0.10202c0.10202,0 0,0 0,0z" id="Path" fill="#030305"/><path d="M272.13015,162.46634c0.8162,1.12226 1.83644,2.04048 3.06074,2.75466c0.61214,0.30608 1.2243,0.51012 1.83644,0.71418c0.61214,0.10202 1.32632,0.20404 1.93846,0.10202c1.32632,0 2.5506,-0.4081 3.67288,-1.12226c1.12226,-0.8162 2.14252,-1.73442 2.85668,-2.9587c0,0 0.10202,0 0.20404,0c0,0 0.10202,0.10202 0.10202,0.20404c-0.4081,1.42834 -1.32632,2.75466 -2.44858,3.67288c-1.2243,0.91822 -2.65264,1.53036 -4.183,1.53036c-1.53036,0 -2.9587,-0.4081 -4.183,-1.2243c-1.32632,-0.8162 -2.24454,-2.04048 -2.85668,-3.46882c-0.10202,-0.10202 -0.10202,-0.10202 0,-0.20404z" id="Path" fill="#030305"/><path d="M283.04675,158.89549c0.30608,1.73442 -0.8162,3.3668 -2.5506,3.67288c0,0 -2.9587,0.30608 -3.46882,-3.57086c-0.4081,-3.7749 2.44858,-4.183 2.44858,-4.183c1.12226,-0.20404 3.3668,0.8162 3.57086,4.08098z" id="Path" fill="#030305"/></g><g id="Group" fill-rule="evenodd" stroke="none" stroke-width="1" stroke-linecap="butt"><path d="M301.51315,158.18132c0,-4.62041 3.33448,-8.366 7.44778,-8.366c4.1133,0 7.44778,3.74559 7.44778,8.366c0,4.62041 -3.33448,8.366 -7.44778,8.366c-4.1133,0 -7.44778,-3.74559 -7.44778,-8.366z" id="Oval" fill="#ffffff"/><path d="M316.10263,156.4469c-0.10202,0 -0.10202,-0.10202 -0.10202,-0.10202c-0.20404,-2.24454 -2.44858,-3.97894 -3.3668,-4.5911c-0.91822,-0.61214 -1.93846,-0.91822 -2.9587,-1.02024c-1.02024,0 -2.04048,0 -3.06074,0.30608c-0.91822,0.30608 -1.83644,0.8162 -2.65264,1.53036c-1.63238,1.53036 -2.65264,3.57086 -2.85668,5.71336c0,0.10202 0,0.10202 -0.10202,0.10202c-0.10202,0 -0.10202,0 -0.10202,-0.10202c0.10202,-2.34656 0.91822,-4.5911 2.5506,-6.3255c0.8162,-0.91822 1.83644,-1.63238 2.9587,-2.04048c1.2243,-0.51012 2.44858,-0.61214 3.67288,-0.4081c1.12226,0.30608 2.24454,0.8162 3.26478,1.42834c1.02024,0.61214 3.16276,3.16276 2.9587,5.4073c0,0.10202 0,0.10202 -0.20404,0.10202z" id="Path" fill="#030305"/><path d="M315.79657,162.16027c0.10202,0 0.10202,0 0,0c-0.4081,1.53036 -1.32632,2.85668 -2.5506,3.7749c-1.2243,0.91822 -2.65264,1.42834 -4.183,1.42834c-1.53036,0.10202 -3.06074,-0.30608 -4.28502,-1.2243c-1.32632,-0.8162 -2.24454,-2.04048 -2.75466,-3.46882c0,-0.10202 0.10202,-0.20404 0.10202,-0.20404c0.10202,0 0.20404,0 0.20404,0c0.71418,1.12226 1.73442,2.04048 2.9587,2.75466c1.2243,0.61214 2.44858,0.91822 3.7749,0.91822c0.61214,0 1.32632,0 1.93846,-0.20404c0.71418,-0.20404 1.2243,-0.51012 1.83644,-0.8162c1.2243,-0.8162 2.24454,-1.83644 2.9587,-2.9587c0,-0.10202 0.10202,-0.10202 0,0z" id="Path" fill="#030305"/><path d="M307.94069,155.01856c0,0 2.9587,0.30608 2.75466,3.97894c-0.20404,3.87692 -3.26478,3.7749 -3.26478,3.7749c-1.73442,-0.20404 -2.9587,-1.73442 -2.75466,-3.46882c0,-3.26478 2.14252,-4.48908 3.26478,-4.28502z" id="Path" fill="#030305"/></g><path d="M293.04513,159.40561c0.51012,-0.30608 1.02024,-0.51012 1.63238,-0.51012c0.61214,0 1.12226,0 1.63238,0.10202c1.2243,0.20404 2.34656,0.91822 2.9587,2.04048c0.20404,0.51012 0.30608,1.12226 0.30608,1.73442c0,0.61214 0,1.12226 -0.10202,1.73442c-0.10202,0.51012 -0.30608,1.12226 -0.61214,1.63238c-0.20404,0.51012 -0.61214,1.02024 -1.2243,1.2243c0,-0.51012 0.20404,-1.02024 0.4081,-1.53036c0.20404,-0.51012 0.30608,-0.91822 0.4081,-1.42834c0.10202,-0.51012 0.10202,-1.02024 0.10202,-1.42834c0,-0.51012 -0.10202,-0.91822 -0.30608,-1.32632c-0.4081,-0.8162 -1.2243,-1.42834 -2.14252,-1.63238c-0.51012,-0.10202 -1.02024,-0.20404 -1.53036,-0.20404c-0.51012,-0.10202 -1.02024,-0.20404 -1.53036,-0.4081z" id="Path" fill="#030305" fill-rule="evenodd" stroke="none" stroke-width="1" stroke-linecap="butt"/></g><g data-paper-data="{&quot;origPos&quot;:null}" id="Group" fill-rule="evenodd" stroke-linejoin="miter"><path d="M276.31315,174.30116c3.97894,-4.5911 14.48746,-0.10202 22.54738,-0.30608c11.7328,-0.30608 15.81378,-4.28502 21.93524,-2.65264c4.08098,1.12226 2.44858,9.38624 -3.26478,13.77328c-6.3255,4.79514 -17.44616,6.93766 -27.13848,5.81538c-10.61054,-1.32632 -19.89474,-9.89636 -14.07936,-16.62996z" id="Path" fill="#ffffff" stroke="none" stroke-width="1" stroke-linecap="butt"/><path d="M276.31315,174.30116c3.97894,-4.5911 14.48746,-0.10202 22.54738,-0.30608c11.7328,-0.30608 15.81378,-4.28502 21.93524,-2.65264c4.08098,1.12226 2.44858,9.38624 -3.26478,13.77328c-6.3255,4.79514 -17.44616,6.93766 -27.13848,5.81538c-10.61054,-1.32632 -19.89474,-9.89636 -14.07936,-16.62996z" id="Path" fill="none" stroke="#000000" stroke-width="0.83" stroke-linecap="round"/><path d="M290.49453,173.1789c0.30608,3.3668 -1.63238,13.56924 -4.38704,16.93604" id="Path" fill="none" stroke="#030305" stroke-width="0.62" stroke-linecap="butt"/><path d="M302.94149,173.89307c0.4081,1.32632 -1.53036,13.05912 -2.75466,16.93604" id="Path" fill="none" stroke="#030305" stroke-width="0.62" stroke-linecap="butt"/><path d="M314.47025,171.24044c1.42834,4.38704 -0.20404,13.05912 -2.14252,16.52794" id="Path" fill="none" stroke="#030305" stroke-width="0.62" stroke-linecap="butt"/></g></g></g></svg>