<svg version="1.1" xmlns="http://www.w3.org/2000/svg" xmlns:xlink="http://www.w3.org/1999/xlink" width="199.74623" height="224.21124" viewBox="0,0,199.74623,224.21124"><g transform="translate(-146.26107,-68.5)"><g data-paper-data="{&quot;isPaintingLayer&quot;:true}" fill="none" fill-rule="evenodd" stroke="none" stroke-width="none" stroke-linecap="none" stroke-linejoin="miter" stroke-miterlimit="10" stroke-dasharray="" stroke-dashoffset="0" font-family="none" font-weight="none" font-size="none" text-anchor="none" style="mix-blend-mode: normal"><g data-paper-data="{&quot;index&quot;:null}" id="Group"><path d="M221.51836,249.1c14.9,0 26.9,1.8 26.9,4.1c0,2.3 -12.1,3.2 -26.9,2.4c-14,-0.8 -21,-0.2 -26.6,-2.5c-2.5,-1 11.7,-4 26.6,-4z" id="Path" fill="#9f4727" stroke="none" stroke-width="1" stroke-linecap="butt"/><path d="M221.51836,249.1c14.9,0 26.9,1.8 26.9,4.1c0,2.3 -12.1,3.2 -26.9,2.4c-14,-0.8 -21,-0.2 -26.6,-2.5c-2.5,-1 11.7,-4 26.6,-4z" id="Path" fill="none" stroke="#000000" stroke-width="0.79" stroke-linecap="round"/></g><g data-paper-data="{&quot;index&quot;:null}" id="Group"><path d="M222.91836,247.9c3,-0.1 4,1.7 3.6,2.8c-2,5.5 -4.2,11.4 -4.4,16.9c-0.2,4 -8,3.9 -7.9,0.6c0.1,-3.6 1.6,-7.8 3.8,-14.5c0,0 2,-5.8 4.9,-5.8z" id="Path" fill="#c9a663" stroke="#000000" stroke-width="1" stroke-linecap="butt"/><g id="Path"><path d="M220.71836,267.4c2.1,2.8 3.7,8.9 4.8,12c-2,-1 -4.3,-1.6 -6.5,-0.9c-0.7,0.2 -1.3,0.6 -1.8,1.1c-0.8,-2.5 -2.9,-8.4 -3.3,-11.2c0.3,-0.6 0.7,-1.2 1.2,-1.7c2.2,-1.7 3.9,-1.5 5.6,0.7z" fill="#c9a663" stroke="none" stroke-width="1" stroke-linecap="butt"/><g fill="none"><path d="M222.01836,266.8c-0.5,3.8 2.5,9.8 3.6,12.8c0.3,0.9 1.3,3.1 1.7,4.4c0.9,4.5 -7,4.2 -9.1,-2.4c-0.7,-2.1 -4.7,-9.4 -3.8,-14.5" stroke="#000000" stroke-width="0.92" stroke-linecap="round"/><path d="M217.41836,279.5c3.6,-2.9 7.9,-0.4 8.2,-0.3" stroke="#000104" stroke-width="0.53" stroke-linecap="butt"/></g></g><path d="M207.51836,283.5c1.2,-1.1 2.9,-1.5 4.5,-1.3c1.5,0.2 6.2,0.5 6.2,0.5c0.1,0 0.2,0 0.2,0c-0.3,-0.7 -0.6,-1.3 -0.8,-1.7c-0.1,-0.5 -0.3,-0.9 -0.4,-1.4c0.4,-0.6 1.1,-1 1.8,-1.1c2.2,-0.8 4.8,-0.1 6.8,0.8c0.4,1.3 0.9,2.5 1.3,3.7c0.1,0.3 0.6,1.8 0.7,1.9c1.4,4.2 -2.6,5.3 -4.7,5.9c-3.9,1.3 -8.1,1.3 -12,0c-1.6,-0.6 -2.9,-1.6 -3.9,-2.9c-0.9,-1.3 -0.8,-3.1 0.3,-4.4z" id="Path" fill="#231222" stroke="#000000" stroke-width="1" stroke-linecap="butt"/></g><g data-paper-data="{&quot;index&quot;:null}" id="Group"><path d="M258.81836,254.3c2.9,6.5 4.9,10.4 5.4,14c0.5,3.3 -7.3,4.3 -7.9,0.3c-0.8,-5.4 -3.7,-11.1 -6.2,-16.4c-0.5,-1 0.2,-2.9 3.2,-3.2c3,-0.3 5.5,5.3 5.5,5.3z" id="Path" fill="#c9a663" stroke="#000000" stroke-width="1" stroke-linecap="butt"/><g id="Path"><path d="M263.31836,267.2c0.5,0.5 0.9,1.1 1.2,1.7c-0.4,2.8 -2.5,8.6 -3.3,11.2c-0.5,-0.5 -1.1,-0.9 -1.8,-1.1c-2.2,-0.7 -4.5,-0.1 -6.5,0.9c1.1,-3.1 2.7,-9.2 4.8,-12c1.7,-2.2 3.4,-2.4 5.6,-0.7z" fill="#c9a663" stroke="none" stroke-width="1" stroke-linecap="butt"/><g fill="none"><path d="M264.01836,267.6c0.9,5.1 -3.1,12.4 -3.8,14.5c-2.1,6.6 -10,6.9 -9.1,2.4c0.4,-1.3 1.4,-3.5 1.7,-4.4c1.1,-3 4.1,-9 3.6,-12.8" stroke="#000000" stroke-width="0.92" stroke-linecap="round"/><path d="M252.91836,279.8c0.3,-0.1 4.6,-2.6 8.2,0.3" stroke="#000104" stroke-width="0.53" stroke-linecap="butt"/></g></g><path d="M250.51836,285.8c0.2,-0.2 2.1,-5.9 2.1,-5.9c2,-1 4.6,-1.6 6.8,-0.8c0.7,0.2 1.3,0.6 1.7,1.1c-0.1,0.5 -0.3,0.9 -0.4,1.4c-0.1,0.4 -0.3,0.9 -0.6,1.5c0.5,-0.1 4.6,-0.6 6.1,-0.9c1.6,-0.4 3.3,0 4.6,1c1.1,1.2 1.3,3 0.5,4.4c-0.9,1.4 -2.2,2.5 -3.7,3.2c-3.8,1.6 -8,1.8 -12,0.8c-2.1,-0.6 -6.2,-1.5 -5.1,-5.8z" id="Path" fill="#231222" stroke="#000000" stroke-width="1" stroke-linecap="butt"/></g><g data-paper-data="{&quot;index&quot;:null}" id="JP_R_Arm"><g id="Group"><g id="Path" stroke="none" stroke-width="1" stroke-linecap="butt"><path d="M186.61836,174.9c-2.7,4.6 -17.3,20.4 -22.5,23.3c-1.9,1.1 -10.1,-1.4 -14.4,-10.6c-3.7,-7.9 -4.3,-20.5 -0.4,-23.5c4.5,-3.5 23.1,-14.5 29.6,-12.4c9.8,3 11.9,16.1 7.7,23.2z" fill="#f0f5eb"/><path d="M171.21836,152.8c-6.6,6 -9.3,35 5.4,34c0,0 -10.3,11.4 -13.1,11.8c-2.8,0.4 -11,-2.8 -14.7,-13.7c-4.5,-13.2 -0.6,-19.9 0.9,-21.2c5.7,-5.2 19.2,-10.9 21.5,-10.9z" fill="#f2632e"/></g><g id="Path" fill="none" stroke="#000000" stroke-width="0.79" stroke-linecap="round"><path d="M186.61836,174.9c-2.7,4.6 -17.3,20.4 -22.5,23.3c-1.9,1.1 -10.1,-1.4 -14.4,-10.6c-3.7,-7.9 -4.3,-20.5 -0.4,-23.5c4.5,-3.5 23.1,-14.5 29.6,-12.4c9.8,3 11.9,16.1 7.7,23.2z"/><path d="M176.61836,186.8c-12,2.7 -14.5,-24.1 -5.3,-34.1"/></g></g><g id="Group" stroke-linecap="butt"><g id="Path" stroke="none" stroke-width="1"><path d="M179.61836,155c4.6,-3.3 10.4,2.5 22,12.4c8.7,7.4 18.7,10.9 27.1,20.2c4.4,4.9 -2.7,27.6 -20.6,21.1c-3,-1 -21,-6.7 -34.1,-23.4c-2.4,-3 -1.4,-25.3 5.6,-30.3z" fill="#f2632e"/><path d="M170.41836,181.2c-1.4,-5.6 2,-30.3 9.2,-29.3c6.2,0.8 23.7,16.9 23.7,16.9c-1.9,0.5 -17.4,13.3 -19.1,26.8c0,0 -12.4,-8.8 -13.8,-14.4z" fill="#f0f5eb"/></g><g id="Path"><path d="M182.71836,152.5c1.3,0.6 2.6,1.4 3.9,2.2c2.5,1.6 4.8,3.5 7.1,5.4c2.3,1.9 4.5,3.9 6.8,5.8c2.2,1.9 4.6,3.7 7,5.4c4.9,3.3 10.2,6.2 14.9,9.9c2.4,1.9 4.6,3.9 6.6,6.1c0.5,0.6 0.9,1.3 1.1,2.1c0.2,0.8 0.3,1.5 0.3,2.3c0.1,1.5 -0.1,3 -0.5,4.5c-0.7,2.9 -2,5.7 -3.9,8.1c-1.8,2.5 -4.4,4.3 -7.3,5.3c-1.4,0.5 -3,0.7 -4.5,0.7c-1.5,-0.1 -3,-0.3 -4.5,-0.7c-2.9,-0.9 -5.7,-2 -8.4,-3.3c-5.4,-2.5 -10.6,-5.5 -15.5,-8.9c-1.2,-0.9 -2.4,-1.8 -3.6,-2.7c-1.2,-0.9 -2.4,-1.9 -3.5,-2.8c-1.1,-0.9 -2.2,-2 -3.3,-3c-0.6,-0.5 -1.1,-1 -1.6,-1.6c-0.6,-0.6 -1,-1.2 -1.3,-1.9c0.7,0.4 1.3,0.8 1.8,1.4c0.6,0.5 1,1.1 1.6,1.6c1.1,1 2.2,2.1 3.3,3c1.1,0.9 2.2,1.8 3.4,2.8c1.2,1 2.4,1.8 3.6,2.7c4.9,3.4 10,6.3 15.4,8.8c2.6,1.2 5.4,2.3 8.2,3.2c1.4,0.4 2.8,0.6 4.3,0.6c1.5,0 2.9,-0.2 4.3,-0.6c2.7,-0.9 5.1,-2.7 6.9,-5c1.8,-2.3 3.1,-5 3.8,-7.8c0.4,-1.4 0.5,-2.8 0.5,-4.3c0,-1.4 -0.4,-2.8 -1.3,-3.9c-2,-2.2 -4.2,-4.2 -6.5,-6c-4.7,-3.7 -9.9,-6.5 -14.8,-9.9c-2.5,-1.7 -4.9,-3.5 -7.1,-5.5c-2.2,-2 -4.5,-3.9 -6.8,-5.8c-2.3,-1.9 -4.7,-3.8 -7.1,-5.4c-1.2,-0.8 -2.5,-1.6 -3.8,-2.2c-1.3,-0.6 -2.7,-0.8 -4.1,-1.5c1.5,-0.4 3.1,0.3 4.6,0.9z" fill="#000104" stroke="none" stroke-width="1"/><path d="M184.21836,195.6c1.6,-13.6 17.2,-26.3 19.1,-26.8" fill="none" stroke="#000104" stroke-width="0.79"/></g></g></g><g data-paper-data="{&quot;index&quot;:null}" id="JP_L_Arm"><g id="Group" stroke-linecap="butt"><g id="Path" stroke="none" stroke-width="1"><path d="M257.31836,201c-1,-18.8 11,-22.7 20.4,-27c0,0 19.7,-17.3 27.2,-19.9c7.5,-2.6 19.5,28.8 7.7,37c-11.8,8.2 -33,16.8 -34.1,17.7c-14.7,12.6 -20.8,-1.4 -21.2,-7.8z" fill="#f2632e"/><path d="M297.21836,199.4c-5.9,1.5 -15.9,-18.7 -10.1,-33.2c0,0 12.5,-11.3 18.4,-12c18.2,-2 21.3,22.3 12.8,32.5c-3.4,4 -19.1,12.2 -21.1,12.7z" fill="#f0f5eb"/></g><g id="Path" fill="none" stroke="#000104" stroke-width="0.79"><path d="M296.51836,200.1c-13.5,-8.4 -11.6,-31.6 -9.4,-33.9"/><path d="M257.31836,201.1c-1,-18.8 11,-22.7 20.4,-27c0,0 19.6,-17.7 27.3,-19.8c17.2,-4.6 26.1,25.2 7.6,36.8c-12.2,7.7 -33,16.8 -34.1,17.7c-14.7,12.6 -20.8,-1.4 -21.2,-7.7z"/></g></g><g id="Group"><g stroke="none" stroke-width="1" stroke-linecap="butt"><path d="M299.41836,157.5c2.1,-1.3 6.2,-4.8 12.5,-4.8c9.8,0 27,22.9 31.9,28.2c2.1,2.2 1.6,3.7 1.6,3.7l-33.2,24.8c-6.2,-5.8 -9.5,-23.4 -9.5,-23.4c0,0 -10.8,-21.7 -3.3,-28.5z" id="Path" fill="#f2632e"/><path d="M312.09015,209.08493c-1.59138,-2.12024 4.56668,-9.42932 13.7544,-16.32528c9.18772,-6.89596 17.9259,-10.76744 19.51728,-8.6472c1.59138,2.12024 -4.56668,9.42932 -13.7544,16.32528c-9.18772,6.89596 -17.9259,10.76744 -19.51728,8.6472z" id="Oval" fill="#9f4727"/><path d="M330.11836,165.3c-3.8,-0.6 -22.7,11.4 -26.7,23.5l-2.5,-5.8c-8.6,-7.3 -10.7,-21.8 1.7,-27.7c12.3,-5.8 17.4,-0.6 27.5,10z" id="Path" fill="#f0f5eb"/></g><g><path d="M312.09015,209.08493c-1.59138,-2.12024 4.56668,-9.42932 13.7544,-16.32528c9.18772,-6.89596 17.9259,-10.76744 19.51728,-8.6472c1.59138,2.12024 -4.56668,9.42932 -13.7544,16.32528c-9.18772,6.89596 -17.9259,10.76744 -19.51728,8.6472z" id="Oval" fill="none" stroke="#000000" stroke-width="0.79002" stroke-linecap="butt"/><path d="M303.81836,188.8c0.3,1 0.5,2.1 0.8,3.1c0.6,2.1 1.2,4.1 1.9,6.1c0.7,2 1.5,3.9 2.5,5.8c0.9,1.9 2.1,3.6 3.6,5.1l-0.5,0.6c-1.6,-1.5 -2.9,-3.3 -3.8,-5.3c-1,-1.9 -1.8,-3.9 -2.5,-5.9c-0.7,-2 -1.3,-4 -1.9,-6.1c-0.3,-1 -0.6,-2.1 -0.8,-3.1c-0.4,-1 -0.5,-2.1 -0.3,-3.2c0.5,1 0.8,2 1,2.9z" id="Path" fill="#000000" stroke="none" stroke-width="1" stroke-linecap="butt"/><path d="M298.51836,157.8c2.1,-1.3 7,-5.1 13.3,-5.1c9.8,0.1 27,23 31.9,28.2c2.2,2.3 1.7,3.7 1.7,3.7" id="Path" fill="none" stroke="#000000" stroke-width="0.79" stroke-linecap="round"/><path d="M303.51836,189.2c0.4,-8.3 24.3,-27.1 27.2,-23.4" id="Path" fill="none" stroke="#000000" stroke-width="0.79" stroke-linecap="round"/></g></g></g><g data-paper-data="{&quot;index&quot;:null}" id="JP_Collar" stroke-linecap="butt"><g id="Group"><g id="Path" stroke="none" stroke-width="1"><path d="M244.11836,172.1c10.9,-0.3 19.7,4 26.9,5.5c4.2,5 4.1,19.5 4.9,25.3c-0.5,9.7 2.1,52.3 0.4,58.5c-24.7,8.6 -38.4,-11.4 -82,-8.9c-1.7,-22.7 24.6,-43.7 20.6,-76c8,-1.1 14,-3.8 29.2,-4.4z" fill="#f2632e"/><path d="M276.91836,240.7c-18.1,10.8 -51.6,-12.3 -77.1,-10l8.7,-17.4c23.7,-1.8 50.7,13.6 67.4,5.2z" fill="#f0f5eb"/></g><g id="Path"><path d="M211.41836,205.9c-0.1,0.5 -0.2,1.1 -0.4,1.6c-0.4,1 -0.8,2 -1.2,3c-0.9,2 -1.8,4 -2.8,5.9c-1.9,3.9 -3.9,7.7 -5.8,11.6c-1.9,3.9 -3.6,7.9 -5,12c-0.7,2 -1.2,4.1 -1.5,6.2c-0.4,2.1 -0.3,4.2 0.2,6.3l-0.4,-0.3c7,-0.4 14,-0.3 20.9,0.5c7,0.8 13.8,2.2 20.5,4.2c6.7,1.9 13.3,4.2 20.1,5.4c6.8,1.3 13.8,0.9 20.4,-1.2l-0.3,0.3c0.4,-5.1 0.5,-10.3 0.4,-15.4c-0.1,-5.1 -0.3,-10.3 -0.5,-15.4l-0.7,-15.5c-0.1,-2.5 -0.2,-5.1 -0.2,-7.7c0,-1.3 0,-2.6 0.1,-3.9c0,-1.3 0.2,-2.6 0.5,-3.9c0,-0.1 0.2,-0.2 0.3,-0.2c0.2,0 0.3,0.1 0.3,0.3c-0.2,2.5 -0.3,5 -0.3,7.6c0,2.6 0.1,5.1 0.2,7.7l0.6,15.4c0.2,5.2 0.4,10.3 0.5,15.5c0.1,5.2 0,10.3 -0.4,15.5v0.3l-0.2,0.1c-6.7,2.1 -13.9,2.6 -20.8,1.2c-6.9,-1.2 -13.5,-3.5 -20.2,-5.4c-6.6,-1.9 -13.4,-3.4 -20.3,-4.2c-6.9,-0.8 -13.9,-1 -20.8,-0.5h-0.3l-0.1,-0.3c-0.5,-2.2 -0.6,-4.4 -0.2,-6.6c0.3,-2.2 0.8,-4.3 1.5,-6.4c1.4,-4.1 3.1,-8.1 5,-12c1.9,-3.9 3.9,-7.7 5.8,-11.6c1,-2 1.9,-3.9 2.8,-5.9c0.9,-2 1.4,-4 2.3,-6c0.1,0.5 0.1,1.1 0,1.8z" fill="#000000" stroke="none" stroke-width="1"/><path d="M276.81836,240.6c-20.8,10.4 -47.4,-12 -77.2,-10" fill="none" stroke="#000000" stroke-width="0.79"/><path d="M275.91836,218.6c-16.7,8.4 -43.7,-7.4 -67.4,-5.6" fill="none" stroke="#000000" stroke-width="0.79"/></g></g><g id="Group"><g id="Path" stroke-width="1"><path d="M215.31836,177.5c4.1,-2.4 15.3,-7.1 32.2,-7.1c8.9,0 23.8,7.7 23,7.2c-1.3,10.8 -21,27.5 -28.2,32.5c-14.3,-12.8 -25.9,-29.3 -27,-32.6z" fill="#ffedce" stroke="none"/><path d="M270.71836,177.5c-4.2,15.1 -28.3,32.6 -28.3,32.6c-4.7,-3.6 -24.1,-26.5 -27.5,-33.6l7.4,-1.5c3.5,6.3 21.8,23.9 21.8,23.9c5,-4.4 17.3,-15.7 19.8,-24.5z" fill="#f0f5eb" stroke="#000000"/></g><path d="M214.91836,176.5c2.9,-0.6 5.8,-1.4 8.7,-2.4c7.7,-2.6 15.8,-3.9 24,-3.8c8.9,0 23.8,7.7 23,7.2c-1.3,10.8 -21,27.5 -28.2,32.5c-14.4,-12.7 -26.4,-30.2 -27.5,-33.5z" id="Path" fill="none" stroke="#000104" stroke-width="1.05"/></g></g><g data-paper-data="{&quot;index&quot;:null}" id="Group"><path d="M225.31836,142.4c0.8,-5.6 34.5,-7.9 36.6,2.8c0.7,3.5 -2.9,27.2 -2.9,27.9c0,-0.3 -0.6,1.6 -1.7,2.4c-3.1,2.2 -9.4,5.1 -15,4.6c-5.6,-0.5 -13.5,-2.6 -15.4,-6c-1.3,-2.3 -2.4,-26.1 -1.6,-31.7z" id="Path" fill="#ffedce" stroke="none" stroke-width="1" stroke-linecap="butt"/><path d="M226.51836,173.4c-1.6,-8.5 -2,-25.1 -1.2,-30.6c0.8,-5.5 34.5,-7.9 36.6,2.8c0.3,1.5 -2.9,27.5 -2.9,27.5" id="Path" fill="none" stroke="#000000" stroke-width="0.79" stroke-linecap="round"/></g><g data-paper-data="{&quot;index&quot;:null}" id="Group"><g id="JP_Head"><g id="Group" stroke-linecap="butt"><path d="M220.11836,155.4c-3.8,3 -9,0.4 -5.1,-5.6c-1.8,-3.6 -1.1,-7.2 1.6,-7.6c3.8,-0.6 8.1,5.2 8.1,6.7c-1,2.5 -2.6,4.7 -4.6,6.5z" id="Path" fill="#ffedce" stroke="none" stroke-width="1"/><path d="M220.11836,155.4c-3.8,3 -9,0.3 -5.1,-5.6c-1.8,-3.6 -1.1,-7.2 1.6,-7.6c3.8,-0.6 8.1,5.2 8.1,6.7c-1,2.5 -2.6,4.7 -4.6,6.5z" id="Path" fill="none" stroke="#000000" stroke-width="0.79"/></g><g id="Group" stroke-linecap="butt"><path d="M260.11836,147.8c0.1,-1.5 4.6,-7.7 8.6,-7.3c2.8,0.3 3.5,3.9 1.5,7.7c3.8,5.9 -1.6,8.9 -5.5,6c-3,-2.2 -4.6,-6.4 -4.6,-6.4z" id="Path" fill="#ffedce" stroke="none" stroke-width="1"/><path d="M260.11836,147.8c0.1,-1.5 4.6,-7.7 8.6,-7.3c2.8,0.3 3.5,3.9 1.5,7.7c3.8,5.9 -1.6,8.9 -5.5,6c-3,-2.2 -4.6,-6.4 -4.6,-6.4z" id="Path" fill="none" stroke="#000000" stroke-width="0.79"/></g><g id="Group"><g id="Path" stroke="none" stroke-width="1" stroke-linecap="butt"><g><path d="M245.71836,68.5c0,0 -3,11.9 -3.7,13.7c-1,2.4 -3.9,1.2 -3.2,-1.4c0.5,-1.7 6.9,-12.3 6.9,-12.3" fill="#e88b24"/><path d="M244.01836,77c-0.3,1.4 -0.7,2.7 -1.1,4.1c-0.2,0.8 -0.5,1.5 -0.9,2.1c-0.6,0.7 -1.6,1 -2.4,0.6c-0.8,-0.4 -1.3,-1.2 -1.3,-2.1c0.1,-0.8 0.3,-1.5 0.7,-2.2c0.6,-1.3 1.2,-2.5 2,-3.8c0.8,-1.3 1.4,-2.5 2.2,-3.7c0.7,-1.3 1.5,-2.4 2.5,-3.5c-0.5,1.3 -1.2,2.6 -1.8,3.8l-2.1,3.7c-0.7,1.2 -1.4,2.5 -2,3.7c-0.3,0.5 -0.5,1.2 -0.6,1.8c0,0.6 0.3,1.1 0.8,1.4c0.5,0.2 1.1,0.1 1.4,-0.4c0.3,-0.5 0.6,-1.2 0.7,-1.8c0.4,-1.4 0.7,-2.7 1.1,-4.1c0.6,-2.7 1.5,-5.5 2.5,-8.1c-0.3,2.8 -0.9,5.6 -1.7,8.5z" fill="#000000"/></g><g><path d="M234.21836,73.9c2.6,3 6.2,5.7 7.2,7.5c2.7,5.4 -4.3,7.7 -5.8,3.5c-1.1,-2.9 -0.8,-7.7 -1.4,-11" fill="#e88b24"/><path d="M235.91836,75.2l1.5,1.4c1,0.9 2,1.9 3,2.9c0.5,0.5 0.9,1.1 1.3,1.7c0.4,0.6 0.6,1.4 0.7,2.1c0.1,1.6 -0.7,3.1 -2.2,3.8c-1.5,0.7 -3.2,0.4 -4.3,-0.8c-0.5,-0.6 -0.8,-1.3 -1,-2c-0.2,-0.7 -0.3,-1.4 -0.4,-2.1c-0.2,-1.4 -0.2,-2.8 -0.3,-4.2v-2c-0.1,-0.7 0,-1.4 0,-2.1c0.4,0.7 0.6,1.3 0.7,2c0.1,0.7 0.2,1.4 0.2,2.1c0.2,1.4 0.2,2.7 0.4,4.1c0.1,0.7 0.2,1.3 0.4,2c0.1,0.6 0.4,1.2 0.8,1.7c0.6,0.6 1.4,0.8 2.2,0.8c1.6,-0.1 2.9,-1.5 2.8,-3.2c-0.1,-0.6 -0.3,-1.2 -0.6,-1.8c-0.3,-0.5 -0.7,-1 -1.2,-1.5c-1,-1 -2,-1.9 -3,-2.9c-0.5,-0.5 -1,-1 -1.5,-1.5c-0.5,-0.5 -0.9,-1.1 -1.2,-1.8c0.6,0.4 1.1,0.8 1.7,1.3z" fill="#000000"/></g></g><path d="M225.21836,165.1c-4.6,-1.2 -8.1,-5 -8.9,-9.7c-1.1,-8.7 3.6,-10.6 3.6,-10.9c-0.4,-5.7 -4.2,-26.5 -5,-43.7c-0.6,-11.3 5.8,-20.3 18.8,-21.1c2.2,-0.1 11.2,-0.3 14.9,0c15.2,1.4 20.4,12.3 18.7,29c-0.9,8.8 -2.8,23.1 -3.5,31.9c0,0.3 5.1,5.3 4,14c-0.7,5 -4.5,7.8 -7.9,9c-9.7,3.6 -24.2,3.4 -34.7,1.5z" id="Path" fill="#ffedce" stroke="none" stroke-width="1" stroke-linecap="butt"/><path d="M228.71836,80.6c17,-4.2 28.5,0.7 32.1,4.1c5.1,4.6 7.6,11.4 6.7,18.2c-1.4,0 -2.8,-0.3 -4.2,-0.7c0.7,-6.9 -1.1,-9.8 -4.6,-9.9h-0.2c0.8,4 -0.3,7.7 -1.2,8.9c-1.9,-1.3 -4.1,-3.4 -5.1,-8.9c0.2,1.6 0.9,7.1 0.5,9c-2.5,-0.2 -7.1,-3.9 -7.9,-9h-0.3c-0.8,5 -4.8,8.6 -7,8.8c-0.5,-2 -0.2,-7.7 -0.2,-8.8c-0.6,5.8 -7,7.3 -9.1,7.2c0,-1.5 0.3,-5.2 1.7,-7.2c-9.4,-0.5 -9.9,3.5 -9.6,9c-1.9,0.2 -4.9,0.6 -5.3,0.3c0,0.1 -3.3,-16.8 13.7,-21z" id="Path" fill="#e88b24" stroke="none" stroke-width="1" stroke-linecap="butt"/><g id="Path"><g stroke-linecap="butt"><path d="M215.01836,101.7c0.4,0.3 3.4,-0.1 5.3,-0.3c-0.2,-5.5 0.2,-9.6 9.7,-9" fill="none" stroke="#000000" stroke-width="0.79"/><path d="M228.41836,95.4c0.2,-0.7 0.4,-1.4 0.7,-2.1c0.1,-0.4 0.3,-0.7 0.6,-1c0.1,-0.1 0.3,-0.3 0.4,-0.4c0.2,-0.1 0.3,-0.2 0.5,-0.2c-0.1,0.3 -0.2,0.7 -0.3,1c-0.1,0.3 -0.3,0.6 -0.4,0.9c-0.3,0.6 -0.5,1.3 -0.6,2c-0.3,1.2 -0.4,2.5 -0.5,3.7c0.9,-0.1 1.7,-0.2 2.6,-0.5c1,-0.3 1.9,-0.8 2.8,-1.4c0.8,-0.6 1.6,-1.3 2.1,-2.2c0.5,-0.9 0.9,-1.9 1.2,-2.9v0c0.1,0.8 0.2,1.5 0.2,2.3v2.2c0,0.8 0.1,1.5 0.1,2.2c0,0.6 0.1,1.2 0.2,1.8c0.9,-0.2 1.7,-0.7 2.4,-1.3c0.8,-0.7 1.5,-1.5 2.1,-2.4c0.6,-0.9 1.1,-1.9 1.5,-2.9c0.4,-1 0.5,-2.1 0.9,-3.2c0,0.1 0,0.2 0,0.4c0.3,1.1 0.5,2.2 0.9,3.1c0.4,1.1 1,2 1.7,2.9c0.7,0.9 1.5,1.7 2.3,2.4c0.8,0.6 1.7,1 2.6,1.3c0.1,-0.6 0.1,-1.2 0.1,-1.9c0,-0.8 0,-1.6 -0.1,-2.3l-0.2,-2.3c-0.1,-0.8 -0.1,-1.6 0,-2.4c0,0.1 0.1,0.2 0.1,0.3c0,-0.1 0,-0.2 0,-0.4c0.4,0.9 0.6,1.7 0.9,2.6c0.3,0.9 0.6,1.7 1,2.5c0.4,0.8 0.9,1.5 1.5,2.2c0.5,0.5 1,1 1.6,1.5c0.3,-0.6 0.6,-1.2 0.7,-1.8c0.2,-0.8 0.4,-1.6 0.4,-2.4c0.1,-0.8 0.1,-1.6 0,-2.4c-0.1,-0.4 -0.1,-0.8 -0.1,-1.2c-0.1,-0.4 -0.1,-0.9 0,-1.3c0.3,0.3 0.5,0.7 0.7,1.2c0.1,0.4 0.2,0.8 0.2,1.3c0.2,1.7 0,3.5 -0.4,5.1c-0.2,0.9 -0.6,1.7 -1.1,2.4l-0.2,0.3l-0.3,-0.2c-0.8,-0.5 -1.5,-1.2 -2.1,-1.9c-0.6,-0.7 -1.1,-1.5 -1.6,-2.4c-0.2,-0.4 -0.3,-0.8 -0.5,-1.1c0,0.1 0,0.2 0,0.4c0.1,0.8 0.2,1.6 0.2,2.4c0,0.8 0,1.6 -0.1,2.5l-0.1,0.3h-0.3c-1.2,-0.2 -2.4,-0.7 -3.4,-1.5c-1,-0.7 -1.9,-1.6 -2.6,-2.5c-0.7,-1 -1.3,-2 -1.7,-3.2c-0.2,-0.4 -0.3,-0.8 -0.3,-1.2c-0.1,0.3 -0.1,0.6 -0.2,0.9c-0.3,1.1 -0.8,2.2 -1.4,3.1c-0.6,1 -1.4,1.9 -2.3,2.6c-0.9,0.8 -2,1.4 -3.2,1.6h-0.3l-0.1,-0.3c-0.1,-0.8 -0.2,-1.5 -0.2,-2.3c0,-0.8 0,-1.5 0,-2.3c0,-0.7 0.1,-1.3 0.1,-2c-0.1,0.2 -0.2,0.5 -0.3,0.7c-0.5,1 -1.3,1.9 -2.2,2.5c-0.9,0.7 -1.9,1.2 -3,1.5c-1.1,0.4 -2.2,0.6 -3.3,0.6h-0.4v-0.4c0,-1.7 0.1,-3.1 0.5,-4.5z" fill="#000000" stroke="none" stroke-width="1"/><path d="M267.61836,103.1c-1.5,-0.1 -2.9,-0.3 -4.2,-0.7c0.7,-6.9 -1.1,-9.8 -4.6,-9.9" fill="none" stroke="#000000" stroke-width="0.79"/></g><path d="M225.41836,165c-3.5,-0.7 -8.3,-4.4 -9,-9.7c-1.1,-8.7 3.6,-10.6 3.6,-10.9c-0.4,-5.7 -4.2,-26.5 -5,-43.7c-0.6,-11.3 5.8,-20.4 18.8,-21.2c2.2,-0.1 11.2,-0.3 14.9,0c15.2,1.4 20.4,12.4 18.7,29.2c-0.9,8.8 -2.8,23.1 -3.5,31.9c0,0.4 5.1,5.3 4,14c-0.6,4.3 -3.7,7.8 -7.9,9" fill="none" stroke="#000000" stroke-width="0.92" stroke-linecap="round"/></g></g><g id="Group" stroke="none" stroke-width="1" stroke-linecap="butt"><path d="M239.61836,116.1c-0.2,0.4 -0.4,0.7 -0.7,1c-0.4,0.4 -1,0.7 -1.6,0.7c-0.3,0 -0.7,-0.1 -1,-0.2c-0.2,-0.1 -0.5,-0.2 -0.7,-0.4c-0.4,-0.3 -0.7,-0.7 -0.9,-1.1c-0.2,-0.6 -0.2,-0.8 0,-0.8c0.2,0 0.3,0.2 0.6,0.6c0.2,0.3 0.5,0.6 0.8,0.8c0.3,0.2 0.7,0.3 1.1,0.3c0.4,-0.1 0.8,-0.2 1.1,-0.5c0.3,-0.2 0.5,-0.4 0.7,-0.7c0.3,-0.4 0.4,-0.5 0.6,-0.5c0.1,0.1 0.2,0.3 0,0.8z" id="Path" fill="#000104"/><path d="M240.01836,110.7c-0.2,0.1 -0.4,-0.1 -0.7,-0.5c-0.2,-0.3 -0.5,-0.6 -0.8,-0.9c-0.3,-0.3 -0.7,-0.5 -1.2,-0.5c-0.4,0 -0.7,0.1 -1,0.4c-0.3,0.3 -0.5,0.6 -0.7,1c-0.2,0.5 -0.4,0.7 -0.5,0.7c-0.1,0 -0.2,-0.3 -0.1,-0.9c0.1,-0.5 0.3,-1 0.7,-1.4c0.2,-0.2 0.4,-0.4 0.7,-0.5c0.3,-0.1 0.7,-0.2 1,-0.2c0.6,0.1 1.2,0.3 1.7,0.8c0.4,0.3 0.6,0.7 0.8,1.2c0.3,0.5 0.2,0.7 0.1,0.8z" id="Path" fill="#000104"/><path d="M240.21836,105c-0.3,0.4 -1.1,0 -1.4,-0.2c-0.9,-0.5 -1.6,-0.8 -2.6,-0.3c-0.5,0.2 -1.5,1.2 -2.1,0.7c-0.2,-0.3 -0.2,-0.7 0,-1c0.7,-1.2 2,-2 3.4,-2c1,0 3.2,1.2 2.9,2.4c0,0.1 -0.1,0.2 -0.2,0.4z" id="Path" fill="#000000"/></g><g id="Group" stroke="none" stroke-width="1" stroke-linecap="butt"><path d="M245.91836,115.5c-0.2,-1.1 -0.1,-2.4 0.6,-2.6c0.7,-0.2 1.1,1 1.2,1.9c0.2,1.1 -0.1,2.3 -0.9,2.5c-0.5,0.2 -1,-1 -0.9,-1.8z" id="Path" fill="#000000"/><path d="M244.51836,109.8c0.2,-0.4 0.5,-0.8 0.8,-1.2c0.5,-0.5 1.1,-0.8 1.7,-0.9c0.3,-0.1 0.7,0 1,0.1c0.3,0.1 0.5,0.3 0.7,0.5c0.4,0.3 0.7,0.8 0.8,1.3c0.2,0.6 0.2,0.8 0,0.9c-0.2,0.1 -0.3,-0.1 -0.6,-0.6c-0.2,-0.3 -0.5,-0.6 -0.8,-0.9c-0.3,-0.2 -0.7,-0.3 -1.1,-0.3c-0.5,0.1 -0.9,0.3 -1.2,0.6c-0.3,0.3 -0.5,0.6 -0.7,0.9c-0.3,0.5 -0.4,0.6 -0.6,0.6c-0.2,-0.1 -0.2,-0.3 0,-1z" id="Path" fill="#000104"/><path d="M243.61836,106.7c0.3,-2.3 4.5,-3.7 5.9,-3.4c0.3,0.1 0.7,0.4 0.7,0.7c0,0.8 -1.4,0.9 -2,1.2c-1.1,0.4 -2.2,0.9 -3.2,1.5c-0.3,0.2 -0.9,0.8 -1.3,0.4c0,-0.2 -0.1,-0.3 -0.1,-0.4z" id="Path" fill="#000000"/></g><g id="Group"><path d="M242.41836,119.1c-0.2,-0.7 0,-4.6 0,-6.2" id="Path" fill="none" stroke="#000000" stroke-width="0.79" stroke-linecap="round"/><path d="M244.01836,126.7c-0.1,0.1 -0.2,0.1 -0.3,0c-0.4,-0.5 -0.6,-1.1 -0.6,-1.7c-0.1,-0.6 0,-1.2 0.1,-1.8c0.2,0.6 0.3,1.1 0.5,1.7c0.1,0.6 0.2,1.1 0.3,1.7c0,0 -0.1,0.1 0,0.1z" id="Path" fill="#000000" stroke="none" stroke-width="1" stroke-linecap="butt"/><path d="M240.91836,123.3c0.2,0 0.3,0.1 0.3,0.3c0,0.6 0,1.2 -0.2,1.7c-0.1,0.3 -0.2,0.6 -0.4,0.8c-0.2,0.4 -0.5,0.6 -0.9,0.6c-0.3,0 -0.7,-0.2 -0.9,-0.5c-0.2,-0.2 -0.3,-0.5 -0.4,-0.8c-0.2,-0.6 -0.2,-1.2 -0.1,-1.7c0.1,0.5 0.3,1 0.5,1.5c0.2,0.5 0.7,0.8 0.9,0.8c0.2,0 0.5,-0.5 0.6,-0.9c0.2,-0.5 0.2,-1 0.3,-1.5c0,-0.2 0.1,-0.3 0.3,-0.3z" id="Path" fill="#000000" stroke="none" stroke-width="1" stroke-linecap="butt"/><path d="M245.11836,122c-0.3,-0.9 -0.9,-1.7 -1.7,-2.2c-0.8,-0.5 -1.8,-0.6 -2.7,-0.3c-0.4,0.2 -0.8,0.4 -1.2,0.7c-0.2,0.1 -0.4,0.3 -0.5,0.5c0,0 -0.1,0.1 -0.2,0.2c-0.2,0.1 -0.3,0.2 -0.5,0.2c-0.1,-0.1 -0.2,-0.3 -0.1,-0.5c0.1,-0.1 0.1,-0.3 0.2,-0.4c0.2,-0.2 0.4,-0.4 0.6,-0.6c0.4,-0.4 0.9,-0.6 1.5,-0.8c1.1,-0.4 2.3,-0.2 3.3,0.4c0.9,0.7 1.6,1.6 2,2.7c0.4,1 0.4,2.2 0,3.2c-0.4,-1 -0.4,-2 -0.7,-3.1z" id="Path" fill="#000000" stroke="none" stroke-width="1" stroke-linecap="butt"/></g><g id="Group" fill="#000104" stroke="none" stroke-width="1" stroke-linecap="butt"><path d="M264.91836,106.9c-0.6,-0.1 -0.8,-2 0.3,-1.3c0.7,0.5 0.7,1.5 -0.3,1.3z" id="Path"/><path d="M265.61836,110.7c-0.7,0.1 -0.8,-1.9 0.3,-1.2c0.5,0.3 0.8,1 -0.3,1.2z" id="Path"/></g><g id="Group" fill="#000104" stroke="none" stroke-width="1" stroke-linecap="butt"><path d="M217.61836,105.7c1.1,-0.7 1,1.2 0.3,1.3c-1,0.3 -1,-0.8 -0.3,-1.3z" id="Path"/><path d="M216.91836,109.6c1.1,-0.7 0.9,1.3 0.3,1.2c-1.1,-0.1 -0.8,-0.9 -0.3,-1.2z" id="Path"/></g></g><g id="Mouth" fill="#000104" stroke="none" stroke-width="1" stroke-linecap="butt"><path d="M226.71836,150.8c-0.3,0.4 -0.6,0.6 -0.8,0.9c-0.2,0.2 -0.4,0.5 -0.4,0.8c0,0.2 0,0.2 0.3,0.4c0.7,0.2 1.4,0.3 2.1,0.2c0.8,0 1.5,-0.1 2.3,-0.2c1.5,-0.2 3,-0.6 4.6,-0.8c1.6,-0.2 3.1,-0.4 4.7,-0.7c3.1,-0.4 6.2,-0.9 9.4,-1.2c1.6,-0.2 3.2,-0.2 4.7,-0.3c0.8,-0.1 1.6,-0.2 2.3,-0.3c0.7,-0.3 1.4,-0.5 2.2,-0.6c-0.4,0.7 -1.2,1.2 -2,1.4c-0.8,0.3 -1.6,0.4 -2.4,0.5c-1.6,0.1 -3.1,0.2 -4.7,0.3c-3.1,0.2 -6.3,0.5 -9.4,0.9c-1.5,0.2 -3.1,0.5 -4.6,0.9c-1.6,0.4 -3.1,0.8 -4.7,1c-0.8,0.1 -1.6,0.2 -2.4,0.2c-0.9,0.1 -1.8,-0.1 -2.6,-0.4c-0.2,-0.2 -0.4,-0.4 -0.6,-0.6c-0.2,-0.3 -0.2,-0.6 -0.2,-0.9c0.1,-0.5 0.3,-1 0.7,-1.3c0.7,-0.5 1.2,-1 1.8,-1.5c0.1,0.4 0,0.9 -0.3,1.3z" id="Path"/></g></g></g></g></svg>