<svg version="1.1" xmlns="http://www.w3.org/2000/svg" xmlns:xlink="http://www.w3.org/1999/xlink" width="207.64514" height="235.5189" viewBox="0,0,207.64514,235.5189"><g transform="translate(-136.05486,-62.48578)"><g data-paper-data="{&quot;isPaintingLayer&quot;:true}" fill="none" fill-rule="none" stroke="none" stroke-width="none" stroke-linecap="none" stroke-linejoin="none" stroke-miterlimit="10" stroke-dasharray="" stroke-dashoffset="0" font-family="none" font-weight="none" font-size="none" text-anchor="none" style="mix-blend-mode: normal"><g id="Group" fill-rule="evenodd" stroke-linejoin="miter"><path d="M316.3,191.8c4.4,-1.4 8.8,-4.3 12.6,-1.4c2.7,2.1 4.2,7.3 1.1,9.8c-5.6,4.5 -31.7,15 -37.3,18.4c-1,0.6 -18.2,6.9 -19.4,6.3c-4.6,-2.3 -6.2,-9.1 -4.2,-14.4c1.8,-4.5 6.4,-6.1 10.5,-7.1c3.8,-1 33.1,-10.6 36.7,-11.6z" id="Path" fill="#ae694f" stroke="none" stroke-width="1" stroke-linecap="butt"/><path d="M274,225.1c-4.9,0 -9.3,-13.3 -2.3,-17.8c7.7,-4.9 14.1,-4.9 14.1,-4.9c2.8,2.4 7.7,14.9 6.9,16.1c-3.4,1.3 -13,6.5 -18.7,6.6z" id="Path" fill="#ddeff1" stroke="none" stroke-width="1" stroke-linecap="butt"/><path d="M275.2,205.4c2.8,2 6.6,10 4.4,18" id="Path" fill="none" stroke="#94b2be" stroke-width="0.74" stroke-linecap="butt"/><path d="M277.7,203.8c4.6,2.1 7.7,10.4 6.3,18.2" id="Path" fill="none" stroke="#94b2be" stroke-width="0.74" stroke-linecap="butt"/><path d="M281.2,203.1c4.1,1.6 7.3,10 7.4,17.2" id="Path" fill="none" stroke="#94b2be" stroke-width="0.74" stroke-linecap="butt"/><path d="M316.4,191.7c4.4,-1.4 8.8,-4.3 12.6,-1.4c2.7,2.1 4.2,7.3 1.1,9.8c-5.6,4.6 -42.4,22.4 -55,24.8c-5.1,1 -8,-9.1 -6,-14.4c1.8,-4.5 6.4,-6.1 10.5,-7.1c3.8,-1 33.1,-10.6 36.8,-11.7z" id="Path" fill="none" stroke="#000000" stroke-width="1.23" stroke-linecap="round"/><path d="M285.5,201.9c4,2.9 7,11.2 7.4,16.1" id="Path" fill="none" stroke="#000000" stroke-width="1.23" stroke-linecap="round"/><path d="M335.6,199c-10.2,8.4 -18.4,-6 -18.4,-6c-2.2,-4.5 0.1,-11.7 5.7,-12.2c1.4,-0.1 2.7,0.3 3.7,1.3c1.2,-2.8 2.8,-5.5 4.7,-7.9c1.4,-1.6 4.3,-4.9 6.8,-4.1c1.4,0.4 1.8,2 1.6,3.3c-0.5,3.7 -4.3,8.9 -7.4,11.4l1.5,9.9c-0.2,0.6 -0.6,1.1 -1,1.6z" id="Path" fill="#ae694f" stroke="none" stroke-width="1" stroke-linecap="butt"/><path d="M342.9,194.3c0.2,0.5 0.3,1 0.3,1.6c-0.3,2.2 -2.6,3.7 -4.9,4c-1.4,0.2 -2.8,0 -4.2,-0.5c-2.9,-1.1 -1.6,-4.4 0.6,-5.5c1.9,-1 6.8,-2.1 8.2,0.4z" id="Path" fill="#ae694f" stroke="#000000" stroke-width="1" stroke-linecap="butt"/><path d="M340.6,188.1c0.4,0.4 0.7,0.9 0.9,1.5c0.6,2.3 -1.2,4.8 -3.5,6c-1.4,0.7 -2.9,1.1 -4.4,1.1c-3.4,0 -3.3,-3.9 -1.5,-5.8c1.5,-1.8 6.2,-4.8 8.5,-2.8z" id="Path" fill="#ae694f" stroke="#000000" stroke-width="1" stroke-linecap="butt"/><path d="M338.3,184.3c0.4,0.4 0.7,0.9 0.9,1.5c0.6,2.3 -1.2,4.8 -3.5,6c-1.4,0.7 -2.9,1.1 -4.4,1.1c-3.4,0 -3.3,-3.9 -1.5,-5.8c1.6,-1.9 6.3,-4.8 8.5,-2.8z" id="Path" fill="#ae694f" stroke="#000000" stroke-width="1" stroke-linecap="butt"/><path d="M326.8,181.7c1.1,-2.7 2.6,-5.2 4.4,-7.5c1.4,-1.7 4.3,-4.9 6.8,-4.1c1.4,0.4 4.9,2.2 -4.5,14.1" id="Path" fill="none" stroke="#030305" stroke-width="0.99" stroke-linecap="round"/><path d="M328,186.3c0,0.8 -0.1,1.7 -0.3,2.5c-0.2,0.9 -0.5,1.7 -1.1,2.4c-0.1,0.2 -0.3,0.4 -0.5,0.5l-0.3,0.2l-0.4,0.1l-0.2,0.1c0,1 -0.2,1.9 -0.6,2.8c-0.2,0.5 -0.5,0.9 -0.9,1.3c-0.2,0.2 -0.4,0.3 -0.6,0.5c-0.1,0.1 -0.3,0.2 -0.4,0.2c-0.2,0 -0.4,0 -0.5,-0.2c0,-0.3 0,-0.4 0.1,-0.5c0,-0.1 0.1,-0.1 0.2,-0.2c0.2,-0.1 0.3,-0.3 0.5,-0.4c0.3,-0.4 0.6,-0.7 0.8,-1.1c0.4,-0.7 0.6,-1.5 0.7,-2.3c-0.1,0 -0.3,0 -0.5,0c-0.5,-0.1 -0.9,-0.2 -1.3,-0.4c-0.2,-0.1 -0.4,-0.2 -0.6,-0.4c-0.2,-0.2 -0.4,-0.4 -0.5,-0.6c-0.4,-0.8 -0.7,-1.6 -0.8,-2.5c0,-0.4 0,-0.9 0.1,-1.3c0.1,-0.4 0.3,-0.9 0.7,-1.1c-0.1,0.8 -0.1,1.6 0.1,2.3c0.2,0.7 0.4,1.4 0.8,2.1c0.1,0.2 0.2,0.3 0.3,0.4c0.1,0.1 0.3,0.2 0.4,0.2c0.3,0.1 0.7,0.2 1,0.3c0.7,0.1 1.4,-0.1 1.8,-0.6c0.4,-0.6 0.7,-1.3 0.9,-2c0.1,-0.7 0.3,-1.5 0.3,-2.3c0.1,-0.8 0.1,-1.6 -0.1,-2.3c-0.2,-0.7 -0.6,-1.4 -1.1,-1.9c-0.5,-0.5 -1.2,-0.9 -1.9,-1c-0.7,-0.1 -1.5,-0.1 -2.2,0.1c-1.4,0.4 -2.7,1.3 -3.6,2.6c-1.8,2.6 -2.1,6 -0.9,8.9c0.1,0.2 0,0.3 -0.1,0.4c-0.1,0.1 -0.3,0 -0.4,-0.1c-1.4,-3.1 -1.1,-6.7 0.8,-9.6c1,-1.4 2.4,-2.4 4.1,-2.9c0.4,-0.1 0.9,-0.2 1.3,-0.2c0.4,0 0.9,0 1.3,0.1c0.8,0.2 1.6,0.6 2.3,1.2c0.7,0.6 1.2,1.4 1.4,2.3c0.1,0.9 0.2,1.7 -0.1,2.4z" id="Path" fill="#030305" stroke="none" stroke-width="1" stroke-linecap="butt"/><path d="M335.2,200.1c-0.6,0.6 -1.3,1.1 -2.1,1.4c-0.8,0.3 -1.6,0.5 -2.4,0.7c-0.8,0.2 -1.7,0.3 -2.5,0.2c-0.5,0 -0.9,-0.1 -1.3,-0.2c-0.2,-0.1 -0.4,-0.2 -0.6,-0.3c-0.3,-0.2 -0.4,-0.4 -0.4,-0.7c0.2,-0.1 0.5,-0.1 0.7,-0.1c0.1,0 0.3,0 0.5,0.1c0.4,0.1 0.7,0.2 1.1,0.2c0.8,0.1 1.5,0 2.3,-0.1c0.7,-0.1 1.5,-0.3 2.2,-0.6c0.7,-0.3 1.4,-0.6 2,-1.1c0.1,-0.1 0.3,-0.1 0.4,0c0.1,0.1 0.1,0.3 0.1,0.5z" id="Path" fill="#030305" stroke="none" stroke-width="1" stroke-linecap="butt"/></g><g id="Group" fill-rule="evenodd"><path d="M280.5,221c-0.2,2.4 2.3,12.8 0.5,26.8c-0.5,3.6 -31.2,4.6 -34.1,-0.7c-3.8,-7 -2.2,-36.1 -0.3,-39.6c2.6,-4.9 16.2,-5 25.3,-2c4.7,0.3 9,11.6 8.6,15.5z" id="Path" fill="#ddeff1" stroke="none" stroke-width="1" stroke-linecap="butt" stroke-linejoin="miter"/><path d="M278.6,212c-1.5,0.9 -28.9,1.7 -32.5,0.7" id="Path" fill="none" stroke="#94b2be" stroke-width="0.74" stroke-linecap="butt" stroke-linejoin="miter"/><path d="M279.9,216.8c-6.6,2.7 -31.4,1.9 -35.2,0.6" id="Path" fill="none" stroke="#94b2be" stroke-width="0.74" stroke-linecap="butt" stroke-linejoin="miter"/><path d="M280.8,221.5c-6.7,2.7 -32.4,1.9 -36.2,0.6" id="Path" fill="none" stroke="#94b2be" stroke-width="0.74" stroke-linecap="butt" stroke-linejoin="miter"/><path d="M280.9,226.7c-6.6,2.7 -31.9,1.9 -35.7,0.6" id="Path" fill="none" stroke="#94b2be" stroke-width="0.74" stroke-linecap="butt" stroke-linejoin="miter"/><path d="M281.3,231.4c-6.6,2.7 -32.4,1.9 -36.2,0.6" id="Path" fill="none" stroke="#94b2be" stroke-width="0.74" stroke-linecap="butt" stroke-linejoin="miter"/><path d="M274.9,206.1c-1.6,0.3 -2.8,-0.4 -4.2,-0.7c-1.4,-0.3 -2.8,-0.6 -4.1,-0.8c-2.8,-0.4 -5.6,-0.5 -8.4,-0.4c-2.8,0 -5.5,0.5 -8.2,1.3c-1.2,0.3 -2.3,1.1 -3,2.2c-0.2,0.6 -0.4,1.3 -0.5,1.9c-0.1,0.7 -0.2,1.4 -0.3,2.1c-0.7,5.6 -1,11.3 -1,17c0,2.8 0.1,5.7 0.3,8.5c0.1,2.8 0.6,5.6 1.4,8.2c0.1,0.3 0.2,0.6 0.4,0.9c0.1,0.1 0.1,0.3 0.2,0.4c0.1,0.1 0.1,0.2 0.2,0.3c0.5,0.4 1,0.8 1.6,1c1.3,0.5 2.6,0.9 3.9,1.1c2.8,0.5 5.6,0.8 8.4,0.9c2.8,0.1 5.6,0.1 8.5,-0.1c2.8,-0.1 5.6,-0.5 8.3,-1.2c0.6,-0.2 1.2,-0.4 1.8,-0.8c0.1,-0.1 0.2,-0.1 0.2,-0.2v-0.1v-0.1l0.1,-1.1c0.2,-1.4 0.3,-2.8 0.4,-4.2c0.2,-2.8 0.2,-5.6 0.2,-8.5c-0.1,-2.8 -0.2,-5.6 -0.6,-8.4c-0.2,-1.4 -0.4,-2.8 -0.6,-4.2l-0.4,-2.1c-0.1,-0.3 -0.1,-0.7 -0.2,-1c-0.1,-0.4 -0.1,-0.8 0,-1.1c0.4,0.1 0.8,0.4 0.9,0.8c0.2,0.3 0.3,0.7 0.4,1c0.2,0.7 0.4,1.4 0.5,2.1c0.3,1.4 0.5,2.8 0.6,4.3c0.3,2.9 0.5,5.7 0.6,8.6c0.1,2.9 0,5.7 -0.2,8.6c-0.1,1.4 -0.2,2.9 -0.4,4.3l-0.1,1.1v0.1l-0.1,0.2c-0.1,0.1 -0.1,0.3 -0.2,0.4c-0.2,0.2 -0.3,0.4 -0.5,0.5c-0.7,0.4 -1.4,0.7 -2.1,0.9c-2.8,0.7 -5.7,1.1 -8.6,1.3c-2.9,0.2 -5.7,0.2 -8.6,0.1c-2.9,-0.1 -5.7,-0.4 -8.6,-0.9c-1.5,-0.2 -2.9,-0.7 -4.2,-1.2c-0.7,-0.3 -1.4,-0.7 -2,-1.3c-0.1,-0.2 -0.3,-0.3 -0.4,-0.5c-0.1,-0.2 -0.2,-0.4 -0.3,-0.5c-0.2,-0.3 -0.3,-0.7 -0.4,-1.1c-0.8,-2.8 -1.3,-5.7 -1.4,-8.6c-0.2,-2.9 -0.3,-5.7 -0.3,-8.6c0,-5.7 0.3,-11.4 1,-17.1c0.1,-0.7 0.2,-1.4 0.3,-2.1c0.1,-0.8 0.3,-1.5 0.6,-2.2c0.4,-0.7 0.9,-1.4 1.6,-1.8c0.6,-0.4 1.3,-0.7 2,-1c2.8,-0.9 5.7,-1.4 8.6,-1.4c2.9,-0.1 5.8,0.1 8.6,0.4c1.4,0.2 2.9,0.4 4.3,0.8c1.4,0.4 3,0.7 4,2z" id="Path" fill="#000000" stroke="none" stroke-width="1" stroke-linecap="butt" stroke-linejoin="miter"/><path d="M267.6,213.3c-2.9,1.2 -5.1,-7 -5.1,-7c0,0 -0.2,6.5 -3.4,7c-6.1,0.8 -5.8,-9.3 -5.8,-9.3c3.8,3.6 13.6,2.5 14.9,0.4c0.4,1.7 3.5,7.1 -0.6,8.9z" id="Path" fill="#ddeff1" stroke="#000000" stroke-width="1" stroke-linecap="round" stroke-linejoin="round"/></g><path d="M252.31264,260.42522c-0.10559,-3.64362 10.95246,-6.92029 24.69885,-7.31865c13.74639,-0.39836 24.97564,2.23245 25.08123,5.87607c0.10559,3.64362 -10.95246,6.92029 -24.69885,7.31865c-13.74639,0.39835 -24.97564,-2.23245 -25.08123,-5.87607z" id="Oval" fill="#932d3a" fill-rule="evenodd" stroke="#000000" stroke-width="1.00002" stroke-linecap="butt" stroke-linejoin="miter"/><g id="Group"><path d="M266.9,264.1c-2.3,-11.8 10.6,-12.4 13.9,-9.5c2.7,2.4 2.7,23.7 5.2,32.4c0.2,0.8 6.6,2.4 6.6,4.9c-0.1,5 -6.6,4.6 -8.8,4.9c-2.3,0.3 -8,-0.1 -10.8,-0.7c-2.4,-0.5 -5.5,-1.3 -7.1,-1.7c-1.3,-0.4 -1.3,-3.5 -1.3,-4c-0.2,-0.6 2.3,-25.7 2.3,-26.3z" id="Path" fill="#ae694f" fill-rule="evenodd" stroke="#000000" stroke-width="1" stroke-linecap="round" stroke-linejoin="round"/><path d="M282.9,268.5c-5.4,1.7 -10.6,1.7 -16,0.2l0.2,-2.3c0,0 -1.4,-7.4 0.8,-9.9c2.2,-2.5 11.6,-6.7 13.4,0.5c1.7,7.2 1.6,11.5 1.6,11.5z" id="Path" fill="#343039" fill-rule="evenodd" stroke="none" stroke-width="1" stroke-linecap="butt" stroke-linejoin="miter"/><path d="M282.9,268.5c-5.1,1.7 -11,2.2 -16.1,0.8" id="Path" fill="none" fill-rule="evenodd" stroke="#000000" stroke-width="1.23" stroke-linecap="round" stroke-linejoin="round"/><path d="M291.8,295c-4.6,3.9 -19.8,2.7 -25.9,0.1c-1.8,-0.8 -1.9,-4 -1.5,-5.9c-0.3,1.1 10.7,2.9 11.8,3c2,0 2.3,-1.1 3.6,-2.4c1.3,-1.4 3.1,-2.3 5,-2.6c4,-0.4 11.6,3.8 7,7.8zM286.7,289c-1,-0.2 -4.7,1.7 -5.2,2.5c-1.2,2.3 3.8,1 4.3,0.5c2,-1.6 1.5,-2.9 0.9,-3z" id="Shape" fill="#efdb84" fill-rule="nonzero" stroke="#000000" stroke-width="1" stroke-linecap="round" stroke-linejoin="round"/></g><g id="Group"><path d="M210.4,278.7c-2.5,-2.8 -1,-4.7 -0.3,-5.5c0.3,-0.4 1.6,-1.3 3.7,-0.7c1.7,0.6 4.2,2.8 4.6,2.4c7,-8.4 19.2,-23.1 25.1,-23.8c10.4,-1.2 13,7.6 5,19c-5.1,6.5 -11.3,12.8 -16.3,18.7c-3.1,3.2 -4.6,3.4 -7.8,2.2c-5.4,-2 -11.4,-9.1 -14,-12.3z" id="Path" fill="#ae694f" fill-rule="evenodd" stroke="#000000" stroke-width="1" stroke-linecap="butt" stroke-linejoin="miter"/><path d="M240.5,252c4.3,-2.7 12,0.5 12.6,5.7c0.5,4.8 -6.1,13.6 -7.3,15.1c-5.4,-3.4 -10.6,-8.1 -14.1,-13.5c3,-3.4 4.5,-4.6 8.8,-7.3z" id="Path" fill="#343039" fill-rule="evenodd" stroke="none" stroke-width="1" stroke-linecap="butt" stroke-linejoin="miter"/><path d="M245.8,272.9c-5.3,-3.1 -9.3,-7 -13.6,-13.4" id="Path" fill="none" fill-rule="evenodd" stroke="#000000" stroke-width="1.23" stroke-linecap="round" stroke-linejoin="round"/><path d="M232.6,288.7c-2.3,3.1 -3.9,5 -8.6,3c-4.9,-2 -11.5,-8.3 -15.4,-13.5c-2.5,-3.3 0.8,-6.8 4.7,-6.3c5.5,0.8 7,5.8 6.9,10.6c3.9,3.3 7.4,5.4 12.4,6.2zM215.2,275c-0.8,-0.9 -2.9,-1.5 -3,0c0,1 0.8,2.3 1.1,2.6c0.6,0.6 3.1,2.4 3.2,1.9c0.2,-1.6 -0.2,-3.3 -1.3,-4.5z" id="Shape" fill="#efdb84" fill-rule="nonzero" stroke="#000000" stroke-width="1" stroke-linecap="round" stroke-linejoin="round"/></g><g id="Group" fill-rule="evenodd" stroke="none" stroke-width="1" stroke-linecap="butt" stroke-linejoin="miter"><path d="M268.3,265.8c-3.4,0.8 -8.7,0.7 -12.3,0.8c0,0 -13.8,-1.8 -15.6,-8.4c-1.3,-4.5 3.6,-11.1 9.4,-14.9c1.6,-1 25.1,-0.2 27.3,1.4c2.5,1.9 6,11.2 3.2,16.7c-1.9,3.7 -12,4.4 -12,4.4z" id="Path" fill="#343039"/><path d="M268.3,265.8c-0.2,0.4 -0.6,0.6 -1,0.7c-0.3,0.1 -0.7,0.2 -1.1,0.3c-0.7,0.1 -1.4,0.2 -2.1,0.2c-1.4,0.1 -2.9,0.2 -4.3,0.2c-2.9,0.1 -5.8,-0.4 -8.6,-1.4c-0.2,-0.1 -0.3,-0.3 -0.2,-0.5c0.1,-0.2 0.3,-0.3 0.5,-0.2c1.3,0.4 2.7,0.7 4.1,0.8c1.4,0.1 2.8,0.2 4.2,0.1c1.4,0 2.8,-0.1 4.2,-0.3c0.7,-0.1 1.4,-0.2 2.1,-0.3c0.3,-0.1 0.7,-0.1 1.1,-0.1c0.3,0.2 0.7,0.3 1.1,0.5z" id="Path" fill="#000000"/></g><g id="Group" fill-rule="evenodd" stroke-width="1" stroke-linecap="butt" stroke-linejoin="miter"><path d="M244.5,236.8c0,0 26.2,2.2 37.4,-0.8v4.6c0,0 19.1,15.7 20.4,18.1c1.3,2.4 -5.8,-5.1 -33.9,4.9c-28.1,10 -42.6,-9.5 -42.8,-11.3c-0.2,-1.8 19,-9.7 19,-9.7z" id="Path" fill="#ee4b5c" stroke="#000000"/><g id="Oval" fill="#ddf2f4" stroke="none"><path d="M289.5706,251.67235c-0.37495,-0.4055 -0.35019,-1.03817 0.0553,-1.41313c0.40549,-0.37495 1.03817,-0.3502 1.41313,0.0553c0.37495,0.4055 0.35019,1.03817 -0.0553,1.41313c-0.40549,0.37495 -1.03817,0.3502 -1.41313,-0.0553z"/><g><path d="M249.93035,243.65755c-0.48177,-0.27002 -0.56589,-1.03567 -0.18787,-1.71013c0.37802,-0.67446 1.07502,-1.00232 1.55679,-0.7323c0.48177,0.27002 0.56589,1.03567 0.18787,1.71013c-0.37802,0.67446 -1.07502,1.00232 -1.55679,0.7323z"/><path d="M263.07523,243.60249c-0.48178,-0.27002 -0.56588,-1.03567 -0.18787,-1.71013c0.37802,-0.67446 1.07501,-1.00232 1.55679,-0.7323c0.48178,0.27002 0.56589,1.03567 0.18787,1.71013c-0.37802,0.67446 -1.07502,1.00232 -1.55679,0.7323z"/><path d="M275.99529,242.11617c-0.48178,-0.27002 -0.56589,-1.03567 -0.18787,-1.71014c0.37802,-0.67446 1.07502,-1.00232 1.55679,-0.7323c0.48178,0.27002 0.56588,1.03567 0.18787,1.71013c-0.37802,0.67446 -1.07501,1.00233 -1.55679,0.73231z"/><path d="M241.08173,247.53844c-0.37495,-0.4055 -0.31733,-1.06857 0.1287,-1.48101c0.44603,-0.41244 1.11158,-0.41807 1.48654,-0.01257c0.37495,0.4055 0.31733,1.06857 -0.1287,1.48101c-0.44603,0.41244 -1.11158,0.41807 -1.48654,0.01257z"/><path d="M245.66033,253.351c-0.3927,-0.38834 -0.3333,-1.08513 0.13268,-1.55634c0.46597,-0.47121 1.16207,-0.53839 1.55477,-0.15006c0.3927,0.38834 0.3333,1.08513 -0.13268,1.55634c-0.46597,0.47121 -1.16207,0.53839 -1.55477,0.15006z"/><path d="M256.46181,249.24639c-0.3927,-0.38834 -0.3333,-1.08513 0.13268,-1.55634c0.46598,-0.47121 1.16206,-0.53839 1.55476,-0.15006c0.3927,0.38834 0.3333,1.08514 -0.13268,1.55635c-0.46598,0.47121 -1.16206,0.53839 -1.55476,0.15005z"/><path d="M271.21635,248.08167c-0.47845,-0.27587 -0.59795,-0.96493 -0.26691,-1.53906c0.33104,-0.57414 0.98726,-0.81592 1.46571,-0.54005c0.47845,0.27587 0.59795,0.96493 0.26691,1.53906c-0.33104,0.57414 -0.98726,0.81592 -1.46571,0.54005z"/><path d="M264.05505,253.52989c-0.34635,-0.43019 -0.20865,-1.11584 0.30756,-1.53144c0.51621,-0.4156 1.21545,-0.40379 1.5618,0.0264c0.34635,0.43019 0.20865,1.11584 -0.30756,1.53145c-0.51621,0.4156 -1.21545,0.40378 -1.5618,-0.02641z"/><path d="M282.34682,246.72184c-0.46439,-0.29894 -0.55003,-0.99305 -0.19129,-1.55035c0.35874,-0.5573 1.02602,-0.76675 1.49041,-0.46781c0.46439,0.29894 0.55003,0.99305 0.19129,1.55035c-0.35874,0.5573 -1.02602,0.76674 -1.49041,0.46781z"/><path d="M279.89159,252.26091c-0.47165,-0.28735 -0.57446,-0.97912 -0.22963,-1.5451c0.34483,-0.56598 1.0067,-0.79185 1.47835,-0.5045c0.47165,0.28735 0.57446,0.97912 0.22963,1.5451c-0.34483,0.56598 -1.0067,0.79185 -1.47835,0.5045z"/><path d="M237.3453,257.51402c-0.3927,-0.38833 -0.3333,-1.08514 0.13267,-1.55635c0.46597,-0.47121 1.16207,-0.53839 1.55477,-0.15006c0.3927,0.38833 0.3333,1.08514 -0.13267,1.55635c-0.46597,0.47121 -1.16207,0.53839 -1.55477,0.15006z"/><path d="M243.04417,262.3291c-0.3927,-0.38833 -0.3333,-1.08513 0.13267,-1.55634c0.46597,-0.47121 1.16207,-0.53839 1.55477,-0.15006c0.3927,0.38833 0.3333,1.08513 -0.13267,1.55634c-0.46597,0.47121 -1.16207,0.53839 -1.55477,0.15006z"/><path d="M254.3527,259.15848c-0.3927,-0.38833 -0.3333,-1.08514 0.13268,-1.55635c0.46597,-0.47121 1.16207,-0.53839 1.55477,-0.15005c0.3927,0.38833 0.3333,1.08513 -0.13268,1.55634c-0.46597,0.47121 -1.16207,0.53839 -1.55477,0.15006z"/><path d="M273.85635,256.53872c-0.3927,-0.38833 -0.3333,-1.08514 0.13268,-1.55635c0.46598,-0.47121 1.16206,-0.53839 1.55476,-0.15005c0.3927,0.38834 0.3333,1.08513 -0.13268,1.55634c-0.46598,0.47121 -1.16206,0.53839 -1.55476,0.15006z"/><path d="M265.89872,261.66544c-0.35771,-0.42079 -0.23837,-1.10987 0.26658,-1.53913c0.50495,-0.42926 1.20427,-0.43613 1.56198,-0.01535c0.35771,0.42079 0.23836,1.10988 -0.26658,1.53914c-0.50495,0.42926 -1.20426,0.43613 -1.56198,0.01534z"/><path d="M290.44022,255.54409c-0.42208,-0.35619 -0.47549,-0.9871 -0.1193,-1.40918c0.35618,-0.42208 0.98709,-0.47549 1.40917,-0.1193c0.42208,0.35619 0.47549,0.9871 0.11931,1.40918c-0.35618,0.42208 -0.9871,0.47549 -1.40918,0.1193z"/><path d="M284.56116,258.06282c-0.37495,-0.40549 -0.35019,-1.03817 0.0553,-1.41313c0.40549,-0.37495 1.03818,-0.35019 1.41313,0.0553c0.37495,0.40549 0.35019,1.03818 -0.0553,1.41313c-0.40549,0.37495 -1.03818,0.35019 -1.41313,-0.0553z"/><path d="M232.78496,252.65353c-0.37495,-0.4055 -0.31733,-1.06856 0.1287,-1.481c0.44603,-0.41244 1.11158,-0.41807 1.48654,-0.01257c0.37495,0.4055 0.31733,1.06856 -0.12871,1.481c-0.44603,0.41244 -1.11158,0.41807 -1.48653,0.01257z"/></g></g></g><path d="M259.7,206.3c-1.6,-0.3 -3.1,-0.8 -4.5,-1.4c-0.1,-4.4 -2.1,-9.8 1.6,-12.2c1,-0.7 7.6,-0.8 8.4,0.1c1.2,1.3 1.6,8.8 1.4,11.8c-1.4,0.9 -5,1.9 -6.9,1.7z" id="Path" fill="#ae694f" fill-rule="evenodd" stroke="#000000" stroke-width="1" stroke-linecap="butt" stroke-linejoin="miter"/><g id="Group" fill-rule="evenodd"><path d="M247.5,140.5c6.1,26.2 -12.5,27.9 -12.5,27.9c-4.7,14.3 -25.4,6.7 -25.4,6.7c-2.5,4.3 -19.7,14 -19.5,2.3c-2.7,2.3 -19,4.4 -16,-12.4c-27.7,13.3 -33.7,-10.3 -32.8,-17.5c1.6,-12.3 8.9,-15.1 16.4,-19.3c-0.6,0.3 -22.4,-1.4 -20.7,-23.1c0.9,-11.7 16.2,-24.9 28.7,-15.5c0.1,-0.1 0.1,-0.2 0.1,-0.2c0.4,-23.8 19.9,-30.6 30.9,-23.8c3.8,2.3 8.7,10.6 8.7,10.6c2,-3.5 12,-13.6 23.3,-11.5c19.4,3.6 15.3,33.3 15.3,33.3c25.4,-2.4 23.2,43.1 3.5,42.5z" id="Path" fill="#351f13" stroke="none" stroke-width="1" stroke-linecap="butt" stroke-linejoin="miter"/><path d="M259,133.6c-2.6,4.2 -6.5,7.1 -11.5,7c6.1,26.2 -12.5,27.9 -12.5,27.9c-4.7,14.3 -25.4,6.7 -25.4,6.7c-2.5,4.3 -19.7,14 -19.5,2.3c-2.7,2.3 -19,4.4 -16,-12.4c-27.7,13.3 -33.7,-10.3 -32.8,-17.5c1.5,-12.4 8.8,-15.2 16.3,-19.3c-0.2,0.2 -8.6,0.8 -7.6,-7.6c1.6,-12.5 13.3,-23.4 25,-13.9l0.1,-0.2c-0.4,-26.5 24.3,-30.9 32.7,-15c1.9,-3.5 10.6,-10.1 21.2,-8c18.3,3.6 11.7,39.3 11.7,39.3c8.8,-0.9 14.9,4.1 18.3,10.7z" id="Path" fill="#23140c" stroke="none" stroke-width="1" stroke-linecap="butt" stroke-linejoin="miter"/><path d="M205.3,76c2,-3.5 12,-13.6 23.3,-11.5c19.5,3.6 15.3,33.3 15.3,33.3c25.4,-2.3 23.2,43.1 3.5,42.7c6.1,26.2 -12.5,27.9 -12.5,27.9c-4.7,14.3 -25.4,6.7 -25.4,6.7c-2.5,4.3 -19.7,14 -19.5,2.3c-2.7,2.3 -19,4.4 -16,-12.4c-27.7,13.3 -33.7,-10.3 -32.8,-17.5c1.6,-12.3 8.9,-15.1 16.4,-19.3c-0.6,0.3 -22.5,-1.4 -20.7,-23.1c1,-13 20,-28 32.9,-11.3" id="Path" fill="none" stroke="#000000" stroke-width="1.48" stroke-linecap="round" stroke-linejoin="round"/><path d="M165.7,89.4c0.4,-23.8 19.9,-30.6 30.9,-23.8c8.2,5.1 11.5,18 10.6,24.9" id="Path" fill="none" stroke="#000000" stroke-width="1.23" stroke-linecap="round" stroke-linejoin="round"/><path d="M200.1,142.3c-2.6,-1.1 -4.5,-3.3 -5.2,-6c-0.6,-2.7 -0.4,-5.5 0.7,-8c-0.3,0.8 -3,-2.6 -3.2,-2.9c-3.8,-6.7 2.9,-16 10.5,-14.4c1.1,-4.7 7.2,-8.4 11.8,-8.1c2.4,0.1 4.9,1.7 5.5,4.1c1.8,-2 4.7,-2.6 7.5,-2.7c1.8,-0.2 3.5,0.1 5.2,0.8c3.1,1.6 4.2,5.6 3.6,9c-0.6,3.4 -2.7,6.4 -4.8,9.1c-0.4,0.5 -0.7,1 -0.9,1.5c-0.2,0.7 -0.3,1.4 -0.2,2.2c-0.3,8.6 -7.5,15.3 -16.1,15.1c-0.8,0 -1.6,-0.1 -2.4,-0.3c-2.1,-0.4 -3.2,-0.9 -5.2,-0.2c-2.4,0.9 -4.3,1.7 -6.8,0.8z" id="Path" fill="#902f38" stroke="none" stroke-width="1" stroke-linecap="butt" stroke-linejoin="miter"/><path d="M218.7,107.8c-1.6,1.6 -3.5,2.8 -5.6,3.5c-2.1,0.7 -4.4,0.6 -6.5,-0.3" id="Path" fill="none" stroke="#000000" stroke-width="1.23" stroke-linecap="round" stroke-linejoin="miter"/><path d="M211.8,116.1c-2.4,3.4 -6.1,5.6 -10.2,6c-1.1,0.2 -2.2,-0.1 -3,-0.8" id="Path" fill="none" stroke="#000000" stroke-width="1.23" stroke-linecap="round" stroke-linejoin="miter"/><path d="M205,129.2c-0.7,1.2 -1.7,2.3 -2.8,3.3c-1.1,0.9 -2.6,1.3 -4,1" id="Path" fill="none" stroke="#000000" stroke-width="1.23" stroke-linecap="round" stroke-linejoin="miter"/><path d="M200.1,142.3c-2.6,-1.1 -4.5,-3.3 -5.2,-6c-0.6,-2.7 -0.4,-5.5 0.7,-8c-0.3,0.8 -3,-2.6 -3.2,-2.9c-3.8,-6.7 2.9,-16 10.5,-14.4c1.1,-4.7 7.2,-8.4 11.8,-8.1c2.4,0.1 4.9,1.7 5.5,4.1c1.8,-2 4.7,-2.6 7.5,-2.7c1.8,-0.2 3.5,0.1 5.2,0.8c3.1,1.6 4.2,5.6 3.6,9c-0.6,3.4 -2.7,6.4 -4.8,9.1c-0.4,0.5 -0.7,1 -0.9,1.5c-0.2,0.7 -0.3,1.4 -0.2,2.2c-0.3,8.6 -7.5,15.3 -16.1,15.1c-0.8,0 -1.6,-0.1 -2.4,-0.3c-2.1,-0.4 -3.2,-0.9 -5.2,-0.2c-2.4,0.9 -4.3,1.7 -6.8,0.8z" id="Path" fill="none" stroke="#000000" stroke-width="1.23" stroke-linecap="round" stroke-linejoin="round"/></g><g id="Group" fill-rule="evenodd" stroke-linejoin="miter"><path d="M255.2,199c-39.9,-4.8 -52.8,-31.6 -52.8,-53.4c0.1,-35.4 27.6,-52.1 56.4,-50.9c31.9,1.3 52.5,5.5 49.9,50.7c-0.5,9.5 -1.5,19.1 -2.9,28.5c0,0 6.5,5.8 6.5,11.8c0,7.1 -2.8,13.7 -15,15.2c-12.2,1.5 -24.4,0.8 -34,0" id="Path" fill="#ae694f" stroke="none" stroke-width="1" stroke-linecap="butt"/><path d="M308.7,129.9c-1.6,-10.5 -12.9,-16.1 -22.1,-18c-14.4,-3 -30.2,-0.2 -40.6,10.8c-11.1,11.7 -11.4,31 -10.8,48.2c0,0 -11.4,-24.9 -30.2,-7.3c0,0 -12.6,-34.7 15.3,-57.6c21.4,-17.6 70.9,-13.4 81.1,1.9c6.7,10 7.3,22 7.3,22z" id="Path" fill="#351f13" stroke="none" stroke-width="1" stroke-linecap="butt"/><path d="M235.2,170.9c-0.6,-17.2 -0.3,-36.5 10.8,-48.2c10.4,-11 26.2,-13.8 40.6,-10.8c9.2,1.9 20.5,7.5 22.1,18" id="Path" fill="none" stroke="#000000" stroke-width="1.23" stroke-linecap="round"/><path d="M240.4,131.6l-11.4,0.4l-5.7,0.2h-2.9c-0.5,0 -1,0 -1.4,0c-0.5,0 -1,-0.3 -1.4,-0.6c0.9,-0.5 1.9,-0.7 2.9,-0.6h2.8l5.7,-0.2l11.4,-0.4c0.3,0 0.6,0.2 0.6,0.6c0,0.3 -0.3,0.6 -0.6,0.6z" id="Path" fill="#000000" stroke="none" stroke-width="1" stroke-linecap="butt"/><path d="M236.7,141.6l-11.8,0.2h-5.9h-2.9c-0.5,0 -1,0 -1.5,-0.1c-0.5,0 -1.1,-0.2 -1.4,-0.6c0.4,-0.3 0.9,-0.5 1.5,-0.5c0.5,0 1,0 1.5,0h2.9h5.9l11.8,-0.2c0.3,0 0.6,0.3 0.6,0.6c-0.1,0.3 -0.4,0.6 -0.7,0.6z" id="Path" fill="#000000" stroke="none" stroke-width="1" stroke-linecap="butt"/><path d="M235.2,151.3c-3.3,0.1 -6.7,0.2 -10,0.3l-5,0.1h-2.5c-0.4,0 -0.8,0 -1.2,-0.1c-0.5,-0.1 -0.9,-0.3 -1.2,-0.6c0.4,-0.3 0.8,-0.5 1.3,-0.5c0.4,0 0.8,0 1.2,0h2.5l5,-0.1c3.3,-0.1 6.7,-0.2 10,-0.3c0.3,0 0.6,0.4 0.5,0.7c-0.1,0.3 -0.3,0.5 -0.6,0.5z" id="Path" fill="#000000" stroke="none" stroke-width="1" stroke-linecap="butt"/><path d="M255.7,199.3c-3,0.3 -6,0 -8.9,-0.8c-2.9,-0.6 -5.8,-1.5 -8.6,-2.4c-2.8,-1 -5.6,-2.2 -8.2,-3.5c-2.6,-1.4 -5.2,-3 -7.6,-4.7c-4.8,-3.6 -9,-8 -12.3,-13c-3.3,-5 -5.6,-10.6 -7,-16.4c-1.4,-5.8 -1.8,-11.8 -1.3,-17.8c0.1,-1.5 0.3,-3 0.5,-4.4c0.2,-1.4 0.5,-3 0.9,-4.4c0.7,-2.9 1.6,-5.7 2.8,-8.5c1.2,-2.7 2.7,-5.4 4.4,-7.8c1.7,-2.5 3.7,-4.7 5.8,-6.8c4.3,-4.2 9.4,-7.5 14.9,-9.8c5.5,-2.3 11.3,-3.9 17.3,-4.5c3,-0.3 5.9,-0.5 8.9,-0.4c3,0.1 5.9,0.2 8.9,0.4c5.9,0.3 11.8,1.1 17.6,2.5c5.8,1.5 11.5,4 15.8,8.3c2.1,2.2 3.9,4.6 5.3,7.3c1.3,2.7 2.3,5.5 3,8.5c1.3,5.8 1.9,11.8 1.8,17.7c-0.3,11.8 -1.3,23.6 -3.1,35.3l-0.2,-0.7c2.3,2.1 4.2,4.6 5.5,7.4c0.7,1.4 1.1,3 1.2,4.6c0,1.6 -0.1,3.1 -0.4,4.6c-0.3,1.6 -0.8,3 -1.6,4.4c-0.8,1.4 -1.9,2.6 -3.1,3.6c-2.5,1.8 -5.5,3 -8.6,3.5c-6,0.9 -12,1.3 -18,1.2c-3,0 -6,-0.1 -9,-0.2c-1.5,-0.1 -3,-0.2 -4.5,-0.4c-1.5,-0.1 -3,-0.4 -4.4,-1c1.5,-0.4 3,-0.5 4.5,-0.3c1.5,0 3,0.1 4.5,0.2c3,0.1 6,0.2 8.9,0.2c6,0.1 11.9,-0.3 17.8,-1.1c2.9,-0.4 5.6,-1.5 7.9,-3.2c2.2,-1.8 3.7,-4.3 4.2,-7.1c0.3,-1.4 0.4,-2.9 0.4,-4.3c-0.1,-1.4 -0.5,-2.7 -1.1,-4c-1.3,-2.6 -3,-4.9 -5.2,-6.9l-0.3,-0.3v-0.4c1.8,-11.6 2.8,-23.3 3.1,-35.1c0.1,-5.8 -0.4,-11.7 -1.7,-17.4c-0.7,-2.8 -1.6,-5.6 -2.9,-8.2c-1.3,-2.6 -3,-4.9 -5,-7c-4.1,-4.1 -9.5,-6.5 -15.1,-7.9c-5.7,-1.3 -11.5,-2.2 -17.3,-2.5c-5.9,-0.4 -11.7,-0.7 -17.5,0c-5.8,0.6 -11.5,2.1 -16.8,4.4c-5.4,2.3 -10.3,5.5 -14.5,9.5c-2.1,2 -4,4.2 -5.6,6.6c-1.6,2.4 -3,4.9 -4.2,7.6c-1.2,2.7 -2.1,5.4 -2.7,8.2c-0.4,1.4 -0.6,2.8 -0.8,4.3c-0.2,1.5 -0.4,2.9 -0.5,4.3c-0.5,5.8 -0.1,11.7 1.2,17.3c1.3,5.7 3.6,11.1 6.8,15.9c3.2,4.9 7.2,9.1 11.9,12.6c2.3,1.7 4.8,3.3 7.4,4.6c2.6,1.3 5.3,2.5 8,3.5c2.8,1 5.6,1.8 8.4,2.4c1.4,0.4 2.9,0.6 4.3,0.9c1.3,0.3 2.8,0.8 4.1,1.4z" id="Path" fill="#000000" stroke="none" stroke-width="1" stroke-linecap="butt"/><path d="M238.3,193.3c-1.9,5.4 -8.4,8 -15.9,7.9c-12.1,-0.3 -21.7,-10.1 -21.7,-22.1c0.1,-12.4 7.2,-22.9 18.5,-21.5c7.6,0.9 13.2,6.2 16,13.4c0,-0.1 5.1,16.9 3.1,22.3z" id="Path" fill="#ae694f" stroke="none" stroke-width="1" stroke-linecap="butt"/><path d="M238.4,193.2c-1.9,5.5 -8.4,8 -15.9,8c-12,-0.2 -21.7,-10 -21.8,-22c0,-12.4 7.2,-23 18.5,-21.6c7.6,0.9 13.2,6.2 16.1,13.3" id="Path" fill="none" stroke="#000000" stroke-width="1.23" stroke-linecap="round"/><path d="M209.6,175.7c-0.3,-0.2 -0.4,-0.5 -0.4,-0.8c0,-0.3 0.1,-0.5 0.2,-0.8c0.1,-0.2 0.2,-0.5 0.3,-0.7c0.1,-0.2 0.2,-0.4 0.4,-0.7c0.6,-0.8 1.3,-1.5 2.1,-2.1c1.6,-1.2 3.6,-1.8 5.6,-1.9c2.1,-0.1 4.1,0.6 5.6,1.9c1.5,1.3 2.4,3.2 2.4,5.3c-0.6,-0.8 -1,-1.6 -1.5,-2.4c-0.5,-0.7 -1.1,-1.4 -1.7,-2c-1.3,-1.1 -3,-1.7 -4.8,-1.6c-1.8,0.1 -3.5,0.7 -4.9,1.7c-0.7,0.5 -1.3,1.1 -1.8,1.8c-0.2,0.3 -0.5,0.7 -0.6,1.1c-0.1,0.2 -0.2,0.4 -0.3,0.6c-0.1,0.3 -0.3,0.5 -0.6,0.6z" id="Path" fill="#000000" stroke="none" stroke-width="1" stroke-linecap="butt"/><path d="M301.2,113.7c-0.5,0.8 -1.4,1.3 -2.4,1.4c-1,0.1 -2,-0.2 -2.9,-0.7c-1.5,-0.9 -2.4,-2.4 -2.6,-4.1c-0.6,0.3 -1.3,0.6 -2,0.8c-1.1,0.3 -2.2,0.3 -3.3,0c-0.5,-0.2 -1,-0.4 -1.5,-0.7c-0.5,-0.3 -0.9,-0.7 -1.2,-1.2c-0.3,-0.7 -0.6,-1.3 -1,-1.9c-0.5,0.5 -1.1,1 -1.8,1.4c-0.5,0.3 -1,0.5 -1.5,0.6c-0.5,0.2 -1.1,0.3 -1.6,0.3c-1,0.1 -2.1,0 -3.1,-0.2c-0.5,-0.1 -1,-0.3 -1.5,-0.5c-0.5,-0.3 -0.9,-0.6 -1.3,-1c-0.1,-0.1 -0.3,-0.2 -0.4,-0.3c0,0 0,0 -0.1,0.1c-0.1,0.1 -0.3,0.3 -0.4,0.4c-0.2,0.2 -0.4,0.4 -0.6,0.6c-0.8,0.7 -1.7,1.3 -2.7,1.6c-2,0.7 -4.3,0.3 -6.1,-0.9l-0.2,-0.1l-0.1,-0.1c-0.1,0.1 -0.1,0.1 -0.2,0.2c-0.3,0.3 -0.5,0.7 -0.7,1.1c-0.2,0.5 -0.5,1 -0.8,1.4c-0.4,0.4 -0.8,0.8 -1.3,1.1c-0.9,0.5 -1.9,0.8 -3,0.9c-1,0.1 -2.1,0.1 -3.1,-0.1l-0.3,-0.1c-0.1,0.5 -0.3,1 -0.5,1.5c-0.4,0.9 -1.1,1.7 -2,2.4c-0.9,0.6 -1.9,1.1 -2.9,1.3c-1.1,0.3 -2.2,0 -3.1,-0.6c1,0 1.9,-0.2 2.8,-0.5c1.7,-0.6 3.1,-1.8 4,-3.4c0.2,-0.4 0.4,-0.8 0.5,-1.2v-0.3v-0.3v-0.1c0,-0.2 0.2,-0.3 0.4,-0.4c0.2,-0.1 0.2,0 0.2,0c0.1,0 0.2,0 0.3,0l0.7,0.1c1.8,0.4 3.7,0.2 5.3,-0.6c0.4,-0.2 0.7,-0.5 1,-0.8c0.3,-0.3 0.5,-0.7 0.7,-1.1c0.3,-0.5 0.6,-1 0.9,-1.4c0.2,-0.3 0.6,-0.5 1,-0.6c0.2,-0.1 0.5,0 0.7,0.1l0.2,0.1l0.2,0.1c1.5,1 3.4,1.3 5.1,0.8c0.9,-0.3 1.6,-0.8 2.3,-1.4c0.2,-0.2 0.3,-0.3 0.5,-0.5c0.2,-0.2 0.4,-0.4 0.7,-0.6c0.3,-0.2 0.8,-0.3 1.2,-0.1c0.3,0.1 0.6,0.3 0.8,0.5c0.3,0.3 0.6,0.6 1,0.8c0.4,0.2 0.9,0.3 1.3,0.4c0.9,0.2 1.9,0.3 2.8,0.2c0.9,0 1.8,-0.3 2.6,-0.7c0.8,-0.5 1.5,-1.1 2,-1.8c0.2,-0.3 0.6,-0.3 0.9,-0.1l0.1,0.1c0.6,0.9 1.1,1.8 1.5,2.7c0.5,0.7 1.2,1.3 2,1.5c0.9,0.3 1.8,0.3 2.6,0c1,-0.3 1.9,-0.6 2.8,-1.1c0.3,-0.1 0.7,0 0.8,0.3c0.1,0.1 0.1,0.2 0.1,0.3c0,0.8 0.1,1.6 0.5,2.3c0.4,0.7 0.9,1.3 1.6,1.7c0.6,0.4 1.4,0.7 2.2,0.8c0.8,0 1.7,-0.2 1.9,-0.4z" id="Path" fill="#000000" stroke="none" stroke-width="1" stroke-linecap="butt"/><g id="Path"><path d="M285,176.5c-0.4,1 -1.3,1.7 -2.4,1.7c-0.7,0 -1.4,-0.3 -1.9,-0.7c-0.2,0.2 -0.3,0.4 -0.5,0.6c-0.4,0.5 -1.1,0.8 -1.7,0.8c-0.6,0 -1.1,-0.3 -1.6,-0.7c-0.2,-0.2 -0.3,-0.3 -0.5,-0.5c-0.3,0.3 -0.6,0.6 -0.9,0.9c-0.3,0.2 -0.7,0.4 -1.1,0.5c-0.5,0 -0.9,-0.1 -1.3,-0.3c-0.6,-0.4 -1.2,-0.9 -1.5,-1.6c-0.2,-0.3 -0.3,-0.6 -0.4,-0.9c-0.2,-0.4 -0.1,-0.8 0.2,-1.1c0.3,0.1 0.6,0.4 0.8,0.7c0.1,0.3 0.3,0.5 0.4,0.8c0.2,0.4 0.6,0.8 1,1.1c0.3,0.2 0.7,0.1 1.1,-0.2c0.5,-0.4 0.8,-0.8 1.1,-1.3c0.2,-0.3 0.6,-0.4 0.9,-0.2c0.1,0.1 0.2,0.1 0.2,0.2c0.5,0.6 1.2,1.3 1.7,1.3c0.3,0 0.6,-0.2 0.8,-0.4c0.2,-0.2 0.3,-0.3 0.4,-0.5l0.3,-0.5c0.1,-0.3 0.5,-0.4 0.8,-0.2c0.1,0 0.1,0.1 0.2,0.2c0.3,0.5 0.9,0.8 1.5,0.8c0.6,0 1.1,-0.4 1.3,-0.9c0.2,-0.6 0.1,-1.3 -0.3,-1.8c-0.1,-0.3 -0.4,-0.6 -0.6,-1c-0.3,-0.3 -0.5,-0.7 -0.7,-1c0.4,0.2 0.7,0.4 1.1,0.6c0.3,0.3 0.6,0.6 0.9,0.9c0.6,0.8 0.9,1.8 0.7,2.7z" fill="#000000" stroke="none" stroke-width="1" stroke-linecap="butt"/><g><path d="M300.4,168c-8.3,8.9 -12.8,5.5 -17.1,0c-1.2,-1.5 0.1,-17.5 0.1,-17.5c0.7,-5.3 4.9,-10 9.9,-10.6c3.2,-0.4 6.8,0.2 9.2,4.1c2,3.3 0.2,20.3 -2.1,24z" fill="#ffffff" stroke="none" stroke-width="1" stroke-linecap="butt"/><g><path d="M282.8,150.8c0.6,-5 3.9,-9.3 8.7,-11c3,-1.3 6.5,-0.7 9,1.5c2.8,2.6 3.4,8.5 2.8,12.1" fill="none" stroke="#000000" stroke-width="1.23" stroke-linecap="round"/><path d="M286.5,158.9c0,-2.1 0.5,-4.2 1.5,-6c1.3,-2.1 3.1,-1.8 4.1,0.6c1.2,2.9 1,9.4 -1.1,12.2c-1.3,1.8 -3.2,1.4 -4,-0.9c-0.7,-1.9 -0.9,-3.9 -0.5,-5.9z" fill="#000000" stroke="none" stroke-width="1" stroke-linecap="butt"/></g><path d="M300.4,168.4c-2.5,5.3 -13.4,8.8 -17.8,-1.3" fill="none" stroke="#000000" stroke-width="1.23" stroke-linecap="round"/></g><path d="M286.4,132.9c2.6,-3.3 8.3,-3.2 10.8,-2c1.3,0.5 2.3,1.6 2.6,3c0,0.2 0,0.4 -0.1,0.4c-0.1,0 -2.7,-1.6 -4.6,-2c-2.7,-0.4 -5.5,0.5 -7.6,2.3c-1.3,1.1 -2.2,-0.5 -1.1,-1.7z" fill="#000000" stroke="none" stroke-width="1" stroke-linecap="butt"/><path d="M271.2,134c-1.9,-2.1 -4.5,-3.4 -7.4,-3.4c-1.7,0.2 -3.4,0.7 -5.1,1.2c-0.1,-0.1 -0.1,-0.3 -0.1,-0.4c0.4,-1.3 1.8,-2.2 3.2,-2.6c2.8,-0.8 8.6,-0.1 10.8,3.6c0.9,1.5 -0.3,2.9 -1.4,1.6z" fill="#000000" stroke="none" stroke-width="1" stroke-linecap="butt"/><g><path d="M270,168.7c-9.7,9.4 -15,5.8 -20,0c-1.5,-1.6 0.1,-18.5 0.1,-18.5c1,-5.9 5.7,-10.4 11.6,-11.2c3.8,-0.5 8,0.2 10.8,4.3c2.4,3.6 0.3,21.5 -2.5,25.4z" fill="#ffffff" stroke="none" stroke-width="1" stroke-linecap="butt"/><path d="M249.6,150.6c0.5,-5.2 4.8,-9.8 10.1,-11.6c3.5,-1.2 7.7,-0.9 10.5,1.6c3.2,2.8 3.9,9 3.3,12.7" fill="none" stroke="#000000" stroke-width="1.23" stroke-linecap="round"/><path d="M263.5,159.6c-0.1,-2.2 0.4,-4.4 1.6,-6.3c1.5,-2.3 3.6,-2.1 4.8,0.4c1.5,3 1.5,9.8 -0.8,12.9c-1.5,2 -3.7,1.7 -4.8,-0.7c-0.8,-2.1 -1.1,-4.2 -0.8,-6.3z" fill="#000000" stroke="none" stroke-width="1" stroke-linecap="butt"/><path d="M270.1,169c-2.9,5.7 -15.6,9.4 -20.8,-1.3" fill="none" stroke="#000000" stroke-width="1.23" stroke-linecap="round"/></g><g stroke-linecap="butt"><path d="M256.4,182.8c3.9,-4.6 14.3,-0.1 22.2,-0.3c11.5,-0.3 15.6,-4.2 21.5,-2.6c4,1.1 2.4,9.2 -3.2,13.5c-6.2,4.7 -17.2,6.8 -26.7,5.7c-10.3,-1.3 -19.5,-9.6 -13.8,-16.3z" fill="#ffffff" stroke="#000000" stroke-width="1"/><path d="M270.4,181.7c0.3,3.3 -1.6,13.3 -4.3,16.6" fill="none" stroke="#030305" stroke-width="0.74"/><path d="M282.6,182.4c0.4,1.3 -1.5,12.8 -2.7,16.6" fill="none" stroke="#030305" stroke-width="0.74"/><path d="M293.9,179.9c1.4,4.3 -0.2,12.8 -2.1,16.2" fill="none" stroke="#030305" stroke-width="0.74"/></g></g></g><g id="Group" fill-rule="evenodd"><g id="Path"><path d="M249.8,239.5c-0.3,1 -2.1,1.7 -2.7,1.8c-0.2,0.1 -0.5,1.5 -1.4,2.1c-1.7,1.2 -2.6,0.5 -3.3,1.4c-1.4,1.7 -2.8,2.2 -4,1.6c-1.3,1.8 -3.5,3.5 -6.7,2.3c-2.4,-0.9 -4.5,-3.6 -4.3,-5.5c0.1,-1.1 1.1,-2 2.2,-2c-0.7,-0.9 -0.7,-2.1 -0.1,-3.1c0,-0.1 0.1,-0.1 0.2,-0.2c-0.7,-1.4 -1.2,-2.9 -1.2,-4.5c0,-2.3 3.9,-5.3 6.8,-5.9c6,-1.2 10.5,4.1 13.4,7.8c0.9,1.3 1.6,2.6 1.1,4.2z" fill="#9e5e4c" stroke="none" stroke-width="1" stroke-linecap="butt" stroke-linejoin="miter"/><path d="M234.6,243.6c-3.7,-2.6 -6.3,-6.6 -6.3,-10.1c0,-2.3 3.9,-5.3 6.8,-5.9c6,-1.2 10.5,4.1 13.4,7.8c1,1.2 1.7,2.6 1.2,4.1c-0.3,1 -2.1,1.7 -2.7,1.8c-0.2,0.1 -0.5,1.5 -1.4,2.1c-1.7,1.2 -2.6,0.5 -3.3,1.4c-1.4,1.7 -2.8,2.2 -4,1.6c-1.3,1.8 -3.5,3.5 -6.7,2.3c-2.4,-0.9 -4.5,-3.6 -4.3,-5.5c0.2,-2.4 3.7,-2.5 5.6,-1.1" fill="none" stroke="#030305" stroke-width="0.99" stroke-linecap="round" stroke-linejoin="round"/><path d="M229.5,241.2c-0.7,-0.9 -0.7,-2.2 -0.1,-3.2" fill="none" stroke="#030305" stroke-width="0.99" stroke-linecap="round" stroke-linejoin="round"/><g><path d="M245.8,219.9c-2.8,1.6 -5.7,3 -8.7,4.2c-4.1,1.6 -11.1,2.1 -13.5,-0.1c-2.7,-2.5 -2.9,-6.7 -0.4,-9.4c0.2,-0.3 0.5,-0.5 0.8,-0.7c3.9,-3.1 15.8,-10.8 22,-8.2c3.5,1.4 6.3,10.9 -0.2,14.2z" fill="#9e5e4c" stroke="none" stroke-width="1" stroke-linecap="butt" stroke-linejoin="miter"/><path d="M242.8,221.2c-4.1,-4.4 -6,-8.4 -5.8,-14.4c0,0 8,-4.4 12.5,-1.4c4.5,3 -0.5,12.7 -1.9,13.7c-1.6,0.9 -3.2,1.6 -4.8,2.1z" fill="#ddeff1" stroke="none" stroke-width="1" stroke-linecap="butt" stroke-linejoin="miter"/><path d="M250.8,213.3c-3.4,-1.6 -4.8,-7.4 -4.3,-8.6" fill="none" stroke="#94b2be" stroke-width="0.74" stroke-linecap="butt" stroke-linejoin="miter"/><path d="M248.6,218c-2.7,-0.7 -7.8,-10.7 -6.3,-13" fill="none" stroke="#94b2be" stroke-width="0.74" stroke-linecap="butt" stroke-linejoin="miter"/><path d="M244.4,220.3c-3.2,-2.6 -6,-11.7 -5,-14.5" fill="none" stroke="#94b2be" stroke-width="0.74" stroke-linecap="butt" stroke-linejoin="miter"/><path d="M242.7,221.2c-4,-4.4 -6,-8.4 -5.8,-14.4" fill="none" stroke="#030305" stroke-width="0.99" stroke-linecap="round" stroke-linejoin="round"/><path d="M250,205.6c-0.1,0.1 -0.3,0.2 -0.5,0.1c-1.2,-0.6 -2.5,-0.9 -3.8,-0.8c-1.4,0.1 -2.7,0.3 -4,0.7c-2.7,0.8 -5.2,1.8 -7.7,3c-2.5,1.2 -4.9,2.6 -7.2,4.1c-1.2,0.7 -2.2,1.6 -3.2,2.5c-0.9,0.9 -1.4,2 -1.6,3.3c-0.1,1.3 0.2,2.6 0.8,3.7c0.3,0.6 0.7,1.1 1.2,1.5c0.4,0.4 1,0.6 1.6,0.8c2.6,0.6 5.4,0.6 8,0c1.3,-0.3 2.6,-0.7 3.9,-1.2c1.3,-0.5 2.5,-1 3.8,-1.6c1.2,-0.6 2.5,-1.2 3.8,-1.7c1.3,-0.6 2.6,-1 4,-1.3c-1,0.9 -2.2,1.7 -3.5,2.3c-1.3,0.6 -2.5,1.2 -3.8,1.8c-1.3,0.5 -2.6,1.1 -3.9,1.6c-1.3,0.5 -2.7,0.9 -4.1,1.2c-1.4,0.2 -2.8,0.4 -4.2,0.4c-1.4,0.1 -2.9,-0.1 -4.3,-0.5c-0.7,-0.2 -1.4,-0.6 -2,-1.1c-0.6,-0.5 -1,-1.1 -1.4,-1.8c-0.7,-1.3 -1,-2.8 -0.9,-4.3c0.2,-1.5 0.9,-2.9 1.9,-4c1,-1 2.2,-1.9 3.4,-2.6c2.4,-1.5 4.9,-2.9 7.4,-4.1c2.5,-1.2 5.2,-2.2 7.9,-2.9c1.4,-0.3 2.8,-0.6 4.2,-0.6c1.4,-0.1 2.9,0.3 4.2,1c0.2,0.1 0.3,0.3 0,0.5z" fill="#030305" stroke="none" stroke-width="1" stroke-linecap="butt" stroke-linejoin="miter"/></g><path d="M229,235.4c-4.9,-3.9 -9,-15.7 -6.5,-18.2c0,0 7.8,-0.5 10.6,2.6c3.3,3.6 0.5,1.6 5.1,7.6c3,3.9 -7.8,9.8 -9.2,8z" fill="#9e5e4c" stroke="none" stroke-width="1" stroke-linecap="butt" stroke-linejoin="miter"/><g fill="#030305" stroke="none" stroke-width="1" stroke-linecap="butt" stroke-linejoin="miter"><path d="M229.9,236.1c0,0.1 0,0.2 -0.1,0.3c0,0 -0.1,0 -0.2,0c-0.4,-0.3 -0.8,-0.5 -1.2,-0.8c-0.3,-0.3 -0.7,-0.6 -1,-1l-0.9,-1.1l-0.8,-1.1c-1,-1.5 -1.9,-3.1 -2.6,-4.8c-0.7,-1.6 -1.3,-3.3 -1.7,-5.1c-0.1,-0.5 -0.2,-0.9 -0.2,-1.4c0,-0.5 -0.1,-0.9 -0.1,-1.4c-0.1,-1 0.1,-2 0.6,-2.8c0.1,-0.1 0.2,-0.1 0.3,0c0.1,0 0.1,0.1 0.1,0.2l0.1,0.2c-0.3,1.7 -0.1,3.4 0.4,5c0.5,1.7 1.1,3.3 1.8,4.9c0.7,1.7 1.5,3.2 2.4,4.7l0.7,1.1l0.8,1c0.2,0.3 0.5,0.7 0.8,1c0.3,0.3 0.5,0.6 0.8,1.1z"/><path d="M239,227.9c0,0.1 -0.1,0.3 -0.2,0.3c-0.1,0 -0.2,-0.1 -0.2,-0.1c-0.4,-0.2 -0.7,-0.5 -1,-0.9c-0.3,-0.3 -0.6,-0.7 -0.8,-1c-0.5,-0.7 -0.9,-1.5 -1.3,-2.2c-0.4,-0.7 -0.8,-1.4 -1.2,-2.1c-0.3,-0.3 -0.5,-0.7 -0.7,-1c-0.3,-0.3 -0.5,-0.6 -0.7,-1c-0.1,-0.1 0,-0.2 0.1,-0.3h0.1c0.4,0.1 0.8,0.4 1.1,0.7c0.3,0.3 0.6,0.6 0.9,1c0.5,0.7 1,1.4 1.4,2.2c0.4,0.7 0.8,1.5 1.2,2.2c0.2,0.4 0.4,0.7 0.6,1.1c0.3,0.4 0.5,0.8 0.7,1.1z"/></g></g><path d="M234.7,243.4c0,0.3 0,0.4 -0.1,0.5c-0.1,0.1 -0.1,0.1 -0.2,0.1l-0.4,0.1c-0.2,0.1 -0.5,0.2 -0.7,0.3c-0.4,0.2 -0.8,0.6 -1,1.1c-0.1,0.2 -0.2,0.3 -0.4,0.2c-0.2,0 -0.2,-0.2 -0.2,-0.3c0.1,-0.7 0.5,-1.3 1.1,-1.7c0.3,-0.2 0.6,-0.4 0.9,-0.5c0.2,-0.1 0.3,-0.2 0.5,-0.2c0.1,0 0.2,0 0.3,0c0.1,0.1 0.2,0.1 0.2,0.4z" id="Path" fill="#030305" stroke="none" stroke-width="1" stroke-linecap="butt" stroke-linejoin="miter"/></g></g></g></svg>