<svg version="1.1" xmlns="http://www.w3.org/2000/svg" xmlns:xlink="http://www.w3.org/1999/xlink" width="137.07183" height="194.56994" viewBox="0,0,137.07183,194.56994"><g transform="translate(-159.48283,-20.73006)"><g data-paper-data="{&quot;isPaintingLayer&quot;:true}" fill="none" fill-rule="none" stroke="none" stroke-width="none" stroke-linecap="butt" stroke-linejoin="none" stroke-miterlimit="10" stroke-dasharray="" stroke-dashoffset="0" font-family="none" font-weight="none" font-size="none" text-anchor="none" style="mix-blend-mode: normal"><g data-paper-data="{&quot;origPos&quot;:null}" id="Leg_L"><path d="M252.01395,204.96232c0.67237,0.16809 1.34474,0.58833 1.84901,1.17665c0.58833,0.50428 1.0926,1.17665 1.42879,1.84901c0.33618,0.84046 -0.08405,2.26925 -1.2607,2.01711c-0.92451,-0.25214 -0.84046,-0.42024 -3.10971,-2.26925c-2.26925,-1.84901 -5.37896,-1.2607 -5.37896,-1.2607c-0.84046,0.08405 -1.59688,0.25214 -2.43734,0.50428c-1.68092,0.50428 -3.02566,1.42879 -3.69804,0.84046c-1.84901,-1.68092 1.0926,-3.19375 2.1852,-3.52995c1.51283,-0.25214 3.10971,-0.42024 4.62254,-0.50428l-0.50428,-5.21087c0,0 1.42879,-3.2778 2.26925,-0.42024c0.84046,2.85757 1.51283,4.79063 1.51283,4.79063l2.85757,0.33618c0,0 3.19375,-1.42879 4.79063,-0.92451c1.93307,0.58833 3.61399,1.68092 3.78208,2.43734c0.50428,2.60543 -3.95017,0 -3.95017,0l-2.01711,-0.67237c0.92451,0.58833 3.61399,1.84901 4.20232,3.02566c0.84046,1.76497 -0.42024,2.26925 -0.42024,2.26925c0,0 -0.92451,0.50428 -1.93307,-1.17665c-0.75642,-1.00855 -1.76497,-1.68092 -2.94162,-2.10116" id="Path" fill="#ff932d" fill-rule="evenodd" stroke="none" stroke-width="1" stroke-linejoin="miter"/><path d="M261.51118,204.87827c0,0.25214 0,0.42024 0,0.58833c0,0.25214 -0.08405,0.50428 -0.25214,0.67237c-0.16809,0.16809 -0.33618,0.33618 -0.58833,0.33618c-0.67237,0 -1.2607,-0.08405 -1.84901,-0.33618c0.16809,0.16809 0.42024,0.33618 0.58833,0.58833c0.25214,0.25214 0.42024,0.67237 0.50428,1.00855c0.08405,0.42024 0.08405,0.84046 0,1.2607c-0.16809,0.42024 -0.50428,0.84046 -0.92451,1.00855c-0.75642,0.25214 -1.59688,0 -2.10116,-0.67237c-0.16809,-0.25214 -0.33618,-0.50428 -0.50428,-0.75642c-0.08405,-0.16809 -0.25214,-0.42024 -0.42024,-0.58833l-0.08405,-0.08405c0.08405,0.25214 0.08405,0.58833 0.08405,0.92451c0,0.50428 -0.16809,0.92451 -0.50428,1.2607c-0.16809,0.16809 -0.42024,0.33618 -0.67237,0.42024c-0.25214,0.08405 -0.50428,0.08405 -0.75642,0c-0.42024,-0.08405 -0.84046,-0.25214 -1.17665,-0.50428l-1.68092,-1.42879c-0.50428,-0.42024 -1.0926,-0.84046 -1.68092,-1.0926c-1.2607,-0.50428 -2.60543,-0.67237 -3.95017,-0.50428h-0.08405c-0.67237,0.08405 -1.34474,0.16809 -1.93307,0.33618c-0.58833,0.16809 -1.2607,0.42024 -1.84901,0.67237c-0.33618,0.16809 -0.67237,0.33618 -1.00855,0.42024c-0.42024,0.16809 -0.84046,0.16809 -1.2607,0.08405c-0.08405,0 -0.25214,-0.08405 -0.33618,-0.16809c-0.08405,-0.08405 -0.16809,-0.16809 -0.25214,-0.25214c-0.16809,-0.16809 -0.33618,-0.33618 -0.42024,-0.50428c-0.25214,-0.42024 -0.33618,-0.92451 -0.16809,-1.42879c0.33618,-0.75642 0.84046,-1.34474 1.59688,-1.68092c0.33618,-0.16809 0.67237,-0.33618 1.00855,-0.50428c0.33618,-0.16809 0.75642,-0.25214 1.0926,-0.33618c1.17665,-0.25214 2.43734,-0.33618 3.61399,-0.42024l-0.42024,-4.45445c0,-0.08405 0,-0.16809 0,-0.25214c0.16809,-0.33618 0.33618,-0.67237 0.58833,-1.00855c0.08405,-0.16809 0.25214,-0.33618 0.42024,-0.50428c0.25214,-0.25214 0.50428,-0.33618 0.84046,-0.33618c0.33618,0 0.67237,0.16809 0.84046,0.42024c0.16809,0.16809 0.25214,0.33618 0.33618,0.58833c0.16809,0.42024 0.25214,0.75642 0.33618,1.0926c0.42024,1.2607 0.84046,2.52138 1.2607,3.78208c0.84046,0.08405 1.68092,0.16809 2.43734,0.25214c1.17665,-0.50428 2.35329,-0.75642 3.52995,-0.92451c0.33618,0 0.67237,0 1.00855,0c0.33618,0 0.67237,0.08405 1.00855,0.25214c0.58833,0.25214 1.17665,0.50428 1.68092,0.84046c0.58833,0.33618 1.0926,0.75642 1.51283,1.2607c0.16809,0.16809 0.25214,0.33618 0.58833,0.67237zM260.58667,204.71018c-0.08405,-0.08405 -0.08405,-0.16809 -0.16809,-0.25214c-0.42024,-0.42024 -0.84046,-0.75642 -1.34474,-1.00855c-0.50428,-0.25214 -1.00855,-0.50428 -1.59688,-0.67237c-0.25214,-0.08405 -0.50428,-0.16809 -0.75642,-0.16809c-0.25214,0 -0.58833,0 -0.84046,0c-1.17665,0.16809 -2.26925,0.50428 -3.36184,1.00855c-0.08405,0 -0.16809,0 -0.25214,0c-0.92451,-0.08405 -1.84901,-0.25214 -2.85757,-0.33618c-0.16809,0 -0.33618,-0.16809 -0.42024,-0.33618c-0.50428,-1.42879 -0.92451,-2.77353 -1.34474,-4.20232c-0.16809,-0.33618 -0.25214,-0.75642 -0.33618,-1.00855c-0.08405,-0.25214 -0.25214,-0.33618 -0.25214,-0.42024c-0.16809,0.08405 -0.33618,0.25214 -0.42024,0.42024c-0.16809,0.25214 -0.25214,0.50428 -0.42024,0.75642l0.50428,5.04278c0.08405,0.33618 -0.16809,0.58833 -0.42024,0.58833v0c-1.2607,0.08405 -2.68948,0.25214 -3.95017,0.42024c-0.58833,0.16809 -1.17665,0.33618 -1.68092,0.67237c-0.50428,0.25214 -0.92451,0.67237 -1.17665,1.17665c-0.08405,0.25214 0,0.42024 0.08405,0.58833c0.08405,0.16809 0.25214,0.33618 0.42024,0.42024c0.16809,0 0.42024,0 0.67237,-0.08405c0.33618,-0.08405 0.58833,-0.16809 0.92451,-0.33618c0.58833,-0.25214 1.2607,-0.50428 1.93307,-0.67237c0.67237,-0.16809 1.42879,-0.25214 2.10116,-0.33618h-0.08405c1.51283,-0.25214 3.02566,0 4.45445,0.58833c0.67237,0.33618 1.2607,0.75642 1.84901,1.2607l1.59688,1.34474c0.16809,0.16809 0.50428,0.25214 0.75642,0.33618c0.16809,0 0.33618,0 0.50428,-0.16809c0.16809,-0.16809 0.25214,-0.42024 0.25214,-0.67237c0,-0.33618 0,-0.58833 -0.16809,-0.84046c-0.33618,-0.58833 -0.75642,-1.17665 -1.17665,-1.68092c-0.50428,-0.50428 -1.00855,-0.92451 -1.59688,-1.34474c0.75642,0 1.51283,0.33618 2.01711,0.92451c0.08405,0 0.08405,0.08405 0.16809,0.16809c0.75642,0.33618 1.59688,0.75642 2.26925,1.2607c0.25214,0.16809 0.50428,0.42024 0.67237,0.67237c0.16809,0.25214 0.33618,0.42024 0.50428,0.58833c0.16809,0.25214 0.50428,0.50428 0.84046,0.50428c0.25214,-0.08405 0.33618,-0.25214 0.42024,-0.42024c0.08405,-0.16809 0.08405,-0.42024 0,-0.67237c-0.08405,-0.25214 -0.16809,-0.50428 -0.33618,-0.75642c-0.16809,-0.25214 -0.33618,-0.50428 -0.58833,-0.67237c-0.50428,-0.42024 -1.00855,-0.84046 -1.51283,-1.17665c-0.33618,-0.16809 -0.58833,-0.33618 -0.84046,-0.50428c-0.33618,-0.08405 -0.67237,-0.25214 -1.00855,-0.42024l0.08405,-0.25214v0v0c0.08405,-0.08405 0.08405,-0.08405 0.16809,-0.08405c0.75642,0.16809 1.42879,0.42024 2.10116,0.58833c0.58833,0.25214 1.0926,0.50428 1.68092,0.67237c0.50428,0.16809 1.0926,0.25214 1.59688,0.25214c0.25214,-0.08405 0.25214,-0.16809 0.25214,-0.33618c0,-0.08405 0,-0.16809 0.08405,-0.42024z" id="Shape" fill="#000000" fill-rule="nonzero" stroke="none" stroke-width="1" stroke-linejoin="miter"/><path d="M251.08944,194.96082c-0.16809,2.52138 -2.35329,4.37041 -4.79063,4.20232c-2.43734,-0.16809 -4.37041,-2.35329 -4.20232,-4.79063c0.16809,-2.43734 2.1852,-4.28636 4.62254,-4.20232c2.52138,0.08405 4.45445,2.26925 4.37041,4.79063z" id="Path" fill="#99ca43" fill-rule="evenodd" stroke="none" stroke-width="1" stroke-linejoin="miter"/><path d="M251.08944,194.96082c-0.16809,2.52138 -2.35329,4.37041 -4.79063,4.20232c-2.43734,-0.16809 -4.37041,-2.35329 -4.20232,-4.79063c0.16809,-2.43734 2.1852,-4.28636 4.62254,-4.20232c2.52138,0.08405 4.45445,2.26925 4.37041,4.79063z" id="Path" fill="none" fill-rule="evenodd" stroke="#000000" stroke-width="1.75" stroke-linejoin="round"/></g><g data-paper-data="{&quot;origPos&quot;:null}" id="Head" fill-rule="evenodd"><g id="Group"><path d="M274.62238,113.26788c9.58127,10.58983 13.61549,33.78659 6.05133,51.60439c-24.45745,57.31953 -102.20022,20.25514 -102.20022,20.25514c-1.0926,-5.12682 -18.32208,-118.50519 -17.56566,-120.85849c0,0 12.1867,-1.59688 36.72821,-24.7096c18.9104,-14.87619 37.23248,-21.17965 60.76542,-15.38046c20.84347,5.12682 35.97179,21.51583 36.81225,42.52739c0.84046,17.73375 -5.63109,32.77803 -20.59133,46.56162" id="Path" fill="#f7ed4e" stroke="none" stroke-width="1" stroke-linejoin="miter"/><path d="M178.47349,185.12741l-7.48012,-46.8978c26.7267,28.74381 57.57167,-2.26925 57.57167,-2.26925c6.38751,5.21087 21.59989,10.92601 32.10566,-3.86613c8.74081,14.62404 23.28081,2.68948 22.60844,-0.25214c1.51283,6.47156 3.61399,26.81074 -10.0015,46.22543c-20.42323,29.07999 -67.90936,18.65827 -94.80415,7.05988" id="Path" fill="#99ca43" stroke="none" stroke-width="1" stroke-linejoin="miter"/><path d="M232.17904,109.40175c-6.55561,-0.16809 -7.14393,-11.43029 -1.17665,-13.11121c8.74081,-2.43734 13.78358,13.78358 1.17665,13.11121" id="Path" fill="#000104" stroke="none" stroke-width="1" stroke-linejoin="miter"/><path d="M230.07788,98.55978c3.02566,-0.58833 3.86613,2.77353 2.52138,4.62254c-0.33618,0.25214 -0.67237,0.50428 -1.0926,0.67237c-1.2607,0.42024 -2.52138,-0.25214 -2.94162,-1.51283c-0.84046,-2.35329 1.17665,-5.04278 3.4459,-3.52995" id="Path" fill="#ffffff" stroke="none" stroke-width="1" stroke-linejoin="miter"/><path d="M160.90783,64.26892c9.24508,-1.93307 25.38197,-12.94312 33.4504,-21.51583c16.38902,-17.56566 40.42623,-24.37341 63.95919,-18.57422c20.84347,5.12682 35.97179,21.51583 36.81225,42.52739c0.84046,17.73375 -5.63109,32.77803 -20.59133,46.56162c15.04428,16.38902 16.80924,63.95919 -22.02011,80.43224c-21.59989,9.16104 -57.90786,-2.35329 -74.04473,-8.57271c-6.7237,-36.56011 -17.31353,-118.25305 -17.56566,-120.85849z" id="Path" fill="none" stroke="#000000" stroke-width="2.85" stroke-linejoin="round"/></g><g id="Layer_1_1_"><path d="M252.77036,131.00163c0.33618,1.93307 -1.59688,3.86613 -4.28636,4.37041c-2.68948,0.50428 -5.12682,-0.75642 -5.463,-2.60543c-0.33618,-1.84901 1.59688,-3.86613 4.28636,-4.37041c2.68948,-0.50428 5.12682,0.67237 5.463,2.60543z" id="Path" fill="#80886d" stroke="none" stroke-width="1" stroke-linejoin="miter"/><path d="M269.9158,109.14961c0,3.78208 -2.1852,7.22798 -5.04278,7.22798c-2.85757,0 -8.06844,-2.26925 -8.06844,-6.05133c0,-3.78208 5.63109,-6.97584 8.48867,-6.97584c2.85757,0 4.62254,2.01711 4.62254,5.79919z" id="Path" fill="#a8dddb" stroke="none" stroke-width="1" stroke-linejoin="miter"/><path d="M269.9158,109.14961c0,3.78208 -2.1852,7.22798 -5.04278,7.22798c-2.85757,0 -8.06844,-2.26925 -8.06844,-6.05133c0,-3.78208 5.63109,-6.97584 8.48867,-6.97584c2.85757,0 4.62254,2.01711 4.62254,5.79919z" id="Path" fill="none" stroke="#000000" stroke-width="1.78" stroke-linejoin="round"/><path d="M276.13522,131.42186c-0.33618,1.68092 -2.43734,2.68948 -4.5385,2.26925c-2.10116,-0.42024 -3.61399,-2.1852 -3.2778,-3.95017c0.33618,-1.76497 2.43734,-2.68948 4.5385,-2.26925c2.10116,0.42024 3.61399,2.1852 3.2778,3.95017z" id="Path" fill="#80886d" stroke="none" stroke-width="1" stroke-linejoin="miter"/></g><g id="Group" fill="#000104" stroke="none" stroke-width="1" stroke-linejoin="miter"><path d="M213.35268,65.36152c-0.08405,0.58833 -0.25214,1.0926 -0.50428,1.59688c-0.16809,0.50428 -0.42024,1.00855 -0.58833,1.51283c-1.0926,2.94162 -1.68092,6.13537 -1.59688,9.32913c0.08405,2.01711 0.50428,3.95017 1.42879,5.79919c0.50428,0.92451 1.0926,1.76497 1.84901,2.43734c0.33618,0.33618 0.75642,0.67237 1.17665,1.00855c0.50428,0.33618 0.92451,0.75642 1.2607,1.17665c-0.58833,0 -1.17665,-0.08405 -1.68092,-0.33618c-0.25214,-0.08405 -0.50428,-0.25214 -0.75642,-0.42024l-0.75642,-0.42024c-1.00855,-0.67237 -1.93307,-1.42879 -2.60543,-2.43734c-1.42879,-1.93307 -2.1852,-4.37041 -2.1852,-6.80774c0,-2.35329 0.42024,-4.62254 1.2607,-6.80774c0.42024,-1.0926 0.92451,-2.10116 1.51283,-3.10971c0.25214,-0.50428 0.58833,-1.00855 0.92451,-1.42879c0.33618,-0.42024 0.75642,-0.75642 1.2607,-1.0926z" id="Path"/><path d="M199.98934,69.22764c-0.08405,0.58833 -0.25214,1.0926 -0.50428,1.59688c-0.16809,0.50428 -0.42024,1.00855 -0.58833,1.51283c-1.0926,2.94162 -1.68092,6.13537 -1.59688,9.32913c0.08405,2.01711 0.50428,3.95017 1.42879,5.79919c0.50428,0.92451 1.0926,1.76497 1.84901,2.43734c0.42024,0.33618 0.75642,0.67237 1.17665,1.00855c0.50428,0.33618 0.92451,0.67237 1.2607,1.17665c-0.58833,0 -1.17665,-0.08405 -1.68092,-0.33618c-0.25214,-0.08405 -0.50428,-0.25214 -0.75642,-0.42024l-0.75642,-0.42024c-1.00855,-0.67237 -1.93307,-1.51283 -2.60543,-2.43734c-1.42879,-1.93307 -2.1852,-4.37041 -2.1852,-6.80774c0,-2.35329 0.42024,-4.62254 1.34474,-6.80774c0.42024,-1.0926 0.92451,-2.10116 1.42879,-3.10971c0.25214,-0.50428 0.58833,-0.92451 0.92451,-1.42879c0.25214,-0.42024 0.75642,-0.75642 1.2607,-1.0926z" id="Path"/><g id="Path"><path d="M212.00795,121.50441c-0.75642,0.25214 -1.68092,0.16809 -2.43734,-0.08405c-0.84046,-0.33618 -1.59688,-0.67237 -2.26925,-1.17665c-1.51283,-1.00855 -2.52138,-2.52138 -2.94162,-4.28636c-0.42024,-1.76497 -0.25214,-3.52995 0.33618,-5.21087c0.42024,-1.17665 0.92451,-2.26925 1.59688,-3.36184c-0.84046,-0.67237 -1.51283,-1.42879 -1.93307,-2.43734c-0.50428,-1.34474 -0.67237,-2.77353 -0.33618,-4.20232c0.25214,-1.34474 0.75642,-2.60543 1.42879,-3.69804c0.67237,-1.17665 1.68092,-2.10116 2.94162,-2.52138c-0.67237,1.00855 -1.34474,2.01711 -1.84901,3.10971c-0.50428,1.0926 -0.75642,2.1852 -0.84046,3.36184c-0.08405,1.0926 0.08405,2.1852 0.58833,3.10971c0.42024,0.84046 1.17665,1.42879 2.10116,1.76497l1.34474,0.50428l-0.84046,1.2607c-0.84046,1.17665 -1.51283,2.52138 -2.01711,3.86613c-0.50428,1.2607 -0.75642,2.68948 -0.58833,4.03422c0.16809,1.34474 0.75642,2.68948 1.76497,3.61399c0.50428,0.50428 1.0926,0.92451 1.76497,1.2607c0.58833,0.33618 1.34474,0.58833 2.1852,1.0926z"/><path d="M199.23292,125.03434c0.67237,0.33618 1.2607,0.67237 2.01711,1.0926c-0.84046,0.16809 -1.68092,0.16809 -2.43734,-0.16809c-0.75642,-0.25214 -1.51283,-0.67237 -2.1852,-1.17665c-1.34474,-1.0926 -2.35329,-2.60543 -2.77353,-4.28636c-0.33618,-1.68092 -0.25214,-3.4459 0.25214,-5.12682c0.42024,-1.17665 0.92451,-2.35329 1.59688,-3.4459c-0.84046,-0.67237 -1.59688,-1.59688 -2.10116,-2.60543c-0.67237,-1.42879 -0.84046,-3.02566 -0.58833,-4.5385c0.25214,-1.42879 0.84046,-2.85757 1.59688,-4.03422c0.67237,-1.17665 1.76497,-2.1852 3.10971,-2.68948c-0.75642,1.0926 -1.42879,2.1852 -2.10116,3.36184c-0.50428,1.17665 -0.84046,2.35329 -0.92451,3.61399c-0.08405,1.17665 0.16809,2.35329 0.75642,3.36184c0.58833,0.92451 1.42879,1.76497 2.43734,2.26925l1.00855,0.58833l-0.67237,1.00855c-0.75642,1.17665 -1.34474,2.43734 -1.84901,3.78208c-0.42024,1.34474 -0.58833,2.68948 -0.42024,4.03422c0.16809,1.34474 0.75642,2.60543 1.68092,3.61399c0.50428,0.50428 1.00855,0.92451 1.59688,1.34474z"/><path d="M190.6602,128.06001c0.75642,0.25214 1.51283,0.42024 2.26925,0.58833c-0.84046,0.50428 -1.76497,0.58833 -2.60543,0.42024c-0.84046,-0.16809 -1.68092,-0.50428 -2.43734,-1.00855c-1.59688,-1.00855 -2.77353,-2.52138 -3.36184,-4.28636c-0.58833,-1.76497 -0.67237,-3.69804 -0.16809,-5.463c0.33618,-1.34474 0.92451,-2.60543 1.68092,-3.78208c-0.25214,-0.16809 -0.50428,-0.42024 -0.67237,-0.67237c-0.42024,-0.58833 -0.75642,-1.2607 -1.00855,-1.93307c-0.33618,-1.2607 -0.42024,-2.60543 -0.25214,-3.95017c0.16809,-1.2607 0.50428,-2.52138 1.0926,-3.69804c0.25214,-0.58833 0.67237,-1.0926 1.0926,-1.59688c0.42024,-0.42024 1.00855,-0.75642 1.68092,-0.84046c-0.33618,0.42024 -0.75642,0.92451 -1.00855,1.42879c-0.25214,0.50428 -0.50428,1.00855 -0.67237,1.51283c-0.33618,1.0926 -0.50428,2.1852 -0.50428,3.36184c0,1.0926 0.16809,2.1852 0.58833,3.19375c0.33618,0.84046 0.92451,1.51283 1.76497,1.84901l1.34474,0.50428l-0.84046,1.2607c-0.84046,1.2607 -1.51283,2.60543 -1.93307,4.03422c-0.42024,1.42879 -0.50428,2.85757 -0.16809,4.28636c0.33618,1.42879 1.0926,2.68948 2.1852,3.69804c0.58833,0.50428 1.2607,0.92451 1.93307,1.0926z"/></g></g></g><g data-paper-data="{&quot;origPos&quot;:null}" id="Beak" fill-rule="evenodd" stroke="none" stroke-width="1" stroke-linejoin="miter"><path d="M259.83025,127.47168c0.33618,-2.85757 -4.45445,-13.53144 -3.2778,-15.12832c1.59688,-2.43734 7.64821,-2.94162 9.32913,-0.33618c3.19375,4.87468 -2.68948,13.69954 -6.05133,15.4645" id="Path" fill="#ef632a"/><path d="M267.31037,117.55423c-0.58833,2.35329 -1.59688,4.45445 -3.02566,6.38751c-0.67237,0.84046 -1.34474,1.59688 -2.1852,2.26925c-0.58833,0.33618 -1.2607,0.67237 -1.93307,0.92451c1.59688,-3.52995 4.5385,-6.13537 5.37896,-10.16959c0.33618,-1.76497 0.25214,-3.95017 -1.2607,-5.12682c-1.0926,-0.84046 -2.43734,-1.0926 -3.78208,-0.75642c-1.2607,0.33618 -2.43734,0.92451 -3.52995,1.59688c1.2607,4.37041 3.78208,9.49723 3.19375,14.11977c0,0.25214 -0.16809,0.42024 -0.42024,0.50428c-0.92451,-1.00855 -1.17665,-2.94162 -1.68092,-4.28636c-1.17665,-2.85757 -2.01711,-5.88324 -2.68948,-8.99295c-0.16809,-0.58833 -0.16809,-1.17665 0,-1.76497c0.92451,-3.10971 6.47156,-3.86613 9.07699,-2.52138c2.94162,1.51283 3.61399,5.12682 2.85757,7.8163z" id="Path" fill="#000104"/></g><g data-paper-data="{&quot;origPos&quot;:null}" id="Leg_R" stroke="none" stroke-width="1" stroke-linejoin="miter"><path d="M234.19615,207.90394c0.67237,0.33618 1.34474,0.75642 1.84901,1.34474c0.50428,0.58833 0.92451,1.2607 1.17665,1.93307c0.33618,0.92451 -0.16809,2.43734 -1.34474,2.10116c-1.00855,-0.25214 -0.92451,-0.50428 -3.10971,-2.43734c-1.59688,-1.17665 -3.52995,-1.68092 -5.463,-1.42879c-0.84046,0 -1.68092,0.16809 -2.52138,0.42024c-1.59688,0.50428 -2.43734,1.51283 -3.10971,0.84046c-1.84901,-1.76497 0.58833,-3.2778 1.68092,-3.61399c1.59688,-0.25214 3.10971,-0.42024 4.70659,-0.42024l-0.33618,-5.463c0,0 1.59688,-3.2778 2.35329,-0.33618c0.75642,2.94162 1.42879,5.04278 1.42879,5.04278l2.94162,0.42024c0,0 3.2778,-1.34474 4.87468,-0.84046c2.01711,0.67237 3.69804,1.84901 3.78208,2.60543c0.42024,2.68948 -3.95017,-0.08405 -3.95017,-0.08405l-2.01711,-0.84046c1.00855,0.67237 3.61399,2.01711 4.20232,3.2778c0.84046,1.84901 -0.50428,2.35329 -0.50428,2.35329c0,0 -1.00855,0.42024 -1.93307,-1.34474c-0.67237,-1.00855 -1.68092,-1.76497 -2.85757,-2.1852" id="Path" fill="#ff932d" fill-rule="evenodd"/><path d="M243.021,207.81989c0,0.16809 0,0.42024 0,0.58833c0,0.25214 -0.08405,0.50428 -0.25214,0.67237c-0.16809,0.16809 -0.33618,0.25214 -0.58833,0.33618c-0.67237,0 -1.2607,-0.08405 -1.76497,-0.33618c0.25214,0.25214 0.42024,0.42024 0.58833,0.67237c0.16809,0.33618 0.33618,0.67237 0.42024,1.0926c0.25214,0.92451 -0.16809,1.84901 -1.00855,2.26925c-0.33618,0.16809 -0.67237,0.08405 -1.00855,0c-0.33618,-0.16809 -0.58833,-0.42024 -0.84046,-0.67237c-0.25214,-0.25214 -0.33618,-0.50428 -0.50428,-0.84046c-0.08405,-0.25214 -0.25214,-0.50428 -0.42024,-0.67237c-0.25214,-0.33618 -0.58833,-0.58833 -0.92451,-0.92451c0.16809,0.25214 0.33618,0.50428 0.50428,0.75642c0.16809,0.16809 0.16809,0.33618 0.25214,0.58833c0,0.25214 0,0.42024 0,0.67237c-0.08405,0.42024 -0.25214,0.92451 -0.50428,1.2607c-0.16809,0.16809 -0.42024,0.33618 -0.67237,0.42024c-0.25214,0.08405 -0.50428,0.08405 -0.75642,0c-0.16809,0 -0.42024,-0.08405 -0.58833,-0.16809c-0.25214,-0.08405 -0.42024,-0.16809 -0.58833,-0.33618c-0.58833,-0.50428 -1.00855,-1.00855 -1.59688,-1.51283c-0.50428,-0.50428 -1.0926,-0.92451 -1.68092,-1.2607c-1.17665,-0.58833 -2.60543,-0.75642 -3.95017,-0.58833h-0.08405c-1.2607,0.08405 -2.52138,0.42024 -3.61399,0.92451c-0.25214,0.16809 -0.58833,0.33618 -0.92451,0.42024c-0.25214,0.08405 -0.42024,0.08405 -0.67237,0.08405c-0.25214,0 -0.50428,-0.08405 -0.75642,-0.25214c-0.33618,-0.25214 -0.58833,-0.58833 -0.75642,-0.92451c-0.16809,-0.42024 -0.25214,-0.92451 -0.08405,-1.34474c0.33618,-0.75642 0.84046,-1.34474 1.51283,-1.68092c0.33618,-0.25214 0.67237,-0.42024 1.00855,-0.50428c0.33618,-0.16809 0.75642,-0.16809 1.0926,-0.25214c1.17665,-0.16809 2.26925,-0.16809 3.4459,-0.25214l-0.33618,-4.95873c0,-0.08405 0,-0.16809 0.08405,-0.25214c0.16809,-0.42024 0.42024,-0.75642 0.67237,-1.0926c0.16809,-0.16809 0.33618,-0.33618 0.50428,-0.50428c0.25214,-0.25214 0.58833,-0.33618 0.92451,-0.33618c0.33618,0 0.67237,0.25214 0.84046,0.50428c0.16809,0.25214 0.25214,0.42024 0.33618,0.67237c0.16809,0.42024 0.25214,0.84046 0.33618,1.17665c0.42024,1.34474 0.84046,2.68948 1.17665,4.03422c0.75642,0.08405 1.59688,0.16809 2.35329,0.33618c1.17665,-0.50428 2.43734,-0.84046 3.69804,-0.92451c0.33618,-0.08405 0.67237,-0.08405 1.00855,0c0.33618,0.08405 0.67237,0.16809 1.00855,0.33618c0.58833,0.25214 1.17665,0.58833 1.68092,0.92451c0.58833,0.33618 1.0926,0.84046 1.51283,1.34474c0.08405,0.16809 0.16809,0.42024 -0.08405,0.50428zM242.68482,207.90394c0,-0.08405 0,-0.16809 -0.08405,-0.25214c-0.33618,-0.42024 -0.75642,-0.84046 -1.2607,-1.0926c-0.50428,-0.25214 -1.00855,-0.50428 -1.59688,-0.75642c-0.25214,-0.08405 -0.50428,-0.16809 -0.75642,-0.25214c-0.25214,0 -0.58833,0 -0.84046,0c-1.17665,0.16809 -2.35329,0.42024 -3.4459,0.92451c-0.08405,0 -0.16809,0 -0.25214,0c-1.00855,-0.08405 -1.93307,-0.25214 -2.94162,-0.42024c-0.16809,-0.08405 -0.33618,-0.25214 -0.42024,-0.42024c-0.42024,-1.42879 -0.84046,-2.94162 -1.2607,-4.37041c-0.08405,-0.33618 -0.16809,-0.75642 -0.25214,-1.00855c-0.08405,-0.16809 -0.25214,-0.33618 -0.25214,-0.42024c-0.16809,0.16809 -0.33618,0.25214 -0.42024,0.42024c-0.25214,0.25214 -0.33618,0.50428 -0.50428,0.75642l0.33618,5.29491c0,0.33618 -0.25214,0.58833 -0.50428,0.58833c-1.2607,0 -2.60543,0.08405 -3.86613,0.25214c-0.58833,0.08405 -1.17665,0.25214 -1.68092,0.58833c-0.50428,0.25214 -0.84046,0.67237 -1.0926,1.17665c-0.16809,0.42024 0.08405,0.84046 0.50428,1.17665c0.08405,0.08405 0.08405,0.08405 0.16809,0.08405c0.16809,0 0.25214,-0.08405 0.33618,-0.08405c0.25214,-0.08405 0.58833,-0.16809 0.84046,-0.33618c1.2607,-0.50428 2.60543,-0.84046 3.95017,-0.92451h-0.08405c1.51283,-0.16809 3.10971,0.08405 4.5385,0.75642c0.67237,0.42024 1.2607,0.84046 1.84901,1.42879c0.58833,0.50428 1.0926,1.0926 1.59688,1.51283c0.16809,0.16809 0.50428,0.25214 0.75642,0.33618c0.16809,0.08405 0.42024,0 0.50428,-0.16809c0.42024,-0.50428 0.42024,-1.0926 0.16809,-1.59688c-0.25214,-0.67237 -0.67237,-1.2607 -1.0926,-1.76497c-0.42024,-0.58833 -1.00855,-1.0926 -1.51283,-1.51283c0.75642,0.08405 1.51283,0.42024 2.01711,1.00855c0.92451,0.33618 1.76497,0.84046 2.52138,1.42879c0.25214,0.25214 0.50428,0.50428 0.67237,0.75642c0.25214,0.25214 0.33618,0.50428 0.50428,0.67237c0.16809,0.33618 0.50428,0.50428 0.84046,0.58833c0.16809,-0.08405 0.33618,-0.25214 0.42024,-0.42024c0.08405,-0.25214 0.08405,-0.50428 0,-0.75642c-0.08405,-0.58833 -0.42024,-1.0926 -0.84046,-1.51283c-0.50428,-0.42024 -1.00855,-0.84046 -1.51283,-1.2607c-0.50428,-0.33618 -1.00855,-0.67237 -1.51283,-1.00855c-0.16809,-0.08405 -0.25214,-0.08405 -0.42024,-0.16809l0.08405,-0.25214c0,0 0.08405,0.08405 0.16809,0.08405v0c0.75642,0.25214 1.42879,0.42024 2.10116,0.67237c0.58833,0.25214 1.0926,0.50428 1.68092,0.75642c0.50428,0.25214 1.0926,0.33618 1.59688,0.33618c0.16809,-0.08405 0.16809,-0.08405 0.25214,-0.33618c0,-0.08405 0,-0.25214 0,-0.50428z" id="Shape" fill="#000000" fill-rule="nonzero"/><path d="M228.73206,202.23011c-2.50354,-0.12157 -4.42538,-2.43754 -4.29256,-5.17289c0.13283,-2.73534 2.27001,-4.85423 4.77354,-4.73267c2.50354,0.12157 4.42538,2.43754 4.29256,5.17289c-0.13283,2.73534 -2.27001,4.85423 -4.77354,4.73267z" id="Oval" fill="#99ca43" fill-rule="evenodd"/><path d="M233.60782,195.80128c0.33618,0.75642 0.50428,1.59688 0.25214,2.43734c-0.08405,0.84046 -0.42024,1.68092 -0.84046,2.43734c-0.42024,0.84046 -1.17665,1.51283 -2.01711,1.84901c-0.84046,0.33618 -1.76497,0.50428 -2.68948,0.42024c-0.92451,-0.08405 -1.76497,-0.33618 -2.52138,-0.84046c-0.75642,-0.50428 -1.42879,-1.2607 -1.76497,-2.10116c-0.33618,-0.84046 -0.50428,-1.68092 -0.50428,-2.52138c0,-0.84046 -0.16809,-1.68092 0.67237,-2.43734l0.50428,0.08405c0.67237,0.84046 0.33618,1.51283 0.50428,2.1852c0.08405,0.67237 0.16809,1.34474 0.42024,2.01711c0.25214,0.58833 0.58833,1.0926 1.0926,1.42879c0.50428,0.33618 1.17665,0.58833 1.76497,0.67237c0.67237,0.08405 1.2607,0 1.84901,-0.25214c0.58833,-0.25214 1.00855,-0.75642 1.2607,-1.2607c0.33618,-0.58833 0.50428,-1.2607 0.67237,-1.93307c0.08405,-0.75642 0.25214,-1.51283 0.58833,-2.1852z" id="Path" fill="#000000" fill-rule="evenodd"/></g><g data-paper-data="{&quot;origPos&quot;:null}" id="Layer_5" fill-rule="evenodd" stroke="none" stroke-width="1" stroke-linejoin="miter"><path d="M227.13626,136.71678c0.67237,4.37041 5.71515,13.36335 -3.2778,33.19826c-14.70809,32.52589 -37.56867,41.68693 -44.54451,44.46046c-1.0926,0.42024 -6.30346,0.16809 -5.79919,-7.48012c0.67237,-10.75792 -5.463,-77.65872 -5.79919,-92.61895c8.65676,13.95167 36.22393,25.6341 59.42069,22.44035z" id="Path" fill="#f7ed4e"/><path d="M227.89269,139.15412c0.67237,4.37041 4.95873,11.01006 -4.03422,30.76093c-14.70809,32.52589 -37.56867,41.68693 -44.54451,44.46046c-1.0926,0.42024 -6.30346,0.16809 -5.79919,-7.48012c0.67237,-10.75792 -3.78208,-47.9904 -4.11826,-62.95063c16.30497,18.99445 51.4363,9.24508 58.49618,-4.79063z" id="Path" fill="#99ca43"/><path d="M171.74979,178.31966c0.16809,-1.34474 0.50428,-2.68948 0.92451,-4.03422c0.33618,-1.34474 0.75642,-2.60543 1.2607,-3.86613c0.50428,-1.2607 1.0926,-2.52138 1.68092,-3.69804c0.58833,-1.2607 1.42879,-2.35329 2.35329,-3.36184l0.25214,0.16809c-0.33618,1.2607 -0.75642,2.52138 -1.34474,3.78208c-0.50428,1.17665 -1.00855,2.43734 -1.42879,3.69804c-0.42024,1.2607 -0.84046,2.52138 -1.2607,3.78208c-0.42024,1.2607 -0.75642,2.52138 -1.00855,3.78208z" id="Path" fill="#000000"/><path d="M230.16192,148.81943c0,2.35329 -0.25214,4.70659 -0.67237,7.05988c-0.08405,0.58833 -0.16809,1.17665 -0.33618,1.76497l-0.42024,1.76497c-0.33618,1.17665 -0.58833,2.35329 -1.00855,3.4459c-1.51283,4.45445 -3.4459,8.74081 -5.79919,12.85907c-4.45445,8.32058 -10.16959,15.88474 -16.80924,22.52439c-6.63965,6.63965 -14.45595,12.01861 -23.11272,15.88474l-1.59688,0.67237l-0.84046,0.33618c-0.42024,0.08405 -0.84046,0.16809 -1.2607,0.16809c-1.34474,0 -2.77353,-0.58833 -3.78208,-1.51283c-0.92451,-0.92451 -1.59688,-2.1852 -1.84901,-3.52995c-0.16809,-1.17665 -0.25214,-2.43734 -0.16809,-3.69804c0.08405,-2.26925 0,-4.62254 -0.08405,-6.89179c-0.08405,-2.26925 -0.16809,-4.5385 -0.33618,-6.89179c-0.58833,-9.24508 -1.34474,-18.49017 -1.93307,-27.73526l-1.84901,-27.81931c-0.25214,-4.62254 -0.58833,-9.24508 -0.84046,-13.86763l-0.33618,-6.89179c-0.25214,-2.26925 -0.25214,-4.62254 0.16809,-6.97584l0.58833,0.08405c0.75642,2.26925 1.17665,4.5385 1.2607,6.89179l0.67237,6.89179c0.42024,4.62254 0.84046,9.24508 1.17665,13.86763c0.67237,9.24508 1.34474,18.49017 1.93307,27.81931c0.58833,9.24508 1.0926,18.57422 1.42879,27.81931l0.08405,2.68948c0.25214,-0.84046 0.50428,-1.68092 0.84046,-2.52138c0.84046,-2.1852 1.68092,-4.28636 2.60543,-6.38751c0.92451,-2.10116 1.93307,-4.11826 3.10971,-6.13537c1.0926,-2.01711 2.52138,-3.86613 4.20232,-5.463l0.33618,0.25214l-3.2778,5.88324c-1.0926,2.01711 -2.01711,4.03422 -2.85757,6.13537c-0.84046,2.10116 -1.76497,4.20232 -2.52138,6.30346l-1.17665,3.19375c-0.42024,1.00855 -0.75642,2.01711 -1.17665,3.19375c0.08405,2.26925 0.08405,4.45445 0,6.80774c-0.08405,1.0926 0,2.10116 0.16809,3.19375c0.25214,0.92451 0.67237,1.84901 1.34474,2.52138c0.67237,0.67237 1.51283,1.00855 2.43734,1.00855c0.16809,0 0.33618,0 0.50428,-0.08405l0.84046,-0.33618l1.59688,-0.67237c1.68092,-0.75642 3.36184,-1.59688 4.95873,-2.43734c0.16809,-1.34474 0.33618,-2.60543 0.58833,-3.86613c0.25214,-1.42879 0.58833,-2.85757 0.92451,-4.28636c0.75642,-2.77353 1.42879,-5.54705 2.43734,-8.40462c1.00855,-2.85757 2.01711,-5.463 3.10971,-8.15249c1.0926,-2.60543 2.43734,-5.21087 4.03422,-7.64821l0.25214,0.16809c-0.42024,1.42879 -0.92451,2.77353 -1.42879,4.11826c-0.50428,1.34474 -1.00855,2.68948 -1.51283,4.03422c-1.0926,2.60543 -2.01711,5.37896 -2.85757,8.06844c-0.92451,2.68948 -1.68092,5.463 -2.35329,8.23653c-0.50428,2.26925 -1.00855,4.5385 -1.42879,6.80774c5.37896,-3.10971 10.42174,-6.89179 14.87619,-11.2622c0.92451,-2.68948 1.84901,-5.463 2.68948,-8.23653c0.92451,-2.94162 1.76497,-5.88324 2.52138,-8.82486c0.75642,-2.94162 1.59688,-5.88324 2.26925,-8.9089c0.42024,-1.51283 0.75642,-2.94162 1.17665,-4.45445c0.42024,-1.51283 0.84046,-3.02566 1.34474,-4.45445l0.33618,0.08405c-0.16809,3.10971 -0.50428,6.21942 -1.17665,9.24508c-0.58833,3.02566 -1.34474,5.96728 -2.10116,8.99295c-0.75642,3.02566 -1.68092,5.96728 -2.60543,8.9089c-0.50428,1.42879 -1.00855,2.94162 -1.51283,4.37041c-0.08405,0.16809 -0.08405,0.33618 -0.16809,0.50428c5.63109,-6.05133 10.50578,-12.85907 14.45595,-20.1711c2.26925,-4.03422 4.11826,-8.23653 5.63109,-12.52289c0.42024,-1.0926 0.67237,-2.1852 1.00855,-3.2778l0.42024,-1.68092c0.16809,-0.58833 0.25214,-1.0926 0.33618,-1.68092c0.42024,-2.1852 0.67237,-4.45445 0.67237,-6.7237c0.08405,-4.5385 -0.75642,-8.99295 -2.43734,-13.19525c-1.84901,-4.20232 -4.28636,-8.06844 -7.14393,-11.59838l0.08405,-0.16809c2.01711,1.2607 3.78208,2.85757 5.21087,4.79063c1.42879,1.93307 2.60543,4.03422 3.52995,6.21942c1.84901,4.45445 2.77353,9.16104 2.60543,13.78358z" id="Path" fill="#000000"/></g></g></g></svg>