<svg version="1.1" xmlns="http://www.w3.org/2000/svg" xmlns:xlink="http://www.w3.org/1999/xlink" width="201.64337" height="237.47302" viewBox="0,0,201.64337,237.47302"><g transform="translate(-135.47011,-62.86157)"><g data-paper-data="{&quot;isPaintingLayer&quot;:true}" fill="none" fill-rule="none" stroke="none" stroke-width="none" stroke-linecap="none" stroke-linejoin="none" stroke-miterlimit="10" stroke-dasharray="" stroke-dashoffset="0" font-family="none" font-weight="none" font-size="none" text-anchor="none" style="mix-blend-mode: normal"><path d="M275.4,251.93333c13.6,-0.4 24.2,3.1 24.9,5.8c0.8,3.4 -10.9,6.8 -24.5,7.2c-13.6,0.4 -24.8,-2.2 -24.9,-5.8c-0.1,-3.6 10.9,-6.8 24.5,-7.2z" data-paper-data="{&quot;origPos&quot;:null}" id="Path" fill="#932d3a" fill-rule="evenodd" stroke="#000000" stroke-width="1" stroke-linecap="round" stroke-linejoin="round"/><g id="Hand_R" fill-rule="evenodd" stroke-linejoin="miter"><g id="Group"><path d="M288.6,210.63333c4,2 12.5,5.8 15.2,9.7c1.9,2.8 2,7.4 -1.5,9.2c-6.3,3.4 -15.4,-3.6 -21.9,-3.9c-1.5,0 -2.9,0.1 -4.3,0.4c-5.4,1.7 -11.2,-0.8 -13.7,-5.9c-2.2,-4.6 -1.7,-11 2.9,-14.2c3.9,-2.7 8.5,-1.4 12.5,0c3.7,1.4 7.3,2.9 10.8,4.7z" data-paper-data="{&quot;origPos&quot;:null}" id="Path" fill="#ae694f" stroke="none" stroke-width="1" stroke-linecap="butt"/><path d="M266,224.63333c-8.3,-5.9 -5,-20 3.3,-19.8c9.1,0.2 14.3,3.8 14.3,3.8c1,3.5 -1.5,16.2 -2.9,16.8c-3.5,-0.8 -9,3.1 -14.7,-0.8z" data-paper-data="{&quot;origPos&quot;:null}" id="Path" fill="#ddeff1" stroke="none" stroke-width="1" stroke-linecap="butt"/><path d="M276.9,205.93333c0,9.8 -4.8,13.8 -13.9,14.4" data-paper-data="{&quot;origPos&quot;:null}" id="Path" fill="none" stroke="#94b2be" stroke-width="0.73" stroke-linecap="butt"/><path d="M279.7,206.93333c0.1,8.2 -2.5,14.2 -13.8,17.3" data-paper-data="{&quot;origPos&quot;:null}" id="Path" fill="none" stroke="#94b2be" stroke-width="0.73" stroke-linecap="butt"/><path d="M282.5,208.23333c0.6,8.1 -3.7,17 -10.4,17.8" data-paper-data="{&quot;origPos&quot;:null}" id="Path" fill="none" stroke="#94b2be" stroke-width="0.73" stroke-linecap="butt"/><path d="M288.6,210.63333c4,2 12.5,5.8 15.2,9.7c1.9,2.8 2,7.4 -1.5,9.2c-6.3,3.4 -15.4,-3.6 -21.9,-3.9c-1.5,0 -2.9,0.1 -4.3,0.4c-5.4,1.7 -11.2,-0.8 -13.7,-5.9c-2.2,-4.6 -1.7,-11 2.9,-14.2c3.9,-2.7 8.5,-1.4 12.5,0c3.7,1.4 7.3,2.9 10.8,4.7z" data-paper-data="{&quot;origPos&quot;:null}" id="Path" fill="none" stroke="#000000" stroke-width="1.22" stroke-linecap="round"/><path d="M283.2,208.33333c1.7,4.6 -0.1,12.8 -2.4,17.1" data-paper-data="{&quot;origPos&quot;:null}" id="Path" fill="none" stroke="#000000" stroke-width="1.22" stroke-linecap="round"/></g><g id="Group" stroke="none" stroke-width="1" stroke-linecap="butt"><path d="M292.7,218.73333c1.6,-5.2 8.2,-19.1 10.4,-22.7c2.4,-3.9 12.5,1.1 10.9,8.1c-1.3,5.6 -5.2,15.1 -7.9,20.6c-0.5,1.4 -1.6,2.5 -3,3.1c-3.6,0.9 -12.1,-3.5 -10.4,-9.1z" data-paper-data="{&quot;origPos&quot;:null}" id="Path" fill="#ae694f"/><path d="M292.5,218.63333c0.8,-2.8 1.8,-5.5 3,-8.2c1.1,-2.6 2.4,-5.3 3.6,-7.9c0.6,-1.3 1.3,-2.6 1.9,-3.9l1,-1.9c0.2,-0.3 0.4,-0.6 0.5,-1c0.2,-0.4 0.5,-0.7 0.9,-1c0.7,-0.5 1.5,-0.8 2.4,-0.8c0.8,0 1.6,0.1 2.3,0.4c1.5,0.5 2.8,1.3 3.9,2.3c1.2,1 2,2.4 2.5,3.9c0.2,0.8 0.3,1.5 0.3,2.3c-0.1,0.8 -0.2,1.5 -0.4,2.2c-0.7,2.8 -1.6,5.6 -2.6,8.3c-1,2.7 -2.1,5.4 -3.3,8c-0.6,1.3 -1.3,2.6 -2,3.9c-0.4,0.6 -0.8,1.3 -1.2,1.9c-0.4,0.7 -1.1,1.2 -1.9,1.4c-0.1,0 -0.2,-0.1 -0.3,-0.2c0,-0.1 0,-0.1 0.1,-0.2c0.9,-1 1.8,-2.1 2.4,-3.3c0.7,-1.2 1.3,-2.5 1.9,-3.8c1.2,-2.6 2.2,-5.3 3.2,-8c1,-2.7 1.8,-5.4 2.5,-8.2c0.2,-0.7 0.3,-1.3 0.4,-2c0,-0.7 -0.1,-1.3 -0.2,-1.9c-0.4,-1.3 -1.2,-2.4 -2.1,-3.3c-1,-0.9 -2.2,-1.6 -3.5,-2c-1.2,-0.5 -2.5,-0.4 -3.6,0.2c-0.2,0.2 -0.4,0.4 -0.6,0.6c-0.2,0.3 -0.4,0.6 -0.5,0.9l-1,1.9l-2,3.8c-2.6,5.1 -5,10.4 -7.1,15.7c0,0.1 -0.2,0.2 -0.3,0.1c-0.2,0 -0.2,-0.1 -0.2,-0.2z" data-paper-data="{&quot;origPos&quot;:null}" id="Path" fill="#000000"/></g><g id="Group" stroke="none" stroke-width="1" stroke-linecap="butt"><path d="M331.4,204.73333c-2.5,1 -18.8,4.3 -22.2,1.2c0,0 -5.2,-5.9 -5.6,-8.2c-0.4,-2.3 -0.9,-4.7 -0.7,-6.1c0.5,-2.7 3.6,-6.7 5.2,-9.1c0.7,-1.2 1.7,-2.2 2.9,-2.9c1.1,-0.7 2.5,-0.4 3.3,0.6c0.4,0.6 0.5,1.3 0.4,2c-0.2,2.5 -1.9,4.8 -3,7.2l0.1,0.1c7,-1 19.8,-7 24,-2.3c0.1,0.1 0.2,0.2 0.2,0.3c0.6,1.1 0.2,2.5 -0.9,3.1l-0.1,0.2c0.9,0.4 1.6,1.1 1.8,2.1c0.3,1.5 -0.7,3 -2.2,3.3l-0.2,-0.1c0.4,0.5 0.6,1.2 0.6,1.9c-0.1,1.5 -1.3,2.6 -2.8,2.5l-1.6,-0.7l-0.1,0.2c0.3,0.1 0.7,0.2 1,0.4c1.8,0.8 3.1,3.3 -0.1,4.3z" data-paper-data="{&quot;origPos&quot;:null}" id="Path" fill="#ae694f"/><path d="M335.2,195.53333c-0.1,0.1 -0.3,0.1 -0.5,0.2c0.2,0.3 0.3,0.7 0.4,1.1c0.1,0.9 -0.3,1.8 -0.9,2.4c-0.4,0.4 -1,0.7 -1.6,0.8c0.1,0.1 0.3,0.2 0.4,0.4c0.3,0.3 0.5,0.8 0.6,1.2c0.1,0.5 0,1 -0.2,1.4c-0.5,0.7 -1.2,1.2 -2,1.5c-0.8,0.3 -1.5,0.5 -2.3,0.6c-3,0.6 -6.1,1 -9.1,1.3c-1.5,0.1 -3.1,0.2 -4.6,0.3c-1.5,0.1 -3.1,0 -4.6,-0.2c-0.2,0 -0.3,-0.1 -0.3,-0.3c0,-0.2 0.1,-0.3 0.3,-0.3c1.5,0.2 3,0.2 4.5,0.1c1.5,-0.1 3,-0.2 4.5,-0.4c3,-0.4 6,-0.8 9,-1.4c0.7,-0.1 1.4,-0.3 2.1,-0.5c0.7,-0.1 1.2,-0.5 1.6,-1.1c0.2,-0.5 0.1,-1.2 -0.3,-1.6c-0.5,-0.5 -1,-0.9 -1.7,-1.1c-1.5,-0.4 -2.9,-0.6 -4.4,-0.6c-0.7,0 -1.5,0 -2.2,0.1c-0.8,0.1 -1.5,0.1 -2.3,0.1c0.7,-0.5 1.4,-0.8 2.2,-0.9c0.8,-0.1 1.6,-0.2 2.4,-0.2c1.6,0 3.2,0.2 4.7,0.7c0.4,0.1 0.7,0.3 1,0.5c0.7,0 1.3,-0.3 1.8,-0.8c0.4,-0.5 0.7,-1.1 0.6,-1.8c-0.1,-0.7 -0.5,-1.3 -1.1,-1.6c-0.6,-0.3 -1.3,-0.5 -2,-0.6c-1.5,-0.2 -3,-0.1 -4.5,0.1c-0.8,0.1 -1.5,0.3 -2.2,0.5c-0.4,0.1 -0.7,0.2 -1.1,0.3c-0.4,0.2 -0.8,0.2 -1.2,0.1c0.2,-0.4 0.5,-0.7 0.9,-0.9c0.3,-0.1 0.7,-0.3 1.1,-0.4c0.7,-0.2 1.5,-0.4 2.3,-0.5c1.5,-0.2 3.1,-0.2 4.7,0c0.8,0.1 1.6,0.4 2.3,0.8c0.2,0.2 0.4,0.4 0.6,0.6c0.3,0 0.6,-0.2 0.9,-0.4c0.3,-0.2 0.5,-0.5 0.7,-0.9c0.3,-0.7 0.3,-1.5 -0.1,-2.2c-0.5,-0.7 -1.1,-1.1 -1.9,-1.3c-0.8,-0.2 -1.7,-0.3 -2.5,-0.3c-2.6,-0.1 -5.1,0.3 -7.6,1.1c-0.4,0.2 -0.8,0.3 -1.2,0.4c-0.5,0.1 -0.9,0.1 -1.4,0.1c0.2,-0.4 0.6,-0.7 1,-0.9c0.3,-0.2 0.8,-0.4 1.2,-0.5c0.8,-0.2 1.7,-0.4 2.6,-0.6c1.8,-0.3 3.6,-0.5 5.4,-0.4c0.9,0 1.8,0.1 2.7,0.4c0.2,0.1 0.3,0.1 0.5,0.2c1,-0.5 1.3,-1.7 0.8,-2.7c-0.8,-0.9 -1.8,-1.4 -3,-1.6c-2.4,-0.3 -4.9,-0.1 -7.2,0.5c-2.4,0.5 -4.7,1.2 -7.1,1.9c-1.2,0.3 -2.4,0.7 -3.6,1c-0.6,0.1 -1.2,0.2 -1.8,0.3c-0.6,0.1 -1.3,0.1 -1.9,-0.1c0.2,-0.1 0.3,-0.1 0.5,-0.2c0,-0.1 0,-0.1 0,-0.1c0.6,-1.4 1.3,-2.6 1.9,-3.9c0.6,-1.2 0.9,-2.6 0.9,-4c0,-0.6 -0.3,-1.2 -0.8,-1.5c-0.6,-0.2 -1.2,-0.3 -1.8,-0.1c-1.3,0.5 -2.3,1.4 -3,2.6c-1.7,2.3 -3.2,4.7 -4.6,7.2c-0.3,0.6 -0.5,1.2 -0.7,1.9c-0.1,0.7 -0.2,1.4 -0.2,2.1c0,0.7 0,1.4 0.1,2.1l0.4,2.1c-0.6,-0.5 -1,-1.1 -1.2,-1.9c-0.2,-0.7 -0.2,-1.4 -0.2,-2.2c0.1,-0.7 0.1,-1.5 0.3,-2.2c0.2,-0.7 0.5,-1.4 0.8,-2.1c1.5,-2.5 3.1,-5 4.8,-7.3c0.8,-1.3 2.1,-2.3 3.5,-2.9c0.8,-0.3 1.7,-0.2 2.4,0.2c0.7,0.5 1.2,1.2 1.2,2.1c0,1.6 -0.4,3.1 -1.1,4.4c-0.5,1.1 -1.1,2.2 -1.7,3.3c0.2,0 0.3,-0.1 0.5,-0.1c0.6,-0.2 1.2,-0.4 1.8,-0.5c1.2,-0.2 2.4,-0.6 3.6,-0.9c2.4,-0.6 4.8,-1.3 7.2,-1.8c2.4,-0.6 5,-0.7 7.5,-0.4c1.3,0.2 2.5,0.9 3.4,1.9c0.4,0.6 0.5,1.4 0.3,2.1c-0.2,0.6 -0.6,1 -1,1.4c0.5,0.3 1,0.7 1.3,1.2c0.9,1.5 0.3,3.4 -1.5,3.6z" data-paper-data="{&quot;origPos&quot;:null}" id="Path" fill="#030305"/></g></g><g id="Leg_R"><g id="Group" fill-rule="evenodd"><path d="M265.6,290.03333c-0.1,-6.5 0.3,-22 0.3,-21.8c-5.2,-13.2 8.6,-15.2 12.3,-12.5c2.4,1.8 6.5,20.6 7.9,31.7c0.3,1.9 5.93333,1.26667 6.73333,7.1c0.3,5.6 -28.63333,1.5 -27.23333,-4.5z" data-paper-data="{&quot;origPos&quot;:null}" id="Path" fill="#ae694f" stroke="#000000" stroke-width="1" stroke-linecap="butt" stroke-linejoin="miter"/><path d="M282.6,269.03333c-5.2,2.1 -10.8,2.7 -16.3,1.7l-0.3,-2.4c0,0 -2.3,-7.1 -0.2,-9.7c2.1,-2.6 11.1,-7.2 13.9,-0.4c2.8,6.8 2.9,10.8 2.9,10.8z" data-paper-data="{&quot;origPos&quot;:null}" id="Path" fill="#343039" stroke="none" stroke-width="1" stroke-linecap="butt" stroke-linejoin="miter"/><path d="M282.6,269.03333c-5.2,2.1 -10.8,2.7 -16.3,1.7" data-paper-data="{&quot;origPos&quot;:null}" id="Path" fill="none" stroke="#000000" stroke-width="1.22" stroke-linecap="round" stroke-linejoin="round"/></g><path d="M291.7,296.63333c-5.1,3.2 -19.4,-0.3 -25,-3.6c-1.6,-1 -2,-3.8 -1.2,-5.6c-0.7,1.4 10.2,4.2 11.3,4.4c1.9,0.3 2.3,-0.8 3.8,-1.9c1.5,-1.1 3.3,-1.8 5.2,-1.8c4,0.1 11,5.2 5.9,8.5zM287.5,290.13333c-0.9,-0.2 -4.8,1.1 -5.4,1.9c-1.5,2 3.6,1.3 4.1,1c2.2,-1.4 1.9,-2.7 1.3,-2.9z" id="Shape" fill="#efdb84" fill-rule="nonzero" stroke="#000000" stroke-width="1" stroke-linecap="round" stroke-linejoin="round"/></g><g id="Leg_L"><g id="Group" fill-rule="evenodd"><path d="M236.3,292.03333c1.2,-8.9 7.4,-34 10.3,-36.3c4,-3.3 19.2,-2.5 12.3,13.4c0,-0.2 -0.7,13.3 -1.3,20.8c-0.1,1 -0.5,2 -0.8,2.6c-0.3,0.9 -1.6,2.9 -5.8,4.6c-7.6,3.1 -23.5,3.2 -14.7,-5.1z" data-paper-data="{&quot;origPos&quot;:null}" id="Path" fill="#ae694f" stroke="#000000" stroke-width="1" stroke-linecap="butt" stroke-linejoin="miter"/><path d="M245.2,258.13333c2.3,-7.1 13.1,-3.5 15,-0.7c1.9,2.8 -1.4,11.9 -1.4,11.9l-0.5,2.4c-5.8,0.6 -10.9,-0.2 -16.2,-2.7c0,0 1.1,-4.9 3.1,-10.9z" data-paper-data="{&quot;origPos&quot;:null}" id="Path" fill="#343039" stroke="none" stroke-width="1" stroke-linecap="butt" stroke-linejoin="miter"/><path d="M258.3,271.73333c-5.8,0.6 -10.9,-0.2 -16.2,-2.7" data-paper-data="{&quot;origPos&quot;:null}" id="Path" fill="none" stroke="#000000" stroke-width="1.22" stroke-linecap="round" stroke-linejoin="round"/></g><path d="M252.9,296.63333c-2,1 -11.4,4 -18,3c-4.2,-0.7 -2.7,-5.6 -0.3,-6.9c4.36667,-3.15556 9.9,0 10.7,2.1c4.5,-0.8 8.7,-1.8 12.2,-4.7c0.5,3.9 -2.6,5.5 -4.6,6.5zM241.7,295.13333c-0.7,-0.8 -2.4,-2.1 -3.7,-2c-1,0.1 -2.9,0.9 -2.1,2.1c0.4,0.6 1.7,0.8 2.4,0.8c1.2,0 3.7,-0.7 3.4,-0.9z" id="Shape" fill="#efdb84" fill-rule="nonzero" stroke="#000000" stroke-width="1" stroke-linecap="butt" stroke-linejoin="miter"/></g><g id="Group" fill-rule="evenodd" stroke="none" stroke-width="1" stroke-linecap="butt" stroke-linejoin="miter"><path d="M270.4,267.13333c-3.7,1 -7.5,1.7 -11.3,2.1c0,0 -9,0.8 -12.9,-3.1c-2.5,-2.5 -1.2,-9.3 2.1,-15.5c3.8,-7.2 30.1,-12.9 32.1,12.5c0.2,2.7 -10,4 -10,4z" data-paper-data="{&quot;origPos&quot;:null}" id="Path" fill="#343039"/><path d="M270.4,267.13333c-0.1,0.3 -0.3,0.6 -0.6,0.7c-0.2,0.1 -0.5,0.2 -0.8,0.3c-0.5,0.1 -1,0.2 -1.5,0.3c-1,0.2 -2.1,0.3 -3.1,0.4c-2,0.2 -4.1,0.4 -6.1,0.5c-0.2,0 -0.4,-0.1 -0.4,-0.3c0,-0.2 0.1,-0.4 0.3,-0.4c2,-0.3 4.1,-0.6 6.1,-0.9c1,-0.1 2,-0.3 3,-0.5l1.5,-0.3c0.2,-0.1 0.5,-0.1 0.7,-0.1c0.4,0 0.7,0.1 0.9,0.3z" data-paper-data="{&quot;origPos&quot;:null}" id="Path" fill="#000000"/></g><g id="Group" fill-rule="evenodd"><g id="Path" stroke-linecap="butt" stroke-linejoin="miter"><path d="M278.8,220.03333c-0.2,2.4 2.3,12.7 0.5,26.6c-0.5,3.6 -31,4.6 -33.9,-0.7c-3.8,-7 -2.2,-35.8 -0.3,-39.3c2.5,-4.8 16.1,-4.9 25.1,-1.9c3.4,0.7 9,11.4 8.6,15.3z" data-paper-data="{&quot;origPos&quot;:null}" fill="#ddeff1" stroke="none" stroke-width="1"/><path d="M276.3,211.43333c-1.5,1 -28.1,1.4 -31.7,0.4" data-paper-data="{&quot;origPos&quot;:null}" fill="none" stroke="#94b2be" stroke-width="0.73"/><path d="M278.3,215.83333c-6.6,2.7 -31.1,1.9 -34.9,0.6" data-paper-data="{&quot;origPos&quot;:null}" fill="none" stroke="#94b2be" stroke-width="0.73"/><path d="M279.1,220.53333c-6.6,2.7 -32.1,1.9 -35.9,0.6" data-paper-data="{&quot;origPos&quot;:null}" fill="none" stroke="#94b2be" stroke-width="0.73"/><path d="M279.3,225.73333c-6.6,2.7 -31.6,1.9 -35.4,0.6" data-paper-data="{&quot;origPos&quot;:null}" fill="none" stroke="#94b2be" stroke-width="0.73"/><path d="M279.6,230.33333c-6.6,2.7 -32.1,1.9 -35.9,0.6" data-paper-data="{&quot;origPos&quot;:null}" fill="none" stroke="#94b2be" stroke-width="0.73"/><path d="M280.4,241.53333c-0.1,1.4 -0.2,2.8 -0.4,4.2l-0.1,1.1v0.1c0,0 -0.1,0.1 -0.1,0.2c0,0.1 -0.1,0.3 -0.2,0.4c-0.1,0.2 -0.3,0.4 -0.5,0.5c-0.6,0.4 -1.3,0.7 -2.1,0.9c-2.8,0.6 -5.6,1.1 -8.5,1.2c-2.8,0.2 -5.7,0.2 -8.5,0.1c-2.8,-0.1 -5.7,-0.4 -8.5,-0.9c-1.4,-0.2 -2.9,-0.6 -4.2,-1.2c-0.7,-0.3 -1.4,-0.7 -2,-1.3c-0.2,-0.1 -0.3,-0.3 -0.4,-0.5c-0.1,-0.2 -0.2,-0.3 -0.3,-0.5c-0.1,-0.3 -0.3,-0.6 -0.4,-1c-0.8,-2.8 -1.2,-5.6 -1.4,-8.5c-0.2,-2.8 -0.3,-5.7 -0.3,-8.5c0,-5.7 0.3,-11.4 1,-17c0.2,-0.7 0.3,-1.4 0.4,-2.1c0.1,-0.8 0.3,-1.5 0.6,-2.2c0.3,-0.7 0.9,-1.4 1.6,-1.8c0.6,-0.4 1.3,-0.7 2,-1c2.7,-0.9 5.6,-1.4 8.5,-1.4c2.8,-0.1 5.7,0 8.5,0.4c1.4,0.2 2.8,0.5 4.2,0.8c1.5,0.3 3,0.5 4,1.8c-1.6,0.2 -2.8,-0.4 -4.2,-0.7c-1.3,-0.3 -2.7,-0.5 -4.1,-0.7c-2.7,-0.4 -5.5,-0.6 -8.3,-0.5c-2.7,0 -5.5,0.5 -8.1,1.3c-1.2,0.4 -2.3,1.1 -3,2.2c-0.2,0.6 -0.4,1.3 -0.5,1.9c-0.1,0.6 -0.2,1.3 -0.3,2c-0.7,5.6 -1,11.2 -1,16.8c0,2.8 0.1,5.6 0.3,8.4c0.2,2.8 0.6,5.5 1.4,8.2c0.1,0.3 0.3,0.6 0.4,0.9c0.1,0.1 0.1,0.3 0.2,0.4c0,0.1 0.1,0.2 0.2,0.3c0.4,0.4 0.9,0.8 1.5,1c1.2,0.5 2.6,0.9 3.9,1.1c2.7,0.5 5.5,0.7 8.3,0.8c2.8,0.1 5.6,0 8.4,-0.1c2.7,-0.1 5.5,-0.5 8.2,-1.2c0.7,-0.1 1.3,-0.4 1.8,-0.7c0.1,0 0.1,-0.1 0.2,-0.2v-0.1v-0.1l0.1,-1c0.2,-1.4 0.3,-2.8 0.4,-4.2c0.2,-2.8 0.3,-5.6 0.2,-8.4c-0.1,-2.8 -0.3,-5.6 -0.6,-8.4c-0.1,-1.3 -0.3,-2.7 -0.6,-4.1l-0.4,-2c-0.1,-0.3 -0.1,-0.7 -0.2,-1c-0.1,-0.4 -0.1,-0.7 0,-1.1c0.4,0.1 0.7,0.4 0.9,0.8c0.1,0.3 0.3,0.7 0.4,1c0.2,0.7 0.4,1.4 0.5,2.1c0.2,1.4 0.4,2.8 0.6,4.2c0.4,2.8 0.5,5.7 0.6,8.5c0.1,2.9 0,5.7 -0.1,8.8z" data-paper-data="{&quot;origPos&quot;:null}" fill="#000000" stroke="none" stroke-width="1"/></g><g id="Collar" fill="#ddeff1" stroke="#000000" stroke-width="1" stroke-linecap="round" stroke-linejoin="round"><path d="M265.9,212.43333c-2.9,1.3 -5.1,-6.9 -5.1,-6.9c0,0 -0.1,6.4 -3.3,6.9c-6,0.9 -5.7,-9.2 -5.7,-9.2c3.7,3.6 13.5,2.5 14.8,0.4c0.4,1.7 3.5,7.1 -0.7,8.8z" data-paper-data="{&quot;origPos&quot;:null}" id="Path"/></g></g><g id="Hand_L" stroke-linejoin="miter"><path d="M224.8,242.73333c-2.1,5.5 -8.3,7.4 -11.9,6.6c-2.5,-0.5 -7.5,-2.7 -6,-5.1c0.2,-0.1 -7.7,-1.9 -7.2,-5.5c0.4,-2.4 2.3,-1.9 4.3,-1.8c-1.3,-0.6 -4.3,-2.8 -2,-4.8c0.9,-0.6 2.1,-0.7 3.2,-0.3c-0.2,-0.3 -0.3,-0.5 -0.4,-0.8c-0.2,-0.8 0.3,-1.6 1.1,-1.8c1.2,-0.3 2.5,-0.1 3.6,0.5c0.2,-1 1,-1.6 2,-1.5c2.4,0.5 5.4,3.8 5.4,3.8c0,0 1.7,0.5 5,1.9c3.9,1.6 4,6 2.9,8.8z" data-paper-data="{&quot;origPos&quot;:null}" id="Path" fill="#ae694f" fill-rule="evenodd" stroke="none" stroke-width="1" stroke-linecap="butt"/><path d="M224.1,244.33333c-1,1.7 -2.5,3.2 -4.3,4.1c-1.8,0.9 -3.8,1.4 -5.8,1.4c-1,-0.1 -2,-0.3 -3,-0.6c-0.9,-0.3 -1.9,-0.8 -2.7,-1.3c-0.5,-0.3 -0.9,-0.6 -1.2,-1c-0.4,-0.5 -0.7,-1 -0.7,-1.6c0,-0.3 0.1,-0.6 0.2,-0.9c-0.8,-0.2 -1.7,-0.4 -2.5,-0.8c-1,-0.4 -1.9,-1 -2.8,-1.6c-1,-0.6 -1.7,-1.5 -2.2,-2.5c-0.3,-0.6 -0.3,-1.2 -0.2,-1.8c0.1,-0.3 0.2,-0.6 0.4,-0.9c0.2,-0.2 0.5,-0.5 0.8,-0.6c0.5,-0.2 1,-0.3 1.5,-0.3c-0.1,0 -0.1,0 -0.1,0c-0.6,-0.4 -1,-1.1 -1.2,-1.9c-0.1,-0.8 0.3,-1.7 0.9,-2.2c0.6,-0.6 1.4,-0.9 2.2,-0.8c0.2,0 0.5,0.1 0.7,0.1c0,-0.1 -0.1,-0.2 -0.1,-0.3c-0.1,-0.3 0,-0.7 0.1,-1c0.1,-0.3 0.3,-0.5 0.6,-0.7c0.5,-0.4 1.1,-0.6 1.7,-0.6c0.6,0 1.2,0 1.7,0.2c0.3,0.1 0.5,0.2 0.8,0.3c0.2,-0.7 0.9,-1.3 1.7,-1.4c0.2,0 0.5,0 0.7,0c0.2,0.1 0.4,0.1 0.6,0.2c0.4,0.1 0.8,0.3 1.2,0.5c0.7,0.4 1.4,0.9 2,1.4c0.6,0.5 1.2,1.1 1.8,1.7h-0.2c1.8,0.7 3.6,1.4 5.4,2.2c1,0.4 1.8,1.1 2.4,2c0.6,0.9 0.9,1.9 1,2.9c0.2,2 -0.3,4.1 -1.4,5.8zM224.6,238.63333c-0.1,-1.8 -1.2,-3.4 -2.8,-4.2c-1.7,-0.7 -3.5,-1.4 -5.3,-2.1h-0.1l-0.1,-0.1c-1,-1.2 -2.2,-2.2 -3.5,-3c-0.3,-0.2 -0.7,-0.4 -1,-0.5c-0.2,-0.1 -0.3,-0.2 -0.5,-0.2c-0.2,-0.1 -0.3,-0.1 -0.5,-0.1c-0.6,0 -1,0.4 -1.2,0.9c0.6,0.3 1.1,0.6 1.6,0.9c0.4,0.3 0.9,0.6 1.3,0.9c0.2,0.2 0.4,0.4 0.6,0.6c0.2,0.2 0.3,0.5 0.3,0.8c-0.3,0 -0.6,0 -0.9,-0.2c-0.2,-0.1 -0.4,-0.2 -0.6,-0.4c-0.4,-0.3 -0.8,-0.6 -1.2,-0.9c-0.8,-0.6 -1.7,-1.1 -2.6,-1.4c-0.9,-0.3 -1.9,-0.3 -2.7,0.2c-0.4,0.2 -0.6,0.6 -0.5,1c0,0.2 0.1,0.4 0.2,0.6c0.9,0.2 1.8,0.5 2.7,0.9c0.6,0.3 1.3,0.7 1.9,1c0.3,0.2 0.6,0.4 0.9,0.6c0.3,0.2 0.6,0.5 0.7,0.9c-0.4,0 -0.8,0 -1.1,-0.2c-0.4,-0.2 -0.7,-0.3 -1,-0.5c-0.6,-0.3 -5.6,-3.1 -7.4,-1.6c-0.5,0.3 -0.8,0.9 -0.7,1.5c0.3,0.9 0.9,1.6 1.6,2.1c0.3,0 0.6,0 0.9,0.1c1,0.2 2.1,0.4 3.1,0.7c2.1,0.5 4,1.2 5.9,2.2c-1.1,0.1 -2.2,0 -3.2,-0.4l-3,-0.9c-1,-0.3 -1.9,-0.5 -2.9,-0.7c0,-0.1 -0.1,-0.1 -0.1,-0.1c-0.9,-0.2 -1.9,-0.2 -2.8,0.1c-0.4,0.2 -0.6,0.5 -0.7,0.9c-0.1,0.4 -0.1,0.9 0.1,1.3c0.4,0.9 1,1.6 1.8,2.2c1.6,1.1 3.3,2 5.2,2.4c0,-0.1 0.1,-0.2 0.1,-0.2c0.4,-0.4 0.9,-0.7 1.5,-0.8c1,-0.2 2,-0.2 3,0.1c1,0.1 2,0.6 2.8,1.2c-0.9,-0.1 -1.9,-0.3 -2.8,-0.5c-0.9,-0.2 -1.8,-0.3 -2.7,-0.1c-0.4,0.1 -0.7,0.3 -1,0.6c-0.2,0.3 -0.4,0.6 -0.4,1c0,0.7 0.7,1.4 1.5,1.9c0.8,0.5 1.6,0.9 2.5,1.2c0.9,0.3 1.8,0.5 2.7,0.5c1.9,0.1 3.7,-0.4 5.3,-1.3c1.6,-0.8 3,-2.1 3.9,-3.7c0.9,-1.5 1.3,-3.4 1.2,-5.2z" id="Shape" fill="#030305" fill-rule="nonzero" stroke="none" stroke-width="1" stroke-linecap="butt"/><g id="Group" fill-rule="evenodd"><g id="Path" stroke="none" stroke-width="1" stroke-linecap="butt"><path d="M244.4,223.73333c-4.7,5.6 -16.7,16.1 -20.4,19.4c-1.9,1.8 -11.7,-6.1 -8.2,-10.2c4.1,-4.8 8.8,-12 13.4,-17.1c6.8,-7.7 11.6,-12.2 16.1,-11.6c0,-0.1 5.2,12.2 -0.9,19.5z" data-paper-data="{&quot;origPos&quot;:null}" fill="#ae694f"/><path d="M247.5,203.23333c7,1.2 2,4.2 1.3,9c-0.3,2.1 0.3,8 -2.4,10.2c-0.9,0.9 -1.9,1.6 -2.9,2.3c-4.8,-2.6 -10.2,-9.2 -10.8,-12.6c-0.2,-0.8 8.7,-9.8 14.8,-8.9z" data-paper-data="{&quot;origPos&quot;:null}" fill="#ddeff1"/></g><path d="M240.3,205.73333c1.6,-0.8 7.6,4.1 8.7,6.6" data-paper-data="{&quot;origPos&quot;:null}" id="Path" fill="none" stroke="#94b2be" stroke-width="0.73" stroke-linecap="round"/><path d="M248.5,217.23333c-5,-4.8 -9.5,-8.8 -10.8,-10.2" data-paper-data="{&quot;origPos&quot;:null}" id="Path" fill="none" stroke="#94b2be" stroke-width="0.73" stroke-linecap="round"/><path d="M247,221.73333c-4.5,-2.9 -10.6,-8.7 -11.9,-12.3" data-paper-data="{&quot;origPos&quot;:null}" id="Path" fill="none" stroke="#94b2be" stroke-width="0.73" stroke-linecap="round"/><g id="Path" stroke-linecap="butt"><path d="M215.3,233.83333c0.4,-0.9 0.9,-1.8 1.5,-2.7l1.9,-2.4c1.2,-1.6 2.5,-3.3 3.7,-4.9c2.4,-3.3 4.9,-6.6 7.4,-9.8c2.5,-3.3 5.5,-6.2 9,-8.5c1.8,-1.2 3.7,-2 5.8,-2.4c1,-0.2 2.1,-0.2 3.2,-0.1c1.1,0 2.2,0.4 2.9,1.2c-1,0.1 -2,0 -3,-0.2c-1,-0.1 -2,0 -2.9,0.1c-2,0.4 -3.8,1.1 -5.5,2.2c-3.4,2.2 -6.3,5 -8.8,8.3c-2.5,3.2 -5,6.5 -7.4,9.7l-3.7,4.9c-0.6,0.8 -1.2,1.6 -1.9,2.4c-0.6,0.9 -1.3,1.6 -2.2,2.2z" data-paper-data="{&quot;origPos&quot;:null}" fill="#030305" stroke="none" stroke-width="1"/><path d="M246.5,222.33333c-0.3,0.6 -0.7,1.2 -1.2,1.6c-0.4,0.5 -0.9,0.9 -1.4,1.4l-2.9,2.7l-5.7,5.4l-5.8,5.4c-1,0.9 -1.9,1.8 -2.9,2.7l-1.5,1.3c-0.5,0.5 -1.1,0.9 -1.7,1.2c-0.1,0.1 -0.3,0 -0.4,-0.1c-0.1,-0.1 0,-0.3 0.1,-0.4h0.1c0.5,-0.3 1,-0.7 1.5,-1.1c0.5,-0.4 1,-0.9 1.5,-1.3c1,-0.9 1.9,-1.8 2.9,-2.7l5.7,-5.5l5.7,-5.5l2.9,-2.7c0.5,-0.5 1,-0.9 1.5,-1.3c0.4,-0.5 1,-0.9 1.6,-1.1z" data-paper-data="{&quot;origPos&quot;:null}" fill="#030305" stroke="none" stroke-width="1"/><path d="M243.4,224.73333c-5.1,-3 -9,-7.6 -11,-13.1" data-paper-data="{&quot;origPos&quot;:null}" fill="none" stroke="#030305" stroke-width="0.98"/></g></g></g><g id="Group" fill-rule="evenodd" stroke-linejoin="miter"><path d="M257.7,205.23333c-1.5,-0.2 -2.9,-0.6 -4.2,-1.4c-0.1,-4.4 -2.1,-9.7 1.6,-12.1c1.1,-0.7 7.6,-0.8 8.4,0.1c1.2,1.3 1.2,9.7 1,12.7c-0.7,0.7 -3.7,0.9 -6.8,0.7z" data-paper-data="{&quot;origPos&quot;:null}" id="Path" fill="#ae694f" stroke="none" stroke-width="1" stroke-linecap="butt"/><path d="M253,204.03333c-0.1,-4.3 -0.8,-11 2.1,-12.3c1,-0.7 7.6,-0.8 8.4,0.1c1.2,1.4 1.3,9.9 1.2,12.8c0,0 -4.7,2.5 -11.7,-0.6z" data-paper-data="{&quot;origPos&quot;:null}" id="Path" fill="none" stroke="#000000" stroke-width="1.22" stroke-linecap="round"/></g><g id="Group" fill-rule="evenodd"><g id="Path"><path d="M245.9,140.43333c6.1,25.9 -12.4,27.6 -12.4,27.6c-4.6,14.2 -25.2,6.7 -25.2,6.7c-2.4,4.3 -19.5,13.9 -19.3,2.3c-2.6,2.3 -18.8,4.3 -15.8,-12.3c-27.5,13.2 -33.4,-10.2 -32.5,-17.4c1.5,-12.3 8.8,-15.1 16.1,-19.2c-0.5,0.3 -22.2,-1.5 -20.5,-23c1,-11.7 16.2,-24.8 28.6,-15.5l0.1,-0.2c0.4,-23.5 19.7,-30.2 30.6,-23.5c3.8,2.3 8.6,10.5 8.6,10.5c2,-3.5 11.9,-13.5 23.1,-11.4c19.3,3.6 15.2,33 15.2,33c25.3,-2.3 23.1,42.8 3.4,42.4z" data-paper-data="{&quot;origPos&quot;:null}" fill="#351f13" stroke="none" stroke-width="1" stroke-linecap="butt" stroke-linejoin="miter"/><path d="M257.3,133.33333c-2.5,4.3 -6.4,7.1 -11.4,7c6.1,25.9 -12.4,27.6 -12.4,27.6c-4.6,14.2 -25.2,6.7 -25.2,6.7c-2.4,4.3 -19.5,13.9 -19.3,2.3c-2.6,2.3 -18.8,4.3 -15.8,-12.3c-27.5,13.2 -33.4,-10.2 -32.5,-17.4c1.5,-12.2 8.8,-15.1 16.1,-19.2c-0.3,0.1 -8.6,0.7 -7.6,-7.6c1.6,-12.4 13.1,-23.2 24.8,-13.8c0,-0.1 0.1,-0.1 0.1,-0.2c-0.4,-26.2 24.2,-30.5 32.5,-14.7c1.9,-3.5 10.5,-10.1 21.1,-8c18.2,3.5 11.6,39 11.6,39c8.7,-0.9 14.8,4.1 18,10.6z" data-paper-data="{&quot;origPos&quot;:null}" fill="#23140c" stroke="none" stroke-width="1" stroke-linecap="butt" stroke-linejoin="miter"/><g fill="none" stroke="#000000" stroke-linecap="round" stroke-linejoin="round"><path d="M204.1,76.53333c2,-3.5 11.9,-13.5 23.1,-11.4c19.3,3.6 15.2,33 15.2,33c25.3,-2.3 23.1,42.8 3.5,42.3c6.1,25.9 -12.4,27.6 -12.4,27.6c-4.6,14.2 -25.2,6.7 -25.2,6.7c-2.4,4.3 -19.5,13.9 -19.3,2.3c-2.6,2.3 -18.8,4.3 -15.8,-12.3c-27.5,13.2 -33.4,-10.2 -32.5,-17.4c1.5,-12.3 8.8,-15.1 16.1,-19.2c-0.5,0.3 -22.2,-1.5 -20.5,-23c1.1,-13 19.9,-27.8 32.7,-11.3" data-paper-data="{&quot;origPos&quot;:null}" stroke-width="1.47"/><path d="M164.9,89.43333c0.4,-23.5 19.8,-30.2 30.7,-23.5c8.1,5 11.4,17.9 10.5,24.7" data-paper-data="{&quot;origPos&quot;:null}" stroke-width="1.22"/></g></g><path d="M199.1,142.03333c-2.6,-1.1 -4.5,-3.3 -5.1,-6c-0.6,-2.6 -0.3,-5.4 0.8,-7.9c-0.3,0.8 -3,-2.6 -3.2,-2.9c-3.8,-6.6 2.8,-15.9 10.4,-14.2c1,-4.7 7.1,-8.3 11.7,-8.1c2.4,0.1 4.9,1.7 5.5,4c1.8,-2 4.7,-2.6 7.4,-2.7c1.7,-0.2 3.5,0.1 5.1,0.8c3.1,1.6 4.2,5.6 3.6,9c-0.6,3.4 -2.7,6.3 -4.7,9.1c-0.4,0.5 -0.7,1 -0.9,1.5c-0.2,0.7 -0.3,1.4 -0.2,2.2c-0.3,8.5 -7.4,15.2 -15.9,15c-0.8,0 -1.6,-0.1 -2.4,-0.3c-2,-0.4 -3.2,-0.8 -5.2,-0.2c-2.6,0.8 -4.5,1.6 -6.9,0.7z" data-paper-data="{&quot;origPos&quot;:null}" id="Path" fill="#902f38" stroke="none" stroke-width="1" stroke-linecap="butt" stroke-linejoin="miter"/><path d="M217.4,107.73333c-1.6,1.6 -3.5,2.7 -5.6,3.5c-2.1,0.7 -4.4,0.6 -6.4,-0.3" data-paper-data="{&quot;origPos&quot;:null}" id="Path" fill="none" stroke="#000000" stroke-width="1.22" stroke-linecap="round" stroke-linejoin="miter"/><path d="M210.6,116.03333c-2.3,3.4 -6.1,5.6 -10.2,6c-1,0.2 -2.1,-0.1 -2.9,-0.8" data-paper-data="{&quot;origPos&quot;:null}" id="Path" fill="none" stroke="#000000" stroke-width="1.22" stroke-linecap="round" stroke-linejoin="miter"/><path d="M203.9,129.03333c-0.7,1.2 -1.7,2.3 -2.7,3.2c-1.1,0.9 -2.6,1.3 -4,1" data-paper-data="{&quot;origPos&quot;:null}" id="Path" fill="none" stroke="#000000" stroke-width="1.22" stroke-linecap="round" stroke-linejoin="miter"/><path d="M199.1,142.03333c-2.6,-1.1 -4.5,-3.3 -5.1,-6c-0.6,-2.6 -0.3,-5.4 0.8,-7.9c-0.3,0.8 -3,-2.6 -3.2,-2.9c-3.8,-6.6 2.8,-15.9 10.4,-14.2c1,-4.7 7.1,-8.3 11.7,-8.1c2.4,0.1 4.9,1.7 5.5,4c1.8,-2 4.7,-2.6 7.4,-2.7c1.7,-0.2 3.5,0.1 5.1,0.8c3.1,1.6 4.2,5.6 3.6,9c-0.6,3.4 -2.7,6.3 -4.7,9.1c-0.4,0.5 -0.7,1 -0.9,1.5c-0.2,0.7 -0.3,1.4 -0.2,2.2c-0.3,8.5 -7.4,15.2 -15.9,15c-0.8,0 -1.6,-0.1 -2.4,-0.3c-2,-0.4 -3.2,-0.8 -5.2,-0.2c-2.6,0.8 -4.5,1.6 -6.9,0.7z" data-paper-data="{&quot;origPos&quot;:null}" id="Path" fill="none" stroke="#000000" stroke-width="1.22" stroke-linecap="round" stroke-linejoin="round"/></g><g id="Group" fill-rule="evenodd" stroke-linejoin="miter"><g id="Head"><g id="Group"><g id="Path"><path d="M253.7,198.23333c-39.6,-4.7 -52.4,-31.3 -52.4,-53c0.1,-35.1 27.4,-51.7 56,-50.5c31.6,1.3 52.1,5.4 49.5,50.3c-0.5,9.5 -1.4,18.9 -2.9,28.3c0,0 6.4,5.8 6.4,11.8c0,7 -2.8,13.6 -14.9,15.1c-12.1,1.5 -24.2,0.8 -33.7,0.1" data-paper-data="{&quot;origPos&quot;:null}" fill="#ae694f" stroke="none" stroke-width="1" stroke-linecap="butt"/><path d="M306.7,129.73333c-1.6,-10.5 -12.8,-16 -21.9,-17.9c-14.2,-3 -30,-0.2 -40.3,10.7c-11,11.6 -11.3,30.8 -10.7,47.8c0,0 -11.3,-24.7 -30,-7.2c0,0 -12.5,-34.4 15.2,-57.2c21.2,-17.4 70.4,-13.3 80.4,1.9c6.7,10 7.3,21.9 7.3,21.9z" data-paper-data="{&quot;origPos&quot;:null}" fill="#351f13" stroke="none" stroke-width="1" stroke-linecap="butt"/><g><path d="M233.8,170.33333c-0.6,-17 -0.3,-36.2 10.7,-47.8c10.3,-10.9 26.1,-13.7 40.3,-10.7c9.1,1.9 20.3,7.4 21.9,17.9" data-paper-data="{&quot;origPos&quot;:null}" fill="none" stroke="#000000" stroke-width="1.22" stroke-linecap="round"/><path d="M239,131.43333l-11.3,0.4l-5.7,0.2l-2.8,0.1c-0.5,0 -1,0 -1.4,0c-0.5,0 -1,-0.2 -1.4,-0.6c0.9,-0.5 1.8,-0.7 2.8,-0.6h2.8l5.7,-0.2l11.3,-0.4c0.3,0 0.6,0.2 0.6,0.6c0,0.2 -0.3,0.5 -0.6,0.5z" data-paper-data="{&quot;origPos&quot;:null}" fill="#000000" stroke="none" stroke-width="1" stroke-linecap="butt"/><path d="M235.3,141.33333l-11.7,0.2h-5.8h-2.9c-0.5,0 -1,0 -1.5,0c-0.5,0 -1.1,-0.3 -1.4,-0.6c0.4,-0.3 0.9,-0.5 1.5,-0.5c0.5,0 1,0 1.4,0h2.9h5.8l11.7,-0.2c0.3,0 0.6,0.3 0.6,0.6c0,0.3 -0.3,0.6 -0.6,0.5z" data-paper-data="{&quot;origPos&quot;:null}" fill="#000000" stroke="none" stroke-width="1" stroke-linecap="butt"/><path d="M233.8,151.03333c-3.3,0.1 -6.6,0.2 -9.9,0.3h-5h-2.4c-0.4,0 -0.8,0 -1.2,-0.1c-0.5,-0.1 -0.9,-0.3 -1.2,-0.6c0.3,-0.3 0.8,-0.5 1.2,-0.5c0.4,0 0.8,0 1.2,0h2.5l4.9,-0.1c3.3,-0.1 6.6,-0.2 9.9,-0.3c0.3,0 0.6,0.3 0.6,0.7c-0.1,0.2 -0.3,0.5 -0.6,0.6z" data-paper-data="{&quot;origPos&quot;:null}" fill="#000000" stroke="none" stroke-width="1" stroke-linecap="butt"/><path d="M254.2,198.43333c-3,0.3 -5.9,0.1 -8.8,-0.8c-2.9,-0.6 -5.7,-1.4 -8.5,-2.4c-2.8,-1 -5.5,-2.2 -8.1,-3.5c-2.6,-1.4 -5.1,-3 -7.5,-4.7c-4.8,-3.5 -8.9,-7.9 -12.2,-12.9c-3.3,-5 -5.6,-10.5 -7,-16.3c-1.4,-5.8 -1.8,-11.7 -1.3,-17.6c0.1,-1.5 0.3,-3 0.5,-4.4c0.2,-1.4 0.5,-2.9 0.9,-4.4c0.7,-2.9 1.6,-5.7 2.8,-8.4c1.2,-2.7 2.6,-5.3 4.3,-7.8c1.7,-2.4 3.6,-4.7 5.8,-6.8c4.3,-4.1 9.3,-7.4 14.8,-9.7c5.5,-2.3 11.2,-3.8 17.1,-4.5c2.9,-0.3 5.9,-0.5 8.9,-0.4c2.9,0.1 5.9,0.2 8.8,0.4c5.9,0.3 11.7,1.1 17.5,2.5c5.7,1.5 11.4,4 15.7,8.3c2.1,2.1 3.9,4.6 5.2,7.3c1.3,2.7 2.3,5.5 3,8.4c1.3,5.8 1.9,11.7 1.8,17.6c-0.3,11.7 -1.3,23.4 -3.1,35l-0.2,-0.7c2.3,2.1 4.1,4.6 5.5,7.3c0.7,1.4 1.1,3 1.2,4.5c0,1.5 -0.1,3.1 -0.4,4.6c-0.3,1.5 -0.8,3 -1.6,4.4c-0.8,1.4 -1.9,2.6 -3.1,3.5c-2.5,1.8 -5.4,3 -8.5,3.4c-5.9,0.9 -11.9,1.2 -17.9,1.2c-3,0 -6,-0.1 -8.9,-0.2c-1.5,-0.1 -3,-0.2 -4.4,-0.4c-1.5,-0.1 -3,-0.4 -4.4,-1c1.5,-0.4 3,-0.5 4.5,-0.3c1.5,0 3,0.1 4.4,0.2c2.9,0.1 5.9,0.2 8.9,0.2c5.9,0.1 11.8,-0.3 17.6,-1.2c2.8,-0.4 5.5,-1.5 7.9,-3.1c2.2,-1.7 3.7,-4.2 4.2,-7c0.3,-1.4 0.4,-2.8 0.3,-4.3c-0.1,-1.4 -0.5,-2.7 -1.1,-4c-1.3,-2.6 -3,-4.9 -5.1,-6.8l-0.3,-0.3l0.1,-0.4c1.8,-11.5 2.8,-23.2 3.1,-34.8c0.1,-5.8 -0.5,-11.6 -1.7,-17.2c-0.7,-2.8 -1.6,-5.5 -2.9,-8.1c-1.3,-2.6 -3,-4.9 -5,-6.9c-4,-4 -9.4,-6.5 -15,-7.9c-5.6,-1.3 -11.4,-2.1 -17.2,-2.4c-5.8,-0.3 -11.6,-0.7 -17.4,0c-5.8,0.6 -11.4,2.1 -16.7,4.4c-5.3,2.3 -10.1,5.5 -14.3,9.4c-2.1,2 -3.9,4.2 -5.6,6.5c-3.3,4.8 -5.6,10.1 -6.9,15.7c-0.4,1.4 -0.6,2.8 -0.8,4.2c-0.2,1.4 -0.4,2.9 -0.5,4.3c-0.5,5.8 -0.1,11.6 1.2,17.2c1.3,5.6 3.6,11 6.8,15.8c3.2,4.8 7.2,9.1 11.8,12.5c2.3,1.7 4.8,3.2 7.3,4.6c2.6,1.3 5.3,2.5 8,3.4c2.7,1 5.5,1.7 8.3,2.4c1.4,0.4 2.8,0.6 4.3,0.9c1.2,0.6 2.6,1 3.9,1.5z" data-paper-data="{&quot;origPos&quot;:null}" fill="#000000" stroke="none" stroke-width="1" stroke-linecap="butt"/></g><path d="M283.4,176.03333c-0.4,1 -1.3,1.7 -2.4,1.7c-0.7,0 -1.4,-0.3 -1.9,-0.7c-0.2,0.2 -0.3,0.4 -0.5,0.6c-0.4,0.4 -1.1,0.7 -1.7,0.7c-0.6,-0.1 -1.2,-0.3 -1.6,-0.7c-0.2,-0.2 -0.3,-0.3 -0.5,-0.5c-0.3,0.3 -0.6,0.6 -0.9,0.9c-0.3,0.2 -0.7,0.4 -1.1,0.5c-0.4,0.1 -0.9,0 -1.3,-0.2c-0.6,-0.4 -1.2,-0.9 -1.5,-1.6c-0.2,-0.3 -0.3,-0.6 -0.4,-0.9c-0.2,-0.4 -0.1,-0.9 0.2,-1.2c0.3,0.1 0.7,0.4 0.8,0.7c0.1,0.3 0.3,0.6 0.4,0.8c0.2,0.4 0.6,0.8 1,1.1c0.3,0.2 0.7,0.1 1.1,-0.2c0.5,-0.4 0.8,-0.8 1.1,-1.3c0.2,-0.3 0.6,-0.4 0.9,-0.2l0.2,0.2c0.5,0.6 1.2,1.3 1.7,1.3c0.3,0 0.6,-0.2 0.8,-0.4c0.1,-0.2 0.2,-0.4 0.3,-0.5l0.3,-0.5c0.1,-0.3 0.5,-0.4 0.8,-0.2c0.1,0 0.1,0.1 0.2,0.2c0.2,0.5 0.8,0.8 1.4,0.8c0.6,0 1.1,-0.4 1.3,-0.9c0.2,-0.6 0.1,-1.3 -0.3,-1.8c-0.1,-0.3 -0.4,-0.6 -0.6,-1c-0.3,-0.3 -0.5,-0.7 -0.7,-1c0.4,0.2 0.7,0.4 1.1,0.6c0.3,0.3 0.6,0.6 0.9,0.9c0.7,0.8 0.9,1.8 0.9,2.8z" data-paper-data="{&quot;origPos&quot;:null}" fill="#000000" stroke="none" stroke-width="1" stroke-linecap="butt"/></g><g id="Path"><path d="M237,192.53333c-1.9,5.4 -8.3,7.9 -15.8,7.9c-12,-0.2 -21.6,-10 -21.6,-22c0,-12.3 7.2,-22.7 18.4,-21.3c7.5,0.9 13.1,6.2 15.9,13.3c0,0 5,16.8 3.1,22.1z" data-paper-data="{&quot;origPos&quot;:null}" fill="#ae694f" stroke="none" stroke-width="1" stroke-linecap="butt"/><path d="M237,192.43333c-1.9,5.4 -8.3,8 -15.8,8c-12,-0.2 -21.6,-9.9 -21.7,-21.9c0,-12.3 7.1,-22.8 18.3,-21.4c7.5,0.9 13.1,6.1 16,13.2" data-paper-data="{&quot;origPos&quot;:null}" fill="none" stroke="#000000" stroke-width="1.22" stroke-linecap="round"/><path d="M208.5,175.13333c-0.3,-0.2 -0.4,-0.5 -0.4,-0.8c0,-0.3 0.1,-0.5 0.2,-0.8c0.1,-0.2 0.2,-0.5 0.3,-0.7c0.1,-0.2 0.2,-0.4 0.4,-0.7c0.6,-0.8 1.3,-1.5 2.1,-2.1c1.6,-1.2 3.6,-1.8 5.6,-1.9c2,-0.1 4,0.6 5.6,1.9c1.5,1.3 2.4,3.2 2.3,5.2c-0.6,-0.8 -1,-1.6 -1.4,-2.4c-0.5,-0.7 -1,-1.4 -1.7,-2c-1.3,-1.1 -3,-1.6 -4.8,-1.5c-1.8,0.1 -3.4,0.6 -4.9,1.7c-0.7,0.5 -1.3,1.1 -1.8,1.8c-0.2,0.3 -0.5,0.7 -0.6,1.1c-0.1,0.2 -0.2,0.4 -0.3,0.6c-0.1,0.3 -0.4,0.5 -0.6,0.6z" data-paper-data="{&quot;origPos&quot;:null}" fill="#000000" stroke="none" stroke-width="1" stroke-linecap="butt"/></g><path d="M284.5,132.63333c2.7,-3.3 8.3,-3.2 10.8,-2c1.3,0.5 2.3,1.6 2.6,3c0,0.2 0,0.3 -0.1,0.4c-1.5,-0.8 -3,-1.5 -4.6,-2c-2.7,-0.3 -5.4,0.5 -7.5,2.3c-1.3,1.1 -2.2,-0.5 -1.2,-1.7z" data-paper-data="{&quot;origPos&quot;:null}" id="Path" fill="#000000" stroke="none" stroke-width="1" stroke-linecap="butt"/><path d="M269.6,133.83333c-1.9,-2.1 -4.5,-3.3 -7.3,-3.4c-2,0.1 -5,1.3 -5,1.2c0,-0.1 -0.1,-0.3 -0.1,-0.4c0.4,-1.3 1.8,-2.2 3.2,-2.6c2.8,-0.8 8.5,-0.1 10.7,3.6c0.8,1.4 -0.4,2.9 -1.5,1.6z" data-paper-data="{&quot;origPos&quot;:null}" id="Path" fill="#000000" stroke="none" stroke-width="1" stroke-linecap="butt"/><path d="M299.6,113.43333c-0.5,0.8 -1.4,1.3 -2.4,1.4c-1,0.1 -1.9,-0.2 -2.8,-0.7c-1.5,-0.9 -2.4,-2.4 -2.6,-4c-0.6,0.3 -1.3,0.6 -2,0.8c-1.1,0.3 -2.2,0.3 -3.3,0c-0.5,-0.2 -1,-0.4 -1.5,-0.7c-0.5,-0.3 -0.9,-0.7 -1.2,-1.2c-0.3,-0.7 -0.6,-1.3 -1,-1.9c-0.5,0.6 -1.1,1 -1.8,1.4c-0.5,0.3 -1,0.5 -1.5,0.6c-0.5,0.2 -1,0.3 -1.5,0.3c-1.1,0.1 -2.1,0 -3.1,-0.2c-0.5,-0.1 -1,-0.3 -1.5,-0.5c-0.5,-0.3 -0.9,-0.6 -1.3,-1c-0.1,-0.1 -0.3,-0.2 -0.4,-0.3c0,0 0,0 -0.1,0c-0.1,0.1 -0.3,0.3 -0.4,0.4c-0.2,0.2 -0.4,0.4 -0.6,0.6c-0.8,0.7 -1.7,1.3 -2.7,1.6c-2.1,0.7 -4.3,0.3 -6.1,-0.9l-0.2,-0.1l-0.1,-0.1c-0.1,0.1 -0.1,0.1 -0.2,0.2c-0.3,0.3 -0.5,0.7 -0.7,1.1c-0.2,0.4 -0.5,0.9 -0.8,1.3c-0.4,0.5 -0.8,0.9 -1.3,1.2c-0.9,0.5 -1.9,0.8 -3,0.9c-1.1,0.1 -2.1,0.1 -3.1,-0.1l-0.3,-0.1c-0.1,0.5 -0.3,1 -0.5,1.5c-0.5,0.9 -1.2,1.7 -2,2.4c-0.8,0.6 -1.8,1.1 -2.8,1.3c-1.1,0.3 -2.2,0.1 -3.1,-0.5c1,0 1.9,-0.2 2.8,-0.5c0.8,-0.3 1.6,-0.7 2.3,-1.3c0.7,-0.5 1.3,-1.2 1.7,-2c0.2,-0.4 0.3,-0.8 0.4,-1.2l0.1,-0.3v-0.1c0,-0.2 0.2,-0.3 0.4,-0.4c0.2,0 0.2,0 0.2,0c0.1,0 0.2,0 0.3,0l0.7,0.1c1.8,0.4 3.7,0.2 5.3,-0.6c0.4,-0.2 0.7,-0.5 1,-0.8c0.3,-0.3 0.5,-0.7 0.7,-1.1c0.3,-0.4 0.6,-0.9 0.9,-1.3c0.3,-0.3 0.6,-0.5 1,-0.6c0.2,-0.1 0.5,0 0.7,0.1l0.2,0.1l0.1,0.1c1.5,1 3.3,1.3 5,0.8c0.9,-0.3 1.6,-0.8 2.3,-1.4c0.2,-0.2 0.3,-0.3 0.5,-0.5c0.2,-0.2 0.4,-0.4 0.7,-0.6c0.3,-0.3 0.8,-0.4 1.2,-0.2c0.3,0.1 0.6,0.3 0.8,0.5c0.3,0.3 0.6,0.6 1,0.8c0.4,0.2 0.8,0.3 1.2,0.4c0.9,0.2 1.8,0.3 2.7,0.2c0.8,0 1.7,-0.3 2.5,-0.7c0.8,-0.5 1.5,-1.1 2,-1.8c0.3,-0.3 0.6,-0.3 0.9,-0.1l0.1,0.1c0.6,0.8 1.1,1.7 1.5,2.6c0.5,0.7 1.2,1.2 2,1.4c0.9,0.3 1.8,0.3 2.6,0c0.9,-0.3 1.8,-0.7 2.6,-1.1c0.3,-0.1 0.7,0 0.8,0.3c0.1,0.1 0.1,0.2 0.1,0.3c0,0.8 0.2,1.5 0.6,2.2c0.4,0.7 0.9,1.3 1.6,1.7c0.7,0.5 1.4,0.7 2.2,0.8c0.9,0 1.7,-0.2 2.2,-0.6z" data-paper-data="{&quot;origPos&quot;:null}" id="Path" fill="#000000" stroke="none" stroke-width="1" stroke-linecap="butt"/></g></g><g id="Mouth" fill="none" stroke="#000000" stroke-width="1.22" stroke-linecap="round"><g id="Group"><path d="M289.7,186.33333c0.1,1.1 -0.5,2.1 -1.4,2.5c-1,0.5 -2.1,0.7 -3.1,0.7c-2.1,0 -4.2,-0.7 -5.9,-2c-2,1 -9.9,4.7 -15.4,1.8c-0.8,-0.4 -1.4,-1.1 -1.8,-1.9c-0.3,-0.9 -0.1,-1.8 0.6,-2.5" data-paper-data="{&quot;origPos&quot;:null}" id="Path"/><path d="M268.1,183.83333c3.2,-2.4 7.6,-2.8 11.6,-2.2c1.8,0.3 3.7,0.9 4.4,2.6" data-paper-data="{&quot;origPos&quot;:null}" id="Path"/><path d="M284.9,193.73333c-5,3.5 -11.7,3.7 -16.9,0.5" data-paper-data="{&quot;origPos&quot;:null}" id="Path"/></g></g></g><g id="Group" fill-rule="evenodd" stroke-width="1"><path d="M243.1,235.73333c0,0 26,2.2 37.1,-0.8v4.6c0,0 19,15.6 20.2,18c1.2,2.4 -5.8,-5.1 -33.6,4.8c-27.8,9.9 -42.3,-9.4 -42.5,-11.2c-0.2,-1.8 18.8,-9.6 18.8,-9.6z" data-paper-data="{&quot;origPos&quot;:null}" id="Path" fill="#ee4b5c" stroke="#000000" stroke-linecap="round" stroke-linejoin="round"/><g id="Oval" fill="#ddf2f4" stroke="none" stroke-linecap="butt" stroke-linejoin="miter"><path d="M248.62981,242.55096c-0.48177,-0.27002 -0.56589,-1.03568 -0.18787,-1.71014c0.37802,-0.67446 1.07502,-1.00232 1.55679,-0.7323c0.48177,0.27002 0.56589,1.03568 0.18787,1.71014c-0.37802,0.67446 -1.07502,1.00232 -1.55679,0.7323z" data-paper-data="{&quot;origPos&quot;:null}"/><path d="M261.56248,242.42407c-0.48177,-0.27002 -0.56589,-1.03568 -0.18787,-1.71014c0.37802,-0.67446 1.07502,-1.00232 1.55679,-0.7323c0.48177,0.27002 0.56589,1.03568 0.18787,1.71014c-0.37802,0.67446 -1.07502,1.00232 -1.55679,0.7323z" data-paper-data="{&quot;origPos&quot;:null}"/><path d="M274.32446,240.99441c-0.48177,-0.27002 -0.56589,-1.03568 -0.18787,-1.71014c0.37802,-0.67446 1.07502,-1.00232 1.55679,-0.7323c0.48177,0.27002 0.56589,1.03568 0.18787,1.71014c-0.37802,0.67446 -1.07502,1.00232 -1.55679,0.7323z" data-paper-data="{&quot;origPos&quot;:null}"/><path d="M239.79512,246.36069c-0.37495,-0.4055 -0.31733,-1.06857 0.1287,-1.48101c0.44604,-0.41244 1.11158,-0.41807 1.48654,-0.01257c0.37495,0.4055 0.31733,1.06857 -0.1287,1.48101c-0.44604,0.41244 -1.11158,0.41807 -1.48654,0.01257z" data-paper-data="{&quot;origPos&quot;:null}"/><path d="M244.23694,252.04417c-0.3927,-0.38834 -0.3333,-1.08514 0.13267,-1.55635c0.46597,-0.47121 1.16207,-0.53839 1.55477,-0.15005c0.3927,0.38834 0.3333,1.08514 -0.13267,1.55635c-0.46597,0.47121 -1.16207,0.53839 -1.55477,0.15005z" data-paper-data="{&quot;origPos&quot;:null}"/><path d="M254.95981,248.07157c-0.3927,-0.38834 -0.3333,-1.08514 0.13267,-1.55635c0.46597,-0.47121 1.16207,-0.53839 1.55477,-0.15005c0.3927,0.38834 0.3333,1.08514 -0.13267,1.55635c-0.46597,0.47121 -1.16207,0.53839 -1.55477,0.15005z" data-paper-data="{&quot;origPos&quot;:null}"/><path d="M269.6449,246.87425c-0.47845,-0.27587 -0.59795,-0.96493 -0.26691,-1.53907c0.33104,-0.57413 0.98726,-0.81592 1.46571,-0.54005c0.47845,0.27587 0.59795,0.96493 0.26691,1.53907c-0.33104,0.57413 -0.98726,0.81592 -1.46571,0.54005z" data-paper-data="{&quot;origPos&quot;:null}"/><path d="M262.5627,252.38307c-0.34635,-0.43019 -0.20865,-1.11584 0.30756,-1.53144c0.51621,-0.41561 1.21545,-0.40378 1.5618,0.0264c0.34635,0.43019 0.20865,1.11584 -0.30756,1.53144c-0.51621,0.41561 -1.21545,0.40378 -1.5618,-0.0264z" data-paper-data="{&quot;origPos&quot;:null}"/><path d="M280.63231,245.5663c-0.46439,-0.29893 -0.55003,-0.99305 -0.19129,-1.55035c0.35874,-0.5573 1.02602,-0.76675 1.49041,-0.46781c0.46439,0.29893 0.55003,0.99305 0.19129,1.55035c-0.35874,0.5573 -1.02602,0.76675 -1.49041,0.46781z" data-paper-data="{&quot;origPos&quot;:null}"/><path d="M278.14223,250.95876c-0.47164,-0.28735 -0.57445,-0.97911 -0.22963,-1.54509c0.34482,-0.56598 1.0067,-0.79186 1.47835,-0.50451c0.47164,0.28735 0.57445,0.97911 0.22963,1.54509c-0.34482,0.56598 -1.0067,0.79186 -1.47835,0.50451z" data-paper-data="{&quot;origPos&quot;:null}"/><path d="M236.06022,256.3852c-0.3927,-0.38834 -0.3333,-1.08514 0.13267,-1.55635c0.46597,-0.47121 1.16207,-0.53839 1.55477,-0.15005c0.3927,0.38834 0.3333,1.08514 -0.13267,1.55635c-0.46597,0.47121 -1.16207,0.53839 -1.55477,0.15005z" data-paper-data="{&quot;origPos&quot;:null}"/><path d="M241.62828,261.09497c-0.3927,-0.38834 -0.3333,-1.08514 0.13267,-1.55635c0.46597,-0.47121 1.16207,-0.53839 1.55477,-0.15005c0.3927,0.38834 0.3333,1.08514 -0.13267,1.55635c-0.46597,0.47121 -1.16207,0.53839 -1.55477,0.15005z" data-paper-data="{&quot;origPos&quot;:null}"/><path d="M252.8509,257.89165c-0.3927,-0.38834 -0.3333,-1.08514 0.13267,-1.55635c0.46597,-0.47121 1.16207,-0.53839 1.55477,-0.15005c0.3927,0.38834 0.3333,1.08514 -0.13267,1.55635c-0.46597,0.47121 -1.16207,0.53839 -1.55477,0.15005z" data-paper-data="{&quot;origPos&quot;:null}"/><path d="M272.17463,255.30919c-0.3927,-0.38834 -0.3333,-1.08514 0.13267,-1.55635c0.46597,-0.47121 1.16207,-0.53839 1.55477,-0.15005c0.3927,0.38834 0.3333,1.08514 -0.13267,1.55635c-0.46597,0.47121 -1.16207,0.53839 -1.55477,0.15005z" data-paper-data="{&quot;origPos&quot;:null}"/><path d="M264.26711,260.4028c-0.35771,-0.42078 -0.23836,-1.10988 0.26658,-1.53914c0.50494,-0.42926 1.20426,-0.43613 1.56198,-0.01534c0.35771,0.42078 0.23836,1.10988 -0.26658,1.53914c-0.50494,0.42926 -1.20426,0.43613 -1.56198,0.01534z" data-paper-data="{&quot;origPos&quot;:null}"/><path d="M287.75688,250.51925c-0.37495,-0.4055 -0.3502,-1.03818 0.0553,-1.41313c0.4055,-0.37495 1.03818,-0.3502 1.41313,0.0553c0.37495,0.4055 0.3502,1.03818 -0.0553,1.41313c-0.4055,0.37495 -1.03818,0.3502 -1.41313,-0.0553z" data-paper-data="{&quot;origPos&quot;:null}"/><path d="M287.06885,254.08903c-0.42246,-0.35574 -0.47654,-0.98659 -0.1208,-1.40904c0.35574,-0.42246 0.98659,-0.47654 1.40904,-0.1208c0.42246,0.35574 0.47654,0.98659 0.1208,1.40904c-0.35574,0.42246 -0.98659,0.47654 -1.40904,0.1208z" data-paper-data="{&quot;origPos&quot;:null}"/><path d="M282.84097,256.79042c-0.37495,-0.4055 -0.3502,-1.03818 0.0553,-1.41313c0.4055,-0.37495 1.03818,-0.3502 1.41313,0.0553c0.37495,0.4055 0.3502,1.03818 -0.0553,1.41313c-0.4055,0.37495 -1.03818,0.3502 -1.41313,-0.0553z" data-paper-data="{&quot;origPos&quot;:null}"/><path d="M231.47726,251.36716c-0.37495,-0.4055 -0.31733,-1.06857 0.1287,-1.48101c0.44604,-0.41244 1.11158,-0.41807 1.48654,-0.01257c0.37495,0.4055 0.31733,1.06857 -0.1287,1.48101c-0.44604,0.41244 -1.11158,0.41807 -1.48654,0.01257z" data-paper-data="{&quot;origPos&quot;:null}"/></g></g><path d="M297.846,165.20742c-10.1,-6.1 -16.7,1.2 -18.6,1.6c-1.9,0.4 0.2,-15.6 0.2,-15.6c0.5,-5.1 3.9,-9.4 8.7,-11.1c3.6,-1.3 7.6,-0.1 9.8,3.1c2.2,3.1 2.2,18.6 -0.1,22z" data-paper-data="{&quot;origPos&quot;:null}" fill="#ffffff" fill-rule="evenodd" stroke="none" stroke-width="1" stroke-linecap="butt" stroke-linejoin="miter"/><path d="M279.346,151.20742c0.6,-5.1 4,-9.3 8.7,-11.1c3,-1.2 6.5,-0.7 9,1.5c2.8,2.7 3.2,7.2 2.6,10.8" data-paper-data="{&quot;origPos&quot;:null}" fill="none" fill-rule="evenodd" stroke="#000000" stroke-width="1.24" stroke-linecap="round" stroke-linejoin="miter"/><path d="M282.34749,154.10742c0,-2.1 0.99851,-4.2 2.09852,-6c1.4,-2.1 3.79778,-1.7 4.69777,0.8c1.1,3 0.79926,9.30074 -1.30074,12.00074c-1.4,1.8 -4.09704,1.49926 -4.79704,-0.80074c-0.6,-1.9 -1.09851,-4 -0.69851,-6z" data-paper-data="{&quot;origPos&quot;:null}" fill="#000000" fill-rule="evenodd" stroke="none" stroke-width="1" stroke-linecap="butt" stroke-linejoin="miter"/><path d="M278.946,167.70742c4.7,-5.8 16.7,-6.4 19.1,-1" data-paper-data="{&quot;origPos&quot;:null}" fill="none" fill-rule="evenodd" stroke="#000000" stroke-width="1.24" stroke-linecap="round" stroke-linejoin="miter"/><path d="M266.3818,165.82375c-10.1,-6.1 -16.7,1.2 -18.6,1.6c-1.9,0.4 0.2,-15.6 0.2,-15.6c0.5,-5.1 3.9,-9.4 8.7,-11.1c3.6,-1.3 7.6,-0.1 9.8,3.1c2.2,3.1 2.2,18.6 -0.1,22z" data-paper-data="{&quot;origPos&quot;:null}" fill="#ffffff" fill-rule="evenodd" stroke="none" stroke-width="1" stroke-linecap="butt" stroke-linejoin="miter"/><path d="M247.8818,151.82375c0.6,-5.1 4,-9.3 8.7,-11.1c3,-1.2 6.5,-0.7 9,1.5c2.8,2.7 3.2,7.2 2.6,10.8" data-paper-data="{&quot;origPos&quot;:null}" fill="none" fill-rule="evenodd" stroke="#000000" stroke-width="1.24" stroke-linecap="round" stroke-linejoin="miter"/><path d="M251.68032,154.52449c0,-2.1 0.99851,-4.00074 2.09852,-5.80074c1.4,-2.1 3.59852,-1.7 4.49852,0.8c1.1,3 0.6,9.5 -1.5,12.2c-1.4,1.8 -3.69852,1.3 -4.39852,-1c-0.6,-1.9 -1.09851,-4.19926 -0.69851,-6.19926z" data-paper-data="{&quot;origPos&quot;:null}" fill="#000000" fill-rule="evenodd" stroke="none" stroke-width="1" stroke-linecap="butt" stroke-linejoin="miter"/><path d="M247.4818,168.32375c4.7,-5.8 16.7,-6.4 19.1,-1" data-paper-data="{&quot;origPos&quot;:null}" fill="none" fill-rule="evenodd" stroke="#000000" stroke-width="1.24" stroke-linecap="round" stroke-linejoin="miter"/></g></g></svg>