<svg version="1.1" xmlns="http://www.w3.org/2000/svg" xmlns:xlink="http://www.w3.org/1999/xlink" width="191.48707" height="236.71941" viewBox="0,0,191.48707,236.71941"><g transform="translate(-144.55076,-61.99692)"><g data-paper-data="{&quot;isPaintingLayer&quot;:true}" fill="none" fill-rule="none" stroke="none" stroke-width="none" stroke-linecap="none" stroke-linejoin="none" stroke-miterlimit="10" stroke-dasharray="" stroke-dashoffset="0" font-family="none" font-weight="none" font-size="none" text-anchor="none" style="mix-blend-mode: normal"><path d="M286.8,254.4c13.9,-0.4 25.1,3.6 25.5,6.1c0.5,3.1 -11.3,6.7 -25.2,7.1c-13.9,0.4 -25.2,-2.2 -25.3,-5.9c0,-3.6 11.2,-6.9 25,-7.3z" id="Path" fill="#932d3a" fill-rule="evenodd" stroke="#000000" stroke-width="1" stroke-linecap="round" stroke-linejoin="round"/><g id="Group" fill-rule="evenodd" stroke-linejoin="miter"><path d="M300,212.3c4.1,2.1 12.8,6 15.5,9.9c2,2.9 2,7.5 -1.5,9.4c-6.4,3.4 -15.7,-3.7 -22.3,-4c-1.4,-0.1 -2.9,0.1 -4.3,0.4c-5.5,1.7 -11.4,-0.8 -13.9,-6c-2.3,-4.7 -1.8,-11.1 2.9,-14.4c4,-2.8 8.7,-1.5 12.8,0c3.8,1.3 7.4,2.9 10.8,4.7z" id="Path" fill="#ae694f" stroke="none" stroke-width="1" stroke-linecap="butt"/><path d="M277.2,226.5c-8.4,-5.9 -5,-20.3 3.4,-20.1c9.2,0.2 14.5,3.8 14.5,3.8c1,3.6 -1.5,16.5 -2.9,17.1c-3.6,-0.8 -9.2,3.2 -15,-0.8z" id="Path" fill="#ddeff1" stroke="none" stroke-width="1" stroke-linecap="butt"/><path d="M288.4,207.6c-0.1,9.9 -4.9,14 -14.2,14.6" id="Path" fill="none" stroke="#94b2be" stroke-width="0.75" stroke-linecap="butt"/><path d="M291.2,208.6c0.1,8.3 -2.6,14.4 -14.1,17.6" id="Path" fill="none" stroke="#94b2be" stroke-width="0.75" stroke-linecap="butt"/><path d="M293.9,209.8c0.6,8.2 -3.8,17.3 -10.6,18.1" id="Path" fill="none" stroke="#94b2be" stroke-width="0.75" stroke-linecap="butt"/><path d="M300,212.3c4.1,2.1 12.8,6 15.5,9.9c2,2.9 2,7.5 -1.5,9.4c-6.4,3.4 -15.7,-3.7 -22.3,-4c-1.4,-0.1 -2.9,0.1 -4.3,0.4c-5.5,1.7 -11.4,-0.8 -13.9,-6c-2.3,-4.7 -1.8,-11.1 2.9,-14.4c4,-2.8 8.7,-1.5 12.8,0c3.8,1.3 7.4,2.9 10.8,4.7z" id="Path" fill="none" stroke="#000000" stroke-width="1.24" stroke-linecap="round"/><path d="M294.7,210c1.7,4.7 -0.1,13 -2.5,17.4" id="Path" fill="none" stroke="#000000" stroke-width="1.24" stroke-linecap="round"/></g><g id="Leg_R"><g id="Group" fill-rule="evenodd"><path d="M276.5,297.1c-3.6,-0.8 -7.5,-2.1 -9.8,-3.1c-1.3,-0.6 -1.2,-3.8 -1.2,-4.3c1.7,-6.3 7.4,-23.8 7.3,-23.6c-1.4,-14.3 12.6,-12.4 15.5,-8.7c3.3,3 0.5,19 -2.1,30.4c-0.2,0.9 3,1 5.2,2.1c1.8,1 2.7,3.1 2.8,3.7c0.3,2.7 -7.5,5.7 -17.7,3.5z" id="Path" fill="#ae694f" stroke="#000000" stroke-width="1" stroke-linecap="butt" stroke-linejoin="miter"/><path d="M288.8,271.7c-5.6,0.6 -11.3,-0.4 -16.4,-2.9l0.4,-2.4c0,0 -0.2,-7.6 2.5,-9.6c2.7,-2 11.9,-3.7 13.7,3.5c1.2,5.9 -0.2,11.4 -0.2,11.4z" id="Path" fill="#343039" stroke="none" stroke-width="1" stroke-linecap="butt" stroke-linejoin="miter"/><path d="M288.8,271.7c-5.6,0.6 -11.3,-0.4 -16.4,-2.9" id="Path" fill="none" stroke="#000000" stroke-width="1.24" stroke-linecap="round" stroke-linejoin="round"/></g><path d="M292.6,296.3c-4.8,3.7 -19.6,1.4 -25.6,-1.5c-1.7,-0.9 -2.3,-3.7 -1.7,-5.6c-0.3,1.1 10.7,3.4 11.8,3.5c2,0.2 2.3,-1 3.7,-2.2c1.4,-1.3 3.2,-2.1 5.1,-2.3c4,-0.2 11.6,4.4 6.7,8.1zM287.8,290.2c-0.9,-0.2 -4.8,1.5 -5.3,2.3c-1.4,2.3 2.8,1.8 4.3,0.7c1.9,-1.4 2.2,-2.8 1,-3z" id="Shape" fill="#efdb84" fill-rule="nonzero" stroke="#000000" stroke-width="1" stroke-linecap="round" stroke-linejoin="round"/></g><g id="Group" fill-rule="evenodd" stroke="none" stroke-width="1" stroke-linecap="butt" stroke-linejoin="miter"><path d="M281.7,259.8c-3.8,1 -7.6,1.7 -11.5,2.1c0,0 -23.1,5.4 -12.4,-16.9c2,-4.2 18.5,-14.5 28.9,0.7c2.9,4.1 1,13.8 -5,14.1z" id="Path" fill="#343039"/><path d="M281.7,259.8c-0.1,0.3 -0.3,0.6 -0.6,0.7c-0.2,0.1 -0.5,0.2 -0.8,0.3c-0.5,0.1 -1,0.2 -1.6,0.3c-1,0.2 -2.1,0.3 -3.1,0.4c-2.1,0.2 -4.2,0.4 -6.2,0.5c-0.2,0 -0.4,-0.1 -0.4,-0.3c0,-0.2 0.1,-0.4 0.3,-0.4c2.1,-0.3 4.1,-0.6 6.2,-0.9c1,-0.1 2,-0.3 3.1,-0.5c0.5,-0.1 1,-0.2 1.5,-0.3c0.2,-0.1 0.5,-0.1 0.8,-0.1c0.2,0 0.6,0.1 0.8,0.3z" id="Path" fill="#000000"/></g><g id="Leg_L"><g id="Group" fill-rule="evenodd"><path d="M278.5,289.7c-4.9,-5.9 -10.7,-12.3 -14.7,-19c-9.4,-6.1 -7.1,-20.1 3.4,-18.9c6,0.7 18.6,15.9 25.6,24.3c0.3,0.4 1.6,-0.9 3,-1.7c3.6,-2.1 5,-0.1 5.3,0.3c0.6,0.7 1.4,2.8 0.6,4c-2.7,3.3 -19.5,18.7 -23.2,11z" id="Path" fill="#ae694f" stroke="#000000" stroke-width="1" stroke-linecap="butt" stroke-linejoin="miter"/><path d="M278.9,260c-3.5,5.5 -7.6,9.7 -13.1,13.1c-0.3,-0.4 -1,-1.9 -1.8,-2.4c-1.7,-1.1 -2.6,-2 -3.6,-3.2c-2.2,-2.6 -4,-5.6 -4.5,-7.9c-1.1,-5.2 9.8,-9.7 14.1,-6.9c4.4,2.7 5.9,3.8 8.9,7.3z" id="Path" fill="#343039" stroke="none" stroke-width="1" stroke-linecap="butt" stroke-linejoin="miter"/><path d="M278.4,260.1c-4.4,6.4 -7.3,9.9 -12.5,12.9" id="Path" fill="none" stroke="#000000" stroke-width="1.24" stroke-linecap="round" stroke-linejoin="round"/></g><path d="M301.8,278.7c-3.9,5.2 -10,9.5 -15,12.7c-4.7,2.9 -6.7,1.9 -8.7,-1.8c5,-0.8 8.6,-2.9 12.5,-6.2c-0.1,-4.9 1.4,-9.8 6.9,-10.8c3,-0.6 6.7,2.7 4.3,6.1zM298.7,275.8c-0.5,-1.5 -2.3,-0.9 -3.1,0c-1.1,1.2 -1.6,2.9 -1.3,4.5c0.1,0.5 2.5,-1.6 3.1,-2.1c0.7,-0.5 1.5,-1.6 1.3,-2.4z" id="Shape" fill="#efdb84" fill-rule="nonzero" stroke="#000000" stroke-width="1" stroke-linecap="butt" stroke-linejoin="miter"/></g><g id="Torso" fill-rule="evenodd"><g id="Group" stroke-linecap="butt" stroke-linejoin="miter"><g id="Path"><path d="M290.2,221.9c-0.2,2.4 2.4,12.9 0.5,27.1c-0.5,3.6 -31.5,4.7 -34.4,-0.8c-3.8,-7.1 -2.2,-36.4 -0.3,-40c2.6,-4.9 16.4,-5 25.5,-2c3.5,0.8 9.1,11.7 8.7,15.7z" fill="#ddeff1" stroke="none" stroke-width="1"/><path d="M287.7,213.1c-1.5,1 -28.6,1.4 -32.2,0.4" fill="none" stroke="#94b2be" stroke-width="0.75"/><path d="M289.7,217.6c-6.7,2.7 -31.6,1.9 -35.5,0.6" fill="none" stroke="#94b2be" stroke-width="0.75"/><path d="M290.6,222.4c-6.7,2.7 -32.6,1.9 -36.5,0.6" fill="none" stroke="#94b2be" stroke-width="0.75"/><path d="M290.7,227.6c-6.7,2.7 -32.1,1.9 -36,0.6" fill="none" stroke="#94b2be" stroke-width="0.75"/><path d="M291.1,232.4c-6.7,2.7 -32.6,1.9 -36.5,0.6" fill="none" stroke="#94b2be" stroke-width="0.75"/><path d="M284.7,206.9c-1.6,0.3 -2.8,-0.4 -4.2,-0.7c-1.4,-0.3 -2.8,-0.6 -4.2,-0.8c-2.8,-0.4 -5.7,-0.5 -8.5,-0.4c-2.8,0 -5.6,0.5 -8.3,1.3c-1.2,0.3 -2.3,1.1 -3,2.2c-0.2,0.6 -0.4,1.3 -0.5,1.9c-0.1,0.7 -0.2,1.4 -0.3,2.1c-0.7,5.7 -1,11.4 -1,17.1c0,2.9 0.1,5.7 0.3,8.6c0.1,2.8 0.6,5.6 1.4,8.3c0.1,0.3 0.2,0.6 0.4,0.9c0.1,0.1 0.1,0.3 0.2,0.4c0.1,0.1 0.1,0.2 0.2,0.3c0.5,0.4 1,0.8 1.6,1c1.3,0.5 2.6,0.9 4,1.1c2.8,0.5 5.6,0.8 8.5,0.9c2.8,0.1 5.7,0.1 8.5,-0.1c2.8,-0.1 5.6,-0.6 8.4,-1.2c0.6,-0.2 1.2,-0.4 1.8,-0.8c0.1,-0.1 0.2,-0.1 0.2,-0.2v-0.1v-0.1l0.1,-1.1c0.2,-1.4 0.3,-2.8 0.4,-4.3c0.2,-2.8 0.2,-5.7 0.2,-8.6c0,-2.9 -0.2,-5.7 -0.6,-8.5c-0.2,-1.4 -0.4,-2.8 -0.6,-4.2l-0.4,-2.1c-0.1,-0.3 -0.1,-0.7 -0.2,-1c-0.1,-0.4 -0.1,-0.8 0,-1.1c0.4,0.1 0.8,0.4 0.9,0.8c0.2,0.3 0.3,0.7 0.4,1c0.2,0.7 0.4,1.4 0.5,2.1c0.3,1.4 0.5,2.9 0.6,4.3c0.3,2.9 0.5,5.8 0.6,8.6c0.1,2.8 0,5.8 -0.2,8.7c-0.1,1.4 -0.2,2.9 -0.4,4.3l-0.1,1.1v0.1c0,0.1 0,0.2 -0.1,0.2c0,0.1 -0.1,0.3 -0.2,0.4c-0.1,0.2 -0.3,0.4 -0.5,0.5c-0.7,0.4 -1.4,0.7 -2.1,0.9c-2.8,0.7 -5.7,1.1 -8.6,1.3c-2.9,0.2 -5.8,0.2 -8.7,0.1c-2.9,-0.1 -5.8,-0.4 -8.6,-0.9c-1.5,-0.3 -2.9,-0.7 -4.3,-1.2c-0.7,-0.3 -1.4,-0.8 -2,-1.3c-0.1,-0.2 -0.3,-0.4 -0.4,-0.6c-0.1,-0.2 -0.2,-0.4 -0.2,-0.5c-0.2,-0.3 -0.3,-0.7 -0.4,-1.1c-0.8,-2.8 -1.3,-5.7 -1.4,-8.6c-0.2,-2.9 -0.3,-5.8 -0.3,-8.6c0,-5.8 0.3,-11.5 1,-17.3c0.1,-0.7 0.2,-1.4 0.4,-2.1c0.1,-0.8 0.3,-1.5 0.6,-2.2c0.4,-0.7 0.9,-1.4 1.6,-1.8c0.6,-0.4 1.3,-0.7 2.1,-1c2.8,-0.9 5.7,-1.4 8.7,-1.4c2.9,-0.1 5.8,0.1 8.7,0.4c1.4,0.2 2.9,0.4 4.3,0.8c1.4,0.4 2.6,0.9 3.7,2.2z" fill="#000000" stroke="none" stroke-width="1"/></g></g><g id="Collar" fill="#ddeff1" stroke="#000000" stroke-width="1" stroke-linecap="round" stroke-linejoin="round"><path d="M277.2,214.1c-3,1.2 -5.2,-7.1 -5.2,-7.1c0,0 -0.1,6.6 -3.4,7.1c-6.1,0.8 -5.8,-9.4 -5.8,-9.4c3.8,3.6 13.8,2.5 15.1,0.4c0.3,1.8 3.5,7.3 -0.7,9z" id="Path"/></g></g><g id="Group" fill-rule="evenodd" stroke-width="1"><path d="M254,237.8c0,0 26.5,2.2 37.7,-0.8v4.7c0,0 19.3,15.8 20.6,18.3c1.3,2.5 -5.9,-5.1 -34.2,4.9c-28.3,10 -43,-9.6 -43.2,-11.4c-0.2,-1.8 19.1,-9.8 19.1,-9.8z" id="Path" fill="#ee4b5c" stroke="#000000" stroke-linecap="round" stroke-linejoin="round"/><g id="Oval" fill="#ddf2f4" stroke="none" stroke-linecap="butt" stroke-linejoin="miter"><path d="M259.44863,244.77389c-0.48178,-0.27002 -0.544,-1.07473 -0.13898,-1.79736c0.40502,-0.72263 1.1239,-1.08955 1.60568,-0.81954c0.48178,0.27002 0.544,1.07473 0.13898,1.79736c-0.40502,0.72263 -1.1239,1.08955 -1.60568,0.81954z"/><path d="M272.61621,244.77773c-0.48178,-0.27002 -0.544,-1.07473 -0.13898,-1.79736c0.40502,-0.72263 1.1239,-1.08955 1.60568,-0.81954c0.48178,0.27002 0.544,1.07473 0.13898,1.79736c-0.40502,0.72263 -1.1239,1.08955 -1.60568,0.81954z"/><path d="M285.68576,243.33888c-0.48178,-0.27002 -0.544,-1.07473 -0.13898,-1.79736c0.40502,-0.72263 1.1239,-1.08955 1.60568,-0.81954c0.48178,0.27002 0.544,1.07473 0.13898,1.79736c-0.40502,0.72263 -1.1239,1.08955 -1.60568,0.81954z"/><path d="M250.49345,248.62895c-0.37495,-0.4055 -0.31733,-1.06857 0.1287,-1.48101c0.44603,-0.41244 1.11158,-0.41807 1.48654,-0.01257c0.37495,0.4055 0.31733,1.06857 -0.1287,1.48101c-0.44603,0.41244 -1.11158,0.41807 -1.48654,0.01257z"/><path d="M255.06372,254.42906c-0.3927,-0.38834 -0.3333,-1.08513 0.13268,-1.55634c0.46597,-0.47121 1.16207,-0.53839 1.55477,-0.15006c0.3927,0.38834 0.3333,1.08514 -0.13268,1.55635c-0.46598,0.47121 -1.16207,0.53839 -1.55477,0.15005z"/><path d="M265.95231,250.33355c-0.3927,-0.38834 -0.3333,-1.08513 0.13268,-1.55634c0.46598,-0.47121 1.16206,-0.53839 1.55476,-0.15006c0.3927,0.38834 0.3333,1.08513 -0.13268,1.55634c-0.46598,0.47121 -1.16206,0.53839 -1.55476,0.15006z"/><path d="M280.87456,249.21076c-0.47845,-0.27587 -0.59795,-0.96493 -0.26691,-1.53906c0.33104,-0.57414 0.98726,-0.81592 1.46571,-0.54005c0.47845,0.27587 0.59795,0.96493 0.26691,1.53906c-0.33104,0.57414 -0.98726,0.81592 -1.46571,0.54005z"/><path d="M273.7565,254.7516c-0.34635,-0.43019 -0.20865,-1.11584 0.30756,-1.53144c0.51621,-0.4156 1.21545,-0.40379 1.5618,0.0264c0.34635,0.43019 0.20865,1.11584 -0.30756,1.53145c-0.51621,0.4156 -1.21545,0.40378 -1.5618,-0.02641z"/><path d="M292.14865,247.82835c-0.46439,-0.29894 -0.55003,-0.99305 -0.19129,-1.55035c0.35874,-0.5573 1.02602,-0.76674 1.49041,-0.46781c0.46439,0.29894 0.55003,0.99305 0.19129,1.55035c-0.35874,0.5573 -1.02602,0.76675 -1.49041,0.46781z"/><path d="M288.79153,253.89631c-0.4711,-0.28824 -0.57261,-0.98018 -0.22673,-1.5455c0.34589,-0.56532 1.00819,-0.78994 1.47929,-0.5017c0.4711,0.28824 0.57261,0.98018 0.22673,1.5455c-0.34589,0.56532 -1.00819,0.78994 -1.47929,0.5017z"/><path d="M246.76409,258.73209c-0.3927,-0.38833 -0.3333,-1.08514 0.13267,-1.55635c0.46597,-0.47121 1.16207,-0.53839 1.55477,-0.15006c0.3927,0.38833 0.3333,1.08514 -0.13267,1.55635c-0.46597,0.47121 -1.16207,0.53839 -1.55477,0.15006z"/><path d="M252.42296,263.53587c-0.3927,-0.38833 -0.3333,-1.08513 0.13268,-1.55634c0.46597,-0.47121 1.16207,-0.53839 1.55477,-0.15006c0.3927,0.38833 0.3333,1.08513 -0.13268,1.55634c-0.46597,0.47121 -1.16207,0.53839 -1.55477,0.15006z"/><path d="M263.8373,260.33615c-0.3927,-0.38833 -0.3333,-1.08513 0.13267,-1.55634c0.46598,-0.47121 1.16207,-0.53839 1.55477,-0.15006c0.3927,0.38833 0.3333,1.08514 -0.13268,1.55635c-0.46598,0.47121 -1.16206,0.53839 -1.55476,0.15005z"/><path d="M283.54057,257.74529c-0.3927,-0.38833 -0.3333,-1.08514 0.13268,-1.55635c0.46598,-0.47121 1.16206,-0.53839 1.55476,-0.15006c0.3927,0.38833 0.3333,1.08514 -0.13268,1.55635c-0.46598,0.47121 -1.16206,0.53839 -1.55476,0.15006z"/><path d="M275.47997,262.97289c-0.35771,-0.42079 -0.23836,-1.10987 0.26658,-1.53913c0.50495,-0.42926 1.20427,-0.43613 1.56198,-0.01535c0.35771,0.42079 0.23836,1.10987 -0.26658,1.53913c-0.50495,0.42926 -1.20427,0.43613 -1.56198,0.01535z"/><path d="M299.3767,252.7709c-0.37495,-0.4055 -0.35019,-1.03817 0.0553,-1.41313c0.40549,-0.37495 1.03818,-0.3502 1.41313,0.0553c0.37495,0.4055 0.35019,1.03818 -0.0553,1.41313c-0.40549,0.37495 -1.03818,0.35019 -1.41313,-0.0553z"/><path d="M300.23533,256.72576c-0.42208,-0.35618 -0.47549,-0.98709 -0.1193,-1.40917c0.35618,-0.42208 0.9871,-0.47549 1.40918,-0.1193c0.42208,0.35619 0.47549,0.98709 0.1193,1.40917c-0.35618,0.42208 -0.9871,0.47549 -1.40918,0.1193z"/><path d="M293.85882,258.27947c-0.37644,-0.40411 -0.35401,-1.03688 0.05011,-1.41332c0.40411,-0.37644 1.03688,-0.35401 1.41332,0.0501c0.37644,0.40411 0.35401,1.03688 -0.05011,1.41332c-0.40411,0.37644 -1.03688,0.35401 -1.41332,-0.0501z"/><path d="M242.09486,253.73133c-0.37495,-0.4055 -0.31733,-1.06857 0.1287,-1.48101c0.44603,-0.41244 1.11158,-0.41807 1.48654,-0.01257c0.37495,0.4055 0.31733,1.06856 -0.12871,1.481c-0.44603,0.41244 -1.11158,0.41807 -1.48653,0.01258z"/></g></g><g id="Hand_L" stroke-linejoin="miter"><path d="M235.3,245c-2.1,5.6 -8.4,7.5 -12.1,6.7c-2.5,-0.6 -7.6,-2.7 -6.1,-5.2c0.2,-0.2 -8.2,-2.4 -7.6,-6c0.3,-2.3 2.5,-1.5 4.6,-1.4c-1.3,-0.6 -5.2,-3.2 -2.9,-5.2c0.8,-0.7 2.9,-0.3 4.2,0c-0.8,-0.6 -1.6,-1.9 0.2,-2.7c1.2,-0.4 3,-0.1 4.1,0.5c0.1,-1 1,-1.6 2,-1.5c2.6,0.4 5.6,3.8 5.6,3.8c0,0 1.7,0.6 5,2c4,1.7 4.2,6.1 3,9z" id="Path" fill="#ae694f" fill-rule="evenodd" stroke="none" stroke-width="1" stroke-linecap="butt"/><path d="M234.8,246.7c-1,1.8 -2.6,3.2 -4.4,4.2c-1.8,0.9 -3.8,1.4 -5.9,1.4c-1,-0.1 -2,-0.3 -3,-0.6c-1,-0.3 -1.9,-0.8 -2.8,-1.3c-0.4,-0.3 -0.8,-0.6 -1.2,-1c-0.4,-0.5 -0.7,-1 -0.7,-1.6c0,-0.3 0.1,-0.7 0.2,-1c-0.9,-0.2 -1.8,-0.4 -2.6,-0.8c-1,-0.4 -2,-0.9 -2.9,-1.6c-1,-0.7 -1.7,-1.6 -2.2,-2.6c-0.3,-0.5 -0.3,-1.2 -0.2,-1.8c0.1,-0.3 0.2,-0.6 0.4,-0.9c0.2,-0.2 0.5,-0.5 0.8,-0.6c0.5,-0.2 1,-0.3 1.5,-0.3c0,-0.1 -0.1,-0.1 -0.1,-0.1c-0.7,-0.5 -1.1,-1.2 -1.3,-2c-0.1,-0.9 0.2,-1.7 0.9,-2.3c0.6,-0.6 1.5,-0.9 2.3,-0.8c0.3,0 0.5,0.1 0.8,0.1c0,-0.1 -0.1,-0.2 -0.1,-0.3c-0.1,-0.3 0,-0.7 0.1,-1c0.1,-0.4 0.3,-0.6 0.6,-0.8c0.2,-0.2 0.5,-0.3 0.8,-0.4l0.4,-0.1c0.2,0 0.4,0 0.5,0c0.6,0 1.1,0 1.7,0.2c0.2,0.1 0.5,0.2 0.8,0.3c0.1,-0.3 0.3,-0.5 0.5,-0.7c0.4,-0.3 0.8,-0.5 1.3,-0.6c0.2,-0.1 0.5,-0.1 0.7,0c0.2,0.1 0.4,0.1 0.6,0.2c0.4,0.2 0.7,0.3 1.1,0.5c0.8,0.4 1.5,0.9 2.1,1.4c0.6,0.5 1.2,1 1.7,1.6c1.8,0.7 3.6,1.4 5.4,2.2c1,0.5 1.8,1.2 2.4,2.1c0.6,0.9 0.9,1.9 1,3c0.2,2.1 -0.3,4.2 -1.2,6zM235,241c-0.2,-1.9 -1.3,-3.5 -2.9,-4.3c-1.7,-0.8 -3.6,-1.5 -5.4,-2.2c0,0 -2.5,-2.3 -3.8,-3.1c-0.3,-0.2 -0.7,-0.4 -1,-0.5c-0.1,-0.1 -0.3,-0.2 -0.5,-0.2c-0.2,0 -0.3,0 -0.5,0c-0.5,0 -1,0.3 -1.2,0.8c0.6,0.3 1.1,0.6 1.6,0.9c0.4,0.3 0.9,0.6 1.3,1c0.2,0.2 0.4,0.4 0.6,0.6c0.2,0.3 0.3,0.5 0.3,0.8c-0.3,0 -0.6,0 -0.9,-0.2c-0.3,-0.2 -0.5,-0.3 -0.7,-0.5c-0.4,-0.3 -0.8,-0.6 -1.2,-0.9c-0.8,-0.6 -1.7,-1.1 -2.7,-1.4c-0.9,-0.4 -1.9,-0.3 -2.7,0.2c-0.4,0.2 -0.6,0.6 -0.5,1c0,0.2 0.1,0.4 0.2,0.6c0.9,0.2 1.8,0.5 2.7,0.9c0.7,0.3 1.3,0.6 2,1c0.3,0.2 0.6,0.4 0.9,0.6c0.4,0.2 0.7,0.5 0.8,0.9c-0.3,0 -0.7,0 -1.1,-0.2c-0.3,-0.2 -0.7,-0.3 -1,-0.5c-0.6,-0.3 -1.3,-0.7 -1.9,-1c-0.7,-0.4 -3.4,-1.1 -3.9,-1.2c-0.6,-0.1 -1.2,0.1 -1.7,0.5c-0.5,0.3 -0.8,0.9 -0.7,1.5c0.3,0.9 0.9,1.7 1.7,2.2c0.3,0 0.6,0 0.9,0.1c1.1,0.2 2.2,0.4 3.2,0.7c1,0.3 2.1,0.6 3.1,0.9c1,0.3 2,0.7 2.9,1.3c-1.1,0.1 -2.2,0 -3.2,-0.4l-3,-0.9c-1,-0.2 -4.5,-1.4 -6,-0.6c-0.4,0.2 -0.6,0.5 -0.7,0.9c-0.1,0.4 -0.1,0.9 0.1,1.3c0.4,0.9 1.1,1.6 1.9,2.2c1.6,1.2 3.4,2.1 5.3,2.5c0.1,-0.1 0.1,-0.1 0.1,-0.1c0.4,-0.4 0.9,-0.7 1.5,-0.8c1,-0.2 2.1,-0.2 3.1,0.1c1,0.2 2,0.6 2.8,1.2c-1,-0.1 -1.9,-0.3 -2.9,-0.5c-0.9,-0.2 -1.8,-0.3 -2.7,-0.1c-0.4,0.1 -0.7,0.3 -1,0.6c-0.3,0.3 -0.4,0.7 -0.4,1.1c0,0.7 0.7,1.4 1.5,1.9c0.7,0.5 1.6,0.9 2.5,1.2c0.8,0.3 1.8,0.5 2.7,0.5c1.9,0 3.7,-0.5 5.4,-1.4c1.7,-0.9 3,-2.2 4,-3.8c0.9,-1.6 1.3,-3.5 1.1,-5.2z" id="Shape" fill="#030305" fill-rule="nonzero" stroke="none" stroke-width="1" stroke-linecap="butt"/><g id="Group" fill-rule="evenodd"><g id="Path" stroke="none" stroke-width="1" stroke-linecap="butt"><path d="M255.2,225.6c-4.8,5.7 -17,16.3 -20.7,19.8c-1.9,1.8 -11.9,-6.2 -8.3,-10.4c4.2,-4.9 9,-12.2 13.6,-17.4c6.9,-7.8 11.8,-12.4 16.4,-11.9c0,0 5.3,12.6 -1,19.9z" fill="#ae694f"/><path d="M258.3,204.9c7.2,1.1 2.1,4.2 1.4,9.1c-0.3,2.1 0.3,8.1 -2.4,10.3c-0.9,0.8 -1.9,1.6 -3,2.3c-4.9,-2.6 -10.4,-9.3 -11,-12.8c-0.1,-0.8 8.9,-9.9 15,-8.9z" fill="#ddeff1"/></g><path d="M251,207.3c1.6,-0.8 7.7,4.2 8.9,6.7" id="Path" fill="none" stroke="#94b2be" stroke-width="0.75" stroke-linecap="round"/><path d="M259.4,219c-5.1,-4.9 -9.7,-9 -11,-10.4" id="Path" fill="none" stroke="#94b2be" stroke-width="0.75" stroke-linecap="round"/><path d="M257.8,223.6c-4.6,-2.9 -10.8,-8.9 -12.1,-12.5" id="Path" fill="none" stroke="#94b2be" stroke-width="0.75" stroke-linecap="round"/><g id="Path" stroke-width="1" stroke-linecap="butt"><g id="Group" fill="#030305" stroke="none"><path d="M261.7,205.7c-1.1,0.1 -2.1,0 -3.1,-0.2c-1,-0.1 -2,-0.1 -3,0.1c-2,0.3 -3.9,1.1 -5.6,2.2c-3.4,2.3 -6.4,5.1 -8.9,8.4c-2.6,3.2 -5.1,6.6 -7.6,9.9l-3.7,5c-0.6,0.9 -1.3,1.7 -1.9,2.5c-0.6,0.9 -1.4,1.6 -2.3,2.2c0.5,-0.9 1,-1.8 1.6,-2.7l1.9,-2.5c1.3,-1.6 2.6,-3.3 3.8,-5c2.5,-3.3 5,-6.6 7.6,-9.9c2.5,-3.4 5.6,-6.3 9.1,-8.6c1.8,-1.2 3.8,-2 5.9,-2.4c1,-0.1 2.1,-0.2 3.2,-0.1c1.1,0 2.2,0.4 3,1.1z" id="Path"/><path d="M255.4,225.6c0.5,-0.4 1.1,-0.8 1.8,-1c-0.3,0.6 -0.7,1.1 -1.2,1.6c-0.4,0.5 -0.9,0.9 -1.4,1.4l-2.9,2.7l-5.8,5.5l-5.9,5.5c-1,0.9 -2,1.8 -3,2.7c-0.5,0.4 -1,0.9 -1.5,1.3c-0.5,0.4 -1.1,0.8 -1.7,1.2c-0.2,0 -0.3,0 -0.4,-0.2c-0.1,-0.2 0,-0.3 0.1,-0.4h0.1c0.5,-0.4 1,-0.8 1.5,-1.2c0.5,-0.4 1,-0.9 1.5,-1.3c1,-1 2,-1.9 2.9,-2.8l5.8,-5.6l5.8,-5.6l2.9,-2.8c0.5,-0.5 1,-0.9 1.4,-1z" id="Path"/></g><path d="M254.2,226.7c-5.1,-3 -9.1,-7.7 -11.2,-13.3" fill="none" stroke="#030305"/></g></g></g><path d="M269,206.8c-1.6,-0.1 -3.1,-0.6 -4.5,-1.5c0,-4.4 -2.1,-9.9 1.7,-12.3c1,-0.7 7.7,-0.8 8.5,0.1c1.2,1.4 2.2,9.7 2,12.7c-0.7,0.6 -4.4,1.1 -7.7,1z" id="Path" fill="#ae694f" fill-rule="evenodd" stroke="#000000" stroke-width="1" stroke-linecap="round" stroke-linejoin="round"/><g id="Group" fill-rule="evenodd"><g id="Path"><path d="M256.9,140.7c6.2,26.3 -12.6,28.1 -12.6,28.1c-4.8,14.4 -25.7,6.8 -25.7,6.8c-2.5,4.4 -19.9,14.2 -19.7,2.4c-2.6,2.3 -19.2,4.4 -16.1,-12.5c-28,13.4 -34,-10.4 -33.1,-17.7c1.6,-12.5 9,-15.3 16.5,-19.5c-0.6,0.3 -22.6,-1.4 -20.9,-23.3c1,-11.8 16.5,-25.2 29,-15.7l0.1,-0.2c0.5,-24 20.1,-30.8 31.2,-24c3.9,2.4 8.8,10.7 8.8,10.7c2.1,-3.5 12.1,-13.7 23.5,-11.5c19.7,3.6 15.5,33.5 15.5,33.5c25.6,-2.3 23.4,43.5 3.5,42.9z" fill="#351f13" stroke="none" stroke-width="1" stroke-linecap="butt" stroke-linejoin="miter"/><path d="M268.5,133.6c-2.6,4.3 -6.5,7.2 -11.6,7.1c6.2,26.3 -12.6,28.1 -12.6,28.1c-4.8,14.4 -25.7,6.8 -25.7,6.8c-2.5,4.4 -19.9,14.2 -19.7,2.4c-2.7,2.3 -19.2,4.4 -16.1,-12.5c-28,13.4 -34,-10.4 -33.1,-17.7c1.6,-12.5 9,-15.3 16.5,-19.5c-0.2,0.1 -8.8,0.7 -7.7,-7.7c1.6,-12.6 13.4,-23.5 25.2,-14l0.1,-0.2c-0.4,-26.7 24.6,-31.1 33,-15.1c1.9,-3.6 10.7,-10.2 21.4,-8.1c18.5,3.7 11.8,39.7 11.8,39.7c8.9,-0.9 15.1,4.2 18.5,10.7z" fill="#23140c" stroke="none" stroke-width="1" stroke-linecap="butt" stroke-linejoin="miter"/><g id="Group" fill="none" stroke="#000000" stroke-linecap="round" stroke-linejoin="round"><path d="M214.4,75.8c2.1,-3.5 12.1,-13.7 23.5,-11.6c19.7,3.6 15.5,33.5 15.5,33.5c25.6,-2.4 23.4,43.5 3.5,43c6.2,26.3 -12.6,28.1 -12.6,28.1c-4.8,14.4 -25.7,6.8 -25.7,6.8c-2.5,4.4 -19.9,14.2 -19.7,2.4c-2.6,2.3 -19.2,4.4 -16.1,-12.5c-28,13.4 -34,-10.4 -33.1,-17.7c1.6,-12.5 9,-15.3 16.5,-19.5c-0.5,0.4 -22.6,-1.4 -20.8,-23.3c1,-13.2 20.1,-28.3 33.1,-11.4" id="Path" stroke-width="1.49"/><path d="M174.4,89.1c0.4,-23.9 20.1,-30.8 31.2,-24c8.2,5.1 11.6,18.2 10.7,25.1" id="Path" stroke-width="1.24"/></g></g><path d="M209.1,142.6c-2.6,-1.1 -4.5,-3.3 -5.2,-6c-0.6,-2.7 -0.4,-5.6 0.7,-8.1c-0.3,0.8 -3,-2.6 -3.2,-3c-3.8,-6.7 2.9,-16.2 10.6,-14.5c1.1,-4.7 7.2,-8.5 11.9,-8.2c2.5,0.1 5,1.7 5.6,4.1c1.8,-2 4.8,-2.7 7.5,-2.8c1.8,-0.2 3.6,0.1 5.2,0.9c3.1,1.6 4.3,5.7 3.6,9.1c-0.7,3.4 -2.8,6.4 -4.8,9.2c-0.4,0.5 -0.7,1 -0.9,1.5c-0.2,0.7 -0.3,1.5 -0.2,2.2c-0.3,8.7 -7.5,15.5 -16.2,15.2c-0.8,0 -1.6,-0.1 -2.4,-0.3c-2.1,-0.4 -3.2,-0.9 -5.3,-0.2c-2.4,0.9 -4.4,1.8 -6.9,0.9z" id="Path" fill="#902f38" stroke="none" stroke-width="1" stroke-linecap="butt" stroke-linejoin="miter"/><path d="M227.8,107.7c-1.6,1.6 -3.5,2.8 -5.7,3.5c-2.1,0.7 -4.5,0.7 -6.6,-0.3" id="Path" fill="none" stroke="#000000" stroke-width="1.24" stroke-linecap="round" stroke-linejoin="miter"/><path d="M220.9,116.1c-2.4,3.5 -6.2,5.7 -10.3,6.1c-1.1,0.2 -2.2,-0.1 -3,-0.8" id="Path" fill="none" stroke="#000000" stroke-width="1.24" stroke-linecap="round" stroke-linejoin="miter"/><path d="M214.1,129.3c-0.8,1.2 -1.7,2.4 -2.8,3.3c-1.1,0.9 -2.6,1.3 -4,1" id="Path" fill="none" stroke="#000000" stroke-width="1.24" stroke-linecap="round" stroke-linejoin="miter"/><path d="M209.1,142.6c-2.6,-1.1 -4.5,-3.3 -5.2,-6c-0.6,-2.7 -0.4,-5.6 0.7,-8.1c-0.3,0.8 -3,-2.6 -3.2,-3c-3.8,-6.7 2.9,-16.2 10.6,-14.5c1.1,-4.7 7.2,-8.5 11.9,-8.2c2.5,0.1 5,1.7 5.6,4.1c1.8,-2 4.8,-2.7 7.5,-2.8c1.8,-0.2 3.6,0.1 5.2,0.9c3.1,1.6 4.3,5.7 3.6,9.1c-0.7,3.4 -2.8,6.4 -4.8,9.2c-0.4,0.5 -0.7,1 -0.9,1.5c-0.2,0.7 -0.3,1.5 -0.2,2.2c-0.3,8.7 -7.5,15.5 -16.2,15.2c-0.8,0 -1.6,-0.1 -2.4,-0.3c-2.1,-0.4 -3.2,-0.9 -5.3,-0.2c-2.4,0.9 -4.4,1.8 -6.9,0.9z" id="Path" fill="none" stroke="#000000" stroke-width="1.24" stroke-linecap="round" stroke-linejoin="round"/></g><g id="Head" fill-rule="evenodd"><g id="Group" stroke-linejoin="miter"><g id="Path"><path d="M264.7,199.7c-40.3,-4.8 -53.3,-31.9 -53.2,-53.9c0.1,-35.7 27.8,-52.6 56.9,-51.4c32.1,1.3 53,5.5 50.3,51.1c-0.5,9.6 -1.5,19.2 -2.9,28.7c0,0 6.6,5.9 6.6,12c0,7.2 -2.8,13.8 -15.1,15.3c-12.3,1.5 -24.6,0.8 -34.2,0" fill="#ae694f" stroke="none" stroke-width="1" stroke-linecap="butt"/><path d="M318.6,130.1c-1.6,-10.7 -13,-16.3 -22.3,-18.2c-14.5,-3 -30.5,-0.2 -40.9,10.9c-11.2,11.8 -11.5,31.3 -10.9,48.6c0,0 -11.5,-25.1 -30.5,-7.4c0,0 -12.7,-35 15.4,-58.1c21.6,-17.7 71.6,-13.5 81.8,1.9c6.8,10.2 7.4,22.3 7.4,22.3z" fill="#351f13" stroke="none" stroke-width="1" stroke-linecap="butt"/><g id="Group"><path d="M244.5,171.4c-0.6,-17.3 -0.3,-36.8 10.9,-48.6c10.4,-11.1 26.4,-13.9 40.9,-10.9c9.3,1.9 20.7,7.5 22.3,18.2" id="Path" fill="none" stroke="#000000" stroke-width="1.24" stroke-linecap="round"/><path d="M249.8,131.7l-11.5,0.4l-5.8,0.2h-3c-0.5,0 -1,0 -1.4,0c-0.5,0 -1,-0.3 -1.4,-0.6c0.4,-0.3 0.9,-0.5 1.4,-0.5c0.5,0 1,0 1.4,0l2.8,-0.1l5.8,-0.2l11.6,-0.4c0.3,0 0.6,0.3 0.6,0.6c0,0.3 -0.2,0.6 -0.5,0.6c-0.1,0 -0.1,0 0,0z" id="Path" fill="#000000" stroke="none" stroke-width="1" stroke-linecap="butt"/><path d="M246,141.8l-11.9,0.2h-5.9h-3c-0.5,0 -1,0 -1.5,-0.1c-0.6,0 -1.1,-0.3 -1.5,-0.6c0.4,-0.3 1,-0.5 1.5,-0.5c0.5,0 1,0 1.5,0h3h5.9l11.9,-0.2c0.3,0 0.6,0.3 0.6,0.6c0,0.3 -0.3,0.6 -0.6,0.6z" id="Path" fill="#000000" stroke="none" stroke-width="1" stroke-linecap="butt"/><path d="M244.5,151.7c-3.4,0.1 -6.7,0.2 -10.1,0.3l-5,0.1h-2.5c-0.4,0 -0.8,0 -1.3,-0.1c-0.5,0 -0.9,-0.3 -1.2,-0.6c0.4,-0.3 0.8,-0.5 1.3,-0.5c0.4,0 0.8,0 1.2,0h2.5l5,-0.1c3.3,-0.1 6.7,-0.2 10.1,-0.3c0.3,0 0.6,0.3 0.6,0.6c0,0.3 -0.3,0.5 -0.6,0.6z" id="Path" fill="#000000" stroke="none" stroke-width="1" stroke-linecap="butt"/><path d="M265.2,200c-3,0.3 -6.1,0.1 -9,-0.8c-2.9,-0.6 -5.8,-1.5 -8.7,-2.5c-2.8,-1 -5.6,-2.2 -8.3,-3.6c-2.7,-1.4 -5.2,-3 -7.7,-4.8c-4.9,-3.6 -9,-8 -12.4,-13.1c-3.3,-5.1 -5.7,-10.7 -7.1,-16.5c-1.4,-5.9 -1.8,-11.9 -1.3,-17.9c0.1,-1.5 0.3,-3 0.5,-4.5c0.2,-1.5 0.5,-3 0.9,-4.4c0.4,-1.4 0.8,-2.9 1.2,-4.3c0.4,-1.4 1,-2.8 1.6,-4.2c1.2,-2.8 2.7,-5.4 4.4,-7.9c1.7,-2.5 3.7,-4.8 5.9,-6.9c4.4,-4.2 9.4,-7.5 15,-9.9c5.5,-2.4 11.4,-3.9 17.4,-4.5c3,-0.3 6,-0.5 9,-0.4c3,0.1 6,0.2 8.9,0.4c6,0.3 11.9,1.1 17.8,2.5c5.8,1.5 11.6,4 15.9,8.4c2.2,2.2 4,4.7 5.3,7.4c1.3,2.7 2.4,5.6 3.1,8.5c1.3,5.9 1.9,11.9 1.8,17.9c-0.3,11.9 -1.3,23.8 -3.2,35.6l-0.2,-0.7c2.3,2.1 4.2,4.6 5.6,7.4c0.7,1.4 1.1,3 1.2,4.6c0.1,1.6 -0.1,3.1 -0.4,4.7c-0.3,1.6 -0.9,3.1 -1.6,4.4c-0.8,1.4 -1.9,2.6 -3.2,3.6c-2.6,1.8 -5.5,3 -8.6,3.5c-6,0.9 -12.1,1.3 -18.2,1.2c-3,0 -6.1,-0.1 -9.1,-0.2c-1.5,-0.1 -3,-0.2 -4.5,-0.4c-1.5,0 -3.1,-0.4 -4.5,-1c1.5,-0.4 3,-0.5 4.6,-0.3c1.5,0 3,0.1 4.5,0.2c3,0.1 6,0.2 9,0.2c6,0.1 12,-0.3 17.9,-1.2c2.9,-0.4 5.6,-1.5 8,-3.2c2.3,-1.8 3.8,-4.3 4.3,-7.1c0.3,-1.4 0.4,-2.9 0.3,-4.3c-0.1,-1.4 -0.5,-2.8 -1.1,-4.1c-1.3,-2.6 -3.1,-5 -5.2,-7l-0.3,-0.3l0.1,-0.4c1.8,-11.7 2.9,-23.5 3.1,-35.4c0.1,-5.9 -0.5,-11.8 -1.7,-17.5c-0.7,-2.8 -1.7,-5.6 -2.9,-8.2c-1.3,-2.6 -3,-4.9 -5,-7c-4.1,-4.1 -9.6,-6.6 -15.3,-8c-5.7,-1.4 -11.6,-2.2 -17.5,-2.5c-5.9,-0.4 -11.8,-0.7 -17.7,0c-5.9,0.6 -11.6,2.1 -17,4.4c-5.4,2.3 -10.4,5.5 -14.6,9.6c-4.2,4.1 -7.6,8.9 -9.9,14.3c-0.6,1.3 -1.1,2.7 -1.6,4.1c-0.5,1.4 -0.9,2.8 -1.2,4.2c-0.3,1.4 -0.6,2.9 -0.9,4.3c-0.3,1.4 -0.1,3.1 -0.2,4.6c-0.5,5.9 -0.1,11.8 1.3,17.5c1.4,5.7 3.7,11.1 6.9,16c3.2,4.9 7.3,9.2 12,12.7c2.4,1.7 4.9,3.3 7.4,4.7c2.6,1.3 5.3,2.5 8.1,3.5c2.8,1 5.6,1.8 8.5,2.4c1.4,0.4 2.9,0.6 4.3,0.9c1.5,0.2 2.9,0.7 4.3,1.3z" id="Path" fill="#000000" stroke="none" stroke-width="1" stroke-linecap="butt"/></g><path d="M294.7,177c-0.4,1 -1.4,1.7 -2.4,1.7c-0.8,0 -1.5,-0.2 -2,-0.7c-0.1,0.2 -0.2,0.3 -0.4,0.6c-0.4,0.5 -1.1,0.8 -1.7,0.8c-0.6,-0.1 -1.2,-0.3 -1.6,-0.7c-0.2,-0.2 -0.3,-0.3 -0.5,-0.5c-0.3,0.3 -0.5,0.7 -0.9,0.9c-0.3,0.3 -0.7,0.5 -1.1,0.6c-0.4,0.1 -0.9,0 -1.3,-0.2c-0.7,-0.4 -1.2,-1 -1.6,-1.7c-0.2,-0.3 -0.3,-0.6 -0.4,-1c-0.2,-0.3 -0.1,-0.8 0.2,-1.1c0.4,0.1 0.7,0.3 0.9,0.7c0.2,0.2 0.3,0.5 0.4,0.8c0.2,0.5 0.6,0.9 1,1.1c0.4,0.2 0.7,0.1 1.1,-0.2c0.4,-0.4 0.8,-0.8 1.1,-1.3c0.2,-0.3 0.6,-0.4 0.9,-0.2c0.3,0.5 1.3,1.5 1.9,1.5c1,0 1.5,-1.4 1.5,-1.4c0.1,-0.4 0.5,-0.5 0.8,-0.3c0.1,0.1 1.1,1.1 1.7,1c0.6,0 1.1,-0.3 1.3,-0.9c0.2,-0.6 0.1,-1.3 -0.3,-1.8c-0.2,-0.3 -0.4,-0.7 -0.6,-1c-0.3,-0.3 -0.5,-0.7 -0.7,-1c0.4,0.2 0.8,0.4 1.1,0.6c0.4,0.3 0.7,0.6 0.9,0.9c0.7,0.7 0.9,1.8 0.7,2.8z" fill="#000000" stroke="none" stroke-width="1" stroke-linecap="butt"/></g><g id="Path"><path d="M247.7,193.9c-2,5.5 -8.5,8.1 -16.1,8c-12.2,-0.3 -21.9,-10.2 -21.9,-22.3c0,-12.5 7.3,-23.1 18.7,-21.7c7.7,0.9 13.3,6.3 16.2,13.5c-0.1,0.1 5,17.1 3.1,22.5z" fill="#ae694f" stroke="none" stroke-width="1" stroke-linecap="butt"/><path d="M247.7,193.9c-1.9,5.5 -8.5,8.1 -16,8.1c-12.2,-0.2 -21.9,-10.1 -22,-22.3c0,-12.6 7.2,-23.1 18.6,-21.8c7.7,0.9 13.3,6.2 16.2,13.4" fill="none" stroke="#000000" stroke-width="1.24" stroke-linecap="round"/><path d="M218.7,176.2c-0.3,-0.2 -0.4,-0.5 -0.4,-0.8c0,-0.3 0.1,-0.5 0.2,-0.8c0.2,-0.5 0.5,-0.9 0.7,-1.4c0.6,-0.8 1.3,-1.6 2.1,-2.2c1.7,-1.2 3.6,-1.8 5.7,-1.9c2.1,-0.1 4.1,0.6 5.7,2c1.5,1.3 2.4,3.3 2.4,5.3c-0.6,-0.8 -1,-1.6 -1.5,-2.4c-0.5,-0.7 -1.1,-1.4 -1.7,-2c-1.3,-1.1 -3.1,-1.7 -4.8,-1.6c-1.8,0.1 -3.5,0.7 -5,1.7c-0.7,0.5 -1.3,1.1 -1.8,1.8c-0.3,0.3 -0.5,0.7 -0.6,1.1c-0.1,0.2 -0.2,0.4 -0.3,0.6c-0.2,0.3 -0.4,0.5 -0.7,0.6z" fill="#000000" stroke="none" stroke-width="1" stroke-linecap="butt"/></g><path d="M296.2,133c2.7,-3.3 8.4,-3.2 10.9,-2c1.3,0.5 2.3,1.6 2.6,3c0.1,0.1 0,0.3 -0.1,0.4c-0.1,0 -2.8,-1.6 -4.7,-2c-2.7,-0.4 -5.5,0.5 -7.6,2.3c-1.4,1.2 -2.3,-0.5 -1.1,-1.7z" id="Path" fill="#000000" stroke="none" stroke-width="1" stroke-linecap="butt"/><path d="M280.8,134.2c-1.9,-2.1 -4.6,-3.4 -7.4,-3.4c-1.7,0.2 -3.5,0.7 -5.1,1.2c-0.1,-0.1 -0.1,-0.3 -0.1,-0.4c0.4,-1.3 1.8,-2.2 3.2,-2.6c2.8,-0.8 8.7,-0.1 10.9,3.6c0.9,1.4 -0.3,2.9 -1.5,1.6z" id="Path" fill="#000000" stroke="none" stroke-width="1" stroke-linecap="butt"/><path d="M311.3,113.3c-0.5,0.9 -1.4,1.4 -2.4,1.5c-1,0.1 -2,-0.2 -2.9,-0.7c-1.4,-0.9 -2.4,-2.4 -2.6,-4.1c-0.6,0.3 -1.3,0.6 -2,0.8c-1.1,0.3 -2.2,0.3 -3.3,0c-0.5,-0.1 -1,-0.4 -1.5,-0.7c-0.5,-0.3 -0.9,-0.7 -1.2,-1.2c-0.3,-0.7 -0.6,-1.3 -1,-1.9c-0.5,0.5 -1.1,1 -1.8,1.4c-0.5,0.3 -1,0.4 -1.5,0.6c-0.5,0.2 -1.1,0.3 -1.6,0.3c-1,0.1 -2.1,0 -3.1,-0.2c-0.6,-0.1 -1.1,-0.3 -1.6,-0.5c-0.5,-0.3 -0.9,-0.6 -1.3,-1c-0.1,-0.1 -0.3,-0.2 -0.4,-0.3c0,0 0,0 -0.1,0.1c-0.1,0.1 -0.3,0.3 -0.4,0.4c-0.2,0.2 -0.4,0.4 -0.6,0.6c-0.8,0.7 -1.8,1.3 -2.8,1.6c-2.1,0.7 -4.4,0.4 -6.2,-0.9l-0.2,-0.1l-0.1,-0.1c0,0 -0.1,0 -0.2,0.2c-0.3,0.3 -0.5,0.7 -0.7,1.1c-0.3,0.5 -0.6,1 -0.9,1.4c-0.4,0.4 -0.8,0.8 -1.3,1.1c-1,0.6 -2,0.9 -3.1,1c-1,0.1 -2.1,0.1 -3.1,-0.1l-0.3,-0.1c-0.1,0.5 -0.3,1 -0.5,1.5c-0.5,0.9 -1.2,1.8 -2.1,2.4c-0.9,0.7 -1.8,1.2 -2.9,1.4c-1,0.3 -2.1,0.1 -3,-0.5c1,0 1.9,-0.2 2.8,-0.5c0.9,-0.3 1.7,-0.7 2.4,-1.3c0.7,-0.6 1.3,-1.3 1.7,-2.1c0.2,-0.4 0.3,-0.8 0.4,-1.2l0.1,-0.3v-0.1v-0.1c0,-0.2 0.2,-0.3 0.4,-0.4c0.2,-0.1 0.2,0 0.2,0c0.1,0 0.2,0 0.3,0l0.7,0.1c1.8,0.4 3.6,0.2 5.3,-0.6c0.4,-0.2 0.7,-0.5 1,-0.8c0.3,-0.4 0.5,-0.8 0.7,-1.2c0.3,-0.5 0.6,-1 0.9,-1.4c0.3,-0.3 0.6,-0.5 1,-0.6c0.2,-0.1 0.5,0 0.7,0.1l0.2,0.1l0.2,0.1c1.5,1 3.4,1.3 5.1,0.8c0.9,-0.3 1.6,-0.8 2.3,-1.4l0.5,-0.5c0.2,-0.3 0.4,-0.5 0.7,-0.6c0.4,-0.3 0.9,-0.4 1.3,-0.2c0.3,0.2 0.6,0.4 0.8,0.6c0.3,0.3 0.6,0.6 1,0.8c0.4,0.2 0.9,0.3 1.3,0.4c0.9,0.2 1.9,0.3 2.8,0.2c0.4,-0.1 0.9,-0.2 1.3,-0.3c0.5,-0.1 0.9,-0.3 1.3,-0.5c0.8,-0.5 1.5,-1.1 2,-1.8c0.2,-0.3 0.6,-0.3 0.9,-0.1l0.1,0.1c0.6,0.9 1.1,1.8 1.5,2.7c0.5,0.8 1.3,1.3 2.1,1.5c0.8,0.3 1.8,0.3 2.6,0c0.9,-0.3 1.8,-0.7 2.7,-1.1c0.3,-0.1 0.7,0 0.8,0.3c0.1,0.1 0.1,0.2 0.1,0.3c0,0.8 0.2,1.5 0.6,2.2c0.4,0.7 0.9,1.3 1.6,1.7c0.6,0.4 1.4,0.7 2.2,0.8c0.8,0.1 1.7,-0.1 2.1,-0.7z" id="Path" fill="#000000" stroke="none" stroke-width="1" stroke-linecap="butt"/><g id="Path"><path d="M310.2,167.2c-10.1,-6.1 -16.7,1.2 -18.6,1.6c-1.9,0.4 0.2,-15.6 0.2,-15.6c0.5,-5.1 3.9,-9.4 8.7,-11.1c3.6,-1.3 7.6,-0.1 9.8,3.1c2.2,3.1 2.2,18.6 -0.1,22z" data-paper-data="{&quot;origPos&quot;:null}" fill="#ffffff" stroke="none" stroke-width="1" stroke-linecap="butt"/><path d="M291.7,153.2c0.6,-5.1 4,-9.3 8.7,-11.1c3,-1.2 6.5,-0.7 9,1.5c2.8,2.7 3.2,7.2 2.6,10.8" data-paper-data="{&quot;origPos&quot;:null}" fill="none" stroke="#000000" stroke-width="1.24" stroke-linecap="round"/><path d="M294.70149,156.1c0,-2.1 0.99851,-4.2 2.09852,-6c1.4,-2.1 3.79778,-1.7 4.69777,0.8c1.1,3 0.79926,9.30074 -1.30074,12.00074c-1.4,1.8 -4.09704,1.49926 -4.79704,-0.80074c-0.6,-1.9 -1.09851,-4 -0.69851,-6z" data-paper-data="{&quot;origPos&quot;:null}" fill="#000000" stroke="none" stroke-width="1" stroke-linecap="butt"/><path d="M291.3,169.7c4.7,-5.8 16.7,-6.4 19.1,-1" data-paper-data="{&quot;origPos&quot;:null}" fill="none" stroke="#000000" stroke-width="1.24" stroke-linecap="round"/></g></g><g id="Mouth" stroke-width="1"><g id="Group"><path d="M287.1,196.8c-18.6,0.2 -21.6,-7.4 -16.8,-9.3c3.6,-1.4 14.8,0.8 22,0.9c7.2,0.1 10.2,-2.5 12.6,-1c3.5,2.1 -0.9,9.1 -17.8,9.4z" id="Path" fill="#571226" stroke="none" stroke-linecap="butt" stroke-linejoin="miter"/><path d="M272.2,193.9c0.7,-1.9 19.9,-2.9 21.7,2.3c0.5,1.5 -21.6,0.6 -21.7,-2.3z" id="Path" fill="#e68387" stroke="none" stroke-linecap="butt" stroke-linejoin="miter"/><path d="M272.2,193.9c0.7,-1.9 18.6,-3.6 21.7,2.3" id="Path" fill="none" stroke="#000000" stroke-linecap="round" stroke-linejoin="miter"/><path d="M300.7,185.4c-0.6,-0.8 -1.3,-1.4 -2.2,-1.8c-0.9,-0.4 -1.8,-0.7 -2.7,-0.9c-1.9,-0.4 -3.8,-0.6 -5.7,-0.6c-1.9,0 -3.8,0.2 -5.7,0.7c-1.9,0.5 -3.7,1.3 -5.2,2.4c1.4,-1.5 3.1,-2.6 5,-3.1c1.9,-0.6 3.9,-0.9 5.9,-1c2,-0.1 4,0.2 5.9,0.8c1,0.3 1.9,0.7 2.8,1.2c0.9,0.5 1.6,1.3 1.9,2.3z" id="Path" fill="#000000" stroke="none" stroke-linecap="butt" stroke-linejoin="miter"/><path d="M302.5,197.7c-1.9,4.2 -16.2,9.6 -26.1,1.1" id="Path" fill="#ae694f" stroke="none" stroke-linecap="butt" stroke-linejoin="miter"/><path d="M302.5,197.7c0,0.3 0,0.7 -0.2,1c-0.2,0.3 -0.4,0.5 -0.6,0.8c-0.4,0.5 -0.9,0.9 -1.5,1.2c-0.5,0.3 -1.1,0.6 -1.6,0.9l-0.8,0.4l-0.9,0.3c-2.3,0.9 -4.7,1.4 -7.2,1.4c-2.5,0.1 -4.9,-0.2 -7.3,-1c-0.6,-0.2 -1.1,-0.5 -1.7,-0.7c-0.6,-0.2 -1.1,-0.5 -1.6,-0.8c-0.6,-0.3 -1.1,-0.6 -1.5,-1c-0.5,-0.4 -0.9,-0.9 -1.2,-1.5c0.6,0.1 1.2,0.4 1.7,0.7c0.5,0.3 1,0.6 1.5,0.9c0.5,0.3 1,0.6 1.6,0.8c0.5,0.3 1.1,0.5 1.6,0.6c2.2,0.8 4.6,1.1 6.9,1c2.4,-0.1 4.7,-0.6 6.9,-1.4l0.8,-0.3l0.8,-0.4c0.5,-0.3 1,-0.5 1.5,-0.9c0.2,-0.2 0.5,-0.3 0.7,-0.5c0.2,-0.2 0.5,-0.3 0.7,-0.5c0.2,-0.2 0.4,-0.4 0.6,-0.6c0.2,-0.1 0.5,-0.3 0.8,-0.4z" id="Path" fill="#000000" stroke="none" stroke-linecap="butt" stroke-linejoin="miter"/><path d="M269.4,187.9c1.8,-2 16.9,0 20.6,0.5c3.7,0.5 13.4,-1.4 13.4,-1.4c0,2.1 -1.3,4 -3.3,4.7c-6.8,2.8 -22.3,3.1 -31.3,-1.6c-0.2,-0.8 0,-1.6 0.6,-2.2z" id="Path" fill="#feffff" stroke="none" stroke-linecap="butt" stroke-linejoin="miter"/><path d="M303.3,187c0,2.1 -1.3,4 -3.3,4.7c-6.7,2.8 -22.2,3 -31.3,-1.6" id="Path" fill="none" stroke="#000000" stroke-linecap="round" stroke-linejoin="miter"/><path d="M287.1,196.8c-18.6,0.2 -21.6,-7.4 -16.8,-9.3c3.6,-1.4 14.8,0.8 22,0.9c7.2,0.1 10.2,-2.5 12.6,-1c3.5,2.1 -0.9,9.1 -17.8,9.4z" id="Path" fill="none" stroke="#000000" stroke-linecap="round" stroke-linejoin="round"/></g></g></g><g id="Hand_R" fill-rule="evenodd" stroke-width="1" stroke-linejoin="miter"><g id="Group" stroke="none" stroke-linecap="butt"><path d="M305.1,219.7c2.6,-4.9 11.9,-17.5 14.8,-20.6c3.1,-3.4 12.3,3.6 9.3,10.2c-2.4,5.4 -8.1,14.1 -11.9,19c-0.8,1.3 -2.1,2.2 -3.6,2.5c-3.8,0.2 -11.4,-5.8 -8.6,-11.1z" id="Path" fill="#ae694f"/><path d="M304.9,219.6c1.3,-2.6 2.8,-5.2 4.5,-7.6c1.7,-2.4 3.4,-4.8 5.1,-7.2c0.9,-1.2 1.8,-2.4 2.7,-3.5l1.4,-1.7c0.2,-0.3 0.5,-0.6 0.7,-0.9c0.3,-0.3 0.6,-0.6 1,-0.8c0.8,-0.4 1.7,-0.5 2.5,-0.3c0.8,0.1 1.5,0.4 2.2,0.8c1.4,0.7 2.6,1.8 3.5,3.1c1,1.3 1.6,2.8 1.7,4.3c0.1,0.8 0,1.6 -0.2,2.4c-0.2,0.7 -0.5,1.5 -0.8,2.2c-1.3,2.7 -2.7,5.3 -4.2,7.8c-1.5,2.5 -3.1,5 -4.9,7.4c-0.9,1.2 -1.8,2.4 -2.8,3.5c-0.5,0.6 -1,1.1 -1.6,1.6c-0.6,0.6 -1.3,0.9 -2.1,1c-0.1,0 -0.2,-0.1 -0.2,-0.2c0,-0.1 0,-0.1 0.1,-0.2h0.1c1.1,-0.8 2.1,-1.8 3,-2.8c0.9,-1.1 1.8,-2.3 2.6,-3.4c1.7,-2.4 3.2,-4.9 4.7,-7.4c1.5,-2.5 2.9,-5.1 4.1,-7.7c0.3,-0.6 0.6,-1.3 0.8,-1.9c0.2,-0.7 0.2,-1.3 0.1,-2c-0.2,-1.4 -0.7,-2.6 -1.5,-3.7c-0.8,-1.1 -1.9,-2 -3.1,-2.7c-1.1,-0.7 -2.4,-0.9 -3.6,-0.5c-0.3,0.1 -0.5,0.3 -0.7,0.5c-0.2,0.3 -0.5,0.5 -0.7,0.8l-1.4,1.7l-2.6,3.4c-3.6,4.6 -7,9.4 -10.1,14.3c-0.1,0.1 -0.2,0.1 -0.3,0.1c0,-0.2 0,-0.3 0,-0.4z" id="Path" fill="#000000"/></g><g id="Group"><path d="M332.1,200.5c0.3,13.4 -16.2,10.9 -16.2,10.9c-4.9,-1.1 -9.2,-7.4 -6.1,-12.1c0.7,-1.2 1.9,-1.9 3.3,-2.1c-1.4,-2.7 -2.5,-5.6 -3.3,-8.6c-0.4,-2.1 -1.2,-6.6 1,-8c1.2,-0.7 2.7,-0.3 3.6,0.8c2.6,2.8 4.4,9 4.4,13l8.8,5c0.3,0.6 0.6,1.2 0.7,1.8z" id="Path" fill="#ae694f" stroke="none" stroke-linecap="butt"/><path d="M333,191.9c0.5,0.1 1,0.4 1.4,0.8c1.6,1.6 1.4,4.4 0.1,6.4c-0.7,1.2 -1.8,2.3 -3,3c-2.7,1.6 -4.5,-1.5 -4,-3.9c0.4,-2.2 2.7,-6.7 5.5,-6.3z" id="Path" fill="#ae694f" stroke="#000000" stroke-linecap="butt"/><path d="M326.6,189.9c0.6,-0.1 1.2,0 1.7,0.2c2.2,1 3.1,3.9 2.6,6.5c-0.3,1.5 -1,3 -1.9,4.2c-2.1,2.7 -5.2,0.2 -5.6,-2.4c-0.3,-2.4 0.2,-7.9 3.2,-8.5z" id="Path" fill="#ae694f" stroke="#000000" stroke-linecap="butt"/><path d="M322.2,189.3c0.6,-0.1 1.2,0 1.7,0.2c2.2,1 3.1,3.9 2.6,6.5c-0.3,1.5 -1,3 -1.9,4.2c-2.1,2.7 -5.2,0.2 -5.6,-2.4c-0.4,-2.4 0.2,-7.9 3.2,-8.5z" id="Path" fill="#ae694f" stroke="#000000" stroke-linecap="butt"/><path d="M313,196.8c-1.4,-2.6 -2.5,-5.3 -3.2,-8.1c-0.4,-2.1 -1.2,-6.5 1,-8c1.2,-0.8 4.8,-2.5 8.4,12.4" id="Path" fill="none" stroke="#030305" stroke-linecap="round"/><path d="M315.8,211.8c-3.3,-0.9 -6,-3.4 -7.1,-6.6c-0.5,-1.7 -0.5,-3.5 0.2,-5.1c0.2,-0.4 0.4,-0.8 0.6,-1.1c0.3,-0.4 0.6,-0.7 0.9,-1c0.7,-0.6 1.5,-1 2.4,-1.1c0.9,-0.1 1.8,0 2.6,0.4c0.8,0.4 1.5,0.9 2.1,1.4c0.6,0.5 1.2,1.2 1.8,1.8c0.6,0.7 1,1.5 1.2,2.4c0,0.2 0,0.5 0,0.7v0.4c0,0.1 -0.1,0.2 -0.1,0.4l-0.1,0.4l-0.2,0.3c-0.1,0.2 -0.3,0.4 -0.5,0.5c-0.3,0.3 -0.7,0.6 -1.1,0.8c-0.2,0.1 -0.5,0.2 -0.7,0.2c-0.2,0 -0.5,0 -0.7,0c-0.9,-0.1 -1.7,-0.4 -2.5,-0.9c-0.4,-0.2 -0.7,-0.5 -1,-0.9c-0.3,-0.3 -0.5,-0.8 -0.4,-1.2c0.5,0.6 1.1,1 1.9,1.3c0.7,0.3 1.4,0.6 2.1,0.7c0.2,0 0.3,0 0.5,0c0.1,0 0.3,-0.1 0.4,-0.1c0.3,-0.2 0.6,-0.4 0.9,-0.6c0.5,-0.4 0.8,-1.1 0.7,-1.8c-0.2,-0.7 -0.5,-1.4 -1,-2c-0.5,-0.6 -1,-1.2 -1.6,-1.7c-0.6,-0.5 -1.2,-1 -1.9,-1.3c-0.7,-0.3 -1.4,-0.4 -2.1,-0.3c-0.7,0.1 -1.4,0.4 -2,0.9c-0.6,0.5 -1,1.1 -1.3,1.8c-0.6,1.4 -0.7,3 -0.2,4.5c1,3.1 3.4,5.4 6.5,6.3c0.2,0.1 0.2,0.2 0.2,0.4c-0.3,0 -0.4,0 -0.5,0.1z" id="Path" fill="#030305" stroke="none" stroke-linecap="butt"/><path d="M320.2,204.5c0.9,0.5 1.6,1.4 2.1,2.3c0.2,0.5 0.4,1 0.5,1.5c0,0.3 0.1,0.6 0.1,0.8c0,0.1 0,0.3 -0.1,0.4c-0.1,0.2 -0.3,0.3 -0.5,0.3c-0.3,-0.2 -0.3,-0.3 -0.4,-0.4c0,-0.1 0,-0.2 0,-0.3c0,-0.2 0,-0.4 0,-0.6c0,-0.4 -0.2,-0.9 -0.3,-1.3c-0.3,-0.9 -0.9,-1.6 -1.6,-2.2c-0.1,-0.1 -0.2,-0.3 -0.1,-0.4c0,-0.1 0.2,-0.2 0.3,-0.1z" id="Path" fill="#030305" stroke="none" stroke-linecap="butt"/><path d="M332.6,201.7c0.1,0.9 0,1.7 -0.3,2.5c-0.2,0.8 -0.5,1.6 -0.9,2.4c-0.4,0.8 -0.9,1.5 -1.4,2.1c-0.3,0.3 -0.6,0.6 -1,0.9c-0.2,0.1 -0.4,0.2 -0.6,0.3c-0.3,0.1 -0.5,0 -0.8,-0.1c0,-0.2 0.2,-0.5 0.4,-0.6c0.1,-0.1 0.3,-0.3 0.4,-0.4c0.3,-0.2 0.6,-0.5 0.9,-0.7c0.5,-0.6 1,-1.2 1.4,-1.9c0.4,-0.7 0.7,-1.4 0.9,-2.2c0.3,-0.7 0.4,-1.5 0.4,-2.3c0,-0.2 0.1,-0.3 0.3,-0.3c0.1,0.1 0.3,0.2 0.3,0.3z" id="Path" fill="#030305" stroke="none" stroke-linecap="butt"/></g></g><path d="M278.7358,167.81633c-10.1,-6.1 -16.7,1.2 -18.6,1.6c-1.9,0.4 0.2,-15.6 0.2,-15.6c0.5,-5.1 3.9,-9.4 8.7,-11.1c3.6,-1.3 7.6,-0.1 9.8,3.1c2.2,3.1 2.2,18.6 -0.1,22z" data-paper-data="{&quot;origPos&quot;:null}" fill="#ffffff" fill-rule="evenodd" stroke="none" stroke-width="1" stroke-linecap="butt" stroke-linejoin="miter"/><path d="M260.2358,153.81633c0.6,-5.1 4,-9.3 8.7,-11.1c3,-1.2 6.5,-0.7 9,1.5c2.8,2.7 3.2,7.2 2.6,10.8" data-paper-data="{&quot;origPos&quot;:null}" fill="none" fill-rule="evenodd" stroke="#000000" stroke-width="1.24" stroke-linecap="round" stroke-linejoin="miter"/><path d="M264.03432,156.51707c0,-2.1 0.99851,-4.00074 2.09852,-5.80074c1.4,-2.1 3.59852,-1.7 4.49852,0.8c1.1,3 0.6,9.5 -1.5,12.2c-1.4,1.8 -3.69852,1.3 -4.39852,-1c-0.6,-1.9 -1.09851,-4.19926 -0.69851,-6.19926z" data-paper-data="{&quot;origPos&quot;:null}" fill="#000000" fill-rule="evenodd" stroke="none" stroke-width="1" stroke-linecap="butt" stroke-linejoin="miter"/><path d="M259.8358,170.31633c4.7,-5.8 16.7,-6.4 19.1,-1" data-paper-data="{&quot;origPos&quot;:null}" fill="none" fill-rule="evenodd" stroke="#000000" stroke-width="1.24" stroke-linecap="round" stroke-linejoin="miter"/></g></g></svg>