<svg version="1.1" xmlns="http://www.w3.org/2000/svg" xmlns:xlink="http://www.w3.org/1999/xlink" width="220.19553" height="230.52458" viewBox="0,0,220.19553,230.52458"><g transform="translate(-190.80655,-58.74241)"><g data-paper-data="{&quot;isPaintingLayer&quot;:true}" fill="none" fill-rule="none" stroke="none" stroke-width="none" stroke-linecap="none" stroke-linejoin="none" stroke-miterlimit="10" stroke-dasharray="" stroke-dashoffset="0" font-family="none" font-weight="none" font-size="none" text-anchor="none" style="mix-blend-mode: normal"><path d="M230.65245,198.6448c32.37686,-5.23163 38.59559,-4.04711 71.66342,-0.9871c24.08523,2.27033 32.47557,-3.75098 44.12334,-8.19293c11.15423,-4.34324 22.40716,-9.27874 33.95622,-10.46326c11.54907,-1.18452 23.59168,2.36904 29.61298,12.24004c-9.67358,-1.57936 -18.8536,4.63937 -27.63879,10.95681c-8.78519,6.31744 -17.8665,13.42456 -27.93492,14.80649c9.67358,10.56197 26.45427,12.93101 40.17495,6.12002c-4.04711,12.33875 -12.93101,22.70329 -24.08523,27.54008c-11.15423,4.83679 -22.99942,5.03421 -34.05493,2.76388c0,0 0.88839,14.70778 2.36904,17.57037c0,0 -37.41107,2.86259 -76.30279,-15.99101c-39.18785,-19.05102 -29.90911,-56.65951 -31.88331,-56.36338z" data-paper-data="{&quot;origPos&quot;:null}" id="Path" fill="#352b63" fill-rule="evenodd" stroke="#030305" stroke-width="1" stroke-linecap="butt" stroke-linejoin="miter"/><g data-paper-data="{&quot;origPos&quot;:null}" id="Group" fill-rule="evenodd"><path d="M316.92494,253.13269c0.78968,1.57936 2.66517,19.05102 3.84969,22.70329c-3.35614,8.98261 -27.44137,11.8452 -31.19234,6.02131c-0.59226,-8.68648 -0.69097,-19.74199 -0.69097,-19.74199c0.29613,-12.24004 24.7762,-15.69488 28.03363,-8.98261z" id="Path" fill="#fbd1a6" stroke="#030305" stroke-width="1" stroke-linecap="butt" stroke-linejoin="miter"/><g id="Path" stroke-width="1"><path d="M328.3753,284.71987c-1.28323,3.15872 -8.19293,3.35614 -14.21423,3.15872c-7.60067,-0.29613 -15.20133,-0.9871 -22.70329,-2.07291c-1.18452,-0.49355 -1.87549,-2.36904 -1.77678,-3.9484c-0.29613,-4.9355 -0.29613,-11.74649 -0.29613,-11.74649c0,0 17.66908,7.10712 29.71169,-2.66517c0.29613,2.46775 0.69097,4.9355 1.28323,7.50196c0.09871,0.39484 0.19742,0.78968 0.29613,1.18452c3.65227,2.07291 9.871,3.55356 7.69938,8.58777z" fill="#6ea3d7" stroke="#030305" stroke-linecap="round" stroke-linejoin="round"/><path d="M324.13077,280.17922c-0.29613,1.38194 -1.67807,2.36904 -3.06001,2.27033c-1.67807,-0.09871 -3.06001,-0.88839 -2.9613,-1.87549c0.29613,-1.38194 1.57936,-2.36904 3.06001,-2.27033c1.67807,0.09871 3.06001,0.88839 2.9613,1.87549z" fill="#9fdbf8" stroke="none" stroke-linecap="butt" stroke-linejoin="miter"/></g><path d="M321.95914,258.75916c0,0 -8.8839,9.77229 -37.31236,3.15872c0,-1.28323 -0.19742,-2.46775 -0.39484,-3.75098c-0.29613,-0.78968 -7.50196,-5.23163 -4.04711,-15.30004c4.83679,-14.11552 31.09363,-6.71228 36.12784,-0.39484z" id="Path" fill="#df6282" stroke="none" stroke-width="1" stroke-linecap="butt" stroke-linejoin="miter"/><path d="M321.95914,258.75916c0,0 -8.8839,9.77229 -37.31236,3.15872c0,-1.28323 -0.19742,-2.46775 -0.39484,-3.75098c-0.29613,-0.78968 -7.50196,-5.23163 -4.04711,-15.30004c4.83679,-14.11552 31.09363,-6.71228 36.12784,-0.39484z" id="Path" fill="none" stroke="#030305" stroke-width="1.08" stroke-linecap="butt" stroke-linejoin="miter"/></g><g data-paper-data="{&quot;origPos&quot;:null}" id="Group" fill-rule="evenodd"><path d="M280.79711,262.21401c0,0 -0.69097,18.16263 -1.38194,19.24844c-4.24453,6.61357 -30.99492,1.57936 -30.20524,-6.9097c0.88839,-4.83679 2.56646,-19.34715 3.55356,-21.32135c3.15872,-6.61357 27.7375,-3.15872 28.03363,8.98261z" id="Path" fill="#fbd1a6" stroke="#030305" stroke-width="1" stroke-linecap="butt" stroke-linejoin="miter"/><g stroke-width="1"><path d="M279.41517,281.46245c-0.19742,1.57936 -0.59226,3.45485 -1.77678,3.9484c-7.69938,1.77678 -15.49746,2.9613 -23.29555,3.35614c-6.02131,0.19742 -12.43746,-0.78968 -13.72069,-3.9484c-2.07291,-5.03421 4.04711,-6.12002 7.60067,-7.99551c0.09871,-0.39484 0.19742,-0.78968 0.29613,-1.08581c0.69097,-2.66517 1.08581,-5.33034 1.48065,-8.09422c12.04262,9.77229 30.60008,1.08581 30.60008,1.08581c-0.19742,4.63937 -0.49355,8.19293 -1.18452,12.73359z" id="Path" fill="#6ea3d7" stroke="#030305" stroke-linecap="round" stroke-linejoin="round"/><path d="M242.86095,282.84632c-0.32107,-0.92722 0.71316,-2.12715 2.31004,-2.68011c1.59688,-0.55296 3.15169,-0.24958 3.47276,0.67765c0.32107,0.92722 -0.71316,2.12715 -2.31004,2.68011c-1.59688,0.55296 -3.15169,0.24958 -3.47276,-0.67765z" id="Oval" fill="#9fdbf8" stroke="none" stroke-linecap="butt" stroke-linejoin="miter"/></g><path d="M286.7197,264.58305c0,0 -23.29555,3.55356 -37.11494,-5.23163c0,0 6.02131,-20.23554 6.71228,-23.59168c0.39484,-2.07291 18.95231,-5.52776 30.50137,-0.78968z" id="Path" fill="#df6282" stroke="none" stroke-width="1" stroke-linecap="butt" stroke-linejoin="miter"/><path d="M286.7197,258.46303v6.12002c0,0 -23.29555,3.55356 -37.11494,-5.23163c0,0 6.02131,-20.23554 6.71228,-23.59168c0.39484,-2.07291 13.8194,-6.61357 25.26975,-1.87549" id="Path" fill="none" stroke="#030305" stroke-width="1.08" stroke-linecap="butt" stroke-linejoin="miter"/></g><path d="M297.57779,256.29141c0,0 -8.98261,2.07291 -13.42456,1.9742" data-paper-data="{&quot;origPos&quot;:null}" id="Path" fill="none" fill-rule="evenodd" stroke="#030305" stroke-width="1.08" stroke-linecap="round" stroke-linejoin="miter"/><g data-paper-data="{&quot;origPos&quot;:null}" id="Group" stroke-linejoin="miter"><g stroke="none" stroke-width="1" stroke-linecap="butt"><path d="M385.03481,208.41709c-0.49355,1.67807 -2.46775,2.36904 -4.14582,2.36904c-3.06001,0.09871 -9.47616,-2.86259 -9.67358,-1.38194c-0.29613,2.27033 8.68648,1.77678 9.47616,8.19293c0.19742,0.78968 -0.69097,1.48065 -1.48065,1.87549c-0.78968,0.29613 -1.67807,0.39484 -2.56646,0.29613c-2.27033,-0.19742 -5.03421,-2.07291 -7.10712,-3.55356c0,0.09871 -0.59226,0.9871 -0.88839,1.38194c0.88839,1.67807 3.84969,7.60067 1.87549,8.98261c-3.25743,2.17162 -7.10712,-4.73808 -8.19293,-7.8968l-0.09871,0.78968c-8.29164,0.88839 -10.16713,-2.9613 -11.54907,-4.44195c0,0 -23.59168,0.9871 -39.48398,1.08581c-6.31744,0 -11.94391,-18.16263 0.29613,-22.30845c14.80649,-4.9355 46.19625,-2.76388 46.98593,-4.24453c0.19742,-0.49355 0.39484,-0.9871 0.49355,-1.48065c0.88839,-3.06001 3.06001,-10.26584 7.79809,-7.79809c2.86259,1.48065 2.66517,5.13292 1.87549,7.60067c-0.29613,1.08581 -1.08581,2.76388 -1.67807,4.04711l0.09871,0.09871c1.9742,0.19742 4.63937,0.09871 6.51486,0.09871c4.44195,0 12.24004,1.18452 11.74649,5.13292c-0.39484,2.9613 -2.17162,3.9484 -10.46326,3.65227c-0.59226,-0.09871 -2.27033,-0.19742 -3.55356,-0.09871v1.28323c0.09871,0.09871 0.29613,0.09871 0.39484,0.19742c2.56646,0.9871 11.05552,0.19742 13.32585,3.35614c0.49355,0.78968 0.59226,1.87549 0,2.76388z" id="Path" fill="#fbd1a6" fill-rule="evenodd"/><g fill="#030305"><path d="M371.41284,201.11255c0,0.29613 -0.09871,0.39484 0,0.49355c0.59226,0.69097 5.72518,0.78968 7.10712,0.9871c1.48065,0.19742 2.86259,0.49355 4.24453,0.9871c0.69097,0.29613 1.38194,0.69097 1.9742,1.18452c0.59226,0.59226 0.9871,1.38194 0.9871,2.27033c0,0.39484 -0.09871,0.78968 -0.19742,1.18452c-0.09871,0.39484 -0.29613,0.78968 -0.49355,1.08581c-0.49355,0.69097 -1.18452,1.18452 -1.9742,1.38194c-0.69097,0.29613 -1.48065,0.39484 -2.27033,0.39484c-0.69097,0 -1.48065,0 -2.17162,-0.09871c-1.48065,-0.19742 -2.86259,-0.49355 -4.24453,-0.78968c-0.69097,-0.19742 -1.38194,-0.29613 -2.07291,-0.49355c-0.19742,0 -0.49355,-0.09871 -0.69097,-0.19742c-0.09871,0.29613 0,0.69097 0,0.69097c0.59226,0.09871 1.18452,0.19742 1.77678,0.39484c1.18452,0.39484 2.27033,0.88839 3.25743,1.38194c1.08581,0.59226 2.07291,1.28323 2.9613,2.17162c1.87549,1.9742 1.38194,3.65227 1.38194,3.65227c-0.19742,0.69097 -0.59226,1.28323 -1.08581,1.67807c-0.49355,0.39484 -1.18452,0.69097 -1.87549,0.78968c-1.28323,0.09871 -2.56646,-0.09871 -3.75098,-0.59226c-1.08581,-0.49355 -2.17162,-0.9871 -3.15872,-1.67807c-0.39484,-0.29613 -0.88839,-0.69097 -1.28323,-1.08581c-0.09871,0.09871 -0.19742,0.19742 -0.29613,0.19742l0.59226,1.28323c0.49355,0.9871 0.88839,1.9742 1.28323,2.9613c0.39484,0.9871 0.69097,2.07291 0.78968,3.15872c0.09871,0.59226 0,1.28323 -0.29613,1.87549c-0.19742,0.29613 -0.39484,0.59226 -0.78968,0.78968c-0.29613,0.19742 -0.59226,0.29613 -0.88839,0.39484c-0.59226,0.09871 -1.28323,0.09871 -1.87549,-0.19742c-0.49355,-0.19742 -0.9871,-0.59226 -1.48065,-0.88839c-0.78968,-0.69097 -1.57936,-1.57936 -2.17162,-2.46775c-1.08581,-1.48065 -1.77678,-2.9613 -2.17162,-4.44195c0,0.19742 -0.09871,0.19742 -0.19742,0.19742c-1.08581,0.19742 -2.27033,0.19742 -3.35614,0.19742c-1.18452,0 -2.27033,-0.19742 -3.35614,-0.49355c-1.08581,-0.39484 -2.17162,-0.88839 -3.06001,-1.67807c-0.69097,-0.69097 -1.38194,-1.48065 -2.07291,-2.27033c-11.8452,0.49355 -23.88781,0.88839 -35.83171,1.08581h-2.27033h-1.08581c-0.39484,0 -0.88839,0 -1.28323,-0.19742c-1.57936,-0.59226 -2.86259,-1.57936 -3.75098,-3.06001c-1.67807,-2.66517 -2.66517,-5.62647 -2.66517,-8.78519c-0.19742,-3.15872 0.9871,-6.31744 3.06001,-8.58777c1.08581,-1.18452 2.46775,-1.9742 3.9484,-2.56646c1.48065,-0.49355 2.86259,-0.9871 4.34324,-1.28323c5.9226,-1.18452 11.94391,-1.87549 17.96521,-2.17162c6.02131,-0.29613 12.04262,-0.39484 17.96521,-0.49355c1.48065,0 2.9613,-0.09871 4.44195,-0.09871c0.69097,0 1.48065,-0.09871 2.17162,-0.19742c0.09871,0 0.59226,-0.9871 0.69097,-1.28323c0.39484,-1.48065 0.88839,-2.9613 1.48065,-4.34324c0.59226,-1.48065 1.57936,-2.76388 2.86259,-3.75098c0.69097,-0.49355 1.57936,-0.69097 2.46775,-0.59226c0.88839,0.09871 1.67807,0.39484 2.36904,0.88839c0.69097,0.49355 1.18452,1.18452 1.57936,1.9742c0.29613,0.78968 0.49355,1.57936 0.49355,2.36904c0,1.57936 -0.29613,3.15872 -0.88839,4.63937c-0.39484,0.78968 -0.78968,1.67807 -1.28323,2.46775c2.9613,0.29613 6.12002,-0.19742 9.18003,0.09871c1.57936,0.09871 3.15872,0.39484 4.73808,0.88839c0.78968,0.19742 1.57936,0.49355 2.27033,0.88839c0.78968,0.39484 1.48065,0.9871 1.9742,1.67807c0.29613,0.39484 0.39484,0.78968 0.49355,1.28323c0,0.49355 0,0.88839 -0.09871,1.38194c-0.09871,0.88839 -0.59226,1.67807 -1.28323,2.27033c-0.69097,0.49355 -1.48065,0.88839 -2.36904,0.9871c-0.78968,0.19742 -1.57936,0.29613 -2.36904,0.29613c-1.57936,0.09871 -3.15872,0.09871 -4.73808,0c-0.78968,-0.09871 -1.57936,-0.09871 -2.36904,-0.09871c-0.49355,0 -0.88839,0 -1.28323,-0.09871zM370.22832,200.81642c0.19742,-0.09871 1.87549,-0.59226 2.36904,-0.59226h2.36904c1.57936,0 3.06001,0 4.63937,-0.09871c1.48065,0 2.86259,-0.29613 4.14582,-0.9871c0.49355,-0.39484 0.88839,-0.9871 0.9871,-1.67807c0.19742,-0.59226 0.09871,-1.28323 -0.19742,-1.87549c-0.9871,-1.08581 -2.17162,-1.87549 -3.65227,-2.17162c-1.48065,-0.39484 -2.9613,-0.69097 -4.54066,-0.88839c-3.06001,-0.39484 -6.21873,0 -9.37745,-0.39484h-0.09871c-0.19742,0.29613 -0.39484,0.49355 -0.59226,0.78968c0.19742,-1.48065 0.69097,-2.9613 1.28323,-4.34324c0.59226,-1.28323 0.88839,-2.76388 0.88839,-4.14582c0,-1.38194 -0.59226,-2.66517 -1.57936,-3.55356c-0.9871,-0.88839 -2.46775,-0.9871 -3.55356,-0.29613c-1.08581,0.88839 -1.9742,2.07291 -2.46775,3.35614c-0.59226,1.38194 -1.08581,2.76388 -1.38194,4.14582c-0.09871,0.39484 -0.39484,2.27033 -3.84969,2.17162c-1.48065,0.09871 -3.06001,0.09871 -4.54066,0.09871c-6.02131,0.09871 -11.94391,0.09871 -17.96521,0.49355c-5.9226,0.19742 -11.94391,0.88839 -17.76779,2.07291c-1.48065,0.29613 -2.86259,0.69097 -4.24453,1.18452c-1.38194,0.49355 -2.56646,1.28323 -3.55356,2.27033c-1.9742,2.17162 -2.9613,5.03421 -2.76388,7.8968c0,2.9613 0.88839,5.72518 2.46775,8.19293c0.69097,1.18452 1.77678,2.07291 3.06001,2.56646c0.29613,0.09871 0.69097,0.09871 0.9871,0.09871h1.08581h2.27033c11.94391,-0.19742 23.98652,-0.59226 35.93042,-1.08581h0.19742l0.19742,0.19742c0.69097,0.78968 1.38194,1.57936 2.17162,2.36904c0.78968,0.69097 1.67807,1.18452 2.66517,1.48065c0.9871,0.29613 2.07291,0.49355 3.06001,0.59226c1.08581,0.09871 2.46775,0 3.45485,-0.09871v0c0,-0.29613 -0.09871,-0.59226 -0.09871,-0.88839c0.49355,0.9871 0.9871,1.87549 1.57936,2.76388c0.59226,0.88839 0.9871,1.77678 1.57936,2.66517c0.59226,0.88839 1.18452,1.57936 1.9742,2.27033c0.59226,0.69097 1.48065,0.9871 2.36904,0.88839c0.19742,0 0.39484,-0.09871 0.59226,-0.19742c0.19742,-0.09871 0.29613,-0.19742 0.39484,-0.39484c0.19742,-0.39484 0.19742,-0.78968 0.19742,-1.28323c-0.09871,-0.9871 -0.39484,-1.9742 -0.69097,-2.86259c-0.39484,-0.9871 -1.57936,-3.55356 -1.57936,-4.34324c0,-0.19742 0,-0.39484 0.19742,-0.69097c0.09871,-0.09871 0.29613,-0.19742 0.39484,-0.29613c-0.19742,-0.19742 -0.29613,-0.39484 -0.39484,-0.69097c0.59226,0.09871 1.18452,0.29613 1.67807,0.69097c0.49355,0.29613 0.9871,0.59226 1.48065,0.88839c0.9871,0.59226 1.9742,1.18452 3.06001,1.67807c0.9871,0.49355 2.07291,0.69097 3.15872,0.59226c0.49355,-0.09871 0.9871,-0.19742 1.38194,-0.59226c0.39484,-0.29613 0.69097,-0.69097 0.78968,-1.18452c0.09871,-1.08581 -0.29613,-2.07291 -1.08581,-2.76388c-0.78968,-0.78968 -1.67807,-1.48065 -2.76388,-2.07291c-0.9871,-0.59226 -2.07291,-1.08581 -3.15872,-1.48065c-0.49355,-0.19742 -1.08581,-0.29613 -1.57936,-0.39484c0,0 -0.88839,-0.09871 -0.88839,-0.78968c0,-0.29613 0.09871,-0.59226 0.19742,-0.88839c-0.19742,-0.09871 -0.39484,-0.19742 -0.59226,-0.29613c0.69097,-0.19742 3.55356,0.19742 4.24453,0.29613c1.38194,0.29613 2.76388,0.69097 4.14582,0.88839c1.28323,0.29613 2.66517,0.19742 4.04711,-0.19742c0.59226,-0.19742 1.08581,-0.49355 1.48065,-0.9871c0.19742,-0.19742 0.29613,-0.49355 0.39484,-0.78968c0.09871,-0.29613 0.09871,-0.69097 0.09871,-0.9871c0.09871,-1.18452 -1.08581,-2.07291 -2.36904,-2.56646c-1.28323,-0.49355 -2.66517,-0.78968 -4.04711,-0.9871c-1.38194,-0.19742 -2.86259,-0.29613 -4.24453,-0.49355c-0.69097,-0.09871 -1.48065,-0.19742 -2.17162,-0.39484c-0.39484,-0.09871 -0.78968,-0.29613 -1.08581,-0.59226c-0.19742,-0.19742 -0.19742,-0.9871 -0.19742,-1.08581c-0.19742,0 -0.39484,-0.09871 -0.59226,-0.19742z" id="Shape" fill-rule="nonzero"/><path d="M355.61925,204.66611c0.09871,-0.19742 0.19742,-0.29613 0.39484,-0.29613h0.29613l0.59226,0.19742c0.29613,0.09871 0.69097,0.29613 0.9871,0.49355c0.59226,0.39484 1.28323,0.78968 1.77678,1.28323c0.59226,0.49355 1.08581,1.08581 1.48065,1.67807c0.19742,0.29613 0.39484,0.59226 0.49355,0.9871c0.19742,0.39484 0.19742,0.78968 0.09871,1.18452c-0.49355,-0.49355 -0.88839,-1.08581 -1.28323,-1.67807c-0.39484,-0.59226 -0.88839,-1.08581 -1.38194,-1.48065c-0.49355,-0.49355 -1.08581,-0.88839 -1.67807,-1.18452c-0.29613,-0.19742 -0.59226,-0.29613 -0.88839,-0.49355c-0.09871,-0.09871 -0.29613,-0.09871 -0.49355,-0.19742c-0.09871,0 -0.19742,-0.09871 -0.19742,-0.09871c-0.09871,-0.09871 -0.19742,-0.09871 -0.19742,-0.39484z" id="Path" fill-rule="evenodd"/></g></g><path d="M311.69332,216.01776c-7.00841,0.09871 -9.77229,-12.8323 -4.9355,-18.8536c4.83679,-6.02131 21.12393,-6.21873 21.12393,-6.21873c-3.25743,6.61357 0.49355,23.59168 1.87549,24.38136c0,0 -11.05552,0.59226 -18.06392,0.69097z" id="Path" fill="#9ab8a4" fill-rule="evenodd" stroke="none" stroke-width="1" stroke-linecap="butt"/><path d="M329.75723,215.32679c-1.28323,-0.78968 -5.13292,-17.76779 -1.87549,-24.38136" id="Path" fill="none" fill-rule="evenodd" stroke="#030305" stroke-width="1.08" stroke-linecap="round"/></g><g data-paper-data="{&quot;origPos&quot;:null}" id="Group" fill-rule="evenodd" stroke-linejoin="miter"><path d="M323.04496,205.25837c0.59226,7.40325 0.09871,14.80649 -1.48065,22.01232c0,0 -3.15872,13.12843 -1.67807,20.13683c-14.60907,5.13292 -57.25177,0.49355 -67.02406,-8.48906c6.41615,-26.05943 -5.52776,-47.77561 4.9355,-51.72401c16.68198,-6.21873 57.84403,-9.67358 65.24728,18.06392z" id="Path" fill="#9ab8a4" stroke="none" stroke-width="1" stroke-linecap="butt"/><path d="M322.55141,203.5803c0,0 3.35614,5.62647 -0.9871,23.7891c0,0 -3.15872,13.12843 -1.67807,20.13683c-14.60907,5.13292 -57.25177,0.49355 -67.02406,-8.48906c6.41615,-26.05943 -5.52776,-47.87432 4.9355,-51.72401c8.39035,-3.06001 39.08914,-13.62198 57.5479,5.13292" id="Path" fill="none" stroke="#030305" stroke-width="1.08" stroke-linecap="round"/></g><path d="M275.36806,200.22416c1.18452,-1.48065 2.76388,-2.66517 4.63937,-3.15872c3.25743,-1.08581 7.20583,-0.29613 10.36455,0.9871c3.15872,1.38194 5.82389,3.45485 7.99551,6.02131l0.19742,0.19742l0.19742,-0.29613c1.67807,-2.17162 3.75098,-4.04711 6.21873,-5.42905c2.46775,-1.48065 6.12002,-1.67807 8.39035,0c2.07291,1.57936 2.9613,4.34324 3.06001,6.9097c0.29613,7.50196 -12.8323,27.04653 -21.8149,32.87041c0,0 -20.92651,-16.38585 -21.12393,-30.40266c0,-2.17162 0.59226,-5.9226 1.87549,-7.69938z" data-paper-data="{&quot;origPos&quot;:null}" id="Path" fill="#e0f1ec" fill-rule="evenodd" stroke="none" stroke-width="1" stroke-linecap="butt" stroke-linejoin="miter"/><g data-paper-data="{&quot;origPos&quot;:null}" id="Group" fill-rule="evenodd" stroke-linejoin="miter"><path d="M267.76739,238.42491c-0.78968,1.08581 -1.77678,1.9742 -3.06001,2.46775c-0.59226,1.87549 -2.86259,6.21873 -6.02131,6.51486c0.59226,0.39484 -1.87549,3.15872 -4.73808,3.75098c-0.29613,1.57936 -6.02131,3.45485 -7.79809,2.07291c-2.07291,-1.57936 -6.61357,-3.65227 -10.26584,-8.68648c-3.65227,-5.03421 -4.04711,-23.39426 16.68198,-18.75489c0,0 3.75098,-3.15872 6.9097,-1.77678c1.28323,0.59226 4.24453,3.35614 3.25743,5.72518c0.39484,0.09871 0.78968,0.19742 1.18452,0.39484c2.76388,1.38194 5.82389,3.65227 3.84969,8.29164z" id="Path" fill="#fbd1a6" stroke="none" stroke-width="1" stroke-linecap="butt"/><path d="M261.05511,233.29199c-1.57936,-0.49355 -2.86259,-1.57936 -3.45485,-3.15872" id="Path" fill="none" stroke="#030305" stroke-width="1.08" stroke-linecap="round"/><g id="Path" fill="none" stroke="#030305" stroke-width="1.08"><path d="M254.73769,250.96107c-2.07291,3.75098 -6.9097,3.06001 -8.68648,2.36904c-4.14582,-1.9742 -7.69938,-4.9355 -10.26584,-8.68648c-3.65227,-5.03421 -3.9484,-23.39426 16.68198,-18.75489c0,0 3.65227,-3.25743 6.9097,-1.77678c1.38194,0.59226 4.54066,3.55356 3.15872,6.02131" stroke-linecap="butt"/><path d="M259.08092,231.91005c0,0 1.08581,-3.55356 4.83679,-1.77678c2.76388,1.28323 5.82389,3.55356 3.75098,8.29164c-0.78968,1.9742 -3.15872,2.9613 -5.13292,2.17162c-0.09871,-0.09871 -0.29613,-0.09871 -0.39484,-0.19742" stroke-linecap="round"/><path d="M264.60866,240.89266c0.49355,1.38194 -2.9613,8.39035 -8.78519,6.12002" stroke-linecap="round"/><path d="M258.68608,247.50622c0,0 -1.67807,5.33034 -8.58777,2.46775" stroke-linecap="round"/></g><path d="M248.51896,236.64813c-4.54066,7.50196 -9.96971,10.06842 -12.53617,7.50196c-7.40325,-7.50196 -16.78069,-23.19684 -15.99101,-28.52717c1.38194,-9.96971 26.55298,-6.81099 27.34266,1.48065c0.19742,2.07291 2.07291,6.02131 5.23163,8.68648c0,0 0.49355,3.35614 -4.04711,10.8581z" id="Path" fill="#fbd1a6" stroke="none" stroke-width="1" stroke-linecap="butt"/><path d="M235.58795,244.34751c-7.99551,-9.37745 -16.28714,-23.39426 -15.59617,-28.72459c1.38194,-9.871 26.55298,-6.71228 27.34266,1.48065c0.19742,2.07291 2.07291,6.02131 5.23163,8.68648" id="Path" fill="none" stroke="#030305" stroke-width="1.08" stroke-linecap="round"/><path d="M254.73769,209.10806c-0.69097,0.49355 -7.50196,5.72518 -8.48906,8.29164c-1.9742,4.9355 -23.88781,5.72518 -25.46717,-0.88839c-1.67807,-6.9097 14.51036,-28.92201 27.04653,-30.00782" id="Path" fill="#fbd1a6" stroke="none" stroke-width="1" stroke-linecap="butt"/><path d="M246.34734,186.7009c4.34324,-1.28323 12.04262,0.39484 14.80649,3.65227c2.76388,3.25743 3.35614,16.28714 0.19742,17.37295c-3.15872,1.08581 -12.93101,7.20583 -12.93101,7.20583c-1.28323,-4.73808 -14.11552,-15.59617 -20.13683,-14.80649c0,0 9.77229,-11.05552 18.06392,-13.42456z" id="Path" fill="#9ab8a4" stroke="none" stroke-width="1" stroke-linecap="butt"/><path d="M219.99178,215.62292c1.38194,-11.05552 17.96521,-27.63879 28.8233,-29.51427" id="Path" fill="none" stroke="#030305" stroke-width="1.08" stroke-linecap="round"/><path d="M247.03831,217.10357c0,-2.76388 13.32585,-10.06842 18.26134,-10.06842" id="Path" fill="none" stroke="#030305" stroke-width="1.08" stroke-linecap="round"/><path d="M228.28341,200.22416c6.12002,-1.08581 18.65618,9.77229 19.8407,14.60907" id="Path" fill="none" stroke="#030305" stroke-width="1.08" stroke-linecap="butt"/></g><path d="M345.64954,189.16865c-9.67358,4.83679 -20.63038,6.41615 -31.29105,4.44195c-17.66908,-3.35614 -41.55689,-17.47166 -18.55747,-14.9052c11.74649,1.38194 44.22205,9.871 49.84852,10.46326z" data-paper-data="{&quot;origPos&quot;:null}" id="Path" fill="#4b3f8f" fill-rule="evenodd" stroke="#030305" stroke-width="1" stroke-linecap="butt" stroke-linejoin="miter"/><path d="M292.24746,171.59827c18.8536,3.9484 7.60067,21.32135 7.60067,21.32135c-31.38976,16.08972 -70.28149,5.72518 -70.28149,5.72518c2.36904,-7.40325 44.51818,-30.7975 62.68082,-27.04653z" data-paper-data="{&quot;origPos&quot;:null}" id="Path" fill="#4c3e8e" fill-rule="evenodd" stroke="#030305" stroke-width="1.08" stroke-linecap="round" stroke-linejoin="miter"/><g data-paper-data="{&quot;origPos&quot;:null}" id="Group" stroke-linejoin="miter"><path d="M342.09598,170.01892c2.17162,8.8839 -9.47616,23.59168 -22.70329,10.06842c-12.43746,-12.73359 9.27874,-38.79301 10.46326,-21.32135c0.29613,4.63937 6.61357,7.40325 13.12843,3.65227c0,0 1.9742,8.29164 -4.83679,9.57487" id="Path" fill="#de9143" fill-rule="evenodd" stroke="none" stroke-width="1" stroke-linecap="butt"/><path d="M343.87276,165.37955c0,1.08581 -0.29613,2.17162 -0.69097,3.15872c-0.19742,0.49355 -0.39484,0.88839 -0.69097,1.28323h0.09871c0.39484,1.9742 0.39484,3.9484 -0.19742,5.9226c-0.49355,1.87549 -1.38194,3.65227 -2.56646,5.23163c-1.18452,1.57936 -2.76388,2.9613 -4.44195,3.84969c-1.77678,0.9871 -3.75098,1.38194 -5.82389,1.28323c-1.9742,-0.09871 -3.9484,-0.69097 -5.72518,-1.77678c-1.67807,-0.9871 -3.25743,-2.17162 -4.63937,-3.55356c-1.48065,-1.38194 -2.56646,-3.06001 -3.35614,-4.9355c-0.69097,-1.87549 -1.08581,-3.84969 -1.08581,-5.82389c0.09871,-3.9484 1.18452,-7.79809 3.25743,-11.15423c0.9871,-1.67807 2.17162,-3.25743 3.65227,-4.63937c0.78968,-0.69097 1.57936,-1.28323 2.56646,-1.67807c0.9871,-0.49355 2.27033,-0.59226 3.35614,-0.19742c1.08581,0.49355 1.87549,1.38194 2.27033,2.46775c0.39484,0.9871 0.59226,1.9742 0.69097,2.9613c0.09871,0.49355 0.09871,0.9871 0.09871,1.38194c0.09871,0.39484 0.19742,0.78968 0.39484,1.18452c0.39484,0.69097 0.88839,1.38194 1.57936,1.77678c1.48065,0.9871 3.15872,1.38194 4.9355,1.18452c1.77678,-0.19742 3.55356,-0.69097 5.03421,-1.57936l0.88839,-0.49355l0.19742,0.9871c0.19742,1.08581 0.29613,2.17162 0.19742,3.15872zM342.49082,165.37955c0,-0.59226 0,-1.28323 -0.09871,-1.87549c-1.57936,0.69097 -3.15872,1.18452 -4.83679,1.28323c-2.07291,0.19742 -4.14582,-0.29613 -5.9226,-1.48065c-0.88839,-0.59226 -1.57936,-1.38194 -2.07291,-2.36904c-0.29613,-0.49355 -0.39484,-0.9871 -0.49355,-1.57936c-0.09871,-0.59226 -0.09871,-0.9871 -0.19742,-1.48065c-0.09871,-0.88839 -0.29613,-1.77678 -0.59226,-2.56646c-0.19742,-0.69097 -0.78968,-1.28323 -1.38194,-1.67807c-0.69097,-0.19742 -1.48065,-0.19742 -2.17162,0.19742c-0.78968,0.39484 -1.48065,0.88839 -2.17162,1.48065c-1.28323,1.28323 -2.46775,2.66517 -3.35614,4.24453c-1.87549,3.15872 -2.9613,6.71228 -3.06001,10.46326c-0.09871,3.65227 1.28323,7.20583 3.9484,9.67358c2.56646,2.56646 5.82389,4.73808 9.37745,4.9355c1.77678,0.09871 3.55356,-0.19742 5.13292,-1.08581c1.57936,-0.88839 2.9613,-2.07291 4.04711,-3.45485c1.08581,-1.48065 1.9742,-3.06001 2.46775,-4.83679c0.39484,-1.48065 0.49355,-2.9613 0.29613,-4.44195c-0.09871,0.09871 -0.19742,0.19742 -0.29613,0.29613c-0.88839,0.59226 -1.9742,0.88839 -3.06001,0.78968c0.88839,-0.49355 1.67807,-0.9871 2.46775,-1.57936c0.69097,-0.59226 1.18452,-1.38194 1.48065,-2.17162c0.29613,-0.88839 0.49355,-1.77678 0.49355,-2.76388z" id="Shape" fill="#000000" fill-rule="nonzero" stroke="none" stroke-width="1" stroke-linecap="butt"/><path d="M330.84305,167.15633c0,0 6.12002,5.42905 4.34324,12.73359c-3.55356,14.11552 -23.59168,14.70778 -46.78851,13.72069c-69.88665,-3.25743 -85.58152,-44.7156 -68.01116,-77.09247c14.41165,-26.55298 82.22539,-36.02913 107.59384,-9.08132c12.33875,13.02972 4.83679,50.73691 2.86259,59.71952z" id="Path" fill="#fbd1a6" fill-rule="evenodd" stroke="none" stroke-width="1" stroke-linecap="butt"/><path d="M244.47185,102.3039c-8.8839,17.17553 -30.10653,27.44137 -42.14915,21.12393c-12.04262,-6.31744 -14.60907,-25.46717 -5.72518,-42.7414c8.8839,-17.27424 27.54008,-25.66459 39.58269,-19.34715c12.04262,6.31744 17.07682,23.69039 8.29164,40.96463z" id="Path" fill="#de9143" fill-rule="evenodd" stroke="#000000" stroke-width="1" stroke-linecap="butt"/><path d="M327.88175,107.63423c6.9097,7.30454 7.60067,22.20974 6.61357,35.53558c-17.27424,-0.49355 -30.89621,-18.75489 -30.89621,-18.75489c-2.27033,3.45485 -8.78519,-4.04711 -8.78519,-4.04711c0.49355,3.25743 0.49355,8.8839 -2.46775,9.57487c-3.35614,0.78968 -5.62647,-11.45036 -5.62647,-11.45036c-1.28323,2.46775 -14.11552,21.8149 -30.30395,24.87491c-18.45876,3.55356 -15.69488,35.93042 -19.24844,37.31236c0,0 -7.50196,-3.55356 -14.01682,-12.8323c-13.02972,-18.55747 -11.45036,-36.02913 -2.9613,-51.13175c14.70778,-26.35556 82.22539,-36.02913 107.69255,-9.08132z" id="Path" fill="#de9143" fill-rule="evenodd" stroke="none" stroke-width="1" stroke-linecap="butt"/><path d="M237.85828,181.07443c-25.36846,-15.59617 -29.61298,-42.34657 -17.66908,-64.35889c14.41165,-26.55298 82.22539,-36.02913 107.59384,-9.08132c12.43746,13.22714 4.83679,50.93433 2.9613,59.91694c0,0 6.12002,5.42905 4.34324,12.73359c-3.55356,14.11552 -23.59168,14.70778 -46.88722,13.72069c-15.59617,-0.69097 -29.90911,-3.9484 -40.37237,-7.8968" id="Path" fill="none" fill-rule="evenodd" stroke="#000000" stroke-width="1.29" stroke-linecap="round"/><path d="M212.98337,168.8344c0,-9.10418 7.38039,-16.48456 16.48456,-16.48456c9.10418,0 16.48456,7.38039 16.48456,16.48456c0,9.10418 -7.38039,16.48456 -16.48456,16.48456c-9.10418,0 -16.48456,-7.38039 -16.48456,-16.48456z" id="Oval" fill="#fbd1a6" fill-rule="evenodd" stroke="none" stroke-width="1" stroke-linecap="butt"/><path d="M212.98337,168.8344c0,-9.10418 7.38039,-16.48456 16.48456,-16.48456c9.10418,0 16.48456,7.38039 16.48456,16.48456c0,9.10418 -7.38039,16.48456 -16.48456,16.48456c-9.10418,0 -16.48456,-7.38039 -16.48456,-16.48456z" id="Oval" fill="none" fill-rule="evenodd" stroke="#000000" stroke-width="1.29" stroke-linecap="butt"/><path d="M256.11962,142.87368c1.67807,-0.69097 3.25743,-1.18452 4.9355,-1.9742l2.36904,-1.08581l1.18452,-0.59226l1.18452,-0.69097l2.27033,-1.28323l2.17162,-1.48065l1.08581,-0.69097l0.9871,-0.78968c0.69097,-0.59226 1.38194,-1.08581 2.07291,-1.67807c2.66517,-2.27033 5.13292,-4.73808 7.30454,-7.50196c1.08581,-1.38194 2.07291,-2.76388 2.9613,-4.24453l1.28323,-2.27033c0.49355,-0.78968 0.9871,-1.48065 1.67807,-2.07291c0,0.88839 -0.19742,1.87549 -0.59226,2.66517c-0.39484,0.78968 -0.78968,1.57936 -1.28323,2.36904c-0.88839,1.57936 -1.9742,2.9613 -3.06001,4.44195c-2.17162,2.86259 -4.73808,5.42905 -7.50196,7.69938c-0.69097,0.59226 -1.38194,1.08581 -2.07291,1.67807l-1.08581,0.78968l-1.08581,0.78968l-2.27033,1.38194l-2.36904,1.28323l-1.18452,0.69097c-0.39484,0.19742 -0.78968,0.39484 -1.18452,0.59226l-2.46775,1.18452c-1.67807,0.69097 -3.35614,1.28323 -5.03421,1.9742c-0.29613,0.09871 -0.69097,0 -0.78968,-0.39484c-0.09871,-0.39484 0.09871,-0.69097 0.49355,-0.78968z" id="Path" fill="#000000" fill-rule="evenodd" stroke="none" stroke-width="1" stroke-linecap="butt"/><path d="M334.59403,143.16981c-17.37295,-0.39484 -30.7975,-18.65618 -30.7975,-18.65618" id="Path" fill="none" fill-rule="evenodd" stroke="#000000" stroke-width="1.29" stroke-linecap="butt"/><path d="M304.29008,123.32911c-0.09871,0.59226 -0.19742,1.18452 -0.49355,1.77678c-0.19742,0.29613 -0.49355,0.59226 -0.78968,0.78968c-0.29613,0.19742 -0.69097,0.19742 -1.08581,0.19742c-0.59226,0 -1.18452,-0.19742 -1.77678,-0.49355c-0.9871,-0.49355 -1.87549,-1.18452 -2.66517,-1.87549c-0.78968,-0.69097 -1.57936,-1.38194 -2.27033,-2.17162c-0.19742,-0.19742 -0.39484,-0.49355 -0.59226,-0.69097c0.19742,0.49355 0.29613,1.08581 0.29613,1.67807c0.19742,1.18452 0.29613,2.36904 0.19742,3.55356c0,1.28323 -0.39484,2.56646 -1.18452,3.55356c-0.49355,0.49355 -1.08581,0.88839 -1.77678,0.9871c-0.78968,0.09871 -1.48065,-0.09871 -2.07291,-0.59226c-0.88839,-0.88839 -1.57936,-1.9742 -1.9742,-3.15872c-0.39484,-1.08581 -0.69097,-2.27033 -0.88839,-3.35614c-0.19742,-1.08581 -0.39484,-2.27033 -0.39484,-3.45485c0,-0.59226 0,-1.18452 0,-1.77678c-0.09871,-0.59226 0.39484,-1.28323 0.78968,-1.77678c-0.09871,0.69097 0.09871,2.86259 0.19742,3.45485c0.19742,1.08581 0.29613,2.17162 0.59226,3.25743c0.19742,1.08581 0.49355,2.17162 0.88839,3.15872c0.29613,0.9871 0.88839,1.87549 1.57936,2.56646c0.29613,0.29613 0.69097,0.39484 1.08581,0.29613c0.39484,-0.09871 0.78968,-0.29613 1.08581,-0.59226c0.59226,-0.78968 0.88839,-1.77678 0.88839,-2.76388c0.09871,-1.08581 0.09871,-2.17162 0,-3.25743c-0.19742,-0.88839 -0.39484,-3.45485 -0.49355,-3.75098c0.49355,0.09871 0.9871,0.39484 1.38194,0.78968c0.39484,0.29613 0.78968,0.69097 1.18452,0.9871c0.78968,0.69097 1.57936,1.38194 2.27033,2.07291c0.78968,0.59226 1.57936,1.18452 2.46775,1.67807c0.39484,0.19742 0.78968,0.29613 1.18452,0.39484c0.29613,0 0.59226,-0.09871 0.78968,-0.39484c0.19742,-0.39484 0.29613,-0.78968 0.39484,-1.18452c0.09871,-0.49355 0,-0.88839 -0.09871,-1.38194c-0.19742,-0.88839 -0.69097,-1.67807 -1.38194,-2.36904c-0.69097,-0.69097 -1.48065,-1.28323 -2.36904,-1.67807c-0.88839,-0.39484 -1.77678,-0.69097 -2.76388,-1.18452c1.08581,-0.39484 2.27033,-0.29613 3.25743,0.19742c0.9871,0.39484 1.9742,0.9871 2.76388,1.77678c0.88839,0.78968 1.48065,1.87549 1.67807,2.9613c0.09871,0.59226 0.19742,1.18452 0.09871,1.77678z" id="Path" fill="#000000" fill-rule="evenodd" stroke="none" stroke-width="1" stroke-linecap="butt"/><path d="M258.68608,168.73569c0,8.78519 -14.41165,28.72459 -21.8149,10.56197c-9.18003,-22.30845 5.33034,-45.90012 17.8665,-46.19625c6.02131,-0.19742 0.09871,13.62198 -1.9742,17.57037c-1.77678,3.45485 -2.56646,3.9484 -3.06001,7.79809c-0.59226,4.54066 3.15872,8.58777 9.18003,5.52776c0,0 0.19742,5.9762 -4.14582,10.22959z" id="Path" fill="#de9143" fill-rule="evenodd" stroke="none" stroke-width="1" stroke-linecap="butt"/><path d="M258.98221,169.52537c0.19742,1.08581 0.19742,2.27033 0,3.35614c-0.29613,1.48065 -0.69097,2.86259 -1.38194,4.14582c-1.18452,2.66517 -2.9613,5.03421 -5.13292,7.00841c-1.08581,0.9871 -2.46775,1.77678 -3.84969,2.36904c-1.48065,0.59226 -3.06001,0.69097 -4.63937,0.29613c-1.48065,-0.39484 -2.86259,-1.08581 -3.9484,-2.17162c-1.08581,-0.9871 -1.9742,-2.17162 -2.76388,-3.35614c-1.48065,-2.46775 -2.66517,-5.13292 -3.45485,-7.8968c-0.69097,-2.76388 -1.08581,-5.72518 -0.9871,-8.58777c0.09871,-2.86259 0.49355,-5.72518 1.28323,-8.48906c0.59226,-2.66517 1.77678,-5.33034 3.35614,-7.69938c-0.9871,2.66517 -1.77678,5.33034 -2.46775,7.99551c-0.69097,2.66517 -0.9871,5.52776 -0.9871,8.29164c0,2.76388 0.29613,5.52776 0.9871,8.19293c0.78968,2.66517 1.87549,5.13292 3.25743,7.50196c0.78968,1.08581 1.57936,2.17162 2.66517,3.06001c0.9871,0.88839 2.07291,1.48065 3.35614,1.77678c2.46775,0.59226 5.03421,-0.59226 7.10712,-2.36904c2.07291,-1.77678 3.65227,-4.04711 4.83679,-6.51486c0.59226,-1.28323 1.08581,-2.56646 1.48065,-3.84969c0.09871,-0.29613 0.19742,-0.59226 0.29613,-0.88839c-0.59226,0.9871 -1.28323,1.77678 -2.17162,2.36904c-0.9871,0.78968 -2.17162,1.18452 -3.45485,1.38194c0.9871,-0.59226 1.9742,-1.38194 2.76388,-2.17162l1.18452,-1.18452c2.36904,-3.35614 1.9742,-6.41615 1.87549,-7.20583c-1.38194,0.59226 -2.9613,0.88839 -4.54066,0.69097c-1.9742,-0.39484 -3.65227,-1.77678 -4.34324,-3.65227c-0.39484,-0.88839 -0.49355,-1.87549 -0.59226,-2.76388c0,-0.88839 0.19742,-1.77678 0.39484,-2.66517c0.19742,-0.88839 0.49355,-1.77678 0.88839,-2.66517c0.39484,-0.78968 0.88839,-1.57936 1.28323,-2.27033c1.77678,-2.9613 3.15872,-6.02131 4.34324,-9.27874c0.59226,-1.57936 0.88839,-3.25743 0.9871,-4.9355c0.19742,-1.57936 -0.19742,-3.25743 -1.08581,-4.73808c1.38194,1.18452 2.17162,2.9613 2.07291,4.73808c0,1.77678 -0.29613,3.55356 -0.78968,5.23163c-1.08581,3.35614 -2.46775,6.51486 -4.14582,9.57487c-0.39484,0.78968 -0.88839,1.48065 -1.18452,2.27033c-0.29613,0.69097 -0.59226,1.48065 -0.78968,2.27033c-0.19742,0.78968 -0.29613,1.57936 -0.29613,2.36904c0,0.78968 0.09871,1.57936 0.39484,2.27033c0.49355,1.38194 1.77678,2.46775 3.25743,2.76388c1.57936,0.19742 3.15872,-0.09871 4.54066,-0.88839l0.88839,-0.49355c0,0 0.29613,4.54066 -0.49355,6.81099z" id="Path" fill="#000000" fill-rule="evenodd" stroke="none" stroke-width="1" stroke-linecap="butt"/></g><g data-paper-data="{&quot;origPos&quot;:null}" id="Group" fill-rule="evenodd" stroke-linejoin="miter"><path d="M310.4101,137.54334c1.38194,1.87549 0.39484,4.54066 -3.35614,6.31744c-3.75098,1.77678 -8.98261,2.27033 -10.36455,0.39484c-1.38194,-1.87549 0.78968,-5.03421 4.54066,-6.81099c3.75098,-1.77678 7.79809,-1.67807 9.18003,0.09871z" id="Path" fill="#8e5334" stroke="#000000" stroke-width="1" stroke-linecap="butt"/><path d="M285.14034,137.54334c3.84969,2.36904 6.12002,6.12002 4.83679,7.8968c-1.28323,1.77678 -6.81099,0.69097 -10.75939,-1.67807c-3.9484,-2.36904 -5.03421,-5.42905 -3.65227,-7.20583c1.38194,-1.77678 5.72518,-1.38194 9.57487,0.9871z" id="Path" fill="#8e5334" stroke="#000000" stroke-width="1" stroke-linecap="butt"/><g stroke="none" stroke-width="1" stroke-linecap="butt"><path d="M271.12352,157.8776c0,-4.63386 3.35875,-8.39035 7.50196,-8.39035c4.14321,0 7.50196,3.75649 7.50196,8.39035c0,4.63386 -3.35875,8.39035 -7.50196,8.39035c-4.14321,0 -7.50196,-3.75649 -7.50196,-8.39035z" id="Oval" fill="#ffffff"/><path d="M270.92611,156.10082c-0.29613,-2.27033 1.67807,-4.9355 2.66517,-5.62647c0.9871,-0.69097 2.07291,-1.28323 3.25743,-1.67807c1.18452,-0.29613 2.46775,-0.29613 3.65227,0.09871c1.18452,0.39484 2.17162,0.9871 3.06001,1.87549c1.67807,1.57936 2.76388,3.84969 2.9613,6.21873c0,0.09871 0,0.09871 -0.09871,0.19742c-0.09871,0 -0.09871,0 -0.19742,-0.09871c-0.39484,-2.17162 -1.57936,-4.14582 -3.25743,-5.52776c-0.78968,-0.59226 -1.77678,-1.08581 -2.76388,-1.28323c-0.9871,-0.19742 -2.07291,-0.19742 -3.06001,-0.09871c-1.08581,0.09871 -2.07291,0.49355 -2.86259,1.18452c-0.88839,0.59226 -3.06001,2.56646 -3.06001,4.73808c0,2.17162 0,0.09871 -0.09871,0.09871c-0.09871,0 -0.09871,-0.09871 -0.19742,-0.09871z" id="Path" fill="#030305"/><path d="M271.8145,161.82599c0.78968,1.08581 1.87549,2.07291 3.15872,2.76388c0.59226,0.29613 1.18452,0.49355 1.87549,0.69097c0.69097,0.09871 1.28323,0.19742 1.9742,0.09871c1.28323,-0.09871 2.56646,-0.49355 3.65227,-1.18452c1.18452,-0.78968 2.07291,-1.77678 2.86259,-2.9613h0.19742c0.09871,0 0.09871,0.09871 0.09871,0.19742c-0.39484,1.48065 -1.28323,2.76388 -2.46775,3.75098c-1.18452,0.9871 -2.66517,1.48065 -4.14582,1.57936c-1.57936,0 -3.06001,-0.39484 -4.34324,-1.18452c-1.28323,-0.88839 -2.27033,-2.07291 -2.86259,-3.45485c0,-0.09871 0,-0.09871 0.09871,-0.09871c-0.09871,-0.19742 -0.09871,-0.19742 -0.09871,-0.19742z" id="Path" fill="#030305"/><path d="M282.87002,158.17373c0.29613,1.67807 -0.88839,3.25743 -2.56646,3.65227c0,0 -2.9613,0.39484 -3.45485,-3.55356c-0.49355,-3.75098 2.46775,-4.14582 2.46775,-4.14582c0.9871,-0.19742 3.35614,0.78968 3.55356,4.04711z" id="Path" fill="#030305"/></g><g stroke="none" stroke-width="1" stroke-linecap="butt"><path d="M301.42749,157.48276c0,-4.63386 3.35875,-8.39035 7.50196,-8.39035c4.14321,0 7.50196,3.75649 7.50196,8.39035c0,4.63386 -3.35875,8.39035 -7.50196,8.39035c-4.14321,0 -7.50196,-3.75649 -7.50196,-8.39035z" id="Oval" fill="#ffffff"/><path d="M316.23397,155.60727c-0.09871,0.09871 -0.09871,0.09871 -0.29613,0c-0.09871,-2.17162 -2.46775,-3.9484 -3.35614,-4.54066c-0.88839,-0.59226 -1.87549,-0.88839 -2.9613,-0.9871c-1.08581,-0.09871 -2.07291,0 -3.06001,0.29613c-1.08581,0.29613 -1.9742,0.78968 -2.76388,1.48065c-1.57936,1.48065 -2.66517,3.55356 -2.86259,5.72518c0,0 0,0.09871 -0.09871,0.09871c-0.09871,0 -0.09871,0 -0.09871,-0.09871c0.09871,-2.36904 0.9871,-4.63937 2.56646,-6.41615c0.78968,-0.88839 1.87549,-1.57936 2.9613,-2.07291c1.18452,-0.49355 2.46775,-0.59226 3.65227,-0.39484c1.18452,0.29613 2.36904,0.78968 3.35614,1.48065c0.9871,0.69097 3.15872,3.15872 2.9613,5.42905c0,0.09871 0,0.09871 0,0z" id="Path" fill="#030305"/><path d="M315.93785,161.72728c-0.49355,1.48065 -1.48065,2.76388 -2.66517,3.65227c-1.28323,0.88839 -2.76388,1.38194 -4.24453,1.48065c-1.48065,0.09871 -2.9613,-0.39484 -4.24453,-1.28323c-1.28323,-0.88839 -2.27033,-2.07291 -2.76388,-3.55356v-0.19742c0.09871,0 0.09871,0 0.19742,0c0.78968,1.08581 1.87549,2.07291 3.06001,2.76388c1.18452,0.59226 2.46775,0.88839 3.75098,0.88839c0.69097,0 1.28323,-0.09871 1.9742,-0.29613c0.59226,-0.19742 1.18452,-0.39484 1.77678,-0.78968c1.18452,-0.78968 2.17162,-1.77678 2.9613,-2.9613c0.09871,0 0.19742,0.09871 0.19742,0.29613z" id="Path" fill="#030305"/><path d="M307.84364,154.22533c0,0 2.9613,0.29613 2.76388,4.04711c-0.19742,3.9484 -3.25743,3.75098 -3.25743,3.75098c-1.67807,-0.19742 -2.9613,-1.77678 -2.76388,-3.55356c-0.09871,-3.15872 2.17162,-4.34324 3.25743,-4.24453z" id="Path" fill="#030305"/></g><path d="M292.83972,158.76599c0.49355,-0.29613 1.08581,-0.49355 1.57936,-0.49355c0.59226,0 1.18452,0 1.67807,0.09871c1.28323,0.09871 2.36904,0.88839 2.9613,1.9742c0.19742,0.59226 0.39484,1.18452 0.39484,1.77678c0,0.59226 0,1.18452 -0.09871,1.77678c-0.09871,0.59226 -0.29613,1.08581 -0.59226,1.57936c-0.19742,0.59226 -0.69097,1.08581 -1.28323,1.28323c0,-0.59226 0.19742,-1.08581 0.39484,-1.57936c0.19742,-0.49355 0.29613,-0.9871 0.39484,-1.48065c0.09871,-0.49355 0.09871,-0.9871 0.09871,-1.48065c0,-0.49355 -0.09871,-0.9871 -0.29613,-1.38194c-0.39484,-0.78968 -1.18452,-1.38194 -2.17162,-1.57936c-0.49355,-0.09871 -0.9871,-0.19742 -1.48065,-0.29613c-0.49355,0.09871 -1.08581,0 -1.57936,-0.19742z" id="Path" fill="#030305" stroke="none" stroke-width="1" stroke-linecap="butt"/><g id="Path"><path d="M309.81784,187.58929c-8.68648,3.25743 -18.16263,3.65227 -27.04653,0.9871c-2.36904,-0.59226 -4.63937,-1.67807 -6.61357,-3.15872c-1.9742,-1.48065 -3.25743,-3.75098 -3.55356,-6.21873c-0.19742,-1.77678 0.69097,-3.55356 2.27033,-4.44195c1.18452,-0.39484 2.46775,-0.59226 3.65227,-0.29613c6.81099,0.9871 13.42456,2.17162 20.33425,2.17162c3.45485,0 6.9097,-0.59226 10.36455,-1.18452c3.55356,-0.88839 7.79809,-2.36904 10.8581,-3.75098c0.49355,-0.29613 -0.29613,11.94391 -10.26584,15.8923z" fill="#581426" stroke="none" stroke-width="1" stroke-linecap="butt"/><path d="M275.7629,185.31896c-4.44195,-4.24453 -3.06001,-7.79809 -3.06001,-7.79809c3.84969,1.9742 8.09422,3.35614 12.33875,4.14582c4.83679,0.59226 9.77229,0.78968 14.60907,0.49355c3.15872,1.08581 5.72518,3.45485 7.10712,6.51486c-10.8581,3.84969 -26.55298,0.88839 -30.99492,-3.35614z" fill="#e68387" stroke="none" stroke-width="1" stroke-linecap="butt"/><path d="M273.09773,177.71829c3.84969,1.9742 7.69938,3.15872 11.94391,3.9484c6.51486,1.08581 10.95681,0 14.60907,0.49355c3.15872,0.39484 5.82389,3.65227 7.10712,6.51486" fill="none" stroke="#030305" stroke-width="0.86" stroke-linecap="round"/><path d="M316.43138,173.76989c-0.19742,2.07291 -1.9742,5.13292 -3.55356,5.82389c-2.46775,0.9871 -5.03421,1.67807 -7.69938,1.9742c-1.87549,0.29613 -3.55356,0.49355 -5.42905,0.69097c-9.18003,0.59226 -18.75489,-0.39484 -27.04653,-4.73808c0,0 0.29613,-3.25743 4.73808,-3.06001c4.44195,0.19742 23.59168,5.13292 38.99043,-0.69097z" fill="#ffffff" stroke="none" stroke-width="1" stroke-linecap="butt"/><path d="M316.62881,173.76989c-0.09871,1.48065 -0.69097,2.9613 -1.48065,4.24453c-0.29613,0.39484 -0.59226,0.78968 -0.88839,1.18452c-0.39484,0.39484 -0.78968,0.69097 -1.38194,0.88839c-0.9871,0.39484 -2.07291,0.69097 -3.06001,0.9871c-2.27033,0.59226 -4.54066,0.9871 -6.9097,1.18452c-1.18452,0.09871 -2.36904,0.29613 -3.65227,0.39484c-1.28323,0.09871 -2.36904,0.09871 -3.55356,0.09871c-4.63937,0.09871 -9.18003,-0.39484 -13.72069,-1.57936c-3.25743,-0.78968 -6.31744,-1.77678 -9.18003,-3.45485l0.19742,-0.78968c3.06001,1.57936 6.21873,2.76388 9.57487,3.55356c4.24453,0.9871 8.68648,1.38194 13.02972,1.38194c1.18452,0 2.27033,0 3.45485,-0.09871c1.08581,-0.09871 2.27033,-0.29613 3.35614,-0.39484c2.17162,-0.19742 4.34324,-0.59226 6.51486,-1.08581c0.9871,-0.19742 1.9742,-0.49355 2.9613,-0.88839c0.39484,-0.09871 0.88839,-0.29613 1.18452,-0.59226c0.39484,-0.29613 0.69097,-0.59226 0.88839,-0.88839c0.9871,-1.28323 1.67807,-2.76388 1.9742,-4.34324z" fill="#030305" stroke="none" stroke-width="1" stroke-linecap="butt"/><path d="M319.19527,166.8602c0.69097,-0.29613 1.38194,-0.19742 1.9742,0.19742c0.69097,0.39484 1.08581,1.08581 1.18452,1.77678c0,0.69097 -0.29613,1.48065 -0.78968,1.9742c-0.49355,0.49355 -0.9871,0.88839 -1.57936,1.18452c-2.27033,1.18452 -4.63937,2.17162 -7.10712,2.86259c-4.9355,1.28323 -9.96971,1.9742 -15.00391,1.9742c-5.03421,0.09871 -10.16713,-0.29613 -15.10262,-1.18452c-1.18452,-0.19742 -2.46775,-0.49355 -3.65227,-0.59226c-1.18452,-0.19742 -2.36904,-0.19742 -3.55356,0c-2.36904,0.59226 -2.56646,3.75098 -1.9742,5.9226c0.39484,1.08581 0.9871,2.17162 1.87549,2.9613c0.88839,0.88839 1.87549,1.57936 2.9613,2.17162c2.17162,1.18452 4.44195,2.07291 6.9097,2.56646c2.46775,0.49355 4.9355,0.78968 7.40325,0.88839c2.56646,0.09871 5.03421,0.09871 7.60067,-0.09871c2.46775,-0.09871 4.9355,-0.59226 7.30454,-1.28323c2.36904,-0.69097 4.54066,-1.87549 6.41615,-3.45485c1.87549,-1.57936 3.25743,-3.65227 4.14582,-5.9226c0.88839,-2.27033 1.38194,-4.73808 1.48065,-7.20583c0,-0.19742 0.19742,-0.39484 0.49355,-0.39484c0.19742,0 0.39484,0.19742 0.39484,0.39484c-0.09871,2.56646 -0.69097,5.03421 -1.57936,7.50196c-0.9871,2.36904 -2.46775,4.54066 -4.44195,6.31744c-1.9742,1.67807 -4.24453,2.86259 -6.81099,3.55356c-2.46775,0.69097 -4.9355,1.18452 -7.50196,1.28323c-2.56646,0.19742 -5.03421,0.19742 -7.60067,0.09871c-2.56646,-0.09871 -5.03421,-0.39484 -7.60067,-0.88839c-2.46775,-0.49355 -4.9355,-1.38194 -7.20583,-2.66517c-2.36904,-1.18452 -4.24453,-3.15872 -5.13292,-5.62647c-0.19742,-0.59226 -0.29613,-1.28323 -0.29613,-1.9742c0,-0.69097 0,-1.28323 0.19742,-1.9742c0.49355,-1.87549 2.36904,-3.06001 2.56646,-3.06001c1.28323,-0.19742 2.66517,-0.19742 3.9484,0c1.28323,0.19742 2.46775,0.39484 3.75098,0.69097c4.9355,0.88839 9.96971,1.28323 14.9052,1.18452c5.03421,0 9.96971,-0.69097 14.80649,-1.9742c2.36904,-0.59226 4.73808,-1.57936 6.9097,-2.76388c0.49355,-0.29613 0.9871,-0.59226 1.38194,-1.08581c0.39484,-0.39484 0.59226,-0.88839 0.59226,-1.38194c-0.09871,-0.49355 -0.39484,-0.9871 -0.78968,-1.28323c-0.39484,-0.19742 -0.88839,-0.49355 -1.48065,-0.69097z" fill="#030305" stroke="none" stroke-width="1" stroke-linecap="butt"/></g></g></g></g></svg>